<svg xmlns="http://www.w3.org/2000/svg" xmlns:xlink="http://www.w3.org/1999/xlink" width="81" height="81" viewBox="0 0 81 81">
  <defs>
    <clipPath id="clip-path">
      <rect id="Rectángulo_38129" data-name="Rectángulo 38129" width="41.722" height="41.713" fill="none"/>
    </clipPath>
  </defs>
  <g id="Grupo_158625" data-name="Grupo 158625" transform="translate(-1171.189 -5097.419)">
    <circle id="Elipse_4760" data-name="Elipse 4760" cx="40.5" cy="40.5" r="40.5" transform="translate(1171.189 5097.419)" fill="#1169e3"/>
    <g id="Grupo_156593" data-name="Grupo 156593" transform="translate(1183.708 5110.227)">
      <path id="Trazado_127053" data-name="Trazado 127053" d="M15.128,123.211c-.375.084-.462-.093-.459-.444.01-.878-.005-.894-.915-.889-.338,0-.443-.1-.437-.438.006-.312.063-.457.423-.456.912,0,.935-.015.925-.925,0-.412.2-.419.5-.423s.463.048.463.414c0,.922.019.938.919.935.348,0,.431.124.431.448s-.082.447-.43.445c-.918-.005-.94.012-.92.881.01.4-.14.522-.505.451" transform="translate(-13.318 -87.398)" fill="#29c4bb"/>
      <path id="Trazado_127054" data-name="Trazado 127054" d="M213.357,151.157c.336-.064.522.047.467.427-.046.318.064.5.416.441s.471.073.474.444c0,.389-.156.478-.487.434s-.417.095-.411.41c.01.493-.3.683-.772.533-.226-.071-.177-.252-.162-.394.04-.39-.049-.628-.509-.55-.356.061-.378-.163-.377-.436s.012-.494.373-.438c.389.06.574-.082.509-.494-.062-.393.19-.41.481-.376" transform="translate(-158.657 -109.494)" fill="#29c4bb"/>
      <path id="Trazado_127055" data-name="Trazado 127055" d="M210.152,68.984c.087.375-.085.5-.436.444-.381-.064-.536.092-.468.47s-.093.453-.448.457-.5-.1-.44-.461c.068-.379-.09-.535-.467-.465s-.424-.131-.439-.459c-.017-.385.132-.486.468-.427.365.064.5-.087.439-.444-.059-.341.051-.479.43-.465.335.012.528.059.457.443s.095.528.469.465c.352-.059.523.067.435.442" transform="translate(-155.02 -51.692)" fill="#010000"/>
      <path id="Trazado_127056" data-name="Trazado 127056" d="M54.475,186.354c.082.35-.091.478-.44.415-.411-.074-.507.139-.449.485.065.384-.121.444-.459.442s-.5-.075-.428-.423c.089-.457-.14-.569-.533-.5s-.385-.186-.386-.463.006-.5.37-.423c.491.1.616-.139.55-.578-.063-.42.257-.3.471-.312s.479-.043.413.322c-.082.451.076.66.553.568.4-.076.349.2.338.468" transform="translate(-41.455 -132.953)" fill="#010000"/>
      <path id="Trazado_127057" data-name="Trazado 127057" d="M121.781,17.147c-.094-.4.127-.477.453-.428s.473-.09.421-.424.048-.486.432-.478c.353.007.515.1.453.461s.109.493.458.441c.323-.048.485.029.487.424s-.15.513-.5.457c-.372-.059-.5.11-.441.458.065.39-.144.435-.472.441-.351.007-.465-.125-.413-.446.056-.353-.074-.514-.442-.452s-.513-.088-.432-.453" transform="translate(-92.645 -15.816)" fill="#29c4bb"/>
    </g>
    <g id="Grupo_158626" data-name="Grupo 158626" transform="translate(1190.609 5116.84)">
      <g id="Grupo_158623" data-name="Grupo 158623" clip-path="url(#clip-path)">
        <path id="Trazado_133620" data-name="Trazado 133620" d="M45.991,10.674c.036-.693.036-.693.753-.693q3.346,0,6.691,0a3.436,3.436,0,0,1,3.551,2.544c.086.259.232.236.415.236q2.889,0,5.779,0a3.481,3.481,0,0,1,3.68,3.67q0,3.975,0,7.95a3.485,3.485,0,0,1-3.68,3.672c-1.023,0-2.047,0-3.182,0,.565.733,1.055,1.4,1.582,2.043a7.734,7.734,0,0,1,1.807,5.077q-.009,6.386,0,12.772c0,.742-.215.961-.948.961q-11.948,0-23.9,0a3.478,3.478,0,0,1-3.658-3.649c0-.941.021-1.883-.011-2.823-.013-.4.1-.549.489-.48a.943.943,0,0,0,.216-.012.785.785,0,0,1,.535-.123c1.382,0,2.765-.013,4.146.006,4,.023,7.992,0,11.988.013A.638.638,0,0,0,52.9,41.4c.337-.758.35-.753-.241-1.344-1.105-1.106-2.22-2.2-3.315-3.32a3.317,3.317,0,0,1-.779-3.718,3.273,3.273,0,0,1,4.895-1.364,17.406,17.406,0,0,1,1.7,1.609,1.867,1.867,0,0,0,.446.375c.008-.735,0-1.417,0-2.068a.2.2,0,0,0-.213-.014c-.764.229-1.267-.211-1.129-1,.107-.613.243-1.221.362-1.832.1-.515.078-.543-.453-.544-1.477,0-2.954-.017-4.431,0a3.813,3.813,0,0,1-3.159-1.44,4.138,4.138,0,0,1-.729-2.451c.019-2.632.008-5.264.006-7.9a3.668,3.668,0,0,1,3.907-3.758c.966.01,1.931,0,2.9,0,.75.012,1.5,0,2.25,0,.124,0,.291.05.356-.086.075-.156-.077-.261-.167-.366A2.119,2.119,0,0,0,53.2,11.5c-2.242.032-4.483.018-6.725.007-.574,0-.715-.27-.482-.83" transform="translate(-25.141 -7.196)"/>
        <path id="Trazado_133621" data-name="Trazado 133621" d="M48.539,69.961a3.84,3.84,0,0,0,3.2,1.347c1.52-.04,3.041,0,4.562-.015.311,0,.438.025.343.4-.17.672-.262,1.363-.415,2.039a.773.773,0,0,0,.262.926.722.722,0,0,0,.918-.107.55.55,0,0,1,.136-.051v2.655c-.159.012-.214-.128-.3-.21-.537-.528-1.06-1.07-1.6-1.593A3.152,3.152,0,1,0,51.2,79.819q1.872,1.906,3.78,3.777c.219.216.2.359.109.655-.275.866-.83.984-1.657.972-3.577-.051-7.154-.021-10.732-.023-.174,0-.347-.009-.52-.015-.163-.147.08-.4-.1-.507a1.285,1.285,0,0,0-.637-.039c-1.136,0-2.272,0-3.408,0a.822.822,0,0,1-.616-.13l-.016-.681c.171-.188.4-.139.611-.14,1.129-.006,2.257,0,3.386,0a3.368,3.368,0,0,0,3.522-3.525c0-1.215,0-2.431,0-3.646a1.851,1.851,0,0,1,.049-.6c.121-.213.238-.079.342.014a2.536,2.536,0,0,1,.365.582c.323-.656.583-1.307.852-1.953.588-1.413,1.207-2.814,1.8-4.227.054-.13.079-.282.218-.363" transform="translate(-26.962 -50.44)" fill="#3085cc"/>
        <path id="Trazado_133622" data-name="Trazado 133622" d="M10.444,18.457q-2.112-1.518-4.222-3.039a.8.8,0,0,0-.488-.123,19.78,19.78,0,0,1-2.9-.073A3.414,3.414,0,0,1,.015,11.9q-.028-4.254,0-8.507A3.424,3.424,0,0,1,3.4.013q6.338-.03,12.676,0a3.478,3.478,0,0,1,3.408,3.467.667.667,0,0,1,.122.448c0,1.22.018,2.44-.008,3.659,0,1.387.006,2.775,0,4.162a3.611,3.611,0,0,1-3.69,3.677c-1.214.007-2.429,0-3.643,0-.833,0-.832,0-.673.8.1.525.213,1.048.313,1.573a.851.851,0,0,1-.446,1.024.781.781,0,0,1-1.018-.36" transform="translate(0 0)"/>
        <path id="Trazado_133623" data-name="Trazado 133623" d="M18.109,75.409q0,2.17-.007,4.34A3.484,3.484,0,0,1,14.446,83.4l-3.993.014q-3.345-.007-6.689-.014A3.493,3.493,0,0,1,.027,79.658q0-1.846,0-3.692a3.485,3.485,0,0,1,3.707-3.686c1.506,0,3.012-.011,4.518.007a1.922,1.922,0,0,0,1.181-.316c.331-.229.689-.418,1.035-.624a.771.771,0,0,1,.323-.28c.887-.517,1.783-1.019,2.673-1.532a.814.814,0,0,1,1.235.908c-.123.551-.275,1.094-.4,1.642.259.186.566.018.835.118a3.566,3.566,0,0,1,2.821,2.25,1.311,1.311,0,0,1,.152.956" transform="translate(-0.018 -50.031)"/>
        <path id="Trazado_133624" data-name="Trazado 133624" d="M41.144,41.56c.126-.546.236-1.1.383-1.636a.77.77,0,0,0-.2-.9c-.326-.26-.639-.142-.959.041-.973.557-1.953,1.1-2.93,1.652q0-1.429-.005-2.858a1.143,1.143,0,0,0,.915.3c.391-.147.6.212.9.331.106-.1.019-.215,0-.313-.14-.739-.3-1.475-.438-2.213-.118-.611-.053-.7.561-.7q2.43-.009,4.86,0a2.835,2.835,0,0,0,1.1-.2,2.625,2.625,0,0,0,1.7-2.492c.01-1.634,0-3.268.005-4.9,0-.226-.045-.468.134-.661a.966.966,0,0,1,.948.049,5.817,5.817,0,0,0-.266,2c.012,2.414.023,4.828,0,7.241a4.307,4.307,0,0,0,.721,2.619,14.9,14.9,0,0,1-.774,1.966c-.644,1.558-1.315,3.106-1.977,4.657a1.28,1.28,0,0,1-.107.164c-.248-.306-.275-.734-.629-.93A3.546,3.546,0,0,0,43,41.957a8.573,8.573,0,0,0-.893-.295c-.154-.177.014-.346.021-.493-.326.13-.569.465-.987.39" transform="translate(-26.986 -19.401)" fill="#348ed8"/>
        <path id="Trazado_133625" data-name="Trazado 133625" d="M71.481,16.644l-.957.008a.554.554,0,0,1-.681-.016V12.465h1.362c.036.7.036.7.752.7l6.56.015a2.251,2.251,0,0,1-.6,1.361c-.909,0-1.819.044-2.726.007a3.674,3.674,0,0,0-3.7,2.1" transform="translate(-50.355 -8.987)" fill="#dfdfdd"/>
        <path id="Trazado_133626" data-name="Trazado 133626" d="M37.414,122.088h4.95c.02.27-.222.437-.186.681H37.4q.008-.341.016-.682" transform="translate(-26.963 -88.023)" fill="#348ed8"/>
        <path id="Trazado_133627" data-name="Trazado 133627" d="M98.284,88.671c-.763-.766-1.521-1.537-2.293-2.294a.751.751,0,0,1-.26-.6c.018-1.268.016-2.536.021-3.8A9.651,9.651,0,0,1,97.3,80.708c.21-.169.394-.424.721-.391a11.169,11.169,0,0,1,2.274,3.5,6.783,6.783,0,0,1,.311,2q0,6.013.006,12.026c0,.288-.047.393-.367.39q-3.3-.023-6.6,0a.543.543,0,0,1-.542-.321,5.374,5.374,0,0,1-.035-5.533c.083-.152.184-.294.28-.438.442-.662.424-.837-.152-1.413q-2.088-2.088-4.177-4.174a1.817,1.817,0,0,1-.582-1.085,1.757,1.757,0,0,1,3-1.477c.99.975,1.967,1.963,2.95,2.945L97.3,89.651a2.034,2.034,0,0,0,.291.081c.585.132.92-.229.752-.811a1.815,1.815,0,0,1-.063-.25" transform="translate(-63.749 -57.904)" fill="#fdc8a2"/>
        <path id="Trazado_133628" data-name="Trazado 133628" d="M88.341,33.093l-3.134-2.321c-.527-.39-.7-.388-1.231.012l-4.163,3.122c-.143-.087-.078-.216-.078-.317q-.007-3.234,0-6.467a2.078,2.078,0,0,1,2.174-2.191q6.859-.006,13.718,0a1.673,1.673,0,0,1,.879.179c.239.179.06.335-.04.475a17.325,17.325,0,0,1-1.148,1.4c-.63.709-1.263,1.418-1.962,2.062-.123.114-.221.326-.457.2a4.438,4.438,0,0,0-.574-1.708A2.662,2.662,0,1,0,89.6,31.7a.91.91,0,0,1,.361.141.123.123,0,0,1-.013.188,7.394,7.394,0,0,1-1.4,1.056.252.252,0,0,1-.209.012" transform="translate(-57.476 -17.973)" fill="#4db6e4"/>
        <path id="Trazado_133629" data-name="Trazado 133629" d="M47.515,129.557l8.383-.014c1.332,0,2.665.011,4-.009.32,0,.36.079.33.38a6.655,6.655,0,0,0,.693,3.738.7.7,0,0,1-.443.058q-7.015,0-14.031,0a1.258,1.258,0,0,1-.679-.077,24.446,24.446,0,0,1,1.005-2.477,7.087,7.087,0,0,1,.745-1.6" transform="translate(-32.995 -93.391)" fill="#d5d5d3"/>
        <path id="Trazado_133630" data-name="Trazado 133630" d="M91.393,56.085c.826.609,1.66,1.207,2.473,1.832a.831.831,0,0,0,1.1.04c1.112-.757,2.24-1.49,3.352-2.245a.433.433,0,0,1,.574,0q1.431.981,2.888,1.926a.388.388,0,0,1,.172.541,2.088,2.088,0,0,1-1.926,1.376q-1.628.018-3.256,0a1.325,1.325,0,0,0-.844.266c-.933.684-1.88,1.35-2.824,2.018a.757.757,0,0,1-.4.22c.1-.5.19-1,.289-1.488.137-.685-.128-1.01-.84-1.01-1.954,0-3.908,0-5.862,0a1.09,1.09,0,0,1-.634-.078c-.032-.2.143-.233.259-.29A51.779,51.779,0,0,0,91.072,56.2a.523.523,0,0,1,.32-.112" transform="translate(-61.753 -40.088)" fill="#77ac50"/>
        <path id="Trazado_133631" data-name="Trazado 133631" d="M115.228,29.735a27.94,27.94,0,0,0,2.881-3.084c.19-.234.388-.462.58-.694.093-.113.182-.229.091-.387a1.894,1.894,0,0,1,1.289,1.826c.032,2.342.011,4.686.011,7.03-.164.049-.245-.079-.344-.145-.869-.573-1.739-1.144-2.6-1.732a.847.847,0,0,0-1.074.008c-1.1.75-2.214,1.474-3.313,2.222a.392.392,0,0,1-.559-.005c-.513-.42-1.049-.814-1.576-1.218a11.729,11.729,0,0,0,1.644-1.2c.1-.136.255-.113.393-.134a2.678,2.678,0,0,0,2.4-2.1c.036-.136.047-.288.179-.381" transform="translate(-79.752 -18.435)" fill="#48acd8"/>
        <path id="Trazado_133632" data-name="Trazado 133632" d="M87.321,52.524a39.762,39.762,0,0,1-3.736,2.3q-1,.549-2,1.092a1.95,1.95,0,0,1-1.55-1.4.349.349,0,0,1,.146-.446q2.222-1.652,4.432-3.321a.257.257,0,0,1,.373-.008c.774.6,1.556,1.191,2.335,1.784" transform="translate(-57.681 -36.527)" fill="#7db357"/>
        <path id="Trazado_133633" data-name="Trazado 133633" d="M43.27,129.567a19.4,19.4,0,0,1-.893,2.2,10.276,10.276,0,0,1-.857,1.88,2,2,0,0,1-1.629-1.876c-.026-.65,0-1.3-.013-1.953,0-.21.06-.269.268-.266,1.042.014,2.083.014,3.125.018" transform="translate(-28.751 -93.402)" fill="#dfdfdd"/>
        <path id="Trazado_133634" data-name="Trazado 133634" d="M98.759,16.366l.6-1.361a2.011,2.011,0,0,1,2.251,1.361Z" transform="translate(-71.203 -10.815)" fill="#d5d5d3"/>
        <path id="Trazado_133635" data-name="Trazado 133635" d="M116.839,78.762l-2.268,1.66a1.319,1.319,0,0,1,.777-1.641,2.4,2.4,0,0,0,.631-.45c.287-.276.474-.21.644.111a3.606,3.606,0,0,0,.215.321" transform="translate(-82.569 -56.35)" fill="#fdbf92"/>
        <path id="Trazado_133636" data-name="Trazado 133636" d="M121.237,110.265c.3.391.309.758.019,1.03a.71.71,0,0,1-1-.049,4.879,4.879,0,0,0,.98-.98" transform="translate(-86.702 -79.498)" fill="#f3a267"/>
        <path id="Trazado_133637" data-name="Trazado 133637" d="M22.654,6.793a1.828,1.828,0,0,1,.764,1.531q.019,4.213,0,8.427a2.057,2.057,0,0,1-2.094,2.05c-1.752.012-3.5,0-5.257,0-.833,0-1.072.287-.915,1.09.091.467.179.933.284,1.481-.787-.561-1.559-1.028-2.231-1.611a3.747,3.747,0,0,0-3.06-.97,8.677,8.677,0,0,1-1.389,0,1.817,1.817,0,0,1-1.349-.588c.215-.346.617-.4.931-.6.578-.354,1.19-.65,1.772-1a.627.627,0,0,1,.367-.113,3.688,3.688,0,0,0,.9.1c1.564,0,3.128-.009,4.692,0,.5,0,.891-.074,1-.656.052-.282.271-.2.448-.128.412.179.8.4,1.21.591.722.345,1.086.126,1.09-.664q.01-1.8,0-3.606c-.006-.79-.369-1-1.093-.667A5.153,5.153,0,0,1,17.545,12c-.289-.125-.073-.253.018-.337.285-.265.594-.5.894-.751a39.151,39.151,0,0,0,4-3.944.577.577,0,0,1,.192-.17" transform="translate(-5.342 -4.898)" fill="#fea812"/>
        <path id="Trazado_133638" data-name="Trazado 133638" d="M8.664,15.229a26.843,26.843,0,0,1-2.991,1.684,1.791,1.791,0,0,1-.663-1.446Q5,11.255,5.01,7.042A2.047,2.047,0,0,1,7.065,5q6.276-.016,12.553,0a1.764,1.764,0,0,1,1.3.5,3.945,3.945,0,0,1-.949,1.153,32.871,32.871,0,0,1-4.122,3.809.875.875,0,0,0-.149.206.167.167,0,0,1-.252.145c-.1-.046-.1-.169-.075-.271a3.717,3.717,0,0,1,.353-.645,2.283,2.283,0,0,0-1.408-3.3,2.138,2.138,0,0,0-1.869.294.724.724,0,0,1-.963.012,2.244,2.244,0,0,0-2.9.3,2.269,2.269,0,0,0-.258,2.941,1.524,1.524,0,0,1,.278.933c-.009,1,.005,2-.008,3,0,.391.044.776.069,1.164" transform="translate(-3.606 -3.601)" fill="#feb431"/>
        <path id="Trazado_133639" data-name="Trazado 133639" d="M48.748,27.416l.681.016q0,2.8,0,5.6a2.817,2.817,0,0,1-2.71,2.727c-1.737,0-3.473.011-5.21-.008-.346,0-.408.093-.34.41.213.994.4,1.993.61,3.016-.443-.162-.693-.6-1.16-.65a.819.819,0,0,0,.416-1.021c-.167-.688-.263-1.392-.425-2.081-.07-.3-.006-.369.293-.366,1.39.013,2.78.008,4.171.005a3.484,3.484,0,0,0,3.661-3.652q.007-2,.014-4" transform="translate(-29.26 -19.766)" fill="#3085cc"/>
        <path id="Trazado_133640" data-name="Trazado 133640" d="M9.162,87.847c-.723,0-1.447.027-2.169.007a2.055,2.055,0,0,1-2-2.01q-.031-2.148,0-4.3a2.056,2.056,0,0,1,2.073-2.023c1.765-.013,3.531-.009,5.3,0a1.635,1.635,0,0,0,.862-.231c1.023-.594,2.053-1.176,3.123-1.786a2.666,2.666,0,0,1-.173.977c-.147.683.11,1.027.8,1.037.2,0,.4.009.607.015.037.114-.031.2-.09.275A15.332,15.332,0,0,1,16,81.661c-.412,0-.5.269-.516.606a26.077,26.077,0,0,1-2.074,2.119.467.467,0,0,1-.234.106c-.97.064-1.94.021-2.909.028-1.086.009-2.172,0-3.258.005-.454,0-.5.073-.495.6.005.456.045.507.491.51,1.289.007,2.577,0,3.866,0a3.093,3.093,0,0,1,.648.032c.19.052.246.188.1.312a11.764,11.764,0,0,1-2.463,1.863" transform="translate(-3.591 -55.881)" fill="#60d0df"/>
        <path id="Trazado_133641" data-name="Trazado 133641" d="M26.828,86.786l1.562-2.055a3.64,3.64,0,0,1,1.121.054,2.052,2.052,0,0,1,1.569,1.95c.018,1.433.021,2.867,0,4.3a2.035,2.035,0,0,1-1.993,2.013c-3.041.016-6.081,0-9.122,0a30.718,30.718,0,0,0,2.518-2.057c.2-.206.458-.149.7-.149,1.91-.006,3.819,0,5.729,0,.6,0,.8-.292.632-.883-.067-.23-.244-.22-.413-.225-.477-.012-.955,0-1.432,0-.984,0-1.968,0-2.951,0-.212,0-.44.038-.609-.15L26.206,87.5c.146.576.574.593,1.058.57.619-.029,1.242-.02,1.862,0,.393.011.446-.2.441-.518-.008-.529-.038-.6-.442-.606-.577-.015-1.155,0-1.732-.007-.2,0-.41.034-.565-.145" transform="translate(-14.394 -61.077)" fill="#5ac5d3"/>
        <path id="Trazado_133642" data-name="Trazado 133642" d="M50.71,77.9a8.009,8.009,0,0,0,1.115-.586c.047.282-.2.456-.149.689l-.96-.037c-.007,0-.018-.017-.018-.026a.129.129,0,0,1,.012-.04" transform="translate(-36.552 -55.742)" fill="#3085cc"/>
        <path id="Trazado_133643" data-name="Trazado 133643" d="M112.744,32.868a2.788,2.788,0,0,1-5.572-.1,2.78,2.78,0,0,1,5.558-.158c0,.087.009.173.014.26" transform="translate(-77.268 -21.568)"/>
        <path id="Trazado_133644" data-name="Trazado 133644" d="M73.675,135.274c0,.664,0,.664-.683.664-.707,0-.707,0-.707-.727,0-.664,0-.664.683-.664.707,0,.707,0,.707.727" transform="translate(-52.116 -97.005)"/>
        <path id="Trazado_133645" data-name="Trazado 133645" d="M15.843,18.813a1.236,1.236,0,0,1-.188-.739c.008-1.214,0-2.428.007-3.642a.829.829,0,0,0-.182-.549A2.421,2.421,0,0,1,18.9,10.5c.18.14.27.155.461.009a2.425,2.425,0,0,1,3.415,3.4,1.08,1.08,0,0,0-.135.168c-.041.088-.077.206.019.265.037.023.141-.063.215-.1.467-.225.933-.453,1.4-.674.627-.3,1.107,0,1.111.688q.011,1.973,0,3.946a.7.7,0,0,1-1.087.683c-.275-.127-.542-.271-.813-.406l-.867-.432a.917.917,0,0,1-.3.82,1.322,1.322,0,0,1-.84.133c-1.633,0-3.267,0-4.9.005a1.217,1.217,0,0,1-.736-.2" transform="translate(-10.785 -7.184)"/>
        <path id="Trazado_133646" data-name="Trazado 133646" d="M16.923,102.11c1.721,0,3.443.018,5.164.006.319,0,.413.069.407.4-.018,1,0,1-1.017,1l-6.206.014c-1.634,0-3.269-.019-4.9-.006-.321,0-.412-.071-.406-.4.018-1,0-1,1.015-1l5.945-.014" transform="translate(-7.182 -73.619)"/>
        <path id="Trazado_133647" data-name="Trazado 133647" d="M13.754,93.564c-1.142,0-2.285-.009-3.426.006-.281,0-.361-.069-.36-.355,0-1.041-.008-1.041,1.013-1.041,2.082,0,4.164.008,6.246-.008.321,0,.411.072.405.4-.018,1,0,1-1.014,1H13.754" transform="translate(-7.186 -66.449)"/>
        <path id="Trazado_133648" data-name="Trazado 133648" d="M42.946,92.141c.852.005,1.7.018,2.556.01.238,0,.315.057.32.308.02,1.087.029,1.087-1.052,1.087-.65,0-1.3-.026-1.95.009-.4.021-.551-.1-.484-.491a.939.939,0,0,0-.012-.215.749.749,0,0,0,.012-.085c.018-.591.018-.591.61-.624" transform="translate(-30.513 -66.431)"/>
        <path id="Trazado_133649" data-name="Trazado 133649" d="M113.547,34.9a1.388,1.388,0,1,1-1.391,1.375,1.393,1.393,0,0,1,1.391-1.375" transform="translate(-80.862 -25.163)" fill="#f25244"/>
        <path id="Trazado_133650" data-name="Trazado 133650" d="M24.537,27.408c.593,0,1.187.009,1.78,0,.226-.005.3.061.3.292q-.02,1.107,0,2.214c0,.242-.09.285-.3.283-1.187-.008-2.374-.01-3.561,0-.244,0-.323-.064-.318-.314q.023-1.085,0-2.171c-.006-.259.093-.311.326-.306.593.014,1.187,0,1.78,0" transform="translate(-16.172 -19.757)" fill="#f25244"/>
        <path id="Trazado_133651" data-name="Trazado 133651" d="M33.433,17.051a1.041,1.041,0,1,1,1.075-1.016,1.052,1.052,0,0,1-1.075,1.016" transform="translate(-23.379 -10.794)" fill="#dd4132"/>
        <path id="Trazado_133652" data-name="Trazado 133652" d="M20.975,17.051a1.041,1.041,0,1,1,1.075-1.016,1.052,1.052,0,0,1-1.075,1.016" transform="translate(-14.397 -10.794)" fill="#dd4132"/>
        <path id="Trazado_133653" data-name="Trazado 133653" d="M43.72,29.017V30.9c-.43-.212-.834-.4-1.223-.607a.419.419,0,0,1,.006-.679,1.461,1.461,0,0,1,.154-.08l1.063-.522" transform="translate(-30.516 -20.921)" fill="#dc4132"/>
      </g>
    </g>
  </g>
</svg>
