<svg xmlns="http://www.w3.org/2000/svg" xmlns:xlink="http://www.w3.org/1999/xlink" width="81" height="81" viewBox="0 0 81 81">
  <defs>
    <clipPath id="clip-path">
      <rect id="Rectángulo_38130" data-name="Rectángulo 38130" width="43.06" height="44.936" fill="none"/>
    </clipPath>
  </defs>
  <g id="Grupo_158627" data-name="Grupo 158627" transform="translate(-1171.189 -5097.419)">
    <circle id="Elipse_4760" data-name="Elipse 4760" cx="40.5" cy="40.5" r="40.5" transform="translate(1171.189 5097.419)" fill="#1169e3"/>
    <g id="Grupo_156593" data-name="Grupo 156593" transform="translate(1183.708 5110.227)">
      <path id="Trazado_127053" data-name="Trazado 127053" d="M15.128,123.211c-.375.084-.462-.093-.459-.444.01-.878-.005-.894-.915-.889-.338,0-.443-.1-.437-.438.006-.312.063-.457.423-.456.912,0,.935-.015.925-.925,0-.412.2-.419.5-.423s.463.048.463.414c0,.922.019.938.919.935.348,0,.431.124.431.448s-.082.447-.43.445c-.918-.005-.94.012-.92.881.01.4-.14.522-.505.451" transform="translate(-13.318 -87.398)" fill="#29c4bb"/>
      <path id="Trazado_127054" data-name="Trazado 127054" d="M213.357,151.157c.336-.064.522.047.467.427-.046.318.064.5.416.441s.471.073.474.444c0,.389-.156.478-.487.434s-.417.095-.411.41c.01.493-.3.683-.772.533-.226-.071-.177-.252-.162-.394.04-.39-.049-.628-.509-.55-.356.061-.378-.163-.377-.436s.012-.494.373-.438c.389.06.574-.082.509-.494-.062-.393.19-.41.481-.376" transform="translate(-158.657 -109.494)" fill="#29c4bb"/>
      <path id="Trazado_127055" data-name="Trazado 127055" d="M210.152,68.984c.087.375-.085.5-.436.444-.381-.064-.536.092-.468.47s-.093.453-.448.457-.5-.1-.44-.461c.068-.379-.09-.535-.467-.465s-.424-.131-.439-.459c-.017-.385.132-.486.468-.427.365.064.5-.087.439-.444-.059-.341.051-.479.43-.465.335.012.528.059.457.443s.095.528.469.465c.352-.059.523.067.435.442" transform="translate(-155.02 -51.692)" fill="#010000"/>
      <path id="Trazado_127056" data-name="Trazado 127056" d="M54.475,186.354c.082.35-.091.478-.44.415-.411-.074-.507.139-.449.485.065.384-.121.444-.459.442s-.5-.075-.428-.423c.089-.457-.14-.569-.533-.5s-.385-.186-.386-.463.006-.5.37-.423c.491.1.616-.139.55-.578-.063-.42.257-.3.471-.312s.479-.043.413.322c-.082.451.076.66.553.568.4-.076.349.2.338.468" transform="translate(-41.455 -132.953)" fill="#010000"/>
      <path id="Trazado_127057" data-name="Trazado 127057" d="M121.781,17.147c-.094-.4.127-.477.453-.428s.473-.09.421-.424.048-.486.432-.478c.353.007.515.1.453.461s.109.493.458.441c.323-.048.485.029.487.424s-.15.513-.5.457c-.372-.059-.5.11-.441.458.065.39-.144.435-.472.441-.351.007-.465-.125-.413-.446.056-.353-.074-.514-.442-.452s-.513-.088-.432-.453" transform="translate(-92.645 -15.816)" fill="#29c4bb"/>
    </g>
    <g id="Grupo_158631" data-name="Grupo 158631" transform="translate(1190.189 5115.419)">
      <g id="Grupo_158631-2" data-name="Grupo 158631" clip-path="url(#clip-path)">
        <path id="Trazado_133654" data-name="Trazado 133654" d="M28.643,0a9,9,0,0,1,.971.337,3.605,3.605,0,0,1,2.2,3.226c.032.525.013,1.053.013,1.58q0,7.682-.006,15.363a.6.6,0,0,0,.323.59,9.337,9.337,0,0,1,2.494,13.527c-.209.279-.189.437.062.628a2.763,2.763,0,0,1,.249.247c.248.248.463.633.755.706.332.083.5-.4.77-.6a.9.9,0,0,1,1.239.031c1.572,1.552,3.163,3.088,4.676,4.7a2.793,2.793,0,0,1-3.959,3.914c-1.593-1.509-3.122-3.084-4.664-4.646a.883.883,0,0,1,.017-1.3,9.287,9.287,0,0,1,.7-.616c-.436-.435-.821-.794-1.173-1.182-.18-.2-.295-.185-.5-.03a8.952,8.952,0,0,1-4.44,1.825,9.2,9.2,0,0,1-7.622-2.456.937.937,0,0,0-.7-.265q-8.055.009-16.11,0A3.737,3.737,0,0,1,.066,32.569,4.73,4.73,0,0,1,0,31.564Q0,17.781,0,4A3.71,3.71,0,0,1,3,.076c.036-.01.064-.05.1-.076Z" transform="translate(0)"/>
        <path id="Trazado_133655" data-name="Trazado 133655" d="M38.076,24.663c.008.131.022.261.022.392q0,5.858,0,11.715v.425a10.538,10.538,0,0,0-2.735-.42A9.327,9.327,0,0,0,26.5,42.946a.518.518,0,0,1-.6.4q-5.09-.02-10.18-.005a2.791,2.791,0,0,0-2.908,2.93,2.829,2.829,0,0,0,2.953,2.683c3.291.008,6.581,0,9.872,0,.734,0,.734,0,.958.719.091.251-.11.262-.258.3a2.51,2.51,0,0,1-.568.026c-3.656,0-7.313-.026-10.969.013a3,3,0,0,1-3.088-2.885c-.015-.19-.012-.38-.012-.57q0-10.507,0-21.015c0-.924,0-.924.932-.924q12.46,0,24.92,0a1.034,1.034,0,0,1,.516.042" transform="translate(-8.14 -17.11)" fill="#eceaf1"/>
        <path id="Trazado_133656" data-name="Trazado 133656" d="M67.541,74.239a7.064,7.064,0,0,1,4.788-3.378,7.464,7.464,0,0,1,8.985,8.095,7.118,7.118,0,0,1-3.39,5.5A6.519,6.519,0,0,1,73.5,84.5,8.318,8.318,0,0,1,67.3,77.353a5.671,5.671,0,0,1,.236-3.114" transform="translate(-46.722 -49.155)" fill="#b1e4fa"/>
        <path id="Trazado_133657" data-name="Trazado 133657" d="M34.175,24.58q-12.794,0-25.589.005c-.711,0-.637-.076-.637.629q0,10.8,0,21.594a2.874,2.874,0,0,0,2.133,2.9,1.718,1.718,0,0,0,.518.064q5.815,0,11.631,0c.165,0,.4.112.469-.177l.573,1.147H8.19a1.893,1.893,0,0,1-2.086-2.1q0-11.828-.009-23.656c0-.368.062-.487.467-.487q13.606.018,27.212.01c.132,0,.289-.08.4.069" transform="translate(-4.239 -17.028)" fill="#d9d6e4"/>
        <path id="Trazado_133658" data-name="Trazado 133658" d="M51.473,6.222a1.8,1.8,0,0,1,1.562,1.722c.015.334,0,.67-.008,1a.75.75,0,0,1-.58.141q-8.577,0-17.155,0a2.084,2.084,0,0,1-2.034-2.616c.042-.177.115-.3.32-.284.087.006.176,0,.263,0q8.6,0,17.2,0a.946.946,0,0,1,.432.035" transform="translate(-23.081 -4.297)" fill="#81bbf3"/>
        <path id="Trazado_133659" data-name="Trazado 133659" d="M49.7,6.168q-4.715.005-9.43.01-3.926,0-7.851,0c-.818,0-.818,0-.816.8A1.841,1.841,0,0,0,32.97,8.84a1.559,1.559,0,0,0,.474.055H51.253c.048.967.048.967-.914.967q-9.591,0-19.181.008c-.382,0-.528-.068-.512-.491.036-.964.02-1.931.005-2.9,0-.278.061-.381.362-.381q9.151.01,18.3,0a.645.645,0,0,1,.383.065" transform="translate(-21.307 -4.242)" fill="#6faae5"/>
        <path id="Trazado_133660" data-name="Trazado 133660" d="M65.683,82.326a14.24,14.24,0,0,0-.171,2.389,8.12,8.12,0,0,0,2.022,5.139,8.23,8.23,0,0,0,4.859,2.793,8.065,8.065,0,0,0,3.374-.061c.1-.022.2-.032.3-.048a7.415,7.415,0,0,1-8.346-.13,7.491,7.491,0,0,1-2.258-9.764,3.582,3.582,0,0,1,.222-.318" transform="translate(-44.864 -57.241)" fill="#9edaf2"/>
        <path id="Trazado_133661" data-name="Trazado 133661" d="M11.709,8.878c.048.967.048.967-.909.967-1.444,0-2.889-.006-4.333.006-.272,0-.387-.051-.37-.353.027-.48,0-.963.008-1.444a1.832,1.832,0,0,1,1.78-1.944c1.237-.057,2.479-.018,3.719-.017.032,0,.064.044.1.067-.169.16-.383.119-.583.12-.847.005-1.694,0-2.541,0-.435,0-.483.074-.38.5a2.64,2.64,0,0,0,2.491,1.979c.342.009.7-.1,1.022.119" transform="translate(-4.238 -4.226)" fill="#6faae5"/>
        <path id="Trazado_133662" data-name="Trazado 133662" d="M15.994,9.058c-.349,0-.7,0-1.049,0a2.818,2.818,0,0,1-2.686-2.5c-.021-.289.178-.215.317-.215,1.136-.007,2.272-.005,3.409-.006l.009,2.719" transform="translate(-8.523 -4.406)" fill="#81bbf3"/>
        <path id="Trazado_133663" data-name="Trazado 133663" d="M118.395,124.772c.306-.311.576-.815.928-.882.386-.073.645.5.949.792.932.906,1.842,1.833,2.759,2.754a.873.873,0,0,1,.367.666,1.657,1.657,0,0,1-2.052-.124c-.986-.9-1.908-1.877-2.848-2.829-.1-.1-.223-.209-.1-.376" transform="translate(-82.286 -86.137)" fill="#425b71"/>
        <path id="Trazado_133664" data-name="Trazado 133664" d="M43.378,93.158c.086.9.086.9-.791.9-1.77,0-3.541-.011-5.311.009-.36,0-.445-.111-.422-.442.027-.393.014-.79,0-1.185-.005-.187.052-.261.247-.251.335.016.672.012,1.008.016a2.951,2.951,0,0,0,2.508.831c.724-.038,1.452-.01,2.178-.006a.807.807,0,0,1,.581.127" transform="translate(-25.622 -64.099)" fill="#c5c2d7"/>
        <path id="Trazado_133665" data-name="Trazado 133665" d="M46.257,93.155c-1.195,0-2.39.019-3.584-.008a1.746,1.746,0,0,1-1.682-.944c1.679,0,3.359,0,5.038-.019.252,0,.341.068.3.319-.037.215-.048.434-.071.652" transform="translate(-28.501 -64.096)" fill="#d9d6e4"/>
        <path id="Trazado_133666" data-name="Trazado 133666" d="M117.851,126.8c0,.187.151.275.26.386.761.766,1.556,1.5,2.28,2.3a2.041,2.041,0,0,0,2.463.644.819.819,0,0,1-.478.97.867.867,0,0,1-1.051-.167c-1.213-1.2-2.417-2.417-3.633-3.618-.305-.3.008-.374.158-.514" transform="translate(-81.742 -88.164)" fill="#374f67"/>
        <path id="Trazado_133667" data-name="Trazado 133667" d="M24.274,93.606c.073.9.073.9-.8.9-.334,0-.669,0-1,0a.883.883,0,0,1-.912-.608.844.844,0,0,1,.347-1.063c.284.061.424.345.685.444a2.982,2.982,0,0,0,1.1.214.776.776,0,0,1,.58.115" transform="translate(-14.947 -64.547)" fill="#6eaae5"/>
        <path id="Trazado_133668" data-name="Trazado 133668" d="M25.215,93.146a7.948,7.948,0,0,1-1.258-.068,1.733,1.733,0,0,1-1.107-.705.983.983,0,0,1,.776-.193c.421,0,.843.019,1.262-.007.295-.018.385.086.352.365-.024.2-.018.4-.026.607" transform="translate(-15.888 -64.088)" fill="#81bbf3"/>
        <path id="Trazado_133669" data-name="Trazado 133669" d="M23.294,35.67q-3.357,0-6.713,0a2.233,2.233,0,0,1-.563-.06.9.9,0,0,1-.665-.874.909.909,0,0,1,.65-.888,1.541,1.541,0,0,1,.431-.061q6.867,0,13.734,0a.956.956,0,0,1,1.08.8.937.937,0,0,1-1.022,1.08c-.878.013-1.755,0-2.633,0h-4.3" transform="translate(-10.674 -23.489)"/>
        <path id="Trazado_133670" data-name="Trazado 133670" d="M23.248,47.964c-2.3,0-4.592,0-6.888,0a.926.926,0,0,1-1.009-.921.954.954,0,0,1,1.042-.94c.1,0,.2,0,.307,0H30.125a1.358,1.358,0,0,1,.56.075.922.922,0,0,1,.56,1.03.882.882,0,0,1-.8.746c-.247.023-.5.014-.745.014H23.248" transform="translate(-10.674 -32.052)"/>
        <path id="Trazado_133671" data-name="Trazado 133671" d="M20.976,58.415c1.534,0,3.069-.005,4.6,0a.925.925,0,0,1,1,.933.953.953,0,0,1-1.011.928H25.52q-4.559,0-9.118,0a.961.961,0,0,1-.983-.585.875.875,0,0,1,.168-.976,1,1,0,0,1,.831-.307c1.52,0,3.039,0,4.559,0" transform="translate(-10.664 -40.615)"/>
      </g>
    </g>
  </g>
</svg>
