<svg xmlns="http://www.w3.org/2000/svg" xmlns:xlink="http://www.w3.org/1999/xlink" width="81" height="81" viewBox="0 0 81 81">
  <defs>
    <clipPath id="clip-path">
      <rect id="Rectángulo_38131" data-name="Rectángulo 38131" width="50.276" height="44.758" transform="translate(0 0)" fill="none"/>
    </clipPath>
  </defs>
  <g id="Grupo_158628" data-name="Grupo 158628" transform="translate(-1171.189 -5097.419)">
    <circle id="Elipse_4760" data-name="Elipse 4760" cx="40.5" cy="40.5" r="40.5" transform="translate(1171.189 5097.419)" fill="#1169e3"/>
    <g id="Grupo_156593" data-name="Grupo 156593" transform="translate(1183.708 5110.227)">
      <path id="Trazado_127053" data-name="Trazado 127053" d="M15.128,123.211c-.375.084-.462-.093-.459-.444.01-.878-.005-.894-.915-.889-.338,0-.443-.1-.437-.438.006-.312.063-.457.423-.456.912,0,.935-.015.925-.925,0-.412.2-.419.5-.423s.463.048.463.414c0,.922.019.938.919.935.348,0,.431.124.431.448s-.082.447-.43.445c-.918-.005-.94.012-.92.881.01.4-.14.522-.505.451" transform="translate(-13.318 -87.398)" fill="#29c4bb"/>
      <path id="Trazado_127054" data-name="Trazado 127054" d="M213.357,151.157c.336-.064.522.047.467.427-.046.318.064.5.416.441s.471.073.474.444c0,.389-.156.478-.487.434s-.417.095-.411.41c.01.493-.3.683-.772.533-.226-.071-.177-.252-.162-.394.04-.39-.049-.628-.509-.55-.356.061-.378-.163-.377-.436s.012-.494.373-.438c.389.06.574-.082.509-.494-.062-.393.19-.41.481-.376" transform="translate(-158.657 -109.494)" fill="#29c4bb"/>
      <path id="Trazado_127055" data-name="Trazado 127055" d="M210.152,68.984c.087.375-.085.5-.436.444-.381-.064-.536.092-.468.47s-.093.453-.448.457-.5-.1-.44-.461c.068-.379-.09-.535-.467-.465s-.424-.131-.439-.459c-.017-.385.132-.486.468-.427.365.064.5-.087.439-.444-.059-.341.051-.479.43-.465.335.012.528.059.457.443s.095.528.469.465c.352-.059.523.067.435.442" transform="translate(-155.02 -51.692)" fill="#010000"/>
      <path id="Trazado_127056" data-name="Trazado 127056" d="M54.475,186.354c.082.35-.091.478-.44.415-.411-.074-.507.139-.449.485.065.384-.121.444-.459.442s-.5-.075-.428-.423c.089-.457-.14-.569-.533-.5s-.385-.186-.386-.463.006-.5.37-.423c.491.1.616-.139.55-.578-.063-.42.257-.3.471-.312s.479-.043.413.322c-.082.451.076.66.553.568.4-.076.349.2.338.468" transform="translate(-41.455 -132.953)" fill="#010000"/>
      <path id="Trazado_127057" data-name="Trazado 127057" d="M121.781,17.147c-.094-.4.127-.477.453-.428s.473-.09.421-.424.048-.486.432-.478c.353.007.515.1.453.461s.109.493.458.441c.323-.048.485.029.487.424s-.15.513-.5.457c-.372-.059-.5.11-.441.458.065.39-.144.435-.472.441-.351.007-.465-.125-.413-.446.056-.353-.074-.514-.442-.452s-.513-.088-.432-.453" transform="translate(-92.645 -15.816)" fill="#29c4bb"/>
    </g>
    <g id="Grupo_158632" data-name="Grupo 158632" transform="translate(1186.189 5115.541)">
      <g id="Grupo_158632-2" data-name="Grupo 158632" transform="translate(0 0)" clip-path="url(#clip-path)">
        <path id="Trazado_133672" data-name="Trazado 133672" d="M25.191,0q10.69,0,21.38,0A3.451,3.451,0,0,1,50.192,2.7a4.809,4.809,0,0,1,.081,1.067q.006,13.688,0,27.375a3.437,3.437,0,0,1-3.713,3.746c-.283,0-.639-.095-.829.04-.228.162.022.505.033.772a2.688,2.688,0,0,1-1.483,2.588,2.608,2.608,0,0,1-2.989-.453c-.9-.856-1.773-1.746-2.647-2.632a.945.945,0,0,0-.737-.324q-2.885.021-5.769,0c-.357,0-.488.077-.479.462.026,1.15.022,2.3,0,3.45-.006.342.081.466.438.444.507-.031,1.018,0,1.527-.011.335-.008.493.133.483.467a1.945,1.945,0,0,0,0,.226c.038.446-.2,1.037.1,1.3.256.218.828.077,1.259.078q4.214,0,8.428,0a2.4,2.4,0,0,1,.506.026.317.317,0,0,1,.275.368.3.3,0,0,1-.309.275q-.226.008-.452.008-18.665,0-37.33-.005c-.286,0-.756.16-.755-.324,0-.46.456-.345.757-.345,3.017-.006,6.033-.012,9.05.007.425,0,.574-.1.529-.532-.038-.354,0-.716-.008-1.074,0-.329.138-.481.478-.473.546.013,1.093-.007,1.64.008.243.006.329-.073.328-.32q-.013-1.866,0-3.733c0-.22-.079-.308-.3-.292-.131.01-.264,0-.4,0q-7.127,0-14.253,0A3.426,3.426,0,0,1,.086,32.211,4.5,4.5,0,0,1,0,31.2Q0,17.457,0,3.713A3.45,3.45,0,0,1,3.755,0Q14.473,0,25.191,0" transform="translate(0 0)" fill="#231f20"/>
        <path id="Trazado_133673" data-name="Trazado 133673" d="M39.36,120.637q8.17,0,16.34.006c.287,0,.755-.161.763.317.008.463-.448.354-.748.354q-16.4.006-32.794,0a2.8,2.8,0,0,1-.45-.02.325.325,0,0,1-.3-.35.314.314,0,0,1,.342-.3c.169,0,.339-.005.508-.005H39.36" transform="translate(-14.072 -76.568)" fill="#262223"/>
        <path id="Trazado_133674" data-name="Trazado 133674" d="M121.284,121.352c-.282,0-.563.008-.845,0-.229-.009-.417-.115-.408-.368.007-.224.18-.309.393-.308l1.8,0a.317.317,0,0,1,.353.29.333.333,0,0,1-.339.373c-.317.023-.637.006-.956.006v.006" transform="translate(-76.196 -76.604)" fill="#2a2627"/>
        <path id="Trazado_133675" data-name="Trazado 133675" d="M5.971,113.749c-.3,0-.6,0-.9,0-.212,0-.366-.087-.374-.322a.305.305,0,0,1,.307-.335c.634-.018,1.269-.017,1.9,0a.305.305,0,0,1,.316.327c0,.232-.143.332-.36.336-.3,0-.6,0-.9,0" transform="translate(-2.984 -71.781)" fill="#282425"/>
        <path id="Trazado_133676" data-name="Trazado 133676" d="M127.271,113.743h-.841c-.212,0-.374-.08-.385-.313a.321.321,0,0,1,.347-.356c.616-.011,1.233-.013,1.849,0a.318.318,0,0,1,.331.371.31.31,0,0,1-.348.29c-.317,0-.635,0-.953,0v0" transform="translate(-80.013 -71.774)" fill="#282425"/>
        <path id="Trazado_133677" data-name="Trazado 133677" d="M12.741,120.68c.3,0,.6-.007.9,0a.326.326,0,0,1,.027.652q-.959.025-1.92,0a.327.327,0,0,1,.028-.653c.32-.008.641,0,.961,0" transform="translate(-7.269 -76.606)" fill="#292627"/>
        <path id="Trazado_133678" data-name="Trazado 133678" d="M53.864,36.717a21.884,21.884,0,0,1-2.353.1,2.661,2.661,0,0,1-2.492-1.027c-1.368-1.48-2.838-2.866-4.267-4.289a2.621,2.621,0,0,0-3.475-.559.337.337,0,0,1-.474-.1c-.689-.7-1.379-1.394-2.082-2.077-.191-.186-.195-.3-.014-.5a8.641,8.641,0,0,0,2.018-3.8c.083-.34.258-.4.559-.394,1.47.01,2.941-.012,4.411.014.529.009.75-.144.722-.7-.041-.79-.036-1.584,0-2.374.023-.532-.141-.736-.7-.722-1.432.033-2.865-.005-4.3.021a.609.609,0,0,1-.731-.537,9.18,9.18,0,0,0-17.717-.056.67.67,0,0,1-.8.594c-1.413-.031-2.827.009-4.241-.022-.538-.012-.753.151-.731.706.034.828.024,1.659,0,2.488-.011.439.161.607.6.6,1.47-.014,2.941.011,4.411-.015.425-.008.619.1.74.534a9.178,9.178,0,0,0,14.716,4.684c.255-.207.387-.251.631.008.647.685,1.319,1.346,2,2a.4.4,0,0,1,.087.576,2.648,2.648,0,0,0,.538,3.349c.49.493.987.977,1.469,1.453-.1.189-.224.129-.324.129q-15.354,0-30.708,0c-.131,0-.263-.017-.394-.026a.5.5,0,0,1-.265-.465,4.139,4.139,0,0,1-.018-.508q0-11.584,0-23.169c0-.342-.1-.73.258-.987a5.824,5.824,0,0,1,1.183-.011q19.545-.006,39.09-.007a1.647,1.647,0,0,0,.88-.1c-.013-.21-.179-.174-.292-.188a6.772,6.772,0,0,0-.848-.019q-19.233,0-38.467,0a8.844,8.844,0,0,0-1.464.094c-.213-.012-.281-.172-.295-.339a3.076,3.076,0,0,1,.08-1.467c.316-.2.372.123.5.269a1.17,1.17,0,0,0,1.349.446,1.151,1.151,0,0,0,.776-1.189,1.056,1.056,0,0,0-.779-1.055,1.232,1.232,0,0,0-1.327.392c-.14.148-.167.444-.475.393A1.732,1.732,0,0,1,10.968,7.1c.169-.007.338-.021.507-.021H52.445c.169,0,.338.014.507.02.279.325.18.719.181,1.085q.009,13.029,0,26.059c0,.377.027.756-.006,1.13-.055.623.008,1.159.733,1.349" transform="translate(-6.771 -4.49)" fill="#f36275"/>
        <path id="Trazado_133679" data-name="Trazado 133679" d="M45.2,34.148c.907,0,1.736.006,2.565,0A1.557,1.557,0,0,0,49.514,32.4q.006-13.8,0-27.606a1.551,1.551,0,0,0-1.757-1.731q-21.468,0-42.936,0A1.561,1.561,0,0,0,3.053,4.84q0,13.746,0,27.493c0,1.252.576,1.814,1.846,1.815,10.484,0,20.968.02,31.452-.029a2.53,2.53,0,0,1,2.3,1.169c-.11.16-.274.077-.407.077-11.106,0-22.213-.009-33.319.017A2.95,2.95,0,0,1,1.8,32.248q.07-13.661,0-27.323A2.948,2.948,0,0,1,4.9,1.822q21.383.032,42.766.013A2.789,2.789,0,0,1,50.74,4.92q0,13.69,0,27.379a2.781,2.781,0,0,1-3.09,3.069h-.113c-1.377,0-1.377,0-2.333-1.221" transform="translate(-1.145 -1.157)" fill="#63bbe6"/>
        <path id="Trazado_133680" data-name="Trazado 133680" d="M45.258,33.627a8.53,8.53,0,1,1,8.519,8.514,8.546,8.546,0,0,1-8.519-8.514" transform="translate(-28.73 -15.918)" fill="#f7ae23"/>
        <path id="Trazado_133681" data-name="Trazado 133681" d="M8.695,7.1a3.7,3.7,0,0,0-.017,1.781.435.435,0,0,1,.007.678,4.064,4.064,0,0,0-.009,1.811.208.208,0,0,1,.019.339c-.166.175-.1.394-.1.593q0,11.911,0,23.822a1.093,1.093,0,0,0,.095.658A5.463,5.463,0,0,1,7.9,36.8a.817.817,0,0,1-.812-.845c-.006-.188-.005-.377-.005-.565q0-13.389,0-26.777c0-1.419.189-1.6,1.608-1.51" transform="translate(-4.499 -4.496)" fill="#f33075"/>
        <path id="Trazado_133682" data-name="Trazado 133682" d="M127.364,36.718c-.984-.051-.912.214-.912-.956q0-14.333,0-28.666a5.166,5.166,0,0,1,.676-.011.826.826,0,0,1,.827.832c.006.094.006.188.006.282q0,13.73,0,27.459c0,.468-.016.923-.6,1.061" transform="translate(-80.271 -4.491)" fill="#f38775"/>
        <path id="Trazado_133683" data-name="Trazado 133683" d="M98.086,73.551a1.656,1.656,0,0,1,.84.545q3.507,3.491,7.01,6.987a1.968,1.968,0,0,1,.558,2.07,1.719,1.719,0,0,1-1.41,1.306.911.911,0,0,1-.453-.319q-3.55-3.546-7.094-7.1a2.431,2.431,0,0,1-.13-3.191.686.686,0,0,1,.679-.3" transform="translate(-61.495 -46.682)" fill="#f7ae23"/>
        <path id="Trazado_133684" data-name="Trazado 133684" d="M66.811,102.145c-.711.013-1.423.037-2.135.037q-3.968,0-7.936-.021a.786.786,0,0,1-.186-.629c-.012-.47-.014-.941,0-1.411.02-.747.192-.912.954-.938.094,0,.188,0,.282,0h8.076a3.582,3.582,0,0,1,.619.03c.224.04.384.131.374.4-.031.844.054,1.69-.049,2.533" transform="translate(-35.895 -62.959)" fill="#f7ae23"/>
        <path id="Trazado_133685" data-name="Trazado 133685" d="M64.417,99.829c0-.773-.016-1.546,0-2.319.007-.335-.095-.465-.448-.464q-4.553.016-9.107,0c-.4,0-.535.149-.525.536.02.754.008,1.508.01,2.262-1.566.1-1.566.1-1.566-1.439,0-.791.013-1.582-.006-2.373-.008-.346.065-.5.461-.5,3.6.014,7.2.009,10.793.006.264,0,.478-.005.474.37-.014,1.262,0,2.524-.006,3.786,0,.046-.051.091-.079.137" transform="translate(-33.501 -60.642)" fill="#f77023"/>
        <path id="Trazado_133686" data-name="Trazado 133686" d="M49.924,109.256c1.958-.008,3.916-.02,5.874-.023,2.881,0,5.763.024,8.644-.019.677-.011.538.364.552.738.015.392.05.686-.553.682-4.689-.03-9.378-.016-14.067-.018-.15,0-.3-.017-.45-.026a1.2,1.2,0,0,1,0-1.334" transform="translate(-31.563 -69.329)" fill="#63bbe6"/>
        <path id="Trazado_133687" data-name="Trazado 133687" d="M95.553,73.358a2.131,2.131,0,0,0-.507,3.342q3.518,3.542,7.057,7.064c.158.159.3.335.447.5a1.714,1.714,0,0,1-1.858-.465q-3.64-3.595-7.243-7.225a1.978,1.978,0,0,1-.259-2.447,1.951,1.951,0,0,1,2.363-.772" transform="translate(-58.961 -46.49)" fill="#f77023"/>
        <path id="Trazado_133688" data-name="Trazado 133688" d="M32.752,47.416c-.677,0-1.355-.009-2.032,0-.283.005-.432-.079-.392-.382a.48.48,0,0,0,0-.056c.012-.637-.214-1.466.1-1.858.331-.411,1.2-.112,1.827-.129.79-.022,1.581.008,2.371-.011.346-.008.5.051.464.459a8.824,8.824,0,0,0,0,1.522c.026.345-.057.472-.417.459-.639-.024-1.279-.007-1.919-.007" transform="translate(-19.21 -28.506)" fill="#63bbe6"/>
        <path id="Trazado_133689" data-name="Trazado 133689" d="M96,45.123c.659,0,1.319.014,1.978-.006.31-.009.438.073.423.406-.025.545-.019,1.093,0,1.639.009.29-.084.4-.384.393q-2.006-.019-4.012,0c-.294,0-.411-.082-.367-.388a6.06,6.06,0,0,0,0-1.689c-.038-.273.056-.365.332-.359.678.015,1.356,0,2.035,0" transform="translate(-59.433 -28.64)" fill="#63bbe6"/>
        <path id="Trazado_133690" data-name="Trazado 133690" d="M47.621,109.29v1.334a7.341,7.341,0,0,0-.842.032c-.546.081-.718-.122-.68-.672.057-.818-.076-.708.736-.716.263,0,.525.014.787.022" transform="translate(-29.26 -69.362)" fill="#6377e6"/>
        <path id="Trazado_133691" data-name="Trazado 133691" d="M24.638,63.984c.692.862.692.863-.114,1.669-.307.307-.635.595-.915.924-.351.414-.663.44-1.006.008a2.635,2.635,0,0,0-.281-.265c-.047.035-.1.054-.1.076-.062,1.024-.062,1.024-1.122,1.024-.452,0-.908-.029-1.357.008-.561.046-.824-.15-.739-.733a2.221,2.221,0,0,0,0-.326.139.139,0,0,0-.206.036c-.7.777-.74.605-1.36-.014-.36-.359-.7-.737-1.085-1.074s-.482-.649-.026-1.005c.106-.083.257-.166.246-.347C15.5,63.8,15.5,63.8,15.5,62.644c0-.415.029-.832-.007-1.244-.048-.55.167-.774.711-.7a2.556,2.556,0,0,0,.358,0c.018-.068.033-.093.026-.1-.656-.853-.656-.852.106-1.613.32-.32.663-.62.955-.964.336-.394.629-.422.966-.018.089.107.17.25.342.261.152-1.077.152-1.077,1.319-1.077.415,0,.833.031,1.244-.008.557-.053.761.177.7.713-.014.119-.052.26.049.372.04,0,.086.008.108-.009.808-.644.807-.644,1.564.115.306.307.614.612.92.92.5.5.495.54.012,1.04-.088.091-.171.186-.258.282.05.041.075.078.1.079,1.014.034,1.014.034,1.014,1.077,0,.49-.027.983.007,1.47.038.528-.175.726-.688.671-.129-.014-.3-.081-.41.072" transform="translate(-9.828 -36.295)" fill="#231f20"/>
        <path id="Trazado_133692" data-name="Trazado 133692" d="M11.458,18.8c-.006-.113-.013-.226-.019-.339a.755.755,0,0,1,.672-.21H52.324a2.425,2.425,0,0,1,.338.012c.209.03.36.134.344.368-.015.205-.156.288-.348.3-.132.005-.264,0-.4,0h-40.1a1,1,0,0,1-.7-.132" transform="translate(-7.261 -11.585)" fill="#252021"/>
        <path id="Trazado_133693" data-name="Trazado 133693" d="M31.144,10.546a1.33,1.33,0,1,1-2.659,0,1.33,1.33,0,1,1,2.659,0" transform="translate(-18.082 -5.845)" fill="#241f20"/>
        <path id="Trazado_133694" data-name="Trazado 133694" d="M11.451,10.89q0-.339-.007-.678a1.391,1.391,0,0,1,1.719-.968,1.346,1.346,0,0,1-.072,2.585,1.318,1.318,0,0,1-1.459-.589c-.07-.11-.121-.233-.181-.35" transform="translate(-7.265 -5.826)" fill="#241f20"/>
        <path id="Trazado_133695" data-name="Trazado 133695" d="M21.28,9.21A1.353,1.353,0,0,1,22.6,10.547a1.35,1.35,0,1,1-2.7,0A1.353,1.353,0,0,1,21.28,9.21" transform="translate(-12.635 -5.846)" fill="#241f20"/>
        <path id="Trazado_133696" data-name="Trazado 133696" d="M50.163,36.576a6.819,6.819,0,1,1,6.831,6.818,6.85,6.85,0,0,1-6.831-6.818" transform="translate(-31.843 -18.867)" fill="#231f20"/>
        <path id="Trazado_133697" data-name="Trazado 133697" d="M18.712,64.922a.555.555,0,0,0-.7-.527c-.608.1-.763-.179-.678-.715a1.815,1.815,0,0,0,0-.282c0-.794,0-.8.8-.851a.529.529,0,0,0,.515-.354.561.561,0,0,0-.124-.666c-.529-.579-.522-.586.016-1.123a1.715,1.715,0,0,0,.2-.2c.338-.475.675-.593,1.054-.034a.523.523,0,0,0,.7.184.514.514,0,0,0,.35-.626c-.115-.631.194-.782.742-.7a1.105,1.105,0,0,0,.338,0c.578-.094.9.064.778.727a.518.518,0,0,0,.384.609.5.5,0,0,0,.646-.182c.362-.52.7-.511,1.055.007a1.533,1.533,0,0,0,.2.2c.562.562.568.567.047,1.133a.526.526,0,0,0-.142.653.568.568,0,0,0,.564.371c.759.028.759.038.759.79a2.275,2.275,0,0,0,0,.339c.081.537-.073.826-.683.719a.556.556,0,0,0-.658.4.512.512,0,0,0,.227.679c.5.35.43.661-.019.981a1.374,1.374,0,0,0-.161.159c-.6.6-.607.607-1.251.064a.486.486,0,0,0-.565-.1c-.223.1-.4.213-.4.482a3.514,3.514,0,0,0,0,.451c.037.333-.122.437-.428.406-.13-.013-.264,0-.4,0a2.222,2.222,0,0,1-.891-.042c-.3-.152-.1-.54-.134-.823s-.2-.375-.416-.475c-.255-.12-.423,0-.6.157-.574.519-.577.516-1.133-.039a1.533,1.533,0,0,0-.2-.2c-.506-.347-.546-.69-.015-1.056a.486.486,0,0,0,.225-.507" transform="translate(-10.991 -37.455)" fill="#f7ae23"/>
        <path id="Trazado_133698" data-name="Trazado 133698" d="M31,11.052a.627.627,0,0,1,.65.637.648.648,0,1,1-1.292.005A.627.627,0,0,1,31,11.052" transform="translate(-19.268 -7.016)" fill="#f06173"/>
        <path id="Trazado_133699" data-name="Trazado 133699" d="M14.606,11.693c-.023.475-.272.719-.678.708a.6.6,0,0,1-.622-.657.6.6,0,0,1,.67-.66.615.615,0,0,1,.631.608" transform="translate(-8.446 -7.036)" fill="#f06173"/>
        <path id="Trazado_133700" data-name="Trazado 133700" d="M22.455,11.044a.649.649,0,0,1,.657.7.661.661,0,0,1-1.322-.039.644.644,0,0,1,.665-.666" transform="translate(-13.833 -7.011)" fill="#ee6072"/>
        <path id="Trazado_133701" data-name="Trazado 133701" d="M58.189,42.472c1.751,0,3.5.009,5.253-.007a.531.531,0,0,1,.628.459,6.529,6.529,0,0,1-.016,3.51.474.474,0,0,1-.548.408q-5.338-.02-10.677,0c-.367,0-.482-.145-.568-.457a6.5,6.5,0,0,1-.005-3.455.531.531,0,0,1,.622-.467c1.77.018,3.54.008,5.31.008" transform="translate(-33.026 -26.956)" fill="#63bbe6"/>
        <path id="Trazado_133702" data-name="Trazado 133702" d="M54.181,56.349H64.858c-.36,1.5-2.838,3.15-4.885,3.26-2.491.134-5.116-1.336-5.792-3.26" transform="translate(-34.394 -35.77)" fill="#f36275"/>
        <path id="Trazado_133703" data-name="Trazado 133703" d="M54.171,34.844a6.028,6.028,0,0,1,10.7-.039c-.436.095-9.578.131-10.7.039" transform="translate(-34.388 -20.046)" fill="#f36275"/>
        <path id="Trazado_133704" data-name="Trazado 133704" d="M26.17,65.893a1.947,1.947,0,1,1-1.971,1.9,1.92,1.92,0,0,1,1.971-1.9" transform="translate(-15.361 -41.829)" fill="#241f20"/>
        <path id="Trazado_133705" data-name="Trazado 133705" d="M66.375,45.9v-.169c0-1.088.272-1.3,1.378-1.061.092.02.2.024.2.146s-.084.164-.186.168c-.206.008-.414-.005-.618.014-.176.016-.454-.117-.439.247.01.242-.1.565.348.522.1-.01.25,0,.251.149s-.141.167-.248.156c-.45-.047-.338.274-.352.517-.021.363.254.222.43.26.273.059.771-.16.773.167s-.494.141-.764.15c-.77.026-.771.009-.771-.759V45.9" transform="translate(-42.135 -28.303)" fill="#040708"/>
        <path id="Trazado_133706" data-name="Trazado 133706" d="M61.339,47.012c-.427-.545-.77-.983-1.113-1.422-.127-.163-.275-.322-.174-.557s.324-.219.531-.218a4.537,4.537,0,0,1,.677.019c.226.036.417.215.317.432-.142.309-.233-.054-.355-.074-.256-.041-.52-.039-.922-.063.41.532.749.968,1.083,1.407.122.161.292.31.194.55-.112.275-.355.234-.578.233a3.779,3.779,0,0,1-.676-.024.321.321,0,0,1-.283-.413c.133-.315.225.025.344.05a7.585,7.585,0,0,0,.956.08" transform="translate(-38.1 -28.447)" fill="#030608"/>
        <path id="Trazado_133707" data-name="Trazado 133707" d="M74.569,45.994a2.739,2.739,0,0,1-.548,1.192c-.146.186-.37.153-.554,0a1.7,1.7,0,0,1,0-2.279.371.371,0,0,1,.556.009,3.649,3.649,0,0,1,.543,1.08" transform="translate(-46.358 -28.429)" fill="#030506"/>
        <path id="Trazado_133708" data-name="Trazado 133708" d="M27.308,70.284a1.263,1.263,0,1,1,1.283-1.208,1.222,1.222,0,0,1-1.283,1.208" transform="translate(-16.545 -43.013)" fill="#f36174"/>
        <path id="Trazado_133709" data-name="Trazado 133709" d="M73.725,46.745a.54.54,0,0,1,.019-.149c.143-.264.142-.636.476-.756.125-.045.5.823.411,1.024-.115.263-.227.751-.429.7-.317-.075-.393-.522-.477-.823" transform="translate(-46.801 -29.098)" fill="#61b8e2"/>
      </g>
    </g>
  </g>
</svg>
