<svg xmlns="http://www.w3.org/2000/svg" xmlns:xlink="http://www.w3.org/1999/xlink" width="81" height="81" viewBox="0 0 81 81">
  <defs>
    <clipPath id="clip-path">
      <rect id="Rectángulo_38133" data-name="Rectángulo 38133" width="48.24" height="48.195" fill="none"/>
    </clipPath>
  </defs>
  <g id="Grupo_158630" data-name="Grupo 158630" transform="translate(-1171.189 -5097.419)">
    <circle id="Elipse_4760" data-name="Elipse 4760" cx="40.5" cy="40.5" r="40.5" transform="translate(1171.189 5097.419)" fill="#1169e3"/>
    <g id="Grupo_156593" data-name="Grupo 156593" transform="translate(1183.708 5110.227)">
      <path id="Trazado_127053" data-name="Trazado 127053" d="M15.128,123.211c-.375.084-.462-.093-.459-.444.01-.878-.005-.894-.915-.889-.338,0-.443-.1-.437-.438.006-.312.063-.457.423-.456.912,0,.935-.015.925-.925,0-.412.2-.419.5-.423s.463.048.463.414c0,.922.019.938.919.935.348,0,.431.124.431.448s-.082.447-.43.445c-.918-.005-.94.012-.92.881.01.4-.14.522-.505.451" transform="translate(-13.318 -87.398)" fill="#29c4bb"/>
      <path id="Trazado_127054" data-name="Trazado 127054" d="M213.357,151.157c.336-.064.522.047.467.427-.046.318.064.5.416.441s.471.073.474.444c0,.389-.156.478-.487.434s-.417.095-.411.41c.01.493-.3.683-.772.533-.226-.071-.177-.252-.162-.394.04-.39-.049-.628-.509-.55-.356.061-.378-.163-.377-.436s.012-.494.373-.438c.389.06.574-.082.509-.494-.062-.393.19-.41.481-.376" transform="translate(-158.657 -109.494)" fill="#29c4bb"/>
      <path id="Trazado_127055" data-name="Trazado 127055" d="M210.152,68.984c.087.375-.085.5-.436.444-.381-.064-.536.092-.468.47s-.093.453-.448.457-.5-.1-.44-.461c.068-.379-.09-.535-.467-.465s-.424-.131-.439-.459c-.017-.385.132-.486.468-.427.365.064.5-.087.439-.444-.059-.341.051-.479.43-.465.335.012.528.059.457.443s.095.528.469.465c.352-.059.523.067.435.442" transform="translate(-155.02 -51.692)" fill="#010000"/>
      <path id="Trazado_127056" data-name="Trazado 127056" d="M54.475,186.354c.082.35-.091.478-.44.415-.411-.074-.507.139-.449.485.065.384-.121.444-.459.442s-.5-.075-.428-.423c.089-.457-.14-.569-.533-.5s-.385-.186-.386-.463.006-.5.37-.423c.491.1.616-.139.55-.578-.063-.42.257-.3.471-.312s.479-.043.413.322c-.082.451.076.66.553.568.4-.076.349.2.338.468" transform="translate(-41.455 -132.953)" fill="#010000"/>
      <path id="Trazado_127057" data-name="Trazado 127057" d="M121.781,17.147c-.094-.4.127-.477.453-.428s.473-.09.421-.424.048-.486.432-.478c.353.007.515.1.453.461s.109.493.458.441c.323-.048.485.029.487.424s-.15.513-.5.457c-.372-.059-.5.11-.441.458.065.39-.144.435-.472.441-.351.007-.465-.125-.413-.446.056-.353-.074-.514-.442-.452s-.513-.088-.432-.453" transform="translate(-92.645 -15.816)" fill="#29c4bb"/>
    </g>
    <g id="Grupo_158634" data-name="Grupo 158634" transform="translate(1187.189 5113.419)">
      <g id="Grupo_158634-2" data-name="Grupo 158634" clip-path="url(#clip-path)">
        <path id="Trazado_133726" data-name="Trazado 133726" d="M0,45.509V2.634A3.012,3.012,0,0,1,2.632,0H35.254a3.154,3.154,0,0,1,2.863,3.442q0,6.37,0,12.74a1.359,1.359,0,0,0,.037.506c.211-.038.3-.2.414-.317,1.211-1.2,2.413-2.418,3.626-3.62a3.546,3.546,0,0,1,5.419,4.526,6.343,6.343,0,0,1-.8.924q-4.09,4.086-8.183,8.17a1.662,1.662,0,0,0-.526,1.287q.02,8.579.009,17.158a3.366,3.366,0,0,1-1.524,2.91,2.883,2.883,0,0,1-1.737.462q-8.6,0-17.2,0c-4.841,0-9.682-.012-14.524.009A3.173,3.173,0,0,1,.35,46.66,3.253,3.253,0,0,1,0,45.509" transform="translate(0 -0.001)"/>
        <path id="Trazado_133727" data-name="Trazado 133727" d="M25.487,52.74c-.157-.712-.435-.938-1.172-.938-2.976,0-5.952-.008-8.929.009-.376,0-.451-.1-.45-.462q.014-17.978,0-35.955c0-.358.076-.467.451-.461,1.5.024,3.007.015,4.511,0,.276,0,.393.034.417.365a2.863,2.863,0,0,0,2.764,2.636q5.216.042,10.432,0A2.869,2.869,0,0,0,36.274,15.3c.022-.278.078-.367.371-.364q2.326.024,4.652,0c.3,0,.353.092.352.369q-.012,8.225,0,16.45a.661.661,0,0,1-.254.566,5.405,5.405,0,0,0-1.525,2.207c-.709,1.683-1.468,3.345-2.218,5.011a1.022,1.022,0,0,0,.1,1.258A1,1,0,0,0,39,40.91c.859-.4,1.73-.77,2.638-1.172v.991c0,3.556,0,7.113.008,10.669,0,.323-.069.414-.4.413-2.992-.015-5.984-.009-8.976-.008-.738,0-1.017.227-1.171.938a3.436,3.436,0,0,1-1.758.1c-.2-.07-.238-.27-.321-.43a.8.8,0,0,0-1.448-.011c-.084.16-.117.36-.318.437a3.381,3.381,0,0,1-1.768-.093" transform="translate(-9.304 -9.302)" fill="#fefefe"/>
        <path id="Trazado_133728" data-name="Trazado 133728" d="M23.05,46.528H24.9a.991.991,0,0,0,1.17.941q5.029,0,10.057,0c.868,0,1.2-.324,1.2-1.187,0-4.371.006-8.743-.009-13.114a.6.6,0,0,1,.447-.687c.48-.168.934-.41,1.442-.639v.506q0,7.685,0,15.37c0,1.152-.476,1.632-1.616,1.632H6.618c-1.152,0-1.632-.475-1.632-1.616q0-20.565,0-41.129c0-1.155.473-1.634,1.612-1.635,2.35,0,4.7.01,7.05-.01.382,0,.49.11.452.469-.05.462.194,1.082-.1,1.345-.257.229-.863.073-1.315.074-1.551,0-3.1,0-4.653,0-.84,0-1.164.326-1.164,1.169q0,19.131,0,38.262c0,.863.326,1.187,1.195,1.187q5.029,0,10.058,0a.992.992,0,0,0,1.171-.941h1.853c.135.076.16.224.223.347a.81.81,0,0,0,1.461,0c.062-.123.088-.27.223-.347" transform="translate(-3.106 -3.09)" fill="#79b1fe"/>
        <path id="Trazado_133729" data-name="Trazado 133729" d="M40.234,4.974c1.894,0,3.788.008,5.682-.008.328,0,.458.046.448.422-.03,1.1-.006,2.192-.012,3.287a1.063,1.063,0,0,1-1.189,1.186q-4.931.006-9.862,0a1.062,1.062,0,0,1-1.187-1.189c-.006-1.111.013-2.223-.011-3.334-.007-.334.12-.371.4-.37,1.91.01,3.819.005,5.729.005" transform="translate(-21.243 -3.094)" fill="#bcd8fe"/>
        <path id="Trazado_133730" data-name="Trazado 133730" d="M78.787,24.007V8.272c0-1.172-.238-1.414-1.39-1.414-1.817,0-3.634-.006-5.451.006-.3,0-.419-.063-.4-.384a10.89,10.89,0,0,0,0-1.174c-.008-.224.029-.336.3-.335,2.506.011,5.012,0,7.518.013A1.3,1.3,0,0,1,80.663,6.27c.007.125,0,.25,0,.376q0,7.5.008,14.991a1.012,1.012,0,0,1-.346.815c-.5.471-.968.973-1.543,1.555" transform="translate(-44.567 -3.097)" fill="#79b1fe"/>
        <path id="Trazado_133731" data-name="Trazado 133731" d="M98.971,44.782c-.074.079-.135.149-.2.214q-4.017,4.017-8.03,8.038c-.176.176-.277.175-.447,0-.577-.6-1.166-1.18-1.758-1.761-.141-.138-.2-.22-.022-.4q4.044-4.023,8.073-8.062c.106-.106.19-.259.373-.072.624.637,1.26,1.263,1.89,1.894.041.041.075.091.121.148" transform="translate(-55.065 -26.568)" fill="#fec05a"/>
        <path id="Trazado_133732" data-name="Trazado 133732" d="M117.484,37.622a2.165,2.165,0,0,1-.893,1.807c-.126.12-.2,0-.267-.072q-.932-.925-1.859-1.855c-.062-.062-.133-.108-.077-.233a1.778,1.778,0,0,1,2.28-.737,1.455,1.455,0,0,1,.816,1.09" transform="translate(-71.24 -22.653)" fill="#fe6876"/>
        <path id="Trazado_133733" data-name="Trazado 133733" d="M82.13,72.291c.417-.936.793-1.77,1.159-2.609.092-.212.181-.162.3-.039.4.4.794.8,1.2,1.2.137.133.149.216-.044.3-.839.365-1.675.738-2.616,1.153" transform="translate(-51.159 -43.315)" fill="#97a0b2"/>
        <path id="Trazado_133734" data-name="Trazado 133734" d="M25.906,29.918c.939,0,1.878,0,2.818,0,.747,0,1.106.35,1.108,1.082q.007,2.865,0,5.73a.96.96,0,0,1-1.1,1.085q-2.841.005-5.682,0c-.765,0-1.107-.351-1.108-1.129q0-2.818,0-5.636c0-.8.339-1.129,1.152-1.132.939,0,1.878,0,2.818,0" transform="translate(-13.663 -18.635)"/>
        <path id="Trazado_133735" data-name="Trazado 133735" d="M29.833,61.317c0,.939,0,1.879,0,2.818,0,.746-.351,1.105-1.082,1.107q-2.864.007-5.729,0a.961.961,0,0,1-1.083-1.106q-.005-2.841,0-5.683c0-.765.35-1.106,1.129-1.107q2.818,0,5.635,0c.8,0,1.129.339,1.132,1.152,0,.939,0,1.879,0,2.818" transform="translate(-13.663 -35.72)"/>
        <path id="Trazado_133736" data-name="Trazado 133736" d="M21.936,88.671c0-.939,0-1.879,0-2.818A.952.952,0,0,1,23,84.772q2.888-.008,5.776,0a.951.951,0,0,1,1.058,1.083q.006,2.865,0,5.73c0,.733-.361,1.081-1.107,1.082q-2.841.005-5.682,0c-.763,0-1.1-.353-1.105-1.131,0-.955,0-1.91,0-2.865" transform="translate(-13.663 -52.802)"/>
        <path id="Trazado_133737" data-name="Trazado 133737" d="M55.686,87.135a1.056,1.056,0,0,1,.746.363c.383.391.779.77,1.157,1.166.155.164.256.164.413,0,.375-.4.766-.783,1.158-1.164a.946.946,0,1,1,1.333,1.324c-.358.372-.718.743-1.1,1.093-.215.2-.262.327-.014.548.4.352.764.74,1.131,1.125a.94.94,0,0,1,.074,1.381.952.952,0,0,1-1.415-.067c-.383-.37-.767-.739-1.124-1.132-.2-.222-.321-.2-.514.008-.359.392-.743.762-1.127,1.13a.944.944,0,1,1-1.329-1.326c.37-.383.735-.772,1.134-1.123.258-.227.179-.356-.024-.547-.41-.387-.806-.787-1.194-1.2a.894.894,0,0,1-.166-1.044.91.91,0,0,1,.858-.535" transform="translate(-34.092 -54.275)"/>
        <path id="Trazado_133738" data-name="Trazado 133738" d="M60.175,33.213a1.145,1.145,0,0,1-.356.748c-1.364,1.361-2.722,2.728-4.09,4.085a.947.947,0,0,1-1.482,0q-.974-.953-1.929-1.926a.946.946,0,1,1,1.329-1.328c.372.359.749.715,1.092,1.1.206.232.317.18.508-.014,1.076-1.094,2.168-2.174,3.251-3.262a.95.95,0,0,1,1.112-.255.937.937,0,0,1,.565.85" transform="translate(-32.362 -20.107)"/>
        <path id="Trazado_133739" data-name="Trazado 133739" d="M60.174,60.64a1.114,1.114,0,0,1-.329.723c-1.385,1.384-2.765,2.774-4.158,4.15a.927.927,0,0,1-1.415-.007q-1.01-.983-1.994-1.993A.941.941,0,1,1,53.617,62.2c.363.346.727.692,1.06,1.066.224.252.354.278.611.013,1.056-1.092,2.142-2.155,3.214-3.232a.954.954,0,0,1,1.026-.28.905.905,0,0,1,.62.706c.015.06.02.123.028.17" transform="translate(-32.36 -37.196)"/>
        <path id="Trazado_133740" data-name="Trazado 133740" d="M49.737,113.642c-.141.636-.47.952-.977.939-.491-.012-.794-.319-.93-.939.136-.616.441-.924.93-.936.508-.013.836.3.977.936" transform="translate(-29.793 -70.204)" fill="#010101"/>
        <path id="Trazado_133741" data-name="Trazado 133741" d="M28.985,39.037c-.594,0-1.189-.009-1.782,0-.224.005-.293-.064-.291-.29q.015-1.783,0-3.565c0-.224.064-.293.29-.291q1.782.015,3.565,0c.224,0,.293.064.291.29q-.015,1.782,0,3.565c0,.224-.064.3-.29.291-.594-.014-1.188,0-1.782,0" transform="translate(-16.763 -21.736)" fill="#cae458"/>
        <path id="Trazado_133742" data-name="Trazado 133742" d="M28.937,66.464c-.578,0-1.157-.009-1.735,0-.226.006-.292-.067-.29-.291q.015-1.782,0-3.565c0-.226.067-.292.291-.29q1.782.014,3.565,0c.225,0,.292.067.29.291q-.015,1.782,0,3.565c0,.226-.066.3-.291.29-.61-.014-1.22,0-1.829,0" transform="translate(-16.763 -38.82)" fill="#cae458"/>
        <path id="Trazado_133743" data-name="Trazado 133743" d="M31.052,91.83c0,.578-.008,1.157,0,1.735,0,.226-.033.334-.3.33-1.187-.014-2.375-.012-3.563,0-.237,0-.283-.088-.281-.3q.012-1.782,0-3.564c0-.237.088-.283.3-.281,1.188.008,2.376.01,3.563,0,.237,0,.285.087.281.3-.011.594,0,1.188,0,1.782" transform="translate(-16.763 -55.904)" fill="#fe6977"/>
      </g>
    </g>
  </g>
</svg>
