<svg xmlns="http://www.w3.org/2000/svg" xmlns:xlink="http://www.w3.org/1999/xlink" width="61" height="73" viewBox="0 0 61 73">
  <defs>
    <clipPath id="clip-path">
      <rect id="Rect치ngulo_37158" data-name="Rect치ngulo 37158" width="41.477" height="38.009" fill="none"/>
    </clipPath>
  </defs>
  <g id="Grupo_156658" data-name="Grupo 156658" transform="translate(0.274 0.034)">
    <g id="Grupo_156379" data-name="Grupo 156379" transform="translate(0 0)">
      <rect id="Rect치ngulo_36766" data-name="Rect치ngulo 36766" width="61" height="73" rx="12" transform="translate(-0.274 -0.035)" fill="#1169e3"/>
    </g>
    <g id="Grupo_156657" data-name="Grupo 156657" transform="translate(4.372 10.491)">
      <g id="Grupo_156655" data-name="Grupo 156655" transform="translate(5.246 6.994)">
        <g id="Grupo_156654" data-name="Grupo 156654">
          <g id="Grupo_156653" data-name="Grupo 156653" clip-path="url(#clip-path)">
            <path id="Trazado_127614" data-name="Trazado 127614" d="M40,48.595c.5.142.6.277.6.867q0,6.368,0,12.735c0,.311-.02.546.413.553a.506.506,0,0,1,.472.572A.55.55,0,0,1,41,63.9a2.4,2.4,0,0,1-.448.034q-19.821,0-39.642,0a2.511,2.511,0,0,1-.328-.012A.611.611,0,0,1,0,63.3a.576.576,0,0,1,.576-.582c.4-.024.793-.016,1.19-.017,1.041,0,2.082-.021,3.122.01.393.012.454-.121.453-.475-.014-2.93-.008-5.861-.008-8.791,0-.723.175-.9.89-.9q1.561,0,3.122,0c.632,0,.833.2.834.837,0,2.958.006,5.915-.006,8.873,0,.335.042.473.43.456.811-.036.812-.01.812-.8,0-.835,0-1.67,0-2.506a.677.677,0,0,1,.6-.786c.344-.144.508.082.65.328a1.248,1.248,0,0,1,.106.641c0,.835,0,1.67,0,2.505,0,.309.112.454.433.444.342-.012.684,0,1.026,0,.666,0,.668,0,.669-.653q0-3.306,0-6.612c0-.274,0-.548,0-.821-.008-.5-.038-.526-.546-.53-.37,0-.74-.006-1.109,0-.421.008-.464.049-.469.481-.008.685,0,1.369,0,2.054a1.072,1.072,0,0,1-.166.665c-.147.2-.316.352-.589.221a.66.66,0,0,1-.6-.744c0-1.1,0-2.191,0-3.286,0-.545.226-.757.785-.759q1.623-.005,3.245,0c.606,0,.814.207.815.812,0,2.971.009,5.943-.009,8.914,0,.37.1.449.448.437.8-.027.8-.008.8-.816q0-5.71,0-11.42c0-.765.18-.946.94-.947q1.5,0,3,0c.713,0,.905.191.905.9,0,3.957.006,7.914-.009,11.871,0,.352.1.425.428.416.819-.024.819-.006.819-.838q0-7.928,0-15.856c0-.793.163-.955.963-.955q1.52,0,3.04,0c.661,0,.843.188.843.86q0,8.154-.01,16.308c0,.4.105.5.493.482.754-.033.755-.009.755-.781q0-10.269,0-20.539c0-.809.173-.98.995-.98,1,0,2,0,3,0,.655,0,.852.2.852.863q0,10.475-.01,20.95c0,.4.1.5.494.486.754-.033.755-.009.755-.783q0-12.96,0-25.92c0-.867.157-1.022,1.034-1.022.986,0,1.972,0,2.958,0,.654,0,.853.2.853.861q0,5.32,0,10.639c0,.547-.1.686-.6.825a.556.556,0,0,1-.691-.4,2.167,2.167,0,0,1-.089-.812q0-4.518,0-9.036c0-.73,0-.73-.721-.731-.3,0-.6,0-.9,0-.441.009-.48.051-.492.505,0,.1,0,.192,0,.287q0,12.3,0,24.6c0,.795,0,.8.779.8.315,0,.63,0,.945,0,.279,0,.4-.131.392-.4,0-.15,0-.3,0-.452q0-5.915,0-11.83a2.443,2.443,0,0,1,.075-.814A.566.566,0,0,1,40,48.595" transform="translate(0 -25.927)"/>
            <path id="Trazado_127615" data-name="Trazado 127615" d="M145.813,52.085c-.511.118-.636.286-.636.878q0,6.345,0,12.689c0,.541,0,.541-.541.541-.52,0-1.04-.007-1.56,0-.212,0-.308-.064-.281-.282a1.7,1.7,0,0,0,0-.205q0-12.75-.011-25.5c0-.424.11-.539.519-.507a10.735,10.735,0,0,0,1.477,0c.332-.02.4.094.4.41-.011,3.271-.008,6.543-.006,9.814,0,.592.126.76.636.878v1.28" transform="translate(-105.813 -29.418)" fill="#72f1ea"/>
            <path id="Trazado_127616" data-name="Trazado 127616" d="M46.411,111.111c.484-.111.625-.273.628-.756.005-.835.009-1.67,0-2.505,0-.229.056-.309.295-.3q.9.024,1.807,0c.244-.007.291.083.29.306q-.01,4.148,0,8.3c0,.245-.055.336-.316.328-.588-.019-1.178-.02-1.765,0-.267.009-.314-.095-.312-.333.012-1,.009-2,0-3,0-.483-.145-.645-.628-.755a6.06,6.06,0,0,0,0-1.28" transform="translate(-34.394 -79.7)" fill="#fe6a66"/>
            <path id="Trazado_127617" data-name="Trazado 127617" d="M133.969,17.648c.9,0,1.8,0,2.707,0a.607.607,0,0,1,.652.505.566.566,0,0,1-.291.625.787.787,0,0,1-.433.1c-1.763,0-3.527.006-5.29,0-.486,0-.754-.248-.744-.631s.279-.594.775-.6c.875-.007,1.75,0,2.625,0Z" transform="translate(-96.76 -13.076)" fill="#010101"/>
            <path id="Trazado_127618" data-name="Trazado 127618" d="M145.629,11.152c-.328,0-.656.01-.983,0a.593.593,0,0,1-.651-.585.585.585,0,0,1,.609-.632c.7-.026,1.393-.026,2.088,0a.608.608,0,1,1-.039,1.215c-.341.007-.683,0-1.024,0" transform="translate(-106.71 -7.347)" fill="#010101"/>
            <path id="Trazado_127619" data-name="Trazado 127619" d="M143.963.631A.607.607,0,0,1,144.612,0a.636.636,0,0,1,.579.709.618.618,0,1,1-1.228-.08" transform="translate(-106.685 -0.001)" fill="#010101"/>
            <path id="Trazado_127620" data-name="Trazado 127620" d="M153.253.687a.613.613,0,0,1-.626.656.635.635,0,0,1-.606-.687A.626.626,0,0,1,152.658,0a.614.614,0,0,1,.6.686" transform="translate(-112.657 -0.001)" fill="#020202"/>
            <path id="Trazado_127621" data-name="Trazado 127621" d="M121.682,71.172c0,3.38-.006,6.761.009,10.141,0,.344-.083.443-.426.424-.56-.031-1.122-.015-1.683,0-.209,0-.31-.059-.281-.279a1.593,1.593,0,0,0,0-.205q0-10.059-.009-20.118c0-.383.1-.489.474-.466a12.7,12.7,0,0,0,1.518,0c.327-.019.406.085.4.406-.012,3.367-.007,6.734-.007,10.1" transform="translate(-88.403 -44.954)" fill="#72f1ea"/>
            <path id="Trazado_127622" data-name="Trazado 127622" d="M95.8,86.781c0-2.573.009-5.146-.01-7.719,0-.376.105-.457.454-.439.56.03,1.122.015,1.683,0,.192,0,.27.048.259.251-.016.287,0,.575,0,.862q0,7.431.009,14.863c0,.364-.089.467-.448.444a12.322,12.322,0,0,0-1.518,0c-.337.019-.435-.076-.432-.423.016-2.217.008-4.434.008-6.651Z" transform="translate(-70.986 -58.263)" fill="#72f1ea"/>
            <path id="Trazado_127623" data-name="Trazado 127623" d="M72.315,101.87c0-1.875.006-3.75-.006-5.625,0-.284.068-.38.361-.367.546.024,1.1.024,1.642,0,.3-.013.4.059.391.378-.022,1.026-.008,2.053-.008,3.079,0,2.7-.005,5.392.007,8.088,0,.314-.068.428-.4.409a14.175,14.175,0,0,0-1.559,0c-.331.018-.44-.064-.436-.419.019-1.848.009-3.7.009-5.543" transform="translate(-53.583 -71.05)" fill="#f8b667"/>
            <path id="Trazado_127624" data-name="Trazado 127624" d="M25.343,112.034c0-1.382.006-2.765-.006-4.147,0-.26.058-.356.335-.345.574.022,1.15.016,1.724,0,.23-.005.336.03.334.305q-.016,4.147,0,8.294c0,.244-.055.337-.316.329-.588-.018-1.177-.019-1.765,0-.268.009-.312-.1-.31-.333.01-1.368,0-2.737,0-4.106" transform="translate(-18.776 -79.695)" fill="#fe6a66"/>
          </g>
        </g>
      </g>
      <g id="Grupo_156656" data-name="Grupo 156656">
        <path id="Trazado_127053" data-name="Trazado 127053" d="M15.232,123.416c-.4.088-.489-.1-.485-.469.01-.929-.006-.945-.967-.94-.358,0-.469-.109-.462-.463.007-.33.067-.483.447-.482.964,0,.989-.016.979-.978,0-.435.209-.443.532-.447s.49.051.49.437c0,.975.02.992.972.988.368,0,.455.131.456.473s-.086.473-.455.471c-.971-.005-.994.013-.973.932.01.427-.148.552-.535.477" transform="translate(-13.318 -89.361)" fill="#29c4bb"/>
        <path id="Trazado_127054" data-name="Trazado 127054" d="M213.435,151.158c.355-.068.552.05.494.452-.049.337.067.524.44.466s.5.077.5.469c0,.411-.165.506-.515.459-.335-.045-.441.1-.434.433.011.522-.312.722-.817.564-.24-.075-.187-.266-.172-.417.042-.412-.052-.665-.539-.582-.377.064-.4-.172-.4-.461s.012-.523.394-.464c.412.064.607-.087.538-.522-.065-.416.2-.434.509-.4" transform="translate(-164.083 -111.951)" fill="#29c4bb"/>
        <path id="Trazado_127055" data-name="Trazado 127055" d="M210.308,69.062c.092.4-.089.532-.461.469-.4-.068-.567.1-.5.5s-.1.479-.474.483-.532-.111-.465-.487c.072-.4-.1-.566-.494-.491s-.449-.138-.464-.485c-.018-.407.14-.514.495-.452.386.067.53-.092.464-.469-.063-.361.054-.506.455-.492.354.013.559.063.483.469s.1.559.5.492c.372-.063.553.071.46.467" transform="translate(-160.498 -52.631)" fill="#010000"/>
        <path id="Trazado_127056" data-name="Trazado 127056" d="M54.631,186.433c.087.37-.1.506-.465.439-.434-.079-.537.147-.474.513.069.407-.128.47-.485.467-.341,0-.525-.079-.453-.447.094-.483-.148-.6-.564-.531s-.407-.2-.409-.489.006-.524.392-.448c.519.1.651-.146.581-.611-.067-.445.272-.317.5-.33s.506-.045.437.34c-.086.477.081.7.585.6.421-.081.37.213.357.495" transform="translate(-42.505 -136.017)" fill="#010000"/>
        <path id="Trazado_127057" data-name="Trazado 127057" d="M121.783,17.224c-.1-.422.134-.5.479-.453s.5-.1.445-.449.05-.514.457-.506c.374.008.544.1.479.488s.115.521.484.466c.342-.051.513.031.515.448s-.159.542-.532.483c-.394-.063-.527.117-.466.484.069.412-.153.46-.5.467-.371.008-.492-.132-.437-.472.06-.373-.078-.543-.467-.478s-.542-.093-.457-.479" transform="translate(-95.608 -15.816)" fill="#29c4bb"/>
      </g>
    </g>
  </g>
</svg>
