<svg xmlns="http://www.w3.org/2000/svg" xmlns:xlink="http://www.w3.org/1999/xlink" width="69" height="84" viewBox="0 0 69 84">
  <defs>
    <clipPath id="clip-path">
      <rect id="Rect치ngulo_37912" data-name="Rect치ngulo 37912" width="42.203" height="31.24" fill="#fff"/>
    </clipPath>
  </defs>
  <g id="Grupo_157742" data-name="Grupo 157742" transform="translate(-323 -10916.998)">
    <g id="Grupo_156377" data-name="Grupo 156377" transform="translate(323.373 10917.389)">
      <rect id="Rect치ngulo_36766" data-name="Rect치ngulo 36766" width="69" height="84" rx="12" transform="translate(-0.373 -0.391)" fill="#1169e3"/>
    </g>
    <g id="Grupo_156647" data-name="Grupo 156647" transform="translate(1)">
      <g id="Grupo_156582" data-name="Grupo 156582" transform="translate(-26 6270)">
        <path id="Trazado_127053" data-name="Trazado 127053" d="M15.507,123.96c-.454.1-.559-.113-.555-.537.012-1.063-.007-1.081-1.106-1.075-.409,0-.536-.124-.528-.529.007-.377.077-.553.512-.551,1.1,0,1.131-.018,1.119-1.119-.005-.5.239-.507.608-.511s.56.058.56.5c0,1.115.023,1.135,1.112,1.131.421,0,.521.15.522.541s-.1.541-.52.539c-1.11-.006-1.137.014-1.112,1.066.012.488-.169.631-.611.545" transform="translate(339.683 4573.993)" fill="#29c4bb"/>
        <path id="Trazado_127054" data-name="Trazado 127054" d="M213.642,151.161c.406-.078.632.057.565.517-.056.385.077.6.5.533s.57.088.573.537c0,.47-.189.578-.589.525-.383-.052-.5.115-.5.5.012.6-.357.826-.934.645-.274-.086-.214-.3-.2-.477.048-.472-.06-.76-.616-.666-.431.073-.457-.2-.456-.527s.014-.6.451-.53c.471.073.694-.1.616-.6-.075-.475.23-.5.582-.454" transform="translate(195.806 4552.685)" fill="#29c4bb"/>
        <path id="Trazado_127055" data-name="Trazado 127055" d="M210.718,69.268c.1.453-.1.608-.527.537-.46-.078-.648.111-.567.569s-.113.548-.542.553-.609-.127-.532-.557c.082-.459-.109-.648-.565-.562-.472.089-.513-.158-.531-.555-.021-.466.16-.588.566-.517.441.077.606-.106.531-.537-.072-.412.061-.579.521-.563.4.014.639.072.552.536s.115.639.567.563c.425-.072.632.081.526.534" transform="translate(199.254 4608.526)" fill="#010000"/>
        <path id="Trazado_127056" data-name="Trazado 127056" d="M55.04,186.64c.1.423-.11.578-.532.5-.5-.09-.614.169-.543.587.079.465-.146.537-.555.535-.39,0-.6-.091-.518-.511.108-.553-.169-.688-.645-.607s-.466-.225-.467-.559.007-.6.448-.512c.593.117.745-.168.665-.7-.077-.508.311-.362.569-.377.274-.016.579-.052.5.389-.1.545.092.8.67.687.482-.092.423.243.409.566" transform="translate(311.829 4530.025)" fill="#010000"/>
        <path id="Trazado_127057" data-name="Trazado 127057" d="M121.786,17.426c-.114-.483.153-.577.548-.518.41.061.572-.109.509-.513s.058-.588.522-.578c.427.009.623.119.548.558s.131.6.553.533c.391-.059.587.035.589.513s-.182.62-.608.553c-.45-.072-.6.133-.533.553.078.472-.175.526-.572.534-.424.009-.562-.151-.5-.54.068-.427-.09-.622-.535-.547s-.62-.106-.523-.547" transform="translate(261.153 4643.184)" fill="#29c4bb"/>
      </g>
      <g id="Grupo_158089" data-name="Grupo 158089" transform="translate(-0.398 -7.999)">
        <g id="Grupo_158088" data-name="Grupo 158088" transform="translate(335.398 10950.998)">
          <g id="Grupo_158088-2" data-name="Grupo 158088" clip-path="url(#clip-path)">
            <path id="Trazado_132373" data-name="Trazado 132373" d="M38.78,0Q21.1,0,3.431,0A3.322,3.322,0,0,0,0,3.432q-.008,7.7,0,15.4A3.906,3.906,0,0,0,.16,19.922a3.337,3.337,0,0,0,3.474,2.361q12.688,0,25.375,0h.513a4.923,4.923,0,0,1-.1-.54,5.991,5.991,0,0,1-.05-1.693,2.344,2.344,0,0,1,3.808-1.175C34.5,19.919,35.784,21,37.1,22.04a1.231,1.231,0,0,0,.628.233,8.816,8.816,0,0,0,1.191,0,3.306,3.306,0,0,0,3.285-3.43q.009-7.7,0-15.4A3.32,3.32,0,0,0,38.78,0M11.952,16.926a.494.494,0,0,1-.687-.3c-.2-.5-.381-1.018-.568-1.528-.2-.552-.412-1.1-.6-1.658a.361.361,0,0,0-.407-.3c-1.133.012-2.266.014-3.4,0a.415.415,0,0,0-.447.316c-.422,1.034-.856,2.062-1.286,3.093-.122.294-.34.485-.65.373-.184-.067-.314-.281-.442-.4.068-.222.1-.335.137-.444Q5.466,10.961,7.331,5.848a1.015,1.015,0,0,1,.275-.435c.311-.249.674-.064.854.425q.834,2.276,1.658,4.555l2.034,5.59a2.837,2.837,0,0,1,.1.292.5.5,0,0,1-.3.652m3.978-2.1a3.142,3.142,0,0,0,4.84-.1c.1-.11.184-.23.282-.339a.5.5,0,0,1,.743-.094.494.494,0,0,1,.083.743,4.2,4.2,0,0,1-5.6,1.39,5.676,5.676,0,0,1-2.682-4.2c-.061-.361-.075-.73-.105-1.032a6.147,6.147,0,0,1,2.445-5.11,4.182,4.182,0,0,1,5.955,1.2.5.5,0,0,1-.085.744.506.506,0,0,1-.771-.131,3.589,3.589,0,0,0-2.05-1.44,3.054,3.054,0,0,0-3,.959,5.658,5.658,0,0,0-.055,7.416M29.255,6.36c-.747-.009-1.494,0-2.3,0v.555q0,4.589,0,9.178c0,.162.042.358-.033.476-.1.164-.3.363-.459.373a.726.726,0,0,1-.5-.314.955.955,0,0,1-.064-.513q0-4.611,0-9.222V6.362c-.816,0-1.549,0-2.283,0-.467,0-.719-.2-.689-.544.035-.414.319-.516.684-.516,1.882,0,3.765,0,5.647,0,.464,0,.712.2.685.553-.032.422-.32.508-.685.5m10.5,5.274q-1.96,1.97-3.928,3.932c-.258.259-.534.384-.85.121-.272-.227-.233-.534.1-.872q1.665-1.672,3.336-3.339c.1-.1.2-.209.41-.429a2.345,2.345,0,0,1-.429-.269q-1.662-1.645-3.308-3.3c-.334-.335-.369-.643-.1-.876.319-.275.587-.135.844.123q1.96,1.97,3.926,3.934c.358.36.359.611-.006.977" transform="translate(0 0.001)" fill="#fff"/>
            <path id="Trazado_132374" data-name="Trazado 132374" d="M119.351,76.458q-3.731-3.031-7.46-6.064a1.306,1.306,0,0,0-1.593-.153,1.266,1.266,0,0,0-.594,1.442c.626,3.154,1.266,6.306,1.9,9.459a.851.851,0,0,0,1.634.232c.237-.456.467-.916.717-1.365a3.628,3.628,0,0,1,2.566-1.9,12.136,12.136,0,0,1,1.357-.116c0,.011,0,.022,0,.032.309,0,.618,0,.926,0a.856.856,0,0,0,.545-1.564" transform="translate(-79.336 -50.667)" fill="#fff"/>
            <path id="Trazado_132375" data-name="Trazado 132375" d="M22.38,31.388h3.4l-1.7-4.68-1.7,4.68" transform="translate(-16.19 -19.321)" fill="#fff"/>
          </g>
        </g>
      </g>
    </g>
  </g>
</svg>
