<svg xmlns="http://www.w3.org/2000/svg" width="70" height="85" viewBox="0 0 70 85">
  <g id="Grupo_158006" data-name="Grupo 158006" transform="translate(-691 -3100)">
    <g id="Grupo_157997" data-name="Grupo 157997" transform="translate(151 1393)">
      <rect id="Rectángulo_36766" data-name="Rectángulo 36766" width="70" height="85" rx="12" transform="translate(540 1707)" fill="#1169e3"/>
    </g>
    <g id="Grupo_157996" data-name="Grupo 157996" transform="translate(285 1.99)">
      <path id="Trazado_131204" data-name="Trazado 131204" d="M82.764,12.44c.395-.075.614.055.549.5-.055.374.075.583.489.518s.554.086.557.521c0,.457-.183.562-.573.51-.372-.05-.49.112-.483.482.012.58-.347.8-.908.627-.266-.083-.208-.3-.191-.464.047-.458-.058-.739-.6-.647-.419.071-.444-.191-.443-.513s.014-.581.438-.515c.458.071.674-.1.6-.58-.073-.462.224-.482.565-.441" transform="translate(352.825 3103.485)"/>
      <path id="Trazado_131205" data-name="Trazado 131205" d="M219.54,132.772c.395-.075.614.055.549.5-.055.374.075.583.489.518s.553.086.557.521c0,.457-.183.562-.573.51-.372-.05-.49.112-.483.482.012.58-.347.8-.908.627-.266-.083-.208-.3-.191-.464.047-.458-.058-.739-.6-.647-.419.071-.444-.191-.443-.513s.014-.581.438-.515c.458.071.674-.1.6-.58-.073-.462.224-.482.565-.441" transform="translate(248.047 3011.304)"/>
      <path id="Trazado_131206" data-name="Trazado 131206" d="M8.433,189.459c.395-.075.614.055.549.5-.055.374.075.583.489.518s.554.086.557.521c0,.457-.183.562-.573.51-.372-.05-.49.112-.483.482.012.58-.347.8-.908.627-.266-.083-.208-.3-.191-.464.047-.458-.058-.739-.6-.647-.419.071-.444-.191-.443-.513s.014-.581.438-.515c.458.071.674-.1.6-.58-.073-.462.224-.482.565-.441" transform="translate(409.768 2967.879)"/>
      <path id="Trazado_131207" data-name="Trazado 131207" d="M2.041,77.938c.5-.1.781.07.7.64-.069.477.1.742.623.66s.705.109.709.664c0,.582-.234.716-.729.649-.473-.064-.624.142-.615.613.015.738-.442,1.022-1.156.8-.339-.106-.265-.377-.243-.59.059-.583-.074-.941-.763-.824C.032,80.639,0,80.3,0,79.9s.017-.74.558-.656c.583.09.859-.123.762-.739-.092-.588.285-.614.72-.562" transform="translate(414.999 3053.314)" fill="#29c4bb"/>
      <path id="Trazado_131208" data-name="Trazado 131208" d="M187.9,10.552c.5-.1.781.07.7.64-.069.477.1.742.623.66s.705.109.709.664c0,.582-.234.716-.729.649-.473-.064-.624.142-.615.613.015.738-.442,1.022-1.156.8-.339-.106-.265-.377-.243-.59.059-.583-.074-.941-.763-.824-.533.091-.566-.244-.564-.653s.017-.74.558-.656c.583.09.859-.123.762-.739-.092-.588.285-.614.72-.562" transform="translate(272.621 3104.936)" fill="#29c4bb"/>
      <path id="Trazado_131209" data-name="Trazado 131209" d="M187.9,10.552c.5-.1.781.07.7.64-.069.477.1.742.623.66s.705.109.709.664c0,.582-.234.716-.729.649-.473-.064-.624.142-.615.613.015.738-.442,1.022-1.156.8-.339-.106-.265-.377-.243-.59.059-.583-.074-.941-.763-.824-.533.091-.566-.244-.564-.653s.017-.74.558-.656c.583.09.859-.123.762-.739-.092-.588.285-.614.72-.562" transform="translate(270.586 3151.936)" fill="#29c4bb"/>
    </g>
    <g id="Grupo_158001" data-name="Grupo 158001" transform="translate(683.585 3082.242)">
      <g id="Grupo_158002" data-name="Grupo 158002" transform="translate(16.415 34.758)">
        <path id="Trazado_131211" data-name="Trazado 131211" d="M75.161,89.87c-1.682.011-3.364.033-5.045.033q-18.917,0-37.834,0c-1.023,0-1.023,0-.931-1.039q8.173-.018,16.345-.025c.408,0,.565-.077.544-.522-.039-.85.016-1.7-.022-2.553-.021-.475.073-.653.6-.635,1.38.045,2.762,0,4.143.024.423.007.632-.073.575-.549a5.206,5.206,0,0,1,0-1.077c.038-.406-.131-.515-.513-.524a18.271,18.271,0,0,1-8.1-2.1,18.468,18.468,0,0,1-9.017-10,19.158,19.158,0,0,1,.406-15.055,16.3,16.3,0,0,1,3-4.513c.284-.307.338-.478,0-.8-.376-.358-.64-.574-1.239-.35A2.481,2.481,0,0,1,35.1,48.924a2.632,2.632,0,1,1,4.706-.143c-.081.176-.344.343-.187.548a4.2,4.2,0,0,0,.761.753c.149.116.254-.1.355-.193a19.053,19.053,0,0,1,4.145-2.853c.572-.288,1.17-.524,1.752-.794.245-.113.45-.142.473.2.018.259.5.565-.06.78a16.553,16.553,0,0,0-2.939,1.457,17.96,17.96,0,0,0-4.031,27.24,17.438,17.438,0,0,0,10.217,5.768A17.974,17.974,0,0,0,70.2,70.724a.633.633,0,0,1,1.09-.241c.2.181,0,.319-.051.449a19.089,19.089,0,0,1-3.428,5.637c-.151.174-.61.326-.268.713.273.31.481.564,1.013.269a2.533,2.533,0,0,1,3.229.807,2.631,2.631,0,0,1-3.569,3.75,2.513,2.513,0,0,1-.964-3.135c.258-.585-.23-.736-.48-.99s-.372.132-.508.253a18.33,18.33,0,0,1-11.1,4.738c-.452.034-.653.129-.592.611.064.5-.208,1.152.113,1.469.293.29.935.077,1.423.081,1.268.01,2.536.015,3.8,0,.358-.005.493.076.481.463-.029.888.013,1.779-.019,2.667-.016.437.1.58.559.575,2.4-.024,4.806-.016,7.209-.01q3.15.008,6.3.038c.8.007.712-.136.721.722,0,.094,0,.189,0,.283" transform="translate(-27.142 -42.168)"/>
        <path id="Trazado_131212" data-name="Trazado 131212" d="M69.393,87.556A16.035,16.035,0,1,1,85.4,71.516,16.013,16.013,0,0,1,69.393,87.556" transform="translate(-42.995 -49.684)"/>
        <path id="Trazado_131213" data-name="Trazado 131213" d="M18.961,143.6c-.528.118-.65-.131-.645-.624.013-1.236-.008-1.258-1.287-1.25-.476,0-.624-.144-.614-.615.009-.439.089-.643.6-.641,1.283,0,1.315-.021,1.3-1.3-.006-.579.278-.59.707-.594s.652.067.652.582c0,1.3.026,1.32,1.293,1.315.49,0,.606.175.607.63s-.115.629-.6.626c-1.291-.007-1.322.017-1.294,1.24.013.568-.2.734-.711.634" transform="translate(-16.415 -109.514)" fill="#feeea5"/>
        <path id="Trazado_131214" data-name="Trazado 131214" d="M182.09,144.855c.4-.075.614.055.549.5-.055.375.075.583.49.519s.554.086.557.522c0,.457-.183.563-.573.51-.372-.05-.49.112-.483.482.012.58-.348.8-.909.628-.267-.083-.208-.3-.191-.464.047-.459-.058-.74-.6-.648-.419.071-.445-.192-.443-.513s.013-.582.439-.516c.458.071.675-.1.6-.581-.073-.463.224-.483.566-.442" transform="translate(-134.555 -114.02)" fill="#feeea5"/>
        <path id="Trazado_131215" data-name="Trazado 131215" d="M179.863,76.549c.1.441-.1.592-.513.522-.448-.075-.631.108-.551.553s-.109.534-.527.538-.593-.123-.518-.542c.08-.447-.106-.63-.55-.547-.459.086-.5-.154-.517-.54-.02-.454.156-.572.551-.5.43.075.59-.1.517-.522-.069-.4.06-.563.507-.548.394.014.622.07.537.522s.112.621.553.548c.414-.069.615.079.512.52" transform="translate(-131.819 -63.705)" fill="#010000"/>
        <path id="Trazado_131216" data-name="Trazado 131216" d="M58.667,205.85c.115.492-.127.672-.619.584-.578-.1-.714.2-.631.682.092.541-.17.625-.645.622-.454,0-.7-.106-.6-.595.125-.643-.2-.8-.75-.706s-.541-.261-.543-.651.008-.7.521-.6c.69.137.866-.195.773-.812-.089-.591.361-.421.662-.439.319-.019.674-.06.581.453-.115.634.107.928.779.8.56-.107.492.283.475.658" transform="translate(-44.109 -156.571)" fill="#010000"/>
        <path id="Trazado_131217" data-name="Trazado 131217" d="M124.887,36.629c-.132-.561.178-.67.637-.6.477.071.665-.127.592-.6s.067-.684.607-.672c.5.01.724.139.638.649s.153.693.644.62c.455-.068.682.041.685.6s-.212.721-.707.642c-.524-.083-.7.155-.62.644.091.548-.2.611-.665.621-.493.01-.654-.175-.581-.628.079-.5-.1-.723-.622-.636s-.721-.123-.608-.637" transform="translate(-94.499 -34.758)" fill="#fefefe"/>
        <path id="Trazado_131218" data-name="Trazado 131218" d="M196.479,202.5h-.4c-.672,0-.825-.211-.68-.872.048-.221.185-.2.331-.2.377,0,.754,0,1.132,0,.673,0,.831.216.682.876-.04.179-.135.2-.276.2-.264,0-.528,0-.792,0" transform="translate(-145.26 -154.767)" fill="#080808"/>
        <path id="Trazado_131219" data-name="Trazado 131219" d="M100.536,194.6c-1.474,0-2.948-.022-4.421.012-.49.011-.615-.148-.581-.607a13.941,13.941,0,0,0,0-1.586c-.014-.331.07-.464.436-.462q4.591.021,9.182,0c.3,0,.443.06.429.4-.025.6-.029,1.21,0,1.813.018.369-.129.436-.458.433-1.53-.015-3.061-.006-4.591-.006" transform="translate(-73.381 -147.952)" fill="#7cc3c3"/>
        <path id="Trazado_131220" data-name="Trazado 131220" d="M162.612,165.518a1.534,1.534,0,0,1,1.532-1.6,1.6,1.6,0,0,1,1.658,1.563,1.633,1.633,0,0,1-1.613,1.623,1.591,1.591,0,0,1-1.576-1.582" transform="translate(-121.685 -127.757)" fill="#dd846e"/>
        <path id="Trazado_131221" data-name="Trazado 131221" d="M58.006,55.3a1.9,1.9,0,0,1,1.925,1.86A1.931,1.931,0,0,1,58,59.094a1.883,1.883,0,0,1-1.869-1.91A1.842,1.842,0,0,1,58.006,55.3" transform="translate(-45.012 -49.548)" fill="#fee686"/>
        <path id="Trazado_131222" data-name="Trazado 131222" d="M72.1,59.274A14.973,14.973,0,1,1,57.124,74.226,14.929,14.929,0,0,1,72.1,59.274" transform="translate(-45.727 -52.411)" fill="#0c487b"/>
        <path id="Trazado_131223" data-name="Trazado 131223" d="M89.485,68.443c1.014-1.021,2.072-1.251,3.058-.637a2.048,2.048,0,0,1,1.007,1.5c.039.284.089.415.421.448a2.06,2.06,0,0,1-.006,4.1.911.911,0,0,0-.626.316,2.014,2.014,0,0,1-2.381.523c-.665-.37-1.077.062-1.357.391a1.138,1.138,0,0,0-.268,1.49c.283.461.426.787,1.042.824a2.449,2.449,0,0,1,1.5.742c.217.209.368.2.626.048a3.257,3.257,0,1,1,2.675,5.883.631.631,0,0,0-.45.5,2.472,2.472,0,0,1-.847,1.376c-.291.232-.275.371-.045.656a2.757,2.757,0,1,1-4.311,3.439,2.652,2.652,0,0,1-.362-2.829c.1-.225.142-.476.24-.681.428-.9-.46-1.442-.55-2.194-.015-.132-.247-.142-.388-.194a3.442,3.442,0,0,1-1.926-4.828c.141-.281.24-.484-.074-.714a.734.734,0,0,1-.292-.537c-.026-.592-.371-.8-.895-1.008a3.506,3.506,0,0,1-2.233-3.6.526.526,0,0,0-.353-.546,3.368,3.368,0,0,1-.047-5.954.73.73,0,0,0,.431-.6,3.3,3.3,0,0,1,3.442-2.82,3.371,3.371,0,0,1,3.269,3.289,4.485,4.485,0,0,1-.3,1.6" transform="translate(-62.828 -55.488)"/>
        <path id="Trazado_131224" data-name="Trazado 131224" d="M142.815,128.071c-.028.066-.066.152-.1.239a13.017,13.017,0,0,1-3.419,4.878c-.215.2-.386.245-.522-.035-.113-.233-.64-.358-.19-.757a11.827,11.827,0,0,0,3.188-4.557c.071-.179.125-.28.366-.2.447.14.67.245.678.436" transform="translate(-104.254 -101.616)" fill="#fefefe"/>
        <path id="Trazado_131225" data-name="Trazado 131225" d="M80.69,101.193c-.728-.038-.954-.382-.689-1.037a15.091,15.091,0,0,1,2.162-3.662c.152-.194.294-.4.506-.121.2.261.871.34.509.832a16.729,16.729,0,0,0-2.148,3.749c-.062.157-.131.294-.34.238" transform="translate(-62.123 -79.027)" fill="#fdfdfe"/>
        <path id="Trazado_131226" data-name="Trazado 131226" d="M154.067,113.379a7.261,7.261,0,0,0-.107.948c.005.44-.177.522-.583.471s-.55-.213-.471-.618a6.765,6.765,0,0,0,.1-.949c.028-.577.359-.822.89-.6.363.154.066.5.172.745" transform="translate(-114.68 -90.773)" fill="#fdfefe"/>
        <path id="Trazado_131227" data-name="Trazado 131227" d="M92.168,81.09a2.508,2.508,0,0,1,2.142.944c.432.508.611.524,1.118.09a2.2,2.2,0,0,1,3.723,1.9,2.19,2.19,0,0,1-1.943,1.848.71.71,0,0,0-.654.724,1.914,1.914,0,0,1-.83,1.478,1.011,1.011,0,0,0-.119,1.732,1.682,1.682,0,0,1,.521,1.593,1.637,1.637,0,0,1-1.312,1.332,1.6,1.6,0,0,1-1.708-.63,1.55,1.55,0,0,1-.145-1.808c.323-.574.22-1.256.548-1.824.095-.164-.057-.361-.2-.5a2.051,2.051,0,0,1-.674-1.334c-.041-.424-.288-.592-.7-.675a2.445,2.445,0,0,1-1.446-4c.466-.6.41-.833-.286-1.13a.822.822,0,0,1-.561-.986c.1-.531-.129-.751-.646-.831a2.292,2.292,0,0,1-2.036-3.182.645.645,0,0,0-.488-.941,2.312,2.312,0,0,1-.159-4.444c.486-.179.532-.514.556-.929a2.3,2.3,0,0,1,4.376-.873,2.245,2.245,0,0,1-.317,2.492c-.581.72-.462,1.066.438,1.2a3.345,3.345,0,0,1,.75.243c.544.214.723.133.939-.427.247-.639.671-.949,1.217-.877a1.079,1.079,0,0,1,.955.771,1.063,1.063,0,0,1-.324,1.226c-.209.181-.4.35-.322.661a.557.557,0,0,0,.482.425c.3.048.459-.159.612-.4a1.031,1.031,0,0,1,1.864.745.965.965,0,0,1-1,.826,1.051,1.051,0,0,0-1.158.558,1.019,1.019,0,0,1-1.586.169c-.457-.42-.743-.235-1.222.011a5.732,5.732,0,0,0-1.894,2.14.565.565,0,0,0,.141.916.836.836,0,0,1,.414.809c-.062,1.008-.056,1.009.937.958" transform="translate(-65.594 -58.207)" fill="#29c4bb"/>
      </g>
    </g>
  </g>
</svg>
