<svg xmlns="http://www.w3.org/2000/svg" xmlns:xlink="http://www.w3.org/1999/xlink" width="99" height="99" viewBox="0 0 99 99">
  <defs>
    <clipPath id="clip-path">
      <rect id="Rectángulo_37904" data-name="Rectángulo 37904" width="59.651" height="55.805" fill="none"/>
    </clipPath>
  </defs>
  <g id="Grupo_158654" data-name="Grupo 158654" transform="translate(-1171 -3789)">
    <circle id="Elipse_4760" data-name="Elipse 4760" cx="49.5" cy="49.5" r="49.5" transform="translate(1171 3789)" fill="#1169e3"/>
    <g id="Grupo_158079" data-name="Grupo 158079" transform="translate(1191 3811)">
      <g id="Grupo_158079-2" data-name="Grupo 158079" transform="translate(0 0)" clip-path="url(#clip-path)">
        <path id="Trazado_132098" data-name="Trazado 132098" d="M59.551,45.605a11.519,11.519,0,0,1-22.734.981c-.107-.507-.4-.4-.694-.4q-12.265,0-24.53,0c-2.184,0-4.369,0-6.553,0A4.809,4.809,0,0,1,0,41.169Q0,23.1,0,5.036A4.807,4.807,0,0,1,5.02,0Q6.733,0,8.447,0C9.271.008,9.618.35,9.62,1.17c.005,1.964.021,3.929-.011,5.892-.009.513.1.654.639.653q17.5-.028,34.991-.014h11c1.241,0,1.485.239,1.485,1.458q0,14.069-.006,28.137a1.94,1.94,0,0,0,.29,1.068A10.9,10.9,0,0,1,59.546,42.8c.011.094-.014.2.105.254v1.8c-.149.232.009.506-.1.744" transform="translate(0 0)"/>
        <path id="Trazado_132099" data-name="Trazado 132099" d="M115.052,87.436a.939.939,0,0,1,.1-.744v.721l-.044.037Z" transform="translate(-55.501 -41.831)" fill="#5a5a5a"/>
        <path id="Trazado_132100" data-name="Trazado 132100" d="M35.689,52.959c-1.219,0-2.34-.012-3.461.007-.328.006-.382-.142-.435-.417-.387-2-.8-4-1.192-6-.219-1.113-.416-1.283-1.557-1.283-3.307,0-6.614-.01-9.921.012-.451,0-.563-.107-.555-.556.027-1.38.006-1.38,1.4-1.38q4.24,0,8.478,0c1.059,0,1.409-.418,1.205-1.462q-.519-2.65-1.063-5.3c-.148-.714-.436-.937-1.163-.938-2.766,0-5.532-.012-8.3.009-.44,0-.58-.087-.56-.55.041-.94.032-1.884,0-2.825-.012-.391.1-.5.491-.494,2.365.019,4.73.011,7.1.009,1.034,0,1.39-.412,1.2-1.426-.272-1.433-.569-2.862-.866-4.346,1.2,0,2.359.009,3.519-.006.325,0,.326.191.371.417q1.008,5.061,2.028,10.12c.154.767.444,1.012,1.231,1.014q2.435,0,4.87,0c.905,0,1.236-.328,1.237-1.224,0-3.247.01-6.494-.01-9.741,0-.456.093-.6.577-.593,1.357.034,1.357.01,1.357,1.365q0,4.45,0,8.9c0,.986.307,1.293,1.287,1.294q2.586,0,5.171,0c.905,0,1.236-.328,1.237-1.225,0-3.247.01-6.494-.01-9.741,0-.457.095-.6.579-.591,1.356.034,1.356.009,1.356,1.365,0,.461-.006.922,0,1.383.013.767.368,1.11,1.167,1.112,2.626,0,5.252.013,7.877-.01.464,0,.6.106.588.582-.033,1.353-.009,1.354-1.368,1.354q-3.518,0-7.036,0c-.9,0-1.227.326-1.23,1.23q0,1.684,0,3.367c0,.825.346,1.172,1.166,1.173,2.645,0,5.291.012,7.937-.008.415,0,.544.088.528.519-.036.961-.03,1.924,0,2.886.011.371-.088.465-.462.463-2.625-.018-5.251-.01-7.877-.009-.986,0-1.29.305-1.292,1.289,0,1.222-.012,2.445.008,3.667a.673.673,0,0,1-.362.673c-.52.323-1,.7-1.57,1.1V42.84c0-1.158-.262-1.425-1.4-1.425H37.448c-.882,0-1.764,0-2.646,0-.971.005-1.339.469-1.144,1.428q.34,1.676.677,3.352c.148.734.445.989,1.191.99,1.884,0,3.768.011,5.652-.007.373,0,.508.067.506.48-.01,1.452.009,1.452-1.449,1.452-1.283,0-2.566,0-3.848,0-1.015,0-1.381.446-1.186,1.446.152.784.318,1.566.489,2.4" transform="translate(-8.959 -12.549)" fill="#e8edf1"/>
        <path id="Trazado_132101" data-name="Trazado 132101" d="M84.034,66.941A9.62,9.62,0,1,1,74.375,76.6a9.632,9.632,0,0,1,9.659-9.655" transform="translate(-35.888 -32.301)" fill="#ea423f"/>
        <path id="Trazado_132102" data-name="Trazado 132102" d="M3.721,39.321v-.692q0-15.84,0-31.68A2.92,2.92,0,0,1,6.959,3.718c.721,0,1.443.011,2.164-.006.286-.006.409.082.373.373a2.419,2.419,0,0,0,0,.3q0,16.652.013,33.3c0,.555-.146.742-.687.672-.316-.04-.641,0-.961-.009a6.011,6.011,0,0,0-4.138.969" transform="translate(-1.795 -1.791)" fill="#3396e7"/>
        <path id="Trazado_132103" data-name="Trazado 132103" d="M64.759,44.542c-.636-.441-1.206-.834-1.774-1.23-.251-.175-.145-.441-.145-.666q-.008-10.338,0-20.677c0-1.223-.242-1.462-1.48-1.462q-21.037,0-42.074.014c-.585,0-.739-.142-.716-.721.048-1.216.013-1.218,1.226-1.218q22.119,0,44.238-.015c.611,0,.748.15.746.751q-.033,12.291-.014,24.583Z" transform="translate(-8.957 -8.96)" fill="#2978b7"/>
        <path id="Trazado_132104" data-name="Trazado 132104" d="M22.153,80.382q-7.726,0-15.453,0a2.878,2.878,0,0,1-2.748-4,2.947,2.947,0,0,1,1.257-1.41c.331-.2.465-.137.438.261a2.935,2.935,0,0,0,.462,1.891,2.985,2.985,0,0,0,2.663,1.339q14.431-.014,28.862-.005c.876,0,.887,0,.758.848-.053.349.14.841-.15,1.013s-.738.062-1.117.062q-7.486,0-14.972,0" transform="translate(-1.795 -36.123)" fill="#2978b7"/>
        <path id="Trazado_132105" data-name="Trazado 132105" d="M18.975,72.7q-3.334,0-6.668,0a1.262,1.262,0,0,1-1.233-1.769c.082-.239.256-.148.392-.15.781-.01,1.562,0,2.343-.007a.982.982,0,0,0,1.109-1.107c.01-.781.017-1.562,0-2.343-.008-.313.084-.4.4-.4q4.686.016,9.371,0c.32,0,.436.087.5.412q.476,2.5,1.011,5c.1.464-.186.372-.432.372H18.975" transform="translate(-5.299 -32.292)" fill="#6ed1ef"/>
        <path id="Trazado_132106" data-name="Trazado 132106" d="M57.652,59.491c1.783,0,3.565.012,5.348-.009.4-.005.5.105.494.5-.02,2.063-.013,4.126,0,6.189a1.356,1.356,0,0,1-.227.784,7.419,7.419,0,0,0-.855,1.712c-.122.372-.319.462-.694.458q-3.755-.027-7.511,0c-.385,0-.586-.069-.612-.5-.028-.468-.418-1.047-.159-1.353.2-.233.865-.077,1.323-.079,1.222,0,2.444,0,3.665,0,.872,0,1.211-.333,1.216-1.186q.008-1.712,0-3.425c0-.817-.351-1.158-1.179-1.16-1.943,0-3.886-.012-5.828.008-.376,0-.542-.1-.578-.479a5.653,5.653,0,0,0-.2-1c-.107-.381.02-.469.4-.465,1.8.02,3.6.009,5.408.009" transform="translate(-24.998 -28.702)" fill="#6ed1ef"/>
        <path id="Trazado_132107" data-name="Trazado 132107" d="M50.632,30.827c0,1.462-.009,2.925.007,4.387,0,.328-.071.451-.424.442-.941-.024-1.883-.019-2.824,0-.291.005-.422-.077-.482-.378q-.873-4.444-1.777-8.881c-.061-.3.018-.376.316-.374,1.6.012,3.2.016,4.807,0,.343,0,.385.132.382.421-.011,1.462-.005,2.925-.005,4.387" transform="translate(-21.768 -12.555)" fill="#6ed1ef"/>
        <path id="Trazado_132108" data-name="Trazado 132108" d="M66.925,30.771c0-1.421.015-2.842-.01-4.263-.007-.4.106-.5.5-.493.98.028,1.962.024,2.942,0,.349-.008.428.108.426.438q-.018,4.383,0,8.767c0,.342-.1.438-.434.431q-1.5-.032-3,0c-.349.008-.431-.108-.427-.439.017-1.481.007-2.963.007-4.444" transform="translate(-32.288 -12.553)" fill="#6ed1ef"/>
        <path id="Trazado_132109" data-name="Trazado 132109" d="M27.61,52.184h-.929c-2.522,0-5.044-.008-7.566.009-.394,0-.562-.057-.544-.507.038-.959.026-1.921,0-2.881-.008-.347.054-.483.449-.48,2.462.021,4.924.015,7.385,0,.3,0,.449.052.51.4.2,1.139.45,2.271.691,3.458" transform="translate(-8.96 -23.318)" fill="#6ed1ef"/>
        <path id="Trazado_132110" data-name="Trazado 132110" d="M25.3,29.879c-2.165,0-4.284,0-6.4,0-.231,0-.313-.071-.31-.306q.015-1.622,0-3.242c0-.236.08-.307.311-.306q2.672.01,5.344,0c.216,0,.319.066.361.292.221,1.173.457,2.342.7,3.559" transform="translate(-8.969 -12.559)" fill="#6ed1ef"/>
        <path id="Trazado_132111" data-name="Trazado 132111" d="M93.219,62.017c-3.021-.7-3.66-.928-7.7,0,0-.746.008-1.482,0-2.218,0-.239.086-.3.314-.3q3.542.009,7.083,0c.234,0,.312.077.308.309-.011.734,0,1.469,0,2.215" transform="translate(-41.265 -28.707)" fill="#6ed1ef"/>
        <path id="Trazado_132112" data-name="Trazado 132112" d="M89.427,26.027c1.12,0,2.241.012,3.36-.008.338-.006.429.093.435.432.023,1.5.035,1.5-1.459,1.5-1.92,0-3.841-.011-5.761.009-.391,0-.5-.1-.5-.493.006-1.44-.01-1.44,1.4-1.44h2.521" transform="translate(-41.259 -12.555)" fill="#6ed1ef"/>
        <path id="Trazado_132113" data-name="Trazado 132113" d="M89.361,40.9c1.141,0,2.281.011,3.421-.007.331-.005.435.08.44.426.024,1.506.037,1.505-1.454,1.505-1.92,0-3.841-.01-5.762.009-.381,0-.5-.085-.5-.487.006-1.445-.011-1.445,1.456-1.445h2.4" transform="translate(-41.259 -19.732)" fill="#6ed1ef"/>
        <path id="Trazado_132114" data-name="Trazado 132114" d="M86.623,77.106c0-.561-.01-1.122,0-1.683a.962.962,0,1,1,1.917.009c.013,1.062.033,2.125-.009,3.186-.02.5.155.594.606.58,1.021-.031,2.043-.014,3.065-.008.716,0,1.141.363,1.147.95s-.42.966-1.126.971c-1.083.008-2.165.014-3.247-.005-.338-.006-.448.09-.441.436.021,1.082.013,2.165.006,3.247-.005.708-.379,1.135-.966,1.131s-.95-.43-.954-1.142c-.007-1.022-.034-2.046.011-3.066.024-.525-.156-.628-.639-.61-1,.038-2,.016-3.005.01-.75,0-1.189-.376-1.175-.982.012-.584.436-.936,1.156-.939,1.062-.006,2.125-.017,3.186.007.367.008.495-.09.472-.467-.032-.539-.008-1.082-.008-1.623" transform="translate(-39.479 -35.891)"/>
      </g>
    </g>
  </g>
</svg>
