<svg xmlns="http://www.w3.org/2000/svg" xmlns:xlink="http://www.w3.org/1999/xlink" width="69" height="84" viewBox="0 0 69 84">
  <defs>
    <clipPath id="clip-path">
      <rect id="Rectángulo_37913" data-name="Rectángulo 37913" width="29.156" height="54.634" fill="#fff"/>
    </clipPath>
  </defs>
  <g id="Grupo_158655" data-name="Grupo 158655" transform="translate(-826 -4320)">
    <g id="Grupo_157744" data-name="Grupo 157744" transform="translate(503 -6597)">
      <g id="Grupo_156377" data-name="Grupo 156377" transform="translate(323.373 10917.391)">
        <rect id="Rectángulo_36766" data-name="Rectángulo 36766" width="69" height="84" rx="12" transform="translate(-0.373 -0.391)" fill="#1169e3"/>
      </g>
      <g id="Grupo_156647" data-name="Grupo 156647" transform="translate(1)">
        <g id="Grupo_156582" data-name="Grupo 156582" transform="translate(-26 6270)">
          <path id="Trazado_127053" data-name="Trazado 127053" d="M15.507,123.96c-.454.1-.559-.113-.555-.537.012-1.063-.007-1.081-1.106-1.075-.409,0-.536-.124-.528-.529.007-.377.077-.553.512-.551,1.1,0,1.131-.018,1.119-1.119-.005-.5.239-.507.608-.511s.56.058.56.5c0,1.115.023,1.135,1.112,1.131.421,0,.521.15.522.541s-.1.541-.52.539c-1.11-.006-1.137.014-1.112,1.066.012.488-.169.631-.611.545" transform="translate(339.683 4573.993)" fill="#29c4bb"/>
          <path id="Trazado_127054" data-name="Trazado 127054" d="M213.642,151.161c.406-.078.632.057.565.517-.056.385.077.6.5.533s.57.088.573.537c0,.47-.189.578-.589.525-.383-.052-.5.115-.5.5.012.6-.357.826-.934.645-.274-.086-.214-.3-.2-.477.048-.472-.06-.76-.616-.666-.431.073-.457-.2-.456-.527s.014-.6.451-.53c.471.073.694-.1.616-.6-.075-.475.23-.5.582-.454" transform="translate(195.806 4552.685)" fill="#29c4bb"/>
          <path id="Trazado_127055" data-name="Trazado 127055" d="M210.718,69.268c.1.453-.1.608-.527.537-.46-.078-.648.111-.567.569s-.113.548-.542.553-.609-.127-.532-.557c.082-.459-.109-.648-.565-.562-.472.089-.513-.158-.531-.555-.021-.466.16-.588.566-.517.441.077.606-.106.531-.537-.072-.412.061-.579.521-.563.4.014.639.072.552.536s.115.639.567.563c.425-.072.632.081.526.534" transform="translate(199.254 4608.526)" fill="#010000"/>
          <path id="Trazado_127056" data-name="Trazado 127056" d="M55.04,186.64c.1.423-.11.578-.532.5-.5-.09-.614.169-.543.587.079.465-.146.537-.555.535-.39,0-.6-.091-.518-.511.108-.553-.169-.688-.645-.607s-.466-.225-.467-.559.007-.6.448-.512c.593.117.745-.168.665-.7-.077-.508.311-.362.569-.377.274-.016.579-.052.5.389-.1.545.092.8.67.687.482-.092.423.243.409.566" transform="translate(311.829 4530.025)" fill="#010000"/>
          <path id="Trazado_127057" data-name="Trazado 127057" d="M121.786,17.426c-.114-.483.153-.577.548-.518.41.061.572-.109.509-.513s.058-.588.522-.578c.427.009.623.119.548.558s.131.6.553.533c.391-.059.587.035.589.513s-.182.62-.608.553c-.45-.072-.6.133-.533.553.078.472-.175.526-.572.534-.424.009-.562-.151-.5-.54.068-.427-.09-.622-.535-.547s-.62-.106-.523-.547" transform="translate(261.153 4643.184)" fill="#29c4bb"/>
        </g>
      </g>
    </g>
    <g id="Grupo_158092" data-name="Grupo 158092" transform="translate(-4.081 3.318)">
      <g id="Grupo_158091" data-name="Grupo 158091" transform="translate(850.081 4331.682)">
        <g id="Grupo_158090" data-name="Grupo 158090" clip-path="url(#clip-path)">
          <path id="Unión_27" data-name="Unión 27" d="M-6510.345,7422.623a4.556,4.556,0,0,1-4.65-4.726c0-.106,0-.214,0-.32q0-22.268-.005-44.539a4.606,4.606,0,0,1,1.893-4.123,11.8,11.8,0,0,1,2.122-.915h21.13a12.042,12.042,0,0,1,2.12.915,4.5,4.5,0,0,1,1.891,4.016c-.009,3.733,0,7.468,0,11.2q0,16.749,0,33.5a4.764,4.764,0,0,1-1.822,4.061,4.545,4.545,0,0,1-2.831.935q-5.7,0-11.406.01Q-6506.127,7422.636-6510.345,7422.623Zm6.274-1.811h0a5.043,5.043,0,0,1-.893-2.72A5.056,5.056,0,0,0-6504.071,7420.812Zm.924-2.774a2.75,2.75,0,0,0,2.727,2.77,2.751,2.751,0,0,0,2.726-2.72,2.724,2.724,0,0,0-2.7-2.727h-.021A2.718,2.718,0,0,0-6503.147,7418.038Zm6.384,2.765h0a5.794,5.794,0,0,0,.711-1.54A5.8,5.8,0,0,1-6496.763,7420.8Zm6.483-.013a2.468,2.468,0,0,0,2.325-1.537A2.47,2.47,0,0,1-6490.28,7420.79Zm2.61-5.417h0Zm-25.471-1.841h8.055q8.4,0,16.8.013c.5,0,.617-.153.615-.63q-.016-17.148-.009-34.3c0-.186-.019-.373-.028-.557h-25.437Zm.043-37.359h25.422c0-.528,0-1.044,0-1.556,0,.511,0,1.026,0,1.554H-6513.1c0-.848-.033-1.689-.034-2.523C-6513.131,7374.481-6513.1,7375.323-6513.1,7376.173Zm17.281-1.826h1.75v-1.753h-1.75Zm-10.957-.006h9.061V7372.6h-9.061Zm19.1-.641Zm-.082-1.755a8.365,8.365,0,0,1,.08,1.532,8.516,8.516,0,0,0-.078-1.53,2.5,2.5,0,0,0-.38-.937A2.5,2.5,0,0,1-6487.76,7371.946Zm-23.038-2.09a3.2,3.2,0,0,0-.32.064,3.2,3.2,0,0,1,.32-.064Zm20.112-.038h0Z" transform="translate(6515 -7368)" fill="#fff" stroke="rgba(0,0,0,0)" stroke-miterlimit="10" stroke-width="1"/>
          <path id="Unión_25" data-name="Unión 25" d="M-6499.5,7388.013v-.021c-.694,0-1.387.037-2.077-.005a2.578,2.578,0,0,1-2.424-2.4c-.063-1.364-.07-2.735-.011-4.1a2.607,2.607,0,0,1,2.575-2.549c1.294-.052,2.594-.054,3.888,0a2.681,2.681,0,0,1,2.6,2.714q.056,1.811,0,3.623a2.69,2.69,0,0,1-2.69,2.731c-.237.011-.473.015-.71.015C-6498.729,7388.022-6499.113,7388.013-6499.5,7388.013Zm-1.054-1.814h0Zm-.269,0c-.149,0-.3,0-.448-.01C-6501.119,7386.194-6500.969,7386.2-6500.82,7386.2Zm1.312,0v0Zm1.765-5.452a.911.911,0,0,1,.981.974q.019.879.019,1.759,0-.88-.019-1.761a.909.909,0,0,0-.981-.972c-1.174-.022-2.346-.024-3.519,0a.876.876,0,0,0-.944.938q-.017.893-.017,1.786,0-.893.017-1.786a.876.876,0,0,1,.944-.938q.88-.019,1.759-.019T-6497.743,7380.745Zm-14.548,7.263a2.681,2.681,0,0,1-2.677-2.689c-.043-1.224-.041-2.451,0-3.675a2.716,2.716,0,0,1,2.77-2.72c1.188-.024,2.379-.026,3.569,0a2.653,2.653,0,0,1,2.731,2.624c.058,1.329.048,2.664-.015,3.992a2.58,2.58,0,0,1-2.49,2.451c-.671.041-1.348.007-2.023.007v.011c-.4,0-.791.011-1.187.011C-6511.84,7388.022-6512.066,7388.019-6512.291,7388.008Zm.119-1.817q1.733.025,3.467,0a.985.985,0,0,0,.785-.3.984.984,0,0,1-.785.3q-1.733.025-3.465,0a.891.891,0,0,1-.981-.958A.892.892,0,0,0-6512.172,7386.19Zm.007-5.446a.91.91,0,0,0-.986.968q-.019.879-.02,1.758,0-.879.02-1.758a.91.91,0,0,1,.986-.968Zm4.467,2.706Zm0-1.6Zm-1-1.107.06,0-.06,0Zm-3.7-3.664a2.668,2.668,0,0,1-2.572-2.685c-.043-1.224-.041-2.451,0-3.675a2.691,2.691,0,0,1,2.716-2.707c.621-.024,1.242,0,1.863,0v.011c.658,0,1.316-.028,1.971.007a2.586,2.586,0,0,1,2.5,2.438c.063,1.363.067,2.733.006,4.1a2.594,2.594,0,0,1-2.546,2.518q-.983.037-1.97.038T-6512.4,7377.079Zm4.419-2.051a1.072,1.072,0,0,0,.275-.763A1.08,1.08,0,0,1-6507.978,7375.028Zm.279-2.469c0,.569.013,1.139,0,1.706.019-.567,0-1.137,0-1.706Zm-4.433-2.729a.91.91,0,0,0-1.022.975q-.019.866-.018,1.733,0-.866.018-1.733a.91.91,0,0,1,1.022-.975q.853-.01,1.706-.01h0Q-6511.279,7369.82-6512.131,7369.83Zm3.412,0c.684.009,1,.33,1.018,1.025,0,.041,0,.083,0,.124,0-.042,0-.083,0-.125-.018-.693-.333-1.014-1.018-1.023Zm7.476,7.266a2.657,2.657,0,0,1-2.771-2.636c-.058-1.33-.048-2.665.017-3.992a2.586,2.586,0,0,1,2.5-2.44c.673-.035,1.35-.007,2.023-.007v-.011c.6,0,1.209-.021,1.813,0a2.68,2.68,0,0,1,2.711,2.653c.052,1.259.054,2.523,0,3.78a2.7,2.7,0,0,1-2.778,2.651q-.879.014-1.758.014T-6501.244,7377.1Zm1.723-1.805h0Zm.222,0,.444,0Zm-.926,0q-.494,0-.987-.011Q-6500.719,7375.285-6500.226,7375.288Zm-1.99-2.767Zm1-2.692a.9.9,0,0,0-1,.986c-.007.213-.01.426-.01.639,0-.213,0-.426.01-.639a.9.9,0,0,1,1-.986q1.733-.02,3.465,0a.929.929,0,0,1,.839.4.927.927,0,0,0-.839-.4q-.866-.013-1.733-.012T-6501.21,7369.83Z" transform="translate(6519.536 -7349.786)" fill="#fff" stroke="rgba(0,0,0,0)" stroke-miterlimit="10" stroke-width="1"/>
          <path id="Trazado_132384" data-name="Trazado 132384" d="M10.464,30.066c0,.6.031,1.239-.011,1.873a.766.766,0,0,1-.739.717.813.813,0,0,1-.891-.44,1.157,1.157,0,0,1-.125-.507c-.013-.853-.022-1.707,0-2.56a.916.916,0,0,1,1.043-1q1.227-.016,2.454,0c.641.009,1.028.365,1.025.91s-.395.886-1.038.9c-.515.013-1.031.01-1.547.016a1.059,1.059,0,0,0-.17.093" transform="translate(-5.032 -16.302)" fill="#fff"/>
          <path id="Trazado_132385" data-name="Trazado 132385" d="M25.715,28.154c.3,0,.606-.02.906,0a.871.871,0,0,1,.849.858.859.859,0,0,1-.829.928,17.766,17.766,0,0,1-1.917,0,.886.886,0,0,1-.86-.911.9.9,0,0,1,.893-.882c.318-.022.639,0,.959,0Z" transform="translate(-13.826 -16.307)" fill="#fff"/>
        </g>
      </g>
    </g>
  </g>
</svg>
