<svg xmlns="http://www.w3.org/2000/svg" width="85.523" height="37.622" viewBox="0 0 85.523 37.622">
  <g id="Grupo_157906" data-name="Grupo 157906" transform="translate(-179.477 -4430.001)">
    <path id="Trazado_99257" data-name="Trazado 99257" d="M418.688,104.917a2.239,2.239,0,1,1-2.238-2.138A2.19,2.19,0,0,1,418.688,104.917Z" transform="translate(-234.737 4327.222)" fill="#1169e3"/>
    <path id="Trazado_116526" data-name="Trazado 116526" d="M418.688,104.917a2.239,2.239,0,1,1-2.238-2.138A2.19,2.19,0,0,1,418.688,104.917Z" transform="translate(-184.081 4327.222)" fill="#1169e3"/>
    <path id="Trazado_99258" data-name="Trazado 99258" d="M427.134,104.917a2.239,2.239,0,1,1-2.236-2.138A2.189,2.189,0,0,1,427.134,104.917Z" transform="translate(-233.052 4327.222)" fill="#1169e3"/>
    <path id="Trazado_116527" data-name="Trazado 116527" d="M427.134,104.917a2.239,2.239,0,1,1-2.236-2.138A2.189,2.189,0,0,1,427.134,104.917Z" transform="translate(-182.396 4327.222)" fill="#1169e3"/>
    <path id="Trazado_99259" data-name="Trazado 99259" d="M435.58,104.917a2.239,2.239,0,1,1-2.236-2.138A2.189,2.189,0,0,1,435.58,104.917Z" transform="translate(-231.367 4327.222)" fill="#1169e3"/>
    <path id="Trazado_116531" data-name="Trazado 116531" d="M435.58,104.917a2.239,2.239,0,1,1-2.236-2.138A2.189,2.189,0,0,1,435.58,104.917Z" transform="translate(-180.711 4327.222)" fill="#1169e3"/>
    <path id="Trazado_99260" data-name="Trazado 99260" d="M444.027,104.917a2.239,2.239,0,1,1-2.238-2.138A2.19,2.19,0,0,1,444.027,104.917Z" transform="translate(-229.683 4327.222)" fill="#1169e3"/>
    <path id="Trazado_116532" data-name="Trazado 116532" d="M444.027,104.917a2.239,2.239,0,1,1-2.238-2.138A2.19,2.19,0,0,1,444.027,104.917Z" transform="translate(-179.027 4327.222)" fill="#1169e3"/>
    <path id="Trazado_99261" data-name="Trazado 99261" d="M452.473,104.917a2.239,2.239,0,1,1-2.236-2.138A2.189,2.189,0,0,1,452.473,104.917Z" transform="translate(-227.997 4327.222)" fill="#1169e3"/>
    <ellipse id="Elipse_3975" data-name="Elipse 3975" cx="2.237" cy="2.139" rx="2.237" ry="2.139" transform="translate(179.477 4441.114)" fill="#1169e3"/>
    <ellipse id="Elipse_4742" data-name="Elipse 4742" cx="2.237" cy="2.139" rx="2.237" ry="2.139" transform="translate(230.133 4441.114)" fill="#1169e3"/>
    <path id="Trazado_99268" data-name="Trazado 99268" d="M427.134,112.425a2.239,2.239,0,1,1-2.236-2.138A2.19,2.19,0,0,1,427.134,112.425Z" transform="translate(-233.052 4330.826)" fill="#1169e3"/>
    <path id="Trazado_116528" data-name="Trazado 116528" d="M427.134,112.425a2.239,2.239,0,1,1-2.236-2.138A2.19,2.19,0,0,1,427.134,112.425Z" transform="translate(-182.396 4330.826)" fill="#1169e3"/>
    <ellipse id="Elipse_3976" data-name="Elipse 3976" cx="2.237" cy="2.139" rx="2.237" ry="2.139" transform="translate(199.739 4441.114)" fill="#1169e3"/>
    <ellipse id="Elipse_4743" data-name="Elipse 4743" cx="2.237" cy="2.139" rx="2.237" ry="2.139" transform="translate(250.395 4441.114)" fill="#1169e3"/>
    <path id="Trazado_99269" data-name="Trazado 99269" d="M444.027,112.425a2.239,2.239,0,1,1-2.238-2.138A2.191,2.191,0,0,1,444.027,112.425Z" transform="translate(-229.683 4330.826)" fill="#1169e3"/>
    <path id="Trazado_116533" data-name="Trazado 116533" d="M444.027,112.425a2.239,2.239,0,1,1-2.238-2.138A2.191,2.191,0,0,1,444.027,112.425Z" transform="translate(-179.027 4330.826)" fill="#1169e3"/>
    <path id="Trazado_99270" data-name="Trazado 99270" d="M452.473,112.425a2.239,2.239,0,1,1-2.236-2.138A2.19,2.19,0,0,1,452.473,112.425Z" transform="translate(-227.997 4330.826)" fill="#1169e3"/>
    <path id="Trazado_99274" data-name="Trazado 99274" d="M418.688,119.934a2.239,2.239,0,1,1-2.238-2.14A2.191,2.191,0,0,1,418.688,119.934Z" transform="translate(-234.737 4334.433)" fill="#1169e3"/>
    <path id="Trazado_116529" data-name="Trazado 116529" d="M418.688,119.934a2.239,2.239,0,1,1-2.238-2.14A2.191,2.191,0,0,1,418.688,119.934Z" transform="translate(-184.081 4334.433)" fill="#1169e3"/>
    <path id="Trazado_99275" data-name="Trazado 99275" d="M427.134,119.934a2.239,2.239,0,1,1-2.236-2.14A2.19,2.19,0,0,1,427.134,119.934Z" transform="translate(-233.052 4334.433)" fill="#1169e3"/>
    <path id="Trazado_116530" data-name="Trazado 116530" d="M427.134,119.934a2.239,2.239,0,1,1-2.236-2.14A2.19,2.19,0,0,1,427.134,119.934Z" transform="translate(-182.396 4334.433)" fill="#1169e3"/>
    <path id="Trazado_99276" data-name="Trazado 99276" d="M435.58,119.934a2.239,2.239,0,1,1-2.236-2.14A2.191,2.191,0,0,1,435.58,119.934Z" transform="translate(-231.367 4334.433)" fill="#1169e3"/>
    <path id="Trazado_116534" data-name="Trazado 116534" d="M435.58,119.934a2.239,2.239,0,1,1-2.236-2.14A2.191,2.191,0,0,1,435.58,119.934Z" transform="translate(-180.711 4334.433)" fill="#1169e3"/>
    <path id="Trazado_99277" data-name="Trazado 99277" d="M444.027,119.934a2.239,2.239,0,1,1-2.238-2.14A2.191,2.191,0,0,1,444.027,119.934Z" transform="translate(-229.683 4334.433)" fill="#1169e3"/>
    <path id="Trazado_116535" data-name="Trazado 116535" d="M444.027,119.934a2.239,2.239,0,1,1-2.238-2.14A2.191,2.191,0,0,1,444.027,119.934Z" transform="translate(-179.027 4334.433)" fill="#1169e3"/>
    <path id="Trazado_99278" data-name="Trazado 99278" d="M452.473,119.934a2.239,2.239,0,1,1-2.236-2.14A2.19,2.19,0,0,1,452.473,119.934Z" transform="translate(-227.997 4334.433)" fill="#1169e3"/>
    <ellipse id="Elipse_3980" data-name="Elipse 3980" cx="2.237" cy="2.139" rx="2.237" ry="2.139" transform="translate(179.477 4463.344)" fill="#1169e3"/>
    <ellipse id="Elipse_4744" data-name="Elipse 4744" cx="2.237" cy="2.139" rx="2.237" ry="2.139" transform="translate(230.133 4463.344)" fill="#1169e3"/>
    <path id="Trazado_99285" data-name="Trazado 99285" d="M427.134,127.442a2.239,2.239,0,1,1-2.236-2.14A2.189,2.189,0,0,1,427.134,127.442Z" transform="translate(-233.052 4338.04)" fill="#1169e3"/>
    <path id="Trazado_116536" data-name="Trazado 116536" d="M427.134,127.442a2.239,2.239,0,1,1-2.236-2.14A2.189,2.189,0,0,1,427.134,127.442Z" transform="translate(-182.396 4338.04)" fill="#1169e3"/>
    <ellipse id="Elipse_3981" data-name="Elipse 3981" cx="2.237" cy="2.139" rx="2.237" ry="2.139" transform="translate(199.739 4463.344)" fill="#1169e3"/>
    <ellipse id="Elipse_4745" data-name="Elipse 4745" cx="2.237" cy="2.139" rx="2.237" ry="2.139" transform="translate(250.395 4463.344)" fill="#1169e3"/>
    <path id="Trazado_99286" data-name="Trazado 99286" d="M444.027,127.442a2.239,2.239,0,1,1-2.238-2.14A2.189,2.189,0,0,1,444.027,127.442Z" transform="translate(-229.683 4338.04)" fill="#1169e3"/>
    <path id="Trazado_116537" data-name="Trazado 116537" d="M444.027,127.442a2.239,2.239,0,1,1-2.238-2.14A2.189,2.189,0,0,1,444.027,127.442Z" transform="translate(-179.027 4338.04)" fill="#1169e3"/>
    <path id="Trazado_99287" data-name="Trazado 99287" d="M452.473,127.442a2.239,2.239,0,1,1-2.236-2.14A2.189,2.189,0,0,1,452.473,127.442Z" transform="translate(-227.997 4338.04)" fill="#1169e3"/>
  </g>
</svg>
