<svg xmlns="http://www.w3.org/2000/svg" xmlns:xlink="http://www.w3.org/1999/xlink" width="84" height="102" viewBox="0 0 84 102">
  <defs>
    <clipPath id="clip-path">
      <rect id="Rect치ngulo_37871" data-name="Rect치ngulo 37871" width="51.217" height="55.231" fill="none"/>
    </clipPath>
  </defs>
  <g id="Grupo_158654" data-name="Grupo 158654" transform="translate(-810 -4590)">
    <rect id="Rect치ngulo_37870" data-name="Rect치ngulo 37870" width="84" height="102" rx="12" transform="translate(810 4590)" fill="#1169e3"/>
    <g id="Grupo_158012" data-name="Grupo 158012" transform="translate(629 3.184)">
      <g id="Grupo_158008" data-name="Grupo 158008" transform="translate(192 4608.816)">
        <path id="Trazado_131261" data-name="Trazado 131261" d="M15.945,119.667c-.545-.121-.671.135-.666.644.014,1.275-.008,1.3-1.328,1.29-.491,0-.644.149-.634.635.009.453.092.663.614.661,1.324,0,1.358.022,1.343,1.343-.006.6.287.609.73.613s.673-.069.673-.6c0-1.338.027-1.362,1.334-1.357.506,0,.625-.18.626-.65s-.118-.649-.624-.647c-1.332.008-1.364-.017-1.335-1.279.014-.586-.2-.757-.734-.654" transform="translate(-13.318 -99.758)" fill="#29c4bb"/>
        <path id="Trazado_131262" data-name="Trazado 131262" d="M213.972,155.115c.488.093.758-.068.677-.62-.067-.462.092-.719.6-.64s.683-.106.688-.644c0-.564-.226-.694-.707-.629-.459.062-.6-.138-.6-.595.014-.716-.429-.991-1.121-.774-.329.1-.257.365-.236.573.057.566-.072.912-.74.8-.517-.088-.549.236-.547.633s.017.718.541.636c.565-.087.833.119.739.716-.09.571.276.6.7.545" transform="translate(-154.597 -140.201)" fill="#29c4bb"/>
        <path id="Trazado_131263" data-name="Trazado 131263" d="M211.371,69.623c.126-.544-.123-.73-.633-.644-.552.093-.778-.133-.68-.682.094-.531-.135-.658-.65-.663-.531,0-.731.152-.638.669.1.55-.131.777-.677.675-.566-.106-.616.19-.637.666-.025.559.192.705.679.62.53-.092.727.127.637.644-.086.495.074.7.625.675.486-.017.767-.086.663-.643s.138-.767.681-.675c.51.086.759-.1.632-.641" transform="translate(-151.369 -29.462)" fill="#010000"/>
        <path id="Trazado_131264" data-name="Trazado 131264" d="M55.692,186.938c.119-.508-.131-.694-.639-.6-.6.108-.737-.2-.651-.7.095-.558-.176-.645-.666-.642-.469,0-.72.109-.622.614.129.663-.2.826-.774.728-.586-.1-.559.27-.561.671s.008.719.538.614c.712-.141.894.2.8.838-.092.61.373.434.683.453.329.02.7.062.6-.467-.118-.654.111-.958.8-.825.578.111.507-.292.49-.679" transform="translate(-40.668 -184.989)" fill="#010000"/>
        <path id="Trazado_131265" data-name="Trazado 131265" d="M121.791,17.778c-.136.579.184.692.658.622.493-.073.686.131.611.616s.069.705.627.694c.513-.01.747-.143.658-.67s.158-.716.664-.64c.469.07.7-.042.707-.615s-.218-.744-.73-.663c-.541.086-.724-.16-.64-.664.094-.566-.21-.631-.686-.641-.509-.01-.675.181-.6.648.082.512-.107.746-.642.656s-.744.127-.628.657" transform="translate(-90.431 39.277)" fill="#29c4bb"/>
      </g>
      <g id="Grupo_158013" data-name="Grupo 158013" transform="translate(197 4609.816)">
        <g id="Grupo_158013-2" data-name="Grupo 158013" clip-path="url(#clip-path)">
          <path id="Trazado_131290" data-name="Trazado 131290" d="M85.559,0a6.994,6.994,0,0,0,1.658.253c5.2.821,8.488,3.931,10.29,8.721a13.008,13.008,0,0,1,.467,8.4A6.974,6.974,0,0,1,96.7,19.766a3.99,3.99,0,0,1,2.349,2.586,5.031,5.031,0,0,1-3.873,6.1,1.582,1.582,0,0,0-1.24.935,22.336,22.336,0,0,1-5.241,6.3c-.2.167-.367.3-.324.611q.217,1.574.379,3.155a.441.441,0,0,0,.372.435c.62.177,1.239.361,1.853.558a.4.4,0,0,0,.539-.138,2.014,2.014,0,0,1,2.276-.682c1.309.378,2.622.746,3.911,1.186a9.933,9.933,0,0,1,6.966,8.379c.255,1.54.544,3.074.818,4.61.007.035.017.07.024.105.129.727-.05,1.15-.543,1.284s-.843-.165-1.064-.87a5.08,5.08,0,0,1-.437-1.812c-.221-1.182-.411-2.37-.648-3.548a8.064,8.064,0,0,0-5.66-6.463c-1.089-.367-2.192-.692-3.3-1.014-.94-.275-1.095-.15-1.136.849,0,.072,0,.143,0,.216q-.154,1.813-.464,3.6a1.049,1.049,0,0,1-1.135.967c-.653-.312-.821-.557-.742-1.261.108-.963.265-1.92.382-2.883.078-.636.031-.724-.593-.935q-.127-.043-.257-.082c-.741-.224-.741-.224-1.072.473a1.015,1.015,0,0,1-.136.166c-1.028,2.7-3.159,3.867-5.87,4.2-.41.05-.527.158-.523.572.022,2.209.01,4.419.01,6.628a3.144,3.144,0,0,1-.01.484.8.8,0,0,1-1.6.007,2.622,2.622,0,0,1-.009-.43q0-22.5,0-44.993c0-.75.122-.932.735-1.114a.786.786,0,0,1,1,.734,6.178,6.178,0,0,1,.033,1.075c0,.718.014,1.436,0,2.153a.583.583,0,0,0,.576.682,25.475,25.475,0,0,0,3.644.3,10.682,10.682,0,0,1,3.656.561,8.047,8.047,0,0,1,4.493,3.887c.166.375.289.768.448,1.175.252-.074.336-.282.442-.454a6.115,6.115,0,0,0,.9-2.909,12.957,12.957,0,0,0-4.077-10.6,8.335,8.335,0,0,0-3.664-2.09,18.91,18.91,0,0,0-5.9-.693c-.371,0-.507.175-.507.526,0,.752,0,1.5,0,2.256a2.331,2.331,0,0,1-.048.587.782.782,0,0,1-1.1.59.788.788,0,0,1-.633-.866c0-1.16,0-2.321,0-3.481A1.545,1.545,0,0,1,81.674,0h.54a10.391,10.391,0,0,0,1.666.056c.236-.026.48.057.709-.056h.432a.14.14,0,0,0,.216,0Z" transform="translate(-54.331)"/>
          <path id="Trazado_131291" data-name="Trazado 131291" d="M87.069.1A5.531,5.531,0,0,1,85.335,0h1.727c.034.02.046.042.037.065s-.02.036-.03.036" transform="translate(-57.452)" fill="#111"/>
          <path id="Trazado_131292" data-name="Trazado 131292" d="M90.628.1c0-.034-.006-.067-.007-.1h.648c-.186.207-.427.069-.641.1" transform="translate(-61.011)" fill="#2b2b2b"/>
          <path id="Trazado_131293" data-name="Trazado 131293" d="M94.14,0c-.072.158-.144.141-.216,0Z" transform="translate(-63.235)" fill="#818181"/>
          <path id="Trazado_131294" data-name="Trazado 131294" d="M8.016,9.724c-.672-.339-.812-.691-.482-1.331a8.147,8.147,0,0,1,7.487-4.842,4.412,4.412,0,0,1,1.647.224.926.926,0,0,0,1.077-.284A12.655,12.655,0,0,1,22.788.6a1.375,1.375,0,0,1,1.964,1.439q0,26.222.006,52.445c0,.5-.108.915-.638,1.042-.509.122-.806-.182-.995-.619a1.13,1.13,0,0,1-.141-.776c0-2.043,0-4.087,0-6.13,0-.641-.005-.636-.625-.744A7.467,7.467,0,0,1,18,45.1a5.612,5.612,0,0,1-1.3-2.262c-.224-.737-.217-.74-.972-.527-1.178.355-1,.291-.851,1.319a51.538,51.538,0,0,0,2.728,10.348,1.164,1.164,0,0,1,.038,1.035c-.535.775-1.122.734-1.619-.115a1.127,1.127,0,0,1-.351-.594A53.441,53.441,0,0,1,12.87,43.142c-.039-.321-.034-.644-.087-.966-.068-.416-.291-.537-.685-.454a13.74,13.74,0,0,0-1.45.421A19.024,19.024,0,0,0,6.8,43.528a8.308,8.308,0,0,0-4.14,6.181c-.238,1.508-.535,3.006-.8,4.51a.843.843,0,0,1-.212.54c-.028.066-.06.13-.083.2a.753.753,0,0,1-.959.563.754.754,0,0,1-.59-.945c.274-1.591.572-3.178.835-4.77a12.2,12.2,0,0,1,1.055-3.595,10,10,0,0,1,6-5.08c1.24-.415,2.507-.75,3.759-1.132a2.074,2.074,0,0,1,2.416.685.372.372,0,0,0,.5.131c.612-.2,1.231-.392,1.854-.556a.431.431,0,0,0,.375-.434q.172-1.58.381-3.155a.51.51,0,0,0-.23-.5c-.527-.461-1.053-.924-1.559-1.409-.532-.51-.526-.864-.024-1.425.439-.335.753-.318,1.226.117.542.5,1.047,1.033,1.633,1.487a11.414,11.414,0,0,0,3.979,2.1c.68.185.764.122.767-.563,0-.952-.009-1.9.006-2.856a.51.51,0,0,0-.507-.606,3.5,3.5,0,0,1-2.453-1.509.906.906,0,0,1,0-1.233.963.963,0,0,1,1.134-.217,1.529,1.529,0,0,1,.483.422,1.831,1.831,0,0,0,.9.563c.27.075.42-.018.427-.305q.017-.754,0-1.508c-.008-.3-.218-.382-.452-.455a1.1,1.1,0,0,1-.693-.475.915.915,0,0,1,.6-1.4c.531-.074.563-.336.562-.756q-.01-5.684,0-11.368a.627.627,0,0,0-.44-.745A17.451,17.451,0,0,1,20.1,12.719c-.359-.259-.718-.519-1.064-.8-.686-.537-.682-.535-1.036.26a8.567,8.567,0,0,1-3.423,3.967,5.1,5.1,0,0,0-2.635,4.788,26.325,26.325,0,0,0,.072,3.166,22.556,22.556,0,0,0,.21,2.247,9.131,9.131,0,0,0,1.489,3.6,4.4,4.4,0,0,1,.484.775c.14.343.225.695-.15.966-.632.438-1,.377-1.446-.246A12.727,12.727,0,0,1,11.3,29.283a.62.62,0,0,0-.542-.409A5.086,5.086,0,0,1,6.39,23.331,3.785,3.785,0,0,1,8.138,20.5c.166-.113.34-.163.13-.428a9.892,9.892,0,0,1-1.908-6.311c0-.359.021-.718.044-1.077.04-.627.3-.866.96-.895.544.083.745.28.785.829.038.519.018,1.041.012,1.561a8.387,8.387,0,0,0,1.025,4.135,2.911,2.911,0,0,0,.861,1c.17-.067.151-.213.175-.325a6.431,6.431,0,0,1,3.2-4.336,8.129,8.129,0,0,0,3.47-4.881.992.992,0,0,0,.044-.426C16.811,8.219,16.694,7.1,16.6,5.97c-.031-.381-.306-.5-.626-.557a6.013,6.013,0,0,0-4.15.759,6.968,6.968,0,0,0-2.7,2.934c-.33.642-.588.772-1.114.619" transform="translate(0 -0.336)"/>
          <path id="Trazado_131295" data-name="Trazado 131295" d="M47.477,37.9q.007,6.116.014,12.232a.794.794,0,0,1-.032.156,2.322,2.322,0,0,0-.586-.062.748.748,0,0,0-.7.706.7.7,0,0,0,.57.85c.745.076.807.5.754,1.09a8.044,8.044,0,0,0,0,1.292c.025.348-.131.391-.409.332a2.081,2.081,0,0,1-1.265-.754c-.39-.5-.858-.6-1.245-.293-.4.316-.418.773-.034,1.284a3.419,3.419,0,0,0,2.575,1.381c.306.024.382.115.378.408-.015,1.221-.029,2.444.006,3.664.012.438-.193.41-.477.353A10.137,10.137,0,0,1,43.185,58.8a15.918,15.918,0,0,1-2.29-1.959.938.938,0,0,0-1.16-.273A11.782,11.782,0,0,0,38.4,54.921a1.033,1.033,0,0,0-.157-1.232,9.819,9.819,0,0,1-2-6.363,13.7,13.7,0,0,1-.008-2.626,6.09,6.09,0,0,1,1.007-2.238,7.06,7.06,0,0,1,2.354-2.6,7.256,7.256,0,0,0,2.708-3.654c.106-.266.189-.542.32-.8.191-.373.465-.54.875-.315l.976.722a17.956,17.956,0,0,0,2.151,1.463c.3.182.66.282.844.621" transform="translate(-24.36 -23.561)" fill="#f1d0a4"/>
          <path id="Trazado_131296" data-name="Trazado 131296" d="M5.049,139.227a50.5,50.5,0,0,1,1.25-6.648,8.069,8.069,0,0,1,5.568-5.461c1.191-.392,2.4-.734,3.6-1.089.557-.164.788-.047.836.477a51.124,51.124,0,0,0,3.111,12.755.455.455,0,0,1,.013.107q-6.851.005-13.7.013a1.882,1.882,0,0,1-.677-.153" transform="translate(-3.399 -84.803)" fill="#f4dd46"/>
          <path id="Trazado_131297" data-name="Trazado 131297" d="M96.061,20.8a8.1,8.1,0,0,0-6.815-4.33,40.574,40.574,0,0,1-4.985-.4c-.45-.093-.667-.222-.643-.741.048-1.021.019-2.046.012-3.069,0-.65-.236-.9-.882-.974a4.549,4.549,0,0,0-.1-2.218c.75-.015.983-.251.985-1.01,0-.916,0-1.832,0-2.749,0-.18-.028-.361.257-.362a20.058,20.058,0,0,1,6.342.7.491.491,0,0,1,.093.054A9.779,9.779,0,0,1,94.5,9.536a13.776,13.776,0,0,1,2.274,6.275,10.659,10.659,0,0,1-.277,4.537c-.066.2-.048.544-.441.45" transform="translate(-55.643 -3.331)" fill="#7a6d79"/>
          <path id="Trazado_131298" data-name="Trazado 131298" d="M109.319,134.482c.727-.041.949-.245,1.054-1,.161-1.165.311-2.33.466-3.5a.3.3,0,0,1,.208-.031,15.161,15.161,0,0,1,5.445,2.209,9.445,9.445,0,0,1,3.634,6.253c.147.884.325,1.762.467,2.647.069.432.2.713.711.646a.444.444,0,0,1,.439.146.857.857,0,0,1-.524.07q-6.69,0-13.379-.007c-.114-.21.017-.382.1-.554a21.921,21.921,0,0,0,1.2-3.28,1.32,1.32,0,0,0-.327-1.561,4.076,4.076,0,0,1,.51-2.04" transform="translate(-72.573 -87.486)" fill="#f4dd46"/>
          <path id="Trazado_131299" data-name="Trazado 131299" d="M23.19,19.328c.535.04.8-.275,1.02-.713a6.635,6.635,0,0,1,4.946-3.767,5.671,5.671,0,0,1,2.249.06.577.577,0,0,1,.51.579c.1,1.144.227,2.285.339,3.428a.936.936,0,0,1-.014.374c-.676,2.044-1.552,3.922-3.552,5.075a6.3,6.3,0,0,0-3.254,4.857,2.489,2.489,0,0,1-1.147-1.133,8.974,8.974,0,0,1-1.123-4.6c0-.341,0-.685.032-1.023a.907.907,0,0,0-.658-1.075c.138-.023.2-.094.23-.241.129-.61.279-1.215.421-1.821" transform="translate(-15.174 -9.939)" fill="#7a6d79"/>
          <path id="Trazado_131300" data-name="Trazado 131300" d="M128.015,139.172c-.372-.06-.856.148-1.091-.1-.219-.226-.186-.695-.263-1.057a35.988,35.988,0,0,0-.825-3.976,8.84,8.84,0,0,0-5.809-5.817c-.965-.33-1.944-.618-2.916-.925.024-1.562.246-1.5,1.471-1.1.953.313,1.923.575,2.881.874a8.2,8.2,0,0,1,6.005,6.652c.351,1.793.634,3.6.947,5.4l-.4.044" transform="translate(-78.846 -84.804)" fill="#f2d232"/>
          <path id="Trazado_131301" data-name="Trazado 131301" d="M103.784,132.615l-.457,2.04a.3.3,0,0,1-.258.165.806.806,0,0,0-.669.681,20.317,20.317,0,0,1-1.48,4.013c-.12.257-.061.577-.3.785-.13-.216-.336-.221-.559-.223-.56,0-.6-.076-.311-.576a16.718,16.718,0,0,0,1.406-3.295,30,30,0,0,0,1.325-5.935c.026-.229.08-.456.1-.686.083-.932-.232-1.3-1.17-1.365.114-.349-.005-.879.289-1.022.237-.115.665.157,1.007.262.995.306,1,.307.868,1.361-.111.889-.215,1.78-.364,2.663a.938.938,0,0,0,.57,1.132" transform="translate(-67.039 -85.618)" fill="#efe8e5"/>
          <path id="Trazado_131302" data-name="Trazado 131302" d="M45.781,128.109a6.72,6.72,0,0,0,.129,2.059,39.019,39.019,0,0,0,.9,4.838,22.619,22.619,0,0,0,1.814,4.934,2.926,2.926,0,0,1,.392.881c-.424.046-.864-.1-1.274.108a1.621,1.621,0,0,0-.137-.889,53.594,53.594,0,0,1-2.625-9.461c-.1-.548-.15-1.1-.255-1.648-.074-.386,0-.614.435-.66a4.16,4.16,0,0,0,.619-.162" transform="translate(-30.097 -86.25)" fill="#efe8e5"/>
          <path id="Trazado_131303" data-name="Trazado 131303" d="M102.758,155.723a1.3,1.3,0,0,1,.12-.78,18.909,18.909,0,0,0,1.522-4.06c.169-.67.367-.8,1.062-.8a.883.883,0,0,1,.514,1.186,22.427,22.427,0,0,1-1.537,4.208,2.15,2.15,0,0,1-.411.605c-.439.331-.879.212-1.27-.355" transform="translate(-69.174 -101.042)"/>
          <path id="Trazado_131304" data-name="Trazado 131304" d="M96.351,48.815a3.742,3.742,0,0,1,.665,2.175,32.552,32.552,0,0,1-.272,6.124,10.352,10.352,0,0,1-2.172,4.51,18.8,18.8,0,0,1-5.942,5.46,8.072,8.072,0,0,1-2.987.979c0-1.464,0-2.9,0-4.332,0-.236.107-.261.3-.245a2.309,2.309,0,0,1,1.535.684c.455.471.9.522,1.264.178s.339-.839-.114-1.32a3.67,3.67,0,0,0-2.537-1.144c-.334-.022-.473-.087-.45-.451.033-.519.021-1.042,0-1.562-.01-.289.036-.438.377-.5.773-.15,1.068-.511.958-1.038s-.472-.694-1.311-.574V46.132a1.048,1.048,0,0,1,.684.041,19.2,19.2,0,0,0,2.99.355A16.674,16.674,0,0,1,93.551,47a5.525,5.525,0,0,1,2.8,1.819" transform="translate(-57.652 -31.027)" fill="#f1d0a4"/>
          <path id="Trazado_131305" data-name="Trazado 131305" d="M90.415,122.119a3.405,3.405,0,0,1-1.4,1.9,5.843,5.843,0,0,1-3.033,1.114c-.266.028-.336-.04-.334-.306.017-1.737.017-3.474.023-5.211a.577.577,0,0,1,.407-.237,12.462,12.462,0,0,0,2.239-.569c.851-.259,1.281.032,1.36.907.032.357.1.71.122,1.068a1.108,1.108,0,0,0,.45.931c.136.092.264.2.167.4" transform="translate(-57.663 -79.932)" fill="#f1d0a4"/>
          <path id="Trazado_131306" data-name="Trazado 131306" d="M111.882,22.348c.271-.038.25-.289.3-.456a12.31,12.31,0,0,0,.053-5.827,14.158,14.158,0,0,0-2.724-5.877,12.809,12.809,0,0,0-3.362-2.938,8.277,8.277,0,0,1,3.566,2.027,13.025,13.025,0,0,1,4.18,10.856,5.639,5.639,0,0,1-1.5,3.659l-.506-1.443" transform="translate(-71.464 -4.88)" fill="#685e68"/>
          <path id="Trazado_131307" data-name="Trazado 131307" d="M124.243,70.406a28.036,28.036,0,0,0,.408-5.417c.007-.323.18-.282.389-.242a2.331,2.331,0,0,1,1.834,1.947,3.416,3.416,0,0,1-2.631,3.712" transform="translate(-83.647 -43.573)" fill="#f1ba87"/>
          <path id="Trazado_131308" data-name="Trazado 131308" d="M96.379,47.335a8.263,8.263,0,0,0-2.794-1.659,11.5,11.5,0,0,0-2.374-.386,25.07,25.07,0,0,1-5.271-.542,2.642,2.642,0,0,1-.25-.1c-.047-.844-.048-.836.794-.692,1.635.28,3.3.192,4.942.361a6.3,6.3,0,0,1,4.953,3.014" transform="translate(-57.68 -29.547)" fill="#f1ba87"/>
          <path id="Trazado_131309" data-name="Trazado 131309" d="M90.427,118.515c-.223-.339-.712-.467-.745-.963-.027-.406-.109-.81-.126-1.216-.043-1.049-.354-1.29-1.34-.933a15.444,15.444,0,0,1-2.534.613c-.048-.959-.05-.971.844-1.147a11.9,11.9,0,0,0,3.673-1.5c.149,1.416.3,2.761.424,4.108a1.847,1.847,0,0,1-.2,1.036" transform="translate(-57.676 -76.328)" fill="#f1ba87"/>
          <path id="Trazado_131310" data-name="Trazado 131310" d="M60.83,5.846V15.954A11.5,11.5,0,0,1,58,14.258c-1.665-1.294-1.655-1.3-1.789-3.431a8.436,8.436,0,0,0-.148-1.444.936.936,0,0,1,.377-1.019A11.619,11.619,0,0,1,60.4,5.931c.1-.036.2-.068.308-.1a.375.375,0,0,1,.117.011" transform="translate(-37.72 -3.927)" fill="#7a6d79"/>
          <path id="Trazado_131311" data-name="Trazado 131311" d="M60.762,118.091c.006,1.739.007,3.478.025,5.216,0,.287-.109.318-.348.288a5.449,5.449,0,0,1-3.8-1.98,3.368,3.368,0,0,1-.693-2.526c.093-.873.216-1.742.326-2.613a.448.448,0,0,1,.408.069,12.16,12.16,0,0,0,3.8,1.4.514.514,0,0,1,.282.144" transform="translate(-37.648 -78.402)" fill="#f1cfa3"/>
          <path id="Trazado_131312" data-name="Trazado 131312" d="M43.407,33.8a.69.69,0,0,0-.835.552,9.115,9.115,0,0,1-2.157,3.668,8.532,8.532,0,0,1-1.277.97,6.7,6.7,0,0,0-2,2.48c-.27.483-.489.994-.752,1.481a1.919,1.919,0,0,0-.223.979c.011.7-.007,1.4-.012,2.1a18.6,18.6,0,0,1,.069-4.718,4.5,4.5,0,0,1,2.254-3.146A9,9,0,0,0,42.44,33.31a2.432,2.432,0,0,1,.129-.241l.838.732" transform="translate(-24.261 -22.264)" fill="#f1ba87"/>
          <path id="Trazado_131313" data-name="Trazado 131313" d="M27,70.423a3.477,3.477,0,0,1-2.556-3.718,2.359,2.359,0,0,1,1.831-1.954c.308-.062.36.048.359.323a35.382,35.382,0,0,0,.2,4.193c.044.37.107.737.168,1.156" transform="translate(-16.439 -43.583)" fill="#f1ba87"/>
          <path id="Trazado_131314" data-name="Trazado 131314" d="M61.482,116.182a10.585,10.585,0,0,1-3.888-1.271c-.206-.107-.4-.228-.606-.343.031-.3.062-.6.1-.952a12.192,12.192,0,0,0,3.081,1.309c.139.033.279.062.419.091.945.191.945.191.9,1.167" transform="translate(-38.368 -76.492)" fill="#f1c494"/>
          <path id="Trazado_131315" data-name="Trazado 131315" d="M64.577,39.6a17.787,17.787,0,0,1-2.739-1.756.538.538,0,0,1-.256-.328,17.371,17.371,0,0,0,2.791,1.45c.348.125.2.4.2.634" transform="translate(-41.461 -25.259)" fill="#ecb786"/>
          <path id="Trazado_131316" data-name="Trazado 131316" d="M54.736,52.414a4.615,4.615,0,0,1,1.792.295.831.831,0,0,1,.6,1.085.8.8,0,0,1-1.115.445,4,4,0,0,0-2.483-.017c-.624.164-1.031-.009-1.175-.493-.131-.44.127-.833.69-1.039a4.472,4.472,0,0,1,1.69-.275" transform="translate(-35.226 -35.286)"/>
          <path id="Trazado_131317" data-name="Trazado 131317" d="M59.083,65.488c0,.358.025.719-.006,1.074a.773.773,0,0,1-.855.77.753.753,0,0,1-.744-.822q-.013-1.048,0-2.1a.75.75,0,0,1,.743-.822.769.769,0,0,1,.856.768c.031.373.006.752.006,1.128" transform="translate(-38.693 -42.811)" fill="#010101"/>
          <path id="Trazado_131318" data-name="Trazado 131318" d="M94.651,63.531a.786.786,0,0,1-.877.839c-.323-.031-.353.077-.346.334a2.98,2.98,0,0,1-.049.747.722.722,0,0,1-.84.586.7.7,0,0,1-.7-.683,8.126,8.126,0,0,1-.012-1.289.619.619,0,0,0-.479-.76.879.879,0,0,1-.484-.323.759.759,0,0,1-.02-.948.717.717,0,0,1,.9-.3c.855.366,1.694.769,2.53,1.177a.724.724,0,0,1,.384.623" transform="translate(-61.053 -41.52)"/>
        </g>
      </g>
    </g>
  </g>
</svg>
