<svg xmlns="http://www.w3.org/2000/svg" width="85.523" height="91" viewBox="0 0 85.523 91">
  <g id="Grupo_157845" data-name="Grupo 157845" transform="translate(-180 -4647)">
    <path id="Trazado_99257" data-name="Trazado 99257" d="M418.688,104.917a2.239,2.239,0,1,1-2.238-2.138A2.19,2.19,0,0,1,418.688,104.917Z" transform="translate(-234.214 4544.221)" fill="#1169e3"/>
    <path id="Trazado_116526" data-name="Trazado 116526" d="M418.688,104.917a2.239,2.239,0,1,1-2.238-2.138A2.19,2.19,0,0,1,418.688,104.917Z" transform="translate(-183.559 4544.221)" fill="#1169e3"/>
    <path id="Trazado_99258" data-name="Trazado 99258" d="M427.134,104.917a2.239,2.239,0,1,1-2.236-2.138A2.189,2.189,0,0,1,427.134,104.917Z" transform="translate(-232.529 4544.221)" fill="#1169e3"/>
    <path id="Trazado_116527" data-name="Trazado 116527" d="M427.134,104.917a2.239,2.239,0,1,1-2.236-2.138A2.189,2.189,0,0,1,427.134,104.917Z" transform="translate(-181.873 4544.221)" fill="#1169e3"/>
    <path id="Trazado_99259" data-name="Trazado 99259" d="M435.58,104.917a2.239,2.239,0,1,1-2.236-2.138A2.189,2.189,0,0,1,435.58,104.917Z" transform="translate(-230.844 4544.221)" fill="#1169e3"/>
    <path id="Trazado_116531" data-name="Trazado 116531" d="M435.58,104.917a2.239,2.239,0,1,1-2.236-2.138A2.189,2.189,0,0,1,435.58,104.917Z" transform="translate(-180.188 4544.221)" fill="#1169e3"/>
    <path id="Trazado_99260" data-name="Trazado 99260" d="M444.027,104.917a2.239,2.239,0,1,1-2.238-2.138A2.19,2.19,0,0,1,444.027,104.917Z" transform="translate(-229.16 4544.221)" fill="#1169e3"/>
    <path id="Trazado_116532" data-name="Trazado 116532" d="M444.027,104.917a2.239,2.239,0,1,1-2.238-2.138A2.19,2.19,0,0,1,444.027,104.917Z" transform="translate(-178.504 4544.221)" fill="#1169e3"/>
    <path id="Trazado_99261" data-name="Trazado 99261" d="M452.473,104.917a2.239,2.239,0,1,1-2.236-2.138A2.189,2.189,0,0,1,452.473,104.917Z" transform="translate(-227.475 4544.221)" fill="#1169e3"/>
    <ellipse id="Elipse_3975" data-name="Elipse 3975" cx="2.237" cy="2.139" rx="2.237" ry="2.139" transform="translate(180 4658.113)" fill="#1169e3"/>
    <ellipse id="Elipse_4742" data-name="Elipse 4742" cx="2.237" cy="2.139" rx="2.237" ry="2.139" transform="translate(230.656 4658.113)" fill="#1169e3"/>
    <path id="Trazado_99268" data-name="Trazado 99268" d="M427.134,112.425a2.239,2.239,0,1,1-2.236-2.138A2.19,2.19,0,0,1,427.134,112.425Z" transform="translate(-232.529 4547.825)" fill="#1169e3"/>
    <path id="Trazado_116528" data-name="Trazado 116528" d="M427.134,112.425a2.239,2.239,0,1,1-2.236-2.138A2.19,2.19,0,0,1,427.134,112.425Z" transform="translate(-181.873 4547.825)" fill="#1169e3"/>
    <ellipse id="Elipse_3976" data-name="Elipse 3976" cx="2.237" cy="2.139" rx="2.237" ry="2.139" transform="translate(200.262 4658.113)" fill="#1169e3"/>
    <ellipse id="Elipse_4743" data-name="Elipse 4743" cx="2.237" cy="2.139" rx="2.237" ry="2.139" transform="translate(250.918 4658.113)" fill="#1169e3"/>
    <path id="Trazado_99269" data-name="Trazado 99269" d="M444.027,112.425a2.239,2.239,0,1,1-2.238-2.138A2.191,2.191,0,0,1,444.027,112.425Z" transform="translate(-229.16 4547.825)" fill="#1169e3"/>
    <path id="Trazado_116533" data-name="Trazado 116533" d="M444.027,112.425a2.239,2.239,0,1,1-2.238-2.138A2.191,2.191,0,0,1,444.027,112.425Z" transform="translate(-178.504 4547.825)" fill="#1169e3"/>
    <path id="Trazado_99270" data-name="Trazado 99270" d="M452.473,112.425a2.239,2.239,0,1,1-2.236-2.138A2.19,2.19,0,0,1,452.473,112.425Z" transform="translate(-227.475 4547.825)" fill="#1169e3"/>
    <path id="Trazado_99274" data-name="Trazado 99274" d="M418.688,119.934a2.239,2.239,0,1,1-2.238-2.14A2.191,2.191,0,0,1,418.688,119.934Z" transform="translate(-234.214 4551.432)" fill="#1169e3"/>
    <path id="Trazado_116550" data-name="Trazado 116550" d="M418.688,119.934a2.239,2.239,0,1,1-2.238-2.14A2.191,2.191,0,0,1,418.688,119.934Z" transform="translate(-234.214 4584.774)" fill="#1169e3"/>
    <path id="Trazado_130955" data-name="Trazado 130955" d="M418.688,119.934a2.239,2.239,0,1,1-2.238-2.14A2.191,2.191,0,0,1,418.688,119.934Z" transform="translate(-234.214 4607.003)" fill="#1169e3"/>
    <path id="Trazado_130964" data-name="Trazado 130964" d="M418.688,119.934a2.239,2.239,0,1,1-2.238-2.14A2.191,2.191,0,0,1,418.688,119.934Z" transform="translate(-234.214 4615.925)" fill="#1169e3"/>
    <path id="Trazado_116529" data-name="Trazado 116529" d="M418.688,119.934a2.239,2.239,0,1,1-2.238-2.14A2.191,2.191,0,0,1,418.688,119.934Z" transform="translate(-183.559 4551.432)" fill="#1169e3"/>
    <path id="Trazado_116551" data-name="Trazado 116551" d="M418.688,119.934a2.239,2.239,0,1,1-2.238-2.14A2.191,2.191,0,0,1,418.688,119.934Z" transform="translate(-183.559 4584.774)" fill="#1169e3"/>
    <path id="Trazado_130944" data-name="Trazado 130944" d="M418.688,119.934a2.239,2.239,0,1,1-2.238-2.14A2.191,2.191,0,0,1,418.688,119.934Z" transform="translate(-183.559 4607.003)" fill="#1169e3"/>
    <path id="Trazado_130956" data-name="Trazado 130956" d="M418.688,119.934a2.239,2.239,0,1,1-2.238-2.14A2.191,2.191,0,0,1,418.688,119.934Z" transform="translate(-183.559 4615.925)" fill="#1169e3"/>
    <path id="Trazado_99275" data-name="Trazado 99275" d="M427.134,119.934a2.239,2.239,0,1,1-2.236-2.14A2.19,2.19,0,0,1,427.134,119.934Z" transform="translate(-232.529 4551.432)" fill="#1169e3"/>
    <path id="Trazado_116552" data-name="Trazado 116552" d="M427.134,119.934a2.239,2.239,0,1,1-2.236-2.14A2.19,2.19,0,0,1,427.134,119.934Z" transform="translate(-232.529 4584.774)" fill="#1169e3"/>
    <path id="Trazado_130950" data-name="Trazado 130950" d="M427.134,119.934a2.239,2.239,0,1,1-2.236-2.14A2.19,2.19,0,0,1,427.134,119.934Z" transform="translate(-232.529 4607.003)" fill="#1169e3"/>
    <path id="Trazado_130960" data-name="Trazado 130960" d="M427.134,119.934a2.239,2.239,0,1,1-2.236-2.14A2.19,2.19,0,0,1,427.134,119.934Z" transform="translate(-232.529 4615.925)" fill="#1169e3"/>
    <path id="Trazado_116530" data-name="Trazado 116530" d="M427.134,119.934a2.239,2.239,0,1,1-2.236-2.14A2.19,2.19,0,0,1,427.134,119.934Z" transform="translate(-181.873 4551.432)" fill="#1169e3"/>
    <path id="Trazado_116553" data-name="Trazado 116553" d="M427.134,119.934a2.239,2.239,0,1,1-2.236-2.14A2.19,2.19,0,0,1,427.134,119.934Z" transform="translate(-181.873 4584.774)" fill="#1169e3"/>
    <path id="Trazado_130945" data-name="Trazado 130945" d="M427.134,119.934a2.239,2.239,0,1,1-2.236-2.14A2.19,2.19,0,0,1,427.134,119.934Z" transform="translate(-181.873 4607.003)" fill="#1169e3"/>
    <path id="Trazado_130957" data-name="Trazado 130957" d="M427.134,119.934a2.239,2.239,0,1,1-2.236-2.14A2.19,2.19,0,0,1,427.134,119.934Z" transform="translate(-181.873 4615.925)" fill="#1169e3"/>
    <path id="Trazado_99276" data-name="Trazado 99276" d="M435.58,119.934a2.239,2.239,0,1,1-2.236-2.14A2.191,2.191,0,0,1,435.58,119.934Z" transform="translate(-230.844 4551.432)" fill="#1169e3"/>
    <path id="Trazado_116554" data-name="Trazado 116554" d="M435.58,119.934a2.239,2.239,0,1,1-2.236-2.14A2.191,2.191,0,0,1,435.58,119.934Z" transform="translate(-230.844 4584.774)" fill="#1169e3"/>
    <path id="Trazado_130951" data-name="Trazado 130951" d="M435.58,119.934a2.239,2.239,0,1,1-2.236-2.14A2.191,2.191,0,0,1,435.58,119.934Z" transform="translate(-230.844 4607.003)" fill="#1169e3"/>
    <path id="Trazado_130961" data-name="Trazado 130961" d="M435.58,119.934a2.239,2.239,0,1,1-2.236-2.14A2.191,2.191,0,0,1,435.58,119.934Z" transform="translate(-230.844 4615.925)" fill="#1169e3"/>
    <path id="Trazado_116534" data-name="Trazado 116534" d="M435.58,119.934a2.239,2.239,0,1,1-2.236-2.14A2.191,2.191,0,0,1,435.58,119.934Z" transform="translate(-180.188 4551.432)" fill="#1169e3"/>
    <path id="Trazado_116555" data-name="Trazado 116555" d="M435.58,119.934a2.239,2.239,0,1,1-2.236-2.14A2.191,2.191,0,0,1,435.58,119.934Z" transform="translate(-180.188 4584.774)" fill="#1169e3"/>
    <path id="Trazado_130942" data-name="Trazado 130942" d="M435.58,119.934a2.239,2.239,0,1,1-2.236-2.14A2.191,2.191,0,0,1,435.58,119.934Z" transform="translate(-180.188 4607.003)" fill="#1169e3"/>
    <path id="Trazado_130958" data-name="Trazado 130958" d="M435.58,119.934a2.239,2.239,0,1,1-2.236-2.14A2.191,2.191,0,0,1,435.58,119.934Z" transform="translate(-180.188 4615.925)" fill="#1169e3"/>
    <path id="Trazado_99277" data-name="Trazado 99277" d="M444.027,119.934a2.239,2.239,0,1,1-2.238-2.14A2.191,2.191,0,0,1,444.027,119.934Z" transform="translate(-229.16 4551.432)" fill="#1169e3"/>
    <path id="Trazado_116556" data-name="Trazado 116556" d="M444.027,119.934a2.239,2.239,0,1,1-2.238-2.14A2.191,2.191,0,0,1,444.027,119.934Z" transform="translate(-229.16 4584.774)" fill="#1169e3"/>
    <path id="Trazado_130952" data-name="Trazado 130952" d="M444.027,119.934a2.239,2.239,0,1,1-2.238-2.14A2.191,2.191,0,0,1,444.027,119.934Z" transform="translate(-229.16 4607.003)" fill="#1169e3"/>
    <path id="Trazado_130962" data-name="Trazado 130962" d="M444.027,119.934a2.239,2.239,0,1,1-2.238-2.14A2.191,2.191,0,0,1,444.027,119.934Z" transform="translate(-229.16 4615.925)" fill="#1169e3"/>
    <path id="Trazado_116535" data-name="Trazado 116535" d="M444.027,119.934a2.239,2.239,0,1,1-2.238-2.14A2.191,2.191,0,0,1,444.027,119.934Z" transform="translate(-178.504 4551.432)" fill="#1169e3"/>
    <path id="Trazado_116557" data-name="Trazado 116557" d="M444.027,119.934a2.239,2.239,0,1,1-2.238-2.14A2.191,2.191,0,0,1,444.027,119.934Z" transform="translate(-178.504 4584.774)" fill="#1169e3"/>
    <path id="Trazado_130943" data-name="Trazado 130943" d="M444.027,119.934a2.239,2.239,0,1,1-2.238-2.14A2.191,2.191,0,0,1,444.027,119.934Z" transform="translate(-178.504 4607.003)" fill="#1169e3"/>
    <path id="Trazado_130959" data-name="Trazado 130959" d="M444.027,119.934a2.239,2.239,0,1,1-2.238-2.14A2.191,2.191,0,0,1,444.027,119.934Z" transform="translate(-178.504 4615.925)" fill="#1169e3"/>
    <path id="Trazado_99278" data-name="Trazado 99278" d="M452.473,119.934a2.239,2.239,0,1,1-2.236-2.14A2.19,2.19,0,0,1,452.473,119.934Z" transform="translate(-227.475 4551.432)" fill="#1169e3"/>
    <path id="Trazado_116558" data-name="Trazado 116558" d="M452.473,119.934a2.239,2.239,0,1,1-2.236-2.14A2.19,2.19,0,0,1,452.473,119.934Z" transform="translate(-227.475 4584.774)" fill="#1169e3"/>
    <path id="Trazado_130946" data-name="Trazado 130946" d="M452.473,119.934a2.239,2.239,0,1,1-2.236-2.14A2.19,2.19,0,0,1,452.473,119.934Z" transform="translate(-227.475 4607.003)" fill="#1169e3"/>
    <path id="Trazado_130963" data-name="Trazado 130963" d="M452.473,119.934a2.239,2.239,0,1,1-2.236-2.14A2.19,2.19,0,0,1,452.473,119.934Z" transform="translate(-227.475 4615.925)" fill="#1169e3"/>
    <ellipse id="Elipse_3980" data-name="Elipse 3980" cx="2.237" cy="2.139" rx="2.237" ry="2.139" transform="translate(180 4680.343)" fill="#1169e3"/>
    <ellipse id="Elipse_4744" data-name="Elipse 4744" cx="2.237" cy="2.139" rx="2.237" ry="2.139" transform="translate(230.656 4680.343)" fill="#1169e3"/>
    <path id="Trazado_99285" data-name="Trazado 99285" d="M427.134,127.442a2.239,2.239,0,1,1-2.236-2.14A2.189,2.189,0,0,1,427.134,127.442Z" transform="translate(-232.529 4555.039)" fill="#1169e3"/>
    <path id="Trazado_116536" data-name="Trazado 116536" d="M427.134,127.442a2.239,2.239,0,1,1-2.236-2.14A2.189,2.189,0,0,1,427.134,127.442Z" transform="translate(-181.873 4555.039)" fill="#1169e3"/>
    <ellipse id="Elipse_3981" data-name="Elipse 3981" cx="2.237" cy="2.139" rx="2.237" ry="2.139" transform="translate(200.262 4680.343)" fill="#1169e3"/>
    <ellipse id="Elipse_4745" data-name="Elipse 4745" cx="2.237" cy="2.139" rx="2.237" ry="2.139" transform="translate(250.918 4680.343)" fill="#1169e3"/>
    <path id="Trazado_99286" data-name="Trazado 99286" d="M444.027,127.442a2.239,2.239,0,1,1-2.238-2.14A2.189,2.189,0,0,1,444.027,127.442Z" transform="translate(-229.16 4555.039)" fill="#1169e3"/>
    <path id="Trazado_116537" data-name="Trazado 116537" d="M444.027,127.442a2.239,2.239,0,1,1-2.238-2.14A2.189,2.189,0,0,1,444.027,127.442Z" transform="translate(-178.504 4555.039)" fill="#1169e3"/>
    <path id="Trazado_99287" data-name="Trazado 99287" d="M452.473,127.442a2.239,2.239,0,1,1-2.236-2.14A2.189,2.189,0,0,1,452.473,127.442Z" transform="translate(-227.475 4555.039)" fill="#1169e3"/>
    <ellipse id="Elipse_3985" data-name="Elipse 3985" cx="2.237" cy="2.139" rx="2.237" ry="2.139" transform="translate(180 4691.455)" fill="#1169e3"/>
    <ellipse id="Elipse_4918" data-name="Elipse 4918" cx="2.237" cy="2.139" rx="2.237" ry="2.139" transform="translate(180 4713.684)" fill="#1169e3"/>
    <ellipse id="Elipse_4746" data-name="Elipse 4746" cx="2.237" cy="2.139" rx="2.237" ry="2.139" transform="translate(230.656 4691.455)" fill="#1169e3"/>
    <ellipse id="Elipse_4915" data-name="Elipse 4915" cx="2.237" cy="2.139" rx="2.237" ry="2.139" transform="translate(230.656 4713.684)" fill="#1169e3"/>
    <path id="Trazado_99291" data-name="Trazado 99291" d="M427.134,134.95a2.239,2.239,0,1,1-2.236-2.14A2.189,2.189,0,0,1,427.134,134.95Z" transform="translate(-232.529 4558.646)" fill="#1169e3"/>
    <path id="Trazado_130953" data-name="Trazado 130953" d="M427.134,134.95a2.239,2.239,0,1,1-2.236-2.14A2.189,2.189,0,0,1,427.134,134.95Z" transform="translate(-232.529 4580.875)" fill="#1169e3"/>
    <path id="Trazado_116538" data-name="Trazado 116538" d="M427.134,134.95a2.239,2.239,0,1,1-2.236-2.14A2.189,2.189,0,0,1,427.134,134.95Z" transform="translate(-181.873 4558.646)" fill="#1169e3"/>
    <path id="Trazado_130947" data-name="Trazado 130947" d="M427.134,134.95a2.239,2.239,0,1,1-2.236-2.14A2.189,2.189,0,0,1,427.134,134.95Z" transform="translate(-181.873 4580.875)" fill="#1169e3"/>
    <ellipse id="Elipse_3986" data-name="Elipse 3986" cx="2.237" cy="2.139" rx="2.237" ry="2.139" transform="translate(200.262 4691.455)" fill="#1169e3"/>
    <ellipse id="Elipse_4917" data-name="Elipse 4917" cx="2.237" cy="2.139" rx="2.237" ry="2.139" transform="translate(200.262 4713.684)" fill="#1169e3"/>
    <ellipse id="Elipse_4747" data-name="Elipse 4747" cx="2.237" cy="2.139" rx="2.237" ry="2.139" transform="translate(250.918 4691.455)" fill="#1169e3"/>
    <ellipse id="Elipse_4916" data-name="Elipse 4916" cx="2.237" cy="2.139" rx="2.237" ry="2.139" transform="translate(250.918 4713.684)" fill="#1169e3"/>
    <path id="Trazado_99292" data-name="Trazado 99292" d="M444.027,134.95a2.239,2.239,0,1,1-2.238-2.14A2.189,2.189,0,0,1,444.027,134.95Z" transform="translate(-229.16 4558.646)" fill="#1169e3"/>
    <path id="Trazado_130954" data-name="Trazado 130954" d="M444.027,134.95a2.239,2.239,0,1,1-2.238-2.14A2.189,2.189,0,0,1,444.027,134.95Z" transform="translate(-229.16 4580.875)" fill="#1169e3"/>
    <path id="Trazado_116539" data-name="Trazado 116539" d="M444.027,134.95a2.239,2.239,0,1,1-2.238-2.14A2.189,2.189,0,0,1,444.027,134.95Z" transform="translate(-178.504 4558.646)" fill="#1169e3"/>
    <path id="Trazado_130948" data-name="Trazado 130948" d="M444.027,134.95a2.239,2.239,0,1,1-2.238-2.14A2.189,2.189,0,0,1,444.027,134.95Z" transform="translate(-178.504 4580.875)" fill="#1169e3"/>
    <path id="Trazado_99293" data-name="Trazado 99293" d="M452.473,134.95a2.239,2.239,0,1,1-2.236-2.14A2.189,2.189,0,0,1,452.473,134.95Z" transform="translate(-227.475 4558.646)" fill="#1169e3"/>
    <path id="Trazado_130949" data-name="Trazado 130949" d="M452.473,134.95a2.239,2.239,0,1,1-2.236-2.14A2.189,2.189,0,0,1,452.473,134.95Z" transform="translate(-227.475 4580.875)" fill="#1169e3"/>
  </g>
</svg>
