<svg xmlns="http://www.w3.org/2000/svg" xmlns:xlink="http://www.w3.org/1999/xlink" width="99" height="99" viewBox="0 0 99 99">
  <defs>
    <clipPath id="clip-path">
      <rect id="Rectángulo_37903" data-name="Rectángulo 37903" width="51.337" height="55.168" fill="none"/>
    </clipPath>
  </defs>
  <g id="Grupo_157761" data-name="Grupo 157761" transform="translate(-1171 -5097)">
    <circle id="Elipse_4760" data-name="Elipse 4760" cx="49.5" cy="49.5" r="49.5" transform="translate(1171 5097)" fill="#1169e3"/>
    <g id="Grupo_156593" data-name="Grupo 156593" transform="translate(833.421 454)">
      <path id="Trazado_127053" data-name="Trazado 127053" d="M15.507,123.96c-.454.1-.559-.113-.555-.537.012-1.063-.007-1.081-1.106-1.075-.409,0-.536-.124-.528-.529.007-.377.077-.553.512-.551,1.1,0,1.131-.018,1.119-1.119-.005-.5.239-.507.608-.511s.56.058.56.5c0,1.115.023,1.135,1.112,1.131.421,0,.521.15.522.541s-.1.541-.52.539c-1.11-.006-1.137.014-1.112,1.066.012.488-.169.631-.611.545" transform="translate(339.683 4578.363)" fill="#29c4bb"/>
      <path id="Trazado_127054" data-name="Trazado 127054" d="M213.642,151.161c.406-.078.632.057.565.517-.056.385.077.6.5.533s.57.088.573.537c0,.47-.189.578-.589.525-.383-.052-.5.115-.5.5.012.6-.357.826-.934.645-.274-.086-.214-.3-.2-.477.048-.472-.06-.76-.616-.666-.431.073-.457-.2-.456-.527s.014-.6.451-.53c.471.073.694-.1.616-.6-.075-.475.23-.5.582-.454" transform="translate(205.528 4558.239)" fill="#29c4bb"/>
      <path id="Trazado_127055" data-name="Trazado 127055" d="M210.718,69.268c.1.453-.1.608-.527.537-.46-.078-.648.111-.567.569s-.113.548-.542.553-.609-.127-.532-.557c.082-.459-.109-.648-.565-.562-.472.089-.513-.158-.531-.555-.021-.466.16-.588.566-.517.441.077.606-.106.531-.537-.072-.412.061-.579.521-.563.4.014.639.072.552.536s.115.639.567.563c.425-.072.632.081.526.534" transform="translate(208.976 4610.651)" fill="#010000"/>
      <path id="Trazado_127056" data-name="Trazado 127056" d="M55.04,186.64c.1.423-.11.578-.532.5-.5-.09-.614.169-.543.587.079.465-.146.537-.555.535-.39,0-.6-.091-.518-.511.108-.553-.169-.688-.645-.607s-.466-.225-.467-.559.007-.6.448-.512c.593.117.745-.168.665-.7-.077-.508.311-.362.569-.377.274-.016.579-.052.5.389-.1.545.092.8.67.687.482-.092.423.243.409.566" transform="translate(313.711 4536.959)" fill="#010000"/>
      <path id="Trazado_127057" data-name="Trazado 127057" d="M121.786,17.426c-.114-.483.153-.577.548-.518.41.061.572-.109.509-.513s.058-.588.522-.578c.427.009.623.119.548.558s.131.6.553.533c.391-.059.587.035.589.513s-.182.62-.608.553c-.45-.072-.6.133-.533.553.078.472-.175.526-.572.534-.424.009-.562-.151-.5-.54.068-.427-.09-.622-.535-.547s-.62-.106-.523-.547" transform="translate(266.46 4643.184)" fill="#29c4bb"/>
    </g>
    <g id="Grupo_158078" data-name="Grupo 158078" transform="translate(1195 5119)">
      <g id="Grupo_158078-2" data-name="Grupo 158078" clip-path="url(#clip-path)">
        <path id="Trazado_132074" data-name="Trazado 132074" d="M1.679,0H43.227a1.946,1.946,0,0,1,1.668,2.153c.012,3.354,0,6.707,0,10.061,0,.179,0,.359.007.538.011.236.112.366.368.347,1.765-.131,3.184.787,4.577,1.639a3.21,3.21,0,0,1,1.131,4.22Q49.4,22.343,47.77,25.709c-.87,1.81-1.692,3.643-2.6,5.435a3.138,3.138,0,0,0-.274,1.464q.005,10.035,0,20.069a2.847,2.847,0,0,1-.3,1.509,1.809,1.809,0,0,1-1.564.979c-.161.006-.323,0-.484,0H2.365C.746,55.166.009,54.434.008,52.8Q0,42.036.008,31.276c0-.973.149-1.22.848-1.474a1,1,0,0,1,1.089,1,7.784,7.784,0,0,1,.017.807q0,10.274,0,20.549c0,1.162,0,1.163,1.161,1.163h36.04a8.344,8.344,0,0,1,.859.015c.7,0,1.4,0,2.1,0,.753-.007.839-.087.84-.832q.007-3.414,0-6.828c0-3.294,0-6.587,0-9.853-.961,1.959-1.864,3.964-2.839,5.935a3.059,3.059,0,0,1-.817,1.049q-1.825,1.669-3.626,3.365c-.664.628-1.371,1.211-2.005,1.871-.05.052-.11.093-.164.139a1.447,1.447,0,0,1-1.67.376,1.405,1.405,0,0,1-.728-1.49c.014-1.22.175-2.431.215-3.648.027-.839.012-.842-.816-.842H7.693a4.609,4.609,0,0,1-.805-.029.975.975,0,0,1-.808-.883.928.928,0,0,1,.664-.937,3.3,3.3,0,0,1,1.119-.1H30.676c.835,0,.817,0,.875-.823A4.954,4.954,0,0,1,32.1,37.37c.2-.314.116-.5-.287-.494-.179,0-.359,0-.538,0H7.656a4.156,4.156,0,0,1-.912-.047,1.009,1.009,0,0,1-.86-.962.965.965,0,0,1,.947-.921,6.978,6.978,0,0,1,.806-.019c8.2,0,16.393-.01,24.59.016a1.312,1.312,0,0,0,1.494-.952c.276-.792.754-1.505,1.068-2.289.186-.465.157-.511-.351-.529-.161-.006-.323,0-.484,0H13.345a3.774,3.774,0,0,1-1.226-.116.915.915,0,0,1-.676-1.076.845.845,0,0,1,.9-.749c.233-.016.466-.008.7-.008,7.318,0,14.635-.01,21.953.014a1.29,1.29,0,0,0,1.407-.858q.625-1.486,1.391-2.912a.965.965,0,0,1,1.2-.636c.7.425.807.765.463,1.513-.942,2.05-1.924,4.081-2.9,6.115-.821,1.711-1.6,3.442-2.451,5.139-.232.462-.181.562.29.774.98.44,1.946.911,2.919,1.363.283.153.582.278.859.443.353.209.54.1.711-.248.527-1.058,1.021-2.132,1.522-3.2.819-1.751,1.657-3.494,2.488-5.239,1.447-3.039,2.884-6.082,4.341-9.116.178-.372.092-.553-.26-.7-.313-.132-.609-.3-.916-.45-.964-.385-1.856-.924-2.816-1.319-.59-.243-.644-.231-.88.335-.33.794-.738,1.549-1.12,2.317-.327.657-.538.76-1.281.686a.921.921,0,0,1-.453-1.348,12.6,12.6,0,0,0,.518-1.181c.942-1.891,1.81-3.817,2.74-5.714a1.955,1.955,0,0,0,.194-.882c0-1.11,0-2.22,0-3.331,0-.566-.049-.612-.615-.616-.788,0-1.575-.01-2.364.008-.341.024-.682.012-1.023.012l-35.934,0c-1.139,0-1.067-.084-1.067,1.091q0,7.424,0,14.848a6.482,6.482,0,0,1-.021.806.992.992,0,0,1-1.108.978,1.008,1.008,0,0,1-.808-.952A4.3,4.3,0,0,1,0,26.313Q0,14.365,0,2.418c0-.09,0-.179,0-.269A1.962,1.962,0,0,1,1.679,0" transform="translate(0)"/>
        <path id="Trazado_132075" data-name="Trazado 132075" d="M2.03,44.974V42.859c.747-.053.977-.292.977-1.041Q3.01,33.7,3,25.573c0-.406.083-.535.518-.535q18.691.02,37.382.012c.143,0,.285.016.428.025a.91.91,0,0,1,.173.66c.006,3.066,0,6.133,0,9.2a5.291,5.291,0,0,1-.159.952c-.149.339-.3.68-.449,1.019-.289.639-.227.88.343,1.317.086.587-.4.965-.541,1.472-.044.162-.1.356-.334.365-.721-.157-.945-.049-1.269.629-.516,1.082-1.042,2.159-1.532,3.253a.706.706,0,0,1-.768.475q-11.38-.02-22.76-.009a4.489,4.489,0,0,0-.591.019.789.789,0,0,0-.036,1.558,4.056,4.056,0,0,0,.7.035q10.9,0,21.791,0c.663,0,.663,0,.376.607-.484,1.018-.986,2.028-1.441,3.058a.7.7,0,0,1-.764.472q-12.779-.019-25.558-.009a4.832,4.832,0,0,0-.537.008.754.754,0,0,0-.731.785.763.763,0,0,0,.661.8,2.762,2.762,0,0,0,.59.022H33.711c.123.128.019.223-.029.3a5.623,5.623,0,0,0-.746,3.245c.008.481-.155.583-.617.582q-11.81-.023-23.62-.01a2.793,2.793,0,0,0-.59.023.76.76,0,0,0-.676.835.747.747,0,0,0,.761.75c.161.012.323.005.484.005q11.756,0,23.512-.01c.465,0,.6.078.558.581-.126,1.374-.178,2.755-.266,4.133a1.194,1.194,0,0,0,.62,1.313,1.224,1.224,0,0,0,1.461-.338q3.093-2.876,6.195-5.742a3.093,3.093,0,0,0,.484-.7c.294.106.25.372.251.588q.02,5.343,0,10.686a.7.7,0,0,1-.17.548c-.2.006-.394.017-.59.017H3.884c-.876,0-.876,0-.876-.863q0-10.813,0-21.627c0-.8-.216-1.041-.977-1.1" transform="translate(-1.221 -15.064)" fill="#8cc9fb"/>
        <path id="Trazado_132076" data-name="Trazado 132076" d="M4.51,10.723Q4.5,7.631,4.487,4.539a.431.431,0,0,1,.5-.484c.09,0,.179,0,.269,0h37.06c.161,0,.322.011.483.017a.839.839,0,0,1,.176.655c.007,1.775.01,3.549,0,5.324,0,.687-.059.729-.734.729q-18.6,0-37.209,0a.9.9,0,0,1-.525-.055" transform="translate(-2.7 -2.439)" fill="#9b9b9b"/>
        <path id="Trazado_132077" data-name="Trazado 132077" d="M90.13,54.474l.875-1.837a.979.979,0,0,0,1.162-.7c.4-.9.849-1.773,1.255-2.667.122-.269.228-.341.513-.2,1.054.527,2.122,1.028,3.184,1.539.174.217.024.407-.055.6-.417,1.013-.915,1.988-1.389,2.972-2.36,4.895-4.644,9.826-7.024,14.71-.082.168-.072.447-.378.432-1.1-.511-2.2-1.034-3.308-1.525-.372-.165-.18-.362-.089-.553q1.575-3.32,3.159-6.636c.769-1.615,1.525-3.235,2.309-4.842a.958.958,0,0,0-.215-1.293" transform="translate(-50.987 -29.48)" fill="#fa8527"/>
        <path id="Trazado_132078" data-name="Trazado 132078" d="M100.55,106.766q0-5.654,0-11.308c0-.173.052-.361-.083-.514l3.006-6.38c.151.123.09.272.09.4q.005,8.556,0,17.112c0,.654-.057.713-.7.712-.771,0-1.542-.011-2.312-.017" transform="translate(-60.446 -53.285)" fill="#64b8fb"/>
        <path id="Trazado_132079" data-name="Trazado 132079" d="M93.6,71.754c.72-1.477,1.446-2.952,2.159-4.432.435-.9.842-1.818,1.274-2.722q1.946-4.069,3.9-8.135c.478-1,.935-2.011,1.4-3.016a.8.8,0,0,0,.109-.409c.481.234,1.174.354,1.381.736s-.324.917-.543,1.379q-3.994,8.423-8,16.842c-.2.418-.372.48-.742.252-.3-.186-.63-.331-.946-.494" transform="translate(-56.316 -31.912)" fill="#f1671f"/>
        <path id="Trazado_132080" data-name="Trazado 132080" d="M4.545,10.72H42.131c.709,0,.709,0,.709-.682q0-2.984,0-5.969c.824-.006,1.648-.007,2.473-.02.386-.006.55.17.549.554-.006,1.936-.012,3.872.006,5.808,0,.359-.144.408-.446.4-1.021-.011-2.043,0-3.064,0q-18.606,0-37.21,0c-.2,0-.425.1-.6-.1" transform="translate(-2.735 -2.436)" fill="#828282"/>
        <path id="Trazado_132081" data-name="Trazado 132081" d="M100.7,35.9q-.009-5.405-.018-10.811c.893-.009,1.787-.01,2.681-.031.251-.006.341.065.339.329-.012,1.378,0,2.756-.008,4.134a.745.745,0,0,1-.062.308q-1.462,3.037-2.932,6.07" transform="translate(-60.574 -15.074)" fill="#64b8fb"/>
        <path id="Trazado_132082" data-name="Trazado 132082" d="M112.277,42.03c-1.067-.5-2.131-1-3.2-1.487-.218-.1-.245-.2-.141-.406.341-.688.648-1.393,1-2.076a1.452,1.452,0,0,1,1.792-.692,11.918,11.918,0,0,1,2.083.965,1.281,1.281,0,0,1-.022,1.18,19.164,19.164,0,0,1-1.013,2.172c-.1.185-.167.463-.492.344" transform="translate(-65.505 -22.435)" fill="#fc4755"/>
        <path id="Trazado_132083" data-name="Trazado 132083" d="M117.416,43.609c.064-.027.164-.038.186-.085.545-1.166,1.366-2.232,1.341-3.61a1.608,1.608,0,0,1,.99,2.467c-.261.549-.543,1.089-.772,1.65-.133.327-.283.336-.556.184-.388-.217-.792-.405-1.188-.605" transform="translate(-70.644 -24.014)" fill="#e84343"/>
        <path id="Trazado_132084" data-name="Trazado 132084" d="M84.438,103.061c-1.122-.431-1.124-.431-1.043-1.611.034-.494.076-.987.121-1.561l2.887,1.417a.246.246,0,0,1-.069.289,9.489,9.489,0,0,1-1.459,1.376c-.133.092-.267.177-.437.09" transform="translate(-50.156 -60.099)" fill="#fbd69e"/>
        <path id="Trazado_132085" data-name="Trazado 132085" d="M86.059,105.2a6.81,6.81,0,0,0,1.965-1.756c.388.173.772.353,1.164.515.257.106.221.208.044.368q-.771.7-1.523,1.417a.323.323,0,0,1-.423.077c-.407-.211-.818-.415-1.227-.621" transform="translate(-51.778 -62.239)" fill="#f8c473"/>
        <path id="Trazado_132086" data-name="Trazado 132086" d="M82.714,113.158c.03-.672.057-1.217.077-1.761.008-.232.093-.247.3-.177,1.174.4,1.195.465.306,1.3l-.687.641" transform="translate(-49.765 -66.894)" fill="gray"/>
        <path id="Trazado_132087" data-name="Trazado 132087" d="M22.976,46.569c-.448,0-.9.012-1.344,0a1.1,1.1,0,0,1-1.162-1.146q-.029-2.93,0-5.86a1.107,1.107,0,0,1,1.162-1.153c.608-.024,1.22-.031,1.827,0a2.372,2.372,0,0,1,2.174,3.083.779.779,0,0,0,.231.907,2.389,2.389,0,0,1,.486,2.737,2.178,2.178,0,0,1-2.137,1.43c-.412.009-.824,0-1.236,0" transform="translate(-12.307 -23.096)"/>
        <path id="Trazado_132088" data-name="Trazado 132088" d="M75.881,42.412a17.125,17.125,0,0,1,.053-2.023,2.217,2.217,0,0,1,2.142-1.973c.877-.041,1.757-.025,2.635-.008a.79.79,0,0,1,.867.821c-.006.488-.321.777-.889.785-.771.011-1.542,0-2.313,0-.62.006-.863.217-.874.832-.02,1.147-.013,2.3,0,3.443,0,.417.192.676.656.666.538-.012,1.076.01,1.614-.01.645-.024.816-.277.8-1.117-.011-.614-.108-.7-.788-.712s-1.036-.3-1.028-.822.37-.792,1.058-.793a2.1,2.1,0,0,1,2.373,2.235c.031,1.765-.784,2.77-2.3,2.824-.555.02-1.112.012-1.668.008a2.175,2.175,0,0,1-2.33-2.312c-.013-.574,0-1.148,0-1.847" transform="translate(-45.65 -23.098)"/>
        <path id="Trazado_132089" data-name="Trazado 132089" d="M57.077,42.505c0-.483-.03-.969.006-1.449a3.039,3.039,0,0,1,6.036.093c.038.911.04,1.827,0,2.739a3.041,3.041,0,0,1-6.036.067c-.035-.481-.006-.966-.005-1.449" transform="translate(-34.333 -23.116)"/>
        <path id="Trazado_132090" data-name="Trazado 132090" d="M40.147,42.475c0-1.021,0-2.043,0-3.064,0-.609.335-.991.829-.973.475.018.78.383.782.97.005,1.7.013,3.405-.007,5.108,0,.362.066.5.46.481.823-.033,1.648-.014,2.473-.008.627,0,.977.309.967.825-.009.495-.345.782-.948.786q-1.8.01-3.6,0c-.662,0-.949-.292-.953-.951-.007-1.057,0-2.115,0-3.172" transform="translate(-24.154 -23.125)"/>
        <path id="Trazado_132091" data-name="Trazado 132091" d="M25.543,11h8.335a4.284,4.284,0,0,1,.59.02.786.786,0,0,1,.149,1.515,2,2,0,0,1-.635.076q-8.469.005-16.938,0a1.616,1.616,0,0,1-.637-.072.757.757,0,0,1-.516-.8.738.738,0,0,1,.672-.724,4.348,4.348,0,0,1,.59-.02h8.388" transform="translate(-9.559 -6.617)"/>
        <path id="Trazado_132092" data-name="Trazado 132092" d="M94.242,12.66a.843.843,0,0,1-.789-.848.8.8,0,0,1,.855-.766.77.77,0,0,1,.747.8.81.81,0,0,1-.813.809" transform="translate(-56.226 -6.645)" fill="#020202"/>
        <path id="Trazado_132093" data-name="Trazado 132093" d="M74.228,11.739a.794.794,0,0,1-.81.807.81.81,0,0,1,0-1.62.8.8,0,0,1,.806.813" transform="translate(-43.694 -6.573)" fill="#010101"/>
        <path id="Trazado_132094" data-name="Trazado 132094" d="M84.686,11.8a.838.838,0,0,1-.852.79.786.786,0,0,1-.75-.818A.769.769,0,0,1,83.918,11a.81.81,0,0,1,.768.807" transform="translate(-49.988 -6.615)" fill="#010101"/>
        <path id="Trazado_132095" data-name="Trazado 132095" d="M25.678,52.371c-1.188,0-1.175,0-1.176-1.206,0-.344.083-.472.445-.452.551.031,1.106,0,1.658.014a.716.716,0,0,1,.762.826.732.732,0,0,1-.779.816c-.036,0-.071,0-.107,0h-.8" transform="translate(-14.742 -30.51)" fill="#8cc9fa"/>
        <path id="Trazado_132096" data-name="Trazado 132096" d="M25.281,42.465c.944,0,1.283.288,1.186,1.008a.677.677,0,0,1-.614.646,2.392,2.392,0,0,1-1.167-.006c-.554-.258-.121-.847-.233-1.277-.053-.2-.008-.4.291-.374.178.015.358,0,.537,0" transform="translate(-14.678 -25.547)" fill="#8bc7f8"/>
        <path id="Trazado_132097" data-name="Trazado 132097" d="M61.118,44.934c0-.43-.026-.863.006-1.291a1.238,1.238,0,0,1,1.4-1.169,1.256,1.256,0,0,1,1.407,1.173c.039.859.038,1.723,0,2.582-.032.765-.584,1.19-1.439,1.185a1.216,1.216,0,0,1-1.375-1.19c-.029-.429,0-.86,0-1.291Z" transform="translate(-36.764 -25.555)" fill="#8cc9fb"/>
      </g>
    </g>
  </g>
</svg>
