<svg xmlns="http://www.w3.org/2000/svg" xmlns:xlink="http://www.w3.org/1999/xlink" width="90.773" height="90.773" viewBox="0 0 90.773 90.773">
  <defs>
    <clipPath id="clip-path">
      <rect id="Rectángulo_37907" data-name="Rectángulo 37907" width="52.418" height="50.401" fill="none"/>
    </clipPath>
  </defs>
  <g id="Grupo_157764" data-name="Grupo 157764" transform="translate(6399 6571)">
    <path id="Trazado_127482" data-name="Trazado 127482" d="M45.387,0A45.387,45.387,0,1,1,0,45.387,45.387,45.387,0,0,1,45.387,0Z" transform="translate(-6399 -6571)" fill="#b0c8cb"/>
    <g id="Grupo_156595" data-name="Grupo 156595" transform="translate(-6385.246 -6555.413)">
      <path id="Trazado_127053" data-name="Trazado 127053" d="M15.375,123.6c.416.093.513-.1.509-.492-.011-.974.006-.992,1.015-.986.375,0,.492-.114.485-.485-.007-.346-.07-.507-.469-.505-1.011,0-1.037-.017-1.026-1.026,0-.457-.219-.465-.558-.469s-.514.053-.514.459c0,1.022-.021,1.041-1.019,1.037-.386,0-.478.138-.479.5s.091.5.477.494c1.018-.006,1.042.013,1.02.978-.011.448.155.579.561.5" transform="translate(44.792 -83.878)" fill="#29c4bb"/>
      <path id="Trazado_127054" data-name="Trazado 127054" d="M213.5,151.159c-.373-.071-.579.052-.518.474.051.353-.071.55-.461.489s-.522.081-.525.492c0,.431.173.53.54.481.351-.047.462.105.455.455-.011.547.328.757.857.591.251-.079.2-.279.18-.437-.044-.432.055-.7.565-.611.395.067.419-.181.418-.484s-.013-.548-.414-.486c-.432.067-.636-.091-.564-.547.068-.436-.211-.455-.533-.417" transform="translate(-211.994 -104.948)" fill="#29c4bb"/>
      <path id="Trazado_127055" data-name="Trazado 127055" d="M207.478,69.132c-.1.416.094.558.484.492.422-.071.594.1.52.521s.1.5.5.507.558-.116.488-.511c-.075-.42.1-.594.518-.515s.471-.145.487-.509c.019-.427-.147-.539-.519-.474-.4.071-.555-.1-.487-.492.066-.378-.056-.531-.477-.516-.371.013-.586.066-.506.491s-.105.586-.52.516c-.39-.066-.58.074-.483.49" transform="translate(-204.437 -61.871)" fill="#010000"/>
      <path id="Trazado_127056" data-name="Trazado 127056" d="M51.8,186.5c-.091.388.1.53.488.46.455-.082.563.155.5.538-.072.426.134.493.509.49.358,0,.55-.083.475-.469-.1-.507.155-.631.591-.556s.427-.206.428-.513-.006-.549-.411-.47c-.544.108-.683-.154-.61-.641.07-.466-.285-.332-.522-.346s-.531-.047-.458.357c.09.5-.085.732-.614.63-.442-.085-.388.223-.375.519" transform="translate(-4.069 -127.272)" fill="#010000"/>
      <path id="Trazado_127057" data-name="Trazado 127057" d="M124.759,17.292c.1-.443-.141-.529-.5-.475s-.524-.1-.467-.47-.053-.539-.479-.53c-.392.008-.571.109-.5.512s-.121.547-.507.489c-.358-.054-.538.032-.54.47s.167.569.558.507c.413-.066.553.122.489.507-.072.432.16.482.524.49.389.008.516-.138.458-.495-.062-.391.082-.57.49-.5s.569-.1.48-.5" transform="translate(-94.9 -15.817)" fill="#29c4bb"/>
    </g>
    <g id="Grupo_158082" data-name="Grupo 158082" transform="translate(-6380 -6551)">
      <g id="Grupo_158082-2" data-name="Grupo 158082" clip-path="url(#clip-path)">
        <path id="Trazado_132181" data-name="Trazado 132181" d="M27.057,60.224l-.008-1.6c.233-.249.541-.174.822-.174,2.744-.007,5.489-.019,8.233.007a1.588,1.588,0,0,0,1.462-.739c.612-.879,1.277-1.723,1.921-2.58A4.159,4.159,0,0,0,39.8,54.7a.707.707,0,0,0-.566-1.147c-.253-.032-.508-.01-.763-.018-.7-.023-.815-.172-.62-.829.419-1.411.845-2.82,1.265-4.231q.327-1.1.658-2.193c.359-1.178.144-1.471-1.111-1.472q-5.153,0-10.305,0c-.254,0-.509.007-.764,0-.2-.009-.406.009-.549-.174v-1.71c.68-.2.747-.7.706-1.31-.038-.56-.015-1.126,0-1.69a.609.609,0,0,1,.672-.678c.2,0,.4-.009.6-.009H46.26c.939.01,1.042.1,1.042,1.026q0,13.116,0,26.232c0,.923-.1,1.024-1.043,1.025q-8.726.005-17.451,0c-.96,0-1.054-.1-1.061-1.068,0-.436-.031-.875.006-1.308.053-.606-.025-1.111-.7-1.309l.008-1.6c.173-.1.31.032.458.076a1.136,1.136,0,0,0,1.34-.425,1.059,1.059,0,0,0,0-1.307,1.137,1.137,0,0,0-1.34-.424c-.148.044-.285.174-.458.075" transform="translate(-16.528 -23.971)" fill="#7bb1f7"/>
        <path id="Trazado_132182" data-name="Trazado 132182" d="M25.656,50.379c.875.045.875.045.875.948,0,.709.022,1.418-.009,2.126-.016.369.11.445.455.443,2.417-.015,4.834-.008,7.251-.008,3.671,0,7.341-.007,11.012.011.415,0,.5-.109.5-.509q-.018-13.466,0-26.932c0-.4-.086-.51-.5-.51q-9.1.023-18.209,0c-.4,0-.532.078-.512.5.038.8-.022,1.6.023,2.4.028.5-.123.692-.616.606a1.183,1.183,0,0,0-.271.015c-.87-.044-.87-.044-.87-.945,0-1.4-.006-2.8,0-4.2a3.48,3.48,0,0,1,3.614-3.6c2.072-.007,4.145-.019,6.217.011.5.007.695-.074.656-.629-.057-.814,0-1.635-.021-2.453-.008-.314.044-.434.4-.434C37,17.22,37,17.2,37,18.556c0,.545.025,1.092-.008,1.636-.024.4.066.549.516.543,2.072-.028,4.144-.014,6.217-.012a3.5,3.5,0,0,1,3.748,3.741q0,15.46,0,30.921a3.5,3.5,0,0,1-3.751,3.739q-7.608,0-15.215,0a3.5,3.5,0,0,1-3.725-3.71c0-1.455.029-2.909-.015-4.362-.017-.547.123-.761.669-.657a.84.84,0,0,0,.216-.016" transform="translate(-15.136 -10.522)"/>
        <path id="Trazado_132183" data-name="Trazado 132183" d="M10.521,44.813l11.613.018c.163,0,.327,0,.491,0a.878.878,0,0,1,.912,1.234c-.679,2.3-1.371,4.586-2.057,6.879-.056.189-.1.38-.168.613.454,0,.87.008,1.285,0a.911.911,0,0,1,.91.472.877.877,0,0,1-.131,1.013c-.83,1.1-1.663,2.2-2.483,3.315a1.16,1.16,0,0,1-1.049.443c-2.908-.008-5.816,0-8.724,0-.2,0-.4.011-.6.017C9.758,58.807,9,58.791,8.233,58.8c-.262,0-.326-.074-.335-.334-.054-1.418-.062-1.417,1.371-1.419.417,0,.835-.011,1.252-.017a1.271,1.271,0,0,1,.841-.149q3.623-.006,7.246,0a1.718,1.718,0,0,0,1.89-1.345,1.06,1.06,0,0,0-.583-.061q-4.277-.006-8.554,0a1.274,1.274,0,0,1-.841-.149c-.818-.006-1.636-.009-2.453-.019a.9.9,0,0,1-1.043-.87c-.8-4.208-1.6-8.416-2.367-12.63-.076-.417-.232-.478-.6-.471-1.2.02-2.4-.005-3.6.016-.333.006-.457-.072-.418-.416.048-.429-.176-.995.085-1.257S.955,39.6,1.386,39.6c1.236-.01,2.473-.007,3.709,0,.685,0,.946.22,1.075.894.254,1.319.512,2.637.743,3.959.051.291.142.4.445.389,1.054-.023,2.108-.019,3.162-.025" transform="translate(0 -24.158)"/>
        <path id="Trazado_132184" data-name="Trazado 132184" d="M94.368,31.823c0-1.69,0-3.38,0-5.07a2.614,2.614,0,0,1,2.756-2.776q5.1-.007,10.194,0a2.611,2.611,0,0,1,2.758,2.774q.007,5.069,0,10.139a2.621,2.621,0,0,1-2.793,2.8c-.763,0-1.527.021-2.289-.008a.631.631,0,0,0-.705.421c-.377.823-.8,1.624-1.2,2.438a.905.905,0,0,1-1.73,0c-.407-.829-.835-1.648-1.225-2.485a.571.571,0,0,0-.626-.372c-.835.021-1.672.017-2.508,0a2.6,2.6,0,0,1-2.629-2.627c-.014-1.744,0-3.488,0-5.233" transform="translate(-57.662 -14.649)"/>
        <path id="Trazado_132185" data-name="Trazado 132185" d="M98.235,99.239c-.56,0-1.275.2-1.636-.072-.341-.256-.1-1.016-.1-1.554-.012-1.981-.007-3.961,0-5.942a3.5,3.5,0,0,1,3.78-3.762h.579a4.434,4.434,0,0,1-1.732-3.722,4.224,4.224,0,0,1,1.347-2.944,4.358,4.358,0,0,1,6.053.035c1.861,1.815,1.74,4.336-.335,6.612a12,12,0,0,1,1.574.112,3.443,3.443,0,0,1,2.685,3.233c.033,2.562.009,5.124.019,7.687,0,.254-.057.353-.328.339-.471-.025-.944-.016-1.416-.021a1.1,1.1,0,0,1-.173-.83c-.005-2.109,0-4.217,0-6.326,0-.218.006-.436-.009-.654a1.546,1.546,0,0,0-1.6-1.592q-3.462-.053-6.925,0a1.558,1.558,0,0,0-1.6,1.755c-.018,2.272,0,4.544-.009,6.816a1.1,1.1,0,0,1-.173.83" transform="translate(-58.917 -48.907)"/>
        <path id="Trazado_132186" data-name="Trazado 132186" d="M101.089,114.346q0-3.791.007-7.582a1.777,1.777,0,0,1,2.017-2q3.246,0,6.491,0a1.77,1.77,0,0,1,1.965,1.949q.007,3.819.007,7.636h-.886a1.141,1.141,0,0,1-.164-.833c-.006-2.016,0-4.031,0-6.047,0-.727-.426-1-1.132-.754-.308.109-.257.368-.26.591-.012,1.072,0,2.143-.005,3.214,0,1.035,0,2.07,0,3.105a.977.977,0,0,1-.165.724h-5.25a1.143,1.143,0,0,1-.164-.833c-.005-2.016,0-4.031,0-6.047,0-.727-.426-1-1.132-.754-.308.109-.257.368-.26.591-.012,1.072,0,2.143-.005,3.214,0,1.035,0,2.07,0,3.105a.977.977,0,0,1-.164.724h-.886" transform="translate(-61.771 -64.013)" fill="#628dc4"/>
        <path id="Trazado_132187" data-name="Trazado 132187" d="M27.049,80.124H37.5l-1.218,1.627c-.091.122-.224.1-.349.1l-8.887-.017v-1.71" transform="translate(-16.528 -48.96)" fill="#7cb1f7"/>
        <path id="Trazado_132188" data-name="Trazado 132188" d="M103.345,117.071c0-2.472,0-4.943-.013-7.415,0-.322.067-.433.416-.435,1.336-.01,1.337-.024,1.336,1.308q0,3.271-.006,6.542h-1.733" transform="translate(-63.141 -66.739)"/>
        <path id="Trazado_132189" data-name="Trazado 132189" d="M121.3,117.071c0-2.472,0-4.943-.013-7.415,0-.322.067-.433.416-.435,1.336-.01,1.337-.024,1.336,1.308q0,3.271-.006,6.542H121.3" transform="translate(-74.111 -66.739)"/>
        <path id="Trazado_132190" data-name="Trazado 132190" d="M33.772,4.079A8.086,8.086,0,0,1,34.759.27c.155-.289.278-.361.561-.144.329.252.836.379,1.008.7s-.259.689-.392,1.053a6.014,6.014,0,0,0,.324,5.094c.151.287.163.448-.142.588a3.355,3.355,0,0,0-.373.222c-.811.507-.808.506-1.215-.347a7.809,7.809,0,0,1-.757-3.356" transform="translate(-20.636 0)"/>
        <path id="Trazado_132191" data-name="Trazado 132191" d="M70.115,4.161a8.042,8.042,0,0,1-.982,3.758c-.141.261-.241.413-.55.17-.325-.256-.834-.377-1.011-.7-.192-.346.259-.72.394-1.1a6.034,6.034,0,0,0-.331-5.042c-.168-.32-.142-.469.17-.62a3.074,3.074,0,0,0,.644-.4c.35-.3.538-.239.745.179a8.437,8.437,0,0,1,.921,3.749" transform="translate(-41.262 -0.029)"/>
        <path id="Trazado_132192" data-name="Trazado 132192" d="M42.758,6.942a4.522,4.522,0,0,1,.518-2.03c.113-.22.221-.252.405-.1a2.4,2.4,0,0,0,.226.151,3.1,3.1,0,0,1,.849.57c.225.3-.159.605-.208.932a2.6,2.6,0,0,0,.2,1.587c.134.267.073.387-.158.508-.16.083-.309.187-.462.284-.8.5-.8.5-1.119-.408a4.13,4.13,0,0,1-.253-1.492" transform="translate(-26.126 -2.883)"/>
        <path id="Trazado_132193" data-name="Trazado 132193" d="M61.951,7.248a4.5,4.5,0,0,1-.516,1.862c-.114.223-.222.245-.4.1-.071-.056-.151-.1-.227-.149a3.123,3.123,0,0,1-.849-.569c-.229-.3.155-.606.2-.932a2.618,2.618,0,0,0-.2-1.587c-.129-.263-.083-.385.158-.505a5.8,5.8,0,0,0,.506-.315c.725-.458.723-.457,1.03.335a4.525,4.525,0,0,1,.3,1.757" transform="translate(-36.591 -2.961)"/>
        <path id="Trazado_132194" data-name="Trazado 132194" d="M26.361,92.742a1.331,1.331,0,0,1,1.82.116,1.282,1.282,0,0,1,.133,1.6,1.314,1.314,0,1,1-1.953-1.717" transform="translate(-15.832 -56.488)"/>
        <path id="Trazado_132195" data-name="Trazado 132195" d="M52.6,10.017a.871.871,0,1,1,.882-.846.874.874,0,0,1-.882.846" transform="translate(-31.619 -5.057)" fill="#030303"/>
        <path id="Trazado_132196" data-name="Trazado 132196" d="M44.26,93.754a1.306,1.306,0,1,1-1.3-1.326,1.32,1.32,0,0,1,1.3,1.326" transform="translate(-25.449 -56.478)"/>
        <path id="Trazado_132197" data-name="Trazado 132197" d="M38.91,32.455c-3.035,0-6.07-.011-9.1.011-.486,0-.549-.131-.4-.55a1.756,1.756,0,0,1,1.755-1.2q4.525-.007,9.05,0c2.163,0,4.325,0,6.488,0a1.749,1.749,0,0,1,1.739,1.226c.128.373.126.534-.37.53-3.053-.025-6.106-.012-9.159-.012" transform="translate(-17.925 -18.764)" fill="#e5edf2"/>
        <path id="Trazado_132198" data-name="Trazado 132198" d="M38.943,115.969h9.05c.589,0,.62.046.414.6a1.773,1.773,0,0,1-1.8,1.141q-5.425,0-10.849,0c-1.545,0-3.089.006-4.634,0a1.77,1.77,0,0,1-1.748-1.291c-.112-.364-.035-.462.355-.46,3.071.015,6.142.008,9.213.008" transform="translate(-17.921 -70.858)" fill="#e5edf2"/>
        <path id="Trazado_132199" data-name="Trazado 132199" d="M26.024,57.622c2.2,0,4.4.013,6.6-.011.458-.005.5.123.38.515-.62,2.01-1.232,4.024-1.82,6.044a.522.522,0,0,1-.611.44q-4.935-.017-9.87,0c-.38,0-.523-.095-.594-.494-.355-2.017-.749-4.028-1.144-6.038-.074-.376.044-.466.407-.464,2.217.013,4.435.007,6.653.007" transform="translate(-11.575 -35.203)" fill="#4f5d75"/>
        <path id="Trazado_132200" data-name="Trazado 132200" d="M104.969,43.089c-.326-.654-.612-1.212-.881-1.777a1.023,1.023,0,0,0-1.039-.632c-1.036.016-2.073.008-3.109,0-.756,0-1.078-.309-1.079-1.043q-.006-5.072,0-10.144c0-.71.322-1.028,1.036-1.029q5.072-.006,10.144,0c.711,0,1.034.321,1.035,1.031q.006,5.072,0,10.144c0,.714-.321,1.036-1.026,1.04-1.054.007-2.109.013-3.163,0a1.021,1.021,0,0,0-1.037.634c-.268.566-.555,1.122-.881,1.775" transform="translate(-60.408 -17.393)" fill="#e5edf2"/>
        <path id="Trazado_132201" data-name="Trazado 132201" d="M113.073,87.173a2.616,2.616,0,1,1-2.606-2.6,2.628,2.628,0,0,1,2.606,2.6" transform="translate(-65.897 -51.68)" fill="#fece93"/>
        <path id="Trazado_132202" data-name="Trazado 132202" d="M108.749,38.594c.338.03.7-.053,1.058.322.286.3.86.166,1.3.039a.356.356,0,0,0,.2-.459.4.4,0,0,0-.381-.331c-.327-.011-.654,0-.981-.011a2.192,2.192,0,0,1-2.082-1.822,2.134,2.134,0,0,1,1.291-2.338c.347-.138.5-.3.428-.662-.063-.333.067-.464.408-.415a2.315,2.315,0,0,0,.544,0c.509-.05.961-.054.8.684-.058.258.162.265.329.334a2.227,2.227,0,0,1,1.39,1.69c.051.236.024.375-.277.356-.38-.024-.763,0-1.144-.007-.09,0-.244.012-.26-.027-.271-.652-.839-.348-1.286-.4a.4.4,0,0,0-.487.447.411.411,0,0,0,.469.418c.309,0,.618-.009.926.005a2.19,2.19,0,0,1,2.05,1.793,2.115,2.115,0,0,1-1.261,2.35c-.384.151-.507.34-.45.705.048.307-.07.427-.382.388a2.447,2.447,0,0,0-.544,0c-.531.054-.984.04-.825-.711.048-.227-.149-.236-.3-.3a2.245,2.245,0,0,1-1.355-1.46c-.158-.486-.065-.677.46-.591a2.663,2.663,0,0,0,.375,0" transform="translate(-65.886 -20.103)"/>
      </g>
    </g>
  </g>
</svg>
