<svg xmlns="http://www.w3.org/2000/svg" width="85.523" height="93.198" viewBox="0 0 85.523 93.198">
  <g id="Grupo_157746" data-name="Grupo 157746" transform="translate(-180.477 -1108)">
    <path id="Trazado_99274" data-name="Trazado 99274" d="M418.688,119.934a2.239,2.239,0,1,1-2.238-2.14A2.191,2.191,0,0,1,418.688,119.934Z" transform="translate(-233.736 990.206)" fill="#1169e3"/>
    <path id="Trazado_116550" data-name="Trazado 116550" d="M418.688,119.934a2.239,2.239,0,1,1-2.238-2.14A2.191,2.191,0,0,1,418.688,119.934Z" transform="translate(-233.736 1023.549)" fill="#1169e3"/>
    <path id="Trazado_130913" data-name="Trazado 130913" d="M418.688,119.934a2.239,2.239,0,1,1-2.238-2.14A2.191,2.191,0,0,1,418.688,119.934Z" transform="translate(-233.736 1056.894)" fill="#1169e3"/>
    <path id="Trazado_116529" data-name="Trazado 116529" d="M418.688,119.934a2.239,2.239,0,1,1-2.238-2.14A2.191,2.191,0,0,1,418.688,119.934Z" transform="translate(-183.081 990.206)" fill="#1169e3"/>
    <path id="Trazado_116551" data-name="Trazado 116551" d="M418.688,119.934a2.239,2.239,0,1,1-2.238-2.14A2.191,2.191,0,0,1,418.688,119.934Z" transform="translate(-183.081 1023.549)" fill="#1169e3"/>
    <path id="Trazado_130924" data-name="Trazado 130924" d="M418.688,119.934a2.239,2.239,0,1,1-2.238-2.14A2.191,2.191,0,0,1,418.688,119.934Z" transform="translate(-183.081 1056.894)" fill="#1169e3"/>
    <path id="Trazado_99275" data-name="Trazado 99275" d="M427.134,119.934a2.239,2.239,0,1,1-2.236-2.14A2.19,2.19,0,0,1,427.134,119.934Z" transform="translate(-232.052 990.206)" fill="#1169e3"/>
    <path id="Trazado_116552" data-name="Trazado 116552" d="M427.134,119.934a2.239,2.239,0,1,1-2.236-2.14A2.19,2.19,0,0,1,427.134,119.934Z" transform="translate(-232.052 1023.549)" fill="#1169e3"/>
    <path id="Trazado_130914" data-name="Trazado 130914" d="M427.134,119.934a2.239,2.239,0,1,1-2.236-2.14A2.19,2.19,0,0,1,427.134,119.934Z" transform="translate(-232.052 1056.894)" fill="#1169e3"/>
    <path id="Trazado_116530" data-name="Trazado 116530" d="M427.134,119.934a2.239,2.239,0,1,1-2.236-2.14A2.19,2.19,0,0,1,427.134,119.934Z" transform="translate(-181.396 990.206)" fill="#1169e3"/>
    <path id="Trazado_116553" data-name="Trazado 116553" d="M427.134,119.934a2.239,2.239,0,1,1-2.236-2.14A2.19,2.19,0,0,1,427.134,119.934Z" transform="translate(-181.396 1023.549)" fill="#1169e3"/>
    <path id="Trazado_130925" data-name="Trazado 130925" d="M427.134,119.934a2.239,2.239,0,1,1-2.236-2.14A2.19,2.19,0,0,1,427.134,119.934Z" transform="translate(-181.396 1056.894)" fill="#1169e3"/>
    <path id="Trazado_99276" data-name="Trazado 99276" d="M435.58,119.934a2.239,2.239,0,1,1-2.236-2.14A2.191,2.191,0,0,1,435.58,119.934Z" transform="translate(-230.366 990.206)" fill="#1169e3"/>
    <path id="Trazado_116554" data-name="Trazado 116554" d="M435.58,119.934a2.239,2.239,0,1,1-2.236-2.14A2.191,2.191,0,0,1,435.58,119.934Z" transform="translate(-230.366 1023.549)" fill="#1169e3"/>
    <path id="Trazado_130915" data-name="Trazado 130915" d="M435.58,119.934a2.239,2.239,0,1,1-2.236-2.14A2.191,2.191,0,0,1,435.58,119.934Z" transform="translate(-230.366 1056.894)" fill="#1169e3"/>
    <path id="Trazado_116534" data-name="Trazado 116534" d="M435.58,119.934a2.239,2.239,0,1,1-2.236-2.14A2.191,2.191,0,0,1,435.58,119.934Z" transform="translate(-179.711 990.206)" fill="#1169e3"/>
    <path id="Trazado_116555" data-name="Trazado 116555" d="M435.58,119.934a2.239,2.239,0,1,1-2.236-2.14A2.191,2.191,0,0,1,435.58,119.934Z" transform="translate(-179.711 1023.549)" fill="#1169e3"/>
    <path id="Trazado_130928" data-name="Trazado 130928" d="M435.58,119.934a2.239,2.239,0,1,1-2.236-2.14A2.191,2.191,0,0,1,435.58,119.934Z" transform="translate(-179.711 1056.894)" fill="#1169e3"/>
    <path id="Trazado_99277" data-name="Trazado 99277" d="M444.027,119.934a2.239,2.239,0,1,1-2.238-2.14A2.191,2.191,0,0,1,444.027,119.934Z" transform="translate(-228.683 990.206)" fill="#1169e3"/>
    <path id="Trazado_116556" data-name="Trazado 116556" d="M444.027,119.934a2.239,2.239,0,1,1-2.238-2.14A2.191,2.191,0,0,1,444.027,119.934Z" transform="translate(-228.683 1023.549)" fill="#1169e3"/>
    <path id="Trazado_130918" data-name="Trazado 130918" d="M444.027,119.934a2.239,2.239,0,1,1-2.238-2.14A2.191,2.191,0,0,1,444.027,119.934Z" transform="translate(-228.683 1056.894)" fill="#1169e3"/>
    <path id="Trazado_116535" data-name="Trazado 116535" d="M444.027,119.934a2.239,2.239,0,1,1-2.238-2.14A2.191,2.191,0,0,1,444.027,119.934Z" transform="translate(-178.026 990.206)" fill="#1169e3"/>
    <path id="Trazado_116557" data-name="Trazado 116557" d="M444.027,119.934a2.239,2.239,0,1,1-2.238-2.14A2.191,2.191,0,0,1,444.027,119.934Z" transform="translate(-178.026 1023.549)" fill="#1169e3"/>
    <path id="Trazado_130929" data-name="Trazado 130929" d="M444.027,119.934a2.239,2.239,0,1,1-2.238-2.14A2.191,2.191,0,0,1,444.027,119.934Z" transform="translate(-178.026 1056.894)" fill="#1169e3"/>
    <path id="Trazado_99278" data-name="Trazado 99278" d="M452.473,119.934a2.239,2.239,0,1,1-2.236-2.14A2.19,2.19,0,0,1,452.473,119.934Z" transform="translate(-226.997 990.206)" fill="#1169e3"/>
    <path id="Trazado_116558" data-name="Trazado 116558" d="M452.473,119.934a2.239,2.239,0,1,1-2.236-2.14A2.19,2.19,0,0,1,452.473,119.934Z" transform="translate(-226.997 1023.549)" fill="#1169e3"/>
    <path id="Trazado_130921" data-name="Trazado 130921" d="M452.473,119.934a2.239,2.239,0,1,1-2.236-2.14A2.19,2.19,0,0,1,452.473,119.934Z" transform="translate(-226.997 1056.894)" fill="#1169e3"/>
    <ellipse id="Elipse_3980" data-name="Elipse 3980" cx="2.237" cy="2.139" rx="2.237" ry="2.139" transform="translate(180.477 1119.117)" fill="#1169e3"/>
    <ellipse id="Elipse_4754" data-name="Elipse 4754" cx="2.237" cy="2.139" rx="2.237" ry="2.139" transform="translate(180.477 1152.46)" fill="#1169e3"/>
    <ellipse id="Elipse_4893" data-name="Elipse 4893" cx="2.237" cy="2.139" rx="2.237" ry="2.139" transform="translate(180.477 1185.805)" fill="#1169e3"/>
    <ellipse id="Elipse_4744" data-name="Elipse 4744" cx="2.237" cy="2.139" rx="2.237" ry="2.139" transform="translate(231.133 1119.117)" fill="#1169e3"/>
    <ellipse id="Elipse_4750" data-name="Elipse 4750" cx="2.237" cy="2.139" rx="2.237" ry="2.139" transform="translate(231.133 1152.46)" fill="#1169e3"/>
    <ellipse id="Elipse_4897" data-name="Elipse 4897" cx="2.237" cy="2.139" rx="2.237" ry="2.139" transform="translate(231.133 1185.805)" fill="#1169e3"/>
    <path id="Trazado_99285" data-name="Trazado 99285" d="M427.134,127.442a2.239,2.239,0,1,1-2.236-2.14A2.189,2.189,0,0,1,427.134,127.442Z" transform="translate(-232.052 993.813)" fill="#1169e3"/>
    <path id="Trazado_116548" data-name="Trazado 116548" d="M427.134,127.442a2.239,2.239,0,1,1-2.236-2.14A2.189,2.189,0,0,1,427.134,127.442Z" transform="translate(-232.052 1027.155)" fill="#1169e3"/>
    <path id="Trazado_130916" data-name="Trazado 130916" d="M427.134,127.442a2.239,2.239,0,1,1-2.236-2.14A2.189,2.189,0,0,1,427.134,127.442Z" transform="translate(-232.052 1060.5)" fill="#1169e3"/>
    <path id="Trazado_116536" data-name="Trazado 116536" d="M427.134,127.442a2.239,2.239,0,1,1-2.236-2.14A2.189,2.189,0,0,1,427.134,127.442Z" transform="translate(-181.396 993.813)" fill="#1169e3"/>
    <path id="Trazado_116542" data-name="Trazado 116542" d="M427.134,127.442a2.239,2.239,0,1,1-2.236-2.14A2.189,2.189,0,0,1,427.134,127.442Z" transform="translate(-181.396 1027.155)" fill="#1169e3"/>
    <path id="Trazado_130926" data-name="Trazado 130926" d="M427.134,127.442a2.239,2.239,0,1,1-2.236-2.14A2.189,2.189,0,0,1,427.134,127.442Z" transform="translate(-181.396 1060.5)" fill="#1169e3"/>
    <ellipse id="Elipse_3981" data-name="Elipse 3981" cx="2.237" cy="2.139" rx="2.237" ry="2.139" transform="translate(200.739 1119.117)" fill="#1169e3"/>
    <ellipse id="Elipse_4751" data-name="Elipse 4751" cx="2.237" cy="2.139" rx="2.237" ry="2.139" transform="translate(200.739 1152.46)" fill="#1169e3"/>
    <ellipse id="Elipse_4894" data-name="Elipse 4894" cx="2.237" cy="2.139" rx="2.237" ry="2.139" transform="translate(200.739 1185.805)" fill="#1169e3"/>
    <ellipse id="Elipse_4745" data-name="Elipse 4745" cx="2.237" cy="2.139" rx="2.237" ry="2.139" transform="translate(251.395 1119.117)" fill="#1169e3"/>
    <ellipse id="Elipse_4752" data-name="Elipse 4752" cx="2.237" cy="2.139" rx="2.237" ry="2.139" transform="translate(251.395 1152.46)" fill="#1169e3"/>
    <ellipse id="Elipse_4899" data-name="Elipse 4899" cx="2.237" cy="2.139" rx="2.237" ry="2.139" transform="translate(251.395 1185.805)" fill="#1169e3"/>
    <path id="Trazado_99286" data-name="Trazado 99286" d="M444.027,127.442a2.239,2.239,0,1,1-2.238-2.14A2.189,2.189,0,0,1,444.027,127.442Z" transform="translate(-228.683 993.813)" fill="#1169e3"/>
    <path id="Trazado_116543" data-name="Trazado 116543" d="M444.027,127.442a2.239,2.239,0,1,1-2.238-2.14A2.189,2.189,0,0,1,444.027,127.442Z" transform="translate(-228.683 1027.155)" fill="#1169e3"/>
    <path id="Trazado_130919" data-name="Trazado 130919" d="M444.027,127.442a2.239,2.239,0,1,1-2.238-2.14A2.189,2.189,0,0,1,444.027,127.442Z" transform="translate(-228.683 1060.5)" fill="#1169e3"/>
    <path id="Trazado_116537" data-name="Trazado 116537" d="M444.027,127.442a2.239,2.239,0,1,1-2.238-2.14A2.189,2.189,0,0,1,444.027,127.442Z" transform="translate(-178.026 993.813)" fill="#1169e3"/>
    <path id="Trazado_116544" data-name="Trazado 116544" d="M444.027,127.442a2.239,2.239,0,1,1-2.238-2.14A2.189,2.189,0,0,1,444.027,127.442Z" transform="translate(-178.026 1027.155)" fill="#1169e3"/>
    <path id="Trazado_130930" data-name="Trazado 130930" d="M444.027,127.442a2.239,2.239,0,1,1-2.238-2.14A2.189,2.189,0,0,1,444.027,127.442Z" transform="translate(-178.026 1060.5)" fill="#1169e3"/>
    <path id="Trazado_99287" data-name="Trazado 99287" d="M452.473,127.442a2.239,2.239,0,1,1-2.236-2.14A2.189,2.189,0,0,1,452.473,127.442Z" transform="translate(-226.997 993.813)" fill="#1169e3"/>
    <path id="Trazado_116545" data-name="Trazado 116545" d="M452.473,127.442a2.239,2.239,0,1,1-2.236-2.14A2.189,2.189,0,0,1,452.473,127.442Z" transform="translate(-226.997 1027.155)" fill="#1169e3"/>
    <path id="Trazado_130922" data-name="Trazado 130922" d="M452.473,127.442a2.239,2.239,0,1,1-2.236-2.14A2.189,2.189,0,0,1,452.473,127.442Z" transform="translate(-226.997 1060.5)" fill="#1169e3"/>
    <ellipse id="Elipse_3985" data-name="Elipse 3985" cx="2.237" cy="2.139" rx="2.237" ry="2.139" transform="translate(180.477 1130.229)" fill="#1169e3"/>
    <ellipse id="Elipse_4879" data-name="Elipse 4879" cx="2.237" cy="2.139" rx="2.237" ry="2.139" transform="translate(180.477 1163.573)" fill="#1169e3"/>
    <ellipse id="Elipse_4895" data-name="Elipse 4895" cx="2.237" cy="2.139" rx="2.237" ry="2.139" transform="translate(180.477 1196.918)" fill="#1169e3"/>
    <ellipse id="Elipse_4746" data-name="Elipse 4746" cx="2.237" cy="2.139" rx="2.237" ry="2.139" transform="translate(231.133 1130.229)" fill="#1169e3"/>
    <ellipse id="Elipse_4880" data-name="Elipse 4880" cx="2.237" cy="2.139" rx="2.237" ry="2.139" transform="translate(231.133 1163.573)" fill="#1169e3"/>
    <ellipse id="Elipse_4898" data-name="Elipse 4898" cx="2.237" cy="2.139" rx="2.237" ry="2.139" transform="translate(231.133 1196.918)" fill="#1169e3"/>
    <path id="Trazado_99291" data-name="Trazado 99291" d="M427.134,134.95a2.239,2.239,0,1,1-2.236-2.14A2.189,2.189,0,0,1,427.134,134.95Z" transform="translate(-232.052 997.421)" fill="#1169e3"/>
    <path id="Trazado_128959" data-name="Trazado 128959" d="M427.134,134.95a2.239,2.239,0,1,1-2.236-2.14A2.189,2.189,0,0,1,427.134,134.95Z" transform="translate(-232.052 1030.765)" fill="#1169e3"/>
    <path id="Trazado_130917" data-name="Trazado 130917" d="M427.134,134.95a2.239,2.239,0,1,1-2.236-2.14A2.189,2.189,0,0,1,427.134,134.95Z" transform="translate(-232.052 1064.109)" fill="#1169e3"/>
    <path id="Trazado_116538" data-name="Trazado 116538" d="M427.134,134.95a2.239,2.239,0,1,1-2.236-2.14A2.189,2.189,0,0,1,427.134,134.95Z" transform="translate(-181.396 997.421)" fill="#1169e3"/>
    <path id="Trazado_128960" data-name="Trazado 128960" d="M427.134,134.95a2.239,2.239,0,1,1-2.236-2.14A2.189,2.189,0,0,1,427.134,134.95Z" transform="translate(-181.396 1030.765)" fill="#1169e3"/>
    <path id="Trazado_130927" data-name="Trazado 130927" d="M427.134,134.95a2.239,2.239,0,1,1-2.236-2.14A2.189,2.189,0,0,1,427.134,134.95Z" transform="translate(-181.396 1064.109)" fill="#1169e3"/>
    <ellipse id="Elipse_3986" data-name="Elipse 3986" cx="2.237" cy="2.139" rx="2.237" ry="2.139" transform="translate(200.739 1130.229)" fill="#1169e3"/>
    <ellipse id="Elipse_4881" data-name="Elipse 4881" cx="2.237" cy="2.139" rx="2.237" ry="2.139" transform="translate(200.739 1163.573)" fill="#1169e3"/>
    <ellipse id="Elipse_4896" data-name="Elipse 4896" cx="2.237" cy="2.139" rx="2.237" ry="2.139" transform="translate(200.739 1196.918)" fill="#1169e3"/>
    <ellipse id="Elipse_4747" data-name="Elipse 4747" cx="2.237" cy="2.139" rx="2.237" ry="2.139" transform="translate(251.395 1130.229)" fill="#1169e3"/>
    <ellipse id="Elipse_4882" data-name="Elipse 4882" cx="2.237" cy="2.139" rx="2.237" ry="2.139" transform="translate(251.395 1163.573)" fill="#1169e3"/>
    <ellipse id="Elipse_4900" data-name="Elipse 4900" cx="2.237" cy="2.139" rx="2.237" ry="2.139" transform="translate(251.395 1196.918)" fill="#1169e3"/>
    <path id="Trazado_99292" data-name="Trazado 99292" d="M444.027,134.95a2.239,2.239,0,1,1-2.238-2.14A2.189,2.189,0,0,1,444.027,134.95Z" transform="translate(-228.683 997.421)" fill="#1169e3"/>
    <path id="Trazado_128961" data-name="Trazado 128961" d="M444.027,134.95a2.239,2.239,0,1,1-2.238-2.14A2.189,2.189,0,0,1,444.027,134.95Z" transform="translate(-228.683 1030.765)" fill="#1169e3"/>
    <path id="Trazado_130920" data-name="Trazado 130920" d="M444.027,134.95a2.239,2.239,0,1,1-2.238-2.14A2.189,2.189,0,0,1,444.027,134.95Z" transform="translate(-228.683 1064.109)" fill="#1169e3"/>
    <path id="Trazado_116539" data-name="Trazado 116539" d="M444.027,134.95a2.239,2.239,0,1,1-2.238-2.14A2.189,2.189,0,0,1,444.027,134.95Z" transform="translate(-178.026 997.421)" fill="#1169e3"/>
    <path id="Trazado_128962" data-name="Trazado 128962" d="M444.027,134.95a2.239,2.239,0,1,1-2.238-2.14A2.189,2.189,0,0,1,444.027,134.95Z" transform="translate(-178.026 1030.765)" fill="#1169e3"/>
    <path id="Trazado_130931" data-name="Trazado 130931" d="M444.027,134.95a2.239,2.239,0,1,1-2.238-2.14A2.189,2.189,0,0,1,444.027,134.95Z" transform="translate(-178.026 1064.109)" fill="#1169e3"/>
    <path id="Trazado_99293" data-name="Trazado 99293" d="M452.473,134.95a2.239,2.239,0,1,1-2.236-2.14A2.189,2.189,0,0,1,452.473,134.95Z" transform="translate(-226.997 997.421)" fill="#1169e3"/>
    <path id="Trazado_128963" data-name="Trazado 128963" d="M452.473,134.95a2.239,2.239,0,1,1-2.236-2.14A2.189,2.189,0,0,1,452.473,134.95Z" transform="translate(-226.997 1030.765)" fill="#1169e3"/>
    <path id="Trazado_130923" data-name="Trazado 130923" d="M452.473,134.95a2.239,2.239,0,1,1-2.236-2.14A2.189,2.189,0,0,1,452.473,134.95Z" transform="translate(-226.997 1064.109)" fill="#1169e3"/>
  </g>
</svg>
