<svg xmlns="http://www.w3.org/2000/svg" width="69" height="84" viewBox="0 0 69 84">
  <g id="Grupo_157740" data-name="Grupo 157740" transform="translate(-323 -10916.998)">
    <g id="Grupo_156377" data-name="Grupo 156377" transform="translate(323.373 10917.389)">
      <rect id="Rectángulo_36766" data-name="Rectángulo 36766" width="69" height="84" rx="12" transform="translate(-0.373 -0.391)" fill="#1169e3"/>
    </g>
    <g id="Grupo_156647" data-name="Grupo 156647" transform="translate(1)">
      <g id="Grupo_156582" data-name="Grupo 156582" transform="translate(-26 6270)">
        <path id="Trazado_127053" data-name="Trazado 127053" d="M15.507,123.96c-.454.1-.559-.113-.555-.537.012-1.063-.007-1.081-1.106-1.075-.409,0-.536-.124-.528-.529.007-.377.077-.553.512-.551,1.1,0,1.131-.018,1.119-1.119-.005-.5.239-.507.608-.511s.56.058.56.5c0,1.115.023,1.135,1.112,1.131.421,0,.521.15.522.541s-.1.541-.52.539c-1.11-.006-1.137.014-1.112,1.066.012.488-.169.631-.611.545" transform="translate(339.683 4573.993)" fill="#29c4bb"/>
        <path id="Trazado_127054" data-name="Trazado 127054" d="M213.642,151.161c.406-.078.632.057.565.517-.056.385.077.6.5.533s.57.088.573.537c0,.47-.189.578-.589.525-.383-.052-.5.115-.5.5.012.6-.357.826-.934.645-.274-.086-.214-.3-.2-.477.048-.472-.06-.76-.616-.666-.431.073-.457-.2-.456-.527s.014-.6.451-.53c.471.073.694-.1.616-.6-.075-.475.23-.5.582-.454" transform="translate(195.806 4552.685)" fill="#29c4bb"/>
        <path id="Trazado_127055" data-name="Trazado 127055" d="M210.718,69.268c.1.453-.1.608-.527.537-.46-.078-.648.111-.567.569s-.113.548-.542.553-.609-.127-.532-.557c.082-.459-.109-.648-.565-.562-.472.089-.513-.158-.531-.555-.021-.466.16-.588.566-.517.441.077.606-.106.531-.537-.072-.412.061-.579.521-.563.4.014.639.072.552.536s.115.639.567.563c.425-.072.632.081.526.534" transform="translate(199.254 4608.526)" fill="#010000"/>
        <path id="Trazado_127056" data-name="Trazado 127056" d="M55.04,186.64c.1.423-.11.578-.532.5-.5-.09-.614.169-.543.587.079.465-.146.537-.555.535-.39,0-.6-.091-.518-.511.108-.553-.169-.688-.645-.607s-.466-.225-.467-.559.007-.6.448-.512c.593.117.745-.168.665-.7-.077-.508.311-.362.569-.377.274-.016.579-.052.5.389-.1.545.092.8.67.687.482-.092.423.243.409.566" transform="translate(311.829 4530.025)" fill="#010000"/>
        <path id="Trazado_127057" data-name="Trazado 127057" d="M121.786,17.426c-.114-.483.153-.577.548-.518.41.061.572-.109.509-.513s.058-.588.522-.578c.427.009.623.119.548.558s.131.6.553.533c.391-.059.587.035.589.513s-.182.62-.608.553c-.45-.072-.6.133-.533.553.078.472-.175.526-.572.534-.424.009-.562-.151-.5-.54.068-.427-.09-.622-.535-.547s-.62-.106-.523-.547" transform="translate(261.153 4643.184)" fill="#29c4bb"/>
      </g>
      <path id="Trazado_132371" data-name="Trazado 132371" d="M-1465,473.744v-3.2c.139-.053.075-.177.084-.268a19.741,19.741,0,0,1,2.369-7.674,19.871,19.871,0,0,1,20.925-10.067,18.933,18.933,0,0,1,11.993,7.006c4.72,5.928,5.906,12.608,3.21,19.685-2.746,7.209-8.171,11.391-15.791,12.691-.23.039-.418.137-.417-.272q.023-7.484,0-14.969c0-.282.086-.342.351-.34,1.377.013,2.755,0,4.132.012.264,0,.342-.071.374-.336q.295-2.455.638-4.9c.041-.286-.005-.345-.288-.343-1.624.013-3.248,0-4.873.008-.192,0-.339.022-.334-.268.02-1.2.006-2.391.02-3.586a2.881,2.881,0,0,1,.288-1.319,2.122,2.122,0,0,1,1.909-1.062c1.063-.086,2.13-.033,3.195-.044.182,0,.314.009.312-.253-.012-1.494-.009-2.989,0-4.483,0-.2-.071-.264-.266-.281a32.873,32.873,0,0,0-4.749-.151,6.754,6.754,0,0,0-4.111,1.552,6.822,6.822,0,0,0-2.3,4.978c-.108,1.518-.036,3.039-.042,4.559,0,.276-.044.373-.353.369-1.364-.02-2.729,0-4.093-.014-.266,0-.378.029-.374.346.02,1.624.017,3.248,0,4.872,0,.291.072.369.364.366,1.364-.016,2.729,0,4.093-.012.252,0,.361.035.36.33q-.014,7.426,0,14.852c0,.26-.042.319-.321.265a19.676,19.676,0,0,1-9.756-4.863,19.689,19.689,0,0,1-6.334-11.791A6.166,6.166,0,0,0-1465,473.744Z" transform="translate(1802 10486.754)" fill="#fff"/>
    </g>
  </g>
</svg>
