<svg xmlns="http://www.w3.org/2000/svg" xmlns:xlink="http://www.w3.org/1999/xlink" width="84" height="102" viewBox="0 0 84 102">
  <defs>
    <clipPath id="clip-path">
      <rect id="Rect치ngulo_37873" data-name="Rect치ngulo 37873" width="60.762" height="54.266" fill="none"/>
    </clipPath>
  </defs>
  <g id="Grupo_158015" data-name="Grupo 158015" transform="translate(-813 -5280)">
    <rect id="Rect치ngulo_37872" data-name="Rect치ngulo 37872" width="84" height="102" rx="12" transform="translate(813 5280)" fill="#1169e3"/>
    <g id="Grupo_158014" data-name="Grupo 158014" transform="translate(632 693.184)">
      <g id="Grupo_158008" data-name="Grupo 158008" transform="translate(192 4608.816)">
        <path id="Trazado_131261" data-name="Trazado 131261" d="M15.945,119.667c-.545-.121-.671.135-.666.644.014,1.275-.008,1.3-1.328,1.29-.491,0-.644.149-.634.635.009.453.092.663.614.661,1.324,0,1.358.022,1.343,1.343-.006.6.287.609.73.613s.673-.069.673-.6c0-1.338.027-1.362,1.334-1.357.506,0,.625-.18.626-.65s-.118-.649-.624-.647c-1.332.008-1.364-.017-1.335-1.279.014-.586-.2-.757-.734-.654" transform="translate(-13.318 -99.758)" fill="#29c4bb"/>
        <path id="Trazado_131262" data-name="Trazado 131262" d="M213.972,155.115c.488.093.758-.068.677-.62-.067-.462.092-.719.6-.64s.683-.106.688-.644c0-.564-.226-.694-.707-.629-.459.062-.6-.138-.6-.595.014-.716-.429-.991-1.121-.774-.329.1-.257.365-.236.573.057.566-.072.912-.74.8-.517-.088-.549.236-.547.633s.017.718.541.636c.565-.087.833.119.739.716-.09.571.276.6.7.545" transform="translate(-154.597 -140.201)" fill="#29c4bb"/>
        <path id="Trazado_131263" data-name="Trazado 131263" d="M211.371,69.623c.126-.544-.123-.73-.633-.644-.552.093-.778-.133-.68-.682.094-.531-.135-.658-.65-.663-.531,0-.731.152-.638.669.1.55-.131.777-.677.675-.566-.106-.616.19-.637.666-.025.559.192.705.679.62.53-.092.727.127.637.644-.086.495.074.7.625.675.486-.017.767-.086.663-.643s.138-.767.681-.675c.51.086.759-.1.632-.641" transform="translate(-151.369 -29.462)" fill="#010000"/>
        <path id="Trazado_131264" data-name="Trazado 131264" d="M55.692,186.938c.119-.508-.131-.694-.639-.6-.6.108-.737-.2-.651-.7.095-.558-.176-.645-.666-.642-.469,0-.72.109-.622.614.129.663-.2.826-.774.728-.586-.1-.559.27-.561.671s.008.719.538.614c.712-.141.894.2.8.838-.092.61.373.434.683.453.329.02.7.062.6-.467-.118-.654.111-.958.8-.825.578.111.507-.292.49-.679" transform="translate(-40.668 -184.989)" fill="#010000"/>
        <path id="Trazado_131265" data-name="Trazado 131265" d="M121.791,17.778c-.136.579.184.692.658.622.493-.073.686.131.611.616s.069.705.627.694c.513-.01.747-.143.658-.67s.158-.716.664-.64c.469.07.7-.042.707-.615s-.218-.744-.73-.663c-.541.086-.724-.16-.64-.664.094-.566-.21-.631-.686-.641-.509-.01-.675.181-.6.648.082.512-.107.746-.642.656s-.744.127-.628.657" transform="translate(-90.431 39.277)" fill="#29c4bb"/>
      </g>
      <g id="Grupo_158019" data-name="Grupo 158019" transform="translate(193 4610.816)">
        <g id="Grupo_158019-2" data-name="Grupo 158019" clip-path="url(#clip-path)">
          <path id="Trazado_131319" data-name="Trazado 131319" d="M60.762,52.285a2.877,2.877,0,0,1-3.111,1.981c-7.08-.036-14.161-.015-21.242-.017-1.085,0-1.366-.218-1.639-1.233a1.082,1.082,0,0,1,.718-1.207,3.287,3.287,0,0,1,1.4-.191H57.055c1.141,0,1.141,0,1.141-1.135,0-.415,0-.83,0-1.245,0-.363-.157-.551-.531-.552-.217,0-.435-.006-.652-.006H3.742c-1.176,0-1.176,0-1.176,1.158,0,.4.011.791,0,1.186-.013.434.19.611.609.594.217-.008.435,0,.652,0H25.655a3.286,3.286,0,0,1,1.4.191,1.075,1.075,0,0,1,.714,1.206c-.28,1.018-.559,1.234-1.64,1.234q-11.629,0-23.258,0A2.547,2.547,0,0,1,0,51.362q0-1.335,0-2.67a2.466,2.466,0,0,1,1.626-2.444c.225-.095.352-.181.385-.442A18.78,18.78,0,0,1,9.073,33.415a21.993,21.993,0,0,1,8.221-4.192c.022-.238-.2-.263-.329-.355A12.361,12.361,0,0,1,11.9,21.595c-.069-.294-.234-.36-.458-.453a5,5,0,0,1-2.629-6.481,1.538,1.538,0,0,1,1.637-1.073c1.187.05,1.188.012,1.189-1.173A11.769,11.769,0,0,1,20.345.791,14.847,14.847,0,0,1,30.5,1c4.755,1.885,7.174,5.529,7.708,10.524a16.291,16.291,0,0,1,.083,1.717c0,.293.1.379.374.359.295-.021.593-.005.889,0a1.4,1.4,0,0,1,1.616,1.082A4.991,4.991,0,0,1,38.507,21.1a.878.878,0,0,0-.6.692,12.361,12.361,0,0,1-4.919,7.035c-.143.1-.287.209-.429.315-.014.01-.017.034-.04.081.867.293,1.742.555,2.592.882A20.029,20.029,0,0,1,45.585,38.5a17.336,17.336,0,0,1,2.363,7.13c.036.329.117.48.493.48.414,0,.374-.231.373-.494,0-.593-.015-1.187,0-1.779a1.207,1.207,0,0,1,1.329-1.328c.454-.015.91-.012,1.365,0,.25.006.345-.078.344-.34q-.011-4.241,0-8.483c0-.144,0-.3-.174-.325-.529-.074-1.011-.339-1.6-.1a4.6,4.6,0,0,1-3.251.028c-.969-.333-1.937-.672-2.892-1.044a5.024,5.024,0,0,1,3.433-9.443c.934.315,1.855.665,2.782,1a4.828,4.828,0,0,1,2.625,2.193,1.315,1.315,0,0,0,.588.546q3.039,1.523,6.072,3.06a1.27,1.27,0,0,1,.746,1.878c-.28.8-.558,1.6-.852,2.395a1.2,1.2,0,0,1-1.573.866c-1.156-.244-2.307-.515-3.514-.786v2.531c0,1.839.014,3.678-.01,5.517-.006.42.112.559.525.516a5.937,5.937,0,0,1,.948,0,1.2,1.2,0,0,1,1.254,1.278c.013.4,0,.791,0,1.186,0,1.111,0,1.13,1.092,1.113a2.653,2.653,0,0,1,2.078.822,5.82,5.82,0,0,1,.638,1.1Z" transform="translate(0 0)"/>
          <path id="Trazado_131320" data-name="Trazado 131320" d="M30.925,117.65c-.313-.967-.6-1.176-1.635-1.176q-11.536,0-23.071.011c-.526,0-.731-.107-.69-.673.054-.747.026-1.5.007-2.252-.008-.321.07-.492.423-.444a2.66,2.66,0,0,0,.356,0q27.223,0,54.446,0c.888,0,.762-.119.771.8.006.672-.041,1.347.014,2.015.045.547-.235.547-.633.546q-8.3-.012-16.606-.005-2.372,0-4.745,0c-1.037,0-1.328.212-1.635,1.176H35.68c-.167-.091-.214-.271-.306-.417a1.043,1.043,0,0,0-1.906.061c-.074.136-.115.294-.281.355H30.925" transform="translate(-3.157 -64.634)" fill="#feca7c"/>
          <path id="Trazado_131321" data-name="Trazado 131321" d="M70.073,122.143c.313-.977.919-1.367,1.682-1.084a1.353,1.353,0,0,1,.811,1.086c-.248.953-.738,1.337-1.509,1.184-.648-.129-.861-.62-.984-1.185" transform="translate(-40.042 -69.126)" fill="#010101"/>
          <path id="Trazado_131322" data-name="Trazado 131322" d="M54.511,35.785C55.06,42.512,48.8,46.676,43.846,46.8c-4.979.122-9.96-3.589-10.978-8.325a25.781,25.781,0,0,1-.167-4.552c-.011-.311.206-.286.387-.32a4.531,4.531,0,0,0,3.52-2.5c.117-.243.228-.185.4-.063a15.565,15.565,0,0,0,9.355,2.626c2.51-.017,5.02.017,7.529-.019.552-.008.669.163.627.66s-.009.987-.009,1.481" transform="translate(-18.677 -17.676)" fill="#fed3bd"/>
          <path id="Trazado_131323" data-name="Trazado 131323" d="M49.289,16.8a43.4,43.4,0,0,1-5.849-.21,11.774,11.774,0,0,1-6.488-3.175,1.269,1.269,0,0,0-1.488-.411,1.369,1.369,0,0,0-.756,1.416,2.134,2.134,0,0,1-1.572,2.243c-.214.054-.42.126-.435-.246a9.394,9.394,0,0,1,2.31-7.181,11.271,11.271,0,0,1,6.611-3.422A11.7,11.7,0,0,1,50.364,7.5,9.565,9.565,0,0,1,54.507,15c.054.579.341,1.335-.05,1.7-.3.281-1.05.091-1.6.094-1.087.007-2.175,0-3.568,0" transform="translate(-18.679 -3.205)" fill="#aca9ae"/>
          <path id="Trazado_131324" data-name="Trazado 131324" d="M71.882,87.516c-1.285,0-2.571-.012-3.855.008-.353.006-.473-.118-.534-.453q-.93-5.126-1.889-10.248a1.9,1.9,0,0,1,.1-1.091c.376-.954.717-1.921,1.068-2.885.075-.2.1-.411.425-.348A21.227,21.227,0,0,1,78.876,78.31a15.167,15.167,0,0,1,4.146,8.665c.057.393,0,.564-.461.552-1.166-.032-2.333-.022-3.5,0-.336.005-.45-.094-.436-.434.024-.592.018-1.186,0-1.779A1.236,1.236,0,0,0,77.4,84a1.206,1.206,0,0,0-1.152,1.316c-.012.573-.026,1.148,0,1.719.022.4-.131.5-.51.49-1.285-.021-2.57-.008-3.855-.008" transform="translate(-37.467 -41.422)" fill="#52caef"/>
          <path id="Trazado_131325" data-name="Trazado 131325" d="M21.218,87.493c-1.344,0-2.689-.011-4.034.007-.359.005-.49-.1-.474-.466.026-.612.02-1.226,0-1.838a1.184,1.184,0,0,0-1.175-1.23,1.215,1.215,0,0,0-1.2,1.218c-.027.592-.03,1.187,0,1.779.02.4-.078.554-.513.54-1.008-.033-2.018-.036-3.024,0-.48.018-.55-.129-.474-.571a16.576,16.576,0,0,1,6.323-10.445,19.87,19.87,0,0,1,9.3-4.021c.315-.052.494-.012.613.341.354,1.046.754,2.076,1.142,3.109a1.232,1.232,0,0,1,.045.69q-.976,5.239-1.923,10.483c-.058.325-.2.413-.509.41-1.364-.014-2.728-.006-4.093-.006" transform="translate(-5.883 -41.4)" fill="#52caef"/>
          <path id="Trazado_131326" data-name="Trazado 131326" d="M100.483,60.986a2.673,2.673,0,0,1,3.424-2.744c1,.31,1.981.669,2.949,1.059a2.626,2.626,0,0,1-1.74,4.948,30.122,30.122,0,0,1-3.06-1.1,2.433,2.433,0,0,1-1.573-2.167" transform="translate(-57.42 -33.212)" fill="#aca9ae"/>
          <path id="Trazado_131327" data-name="Trazado 131327" d="M54.728,93.955c-.751,0-1.5-.009-2.254,0-.289.005-.431-.026-.363-.384q.891-4.712,1.747-9.43c.048-.264.144-.352.417-.366,1.275-.064,1.277-.074,1.509,1.171.532,2.852,1.054,5.705,1.6,8.554.076.4-.038.47-.4.458-.75-.024-1.5-.007-2.254-.007" transform="translate(-29.769 -47.862)" fill="#f8f8f8"/>
          <path id="Trazado_131328" data-name="Trazado 131328" d="M123.053,70.134a6.044,6.044,0,0,0,.692-1.9c1.352.683,2.663,1.36,3.989,2.005.323.157.174.344.111.527-.072.207-.093.45-.465.359-1.417-.347-2.843-.655-4.327-.992" transform="translate(-70.317 -38.992)" fill="#afe6f6"/>
          <path id="Trazado_131329" data-name="Trazado 131329" d="M54.167,73.186a11.892,11.892,0,0,0,3.551-.027,9.311,9.311,0,0,1-.738,1.944c-.37.557-1.077.14-1.625.239-.215.039-.413.025-.506-.258-.2-.613-.435-1.215-.683-1.9" transform="translate(-30.953 -41.806)" fill="#c5c3c7"/>
          <path id="Trazado_131330" data-name="Trazado 131330" d="M121.189,105.955c-.433,0-.867-.016-1.3,0-.617.029-.348-.429-.392-.7-.047-.292-.031-.521.4-.5.844.038,1.692.035,2.537,0,.565-.021.378.364.4.636.02.288.086.61-.408.568-.41-.035-.825-.007-1.239-.007" transform="translate(-68.274 -59.861)" fill="#aee4f5"/>
          <path id="Trazado_131331" data-name="Trazado 131331" d="M89.167,39.807c0-.805.016-1.474-.007-2.142-.011-.324.109-.406.409-.39.267.014.524-.023.521.368a2.867,2.867,0,0,1-.923,2.163" transform="translate(-50.949 -21.3)" fill="#f7b999"/>
          <path id="Trazado_131332" data-name="Trazado 131332" d="M26.086,39.776a2.855,2.855,0,0,1-.807-2.087c0-.328.156-.417.477-.423.4-.007.329.235.329.464,0,.64,0,1.28,0,2.046" transform="translate(-14.445 -21.296)" fill="#f8ba9a"/>
        </g>
      </g>
    </g>
  </g>
</svg>
