<svg xmlns="http://www.w3.org/2000/svg" xmlns:xlink="http://www.w3.org/1999/xlink" width="84" height="102" viewBox="0 0 84 102">
  <defs>
    <clipPath id="clip-path">
      <rect id="Rect치ngulo_37874" data-name="Rect치ngulo 37874" width="65.227" height="61.616" fill="none"/>
    </clipPath>
  </defs>
  <g id="Grupo_158016" data-name="Grupo 158016" transform="translate(-813 -5280)">
    <rect id="Rect치ngulo_37872" data-name="Rect치ngulo 37872" width="84" height="102" rx="12" transform="translate(813 5280)" fill="#1169e3"/>
    <g id="Grupo_158014" data-name="Grupo 158014" transform="translate(632 693.184)">
      <g id="Grupo_158020" data-name="Grupo 158020" transform="translate(190 4606.816)">
        <g id="Grupo_158020-2" data-name="Grupo 158020" clip-path="url(#clip-path)">
          <path id="Trazado_131333" data-name="Trazado 131333" d="M39.351,129.165c-.135-.1-.212-.264-.425-.262q-1.337.014-2.674,0c-.211,0-.292.163-.426.261a16.692,16.692,0,0,1-.7-2.774,34.55,34.55,0,0,0-2.666-8.129,3.545,3.545,0,0,0-.562-.879c-.129-.13-.289-.231-.465-.112-.148.1-.115.269-.073.42a.985.985,0,0,0,.107.239c1.665,2.81,2.343,5.955,3.083,9.078a8.094,8.094,0,0,1,.319,1.669.306.306,0,0,1-.107.23l-8.77,0a.815.815,0,0,1-.306-.626,17.258,17.258,0,0,1,.522-8.6,7.577,7.577,0,0,1,1.158-2.116,2.643,2.643,0,0,1,1.774-1.011,2.006,2.006,0,0,0,.514-.1.292.292,0,0,0,.212-.3.305.305,0,0,0-.253-.265,1.521,1.521,0,0,0-.651-.014,3.439,3.439,0,0,0-2.351,1.524,10.88,10.88,0,0,0-1.75,5.09,18.416,18.416,0,0,0,.124,5.738c.04.228.138.475-.085.674H19.054c-.217-.145-.192-.377-.2-.59A32.928,32.928,0,0,1,21.193,113.9c.429-1.052.932-2.07,1.436-3.088a.945.945,0,0,1,1.147-.595,16.145,16.145,0,0,1,5.473,2.106,35.37,35.37,0,0,1,5.805,4.359,6.357,6.357,0,0,1,1.659,2.315A36.212,36.212,0,0,1,39.337,127c.085.5.085,1,.173,1.5a.659.659,0,0,1-.159.668" transform="translate(-11.569 -67.826)" fill="#c9e6ee"/>
          <path id="Trazado_131334" data-name="Trazado 131334" d="M27.782,82.548c-.136-4.019-1.693-7.619-3.318-11.2a1.041,1.041,0,0,0-.223-.318,30.787,30.787,0,0,0-9.1-6.4A12.514,12.514,0,0,0,12,63.743c-.332-.047-.506,0-.669.31A31.816,31.816,0,0,0,7.459,78.366c-.019,1.308.016,2.617.026,3.926-.088.3-.266.526-.606.468-.362-.063-.451-.348-.47-.686A33.592,33.592,0,0,1,11.229,62.18a12.174,12.174,0,0,1,1.91-2.4c.313-.3.336-.453.012-.807a5.448,5.448,0,0,0-4.712-1.9c-4.7.3-8.5-3.714-8.438-8.7a8.521,8.521,0,0,1,3.153-6.181A10.989,10.989,0,0,1,6.5,40.037a44.489,44.489,0,0,0,6.4-3.542,11.86,11.86,0,0,1,6.859-2.026,7.879,7.879,0,0,1,4.478,1.444A5.4,5.4,0,0,1,26.4,41.74a2.069,2.069,0,0,0,.1,1.313,9.262,9.262,0,0,1,.661,2.92c0,.148.185.36-.143.384a2.608,2.608,0,0,0-1.059-1.29,1.572,1.572,0,0,1-.324-.907,1.7,1.7,0,0,1-.612.9,2.743,2.743,0,0,0-1.03,1.449,8.409,8.409,0,0,1-3,2.929c-.32.2-.68.048-1.018-.047a1.686,1.686,0,0,0-2.207,1.857A1.733,1.733,0,0,0,19,52.568a1.061,1.061,0,0,0,.191.043c.441.064.831.2.833.739,0,.413-.337.647-.965.639a.616.616,0,0,0-.675.377,24.5,24.5,0,0,1-2.6,4.08c-.479.664-.476.718.254,1.12a18.09,18.09,0,0,1,1.718,1.079c.355.251.636.278.841-.155a3.61,3.61,0,0,1,3.973-2.1,12.542,12.542,0,0,0,2.286,0,1.8,1.8,0,0,0,1.562-1.026c.174-.354.137-.632-.279-.779a2.263,2.263,0,0,1-.53-.256c-.339-.233-.631-.518-.522-.967.12-.5.551-.4.915-.4.158.048.25.206.391.219-.042-.05-.146-.072-.22-.136-.147-.141-.331-.091-.5-.086a.521.521,0,0,1-.6-.469.679.679,0,0,1,.373-.707.438.438,0,0,1,.313-.078c1.308.343,1.52-.885,2.14-1.508.238-.239.14-.576-.087-.834-.158-.179-.352-.335-.357-.6l.2-1.134c.095.07.165.111.225.166,1.856,1.71,1.878,2.035.283,3.992a1.494,1.494,0,0,0-.373,1.085,8.607,8.607,0,0,1,.07,1.169C27.7,58.7,26.8,59.575,24.113,59.661c-.851.027-1.7-.037-2.555-.018a3.142,3.142,0,0,0-2.28,2.219c-.009.162.1.229.193.315C22.68,65.19,24.63,69,26.34,72.967c.042.1.1.19.151.285a3.829,3.829,0,0,1,.771,1.56,27.638,27.638,0,0,1,1.277,4.1,1.417,1.417,0,0,1,.028.643c.052.861.251,1.708.23,2.576a.632.632,0,0,1-.338.647.54.54,0,0,1-.677-.23" transform="translate(0 -21.209)"/>
          <path id="Trazado_131335" data-name="Trazado 131335" d="M102.644,83.235c-.143.3-.282.637-.706.527s-.355-.454-.361-.8a4.91,4.91,0,0,0-.978-3.248c-2.047-2.443-2.029-5.007-.5-7.7,1.155-2.041,2.6-3.88,3.925-5.8.546-.788,1.045-1.611,1.535-2.436a4.028,4.028,0,0,0-.394-4.246,1.361,1.361,0,0,0-1.136-.386c-.654,0-1.307.1-1.961.106a2.9,2.9,0,0,1-3.224-2.742,5.485,5.485,0,0,1-.116-1.3,1.726,1.726,0,0,0-.865-1.705c-.127-.085-.251-.175-.374-.265a1.661,1.661,0,0,1-.233-2.778,3.043,3.043,0,0,0,.943-3.148.666.666,0,0,0-.315-.462,4.023,4.023,0,0,1-2.172-4.684,3.948,3.948,0,0,1,1.035-2.007,12.838,12.838,0,0,1,8.812-4.079,15.817,15.817,0,0,1,7.09.887,11.872,11.872,0,0,1,6.4,6.587,12.167,12.167,0,0,0,1.594,2.917,9.381,9.381,0,0,0,1.453,1.415,4.515,4.515,0,0,1,.834,6.741,13.784,13.784,0,0,1-6.852,4.492,10.659,10.659,0,0,1-3.282.554c-.448,0-.527.146-.327.544a12.456,12.456,0,0,0,.905,1.661,18.437,18.437,0,0,1,3.176,9.829,39.938,39.938,0,0,1-1.185,11.424c-.068.293-.18.564-.512.6s-.507-.193-.586-.5a1.021,1.021,0,0,1-.013-.826A36.7,36.7,0,0,0,115.312,71.7a17.18,17.18,0,0,0-2.482-8.388c-.43-.678-.491-.7-1.209-.388a18.389,18.389,0,0,1-4.666,1.5.767.767,0,0,0-.572.395c-1.382,2.334-3.148,4.407-4.575,6.71a10.166,10.166,0,0,0-1.515,3.317,4.263,4.263,0,0,0,.488,2.908,7.262,7.262,0,0,0,.817,1.264,6.236,6.236,0,0,1,1.215,3.536.78.78,0,0,1-.17.676" transform="translate(-58.845 -22.176)"/>
          <path id="Trazado_131336" data-name="Trazado 131336" d="M109.759,125.6a6.806,6.806,0,0,0-1.423-4.443c-1.632-2-1.435-4.118-.212-6.273,1.211-2.134,2.75-4.038,4.114-6.065a7.664,7.664,0,0,1,1.386-2.037,7.561,7.561,0,0,1,2.294-.6,17.873,17.873,0,0,0,3.1-1.224c.448-.225.63-.1.874.275a17.013,17.013,0,0,1,2.592,7.537,35.99,35.99,0,0,1-.95,12.134c-.053.233-.1.468-.153.7l-2.538-.007c-.28-.491.026-.933.147-1.373.556-2.022,1.134-4.036,1.516-6.1a19.619,19.619,0,0,0,.349-4.429c-.022-.507-.049-1.017-.562-1.317a1.15,1.15,0,0,1-.494-.8c.083-.66-.028-.846-.648-.945a3,3,0,0,0-2.777.792,7.894,7.894,0,0,0-1.708,2.61,43.116,43.116,0,0,0-1.99,7.176c-.267,1.213-.488,2.437-.741,3.654-.057.271-.057.576-.35.737l-1.829,0" transform="translate(-65.96 -64.538)" fill="#1b88e4"/>
          <path id="Trazado_131337" data-name="Trazado 131337" d="M51.735,70.054c1.049.943,1.07,1.205,0,2.241a.362.362,0,0,0-.083.1c-.312.685-.753,1.053-1.565.757-.318-.116-.549.122-.6.441-.06.346.17.518.468.6.163.047.351-.058.506.07q-.043.163-.158.039c-.336-.028-.688-.053-.811.357-.106.354.156.574.394.759a1.376,1.376,0,0,0,.631.321c.615.063.551.4.417.822a1.864,1.864,0,0,1-1.783,1.295,10.907,10.907,0,0,1-2.484,0,3.346,3.346,0,0,0-3.713,2.146c-.241.525-.451.476-.844.182a16.035,16.035,0,0,0-2.4-1.467c-.3-.151-.368-.261-.151-.571a25.5,25.5,0,0,0,3.092-4.916c.082-.2.213-.223.419-.174a2.26,2.26,0,0,0,.711.054.449.449,0,0,0,.405-.445.473.473,0,0,0-.308-.524,2.32,2.32,0,0,0-.449-.07,1.823,1.823,0,0,1-1.511-1.287,1.715,1.715,0,0,1,.471-1.859,1.649,1.649,0,0,1,1.926-.4,1.177,1.177,0,0,0,1.364-.234,20.515,20.515,0,0,0,2.577-2.5,7.848,7.848,0,0,0,.381,4.486c.326.746.715,1.442,1.644,1.471.683.021,1.186-.621,1.449-1.705" transform="translate(-24.273 -40.503)" fill="#fe967b"/>
          <path id="Trazado_131338" data-name="Trazado 131338" d="M128.5,121.891l.385.618a3.41,3.41,0,0,0-.071,1.612,22.237,22.237,0,0,1-.758,6.153c-.381,1.7-.917,3.369-1.363,5.058a.772.772,0,0,1-.322.547h-5.046c-.218-.143-.136-.356-.1-.534a90.114,90.114,0,0,1,2.293-9.681,11.259,11.259,0,0,1,1.3-2.709,2.652,2.652,0,0,1,3.677-1.064" transform="translate(-74.591 -74.814)" fill="#fe967b"/>
          <path id="Trazado_131339" data-name="Trazado 131339" d="M70.97,0a17.218,17.218,0,0,1,3.922.242,7.053,7.053,0,0,1,5.244,6.38A7.779,7.779,0,0,1,78.643,12.3a6.261,6.261,0,0,1-5.123,2.616A7.219,7.219,0,0,0,68,16.65a1.768,1.768,0,0,1-.577.3c-.491.185-.84-.031-.832-.548a3.856,3.856,0,0,1,.169-1.158c.116-.344.024-.445-.286-.545a7.029,7.029,0,0,1-5.152-7.047A7.09,7.09,0,0,1,65.386.685,6.75,6.75,0,0,1,68.425,0C69.212,0,70,0,70.97,0" transform="translate(-37.747 0)"/>
          <path id="Trazado_131340" data-name="Trazado 131340" d="M69.209,118.942a.856.856,0,0,1,.425-1c.557-.384,1.1-.79,1.649-1.184.089-.063.183-.158.28-.165,1.253-.091,1.119-.977,1.093-1.836-.037-1.2-.043-2.4-.049-3.6,0-1.016.267-1.53.879-1.724.7-.221,1.356.1,1.9.936.06.091.114.185.2.325.215-.32.4-.63.619-.917a2.376,2.376,0,0,1,3.354-.632,5.257,5.257,0,0,1,1.615,7.043,7.6,7.6,0,0,1-2.3,2.2c-.808.519-1.619,1.033-2.428,1.551-.186.119-.35.207-.094.467.233.235.106.521-.088.765a22.542,22.542,0,0,1-3.4,3.446c-.267.217-.523.313-.821.073-.483-.384-.253-.707.09-1.016a26.624,26.624,0,0,0,2.343-2.269c.29-.333.379-.521-.045-.806a10.97,10.97,0,0,1-2.357-2.248.522.522,0,0,0-.832-.1c-.359.248-.67.559-1.045.785-.348.21-.687.286-.981-.092" transform="translate(-42.579 -66.916)"/>
          <path id="Trazado_131341" data-name="Trazado 131341" d="M69.043,133.573a.9.9,0,0,0,1.119-.178c.416-.35.854-.864,1.323-.91.523-.052.717.707,1.1,1.073a11.735,11.735,0,0,0,1.932,1.657c.43.263.369.436.068.767a22.554,22.554,0,0,1-2.5,2.4c-.348.279-.472.551-.214.94-.358.095-.572.416-.891.572a50.673,50.673,0,0,0-2.077-6.3l.14-.016" transform="translate(-42.412 -81.547)" fill="#77c4ee"/>
          <path id="Trazado_131342" data-name="Trazado 131342" d="M126.958,120.428a.893.893,0,0,1-.633-.051,2.155,2.155,0,0,0-2.43.638,8.605,8.605,0,0,0-1.675,3.072,64.832,64.832,0,0,0-2.087,8.541c-.124.594-.233,1.192-.348,1.789-.1.281-.253.522-.589.505-.3-.015-.441-.238-.519-.5.627-2.785,1.091-5.606,1.84-8.365a16.029,16.029,0,0,1,2.1-5.119,3.369,3.369,0,0,1,4.006-1.57c.651.239.719.456.333,1.065" transform="translate(-73.05 -73.352)"/>
          <path id="Trazado_131343" data-name="Trazado 131343" d="M34.07,137.684a19.5,19.5,0,0,1,.151-8.428,8.269,8.269,0,0,1,1.888-3.752,3.258,3.258,0,0,1,2.58-1.053c.366.012.669.135.651.56-.017.381-.293.506-.642.487a2.581,2.581,0,0,0-2.388,1.441,10.559,10.559,0,0,0-1.426,4.439,18.774,18.774,0,0,0,.277,6.307c-.392.666-.688.666-1.09,0" transform="translate(-20.733 -76.602)"/>
          <path id="Trazado_131344" data-name="Trazado 131344" d="M134.682,137.423c.7-2.809,1.616-5.566,2.047-8.441a12.938,12.938,0,0,0,.106-4.164.675.675,0,0,1,.359-.765.628.628,0,0,1,.688.624,15.724,15.724,0,0,1-.218,5.137c-.436,2.583-1.281,5.065-1.879,7.607-.083.3-.253.519-.582.507-.3-.01-.431-.25-.521-.506" transform="translate(-82.901 -76.359)"/>
          <path id="Trazado_131345" data-name="Trazado 131345" d="M54.4,139.738a45.4,45.4,0,0,0-2.684-9.463,13.249,13.249,0,0,0-.79-1.427c-.2-.337-.418-.69.017-.962s.665.08.878.4a18.285,18.285,0,0,1,2.038,4.721c.657,2.1,1.087,4.26,1.581,6.4a3.036,3.036,0,0,1,.021.584c-.542.421-.689.385-1.06-.258" transform="translate(-31.198 -78.658)"/>
          <path id="Trazado_131346" data-name="Trazado 131346" d="M64.791,66.445a3.041,3.041,0,0,1,.265-1.38c.161-.4.4-.429.643-.061a1.609,1.609,0,0,1,.387.8,12.641,12.641,0,0,0,.367,2.493c-.061.358-.108.718-.186,1.072-.055.25-.125.565-.406.6-.339.047-.441-.3-.551-.541a10.267,10.267,0,0,1-.36-1.029,1.21,1.21,0,0,0,.577-1.43c-.083-.441-.464-.392-.735-.53" transform="translate(-39.877 -39.852)" fill="#fd977b"/>
          <path id="Trazado_131347" data-name="Trazado 131347" d="M64.745,69.076c.674-.164.915.012.942.689.042,1.066-.044,1.206-.784,1.271a4.843,4.843,0,0,1-.158-1.96" transform="translate(-39.831 -42.484)" fill="#362e45"/>
          <path id="Trazado_131348" data-name="Trazado 131348" d="M68.352,69.995a3.162,3.162,0,0,1-.367-2.493,5.76,5.76,0,0,1,.367,2.493" transform="translate(-41.776 -41.55)" fill="#4f4255"/>
          <path id="Trazado_131349" data-name="Trazado 131349" d="M65.07,60.212l.611-1.137a2.517,2.517,0,0,1,.325,1.144l-.937-.007" transform="translate(-40.053 -36.363)" fill="#f3947b"/>
          <path id="Trazado_131350" data-name="Trazado 131350" d="M70.262,64.793c.2-.072.068-.266.143-.384a.8.8,0,0,1,.077.681.307.307,0,0,1-.22-.3" transform="translate(-43.249 -39.646)" fill="#c4c2c9"/>
          <path id="Trazado_131351" data-name="Trazado 131351" d="M10.8,57.726A7.308,7.308,0,0,1,2.863,51.47c-.578-3.4,1.147-5.738,3.691-7.648a16.794,16.794,0,0,1,3.355-1.751,45.992,45.992,0,0,0,5.029-2.913,11.466,11.466,0,0,1,6.321-2.008,6.693,6.693,0,0,1,4.6,1.725,4.207,4.207,0,0,1,1.293,3.658,10.092,10.092,0,0,1-2.537,5.193,15.505,15.505,0,0,1-1.84,1.842,1,1,0,0,1-.953.26,2.841,2.841,0,0,0-3.428,3.8.606.606,0,0,1-.1.688,8.073,8.073,0,0,1-6.649,3.416c-.284-.006-.568,0-.852,0" transform="translate(-1.693 -22.865)" fill="#3c3854"/>
          <path id="Trazado_131352" data-name="Trazado 131352" d="M42.108,109.175c-3.126-2.519-6.347-4.739-10.461-5.469a13.647,13.647,0,0,1,2.053-2.532c.146-.144.285-.029.416.035a18.207,18.207,0,0,1,8.011,7.752c.017.03-.006.082-.02.215" transform="translate(-19.48 -62.233)" fill="#77c4ee"/>
          <path id="Trazado_131353" data-name="Trazado 131353" d="M37.4,84.289a19.963,19.963,0,0,1-2.07,3.444c-.288.407-.617.786-.879,1.208-.18.291-.3.227-.488.035a8.172,8.172,0,0,0-1.2-1.093c-.15-.1-.445-.338-.038-.46a10.323,10.323,0,0,0,4.4-3.033c.027-.027.078-.03.279-.1" transform="translate(-20.013 -51.883)" fill="#322f4c"/>
          <path id="Trazado_131354" data-name="Trazado 131354" d="M67.7,87.856l.158-.039c.086.011.173.024.26.033.148.015.328-.01.314.222,0,.079-.026.2-.077.224A.327.327,0,0,1,68,88.2a3.783,3.783,0,0,1-.3-.34" transform="translate(-41.674 -54.054)" fill="#fdfdfd"/>
          <path id="Trazado_131355" data-name="Trazado 131355" d="M108.58,38.824a11.883,11.883,0,0,1,7.312,1.9,10.941,10.941,0,0,1,3.37,4,26.311,26.311,0,0,1,1.249,2.734,6.5,6.5,0,0,0,2.6,2.952,3.643,3.643,0,0,1,.471,5.535,13.515,13.515,0,0,1-8.333,4.35,16.485,16.485,0,0,1-5.452-.143c-2.633-.513-3.5-1.888-2.955-4.511a6.473,6.473,0,0,0-1.106-5.68,6.022,6.022,0,0,0-3.6-1.964c-.656-.143-1.318-.261-1.982-.358a1.932,1.932,0,0,1-1.5-1.229c-.805-1.7-.272-3.4,1.432-4.755a12.264,12.264,0,0,1,5.617-2.627,12.818,12.818,0,0,1,2.87-.21" transform="translate(-60.503 -23.887)" fill="#3c3854"/>
          <path id="Trazado_131356" data-name="Trazado 131356" d="M108.5,76.117a6.6,6.6,0,0,0-2.679-.086c-2.025.191-2.641-.741-2.7-2.912-.005-.188.051-.274.261-.263a4.193,4.193,0,0,0,.585-.05c.366-.035.58-.237.526-.6a.492.492,0,0,0-.627-.43c-.617.15-.949-.14-1.3-.6a6.57,6.57,0,0,0-1.132-.983c-.434-.352-.531-.684-.089-1.133a3.856,3.856,0,0,0,1.282-3.775c-.084-.349.154-.277.346-.248,3.2.486,4.979,2.218,4.667,5.659-.042.455-.12.907-.184,1.359a4.2,4.2,0,0,0,1.051,4.062" transform="translate(-62.198 -40.016)" fill="#fe967b"/>
          <path id="Trazado_131357" data-name="Trazado 131357" d="M123.334,99.447c-.057-2.513-.236-3.194-1.218-4.463a11.127,11.127,0,0,0,5.027,1.067c.4.01.429.3.537.544.522,1.187.526,1.2-.654,1.687a15.178,15.178,0,0,1-3.692,1.166" transform="translate(-75.166 -58.466)" fill="#fe967a"/>
          <path id="Trazado_131358" data-name="Trazado 131358" d="M48.484,75.159a1.341,1.341,0,0,1,1.2.883.506.506,0,0,1-.239.673.456.456,0,0,1-.633-.155,1.031,1.031,0,0,0-.551-.424c-.313-.1-.345-.371-.27-.644a.447.447,0,0,1,.493-.333" transform="translate(-29.519 -46.262)" fill="#352d44"/>
          <path id="Trazado_131359" data-name="Trazado 131359" d="M69.534,17.12c-.094-.324.072-.445.121-.6.21-.674.087-.9-.611-1.05a6.041,6.041,0,0,1-4.992-6.221,6.123,6.123,0,0,1,3.08-5.807,4.853,4.853,0,0,1,2.354-.733,40.028,40.028,0,0,1,6.348.081A5.916,5.916,0,0,1,80.76,8.225a6.736,6.736,0,0,1-1.5,5.316,5.742,5.742,0,0,1-4.2,1.979c-.808.02-1.618.041-2.425,0a2.185,2.185,0,0,0-1.568.508c-.468.381-.983.7-1.531,1.089" transform="translate(-39.425 -1.613)" fill="#42a3f5"/>
          <path id="Trazado_131360" data-name="Trazado 131360" d="M86.945,115.525a3.547,3.547,0,0,1-1.05,2.388,7.165,7.165,0,0,1-1.772,1.438,20.442,20.442,0,0,0-2.616,1.734.432.432,0,0,1-.666.008,14.712,14.712,0,0,1-1.674-1.653c-.236-.278-.229-.452.02-.7a2.225,2.225,0,0,0,.583-1.8c-.063-1.416-.053-2.835-.065-4.253,0-.2-.056-.478.24-.534.253-.047.386.169.508.347a.966.966,0,0,1,.2.406,3.654,3.654,0,0,0,1.686,2.476c.268.216.508.376.8.126a.508.508,0,0,0,.006-.8c-.1-.115-.178-.272-.3-.339-.757-.4-.535-.9-.227-1.489.927-1.764,2.214-1.87,3.362-.229a4.8,4.8,0,0,1,.964,2.879" transform="translate(-48.624 -68.62)" fill="#fe967b"/>
          <path id="Trazado_131361" data-name="Trazado 131361" d="M107.1,68.5c.018.468-.123.87-.657.856-.492-.013-.61-.413-.612-.847,0-.456.1-.887.635-.889s.658.415.634.88" transform="translate(-65.142 -41.619)" fill="#3a3046"/>
          <path id="Trazado_131362" data-name="Trazado 131362" d="M76.68,19.409a1.009,1.009,0,1,1,1-.98.978.978,0,0,1-1,.98" transform="translate(-46.592 -10.704)" fill="#fdfdfe"/>
          <path id="Trazado_131363" data-name="Trazado 131363" d="M85.186,20.072c.02-.407.219-.661.638-.665a.618.618,0,0,1,.689.686.664.664,0,0,1-1.328-.021" transform="translate(-52.435 -11.946)" fill="#fbfdfe"/>
          <path id="Trazado_131364" data-name="Trazado 131364" d="M93.926,18.815c-.066.284-.22.479-.533.449a.432.432,0,0,1-.42-.483.441.441,0,0,1,.521-.445c.3.018.393.222.432.478" transform="translate(-57.227 -11.286)" fill="#f5fafe"/>
        </g>
      </g>
      <g id="Grupo_158008" data-name="Grupo 158008" transform="translate(192 4608.816)">
        <path id="Trazado_131261" data-name="Trazado 131261" d="M15.945,119.667c-.545-.121-.671.135-.666.644.014,1.275-.008,1.3-1.328,1.29-.491,0-.644.149-.634.635.009.453.092.663.614.661,1.324,0,1.358.022,1.343,1.343-.006.6.287.609.73.613s.673-.069.673-.6c0-1.338.027-1.362,1.334-1.357.506,0,.625-.18.626-.65s-.118-.649-.624-.647c-1.332.008-1.364-.017-1.335-1.279.014-.586-.2-.757-.734-.654" transform="translate(-13.318 -99.758)" fill="#29c4bb"/>
        <path id="Trazado_131262" data-name="Trazado 131262" d="M213.972,155.115c.488.093.758-.068.677-.62-.067-.462.092-.719.6-.64s.683-.106.688-.644c0-.564-.226-.694-.707-.629-.459.062-.6-.138-.6-.595.014-.716-.429-.991-1.121-.774-.329.1-.257.365-.236.573.057.566-.072.912-.74.8-.517-.088-.549.236-.547.633s.017.718.541.636c.565-.087.833.119.739.716-.09.571.276.6.7.545" transform="translate(-154.597 -140.201)" fill="#29c4bb"/>
        <path id="Trazado_131263" data-name="Trazado 131263" d="M211.371,69.623c.126-.544-.123-.73-.633-.644-.552.093-.778-.133-.68-.682.094-.531-.135-.658-.65-.663-.531,0-.731.152-.638.669.1.55-.131.777-.677.675-.566-.106-.616.19-.637.666-.025.559.192.705.679.62.53-.092.727.127.637.644-.086.495.074.7.625.675.486-.017.767-.086.663-.643s.138-.767.681-.675c.51.086.759-.1.632-.641" transform="translate(-151.369 -29.462)" fill="#010000"/>
        <path id="Trazado_131264" data-name="Trazado 131264" d="M55.692,186.938c.119-.508-.131-.694-.639-.6-.6.108-.737-.2-.651-.7.095-.558-.176-.645-.666-.642-.469,0-.72.109-.622.614.129.663-.2.826-.774.728-.586-.1-.559.27-.561.671s.008.719.538.614c.712-.141.894.2.8.838-.092.61.373.434.683.453.329.02.7.062.6-.467-.118-.654.111-.958.8-.825.578.111.507-.292.49-.679" transform="translate(-40.668 -184.989)" fill="#010000"/>
        <path id="Trazado_131265" data-name="Trazado 131265" d="M121.791,17.778c-.136.579.184.692.658.622.493-.073.686.131.611.616s.069.705.627.694c.513-.01.747-.143.658-.67s.158-.716.664-.64c.469.07.7-.042.707-.615s-.218-.744-.73-.663c-.541.086-.724-.16-.64-.664.094-.566-.21-.631-.686-.641-.509-.01-.675.181-.6.648.082.512-.107.746-.642.656s-.744.127-.628.657" transform="translate(-90.431 39.277)" fill="#29c4bb"/>
      </g>
    </g>
  </g>
</svg>
