<svg xmlns="http://www.w3.org/2000/svg" xmlns:xlink="http://www.w3.org/1999/xlink" width="87.191" height="87.191" viewBox="0 0 87.191 87.191">
  <defs>
    <clipPath id="clip-path">
      <rect id="Rectángulo_37878" data-name="Rectángulo 37878" width="38.42" height="38.42" fill="none"/>
    </clipPath>
  </defs>
  <g id="Grupo_158027" data-name="Grupo 158027" transform="translate(0 0.161)">
    <path id="Trazado_127482" data-name="Trazado 127482" d="M43.6,0A43.6,43.6,0,1,1,0,43.6,43.6,43.6,0,0,1,43.6,0Z" transform="translate(0 -0.161)" fill="#b0c8cb"/>
    <g id="Grupo_156595" data-name="Grupo 156595" transform="translate(13.211 14.972)">
      <path id="Trazado_127053" data-name="Trazado 127053" d="M15.294,123.444c.4.089.493-.1.489-.473-.01-.936.006-.952.974-.947.36,0,.472-.11.465-.466-.007-.332-.067-.487-.451-.485-.972,0-1-.016-.986-.986,0-.439-.211-.447-.536-.45s-.494.051-.494.441c0,.982-.02,1-.979,1-.371,0-.459.132-.46.477s.087.477.458.475c.978-.006,1,.013.98.939-.01.43.149.556.539.48" transform="translate(42.499 -85.289)" fill="#29c4bb"/>
      <path id="Trazado_127054" data-name="Trazado 127054" d="M213.439,151.159c-.358-.068-.556.05-.5.455.049.339-.068.528-.443.47s-.5.078-.5.473c0,.414.166.509.519.462.337-.046.444.1.437.437-.011.525.315.727.823.568.241-.075.189-.268.173-.42-.042-.415.053-.67.543-.586.379.064.4-.173.4-.465s-.012-.527-.4-.467c-.415.064-.611-.088-.542-.526.066-.419-.2-.437-.512-.4" transform="translate(-211.994 -106.771)" fill="#29c4bb"/>
      <path id="Trazado_127055" data-name="Trazado 127055" d="M207.477,69.073c-.092.4.09.536.465.473.405-.068.571.1.5.5s.1.483.477.487.536-.112.469-.491c-.072-.4.1-.57.5-.5s.452-.139.468-.489c.018-.41-.141-.518-.5-.455-.389.068-.533-.093-.468-.473.063-.363-.054-.51-.459-.5-.357.013-.563.063-.486.472s-.1.563-.5.5c-.375-.063-.557.071-.464.47" transform="translate(-204.556 -62.099)" fill="#010000"/>
      <path id="Trazado_127056" data-name="Trazado 127056" d="M51.8,186.444c-.087.373.1.509.469.442.437-.079.541.148.478.517-.07.41.129.473.489.471.344,0,.529-.08.456-.45-.095-.487.149-.606.568-.535s.41-.2.412-.493-.006-.528-.395-.451c-.523.1-.656-.148-.586-.615.068-.448-.274-.319-.5-.332s-.51-.046-.44.343c.087.48-.081.7-.59.605-.424-.081-.372.214-.36.5" transform="translate(-5.952 -129.55)" fill="#010000"/>
      <path id="Trazado_127057" data-name="Trazado 127057" d="M124.64,17.234c.1-.425-.135-.508-.483-.456s-.5-.1-.449-.452-.051-.518-.46-.509c-.376.008-.548.105-.483.491s-.116.525-.487.469c-.344-.052-.517.031-.519.451s.16.546.536.487c.4-.063.531.117.47.487-.069.415.154.463.5.47.374.008.5-.133.44-.475-.06-.376.079-.547.471-.482s.546-.094.461-.482" transform="translate(-95.96 -15.817)" fill="#29c4bb"/>
    </g>
    <g id="Grupo_158032" data-name="Grupo 158032" transform="translate(24 24.84)">
      <g id="Grupo_158032-2" data-name="Grupo 158032" clip-path="url(#clip-path)">
        <path id="Trazado_131457" data-name="Trazado 131457" d="M.006,68.934.623,68.4c.392.321.594.009.88-.213a2.327,2.327,0,0,0,.972-2.336A9.552,9.552,0,0,1,2.465,64.5a1.567,1.567,0,0,1,.476-1.146q2.465-2.469,4.934-4.932c.341-.341.493-.3.641.159a2.5,2.5,0,0,1-.651,2.655c-.547.566-1.113,1.115-1.668,1.673-.31.312-.309.318-.014.628a1.894,1.894,0,0,1,.011,2.753c-.1.11-.314.215-.2.4a1.34,1.34,0,0,0,.591.553c.1.042.182-.063.251-.134a2.957,2.957,0,0,0,.671-3.443c-.2-.432-.184-.471.142-.82A10.729,10.729,0,0,0,9.236,61.1c.1-.164.237-.17.376-.045.242.217.47.449.69.688a.289.289,0,0,1-.008.434c-.05.056-.107.106-.153.164-.121.151-.383.249-.331.464.062.258.321.4.515.575a.179.179,0,0,0,.241-.013c.04-.031.075-.066.112-.1.605-.552.868-.512,1.342.194a.275.275,0,0,1-.01.373c-.089.105-.188.2-.285.3-.333.337-.333.337.006.677.388.39.388.39.781,0,.425-.421.446-.421.863-.007.522.519.522.519,0,1.054-.281.289-.281.31,0,.6.079.08.16.158.24.237a.24.24,0,0,0,.389-.008c.052-.054.107-.105.16-.158.457-.452.478-.452.922-.011.071.071.143.14.211.213.264.284.27.375-.01.657q-2.036,2.048-4.082,4.087a1.249,1.249,0,0,1-.508.3c-.63.207-1.255.425-1.888.624a1.608,1.608,0,0,0-.691.429c-.356.368-.707.745-1.091,1.083-.286.252-.433.493-.188.844-.123.256-.4.383-.536.624-2.019,0-4.039,0-6.058.006-.208,0-.25-.042-.249-.249.009-2.07.006-4.139.006-6.208" transform="translate(0 -36.971)" fill="#feddce"/>
        <path id="Trazado_131458" data-name="Trazado 131458" d="M65.225.623,65.758,0c2.075,0,4.151,0,6.227,0,.187,0,.231.042.23.23-.008,2.025,0,4.051,0,6.077-.241.14-.368.414-.625.536-.352-.243-.585-.084-.846.191-.68.716-1.385,1.407-2.091,2.1a1.543,1.543,0,0,0-.446.764c-.028.121-.079.239-.1.361A6.29,6.29,0,0,1,65.7,13.8a.362.362,0,0,1-.561,0c-.091-.086-.179-.174-.268-.263L58.987,7.655c-.353-.353-.356-.353-.708,0Q57.27,8.659,56.264,9.667a2.6,2.6,0,0,1-2.656.687c-.485-.127-.53-.309-.183-.658q2.342-2.35,4.689-4.7a.909.909,0,0,1,.7-.291c.849.009,1.7-.006,2.549.008a.924.924,0,0,0,.727-.305Q63.535,2.944,65,1.5c.262-.258.547-.481.221-.874" transform="translate(-33.795 0)" fill="#feddce"/>
        <path id="Trazado_131459" data-name="Trazado 131459" d="M31.967,1.111c.353.425.353.425-.057.835C30.9,2.953,29.888,3.953,28.895,4.974a.924.924,0,0,1-.752.3c-.887-.018-1.774,0-2.661-.011a.626.626,0,0,0-.491.2Q22.572,7.9,20.14,10.315c-.2.2-.2.289.076.387a2.382,2.382,0,0,0,2.627-.543q1.119-1.08,2.2-2.2c.246-.258.377-.3.656-.015,2.052,2.082,4.131,4.137,6.186,6.216.241.244.353.224.571-.009a12.83,12.83,0,0,0,1.675-1.756,10.432,10.432,0,0,0,.813-2.275,1.122,1.122,0,0,1,.291-.467C36,8.9,36.755,8.135,37.516,7.376c.4-.4.4-.4.811-.046.422.514.422.514-.063,1-.655.653-1.308,1.308-1.968,1.955a1.211,1.211,0,0,0-.315.5,10.682,10.682,0,0,1-.818,2.276,10.8,10.8,0,0,1-1.657,1.723c-.494.5-.494.5-.01.982,1.6,1.6,3.194,3.2,4.8,4.793.209.206.178.3-.01.484q-7.829,7.812-15.639,15.642c-.224.224-.325.172-.515-.019-1.664-1.676-3.341-3.339-5-5.019-.213-.215-.314-.191-.512.01-1.422,1.441-2.859,2.867-4.285,4.3a1.1,1.1,0,0,1-.5.311c-.108.03-.212.074-.321.1A5.485,5.485,0,0,0,8.17,38.428c-.23.3-.413.276-.619-.009a.859.859,0,0,0-.171-.141c-.348-.417-.311-.387.038-.817a5.9,5.9,0,0,1,3.511-2.16,1.817,1.817,0,0,0,.94-.566q1.958-1.993,3.946-3.955c.189-.186.181-.282,0-.462-.626-.61-.627-.626-1.223-.009-.189.2-.311.241-.49.005s-.547-.382-.532-.626c.013-.209.326-.418.536-.591.227-.187.211-.321-.008-.491s-.379-.55-.624-.53c-.211.018-.414.334-.587.545s-.3.208-.484,0a7.15,7.15,0,0,0-.661-.589c.278-.268.481-.49.712-.68.192-.157.16-.263-.011-.4-.232-.185-.4-.576-.655-.561-.217.012-.431.341-.62.554-.161.181-.271.2-.433,0-.183-.22-.529-.4-.559-.626-.032-.245.329-.436.54-.62s.19-.316-.012-.493c-.253-.221-.479-.474-.745-.742a9.472,9.472,0,0,1-1.843,2.114.294.294,0,0,0-.065.41,3.055,3.055,0,0,1-.787,3.852c-.137.116-.2.083-.3-.024-.2-.22-.525-.4-.6-.654-.079-.275.325-.411.488-.634a1.824,1.824,0,0,0-.2-2.421c-.372-.386-.372-.386.013-.771.583-.584,1.176-1.157,1.746-1.754a2.32,2.32,0,0,0,.329-2.879l-3.63,3.639c-.468.469-.929.946-1.409,1.4a2,2,0,0,0-.651,1.572c.013.725,0,1.45.008,2.175a.642.642,0,0,1-.219.523c-.345.326-.69.655-1,1.009-.2.228-.352.272-.537.005a.645.645,0,0,0-.143-.115c-.418-.5-.448-.538.082-.986a1.587,1.587,0,0,0,.626-1.526,9.81,9.81,0,0,1-.009-1.2,3.1,3.1,0,0,1,.968-2.277c1.358-1.347,2.7-2.707,4.068-4.048.21-.206.184-.3-.008-.493C5.632,20.152,4.394,18.9,3.14,17.658c-.19-.188-.245-.287-.019-.512Q10.955,9.334,18.766,1.5c.212-.213.307-.171.491.015C20.575,2.847,21.9,4.17,23.266,5.535c.4-.412.8-.808,1.178-1.221a.708.708,0,0,1,.584-.251c.913.015,1.826,0,2.738.011a.7.7,0,0,0,.556-.233c.939-.953,1.9-1.885,2.826-2.849.268-.279.448-.319.675,0a.663.663,0,0,0,.144.115" transform="translate(-0.537 -0.488)"/>
        <path id="Trazado_131460" data-name="Trazado 131460" d="M39.607,93.593c-.052.062-.095.123-.146.174q-1.627,1.628-3.252,3.258c-.131.132-.215.166-.352.007-.2-.235-.57-.43-.6-.679-.032-.23.361-.434.57-.645.914-.921,1.837-1.833,2.748-2.757.153-.155.249-.2.406-.011s.332.338.5.506c.043.044.083.092.132.146" transform="translate(-22.393 -58.961)"/>
        <path id="Trazado_131461" data-name="Trazado 131461" d="M49.429,98.516a1.853,1.853,0,0,1-.12.147c-.5.5-1.007,1-1.506,1.511-.108.11-.172.122-.3.009-.752-.665-.755-.66-.061-1.355.326-.326.657-.648.976-.982.127-.133.216-.17.353-.01.162.189.35.355.526.533.043.044.082.092.131.146" transform="translate(-29.813 -62.084)" fill="#010101"/>
        <path id="Trazado_131462" data-name="Trazado 131462" d="M1.444,58.725c-.122-.134-.259-.3-.408-.446-.37-.376-.372-.374,0-.742.811-.81,1.626-1.616,2.428-2.435.16-.164.256-.182.406,0,.19.228.553.424.569.653s-.362.435-.571.647c-.709.718-1.425,1.429-2.141,2.142a.428.428,0,0,1-.281.182" transform="translate(-0.481 -34.921)"/>
        <path id="Trazado_131463" data-name="Trazado 131463" d="M1.507,50.457c-.087-.1-.174-.228-.279-.333-.507-.513-.508-.511.015-1.033l.026-.026c.727-.725.726-.725,1.377.071.057.069.131.124.039.216q-.515.515-1.031,1.028a.778.778,0,0,1-.147.078" transform="translate(-0.54 -30.829)" fill="#010101"/>
        <path id="Trazado_131464" data-name="Trazado 131464" d="M27.824,16.041a3.529,3.529,0,0,0,2.517-1.072c.488-.484.981-.963,1.455-1.461.17-.178.263-.173.436,0q4.924,4.94,9.864,9.862c.22.218.165.306-.035.476q-4.829,4.1-9.648,8.214Q29.7,34.369,27,36.683c-.19.163-.287.18-.475-.009q-4.683-4.7-9.384-9.388a.637.637,0,0,1-.206-.487,3.716,3.716,0,0,0-1.323-2.753c-.1-.094-.178-.127-.274-.006a.546.546,0,0,1-.08.079c-.228.188-.4.588-.653.556-.239-.031-.441-.371-.652-.582-.841-.838-1.674-1.684-2.523-2.514-.177-.173-.167-.26,0-.43q7.006-6.993,14-14c.2-.2.288-.16.461.016q1.445,1.471,2.917,2.916c.2.193.21.29,0,.492-1.275,1.253-2.53,2.525-3.8,3.782-.169.167-.182.253-.008.433a3.715,3.715,0,0,0,2.822,1.254" transform="translate(-7.177 -4.457)" fill="#fe8965"/>
        <path id="Trazado_131465" data-name="Trazado 131465" d="M57.6,69.681c-.111-.1-.178-.148-.237-.208-.355-.352-.7-.716-1.065-1.055-.174-.161-.162-.238.018-.39q2.975-2.518,5.935-5.052,4.492-3.828,8.993-7.645c.148-.125.287-.529.573-.241.306.309-.128.414-.26.547Q64.7,62.53,57.818,69.4a2.686,2.686,0,0,0-.213.277" transform="translate(-35.688 -34.932)" fill="#fe7043"/>
        <path id="Trazado_131466" data-name="Trazado 131466" d="M56.27,56.851c-.057.062-.105.119-.158.171q-3.219,3.222-6.436,6.445c-.132.132-.209.152-.352.007q-1.514-1.533-3.048-3.048c-.136-.135-.148-.212,0-.355q3.227-3.213,6.441-6.44c.138-.139.218-.143.358,0,1.01,1.021,2.029,2.035,3.045,3.051.052.052.1.109.155.17" transform="translate(-29.329 -34.003)"/>
        <path id="Trazado_131467" data-name="Trazado 131467" d="M28.04,38.025c-.055.063-.1.12-.15.171Q25.946,40.141,24,42.089c-.153.154-.233.14-.381,0-.67-.656-.675-.651-.01-1.316,1.12-1.12,2.244-2.236,3.356-3.364.178-.181.293-.221.466-.008a6.725,6.725,0,0,0,.472.48c.043.044.082.092.133.149" transform="translate(-14.686 -23.664)" fill="#fefefe"/>
        <path id="Trazado_131468" data-name="Trazado 131468" d="M33.334,45c-.069.077-.124.143-.184.2-.714.715-1.433,1.426-2.141,2.147-.142.144-.221.167-.38.011-.669-.651-.675-.645-.006-1.314.556-.556,1.119-1.1,1.663-1.671.174-.182.29-.226.462-.008.13.165.3.3.445.454.05.052.091.113.142.177" transform="translate(-19.136 -28.093)" fill="#fefefe"/>
        <path id="Trazado_131469" data-name="Trazado 131469" d="M52.477,64.836c-.108,0-.142-.075-.192-.124-.462-.457-.918-.921-1.384-1.373-.127-.123-.129-.195,0-.324q2.394-2.379,4.774-4.773c.126-.127.2-.133.326,0q.678.7,1.378,1.379c.129.125.127.2,0,.329Q54.987,62.33,52.6,64.72c-.043.043-.09.083-.126.116" transform="translate(-32.274 -36.937)" fill="#e1fb84"/>
      </g>
    </g>
  </g>
</svg>
