<svg xmlns="http://www.w3.org/2000/svg" width="85.524" height="59.853" viewBox="0 0 85.524 59.853">
  <g id="Grupo_157943" data-name="Grupo 157943" transform="translate(-180 -1138)">
    <path id="Trazado_99274" data-name="Trazado 99274" d="M418.688,119.934a2.239,2.239,0,1,1-2.238-2.14A2.191,2.191,0,0,1,418.688,119.934Z" transform="translate(-234.213 1020.206)" fill="#1169e3"/>
    <path id="Trazado_116550" data-name="Trazado 116550" d="M418.688,119.934a2.239,2.239,0,1,1-2.238-2.14A2.191,2.191,0,0,1,418.688,119.934Z" transform="translate(-234.213 1053.55)" fill="#1169e3"/>
    <path id="Trazado_116529" data-name="Trazado 116529" d="M418.688,119.934a2.239,2.239,0,1,1-2.238-2.14A2.191,2.191,0,0,1,418.688,119.934Z" transform="translate(-183.558 1020.206)" fill="#1169e3"/>
    <path id="Trazado_116551" data-name="Trazado 116551" d="M418.688,119.934a2.239,2.239,0,1,1-2.238-2.14A2.191,2.191,0,0,1,418.688,119.934Z" transform="translate(-183.558 1053.55)" fill="#1169e3"/>
    <path id="Trazado_99275" data-name="Trazado 99275" d="M427.134,119.934a2.239,2.239,0,1,1-2.236-2.14A2.19,2.19,0,0,1,427.134,119.934Z" transform="translate(-232.528 1020.206)" fill="#1169e3"/>
    <path id="Trazado_116552" data-name="Trazado 116552" d="M427.134,119.934a2.239,2.239,0,1,1-2.236-2.14A2.19,2.19,0,0,1,427.134,119.934Z" transform="translate(-232.528 1053.55)" fill="#1169e3"/>
    <path id="Trazado_116530" data-name="Trazado 116530" d="M427.134,119.934a2.239,2.239,0,1,1-2.236-2.14A2.19,2.19,0,0,1,427.134,119.934Z" transform="translate(-181.872 1020.206)" fill="#1169e3"/>
    <path id="Trazado_116553" data-name="Trazado 116553" d="M427.134,119.934a2.239,2.239,0,1,1-2.236-2.14A2.19,2.19,0,0,1,427.134,119.934Z" transform="translate(-181.872 1053.55)" fill="#1169e3"/>
    <path id="Trazado_99276" data-name="Trazado 99276" d="M435.58,119.934a2.239,2.239,0,1,1-2.236-2.14A2.191,2.191,0,0,1,435.58,119.934Z" transform="translate(-230.843 1020.206)" fill="#1169e3"/>
    <path id="Trazado_116554" data-name="Trazado 116554" d="M435.58,119.934a2.239,2.239,0,1,1-2.236-2.14A2.191,2.191,0,0,1,435.58,119.934Z" transform="translate(-230.843 1053.55)" fill="#1169e3"/>
    <path id="Trazado_116534" data-name="Trazado 116534" d="M435.58,119.934a2.239,2.239,0,1,1-2.236-2.14A2.191,2.191,0,0,1,435.58,119.934Z" transform="translate(-180.188 1020.206)" fill="#1169e3"/>
    <path id="Trazado_116555" data-name="Trazado 116555" d="M435.58,119.934a2.239,2.239,0,1,1-2.236-2.14A2.191,2.191,0,0,1,435.58,119.934Z" transform="translate(-180.188 1053.55)" fill="#1169e3"/>
    <path id="Trazado_99277" data-name="Trazado 99277" d="M444.027,119.934a2.239,2.239,0,1,1-2.238-2.14A2.191,2.191,0,0,1,444.027,119.934Z" transform="translate(-229.159 1020.206)" fill="#1169e3"/>
    <path id="Trazado_116556" data-name="Trazado 116556" d="M444.027,119.934a2.239,2.239,0,1,1-2.238-2.14A2.191,2.191,0,0,1,444.027,119.934Z" transform="translate(-229.159 1053.55)" fill="#1169e3"/>
    <path id="Trazado_116535" data-name="Trazado 116535" d="M444.027,119.934a2.239,2.239,0,1,1-2.238-2.14A2.191,2.191,0,0,1,444.027,119.934Z" transform="translate(-178.503 1020.206)" fill="#1169e3"/>
    <path id="Trazado_116557" data-name="Trazado 116557" d="M444.027,119.934a2.239,2.239,0,1,1-2.238-2.14A2.191,2.191,0,0,1,444.027,119.934Z" transform="translate(-178.503 1053.55)" fill="#1169e3"/>
    <path id="Trazado_99278" data-name="Trazado 99278" d="M452.473,119.934a2.239,2.239,0,1,1-2.236-2.14A2.19,2.19,0,0,1,452.473,119.934Z" transform="translate(-227.474 1020.206)" fill="#1169e3"/>
    <path id="Trazado_116558" data-name="Trazado 116558" d="M452.473,119.934a2.239,2.239,0,1,1-2.236-2.14A2.19,2.19,0,0,1,452.473,119.934Z" transform="translate(-227.474 1053.55)" fill="#1169e3"/>
    <ellipse id="Elipse_3980" data-name="Elipse 3980" cx="2.237" cy="2.139" rx="2.237" ry="2.139" transform="translate(180 1149.118)" fill="#1169e3"/>
    <ellipse id="Elipse_4935" data-name="Elipse 4935" cx="2.237" cy="2.139" rx="2.237" ry="2.139" transform="translate(180 1182.462)" fill="#1169e3"/>
    <ellipse id="Elipse_4744" data-name="Elipse 4744" cx="2.237" cy="2.139" rx="2.237" ry="2.139" transform="translate(230.656 1149.118)" fill="#1169e3"/>
    <ellipse id="Elipse_4936" data-name="Elipse 4936" cx="2.237" cy="2.139" rx="2.237" ry="2.139" transform="translate(230.656 1182.462)" fill="#1169e3"/>
    <path id="Trazado_99285" data-name="Trazado 99285" d="M427.134,127.442a2.239,2.239,0,1,1-2.236-2.14A2.189,2.189,0,0,1,427.134,127.442Z" transform="translate(-232.528 1023.813)" fill="#1169e3"/>
    <path id="Trazado_131188" data-name="Trazado 131188" d="M427.134,127.442a2.239,2.239,0,1,1-2.236-2.14A2.189,2.189,0,0,1,427.134,127.442Z" transform="translate(-232.528 1057.157)" fill="#1169e3"/>
    <path id="Trazado_116536" data-name="Trazado 116536" d="M427.134,127.442a2.239,2.239,0,1,1-2.236-2.14A2.189,2.189,0,0,1,427.134,127.442Z" transform="translate(-181.872 1023.813)" fill="#1169e3"/>
    <path id="Trazado_131189" data-name="Trazado 131189" d="M427.134,127.442a2.239,2.239,0,1,1-2.236-2.14A2.189,2.189,0,0,1,427.134,127.442Z" transform="translate(-181.872 1057.157)" fill="#1169e3"/>
    <ellipse id="Elipse_3981" data-name="Elipse 3981" cx="2.237" cy="2.139" rx="2.237" ry="2.139" transform="translate(200.263 1149.118)" fill="#1169e3"/>
    <ellipse id="Elipse_4937" data-name="Elipse 4937" cx="2.237" cy="2.139" rx="2.237" ry="2.139" transform="translate(200.263 1182.462)" fill="#1169e3"/>
    <ellipse id="Elipse_4745" data-name="Elipse 4745" cx="2.237" cy="2.139" rx="2.237" ry="2.139" transform="translate(250.918 1149.118)" fill="#1169e3"/>
    <ellipse id="Elipse_4938" data-name="Elipse 4938" cx="2.237" cy="2.139" rx="2.237" ry="2.139" transform="translate(250.918 1182.462)" fill="#1169e3"/>
    <path id="Trazado_99286" data-name="Trazado 99286" d="M444.027,127.442a2.239,2.239,0,1,1-2.238-2.14A2.189,2.189,0,0,1,444.027,127.442Z" transform="translate(-229.159 1023.813)" fill="#1169e3"/>
    <path id="Trazado_131190" data-name="Trazado 131190" d="M444.027,127.442a2.239,2.239,0,1,1-2.238-2.14A2.189,2.189,0,0,1,444.027,127.442Z" transform="translate(-229.159 1057.157)" fill="#1169e3"/>
    <path id="Trazado_116537" data-name="Trazado 116537" d="M444.027,127.442a2.239,2.239,0,1,1-2.238-2.14A2.189,2.189,0,0,1,444.027,127.442Z" transform="translate(-178.503 1023.813)" fill="#1169e3"/>
    <path id="Trazado_131191" data-name="Trazado 131191" d="M444.027,127.442a2.239,2.239,0,1,1-2.238-2.14A2.189,2.189,0,0,1,444.027,127.442Z" transform="translate(-178.503 1057.157)" fill="#1169e3"/>
    <path id="Trazado_99287" data-name="Trazado 99287" d="M452.473,127.442a2.239,2.239,0,1,1-2.236-2.14A2.189,2.189,0,0,1,452.473,127.442Z" transform="translate(-227.474 1023.813)" fill="#1169e3"/>
    <path id="Trazado_131192" data-name="Trazado 131192" d="M452.473,127.442a2.239,2.239,0,1,1-2.236-2.14A2.189,2.189,0,0,1,452.473,127.442Z" transform="translate(-227.474 1057.157)" fill="#1169e3"/>
    <ellipse id="Elipse_3985" data-name="Elipse 3985" cx="2.237" cy="2.139" rx="2.237" ry="2.139" transform="translate(180 1160.229)" fill="#1169e3"/>
    <ellipse id="Elipse_4934" data-name="Elipse 4934" cx="2.237" cy="2.139" rx="2.237" ry="2.139" transform="translate(180 1193.573)" fill="#1169e3"/>
    <ellipse id="Elipse_4746" data-name="Elipse 4746" cx="2.237" cy="2.139" rx="2.237" ry="2.139" transform="translate(230.656 1160.229)" fill="#1169e3"/>
    <ellipse id="Elipse_4931" data-name="Elipse 4931" cx="2.237" cy="2.139" rx="2.237" ry="2.139" transform="translate(230.656 1193.573)" fill="#1169e3"/>
    <path id="Trazado_99291" data-name="Trazado 99291" d="M427.134,134.95a2.239,2.239,0,1,1-2.236-2.14A2.189,2.189,0,0,1,427.134,134.95Z" transform="translate(-232.528 1027.421)" fill="#1169e3"/>
    <path id="Trazado_131186" data-name="Trazado 131186" d="M427.134,134.95a2.239,2.239,0,1,1-2.236-2.14A2.189,2.189,0,0,1,427.134,134.95Z" transform="translate(-232.528 1060.765)" fill="#1169e3"/>
    <path id="Trazado_116538" data-name="Trazado 116538" d="M427.134,134.95a2.239,2.239,0,1,1-2.236-2.14A2.189,2.189,0,0,1,427.134,134.95Z" transform="translate(-181.872 1027.421)" fill="#1169e3"/>
    <path id="Trazado_131181" data-name="Trazado 131181" d="M427.134,134.95a2.239,2.239,0,1,1-2.236-2.14A2.189,2.189,0,0,1,427.134,134.95Z" transform="translate(-181.872 1060.765)" fill="#1169e3"/>
    <ellipse id="Elipse_3986" data-name="Elipse 3986" cx="2.237" cy="2.139" rx="2.237" ry="2.139" transform="translate(200.263 1160.229)" fill="#1169e3"/>
    <ellipse id="Elipse_4932" data-name="Elipse 4932" cx="2.237" cy="2.139" rx="2.237" ry="2.139" transform="translate(200.263 1193.573)" fill="#1169e3"/>
    <ellipse id="Elipse_4747" data-name="Elipse 4747" cx="2.237" cy="2.139" rx="2.237" ry="2.139" transform="translate(250.918 1160.229)" fill="#1169e3"/>
    <ellipse id="Elipse_4933" data-name="Elipse 4933" cx="2.237" cy="2.139" rx="2.237" ry="2.139" transform="translate(250.918 1193.573)" fill="#1169e3"/>
    <path id="Trazado_99292" data-name="Trazado 99292" d="M444.027,134.95a2.239,2.239,0,1,1-2.238-2.14A2.189,2.189,0,0,1,444.027,134.95Z" transform="translate(-229.159 1027.421)" fill="#1169e3"/>
    <path id="Trazado_131182" data-name="Trazado 131182" d="M444.027,134.95a2.239,2.239,0,1,1-2.238-2.14A2.189,2.189,0,0,1,444.027,134.95Z" transform="translate(-229.159 1060.765)" fill="#1169e3"/>
    <path id="Trazado_116539" data-name="Trazado 116539" d="M444.027,134.95a2.239,2.239,0,1,1-2.238-2.14A2.189,2.189,0,0,1,444.027,134.95Z" transform="translate(-178.503 1027.421)" fill="#1169e3"/>
    <path id="Trazado_131183" data-name="Trazado 131183" d="M444.027,134.95a2.239,2.239,0,1,1-2.238-2.14A2.189,2.189,0,0,1,444.027,134.95Z" transform="translate(-178.503 1060.765)" fill="#1169e3"/>
    <path id="Trazado_99293" data-name="Trazado 99293" d="M452.473,134.95a2.239,2.239,0,1,1-2.236-2.14A2.189,2.189,0,0,1,452.473,134.95Z" transform="translate(-227.474 1027.421)" fill="#1169e3"/>
    <path id="Trazado_131184" data-name="Trazado 131184" d="M452.473,134.95a2.239,2.239,0,1,1-2.236-2.14A2.189,2.189,0,0,1,452.473,134.95Z" transform="translate(-227.474 1060.765)" fill="#1169e3"/>
  </g>
</svg>
