<svg xmlns="http://www.w3.org/2000/svg" xmlns:xlink="http://www.w3.org/1999/xlink" width="394" height="394" viewBox="0 0 394 394">
  <defs>
    <clipPath id="clip-path">
      <rect id="Rect치ngulo_37802" data-name="Rect치ngulo 37802" width="394" height="394" fill="none"/>
    </clipPath>
    <clipPath id="clip-path-2">
      <rect id="Rect치ngulo_37894" data-name="Rect치ngulo 37894" width="80.202" height="69.208" fill="none"/>
    </clipPath>
  </defs>
  <g id="Grupo_158660" data-name="Grupo 158660" transform="translate(-603 -4420)">
    <g id="Grupo_158659" data-name="Grupo 158659">
      <g id="Grupo_157801" data-name="Grupo 157801" transform="translate(603 4420)">
        <g id="Grupo_157800" data-name="Grupo 157800" clip-path="url(#clip-path)">
          <path id="Trazado_130938" data-name="Trazado 130938" d="M197,0c-.167,0-.333.006-.5.006V42.013c.167,0,.332-.013.5-.013a31,31,0,0,1,0,62c-.168,0-.333-.01-.5-.013v23.026c.167,0,.332-.013.5-.013a69.992,69.992,0,0,1,69.987,69.5H289a31,31,0,0,0,62,0h42.994C393.723,87.93,305.633,0,197,0" fill="#afd1d5"/>
          <path id="Trazado_130939" data-name="Trazado 130939" d="M196.5,289.013V266.988A69.993,69.993,0,0,1,127,197c0-.167.011-.332.013-.5H104a31,31,0,0,0-62,0H.006c0,.167-.006.333-.006.5C0,305.633,87.93,393.724,196.5,393.994V350.988a30.991,30.991,0,0,1,0-61.975" fill="#afd1d5"/>
          <path id="Trazado_130940" data-name="Trazado 130940" d="M197,42c-.168,0-.333.01-.5.013V.006C88.1.276.276,88.1.006,196.5H42a31,31,0,0,1,62,0h23.013A69.985,69.985,0,0,1,196.5,127.013V103.987c.167,0,.332.013.5.013a31,31,0,0,0,0-62" fill="#ccdef4"/>
          <path id="Trazado_130941" data-name="Trazado 130941" d="M393.994,196.5H351a31,31,0,0,1-62,0H266.988c0,.167.012.332.012.5a70,70,0,0,1-70,70c-.167,0-.332-.011-.5-.013v22.026a30.991,30.991,0,0,0,0,61.974v43.007c.167,0,.333.006.5.006,108.8,0,197-88.2,197-197,0-.167-.006-.333-.006-.5" fill="#ccdef4"/>
        </g>
      </g>
      <path id="Trazado_133796" data-name="Trazado 133796" d="M4.078-11.375,7-3.125l2.906-8.25h3.078V0H10.633V-3.109l.234-5.367L7.8,0H6.188L3.125-8.469l.234,5.359V0H1.016V-11.375ZM18.773.156A4.15,4.15,0,0,1,15.746-.984a4.054,4.054,0,0,1-1.168-3.039v-.219A5.106,5.106,0,0,1,15.07-6.52a3.612,3.612,0,0,1,1.395-1.547,3.914,3.914,0,0,1,2.059-.543,3.508,3.508,0,0,1,2.73,1.094,4.444,4.444,0,0,1,1,3.1v.922H16.867a2.1,2.1,0,0,0,.66,1.328,2,2,0,0,0,1.395.5,2.437,2.437,0,0,0,2.039-.945L22.07-1.367A3.389,3.389,0,0,1,20.7-.246,4.511,4.511,0,0,1,18.773.156Zm-.258-6.945a1.411,1.411,0,0,0-1.09.455,2.357,2.357,0,0,0-.535,1.3h3.141v-.181a1.681,1.681,0,0,0-.406-1.165A1.456,1.456,0,0,0,18.516-6.789Zm7.133-1.664.07.945a2.971,2.971,0,0,1,2.43-1.1A2.255,2.255,0,0,1,30.391-7.32,2.9,2.9,0,0,1,32.93-8.609a2.521,2.521,0,0,1,2.047.8,3.681,3.681,0,0,1,.672,2.41V0H33.383V-5.391A1.61,1.61,0,0,0,33.1-6.441a1.246,1.246,0,0,0-.992-.332A1.409,1.409,0,0,0,30.7-5.8L30.711,0H28.453V-5.383a1.59,1.59,0,0,0-.289-1.062,1.259,1.259,0,0,0-.984-.328,1.463,1.463,0,0,0-1.391.8V0H23.531V-8.453ZM45-4.148A5.119,5.119,0,0,1,44.133-.98,2.872,2.872,0,0,1,41.711.156,2.639,2.639,0,0,1,39.516-.9l-.1.9H37.383V-12h2.258v4.3A2.571,2.571,0,0,1,41.7-8.609a2.9,2.9,0,0,1,2.426,1.137A5.126,5.126,0,0,1,45-4.273Zm-2.258-.164a3.363,3.363,0,0,0-.406-1.871,1.374,1.374,0,0,0-1.211-.59,1.489,1.489,0,0,0-1.484.883v3.336a1.509,1.509,0,0,0,1.5.891,1.394,1.394,0,0,0,1.438-1.078A5.562,5.562,0,0,0,42.742-4.312Zm8.4-2.023a6.134,6.134,0,0,0-.812-.062,1.654,1.654,0,0,0-1.68.867V0H46.391V-8.453h2.133l.063,1.008a2.092,2.092,0,0,1,1.883-1.164,2.366,2.366,0,0,1,.7.1ZM56.117.156A4.15,4.15,0,0,1,53.09-.984a4.054,4.054,0,0,1-1.168-3.039v-.219a5.106,5.106,0,0,1,.492-2.277,3.612,3.612,0,0,1,1.395-1.547,3.914,3.914,0,0,1,2.059-.543A3.508,3.508,0,0,1,58.6-7.516a4.444,4.444,0,0,1,1,3.1v.922H54.211a2.1,2.1,0,0,0,.66,1.328,2,2,0,0,0,1.395.5A2.437,2.437,0,0,0,58.3-2.609l1.109,1.242A3.389,3.389,0,0,1,58.039-.246,4.511,4.511,0,0,1,56.117.156Zm-.258-6.945a1.411,1.411,0,0,0-1.09.455,2.357,2.357,0,0,0-.535,1.3h3.141v-.181a1.681,1.681,0,0,0-.406-1.165A1.456,1.456,0,0,0,55.859-6.789Zm9.594,4.453a.727.727,0,0,0-.41-.652,4.659,4.659,0,0,0-1.316-.426q-3.016-.633-3.016-2.562a2.323,2.323,0,0,1,.934-1.879,3.766,3.766,0,0,1,2.441-.754,4.053,4.053,0,0,1,2.574.758,2.388,2.388,0,0,1,.965,1.969H65.367a1.092,1.092,0,0,0-.312-.8A1.322,1.322,0,0,0,64.078-7a1.351,1.351,0,0,0-.883.258.814.814,0,0,0-.312.656.7.7,0,0,0,.355.605,3.657,3.657,0,0,0,1.2.4,9.8,9.8,0,0,1,1.422.379A2.336,2.336,0,0,1,67.648-2.43a2.2,2.2,0,0,1-.992,1.871,4.28,4.28,0,0,1-2.562.715,4.47,4.47,0,0,1-1.887-.379,3.166,3.166,0,0,1-1.293-1.039,2.414,2.414,0,0,1-.469-1.426h2.141a1.179,1.179,0,0,0,.445.922,1.766,1.766,0,0,0,1.109.32,1.635,1.635,0,0,0,.98-.246A.766.766,0,0,0,65.453-2.336ZM71.539,0H69.281V-8.453h2.258Zm-.664-11.883h2.461L71.172-9.461H69.336ZM78.383,0a2.507,2.507,0,0,1-.227-.758,2.732,2.732,0,0,1-2.133.914,3,3,0,0,1-2.059-.719,2.312,2.312,0,0,1-.816-1.812,2.389,2.389,0,0,1,1-2.062,4.915,4.915,0,0,1,2.879-.727h1.039v-.484a1.393,1.393,0,0,0-.3-.937,1.183,1.183,0,0,0-.949-.352,1.345,1.345,0,0,0-.895.273.929.929,0,0,0-.324.75H73.336a2.268,2.268,0,0,1,.453-1.359,3,3,0,0,1,1.281-.98,4.669,4.669,0,0,1,1.859-.355,3.689,3.689,0,0,1,2.48.785,2.747,2.747,0,0,1,.918,2.207v3.664a4.041,4.041,0,0,0,.336,1.82V0ZM76.516-1.57a1.945,1.945,0,0,0,.922-.223,1.462,1.462,0,0,0,.625-.6V-3.844h-.844q-1.7,0-1.8,1.172l-.008.133a.9.9,0,0,0,.3.7A1.153,1.153,0,0,0,76.516-1.57Z" transform="translate(674 4539)" fill="#12263f"/>
      <path id="Trazado_133797" data-name="Trazado 133797" d="M3.508,0H1.164V-11.375H3.508Zm4.1-8.453.07.977a2.951,2.951,0,0,1,2.43-1.133,2.453,2.453,0,0,1,2,.789,3.682,3.682,0,0,1,.672,2.359V0H10.523V-5.406a1.465,1.465,0,0,0-.312-1.043,1.4,1.4,0,0,0-1.039-.324,1.553,1.553,0,0,0-1.43.813V0H5.484V-8.453Zm12.547-1.8a10.867,10.867,0,0,0-1.25-.078q-1.531,0-1.531,1.3v.57h1.68V-6.8h-1.68V0H15.109V-6.8H13.852V-8.453h1.258v-.656a2.888,2.888,0,0,1,.922-2.262,3.769,3.769,0,0,1,2.563-.793q1.18,0,3.828.25V0H20.156Zm9.2,9.391A2.831,2.831,0,0,1,27.047.156a2.67,2.67,0,0,1-2.074-.781,3.335,3.335,0,0,1-.73-2.289V-8.453H26.5v5.467q0,1.322,1.2,1.322a1.63,1.63,0,0,0,1.578-.8V-8.453h2.266V0H29.422ZM37.141.156A4.15,4.15,0,0,1,34.113-.984a4.054,4.054,0,0,1-1.168-3.039v-.219a5.106,5.106,0,0,1,.492-2.277,3.612,3.612,0,0,1,1.395-1.547,3.914,3.914,0,0,1,2.059-.543,3.508,3.508,0,0,1,2.73,1.094,4.444,4.444,0,0,1,1,3.1v.922H35.234a2.1,2.1,0,0,0,.66,1.328,2,2,0,0,0,1.395.5,2.437,2.437,0,0,0,2.039-.945l1.109,1.242A3.389,3.389,0,0,1,39.063-.246,4.511,4.511,0,0,1,37.141.156Zm-.258-6.945a1.411,1.411,0,0,0-1.09.455,2.357,2.357,0,0,0-.535,1.3H38.4v-.181a1.681,1.681,0,0,0-.406-1.165A1.456,1.456,0,0,0,36.883-6.789Zm7.094-1.664.07.977a2.951,2.951,0,0,1,2.43-1.133,2.453,2.453,0,0,1,2,.789,3.682,3.682,0,0,1,.672,2.359V0H46.891V-5.406a1.465,1.465,0,0,0-.312-1.043,1.4,1.4,0,0,0-1.039-.324,1.553,1.553,0,0,0-1.43.813V0H41.852V-8.453Zm10.4,6.789a1.481,1.481,0,0,0,1.016-.344,1.2,1.2,0,0,0,.406-.914h2.117a2.9,2.9,0,0,1-.469,1.574A3.093,3.093,0,0,1,56.184-.238a3.949,3.949,0,0,1-1.77.395A3.67,3.67,0,0,1,51.555-1,4.56,4.56,0,0,1,50.508-4.18v-.148a4.508,4.508,0,0,1,1.039-3.117A3.627,3.627,0,0,1,54.4-8.609a3.555,3.555,0,0,1,2.543.9,3.2,3.2,0,0,1,.973,2.4H55.8a1.551,1.551,0,0,0-.406-1.072,1.354,1.354,0,0,0-1.031-.412,1.36,1.36,0,0,0-1.191.575,3.333,3.333,0,0,0-.4,1.866v.235a3.375,3.375,0,0,0,.4,1.878A1.377,1.377,0,0,0,54.375-1.664ZM61.586,0H59.32V-8.453h2.266Zm-2.4-10.641a1.112,1.112,0,0,1,.34-.836,1.277,1.277,0,0,1,.926-.328,1.28,1.28,0,0,1,.922.328,1.105,1.105,0,0,1,.344.836,1.108,1.108,0,0,1-.348.844,1.283,1.283,0,0,1-.918.328,1.283,1.283,0,0,1-.918-.328A1.108,1.108,0,0,1,59.188-10.641ZM68.344,0a2.507,2.507,0,0,1-.227-.758,2.732,2.732,0,0,1-2.133.914,3,3,0,0,1-2.059-.719,2.312,2.312,0,0,1-.816-1.812,2.389,2.389,0,0,1,1-2.062,4.915,4.915,0,0,1,2.879-.727h1.039v-.484a1.393,1.393,0,0,0-.3-.937,1.183,1.183,0,0,0-.949-.352,1.345,1.345,0,0,0-.895.273.929.929,0,0,0-.324.75H63.3a2.268,2.268,0,0,1,.453-1.359,3,3,0,0,1,1.281-.98,4.669,4.669,0,0,1,1.859-.355,3.689,3.689,0,0,1,2.48.785,2.747,2.747,0,0,1,.918,2.207v3.664a4.041,4.041,0,0,0,.336,1.82V0ZM66.477-1.57a1.945,1.945,0,0,0,.922-.223,1.462,1.462,0,0,0,.625-.6V-3.844H67.18q-1.7,0-1.8,1.172l-.008.133a.9.9,0,0,0,.3.7A1.153,1.153,0,0,0,66.477-1.57Z" transform="translate(856 4539)" fill="#12263f"/>
      <path id="Trazado_133798" data-name="Trazado 133798" d="M-25.8-3.789A4.025,4.025,0,0,1-27.16-.9,4.76,4.76,0,0,1-30.383.156a4.28,4.28,0,0,1-3.441-1.473,6.038,6.038,0,0,1-1.254-4.043v-.7A6.819,6.819,0,0,1-34.5-8.945a4.332,4.332,0,0,1,1.652-1.918,4.629,4.629,0,0,1,2.5-.668,4.637,4.637,0,0,1,3.172,1.055,4.326,4.326,0,0,1,1.391,2.961h-2.344a2.376,2.376,0,0,0-.613-1.6,2.271,2.271,0,0,0-1.605-.5,1.991,1.991,0,0,0-1.754.84,4.707,4.707,0,0,0-.6,2.605V-5.3a5.038,5.038,0,0,0,.559,2.7,1.954,1.954,0,0,0,1.762.852,2.314,2.314,0,0,0,1.621-.5,2.241,2.241,0,0,0,.613-1.535Zm1.039-.516a5.013,5.013,0,0,1,.484-2.242A3.546,3.546,0,0,1-22.887-8.07a4.069,4.069,0,0,1,2.113-.539A3.849,3.849,0,0,1-17.98-7.562a4.2,4.2,0,0,1,1.207,2.844l.016.578A4.418,4.418,0,0,1-17.844-1.02,3.775,3.775,0,0,1-20.758.156a3.793,3.793,0,0,1-2.918-1.172A4.5,4.5,0,0,1-24.766-4.2Zm2.258.16A3.16,3.16,0,0,0-22.055-2.3a1.5,1.5,0,0,0,1.3.638,1.5,1.5,0,0,0,1.281-.63,3.457,3.457,0,0,0,.461-2.015,3.128,3.128,0,0,0-.461-1.831,1.5,1.5,0,0,0-1.3-.649,1.474,1.474,0,0,0-1.281.646A3.516,3.516,0,0,0-22.508-4.144Zm9.219-4.309.07.977a2.951,2.951,0,0,1,2.43-1.133,2.453,2.453,0,0,1,2,.789,3.682,3.682,0,0,1,.672,2.359V0h-2.258V-5.406a1.465,1.465,0,0,0-.312-1.043,1.4,1.4,0,0,0-1.039-.324,1.553,1.553,0,0,0-1.43.813V0h-2.258V-8.453ZM-2.516.156A4.15,4.15,0,0,1-5.543-.984,4.054,4.054,0,0,1-6.711-4.023v-.219A5.106,5.106,0,0,1-6.219-6.52,3.612,3.612,0,0,1-4.824-8.066a3.914,3.914,0,0,1,2.059-.543A3.508,3.508,0,0,1-.035-7.516a4.444,4.444,0,0,1,1,3.1v.922H-4.422a2.1,2.1,0,0,0,.66,1.328,2,2,0,0,0,1.395.5A2.437,2.437,0,0,0-.328-2.609L.781-1.367A3.389,3.389,0,0,1-.594-.246,4.511,4.511,0,0,1-2.516.156Zm-.258-6.945a1.411,1.411,0,0,0-1.09.455,2.357,2.357,0,0,0-.535,1.3h3.141v-.181a1.681,1.681,0,0,0-.406-1.165A1.456,1.456,0,0,0-2.773-6.789Zm8.234.859L6.883-8.453H9.3L6.891-4.312,9.4,0H6.977L5.469-2.656,3.969,0H1.539L4.047-4.312l-2.4-4.141H4.07ZM12.766,0H10.5V-8.453h2.266Zm-2.4-10.641a1.112,1.112,0,0,1,.34-.836,1.277,1.277,0,0,1,.926-.328,1.28,1.28,0,0,1,.922.328,1.105,1.105,0,0,1,.344.836,1.108,1.108,0,0,1-.348.844,1.283,1.283,0,0,1-.918.328,1.283,1.283,0,0,1-.918-.328A1.108,1.108,0,0,1,10.367-10.641ZM14.273-4.3a5.013,5.013,0,0,1,.484-2.242A3.546,3.546,0,0,1,16.152-8.07a4.069,4.069,0,0,1,2.113-.539,3.849,3.849,0,0,1,2.793,1.047,4.2,4.2,0,0,1,1.207,2.844l.016.578A4.418,4.418,0,0,1,21.2-1.02,3.775,3.775,0,0,1,18.281.156a3.793,3.793,0,0,1-2.918-1.172A4.5,4.5,0,0,1,14.273-4.2Zm2.258.16A3.16,3.16,0,0,0,16.984-2.3a1.5,1.5,0,0,0,1.3.638,1.5,1.5,0,0,0,1.281-.63,3.457,3.457,0,0,0,.461-2.015,3.128,3.128,0,0,0-.461-1.831,1.5,1.5,0,0,0-1.3-.649,1.474,1.474,0,0,0-1.281.646A3.516,3.516,0,0,0,16.531-4.144ZM18.711-12h2.461L19.008-9.578H17.172ZM25.75-8.453l.07.977a2.951,2.951,0,0,1,2.43-1.133,2.453,2.453,0,0,1,2,.789,3.682,3.682,0,0,1,.672,2.359V0H28.664V-5.406a1.465,1.465,0,0,0-.312-1.043,1.4,1.4,0,0,0-1.039-.324,1.553,1.553,0,0,0-1.43.813V0H23.625V-8.453ZM-34.715,18.156a4.15,4.15,0,0,1-3.027-1.141,4.054,4.054,0,0,1-1.168-3.039v-.219a5.106,5.106,0,0,1,.492-2.277,3.612,3.612,0,0,1,1.395-1.547,3.914,3.914,0,0,1,2.059-.543,3.508,3.508,0,0,1,2.73,1.094,4.444,4.444,0,0,1,1,3.1v.922h-5.383a2.1,2.1,0,0,0,.66,1.328,2,2,0,0,0,1.395.5,2.437,2.437,0,0,0,2.039-.945l1.109,1.242a3.389,3.389,0,0,1-1.375,1.121A4.511,4.511,0,0,1-34.715,18.156Zm-.258-6.945a1.411,1.411,0,0,0-1.09.455,2.357,2.357,0,0,0-.535,1.3h3.141v-.181a1.681,1.681,0,0,0-.406-1.165A1.456,1.456,0,0,0-34.973,11.211Zm7.133-1.664.07.945a2.971,2.971,0,0,1,2.43-1.1A2.255,2.255,0,0,1-23.1,10.68a2.9,2.9,0,0,1,2.539-1.289,2.521,2.521,0,0,1,2.047.8,3.681,3.681,0,0,1,.672,2.41V18h-2.266V12.609a1.61,1.61,0,0,0-.281-1.051,1.246,1.246,0,0,0-.992-.332,1.409,1.409,0,0,0-1.406.969l.008,5.8h-2.258V12.617a1.59,1.59,0,0,0-.289-1.062,1.259,1.259,0,0,0-.984-.328,1.463,1.463,0,0,0-1.391.8V18h-2.258V9.547ZM-16.457,13.7a5.013,5.013,0,0,1,.484-2.242A3.546,3.546,0,0,1-14.578,9.93a4.069,4.069,0,0,1,2.113-.539,3.849,3.849,0,0,1,2.793,1.047,4.2,4.2,0,0,1,1.207,2.844l.016.578A4.418,4.418,0,0,1-9.535,16.98a3.775,3.775,0,0,1-2.914,1.176,3.793,3.793,0,0,1-2.918-1.172,4.5,4.5,0,0,1-1.09-3.187Zm2.258.16a3.16,3.16,0,0,0,.453,1.843,1.5,1.5,0,0,0,1.3.638,1.5,1.5,0,0,0,1.281-.63,3.457,3.457,0,0,0,.461-2.015,3.128,3.128,0,0,0-.461-1.831,1.5,1.5,0,0,0-1.3-.649,1.474,1.474,0,0,0-1.281.646A3.516,3.516,0,0,0-14.2,13.856Zm10.656,2.48a1.481,1.481,0,0,0,1.016-.344,1.2,1.2,0,0,0,.406-.914H0a2.9,2.9,0,0,1-.469,1.574,3.093,3.093,0,0,1-1.262,1.109,3.949,3.949,0,0,1-1.77.395A3.67,3.67,0,0,1-6.363,17,4.56,4.56,0,0,1-7.41,13.82v-.148a4.508,4.508,0,0,1,1.039-3.117A3.627,3.627,0,0,1-3.52,9.391a3.555,3.555,0,0,1,2.543.9A3.2,3.2,0,0,1,0,12.7H-2.121a1.551,1.551,0,0,0-.406-1.072,1.354,1.354,0,0,0-1.031-.412,1.36,1.36,0,0,0-1.191.575,3.333,3.333,0,0,0-.4,1.866v.235a3.375,3.375,0,0,0,.4,1.878A1.377,1.377,0,0,0-3.543,16.336ZM3.668,18H1.4V9.547H3.668ZM1.27,7.359a1.112,1.112,0,0,1,.34-.836A1.277,1.277,0,0,1,2.535,6.2a1.28,1.28,0,0,1,.922.328,1.193,1.193,0,0,1,0,1.68,1.283,1.283,0,0,1-.918.328A1.283,1.283,0,0,1,1.617,8.2,1.108,1.108,0,0,1,1.27,7.359ZM5.176,13.7a5.013,5.013,0,0,1,.484-2.242A3.546,3.546,0,0,1,7.055,9.93a4.069,4.069,0,0,1,2.113-.539,3.849,3.849,0,0,1,2.793,1.047,4.2,4.2,0,0,1,1.207,2.844l.016.578A4.418,4.418,0,0,1,12.1,16.98a3.775,3.775,0,0,1-2.914,1.176,3.793,3.793,0,0,1-2.918-1.172A4.5,4.5,0,0,1,5.176,13.8Zm2.258.16A3.16,3.16,0,0,0,7.887,15.7a1.5,1.5,0,0,0,1.3.638,1.5,1.5,0,0,0,1.281-.63,3.457,3.457,0,0,0,.461-2.015,3.128,3.128,0,0,0-.461-1.831,1.5,1.5,0,0,0-1.3-.649,1.474,1.474,0,0,0-1.281.646A3.516,3.516,0,0,0,7.434,13.856Zm9.219-4.309.07.977a2.951,2.951,0,0,1,2.43-1.133,2.453,2.453,0,0,1,2,.789,3.682,3.682,0,0,1,.672,2.359V18H19.566V12.594a1.465,1.465,0,0,0-.312-1.043,1.4,1.4,0,0,0-1.039-.324,1.553,1.553,0,0,0-1.43.813V18H14.527V9.547ZM28.434,18a2.507,2.507,0,0,1-.227-.758,2.732,2.732,0,0,1-2.133.914,3,3,0,0,1-2.059-.719,2.312,2.312,0,0,1-.816-1.812,2.389,2.389,0,0,1,1-2.062,4.915,4.915,0,0,1,2.879-.727h1.039v-.484a1.393,1.393,0,0,0-.3-.937,1.183,1.183,0,0,0-.949-.352,1.345,1.345,0,0,0-.895.273.929.929,0,0,0-.324.75H23.387a2.268,2.268,0,0,1,.453-1.359,3,3,0,0,1,1.281-.98,4.669,4.669,0,0,1,1.859-.355,3.689,3.689,0,0,1,2.48.785,2.747,2.747,0,0,1,.918,2.207v3.664a4.041,4.041,0,0,0,.336,1.82V18Zm-1.867-1.57a1.945,1.945,0,0,0,.922-.223,1.462,1.462,0,0,0,.625-.6V14.156H27.27q-1.7,0-1.8,1.172l-.008.133a.9.9,0,0,0,.3.7A1.153,1.153,0,0,0,26.566,16.43ZM34.5,18H32.23V6H34.5ZM-36.766,34.336a1.481,1.481,0,0,0,1.016-.344,1.2,1.2,0,0,0,.406-.914h2.117a2.9,2.9,0,0,1-.469,1.574,3.093,3.093,0,0,1-1.262,1.109,3.949,3.949,0,0,1-1.77.395A3.67,3.67,0,0,1-39.586,35a4.56,4.56,0,0,1-1.047-3.184v-.148a4.508,4.508,0,0,1,1.039-3.117,3.627,3.627,0,0,1,2.852-1.164,3.555,3.555,0,0,1,2.543.9,3.2,3.2,0,0,1,.973,2.4h-2.117a1.551,1.551,0,0,0-.406-1.072,1.354,1.354,0,0,0-1.031-.412,1.36,1.36,0,0,0-1.191.575,3.333,3.333,0,0,0-.4,1.866v.235a3.375,3.375,0,0,0,.4,1.878A1.377,1.377,0,0,0-36.766,34.336Zm4.477-2.641a5.013,5.013,0,0,1,.484-2.242A3.546,3.546,0,0,1-30.41,27.93a4.069,4.069,0,0,1,2.113-.539A3.849,3.849,0,0,1-25.5,28.438,4.2,4.2,0,0,1-24.3,31.281l.016.578a4.418,4.418,0,0,1-1.086,3.121,3.775,3.775,0,0,1-2.914,1.176A3.793,3.793,0,0,1-31.2,34.984a4.5,4.5,0,0,1-1.09-3.187Zm2.258.16a3.16,3.16,0,0,0,.453,1.843,1.5,1.5,0,0,0,1.3.638A1.5,1.5,0,0,0-27,33.706a3.457,3.457,0,0,0,.461-2.015A3.128,3.128,0,0,0-27,29.86a1.5,1.5,0,0,0-1.3-.649,1.474,1.474,0,0,0-1.281.646A3.516,3.516,0,0,0-30.031,31.856Zm9.258-4.309.07.945a2.971,2.971,0,0,1,2.43-1.1,2.255,2.255,0,0,1,2.242,1.289,2.9,2.9,0,0,1,2.539-1.289,2.521,2.521,0,0,1,2.047.8,3.681,3.681,0,0,1,.672,2.41V36h-2.266V30.609a1.61,1.61,0,0,0-.281-1.051,1.246,1.246,0,0,0-.992-.332,1.409,1.409,0,0,0-1.406.969l.008,5.8h-2.258V30.617a1.59,1.59,0,0,0-.289-1.062,1.259,1.259,0,0,0-.984-.328,1.463,1.463,0,0,0-1.391.8V36h-2.258V27.547Zm19.344,4.3a5.07,5.07,0,0,1-.887,3.129,2.843,2.843,0,0,1-2.395,1.176,2.633,2.633,0,0,1-2.07-.891V39.25H-9.039v-11.7h2.094l.078.828a2.654,2.654,0,0,1,2.141-.984A2.862,2.862,0,0,1-2.3,28.547a5.207,5.207,0,0,1,.867,3.188Zm-2.258-.164a3.327,3.327,0,0,0-.418-1.82,1.361,1.361,0,0,0-1.215-.641,1.478,1.478,0,0,0-1.461.813V33.5a1.5,1.5,0,0,0,1.477.836Q-3.687,34.336-3.687,31.688ZM4.867,36a2.507,2.507,0,0,1-.227-.758,2.732,2.732,0,0,1-2.133.914,3,3,0,0,1-2.059-.719,2.312,2.312,0,0,1-.816-1.812,2.389,2.389,0,0,1,1-2.062,4.915,4.915,0,0,1,2.879-.727H4.547v-.484a1.393,1.393,0,0,0-.3-.937,1.183,1.183,0,0,0-.949-.352,1.345,1.345,0,0,0-.895.273.929.929,0,0,0-.324.75H-.18a2.268,2.268,0,0,1,.453-1.359,3,3,0,0,1,1.281-.98,4.669,4.669,0,0,1,1.859-.355,3.689,3.689,0,0,1,2.48.785,2.747,2.747,0,0,1,.918,2.207v3.664a4.041,4.041,0,0,0,.336,1.82V36ZM3,34.43a1.945,1.945,0,0,0,.922-.223,1.462,1.462,0,0,0,.625-.6V32.156H3.7q-1.7,0-1.8,1.172l-.008.133a.9.9,0,0,0,.3.7A1.153,1.153,0,0,0,3,34.43Zm10.3-4.766a6.134,6.134,0,0,0-.812-.062,1.654,1.654,0,0,0-1.68.867V36H8.547V27.547H10.68l.063,1.008a2.092,2.092,0,0,1,1.883-1.164,2.366,2.366,0,0,1,.7.1Zm4.18-4.2v2.078h1.445V29.2H17.477v4.219a1.007,1.007,0,0,0,.18.672.9.9,0,0,0,.688.2,3.6,3.6,0,0,0,.664-.055v1.711a4.648,4.648,0,0,1-1.367.2,2.156,2.156,0,0,1-2.422-2.4V29.2H13.984V27.547h1.234V25.469ZM22.563,36H20.3V27.547h2.266Zm-2.4-10.641a1.112,1.112,0,0,1,.34-.836,1.465,1.465,0,0,1,1.848,0,1.193,1.193,0,0,1,0,1.68,1.448,1.448,0,0,1-1.836,0A1.108,1.108,0,0,1,20.164,25.359Zm3.906,6.352a5.094,5.094,0,0,1,.887-3.148,2.877,2.877,0,0,1,2.426-1.172,2.589,2.589,0,0,1,2.039.922V24h2.266V36H29.648l-.109-.9a2.657,2.657,0,0,1-2.172,1.055,2.869,2.869,0,0,1-2.395-1.176A5.258,5.258,0,0,1,24.07,31.711Zm2.258.168a3.337,3.337,0,0,0,.414,1.823,1.349,1.349,0,0,0,1.2.634,1.511,1.511,0,0,0,1.477-.884V30.111a1.489,1.489,0,0,0-1.461-.884Q26.328,29.227,26.328,31.879ZM38.336,36a2.507,2.507,0,0,1-.227-.758,2.732,2.732,0,0,1-2.133.914,3,3,0,0,1-2.059-.719,2.312,2.312,0,0,1-.816-1.812,2.389,2.389,0,0,1,1-2.062,4.915,4.915,0,0,1,2.879-.727h1.039v-.484a1.393,1.393,0,0,0-.3-.937,1.183,1.183,0,0,0-.949-.352,1.345,1.345,0,0,0-.895.273.929.929,0,0,0-.324.75H33.289a2.268,2.268,0,0,1,.453-1.359,3,3,0,0,1,1.281-.98,4.669,4.669,0,0,1,1.859-.355,3.689,3.689,0,0,1,2.48.785,2.747,2.747,0,0,1,.918,2.207v3.664a4.041,4.041,0,0,0,.336,1.82V36Zm-1.867-1.57a1.945,1.945,0,0,0,.922-.223,1.462,1.462,0,0,0,.625-.6V32.156h-.844q-1.7,0-1.8,1.172l-.008.133a.9.9,0,0,0,.3.7A1.153,1.153,0,0,0,36.469,34.43Z" transform="translate(705 4689)" fill="#12263f"/>
      <path id="Trazado_133799" data-name="Trazado 133799" d="M-45.285,0h-2.344V-11.375h2.344Zm4.1-8.453.07.977a2.951,2.951,0,0,1,2.43-1.133,2.453,2.453,0,0,1,2,.789,3.682,3.682,0,0,1,.672,2.359V0H-38.27V-5.406a1.465,1.465,0,0,0-.312-1.043,1.4,1.4,0,0,0-1.039-.324,1.553,1.553,0,0,0-1.43.813V0h-2.258V-8.453Zm9.586-2.078v2.078h1.445V-6.8H-31.6v4.219a1.007,1.007,0,0,0,.18.672.9.9,0,0,0,.688.2,3.6,3.6,0,0,0,.664-.055V-.047a4.648,4.648,0,0,1-1.367.2,2.156,2.156,0,0,1-2.422-2.4V-6.8H-35.09V-8.453h1.234v-2.078ZM-25,.156A4.15,4.15,0,0,1-28.031-.984,4.054,4.054,0,0,1-29.2-4.023v-.219a5.106,5.106,0,0,1,.492-2.277,3.612,3.612,0,0,1,1.395-1.547,3.914,3.914,0,0,1,2.059-.543,3.508,3.508,0,0,1,2.73,1.094,4.444,4.444,0,0,1,1,3.1v.922H-26.91a2.1,2.1,0,0,0,.66,1.328,2,2,0,0,0,1.395.5,2.437,2.437,0,0,0,2.039-.945l1.109,1.242A3.389,3.389,0,0,1-23.082-.246,4.511,4.511,0,0,1-25,.156Zm-.258-6.945a1.411,1.411,0,0,0-1.09.455,2.357,2.357,0,0,0-.535,1.3h3.141v-.181a1.681,1.681,0,0,0-.406-1.165A1.456,1.456,0,0,0-25.262-6.789Zm4.688,2.5a4.954,4.954,0,0,1,.926-3.133,3,3,0,0,1,2.5-1.187,2.631,2.631,0,0,1,2.164.953l.094-.8h2.047V-.281a3.613,3.613,0,0,1-.5,1.93A3.236,3.236,0,0,1-14.77,2.9a4.985,4.985,0,0,1-2.141.43,4.635,4.635,0,0,1-1.812-.371A3.217,3.217,0,0,1-20.059,2l1-1.375a2.645,2.645,0,0,0,2.047.945,1.936,1.936,0,0,0,1.4-.48,1.8,1.8,0,0,0,.5-1.363V-.727a2.612,2.612,0,0,1-2.055.883,2.992,2.992,0,0,1-2.465-1.191,4.953,4.953,0,0,1-.941-3.16Zm2.258.168a3.085,3.085,0,0,0,.461,1.8,1.466,1.466,0,0,0,1.266.653,1.568,1.568,0,0,0,1.477-.775V-6a1.564,1.564,0,0,0-1.461-.775,1.476,1.476,0,0,0-1.277.665A3.477,3.477,0,0,0-18.316-4.121ZM-6.363-6.336A6.134,6.134,0,0,0-7.176-6.4a1.654,1.654,0,0,0-1.68.867V0h-2.258V-8.453H-8.98l.063,1.008A2.092,2.092,0,0,1-7.035-8.609a2.366,2.366,0,0,1,.7.1ZM-.613,0A2.507,2.507,0,0,1-.84-.758,2.732,2.732,0,0,1-2.973.156,3,3,0,0,1-5.031-.562a2.312,2.312,0,0,1-.816-1.812,2.389,2.389,0,0,1,1-2.062,4.915,4.915,0,0,1,2.879-.727H-.934v-.484a1.393,1.393,0,0,0-.3-.937,1.183,1.183,0,0,0-.949-.352,1.345,1.345,0,0,0-.895.273.929.929,0,0,0-.324.75H-5.66a2.268,2.268,0,0,1,.453-1.359,3,3,0,0,1,1.281-.98,4.669,4.669,0,0,1,1.859-.355,3.689,3.689,0,0,1,2.48.785,2.747,2.747,0,0,1,.918,2.207v3.664a4.041,4.041,0,0,0,.336,1.82V0ZM-2.48-1.57a1.945,1.945,0,0,0,.922-.223,1.462,1.462,0,0,0,.625-.6V-3.844h-.844q-1.7,0-1.8,1.172l-.008.133a.9.9,0,0,0,.3.7A1.153,1.153,0,0,0-2.48-1.57Zm9.063-.094A1.481,1.481,0,0,0,7.6-2.008,1.2,1.2,0,0,0,8-2.922h2.117a2.9,2.9,0,0,1-.469,1.574A3.093,3.093,0,0,1,8.391-.238a3.949,3.949,0,0,1-1.77.395A3.67,3.67,0,0,1,3.762-1,4.56,4.56,0,0,1,2.715-4.18v-.148A4.508,4.508,0,0,1,3.754-7.445,3.627,3.627,0,0,1,6.605-8.609a3.555,3.555,0,0,1,2.543.9,3.2,3.2,0,0,1,.973,2.4H8A1.551,1.551,0,0,0,7.6-6.377a1.354,1.354,0,0,0-1.031-.412,1.36,1.36,0,0,0-1.191.575,3.333,3.333,0,0,0-.4,1.866v.235a3.375,3.375,0,0,0,.4,1.878A1.377,1.377,0,0,0,6.582-1.664ZM13.793,0H11.527V-8.453h2.266Zm-2.4-10.641a1.112,1.112,0,0,1,.34-.836,1.277,1.277,0,0,1,.926-.328,1.28,1.28,0,0,1,.922.328,1.105,1.105,0,0,1,.344.836,1.108,1.108,0,0,1-.348.844,1.283,1.283,0,0,1-.918.328,1.283,1.283,0,0,1-.918-.328A1.108,1.108,0,0,1,11.395-10.641ZM15.3-4.3a5.013,5.013,0,0,1,.484-2.242A3.546,3.546,0,0,1,17.18-8.07a4.069,4.069,0,0,1,2.113-.539,3.849,3.849,0,0,1,2.793,1.047,4.2,4.2,0,0,1,1.207,2.844l.016.578A4.418,4.418,0,0,1,22.223-1.02,3.775,3.775,0,0,1,19.309.156a3.793,3.793,0,0,1-2.918-1.172A4.5,4.5,0,0,1,15.3-4.2Zm2.258.16A3.16,3.16,0,0,0,18.012-2.3a1.5,1.5,0,0,0,1.3.638,1.5,1.5,0,0,0,1.281-.63,3.457,3.457,0,0,0,.461-2.015A3.128,3.128,0,0,0,20.59-6.14a1.5,1.5,0,0,0-1.3-.649,1.474,1.474,0,0,0-1.281.646A3.516,3.516,0,0,0,17.559-4.144ZM19.738-12H22.2L20.035-9.578H18.2Zm7.039,3.547.07.977a2.951,2.951,0,0,1,2.43-1.133,2.453,2.453,0,0,1,2,.789,3.682,3.682,0,0,1,.672,2.359V0H29.691V-5.406a1.465,1.465,0,0,0-.312-1.043,1.4,1.4,0,0,0-1.039-.324,1.553,1.553,0,0,0-1.43.813V0H24.652V-8.453ZM40.8-3.2l1.563-5.258h2.422l-3.4,9.766-.187.445a2.577,2.577,0,0,1-2.5,1.656,3.552,3.552,0,0,1-1-.148V1.555l.344.008a1.857,1.857,0,0,0,.957-.2,1.283,1.283,0,0,0,.5-.648l.266-.7L36.8-8.453h2.43ZM-51.336,15.664a.727.727,0,0,0-.41-.652,4.659,4.659,0,0,0-1.316-.426q-3.016-.633-3.016-2.562a2.323,2.323,0,0,1,.934-1.879A3.766,3.766,0,0,1-52.7,9.391a4.053,4.053,0,0,1,2.574.758,2.388,2.388,0,0,1,.965,1.969h-2.258a1.092,1.092,0,0,0-.312-.8A1.322,1.322,0,0,0-52.711,11a1.351,1.351,0,0,0-.883.258.814.814,0,0,0-.312.656.7.7,0,0,0,.355.605,3.657,3.657,0,0,0,1.2.4,9.8,9.8,0,0,1,1.422.379,2.336,2.336,0,0,1,1.789,2.273,2.2,2.2,0,0,1-.992,1.871,4.28,4.28,0,0,1-2.562.715,4.47,4.47,0,0,1-1.887-.379,3.166,3.166,0,0,1-1.293-1.039,2.414,2.414,0,0,1-.469-1.426H-54.2a1.179,1.179,0,0,0,.445.922,1.766,1.766,0,0,0,1.109.32,1.635,1.635,0,0,0,.98-.246A.766.766,0,0,0-51.336,15.664ZM-42.789,18a2.507,2.507,0,0,1-.227-.758,2.732,2.732,0,0,1-2.133.914,3,3,0,0,1-2.059-.719,2.312,2.312,0,0,1-.816-1.812,2.389,2.389,0,0,1,1-2.062,4.915,4.915,0,0,1,2.879-.727h1.039v-.484a1.393,1.393,0,0,0-.3-.937,1.183,1.183,0,0,0-.949-.352,1.345,1.345,0,0,0-.895.273.929.929,0,0,0-.324.75h-2.258a2.268,2.268,0,0,1,.453-1.359,3,3,0,0,1,1.281-.98,4.669,4.669,0,0,1,1.859-.355,3.689,3.689,0,0,1,2.48.785,2.747,2.747,0,0,1,.918,2.207v3.664a4.041,4.041,0,0,0,.336,1.82V18Zm-1.867-1.57a1.945,1.945,0,0,0,.922-.223,1.462,1.462,0,0,0,.625-.6V14.156h-.844q-1.7,0-1.8,1.172l-.008.133a.9.9,0,0,0,.3.7A1.153,1.153,0,0,0-44.656,16.43Zm8.25-8.961V9.547h1.445V11.2h-1.445v4.219a1.007,1.007,0,0,0,.18.672.9.9,0,0,0,.688.2,3.6,3.6,0,0,0,.664-.055v1.711a4.648,4.648,0,0,1-1.367.2,2.156,2.156,0,0,1-2.422-2.4V11.2H-39.9V9.547h1.234V7.469ZM-31.32,18h-2.266V9.547h2.266Zm-2.4-10.641a1.112,1.112,0,0,1,.34-.836,1.277,1.277,0,0,1,.926-.328,1.28,1.28,0,0,1,.922.328,1.105,1.105,0,0,1,.344.836,1.108,1.108,0,0,1-.348.844,1.283,1.283,0,0,1-.918.328,1.283,1.283,0,0,1-.918-.328A1.108,1.108,0,0,1-33.719,7.359Zm8.836,8.3a.727.727,0,0,0-.41-.652,4.659,4.659,0,0,0-1.316-.426q-3.016-.633-3.016-2.562a2.323,2.323,0,0,1,.934-1.879,3.766,3.766,0,0,1,2.441-.754,4.053,4.053,0,0,1,2.574.758,2.388,2.388,0,0,1,.965,1.969h-2.258a1.092,1.092,0,0,0-.312-.8A1.322,1.322,0,0,0-26.258,11a1.351,1.351,0,0,0-.883.258.814.814,0,0,0-.312.656.7.7,0,0,0,.355.605,3.657,3.657,0,0,0,1.2.4,9.8,9.8,0,0,1,1.422.379,2.336,2.336,0,0,1,1.789,2.273,2.2,2.2,0,0,1-.992,1.871,4.28,4.28,0,0,1-2.562.715,4.47,4.47,0,0,1-1.887-.379,3.166,3.166,0,0,1-1.293-1.039,2.414,2.414,0,0,1-.469-1.426h2.141a1.179,1.179,0,0,0,.445.922,1.766,1.766,0,0,0,1.109.32,1.635,1.635,0,0,0,.98-.246A.766.766,0,0,0-24.883,15.664ZM-20.617,18V11.2h-1.258V9.547h1.258V8.828A2.918,2.918,0,0,1-19.8,6.621a3.162,3.162,0,0,1,2.285-.785,5.278,5.278,0,0,1,1.148.156l-.023,1.75a2.878,2.878,0,0,0-.687-.07q-1.273,0-1.273,1.2v.68h1.68V11.2h-1.68V18ZM-10.6,18a2.507,2.507,0,0,1-.227-.758,2.732,2.732,0,0,1-2.133.914,3,3,0,0,1-2.059-.719,2.312,2.312,0,0,1-.816-1.812,2.389,2.389,0,0,1,1-2.062,4.915,4.915,0,0,1,2.879-.727h1.039v-.484a1.393,1.393,0,0,0-.3-.937,1.183,1.183,0,0,0-.949-.352,1.345,1.345,0,0,0-.895.273.929.929,0,0,0-.324.75h-2.258a2.268,2.268,0,0,1,.453-1.359,3,3,0,0,1,1.281-.98,4.669,4.669,0,0,1,1.859-.355,3.689,3.689,0,0,1,2.48.785,2.747,2.747,0,0,1,.918,2.207v3.664a4.041,4.041,0,0,0,.336,1.82V18Zm-1.867-1.57a1.945,1.945,0,0,0,.922-.223,1.462,1.462,0,0,0,.625-.6V14.156h-.844q-1.7,0-1.8,1.172l-.008.133a.9.9,0,0,0,.3.7A1.153,1.153,0,0,0-12.469,16.43Zm9.063-.094a1.481,1.481,0,0,0,1.016-.344,1.2,1.2,0,0,0,.406-.914H.133a2.9,2.9,0,0,1-.469,1.574A3.093,3.093,0,0,1-1.6,17.762a3.949,3.949,0,0,1-1.77.395A3.67,3.67,0,0,1-6.227,17,4.56,4.56,0,0,1-7.273,13.82v-.148a4.508,4.508,0,0,1,1.039-3.117A3.627,3.627,0,0,1-3.383,9.391a3.555,3.555,0,0,1,2.543.9,3.2,3.2,0,0,1,.973,2.4H-1.984a1.551,1.551,0,0,0-.406-1.072,1.354,1.354,0,0,0-1.031-.412,1.36,1.36,0,0,0-1.191.575,3.333,3.333,0,0,0-.4,1.866v.235a3.375,3.375,0,0,0,.4,1.878A1.377,1.377,0,0,0-3.406,16.336Zm8.344,0a1.481,1.481,0,0,0,1.016-.344,1.2,1.2,0,0,0,.406-.914H8.477a2.9,2.9,0,0,1-.469,1.574,3.093,3.093,0,0,1-1.262,1.109,3.949,3.949,0,0,1-1.77.395A3.67,3.67,0,0,1,2.117,17,4.56,4.56,0,0,1,1.07,13.82v-.148a4.508,4.508,0,0,1,1.039-3.117A3.627,3.627,0,0,1,4.961,9.391a3.555,3.555,0,0,1,2.543.9,3.2,3.2,0,0,1,.973,2.4H6.359a1.551,1.551,0,0,0-.406-1.072,1.354,1.354,0,0,0-1.031-.412,1.36,1.36,0,0,0-1.191.575,3.333,3.333,0,0,0-.4,1.866v.235a3.375,3.375,0,0,0,.4,1.878A1.377,1.377,0,0,0,4.938,16.336ZM12.148,18H9.883V9.547h2.266ZM9.75,7.359a1.112,1.112,0,0,1,.34-.836,1.277,1.277,0,0,1,.926-.328,1.28,1.28,0,0,1,.922.328,1.193,1.193,0,0,1,0,1.68,1.283,1.283,0,0,1-.918.328A1.283,1.283,0,0,1,10.1,8.2,1.108,1.108,0,0,1,9.75,7.359ZM13.656,13.7a5.013,5.013,0,0,1,.484-2.242A3.546,3.546,0,0,1,15.535,9.93a4.069,4.069,0,0,1,2.113-.539,3.849,3.849,0,0,1,2.793,1.047,4.2,4.2,0,0,1,1.207,2.844l.016.578a4.418,4.418,0,0,1-1.086,3.121,3.775,3.775,0,0,1-2.914,1.176,3.793,3.793,0,0,1-2.918-1.172,4.5,4.5,0,0,1-1.09-3.187Zm2.258.16a3.16,3.16,0,0,0,.453,1.843,1.628,1.628,0,0,0,2.578.008,3.457,3.457,0,0,0,.461-2.015,3.128,3.128,0,0,0-.461-1.831,1.5,1.5,0,0,0-1.3-.649,1.474,1.474,0,0,0-1.281.646A3.516,3.516,0,0,0,15.914,13.856ZM18.094,6h2.461L18.391,8.422H16.555Zm7.039,3.547.07.977a2.951,2.951,0,0,1,2.43-1.133,2.453,2.453,0,0,1,2,.789,3.682,3.682,0,0,1,.672,2.359V18H28.047V12.594a1.465,1.465,0,0,0-.312-1.043,1.4,1.4,0,0,0-1.039-.324,1.553,1.553,0,0,0-1.43.813V18H23.008V9.547Zm10.516,4.164a5.094,5.094,0,0,1,.887-3.148,2.877,2.877,0,0,1,2.426-1.172A2.589,2.589,0,0,1,41,10.313V6h2.266V18H41.227l-.109-.9a2.657,2.657,0,0,1-2.172,1.055,2.869,2.869,0,0,1-2.395-1.176A5.258,5.258,0,0,1,35.648,13.711Zm2.258.168A3.337,3.337,0,0,0,38.32,15.7a1.349,1.349,0,0,0,1.2.634A1.511,1.511,0,0,0,41,15.452V12.111a1.489,1.489,0,0,0-1.461-.884Q37.906,11.227,37.906,13.879Zm11,4.277a4.15,4.15,0,0,1-3.027-1.141,4.054,4.054,0,0,1-1.168-3.039v-.219A5.106,5.106,0,0,1,45.2,11.48,3.612,3.612,0,0,1,46.6,9.934a3.914,3.914,0,0,1,2.059-.543,3.508,3.508,0,0,1,2.73,1.094,4.444,4.444,0,0,1,1,3.1v.922H47a2.1,2.1,0,0,0,.66,1.328,2,2,0,0,0,1.395.5,2.437,2.437,0,0,0,2.039-.945L52.2,16.633a3.389,3.389,0,0,1-1.375,1.121A4.511,4.511,0,0,1,48.906,18.156Zm-.258-6.945a1.411,1.411,0,0,0-1.09.455,2.357,2.357,0,0,0-.535,1.3h3.141v-.181a1.681,1.681,0,0,0-.406-1.165A1.456,1.456,0,0,0,48.648,11.211Zm-90.98,16.336.07.977a2.951,2.951,0,0,1,2.43-1.133,2.453,2.453,0,0,1,2,.789,3.682,3.682,0,0,1,.672,2.359V36h-2.258V30.594a1.465,1.465,0,0,0-.312-1.043,1.4,1.4,0,0,0-1.039-.324,1.553,1.553,0,0,0-1.43.813V36h-2.258V27.547Zm10.773,8.609a4.15,4.15,0,0,1-3.027-1.141,4.054,4.054,0,0,1-1.168-3.039v-.219a5.106,5.106,0,0,1,.492-2.277,3.612,3.612,0,0,1,1.395-1.547,3.914,3.914,0,0,1,2.059-.543,3.508,3.508,0,0,1,2.73,1.094,4.444,4.444,0,0,1,1,3.1v.922h-5.383a2.1,2.1,0,0,0,.66,1.328,2,2,0,0,0,1.395.5,2.437,2.437,0,0,0,2.039-.945l1.109,1.242a3.389,3.389,0,0,1-1.375,1.121A4.511,4.511,0,0,1-31.559,36.156Zm-.258-6.945a1.411,1.411,0,0,0-1.09.455,2.357,2.357,0,0,0-.535,1.3H-30.3v-.181a1.681,1.681,0,0,0-.406-1.165A1.456,1.456,0,0,0-31.816,29.211Zm8.531,5.125a1.481,1.481,0,0,0,1.016-.344,1.2,1.2,0,0,0,.406-.914h2.117a2.9,2.9,0,0,1-.469,1.574,3.093,3.093,0,0,1-1.262,1.109,3.949,3.949,0,0,1-1.77.395A3.67,3.67,0,0,1-26.105,35a4.56,4.56,0,0,1-1.047-3.184v-.148a4.508,4.508,0,0,1,1.039-3.117,3.627,3.627,0,0,1,2.852-1.164,3.555,3.555,0,0,1,2.543.9,3.2,3.2,0,0,1,.973,2.4h-2.117a1.551,1.551,0,0,0-.406-1.072,1.354,1.354,0,0,0-1.031-.412,1.36,1.36,0,0,0-1.191.575,3.333,3.333,0,0,0-.4,1.866v.235a3.375,3.375,0,0,0,.4,1.878A1.377,1.377,0,0,0-23.285,34.336Zm8.719,1.82a4.15,4.15,0,0,1-3.027-1.141,4.054,4.054,0,0,1-1.168-3.039v-.219a5.106,5.106,0,0,1,.492-2.277,3.612,3.612,0,0,1,1.395-1.547,3.914,3.914,0,0,1,2.059-.543,3.508,3.508,0,0,1,2.73,1.094,4.444,4.444,0,0,1,1,3.1v.922h-5.383a2.1,2.1,0,0,0,.66,1.328,2,2,0,0,0,1.395.5,2.437,2.437,0,0,0,2.039-.945l1.109,1.242a3.389,3.389,0,0,1-1.375,1.121A4.511,4.511,0,0,1-14.566,36.156Zm-.258-6.945a1.411,1.411,0,0,0-1.09.455,2.357,2.357,0,0,0-.535,1.3h3.141v-.181a1.681,1.681,0,0,0-.406-1.165A1.456,1.456,0,0,0-14.824,29.211Zm9.594,4.453a.727.727,0,0,0-.41-.652,4.659,4.659,0,0,0-1.316-.426q-3.016-.633-3.016-2.562a2.323,2.323,0,0,1,.934-1.879A3.766,3.766,0,0,1-6.6,27.391a4.053,4.053,0,0,1,2.574.758,2.388,2.388,0,0,1,.965,1.969H-5.316a1.092,1.092,0,0,0-.312-.8A1.322,1.322,0,0,0-6.605,29a1.351,1.351,0,0,0-.883.258.814.814,0,0,0-.312.656.7.7,0,0,0,.355.605,3.657,3.657,0,0,0,1.2.4,9.8,9.8,0,0,1,1.422.379A2.336,2.336,0,0,1-3.035,33.57a2.205,2.205,0,0,1-.992,1.871,4.28,4.28,0,0,1-2.562.715,4.47,4.47,0,0,1-1.887-.379A3.166,3.166,0,0,1-9.77,34.738a2.414,2.414,0,0,1-.469-1.426H-8.1a1.179,1.179,0,0,0,.445.922,1.766,1.766,0,0,0,1.109.32,1.635,1.635,0,0,0,.98-.246A.766.766,0,0,0-5.23,33.664ZM.8,36H-1.465V27.547H.8ZM-1.6,25.359a1.112,1.112,0,0,1,.34-.836A1.277,1.277,0,0,1-.332,24.2a1.28,1.28,0,0,1,.922.328,1.105,1.105,0,0,1,.344.836,1.108,1.108,0,0,1-.348.844,1.283,1.283,0,0,1-.918.328A1.283,1.283,0,0,1-1.25,26.2,1.108,1.108,0,0,1-1.6,25.359Zm3.906,6.352A5.094,5.094,0,0,1,3.2,28.563a2.877,2.877,0,0,1,2.426-1.172,2.589,2.589,0,0,1,2.039.922V24H9.926V36H7.887l-.109-.9a2.657,2.657,0,0,1-2.172,1.055A2.869,2.869,0,0,1,3.211,34.98,5.258,5.258,0,0,1,2.309,31.711Zm2.258.168A3.337,3.337,0,0,0,4.98,33.7a1.349,1.349,0,0,0,1.2.634,1.511,1.511,0,0,0,1.477-.884V30.111A1.489,1.489,0,0,0,6.2,29.227Q4.566,29.227,4.566,31.879ZM16.574,36a2.507,2.507,0,0,1-.227-.758,2.732,2.732,0,0,1-2.133.914,3,3,0,0,1-2.059-.719,2.312,2.312,0,0,1-.816-1.812,2.389,2.389,0,0,1,1-2.062,4.915,4.915,0,0,1,2.879-.727h1.039v-.484a1.393,1.393,0,0,0-.3-.937A1.183,1.183,0,0,0,15,29.063a1.345,1.345,0,0,0-.895.273.929.929,0,0,0-.324.75H11.527a2.268,2.268,0,0,1,.453-1.359,3,3,0,0,1,1.281-.98,4.669,4.669,0,0,1,1.859-.355,3.689,3.689,0,0,1,2.48.785,2.747,2.747,0,0,1,.918,2.207v3.664a4.041,4.041,0,0,0,.336,1.82V36Zm-1.867-1.57a1.945,1.945,0,0,0,.922-.223,1.462,1.462,0,0,0,.625-.6V32.156H15.41q-1.7,0-1.8,1.172l-.008.133a.9.9,0,0,0,.3.7A1.153,1.153,0,0,0,14.707,34.43Zm5.2-2.719a5.094,5.094,0,0,1,.887-3.148,2.877,2.877,0,0,1,2.426-1.172,2.589,2.589,0,0,1,2.039.922V24H27.52V36H25.48l-.109-.9A2.657,2.657,0,0,1,23.2,36.156,2.869,2.869,0,0,1,20.8,34.98,5.258,5.258,0,0,1,19.9,31.711Zm2.258.168a3.337,3.337,0,0,0,.414,1.823,1.349,1.349,0,0,0,1.2.634,1.511,1.511,0,0,0,1.477-.884V30.111a1.489,1.489,0,0,0-1.461-.884Q22.16,29.227,22.16,31.879Zm11,4.277a4.15,4.15,0,0,1-3.027-1.141,4.054,4.054,0,0,1-1.168-3.039v-.219a5.106,5.106,0,0,1,.492-2.277,3.612,3.612,0,0,1,1.395-1.547,3.914,3.914,0,0,1,2.059-.543,3.508,3.508,0,0,1,2.73,1.094,4.444,4.444,0,0,1,1,3.1v.922H31.254a2.1,2.1,0,0,0,.66,1.328,2,2,0,0,0,1.395.5,2.437,2.437,0,0,0,2.039-.945l1.109,1.242a3.389,3.389,0,0,1-1.375,1.121A4.511,4.511,0,0,1,33.16,36.156ZM32.9,29.211a1.411,1.411,0,0,0-1.09.455,2.357,2.357,0,0,0-.535,1.3h3.141v-.181a1.681,1.681,0,0,0-.406-1.165A1.456,1.456,0,0,0,32.9,29.211ZM42.5,33.664a.727.727,0,0,0-.41-.652,4.659,4.659,0,0,0-1.316-.426q-3.016-.633-3.016-2.562a2.323,2.323,0,0,1,.934-1.879,3.766,3.766,0,0,1,2.441-.754,4.053,4.053,0,0,1,2.574.758,2.388,2.388,0,0,1,.965,1.969H42.41a1.092,1.092,0,0,0-.312-.8A1.322,1.322,0,0,0,41.121,29a1.351,1.351,0,0,0-.883.258.814.814,0,0,0-.312.656.7.7,0,0,0,.355.605,3.657,3.657,0,0,0,1.2.4A9.8,9.8,0,0,1,42.9,31.3a2.336,2.336,0,0,1,1.789,2.273,2.205,2.205,0,0,1-.992,1.871,4.28,4.28,0,0,1-2.562.715,4.47,4.47,0,0,1-1.887-.379,3.166,3.166,0,0,1-1.293-1.039,2.414,2.414,0,0,1-.469-1.426h2.141a1.179,1.179,0,0,0,.445.922,1.766,1.766,0,0,0,1.109.32,1.635,1.635,0,0,0,.98-.246A.766.766,0,0,0,42.5,33.664Z" transform="translate(878 4710)" fill="#12263f"/>
    </g>
    <g id="Grupo_158054" data-name="Grupo 158054" transform="translate(759.899 4582.396)">
      <g id="Grupo_158053" data-name="Grupo 158053" clip-path="url(#clip-path-2)">
        <path id="Trazado_131802" data-name="Trazado 131802" d="M76.384,17.139c.811.141,1.022.719.965,1.421a2.183,2.183,0,0,0,.861,2.042,5.453,5.453,0,0,1,1.77,5.822A5.678,5.678,0,0,1,75.622,30.7c-.579.146-.729.246-.3.794a8.978,8.978,0,0,1,.356,10.977c-.245.359-.32.49.154.733a6.829,6.829,0,0,1,3.959,6.478q.013,5.312,0,10.625c0,1.21-.377,1.581-1.6,1.582-5.956,0-11.912.019-17.867-.02-.74,0-.939.265-1.05.907-.3,1.741-.667,3.471-.981,5.21a2.147,2.147,0,0,1-.792,1.226H22.543a1.892,1.892,0,0,1-.93-1.5C21.3,66,20.918,64.3,20.642,62.583c-.1-.608-.343-.739-.891-.707-.721.042-1.448.032-2.171,0a1.238,1.238,0,0,1-1.329-1.2,1.128,1.128,0,0,1,1.11-1.333,14.4,14.4,0,0,1,1.689-.026c.492,0,.682-.2.58-.694-.205-1-.386-2-.613-3a2.758,2.758,0,0,0-.785-1.288c-2.769-2.885-5.749-5.55-8.637-8.31a1.186,1.186,0,0,0-.763-.41,13.119,13.119,0,0,0-3.049.07,3.948,3.948,0,0,0-3.124,3.818c-.082,3-.018,6.01-.028,9.015,0,.738.452.8,1.013.8q3.783-.006,7.566,0a4.132,4.132,0,0,1,1.041.069,1.006,1.006,0,0,1,.828,1.291c-.241.953-.529,1.2-1.5,1.207q-5.033.013-10.065,0c-1.079,0-1.494-.439-1.5-1.536-.006-3.571-.025-7.141.005-10.711a6.592,6.592,0,0,1,6.758-6.691.529.529,0,0,1,.08,0,8.126,8.126,0,0,0,5.385-1.369,1.309,1.309,0,0,0,.075-1.947,14.6,14.6,0,0,1-7.137-9.2c-.136-.5-.517-.413-.8-.495A5.8,5.8,0,0,1,.794,21.569a5.377,5.377,0,0,1,1.757-1.955.778.778,0,0,0,.38-.859c-.228-2.269-.4-4.544-.642-6.811A6.82,6.82,0,0,1,6.195,4.91a2.462,2.462,0,0,0,1.017-.846A9.008,9.008,0,0,1,14.853.024q5.434-.048,10.87,0A8.213,8.213,0,0,1,33.18,4.389a1.349,1.349,0,0,0,.552.547,6.793,6.793,0,0,1,3.761,7.2c-.239,2.43-.446,4.863-.7,7.291a.909.909,0,0,0,.342.828,5.406,5.406,0,0,1,1.492,2.62c.09.374.2.571.617.55a1.816,1.816,0,0,1,.7.128c.432.161.659,0,.785-.407a5.369,5.369,0,0,1,1.688-2.59c.334-.282.284-.607.278-.944a20.178,20.178,0,0,1,.914-7.3A15.816,15.816,0,0,1,58.5,1.757a28.591,28.591,0,0,1,7.211.415,14.931,14.931,0,0,1,10.8,9.75c.394,1.048.263,1.387-.663,2.014-.814.263-1.382-.035-1.73-1.016a12.923,12.923,0,0,0-2.075-3.776,11.95,11.95,0,0,0-7.757-4.55,29.85,29.85,0,0,0-7.134-.1,5.611,5.611,0,0,0-4.926,5.546,8.55,8.55,0,0,0,6.448,8.463,6.988,6.988,0,0,0,1.751.2q5.791,0,11.582,0c.559-.017,1.119-.027,1.676,0a.933.933,0,0,0,1.113-.74,1.1,1.1,0,0,1,1.584-.833" transform="translate(0 0)"/>
        <path id="Trazado_131803" data-name="Trazado 131803" d="M15.406,104.493c-.252-.971-.5-1.186-1.513-1.189-2.765-.009-5.53-.023-8.295.011-.655.008-.871-.156-.863-.843.038-2.953.009-5.907.019-8.86.009-2.672,1.785-4.326,4.45-4.47a4.815,4.815,0,0,1,4.01,1.566c2.521,2.522,5.217,4.868,7.656,7.478a2.791,2.791,0,0,1,.789,1.528,22.8,22.8,0,0,0,.543,2.759c.219.763-.068.888-.719.833-.427-.036-.86.015-1.288-.011a1.358,1.358,0,0,0-1.618,1.2l-3.171,0" transform="translate(-2.328 -43.816)" fill="#0ab59e"/>
        <path id="Trazado_131804" data-name="Trazado 131804" d="M138.68,21.427c-1.012.039-1.353.307-1.454,1.3-.044.433-.212.54-.6.53-.775-.02-1.551-.014-2.327-.018-.387-.561-.187-1.2-.208-1.8a14.734,14.734,0,0,0-2.544-8.16A13.931,13.931,0,0,0,127.4,9.423c-.273-.169-.669-.259-.677-.7a11.393,11.393,0,0,1,6.157,2.866,12.214,12.214,0,0,1,3.7,5.542,1.43,1.43,0,0,0,1.569,1.094,10.556,10.556,0,0,1,.335,2.406c.007.275-.1.589.2.8" transform="translate(-62.297 -4.288)" fill="#444"/>
        <path id="Trazado_131805" data-name="Trazado 131805" d="M38.821,20.841c-4.987.081-9.979.275-14.959-.041-5.121-.324-9.085-5.814-7.915-10.77a6.634,6.634,0,0,1,6.211-5.174c3.672-.078,7.347,0,11.021,0a5.9,5.9,0,0,1,2.179,2.3,2.413,2.413,0,0,0,1,1,5.835,5.835,0,0,1,3.215,6.411c-.248,1.826-.313,3.677-.526,5.511a1.235,1.235,0,0,1-.225.753" transform="translate(-7.738 -2.37)" fill="#d67e4a"/>
        <path id="Trazado_131806" data-name="Trazado 131806" d="M29.873,54.651A12.257,12.257,0,0,1,14.891,47.64a9.9,9.9,0,0,1-.876-3.737c-.035-3.208-.434-6.441.542-9.592.134-.432.31-.851.51-1.394a11.888,11.888,0,0,0,8.039,4.165,22.519,22.519,0,0,0,2.809.049c3.273.012,6.546,0,9.818.005.868,0,.969.08.984.958.028,1.529.009,3.059.009,4.588a2.287,2.287,0,0,1-.246,1.006l-1.337,1.748a1.682,1.682,0,0,1-1,.207c-.523.043-1.05.123-1.2.736-.139.582.247.879.707,1.11.139.07.294.147.257.353a18.933,18.933,0,0,0-.838,4.19,7.768,7.768,0,0,1-3.2,2.618" transform="translate(-6.836 -16.182)" fill="#fecdbe"/>
        <path id="Trazado_131807" data-name="Trazado 131807" d="M114.679,8.425a21.808,21.808,0,0,1,3.217,2.346,14.039,14.039,0,0,1,4.226,8.732c.121,1.15.067,2.29.132,3.433-4.079,0-8.161.084-12.237-.031-3.909-.11-7.556-4.012-7.78-7.944a6.05,6.05,0,0,1,3.605-6.322,6.252,6.252,0,0,1,2.031-.441,39.583,39.583,0,0,1,6.5.117,1.292,1.292,0,0,1,.3.109" transform="translate(-50.252 -3.99)" fill="#5a5a5a"/>
        <path id="Trazado_131808" data-name="Trazado 131808" d="M110.157,58.528a12.312,12.312,0,0,1-9.586-.741c-.419-.2-.395-.519-.38-.868a16.448,16.448,0,0,0-.843-6.332.428.428,0,0,1,.035-.3c.43-1.11.337-1.29-.841-1.635a.575.575,0,0,1-.266-.158,13.481,13.481,0,0,0-4.228-4.119.653.653,0,0,1-.388-.633c.024-.912.028-1.825.02-2.737,0-.371.126-.518.512-.522a13.964,13.964,0,0,0,6.176-1.556.738.738,0,0,1,.811.08,11.479,11.479,0,0,0,4.468,1.469c1.392.13,2.787.041,4.18.052q3.262.026,6.523-.006c.5-.005.785.153.792.658.031,2.228.089,4.456-.034,6.682a1.643,1.643,0,0,1-.173.616c-.167.349-.484.267-.771.259-.723-.021-1.447-.017-2.171-.008-.471.006-.942.062-1.1.606a.894.894,0,0,0,.5,1.07,6.216,6.216,0,0,0,2.136.148c.82.055.959.22.643.992a13.079,13.079,0,0,1-6.014,6.987" transform="translate(-46.042 -19.091)" fill="#fecdbe"/>
        <path id="Trazado_131809" data-name="Trazado 131809" d="M76.981,62.735a22.285,22.285,0,0,1-3.693-.089,4.646,4.646,0,0,1-4.178-4.468c-.089-.9-.536-1.394-1.237-1.375s-1.125.526-1.19,1.449A4.716,4.716,0,0,1,62,62.741c-1.664.033-3.328,0-4.991.014-.412,0-.614-.068-.641-.561a10.631,10.631,0,0,1,8.861-11.3c.682-.121,1.387-.285,1.873.576a1.06,1.06,0,0,0,1.68-.013c.48-.888,1.169-.617,1.856-.544a4.817,4.817,0,0,1,.549.123A10.954,10.954,0,0,1,77.2,60.165a9.1,9.1,0,0,1,.155,1.755c-.027.317.007.659-.371.815" transform="translate(-27.699 -24.969)" fill="#5a5a5a"/>
        <path id="Trazado_131810" data-name="Trazado 131810" d="M76.747,121.266q-8.573.013-17.146.036c-.411,0-.546-.17-.658-.518-.527-1.631-1.174-3.229-1.6-4.886-.773-3.027,1.278-5.033,3.564-4.983a5.441,5.441,0,0,1,1.755.053c.594.232.374,1.026.585,1.553a5.512,5.512,0,0,0,5.543,3.461,5.27,5.27,0,0,0,4.787-4.1c.184-.9.56-1.075,1.318-.964.132.019.265.032.4.048a3.741,3.741,0,0,1,1.663,3.215c.106,2.082.033,4.172.028,6.258a1.18,1.18,0,0,1-.239.828" transform="translate(-28.109 -54.501)" fill="#ef7280"/>
        <path id="Trazado_131811" data-name="Trazado 131811" d="M72.894,88.783c-4.809,1.644-10.439-1.8-11.287-6.9a42.491,42.491,0,0,1-.158-5.3c-.02-.487.295-.4.581-.41a28.757,28.757,0,0,0,3.532-.1,6.943,6.943,0,0,0,4.43-2.525c.295-.359.433-.549.837-.044a7.022,7.022,0,0,0,5.605,2.673c.321.007.642.019.963.028a1.444,1.444,0,0,1,.248,1.069q.014,1.771,0,3.542c-.009,1.262-.114,1.365-1.375,1.4-.107,0-.214.008-.318.021-.43.12-.848.284-.849.818,0,.449.351.627.731.741.1.027.207.052.312.074.725.154.789.24.475.89a8.209,8.209,0,0,1-3.73,4.021" transform="translate(-30.205 -35.982)" fill="#fecdbe"/>
        <path id="Trazado_131812" data-name="Trazado 131812" d="M129.549,95.6c0,2.2-.016,4.4.012,6.6.007.519-.126.689-.664.685q-5.109-.034-10.219,0c-.637.006-.69-.215-.573-.743q.365-1.646.644-3.312a1.6,1.6,0,0,1,.535-.865q2.822-2.924,5.644-5.848a1.976,1.976,0,0,0,.327-2.869c-.322-.559-.1-.958.554-.963,1.046-.008,2.093.028,3.137-.015.526-.021.616.181.612.649-.021,2.226-.009,4.453-.009,6.679" transform="translate(-58.035 -43.392)" fill="#528ed7"/>
        <path id="Trazado_131813" data-name="Trazado 131813" d="M36.313,94.039c1.616,1.954,2.3,4.294,3.056,6.611,1.315,4.043,2.675,8.07,4.015,12.105a1.811,1.811,0,0,1,.029.263c-1.412,0-2.813,0-4.215,0-.367,0-.316-.285-.36-.511-.746-3.808-1.5-7.615-2.229-11.428a2.777,2.777,0,0,0-.855-1.671c-1.739-1.547-3.468-3.107-5.2-4.663l.335-.416a7.6,7.6,0,0,1,1.706.356c.55.1,1.087.281,1.632.416,1.247.308,1.621.114,2.085-1.063" transform="translate(-15.021 -46.229)" fill="#fecdbe"/>
        <path id="Trazado_131814" data-name="Trazado 131814" d="M55.682,20.862q.2-3.392.613-6.764a5.626,5.626,0,0,0-3.179-5.717,2.093,2.093,0,0,1-1.087-1.1c-.422-.992-1.389-1.545-1.99-2.4a5.787,5.787,0,0,1,5.753,3.324,2.294,2.294,0,0,0,1.224,1.184,4.17,4.17,0,0,1,2.685,4.26c-.142,2.247-.408,4.486-.6,6.73-.031.357-.129.528-.522.517-.964-.029-1.93-.024-2.895-.034" transform="translate(-24.599 -2.391)" fill="#c76d36"/>
        <path id="Trazado_131815" data-name="Trazado 131815" d="M93.529,14.67a11.1,11.1,0,0,0,.152,6.169,10.213,10.213,0,0,0,2.157,3.824c.379.412.3.561-.2.763a16.623,16.623,0,0,1-6.507.746c-.256,0-.4-.11-.4-.381-.106-4.419,1.248-8.219,4.7-11.134.012-.01.045.005.1.013" transform="translate(-43.616 -7.204)" fill="#5a5a5a"/>
        <path id="Trazado_131816" data-name="Trazado 131816" d="M104.453,112.727h-2.985c-.137-.278.065-.509.14-.739,1.6-4.849,3.222-9.69,4.82-14.539a27.226,27.226,0,0,1,2.149-3.949,1.467,1.467,0,0,0,.66,1.34,1.824,1.824,0,0,0,1.4-.012c.625-.137,1.248-.286,1.871-.43.075.352-.194.532-.381.746-1.356,1.552-2.807,3.015-4.29,4.445a3.48,3.48,0,0,0-1.043,1.927c-.661,3.361-1.279,6.73-1.975,10.084a2.174,2.174,0,0,1-.37,1.127" transform="translate(-49.858 -45.964)" fill="#fecdbe"/>
        <path id="Trazado_131817" data-name="Trazado 131817" d="M128.343,50.243c.324-2.426.075-4.865.173-7.3.024-.624-.2-.76-.785-.756-3.189.024-6.377.013-9.566,0-.31,0-.648.1-.927-.139q6.352.021,12.7.046c.287,0,.673-.146.673.408a50.871,50.871,0,0,1-.194,7.869c-.7,4.475-4.618,8.828-8.671,9.734.72-.587,1.459-1.152,2.156-1.764a13.061,13.061,0,0,0,3.813-5.719.777.777,0,0,0,0-.231c-.918-.218-1.871.167-2.767-.209.438-.374.965-.194,1.457-.23.318-.023.64.008.958-.011.876-.049,1.118-.354.989-1.236a.766.766,0,0,1-.013-.468" transform="translate(-57.633 -20.674)" fill="#feaf9d"/>
        <path id="Trazado_131818" data-name="Trazado 131818" d="M145.472,90.133V88.77a4.347,4.347,0,0,1,3.407,4.44c.027,2.6.015,5.2,0,7.806,0,.666.284,1.518-.117,1.948s-1.271.125-1.932.135a2.66,2.66,0,0,1-1.331-.083,1.471,1.471,0,0,0,.512-1.28q-.021-4.467,0-8.933a12.888,12.888,0,0,0-.537-2.67" transform="translate(-71.513 -43.639)" fill="#b1c9eb"/>
        <path id="Trazado_131819" data-name="Trazado 131819" d="M54.08,95.039a5.01,5.01,0,0,1-2.452,4.253c-.468.288-.632.253-.827-.293a35.857,35.857,0,0,0-1.975-5.415.68.68,0,0,1,.095-.751,4.61,4.61,0,0,1,1.161-1.314c.348-.245.709-.681,1.1-.571a8.626,8.626,0,0,1,1.927.913,12.081,12.081,0,0,1,.973,3.178" transform="translate(-23.965 -44.701)" fill="#5a5a5a"/>
        <path id="Trazado_131820" data-name="Trazado 131820" d="M107.385,113.224c.2-1.859.693-3.664,1.021-5.5.37-2.071.84-4.125,1.213-6.2a2.208,2.208,0,0,1,.66-1.238c1.761-1.761,3.55-3.495,5.165-5.4l1.321-.384c-.006.362-.252.469-.4.627-1.2,1.259-2.361,2.564-3.638,3.742a5.734,5.734,0,0,0-1.791,3.449c-.591,3.423-1.317,6.823-1.945,10.24-.212,1.154-1.03.542-1.6.655" transform="translate(-52.789 -46.461)" fill="#feaf9d"/>
        <path id="Trazado_131821" data-name="Trazado 131821" d="M91.327,62.966a6.737,6.737,0,0,0-.1-3.477,11.3,11.3,0,0,0-5.547-8.049.818.818,0,0,1-.157-.179,10.482,10.482,0,0,1,8.24,11.191c-.032.437-.2.549-.591.535-.616-.021-1.233-.015-1.85-.02" transform="translate(-42.045 -25.199)" fill="#444"/>
        <path id="Trazado_131822" data-name="Trazado 131822" d="M86.684,85.008a.922.922,0,0,1,.838-.136c.8.106.989-.234.963-.988-.055-1.6-.017-3.205-.018-4.808,2.029-.114,2.036-.114,2.024,1.911a14.553,14.553,0,0,1-.424,4.849,8.61,8.61,0,0,1-6.1,5.818,11.012,11.012,0,0,0,3.609-4.2c.053-.12.1-.241.156-.365-.252-.286-.664.015-.881-.286.3-.309.7-.207,1.059-.23a3.572,3.572,0,0,0,.874-.071.62.62,0,0,0,.5-.557.6.6,0,0,0-.509-.628,5.623,5.623,0,0,0-1.275-.074c-.288-.017-.6.025-.816-.234" transform="translate(-41.276 -38.853)" fill="#fdaf9d"/>
        <path id="Trazado_131823" data-name="Trazado 131823" d="M139.578,69.867a16.864,16.864,0,0,0,2.121-3.343,6.322,6.322,0,0,1,.835,4.584,4.324,4.324,0,0,1-.412,1.377c-1.264,2.408-1.535,2.922-4.345,2.659a.6.6,0,0,1,.138-.595,9.276,9.276,0,0,0,1.663-4.682" transform="translate(-67.713 -32.703)" fill="#444"/>
        <path id="Trazado_131824" data-name="Trazado 131824" d="M102.5,97.2c-.233.765-.47,1.529-.7,2.3-.112.377-.3.353-.581.161a4.763,4.763,0,0,1-1.806-5.712,3.617,3.617,0,0,0,.326-.9,1.118,1.118,0,0,1,1.116-1.032c.52-.185.718.207.917.541A5.737,5.737,0,0,1,102.5,97.2" transform="translate(-48.691 -45.206)" fill="#5a5a5a"/>
        <path id="Trazado_131825" data-name="Trazado 131825" d="M94.263,121.34c0-1.956-.066-3.914.023-5.866a6.064,6.064,0,0,0-1.475-4.435,3.632,3.632,0,0,1,4.061,2.5,1.278,1.278,0,0,1,.021.851c-.736,2.174-1.446,4.357-2.173,6.533-.069.206-.089.515-.456.413" transform="translate(-45.625 -54.575)" fill="#ea5569"/>
        <path id="Trazado_131826" data-name="Trazado 131826" d="M113.976,84.816l-1.135-.153a7.239,7.239,0,0,1-2.333-.263c-.356-.109-.526.166-.751.331a11.116,11.116,0,0,1-.112-2.46,19.014,19.014,0,0,0,3.343.622,14.852,14.852,0,0,0,5.251-.507c.5-.148.606-.025.563.441a8.1,8.1,0,0,1-.13,2.067.937.937,0,0,0-1.216-.389,8.384,8.384,0,0,1-3.481.311" transform="translate(-53.894 -40.444)" fill="#fea68e"/>
        <path id="Trazado_131827" data-name="Trazado 131827" d="M45.377,47.716c0-1.9-.034-3.808,0-5.712.011-.617-.195-.764-.782-.761-3.888.021-7.776.01-11.664,0-.31,0-.647.1-.928-.133,4.961.008,9.922.023,14.884.012.512,0,.644.18.637.65-.017,1.234,0,2.468.009,3.7a.77.77,0,0,1-.33.676c-.626.5-1.219,1.041-1.825,1.566" transform="translate(-15.732 -20.209)" fill="#feaf9d"/>
        <path id="Trazado_131828" data-name="Trazado 131828" d="M79.269,110.364a2.957,2.957,0,0,1-5.845.337c-.073-.825.008-.95.766-.823a13.119,13.119,0,0,0,4.381-.008c.33-.055.815-.16.7.494" transform="translate(-36.084 -53.99)" fill="#feaf9d"/>
        <path id="Trazado_131829" data-name="Trazado 131829" d="M136.934,73.1c.325.7-.033,1.354-.164,2.008a9.091,9.091,0,0,1-1.637,3.269c-.72.009-1.442,0-2.161.035-.463.024-.563-.164-.6-.6a1.436,1.436,0,0,1,.834-1.592,13.862,13.862,0,0,0,3.727-3.12" transform="translate(-65.068 -35.935)" fill="#5a5a5a"/>
        <path id="Trazado_131830" data-name="Trazado 131830" d="M148.322,49.212V42.749a3.285,3.285,0,0,1,2.362,3.094,3.45,3.45,0,0,1-2.362,3.369" transform="translate(-72.914 -21.015)" fill="#fca58d"/>
        <path id="Trazado_131831" data-name="Trazado 131831" d="M7.1,47.972a3.25,3.25,0,0,1-2.13-3.155A3.2,3.2,0,0,1,7.1,41.773Z" transform="translate(-2.444 -20.535)" fill="#feaf9d"/>
        <path id="Trazado_131832" data-name="Trazado 131832" d="M145.447,91.451a4.655,4.655,0,0,1,.785,2.638c-.017,3.16-.023,6.32.008,9.479.006.606-.174.845-.766.766-.019-1.332-.053-2.664-.053-4,0-2.962.016-5.925.025-8.887" transform="translate(-71.488 -44.956)" fill="#bfd5f1"/>
        <path id="Trazado_131833" data-name="Trazado 131833" d="M9.687,25.167c-.154-1.709-.294-3.421-.468-5.128a4.5,4.5,0,0,1,.845-3.384,19.822,19.822,0,0,0,.214,2.846,5.32,5.32,0,0,0,.28,1.168,3.363,3.363,0,0,1-.206,3.782A4.389,4.389,0,0,0,9.972,25.5c-.331.089-.176-.235-.285-.335" transform="translate(-4.514 -8.187)" fill="#d57e49"/>
        <path id="Trazado_131834" data-name="Trazado 131834" d="M30.693,81.616c-.405-.291-1.223-.4-.958-1.048.208-.505.817,0,1.23.077a16.391,16.391,0,0,0,6.851-.163c.2-.048.471-.334.623-.006a.536.536,0,0,1-.3.733c-.236.118-.455.271-.681.408a13.493,13.493,0,0,1-6.762,0" transform="translate(-14.592 -39.485)" fill="#fda68e"/>
        <path id="Trazado_131835" data-name="Trazado 131835" d="M31.669,82.7c.406-.385.821-.014,1.2.034a14.135,14.135,0,0,0,5.051-.155.444.444,0,0,1,.508.121c-1.009.694-2.023,1.382-3.025,2.088a.535.535,0,0,1-.713,0c-1-.706-2.015-1.393-3.025-2.087" transform="translate(-15.568 -40.57)" fill="#fdaf9d"/>
        <path id="Trazado_131836" data-name="Trazado 131836" d="M104.254,96.7a7.7,7.7,0,0,0-.9-4.542c-.189-.3-.335-.614-.742-.647.436-.208.81-.732,1.341-.5a4.239,4.239,0,0,1,1.917,1.759.309.309,0,0,1-.041.371c-.833,1.051-1.034,2.381-1.575,3.56" transform="translate(-50.443 -44.713)" fill="#434343"/>
        <path id="Trazado_131837" data-name="Trazado 131837" d="M118.175,86.569c1.048-.257,2.15-.141,3.19-.455.2-.061.419-.084.613-.164.716-.293.956,0,.894.7a.983.983,0,0,1-.984,1.18,5.626,5.626,0,0,0-.778.192c-.79.208-1.6.6-1.962-.647-.113-.394-.6-.586-.972-.8" transform="translate(-58.094 -42.197)" fill="#fdaf9d"/>
        <path id="Trazado_131838" data-name="Trazado 131838" d="M23.372,86.846a2.229,2.229,0,0,1,3.451,0A13.914,13.914,0,0,0,28.4,87.95a6.881,6.881,0,0,1-2.031-.364c-.374-.078-.8-.227-1.1-.047-1.036.624-1.362-.286-1.9-.693" transform="translate(-11.489 -42.29)" fill="#bed3ef"/>
        <path id="Trazado_131839" data-name="Trazado 131839" d="M79.111,109.853c-.057-.379-.262-.35-.58-.282A10.479,10.479,0,0,1,74,109.6c-.654-.146-.749.075-.736.594a.463.463,0,0,1-.081-.135c-.224-1.284-.172-1.321,1.073-1.12a11.169,11.169,0,0,0,3.977-.041c1.063-.21,1.074-.2.876.959" transform="translate(-35.927 -53.48)" fill="#f9a38c"/>
        <path id="Trazado_131840" data-name="Trazado 131840" d="M67.285,41.665a3.263,3.263,0,0,1,1.98,1.966c.074.187.27.479-.087.607-.525.187-1.059.355-1.6.492-.356.09-.288-.219-.29-.41-.008-.849,0-1.7,0-2.654" transform="translate(-33.076 -20.482)" fill="#f8a28b"/>
        <path id="Trazado_131841" data-name="Trazado 131841" d="M52.061,59.949c-.646-.3-1.414-.534-1.2-1.492.222-.987,1.046-.9,1.793-.912.213,0,.426,0,.639,0l-1.233,2.407" transform="translate(-24.985 -28.287)" fill="#fc8f83"/>
        <path id="Trazado_131842" data-name="Trazado 131842" d="M109.864,86.491c-.008-.511.094-.773.73-.571a22.911,22.911,0,0,0,2.354.5,2.447,2.447,0,0,0-1.76,1.243c-.252.485-.425.351-.727.044-.346-.351-.684-.671-.6-1.219" transform="translate(-54.001 -42.204)" fill="#fbad9b"/>
        <path id="Trazado_131843" data-name="Trazado 131843" d="M84.973,44.41a3.391,3.391,0,0,1,2.008-1.878c0,.727,0,1.371,0,2.015,0,.336-.2.31-.432.252-.508-.128-1.017-.251-1.577-.389" transform="translate(-41.772 -20.908)" fill="#f6aa98"/>
        <path id="Trazado_131844" data-name="Trazado 131844" d="M55.625,83.513a2.161,2.161,0,0,1,0-3.647Z" transform="translate(-26.853 -39.261)" fill="#fcae9c"/>
        <path id="Trazado_131845" data-name="Trazado 131845" d="M101.685,79.9a2.154,2.154,0,0,1,0,3.6Z" transform="translate(-49.987 -39.277)" fill="#fba58d"/>
        <path id="Trazado_131846" data-name="Trazado 131846" d="M45.312,73.135a38.887,38.887,0,0,0,3.2-2.618,1.371,1.371,0,0,1-.977,1.776,9.856,9.856,0,0,1-2.224.841" transform="translate(-22.275 -34.666)" fill="#faad9b"/>
        <path id="Trazado_131847" data-name="Trazado 131847" d="M102.739,57.829c1.235.014,1.7.409,1.572,1.3-.05.355-.344.522-.5.792l-1.073-2.1" transform="translate(-50.506 -28.428)" fill="#fa8d81"/>
        <path id="Trazado_131848" data-name="Trazado 131848" d="M46.287,87.646c-.208.2-.42.4-.624.6-.163.162-.3.472-.549.354-.18-.085-.29-.363-.383-.576-.148-.34.206-.384.37-.5.429-.305.887-.569,1.334-.851.463.374.453.436-.148.973" transform="translate(-21.972 -42.608)" fill="#bcd2ed"/>
        <path id="Trazado_131849" data-name="Trazado 131849" d="M92.5,103.715c.379-.6.621-.488.81.137a9.832,9.832,0,0,0,.408.974H91.288c-.025,0-.071-.008-.073-.018a.332.332,0,0,1,.01-.1c.482-.258,1.184-.234,1.277-.993" transform="translate(-44.84 -50.791)" fill="#4d87cb"/>
        <path id="Trazado_131850" data-name="Trazado 131850" d="M62.442,104.708c-.157.019-.37.065-.262-.2.186-.462.409-.91.646-1.426l.908.837c.231.473.147.747-.442.741a2.228,2.228,0,0,0-.85.052" transform="translate(-30.553 -50.672)" fill="#09ac97"/>
        <path id="Trazado_131851" data-name="Trazado 131851" d="M47.825,87.17c.149-.309.571-.577.148-.973.165-.128.327-.26.5-.383a.355.355,0,0,1,.593.12c.108.2.142.427-.11.543-.4.188-.669.6-1.127.692" transform="translate(-23.51 -42.131)" fill="#adc4e4"/>
        <path id="Trazado_131852" data-name="Trazado 131852" d="M62.724,105.517a.757.757,0,0,1,.678-.133c.518.052.659-.208.614-.66a3.306,3.306,0,0,1,1.031.793Z" transform="translate(-30.835 -51.481)" fill="#019287"/>
        <path id="Trazado_131853" data-name="Trazado 131853" d="M92.514,104.1c.039.986.039.986-1.277.993a5.694,5.694,0,0,1,1.277-.993" transform="translate(-44.851 -51.173)" fill="#a7bbd4"/>
        <path id="Trazado_131854" data-name="Trazado 131854" d="M10.119,33.4c.124.087.09.308.285.335.012.159-.048.4-.182.336-.269-.135-.123-.434-.1-.671" transform="translate(-4.946 -16.418)" fill="#52311c"/>
        <path id="Trazado_131855" data-name="Trazado 131855" d="M33.193,57.741c1.314,0,2.628-.013,3.942.005a1.209,1.209,0,0,1,1.34,1.343,5.32,5.32,0,0,1-10.621.241c-.053-1.141.347-1.58,1.477-1.588,1.287-.009,2.574,0,3.862,0" transform="translate(-13.69 -28.383)"/>
        <path id="Trazado_131856" data-name="Trazado 131856" d="M51.108,47.477a11.29,11.29,0,0,1-.009,1.286,1.222,1.222,0,0,1-1.253,1.118,1.193,1.193,0,0,1-1.131-1.227c-.024-.831-.026-1.663,0-2.493a1.188,1.188,0,0,1,2.37-.129,10.611,10.611,0,0,1,.013,1.445h.008" transform="translate(-23.939 -22.107)" fill="#010101"/>
        <path id="Trazado_131857" data-name="Trazado 131857" d="M22.69,47.426c0-.456-.032-.914.008-1.366a1.1,1.1,0,0,1,1.18-1.073,1.078,1.078,0,0,1,1.161,1.006,12.8,12.8,0,0,1,0,2.886,1.079,1.079,0,0,1-1.168,1A1.1,1.1,0,0,1,22.7,48.791c-.041-.452-.008-.91-.007-1.366" transform="translate(-11.148 -22.115)" fill="#010101"/>
        <path id="Trazado_131858" data-name="Trazado 131858" d="M19.13,59.782c-.376,0-.751,0-1.127,0A1.08,1.08,0,0,1,16.839,58.7a1.038,1.038,0,0,1,1.023-1.136,15.209,15.209,0,0,1,2.491.011,1.025,1.025,0,0,1,1.041,1.179,1.1,1.1,0,0,1-1.218,1.031c-.349,0-.7,0-1.047,0" transform="translate(-8.276 -28.274)" fill="#fd8f83"/>
        <path id="Trazado_131859" data-name="Trazado 131859" d="M113.412,59.757c1.314,0,2.628-.008,3.942,0,1.029.008,1.465.477,1.422,1.5a5.31,5.31,0,0,1-10.61-.1,1.222,1.222,0,0,1,1.3-1.387c1.314-.021,2.628-.006,3.942-.006" transform="translate(-53.173 -29.373)"/>
        <path id="Trazado_131860" data-name="Trazado 131860" d="M131.336,46.141a5.425,5.425,0,0,1,.643,0,1.174,1.174,0,0,1,1.11,1,1.057,1.057,0,0,1-.642,1.256.652.652,0,0,0-.449.791,4.2,4.2,0,0,1-.006.8,1.123,1.123,0,0,1-1.147,1.116,1.083,1.083,0,0,1-1.22-1.032,18.2,18.2,0,0,1,0-2.893c.06-.761.616-1.048,1.711-1.041" transform="translate(-63.694 -22.678)" fill="#010100"/>
        <path id="Trazado_131861" data-name="Trazado 131861" d="M104.231,48.645c0,.429.032.861-.007,1.287a1.2,1.2,0,1,1-2.4-.045,5.172,5.172,0,0,1,0-.8.554.554,0,0,0-.4-.659,1.1,1.1,0,0,1-.67-1.385,1.169,1.169,0,0,1,1.185-.9c.294-.014.59-.013.885,0a1.271,1.271,0,0,1,1.408,1.388c.016.375,0,.75,0,1.126h-.007" transform="translate(-49.508 -22.674)" fill="#010101"/>
        <path id="Trazado_131862" data-name="Trazado 131862" d="M135.041,57.979a1.275,1.275,0,0,1,.232,1.41c-.253.547-.78.546-1.307.533-.771-.02-1.543,0-2.316,0a1.016,1.016,0,0,1-.754-1.3.984.984,0,0,1,1.129-.8,10.832,10.832,0,0,1,3.016.16" transform="translate(-64.331 -28.41)" fill="#fd8f83"/>
        <path id="Trazado_131863" data-name="Trazado 131863" d="M75.627,96.137a3.736,3.736,0,0,1-3.705-3.591,1.247,1.247,0,0,1,1.13-1.4,1.225,1.225,0,0,1,1.279,1.169c.149.933.558,1.389,1.256,1.4.722.012,1.143-.45,1.31-1.44A1.214,1.214,0,0,1,78.2,91.149a1.257,1.257,0,0,1,1.1,1.357,3.742,3.742,0,0,1-3.674,3.63" transform="translate(-35.356 -44.805)"/>
        <path id="Trazado_131864" data-name="Trazado 131864" d="M69.09,83.514a6.186,6.186,0,0,1-.108,1.029,1.1,1.1,0,0,1-1.189.872,1.082,1.082,0,0,1-1.111-.963,1.143,1.143,0,0,0-.451-.854,1.051,1.051,0,0,1-.327-1.236,1.169,1.169,0,0,1,1.075-.823c1.627-.154,2.082.269,2.111,1.975" transform="translate(-32.361 -40.069)" fill="#010101"/>
        <path id="Trazado_131865" data-name="Trazado 131865" d="M87.848,81.55a1.257,1.257,0,0,1,1.436.752,1.15,1.15,0,0,1-.54,1.508c-.239.156-.127.382-.168.577a1.2,1.2,0,0,1-2.4-.135c-.028-.373-.01-.749-.008-1.123.007-1.186.4-1.577,1.679-1.58" transform="translate(-42.356 -40.084)" fill="#010100"/>
        <path id="Trazado_131866" data-name="Trazado 131866" d="M88.594,90.782l1.923.011a.86.86,0,0,1,.967.846c.029.608-.367.913-.963.927s-1.175.008-1.763.01a.843.843,0,0,1-.9-.821.863.863,0,0,1,.737-.973" transform="translate(-43.187 -44.628)" fill="#fd8f83"/>
        <path id="Trazado_131867" data-name="Trazado 131867" d="M65.163,90.784c.32,0,.64-.008.959,0a.744.744,0,0,1,.8.8c.04.548-.191.913-.72.957a12.022,12.022,0,0,1-2.074,0,.883.883,0,0,1,.081-1.755c.318-.021.639,0,.958,0" transform="translate(-31.151 -44.626)" fill="#fd8f83"/>
        <path id="Trazado_131868" data-name="Trazado 131868" d="M38.389,62.58A2.845,2.845,0,0,1,35.638,64.2,2.754,2.754,0,0,1,33.2,62.58Z" transform="translate(-16.32 -30.764)" fill="#fdaf9d"/>
        <path id="Trazado_131869" data-name="Trazado 131869" d="M113.551,64.561H118.6a2.368,2.368,0,0,1-2.172,1.646,2.8,2.8,0,0,1-2.88-1.646" transform="translate(-55.821 -31.738)" fill="#fcae9c"/>
      </g>
    </g>
  </g>
</svg>
