<svg xmlns="http://www.w3.org/2000/svg" xmlns:xlink="http://www.w3.org/1999/xlink" width="70" height="85" viewBox="0 0 70 85">
  <defs>
    <clipPath id="clip-path">
      <rect id="Rect치ngulo_37882" data-name="Rect치ngulo 37882" width="61.622" height="50.801" fill="none"/>
    </clipPath>
  </defs>
  <g id="Grupo_158037" data-name="Grupo 158037" transform="translate(-813 -5280)">
    <rect id="Rect치ngulo_37872" data-name="Rect치ngulo 37872" width="70" height="85" rx="12" transform="translate(813 5280)" fill="#1169e3"/>
    <g id="Grupo_158014" data-name="Grupo 158014" transform="translate(822.197 5296.978)">
      <g id="Grupo_158008" data-name="Grupo 158008" transform="translate(0 1.416)">
        <path id="Trazado_131261" data-name="Trazado 131261" d="M15.515,119.662c-.456-.1-.561.113-.556.539.012,1.066-.007,1.085-1.11,1.078-.41,0-.538.125-.53.531.007.378.077.555.514.553,1.107,0,1.135.018,1.123,1.123-.005.5.24.509.61.513s.562-.058.562-.5c0-1.119.023-1.139,1.115-1.134.423,0,.523-.151.524-.543s-.1-.543-.522-.541c-1.114.006-1.141-.014-1.116-1.07.012-.49-.169-.633-.614-.547" transform="translate(-13.318 -103.017)" fill="#29c4bb"/>
        <path id="Trazado_131262" data-name="Trazado 131262" d="M213.648,154.464c.408.078.634-.057.566-.519-.056-.386.077-.6.5-.535s.571-.088.575-.538c0-.472-.189-.58-.591-.526-.384.052-.506-.115-.5-.5.012-.6-.358-.828-.937-.647-.275.086-.215.305-.2.479.048.473-.06.763-.618.668-.432-.073-.459.2-.457.529s.014.6.453.532c.472-.073.7.1.618.6-.075.477.231.5.584.456" transform="translate(-164.006 -141.995)" fill="#29c4bb"/>
        <path id="Trazado_131263" data-name="Trazado 131263" d="M210.729,69.3c.105-.455-.1-.61-.529-.539-.462.078-.65-.112-.569-.571s-.113-.55-.543-.554-.611.127-.534.559c.083.46-.109.65-.566.564-.473-.089-.515.159-.533.557-.021.468.161.59.568.519.443-.077.608.106.533.538-.072.414.062.581.522.565.406-.014.641-.072.554-.538s.115-.641.569-.565c.427.072.634-.081.528-.536" transform="translate(-160.562 -35.719)" fill="#010000"/>
        <path id="Trazado_131264" data-name="Trazado 131264" d="M55.051,186.618c.1-.424-.11-.58-.534-.5-.5.09-.616-.169-.544-.589.079-.467-.147-.539-.556-.536-.392,0-.6.091-.52.513.108.555-.169.691-.647.609s-.467.226-.469.561.007.6.45.514c.6-.118.748.168.667.7-.077.51.312.363.571.379.275.016.581.052.5-.391-.1-.547.093-.8.672-.69.483.093.424-.244.41-.568" transform="translate(-42.49 -184.99)" fill="#010000"/>
        <path id="Trazado_131265" data-name="Trazado 131265" d="M121.786,17.456c-.114.484.154.578.55.52.412-.061.574.109.511.515s.058.59.524.58c.429-.009.625-.12.55-.56s.132-.6.555-.535c.392.059.589-.035.591-.514s-.183-.622-.61-.554c-.452.072-.605-.134-.535-.555.079-.473-.175-.528-.573-.536-.426-.009-.564.151-.5.542.068.428-.09.624-.536.549s-.622.107-.525.549" transform="translate(-95.566 30.246)" fill="#29c4bb"/>
      </g>
      <g id="Grupo_158040" data-name="Grupo 158040" transform="translate(-5.197 0.022)">
        <g id="Grupo_158040-2" data-name="Grupo 158040" clip-path="url(#clip-path)">
          <path id="Trazado_131517" data-name="Trazado 131517" d="M119.7,67.63a2.6,2.6,0,0,1,1.041,2.67c-.05.238.085.392.193.569a7.309,7.309,0,0,1-6.463,11.245,3.4,3.4,0,0,1-1.29-.19,3.984,3.984,0,0,0-2.749.015A9.877,9.877,0,0,1,98.3,73.453a.986.986,0,0,1-.02-.186c.057-.683-.209-.953-.934-1.072a2.506,2.506,0,0,1,.467-4.93c.13-.01.4.142.366-.153-.036-.32-.3-.117-.444-.1-.308.041-.607.146-.913.2a.733.733,0,0,1-.953-.577.685.685,0,0,1,.654-.883c.622-.051.684-.361.687-.894a47.744,47.744,0,0,1,.1-5.248,11.6,11.6,0,0,1,22.851-.85,14.109,14.109,0,0,1,.251,3.109c0,1.564-.005,3.127.008,4.692,0,.51-.118.912-.721,1.068" transform="translate(-60.513 -31.427)"/>
          <path id="Trazado_131518" data-name="Trazado 131518" d="M22.693,67.845A6.271,6.271,0,0,1,24,68.083,2.536,2.536,0,0,1,25.5,70.6a2.444,2.444,0,0,1-2,2.261c-.6.085-.72.318-.781.877A9.911,9.911,0,0,1,3,74.155c-.007-.062-.019-.124-.02-.186-.008-.631-.1-1.051-.94-1.144a2.4,2.4,0,0,1-1.883-2.29,2.438,2.438,0,0,1,1.578-2.455c.5-.169.411-.368.261-.707A22.939,22.939,0,0,1,.07,61a6.036,6.036,0,0,1,.3-3.075,2.809,2.809,0,0,1,1.377-1.556A2.99,2.99,0,0,0,2.766,55.5a7.732,7.732,0,0,1,6.882-2.942,1.21,1.21,0,0,0,.661-.1,4.4,4.4,0,0,1,3.861-.088.8.8,0,0,0,.649.014,4.527,4.527,0,0,1,5.172,1.282,4.708,4.708,0,0,0,1.87,1.361,3.279,3.279,0,0,1,2.151,3.1c.022.355.112.482.452.577a2.522,2.522,0,0,1,1.745,3.426,11.931,11.931,0,0,1-3.515,5.723" transform="translate(0 -32.942)"/>
          <path id="Trazado_131519" data-name="Trazado 131519" d="M62.208,0q4.6,0,9.194,0a3.3,3.3,0,0,1,3.47,3.443q.011,4.972,0,9.944a3.265,3.265,0,0,1-3.4,3.382c-3,.007-6,.014-9.006-.01-.534,0-.716.1-.754.689a6.419,6.419,0,0,1-4.138,5.815c-.362.159-.749.316-1.121.02s-.269-.712-.2-1.1a9.052,9.052,0,0,0,.09-3.353,2.2,2.2,0,0,0-2.442-2.064,7.31,7.31,0,0,1-1.866-.109,3.245,3.245,0,0,1-2.449-3.1c-.016-3.439-.022-6.879,0-10.319A3.258,3.258,0,0,1,52.889.006C56-.006,59.1,0,62.208,0" transform="translate(-31.432 0)"/>
          <path id="Trazado_131520" data-name="Trazado 131520" d="M96.774,50.4c-.939,0-1.877,0-2.816,0-.622,0-.942-.266-.942-.75s.32-.747.942-.749c1.877,0,3.754,0,5.631-.005.513,0,.858.2.918.723.052.457-.333.775-.917.78-.939.008-1.877,0-2.816,0" transform="translate(-58.969 -30.999)"/>
          <path id="Trazado_131521" data-name="Trazado 131521" d="M86.079,50.408c-.668,0-1.011-.246-1.019-.738s.33-.763.991-.765,1.022.262,1.032.737-.362.764-1,.766" transform="translate(-53.925 -31.004)" fill="#294369"/>
          <path id="Trazado_131522" data-name="Trazado 131522" d="M107.041,89.841c0-1.167.014-2.147-.008-3.127a.483.483,0,0,1,.4-.57,24.273,24.273,0,0,0,9.7-5.23c.4-.366.473-.012.62.206a13.591,13.591,0,0,0,5.032,4.846,1.841,1.841,0,0,1,1.176,2.091c-.119,1.765.118,3.543-.132,5.306a8.446,8.446,0,0,1-16.532.77,20,20,0,0,1-.252-4.292" transform="translate(-67.855 -51.196)" fill="#fed7b6"/>
          <path id="Trazado_131523" data-name="Trazado 131523" d="M124.474,68.526a10.11,10.11,0,0,1-4.709-2.47A15.285,15.285,0,0,1,117,62.692a.51.51,0,0,1,.057-.7,15.187,15.187,0,0,0,2.208-3.679.85.85,0,0,0-.35-1.21c-.4-.186-.805.05-1.041.628a13.675,13.675,0,0,1-3.608,5.034,21.721,21.721,0,0,1-6.847,4.033q-1.311.5-2.659.9c-.385.112-.462,0-.456-.364.018-.98.015-1.961,0-2.941,0-.3.094-.422.4-.5.8-.2,1.6-.454,2.389-.708.59-.189.836-.567.666-.995-.214-.541-.614-.6-1.124-.428-.589.2-1.2.354-1.785.555-.363.124-.468,0-.4-.338a10.147,10.147,0,0,1,4.758-6.877,10.043,10.043,0,0,1,5.722-1.447c.488.018.582.134.368.581a13.967,13.967,0,0,1-5.887,6.268,3.655,3.655,0,0,0-.539.312c-.325.267-.557.585-.283,1.023a.725.725,0,0,0,1.039.239,14.517,14.517,0,0,0,2.725-1.751,14.681,14.681,0,0,0,4.506-5.961c.121-.295.273-.337.578-.233a9.79,9.79,0,0,1,6.893,7.891,34.479,34.479,0,0,1,.14,5.365c.012.37,0,.741,0,1.138" transform="translate(-66.124 -34.009)" fill="#6d7485"/>
          <path id="Trazado_131524" data-name="Trazado 131524" d="M146.867,119.381c-.256-.06-.709.165-.822-.138-.107-.286.362-.434.578-.616a9.772,9.772,0,0,0,3.324-5.688,6.8,6.8,0,0,0,.2-1.283c0-.4.161-.559.526-.6a1.036,1.036,0,0,0,.477-.124c.634-.471.867-.1,1.092.451a5.824,5.824,0,0,1-5.37,8" transform="translate(-92.577 -70.188)" fill="#4a5160"/>
          <path id="Trazado_131525" data-name="Trazado 131525" d="M100.817,103.079a3.454,3.454,0,0,1,0,.436c-.024.191.119.462-.12.556a.729.729,0,0,1-.69-.191,1.018,1.018,0,0,1-.284-1.334.752.752,0,0,1,.865-.453c.4.094.178.441.229.675a1.49,1.49,0,0,1,0,.311" transform="translate(-63.132 -64.709)" fill="#ecc396"/>
          <path id="Trazado_131526" data-name="Trazado 131526" d="M157.309,103.089a3.55,3.55,0,0,1,0-.433c.026-.2-.122-.479.2-.571a.675.675,0,0,1,.676.2,1.051,1.051,0,0,1-.221,1.681c-.486.258-.653.162-.66-.384,0-.165,0-.33,0-.495" transform="translate(-99.723 -64.701)" fill="#ebc296"/>
          <path id="Trazado_131527" data-name="Trazado 131527" d="M19.851,74.282a2.242,2.242,0,0,0,.512-.353A2.07,2.07,0,0,1,22.92,73.4a6.763,6.763,0,0,0,5.087-.612c.6-.292,1.172-.635,1.772-.922,1.958-.939,3.633.16,3.77,2.325.237,3.749.2,7.5.187,11.25a8.453,8.453,0,0,1-6.988,8.2,4.9,4.9,0,0,1-.5.033c-1.348.324-2.323-.408-3.24-1.2a9.179,9.179,0,0,1-3.33-7.291,22.139,22.139,0,0,1,.06-2.985,9.926,9.926,0,0,0,.4-.913.962.962,0,0,1,.952-.759.973.973,0,0,1,.937.779,1.8,1.8,0,0,0,.131.35.527.527,0,0,0,.6.337.536.536,0,0,0,.423-.545,2.077,2.077,0,0,0-2.5-2.079c-.292.059-.591.262-.885-.008a1.182,1.182,0,0,1-.14-.658q-.013-1.857,0-3.716a1.1,1.1,0,0,1,.2-.7" transform="translate(-12.455 -45.345)" fill="#fed7b6"/>
          <path id="Trazado_131528" data-name="Trazado 131528" d="M17,56.648a2.641,2.641,0,0,0,1.552-.324,2.69,2.69,0,0,1,2.691.089,1.335,1.335,0,0,0,1.4.015,3.03,3.03,0,0,1,3.469.567c.27.258.507.551.758.83A2.938,2.938,0,0,0,28.5,58.876a1.979,1.979,0,0,1,1.393,2.54c-.216.8.062,1.185.887,1.236a6.67,6.67,0,0,1,.686.032c.534.089,1.021.642.877,1.111a11.829,11.829,0,0,1-1.927,4.145,3.551,3.551,0,0,1-.261-1.38c-.085-.806-.109-1.62-.128-2.432a3.917,3.917,0,0,0-5.486-3.635,10.284,10.284,0,0,0-1.5.769,6.687,6.687,0,0,1-7.219-.075c-.217-.124-.436-.245-.654-.366a.706.706,0,0,0-1.026.261.693.693,0,0,0,.253,1.024c.615.458.633.487-.063.86a2.825,2.825,0,0,1-2.355.453A3.445,3.445,0,0,1,13.4,59.363a2.618,2.618,0,0,0,.889-.743,8.728,8.728,0,0,1,1.849-1.747.887.887,0,0,1,.86-.225" transform="translate(-7.461 -35.505)" fill="#c1684f"/>
          <path id="Trazado_131529" data-name="Trazado 131529" d="M14.966,86.929c0,1.061-.024,2.123,0,3.183a9.1,9.1,0,0,0,5.109,8.222c.406.221.863.029,1.289.111a7.365,7.365,0,0,1-4.822-.869,8.134,8.134,0,0,1-4.572-7.431c-.059-3.336-.005-6.674-.023-10.011,0-.433.085-.559.546-.526a5.13,5.13,0,0,0,2.472-.553c0,1.511-.005,3.023,0,4.534,0,.2-.068.42.126.58.037.26-.193.343-.331.475a2.427,2.427,0,0,0-.677,1.086c-.19.651-.008.955.664,1.1a.354.354,0,0,1,.217.1" transform="translate(-7.573 -50.117)" fill="#e4bca0"/>
          <path id="Trazado_131530" data-name="Trazado 131530" d="M12.12,57.6a2.948,2.948,0,0,0-1.5.948A6.478,6.478,0,0,0,9.28,60.02a.626.626,0,0,1-.317.287A2.922,2.922,0,0,0,7.1,63.372c-.008.333,0,.667,0,1a3.123,3.123,0,0,1-1.6-.446.992.992,0,0,0-1.308.109,2.382,2.382,0,0,1,1.442-3.068,2.265,2.265,0,0,0,.745-.823,6.483,6.483,0,0,1,5.4-2.633,1.343,1.343,0,0,1,.353.092" transform="translate(-2.583 -36.46)" fill="#9f5847"/>
          <path id="Trazado_131531" data-name="Trazado 131531" d="M4.354,77.773c.418.212.739.389,1.072.537.257.114.218.325.219.527,0,.956,0,1.913-.051,2.882a21.092,21.092,0,0,1-1.24-3.946" transform="translate(-2.76 -49.305)" fill="#9e5747"/>
          <path id="Trazado_131532" data-name="Trazado 131532" d="M5.743,100.733a1.481,1.481,0,0,1,0,.249c-.041.23.14.574-.128.669a.8.8,0,0,1-.861-.364.976.976,0,0,1-.1-1.159.763.763,0,0,1,.8-.464c.451.064.247.441.286.7a2.479,2.479,0,0,1,0,.373" transform="translate(-2.856 -63.178)" fill="#ebc296"/>
          <path id="Trazado_131533" data-name="Trazado 131533" d="M62.215,100.691a3.555,3.555,0,0,1,0-.437c.026-.206-.124-.486.2-.582a.667.667,0,0,1,.724.25.978.978,0,0,1,.115,1.262.829.829,0,0,1-.88.468c-.331-.086-.106-.467-.159-.711a1.183,1.183,0,0,1,0-.25" transform="translate(-39.427 -63.17)" fill="#ebc296"/>
          <path id="Trazado_131534" data-name="Trazado 131534" d="M60.548,23.864a10.2,10.2,0,0,0-.2-3.077,3.57,3.57,0,0,0-3.7-2.909c-.4,0-.793.012-1.189,0a1.749,1.749,0,0,1-1.752-1.758q-.026-5.1,0-10.2a1.757,1.757,0,0,1,1.837-1.8q9.292-.009,18.584,0a1.756,1.756,0,0,1,1.841,1.8q.031,5.1,0,10.2a1.753,1.753,0,0,1-1.933,1.765q-4.818.008-9.636,0c-1.144,0-1.55.392-1.544,1.537a5.192,5.192,0,0,1-1.765,4.172,3.8,3.8,0,0,1-.347.262c-.027.019-.076.007-.2.015" transform="translate(-34.039 -2.604)" fill="#f2cd7d"/>
          <path id="Trazado_131535" data-name="Trazado 131535" d="M124.242,117.844a4.585,4.585,0,0,1-3-1.183c-.373-.339-.535-.72-.186-1.138s.739-.339,1.146-.017a2.93,2.93,0,0,0,4.116-.008c.41-.322.8-.383,1.145.034a.731.731,0,0,1-.157,1.1,4.563,4.563,0,0,1-3.066,1.216" transform="translate(-76.625 -73.056)"/>
          <path id="Trazado_131536" data-name="Trazado 131536" d="M114.578,94.728a2.323,2.323,0,0,1,2.295,2.181c.015.486-.165.833-.667.885a.706.706,0,0,1-.812-.683c-.072-.523-.307-.88-.863-.87a.8.8,0,0,0-.807.794c-.062.525-.335.8-.864.752-.461-.045-.707-.491-.622-1.046a2.358,2.358,0,0,1,2.34-2.012" transform="translate(-71.144 -60.054)"/>
          <path id="Trazado_131537" data-name="Trazado 131537" d="M137.666,94.759a2.37,2.37,0,0,1,2.32,2.113c.044.475-.129.846-.623.927a.691.691,0,0,1-.861-.675c-.066-.491-.306-.842-.822-.857s-.781.309-.852.811c-.067.476-.331.79-.833.732-.542-.063-.684-.456-.648-.958a2.333,2.333,0,0,1,2.32-2.094" transform="translate(-85.801 -60.074)"/>
          <path id="Trazado_131538" data-name="Trazado 131538" d="M29.216,115.442a4.576,4.576,0,0,1-3.012-1.193c-.376-.347-.5-.738-.145-1.144.336-.387.717-.308,1.1-.011a2.935,2.935,0,0,0,4.119.009c.409-.319.8-.388,1.147.032a.731.731,0,0,1-.157,1.1,4.569,4.569,0,0,1-3.055,1.211" transform="translate(-16.387 -71.537)"/>
          <path id="Trazado_131539" data-name="Trazado 131539" d="M42.615,92.332a2.356,2.356,0,0,1,2.316,2.106.787.787,0,0,1-.668.955.726.726,0,0,1-.826-.732.8.8,0,0,0-.846-.817.781.781,0,0,0-.809.78c-.067.5-.321.834-.865.76s-.661-.484-.625-.973a2.314,2.314,0,0,1,2.324-2.078" transform="translate(-25.539 -58.535)"/>
          <path id="Trazado_131540" data-name="Trazado 131540" d="M18.281,95.431c-.881.128-1.248-.281-1.059-1.148a2.609,2.609,0,0,1,1.186-1.613,2.392,2.392,0,0,1,3.169,1.023,2.073,2.073,0,0,1,.24,1.084.731.731,0,0,1-1.426.195,3.6,3.6,0,0,1-.084-.366.817.817,0,0,0-1.613.021,1.174,1.174,0,0,1-.413.8" transform="translate(-10.888 -58.619)"/>
          <path id="Trazado_131541" data-name="Trazado 131541" d="M90.661,10.945c1.02,0,2.04.006,3.06,0,.521,0,.916.145.95.738.028.489-.3.762-.919.764q-3.154.008-6.308,0c-.618,0-.948-.276-.919-.765.035-.593.431-.741.951-.737,1.062.008,2.124,0,3.186,0" transform="translate(-54.852 -6.937)"/>
          <path id="Trazado_131542" data-name="Trazado 131542" d="M90.634,22.363c-1.062,0-2.124,0-3.186,0-.62,0-.937-.268-.934-.755s.32-.742.944-.743c2.082,0,4.164,0,6.246,0,.518,0,.92.134.96.728.035.5-.309.772-.971.776-1.02,0-2.04,0-3.06,0" transform="translate(-54.847 -13.224)"/>
          <path id="Trazado_131543" data-name="Trazado 131543" d="M90.589,30.778c1.041,0,2.082.006,3.123,0,.52,0,.918.14.954.734.031.5-.31.768-.977.769q-3.092,0-6.184,0c-.674,0-1-.256-.99-.762s.328-.736,1.014-.738c1.02,0,2.04,0,3.06,0" transform="translate(-54.847 -19.511)"/>
          <path id="Trazado_131544" data-name="Trazado 131544" d="M71.872,30.775c.437,0,.875-.016,1.311,0a.706.706,0,0,1,.762.735.692.692,0,0,1-.741.753q-1.31.037-2.622,0a.7.7,0,0,1-.735-.763.715.715,0,0,1,.776-.727c.416-.014.833,0,1.249,0" transform="translate(-44.28 -19.506)"/>
          <path id="Trazado_131545" data-name="Trazado 131545" d="M71.9,22.365H70.715c-.516,0-.868-.24-.86-.769.007-.492.343-.731.833-.732.812,0,1.623-.005,2.435,0,.482,0,.82.227.825.735,0,.545-.353.76-.861.764-.4,0-.791,0-1.186,0" transform="translate(-44.285 -13.225)"/>
          <path id="Trazado_131546" data-name="Trazado 131546" d="M71.873,12.443c-.4,0-.791,0-1.186,0-.489,0-.822-.24-.835-.732a.713.713,0,0,1,.8-.765c.832-.011,1.665-.012,2.5,0,.484.008.808.251.8.759s-.343.727-.825.736c-.416.008-.833,0-1.249,0" transform="translate(-44.284 -6.933)"/>
          <path id="Trazado_131547" data-name="Trazado 131547" d="M60.439,10.949c.574.005.939.309.925.771s-.38.736-.965.732-.922-.28-.91-.771.344-.737.95-.731" transform="translate(-37.714 -6.941)" fill="#2a4368"/>
          <path id="Trazado_131548" data-name="Trazado 131548" d="M60.431,30.781c.576,0,.941.3.933.763s-.366.742-.957.739-.925-.274-.918-.763.337-.743.941-.739" transform="translate(-37.714 -19.514)" fill="#2a4368"/>
          <path id="Trazado_131549" data-name="Trazado 131549" d="M60.389,22.367c-.593-.007-.918-.288-.9-.781s.351-.73.959-.722c.57.008.936.32.916.78s-.389.729-.974.722" transform="translate(-37.713 -13.227)" fill="#2a4368"/>
        </g>
      </g>
    </g>
  </g>
</svg>
