<svg xmlns="http://www.w3.org/2000/svg" xmlns:xlink="http://www.w3.org/1999/xlink" width="70" height="85" viewBox="0 0 70 85">
  <defs>
    <clipPath id="clip-path">
      <rect id="Rect치ngulo_37876" data-name="Rect치ngulo 37876" width="46.104" height="51.569" fill="none"/>
    </clipPath>
  </defs>
  <g id="Grupo_158034" data-name="Grupo 158034" transform="translate(-813 -5280)">
    <rect id="Rect치ngulo_37872" data-name="Rect치ngulo 37872" width="70" height="85" rx="12" transform="translate(813 5280)" fill="#1169e3"/>
    <g id="Grupo_158014" data-name="Grupo 158014" transform="translate(822.197 5296.978)">
      <g id="Grupo_158022" data-name="Grupo 158022" transform="translate(2.866)">
        <g id="Grupo_158022-2" data-name="Grupo 158022" clip-path="url(#clip-path)">
          <path id="Trazado_131388" data-name="Trazado 131388" d="M42.021,43.445a.786.786,0,0,1,.733.907,7.3,7.3,0,0,1-.068,1.453A2.922,2.922,0,0,1,40.392,48.2c-3.67.828-7.35,1.613-11.027,2.412-1.307.284-2.617.555-3.923.845a4.506,4.506,0,0,1-.647.067,27.248,27.248,0,0,1-8.238-.942c-3.5-.808-7.025-1.536-10.541-2.287a3.138,3.138,0,0,1-2.689-3.3c0-2.414-.007-4.828.006-7.241,0-.386-.02-.564-.512-.577A2.836,2.836,0,0,1,.007,34.25c-.007-.62-.013-1.241,0-1.861a2.815,2.815,0,0,1,2.768-2.808c.473-.009.588-.154.559-.594a4.986,4.986,0,0,1,.049-1.3,3.038,3.038,0,0,1,3.651-2.454c1.16.233,2.316.488,3.548.75a9.412,9.412,0,0,1-.47-3.2.487.487,0,0,0-.379-.533,3.326,3.326,0,0,1-1.6-5.2.726.726,0,0,0,.126-.681A30.8,30.8,0,0,1,7.244,8.972c0-.3.018-.6.032-.9a.809.809,0,0,1,.78-.877c.538-.034.782.161.825.686.03.367.014.736.01,1.1a28.527,28.527,0,0,0,.783,6.211c.076.36.223.55.616.412a.826.826,0,0,1,.3-.038c1.729.06,2.7-.962,3.378-2.383a6.873,6.873,0,0,0,.569-1.711,1.228,1.228,0,0,1,.49-.844.954.954,0,0,1,1.154.205,11.113,11.113,0,0,0,6.5,2.636,13.543,13.543,0,0,0,5.8-.606,11.141,11.141,0,0,0,3.679-2.215,20.2,20.2,0,0,0,4-4.546,6.522,6.522,0,0,0,1-2.235c.115-.59-.071-.77-.664-.667a6.1,6.1,0,0,0-2.036,1.539,6.61,6.61,0,0,1-.769.856.872.872,0,0,1-1.164.222.911.911,0,0,1-.3-1.2A8.971,8.971,0,0,0,32.8,2.709c.137-.927-.255-1.263-1.139-.96a3.821,3.821,0,0,0-.5.227,5.129,5.129,0,0,0-1.875,2.112c-.178.3-.315.629-.469.946-.368.48-.754.633-1.15.456a.935.935,0,0,1-.491-1.146A14.4,14.4,0,0,0,27.406,2.7a1.762,1.762,0,0,0-.2-.923c-.375-.316-.634.007-.867.2a9.576,9.576,0,0,0-1.481,1.633,21.369,21.369,0,0,1-2.115,2.546,5.509,5.509,0,0,1-1.325.984,1.766,1.766,0,0,1-.462.191.874.874,0,0,1-.945-.421A.833.833,0,0,1,20.147,5.9a1.8,1.8,0,0,1,.492-.342,6.07,6.07,0,0,0,1.875-1.782c.122-.158.147-.3-.067-.4a7.758,7.758,0,0,0-4.778-.979,3.36,3.36,0,0,0-2.4,1.8c-.537.832-.78.921-1.7.577a5.039,5.039,0,0,0-2.121-.3,2.31,2.31,0,0,0-1.67.91,1.435,1.435,0,0,1-.462.454c-.275.125-.562.258-.808-.062C8.044,5.331,8,5.054,8.345,4.551a4.03,4.03,0,0,1,4.413-1.667A1.721,1.721,0,0,0,14.7,2.262,5.215,5.215,0,0,1,19.763.751a11.116,11.116,0,0,1,3.763,1.327c.25.139.383.132.57-.112A5.273,5.273,0,0,1,26.563,0h.906a1.622,1.622,0,0,1,1.379,1.087c.125.313.254.266.466.072A3.86,3.86,0,0,1,31.7,0H32.8a2.206,2.206,0,0,1,1.682,2.457c.284-.18.513-.33.746-.473a2.969,2.969,0,0,1,1.75-.527A2.058,2.058,0,0,1,38.792,4.1a10.253,10.253,0,0,1-1.934,3.874,16.991,16.991,0,0,1-1.529,1.864.71.71,0,0,0-.2.631c.2,1.647.345,3.3.41,4.957a.386.386,0,0,0,.317.416,3.36,3.36,0,0,1,.056,6.428c-.271.1-.3.234-.3.468a9.646,9.646,0,0,1-.516,3.334c1.077-.234,2.1-.463,3.121-.677a4.723,4.723,0,0,1,2.13-.173,3.084,3.084,0,0,1,2.41,2.907,3.761,3.761,0,0,0,.038,1.244c.187.433.736.139,1.118.254a2.846,2.846,0,0,1,2.136,2.459,13.217,13.217,0,0,1,0,2.56,2.8,2.8,0,0,1-2.833,2.532c-.379.01-.471.1-.462.472.027,1.089.011,2.179.009,3.268,0,.67-.123.83-.773,1.043-.547.018-.83-.241-.862-.849-.039-.736-.009-1.474-.013-2.212,0-.184-.013-.37,0-.553a1.867,1.867,0,0,0-.76-1.911,2.516,2.516,0,0,1-.953-2.177c0-.587,0-1.173,0-1.76A2.964,2.964,0,0,1,40.648,30a.982.982,0,0,0,.462-.932c-.017-.234,0-.47-.007-.7a1.47,1.47,0,0,0-1.91-1.475q-2.26.485-4.52.98-4,.873-8.008,1.739c-.635.137-.658.155-.658.784q0,9.276,0,18.552c0,.674.013.684.685.542,4.312-.911,8.613-1.871,12.923-2.792a1.587,1.587,0,0,0,1.492-1.857,4.141,4.141,0,0,1,.029-.753.718.718,0,0,1,.885-.634" transform="translate(0 -0.001)"/>
          <path id="Trazado_131389" data-name="Trazado 131389" d="M81.813,84.521c-.588.113-.8.323-.767.91.113,2.048-.642,2.292-2.106,2.6-4.308.9-8.606,1.844-12.9,2.79-.369.081-.42-.012-.419-.341q.009-9.682,0-19.364c0-.3.077-.43.394-.5,4.384-.94,8.764-1.9,13.148-2.844A1.557,1.557,0,0,1,81.032,69.2c.013.15-.006.3.009.452a1.615,1.615,0,0,1-.746,1.759,2.353,2.353,0,0,0-.959,2.064c-.006.62,0,1.241,0,1.861a2.8,2.8,0,0,0,1.4,2.511.559.559,0,0,1,.312.555c-.014,1.207.011,2.415-.014,3.621a.891.891,0,0,0,.742,1.023q.02.739.039,1.478" transform="translate(-39.791 -41.077)" fill="#d94a54"/>
          <path id="Trazado_131390" data-name="Trazado 131390" d="M20.919,12.089a.76.76,0,0,0,1.011-.278,2.792,2.792,0,0,1,3.08-1.131,5.049,5.049,0,0,1,.912.255c1.031.365,1.049.364,1.672-.511.2.224.047.444-.019.656A9.606,9.606,0,0,0,27.218,16c.073.345.239.655.305,1a1.249,1.249,0,0,0-.43.762,7.391,7.391,0,0,1-.966,2.509,3.285,3.285,0,0,1-3,1.753.974.974,0,0,0-.4.038c-.58.253-.685-.043-.791-.55a26.707,26.707,0,0,1-.745-7.107c.033-.551-.147-.745-.725-.893q.228-.711.453-1.423" transform="translate(-12.411 -6.321)" fill="#ebc22e"/>
          <path id="Trazado_131391" data-name="Trazado 131391" d="M27.689,80.835c0,3.167-.008,6.335.009,9.5,0,.442-.062.563-.541.458-4.507-.995-9.019-1.962-13.53-2.939a1.581,1.581,0,0,1-1.348-1.633c-.009-2.614,0-5.229-.007-7.843a.522.522,0,0,1,.285-.52,2.814,2.814,0,0,0,1.425-2.547c0-.586,0-1.173,0-1.76a2.775,2.775,0,0,0-1.363-2.478.623.623,0,0,1-.346-.643c.022-.384-.007-.771.009-1.156a1.564,1.564,0,0,1,1.9-1.505c4.365.939,8.726,1.9,13.092,2.832.368.079.428.246.427.577-.011,3.218-.007,6.436-.007,9.653" transform="translate(-7.44 -41.077)" fill="#c22430"/>
          <path id="Trazado_131392" data-name="Trazado 131392" d="M42.632,31.194a15.431,15.431,0,0,0,7.249,1.717,13.033,13.033,0,0,0,9.086-3.406c.1-.089.2-.17.342-.29a6.989,6.989,0,0,1,.189,1.561,78.955,78.955,0,0,1,.147,10.946,5.874,5.874,0,0,1-.6,2.16.668.668,0,0,1-.526.4q-3.827.815-7.65,1.646a13.855,13.855,0,0,1-1.8.068,19.229,19.229,0,0,1-6.035-.825c-.241-.122-.278-.367-.34-.588a11.517,11.517,0,0,1-.409-2.826c-.018-.72-.007-1.44,0-2.16a1.064,1.064,0,0,1,.117-.631.37.37,0,0,1,.22-.106,1.3,1.3,0,0,0,1.23-1.627,1.431,1.431,0,0,0-.7-1.259c-.244-.124-.546.047-.765-.172a.33.33,0,0,1-.062-.137,21.493,21.493,0,0,1,.066-4.149c.02-.138.035-.314.248-.318" transform="translate(-25.622 -17.717)" fill="#f0cfa4"/>
          <path id="Trazado_131393" data-name="Trazado 131393" d="M37.428,13c-.3-.147-.337-.454-.4-.717a9.6,9.6,0,0,1,.4-5.474.8.8,0,0,0,.07-.386A3.62,3.62,0,0,1,41.076,4.5a9.623,9.623,0,0,1,4.172,1.285,7.231,7.231,0,0,1-2.359,2.283c-.527.257-.71.662-.5,1.082.192.391.608.5,1.124.3.077-.03.155-.055.233-.083.42-.113.857-.092,1.281-.176a3.819,3.819,0,0,0,2.5-1.922c.6-.949.958-2.019,1.5-3,.115-.209.2-.495.547-.335a1.493,1.493,0,0,1,.269,1.219,7.977,7.977,0,0,1-.2,1.431c-.108.466-.117.868.363,1.116.382.2.716.045,1.071-.452.833-.163,1.146-.8,1.414-1.505A3.8,3.8,0,0,1,53.4,4.219a1.747,1.747,0,0,1,1.012-.373c.677-.066.933.183.882.862a7.057,7.057,0,0,1-.6,2.211c-.23.546-.161.918.209,1.143s.717.119,1.12-.337c.231-.262.477-.51.717-.765.648-.533,1.309-1.047,1.993-1.532.69-.266,1.01-.035.9.678a5.648,5.648,0,0,1-.856,2.073,19.167,19.167,0,0,1-6.123,6.269,11.787,11.787,0,0,1-7.346,1.512,11.778,11.778,0,0,1-5.978-1.972,6.412,6.412,0,0,1-.856-.7A.968.968,0,0,0,37.428,13" transform="translate(-22.317 -2.326)" fill="#f3dc45"/>
          <path id="Trazado_131394" data-name="Trazado 131394" d="M34.826,33.278a2.1,2.1,0,0,0-.189,1.007c-.041,1.119-.017,2.241-.018,3.361a.307.307,0,0,0,.1.27c.031.094-.026.156-.077.223a1.956,1.956,0,0,0-.015,2.611.36.36,0,0,1,.113.268c-.037.053-.107.107-.106.16.013,1.149-.067,2.3.049,3.448a11.552,11.552,0,0,0,.538,2.625c-1.568-.333-3.136-.668-4.705-.995a.577.577,0,0,1-.439-.358,5.773,5.773,0,0,1-.581-2.114c-.136-2.14-.132-4.283-.095-6.426,0-.189-.052-.39.251-.455A5.262,5.262,0,0,0,33.3,33.667c.17-.353.2-.954.5-1.01s.667.367,1,.58c.013.008.019.027.028.041" transform="translate(-17.816 -19.801)" fill="#f0b885"/>
          <path id="Trazado_131395" data-name="Trazado 131395" d="M57.833,85.81c0,3.169-.012,6.337.013,9.506,0,.483-.148.592-.59.564-.551-.036-1.106-.018-1.659,0-.235.006-.347-.067-.321-.313a2.852,2.852,0,0,0,0-.3c0-6.337.008-12.675-.014-19.012,0-.531.152-.658.642-.616a9.532,9.532,0,0,0,1.457,0c.373-.025.484.084.48.469-.018,2.263-.009,4.526-.009,6.79V85.81" transform="translate(-33.513 -45.861)" fill="#dc626d"/>
          <path id="Trazado_131396" data-name="Trazado 131396" d="M106.6,78.975c.283-.008.566-.034.847-.021a1.338,1.338,0,0,1,1.355,1.374c.019.6.015,1.2,0,1.8a1.358,1.358,0,0,1-1.363,1.427,2.214,2.214,0,0,1-.94-.048,1.479,1.479,0,0,1-.478-1.024,7.541,7.541,0,0,1,.09-2.845.9.9,0,0,1,.487-.664" transform="translate(-64.243 -47.878)" fill="#f0cfa4"/>
          <path id="Trazado_131397" data-name="Trazado 131397" d="M6.3,78.974c.267-.01.535-.035.8-.026a1.346,1.346,0,0,1,1.412,1.427c.009.6.013,1.207,0,1.81A1.289,1.289,0,0,1,7.329,83.51a.357.357,0,0,1-.1.029c-1.2.069-1.481-.19-1.49-1.4,0-.685-.015-1.37.006-2.054A1.182,1.182,0,0,1,6.3,78.974" transform="translate(-3.478 -47.875)" fill="#f0cfa4"/>
          <path id="Trazado_131398" data-name="Trazado 131398" d="M60.273,3.93c-.269-.038-.331.171-.417.35-.39.813-.771,1.631-1.174,2.437a6.31,6.31,0,0,1-1.146,1.628,3.592,3.592,0,0,1-3.094,1.015,11.815,11.815,0,0,0,3.12-3.2A10.586,10.586,0,0,1,59.3,4.166c.273-.215.563-.5.969-.236" transform="translate(-33.015 -2.318)" fill="#ebc22e"/>
          <path id="Trazado_131399" data-name="Trazado 131399" d="M5.136,79.017a2.345,2.345,0,0,0-.41,1.607c.028.566,0,1.135.007,1.7,0,.976.216,1.189,1.188,1.208.083,0,.166.012.249.019a2.613,2.613,0,0,1-1.141.023A1.324,1.324,0,0,1,3.841,82.24c-.021-.635-.023-1.273,0-1.908a1.293,1.293,0,0,1,1.294-1.315" transform="translate(-2.319 -47.918)" fill="#efb885"/>
          <path id="Trazado_131400" data-name="Trazado 131400" d="M105.6,79.013a2.538,2.538,0,0,0-.5,1.595,10.761,10.761,0,0,0,.078,2.049c.065.321.292.566.319.889a1.256,1.256,0,0,1-1.2-1.231c-.027-.684-.029-1.37,0-2.054a1.279,1.279,0,0,1,1.3-1.248" transform="translate(-63.238 -47.916)" fill="#f0b885"/>
          <path id="Trazado_131401" data-name="Trazado 131401" d="M90.592,47.633V44.344a1.567,1.567,0,0,1,1.082,1.373,1.794,1.794,0,0,1-1.082,1.916" transform="translate(-54.938 -26.892)" fill="#edb684"/>
          <path id="Trazado_131402" data-name="Trazado 131402" d="M23.843,44.285c0,1.091,0,2.171,0,3.252a1.618,1.618,0,0,1-1.089-1.5,1.739,1.739,0,0,1,1.09-1.755" transform="translate(-13.796 -26.856)" fill="#efb785"/>
          <path id="Trazado_131403" data-name="Trazado 131403" d="M75.4,4.81A21.774,21.774,0,0,0,74.26,7.192a1.059,1.059,0,0,1-1.178.65A5.856,5.856,0,0,1,75.4,4.81" transform="translate(-44.319 -2.917)" fill="#eac12e"/>
          <path id="Trazado_131404" data-name="Trazado 131404" d="M89.466,7.885a8.285,8.285,0,0,1-1.993,1.532,5.273,5.273,0,0,1,1.993-1.532" transform="translate(-53.046 -4.782)" fill="#e1bb2d"/>
          <path id="Trazado_131405" data-name="Trazado 131405" d="M84.576,80.789c-.011.426-.336.618-.765.71q-2.331.5-4.661,1.011-1.521.328-3.044.651c-.147.031-.294.067-.443.089a.75.75,0,0,1-.915-.575.732.732,0,0,1,.615-.884c.976-.233,1.959-.441,2.94-.654q2.551-.555,5.1-1.1c.725-.156,1.172.106,1.17.756" transform="translate(-45.317 -48.507)"/>
          <path id="Trazado_131406" data-name="Trazado 131406" d="M83.808,87.06a.7.7,0,0,1,.751.6A.69.69,0,0,1,84,88.53c-1.026.239-2.057.462-3.087.686Q78.458,89.75,76,90.277c-.1.021-.2.044-.3.057-.525.066-.869-.14-.965-.572a.764.764,0,0,1,.671-.9c.8-.188,1.6-.354,2.4-.528q2.772-.6,5.544-1.2c.147-.032.3-.049.447-.073" transform="translate(-45.316 -52.796)"/>
          <path id="Trazado_131407" data-name="Trazado 131407" d="M53.136,62.3a3.467,3.467,0,0,1-3.023-1.821.772.772,0,0,1,.213-1.135c.4-.23.8-.091,1.093.377a1.941,1.941,0,0,0,3.466,0c.3-.47.7-.609,1.091-.379a.758.758,0,0,1,.215,1.135A3.472,3.472,0,0,1,53.136,62.3" transform="translate(-30.298 -35.925)"/>
          <path id="Trazado_131408" data-name="Trazado 131408" d="M41.857,49.048a2.009,2.009,0,0,1-.022-3.1.927.927,0,0,1,1.225.551,2.15,2.15,0,0,1,.039,1.925.967.967,0,0,1-1.242.627" transform="translate(-24.933 -27.831)"/>
          <path id="Trazado_131409" data-name="Trazado 131409" d="M69.5,47.438a1.811,1.811,0,0,1,.414-1.256.815.815,0,0,1,1.335.01,2.189,2.189,0,0,1,.007,2.527.826.826,0,0,1-1.37-.014,1.852,1.852,0,0,1-.387-1.267" transform="translate(-42.147 -27.798)"/>
        </g>
      </g>
      <g id="Grupo_158008" data-name="Grupo 158008" transform="translate(0 1.416)">
        <path id="Trazado_131261" data-name="Trazado 131261" d="M15.515,119.662c-.456-.1-.561.113-.556.539.012,1.066-.007,1.085-1.11,1.078-.41,0-.538.125-.53.531.007.378.077.555.514.553,1.107,0,1.135.018,1.123,1.123-.005.5.24.509.61.513s.562-.058.562-.5c0-1.119.023-1.139,1.115-1.134.423,0,.523-.151.524-.543s-.1-.543-.522-.541c-1.114.006-1.141-.014-1.116-1.07.012-.49-.169-.633-.614-.547" transform="translate(-13.318 -103.017)" fill="#29c4bb"/>
        <path id="Trazado_131262" data-name="Trazado 131262" d="M213.648,154.464c.408.078.634-.057.566-.519-.056-.386.077-.6.5-.535s.571-.088.575-.538c0-.472-.189-.58-.591-.526-.384.052-.506-.115-.5-.5.012-.6-.358-.828-.937-.647-.275.086-.215.305-.2.479.048.473-.06.763-.618.668-.432-.073-.459.2-.457.529s.014.6.453.532c.472-.073.7.1.618.6-.075.477.231.5.584.456" transform="translate(-164.006 -141.995)" fill="#29c4bb"/>
        <path id="Trazado_131263" data-name="Trazado 131263" d="M210.729,69.3c.105-.455-.1-.61-.529-.539-.462.078-.65-.112-.569-.571s-.113-.55-.543-.554-.611.127-.534.559c.083.46-.109.65-.566.564-.473-.089-.515.159-.533.557-.021.468.161.59.568.519.443-.077.608.106.533.538-.072.414.062.581.522.565.406-.014.641-.072.554-.538s.115-.641.569-.565c.427.072.634-.081.528-.536" transform="translate(-160.562 -35.719)" fill="#010000"/>
        <path id="Trazado_131264" data-name="Trazado 131264" d="M55.051,186.618c.1-.424-.11-.58-.534-.5-.5.09-.616-.169-.544-.589.079-.467-.147-.539-.556-.536-.392,0-.6.091-.52.513.108.555-.169.691-.647.609s-.467.226-.469.561.007.6.45.514c.6-.118.748.168.667.7-.077.51.312.363.571.379.275.016.581.052.5-.391-.1-.547.093-.8.672-.69.483.093.424-.244.41-.568" transform="translate(-42.49 -184.99)" fill="#010000"/>
        <path id="Trazado_131265" data-name="Trazado 131265" d="M121.786,17.456c-.114.484.154.578.55.52.412-.061.574.109.511.515s.058.59.524.58c.429-.009.625-.12.55-.56s.132-.6.555-.535c.392.059.589-.035.591-.514s-.183-.622-.61-.554c-.452.072-.605-.134-.535-.555.079-.473-.175-.528-.573-.536-.426-.009-.564.151-.5.542.068.428-.09.624-.536.549s-.622.107-.525.549" transform="translate(-95.566 30.246)" fill="#29c4bb"/>
      </g>
    </g>
  </g>
</svg>
