<svg xmlns="http://www.w3.org/2000/svg" xmlns:xlink="http://www.w3.org/1999/xlink" width="99" height="99" viewBox="0 0 99 99">
  <defs>
    <clipPath id="clip-path">
      <rect id="Rectángulo_37883" data-name="Rectángulo 37883" width="57.745" height="46.927" transform="translate(0 0)" fill="none"/>
    </clipPath>
  </defs>
  <g id="Grupo_156594" data-name="Grupo 156594" transform="translate(-1170.77 -5097)">
    <circle id="Elipse_4760" data-name="Elipse 4760" cx="49.5" cy="49.5" r="49.5" transform="translate(1170.77 5097)" fill="#1169e3"/>
    <g id="Grupo_156593" data-name="Grupo 156593" transform="translate(833.421 454)">
      <path id="Trazado_127053" data-name="Trazado 127053" d="M15.507,123.96c-.454.1-.559-.113-.555-.537.012-1.063-.007-1.081-1.106-1.075-.409,0-.536-.124-.528-.529.007-.377.077-.553.512-.551,1.1,0,1.131-.018,1.119-1.119-.005-.5.239-.507.608-.511s.56.058.56.5c0,1.115.023,1.135,1.112,1.131.421,0,.521.15.522.541s-.1.541-.52.539c-1.11-.006-1.137.014-1.112,1.066.012.488-.169.631-.611.545" transform="translate(339.683 4578.363)" fill="#29c4bb"/>
      <path id="Trazado_127054" data-name="Trazado 127054" d="M213.642,151.161c.406-.078.632.057.565.517-.056.385.077.6.5.533s.57.088.573.537c0,.47-.189.578-.589.525-.383-.052-.5.115-.5.5.012.6-.357.826-.934.645-.274-.086-.214-.3-.2-.477.048-.472-.06-.76-.616-.666-.431.073-.457-.2-.456-.527s.014-.6.451-.53c.471.073.694-.1.616-.6-.075-.475.23-.5.582-.454" transform="translate(205.528 4558.239)" fill="#29c4bb"/>
      <path id="Trazado_127055" data-name="Trazado 127055" d="M210.718,69.268c.1.453-.1.608-.527.537-.46-.078-.648.111-.567.569s-.113.548-.542.553-.609-.127-.532-.557c.082-.459-.109-.648-.565-.562-.472.089-.513-.158-.531-.555-.021-.466.16-.588.566-.517.441.077.606-.106.531-.537-.072-.412.061-.579.521-.563.4.014.639.072.552.536s.115.639.567.563c.425-.072.632.081.526.534" transform="translate(208.976 4610.651)" fill="#010000"/>
      <path id="Trazado_127056" data-name="Trazado 127056" d="M55.04,186.64c.1.423-.11.578-.532.5-.5-.09-.614.169-.543.587.079.465-.146.537-.555.535-.39,0-.6-.091-.518-.511.108-.553-.169-.688-.645-.607s-.466-.225-.467-.559.007-.6.448-.512c.593.117.745-.168.665-.7-.077-.508.311-.362.569-.377.274-.016.579-.052.5.389-.1.545.092.8.67.687.482-.092.423.243.409.566" transform="translate(313.711 4536.959)" fill="#010000"/>
      <path id="Trazado_127057" data-name="Trazado 127057" d="M121.786,17.426c-.114-.483.153-.577.548-.518.41.061.572-.109.509-.513s.058-.588.522-.578c.427.009.623.119.548.558s.131.6.553.533c.391-.059.587.035.589.513s-.182.62-.608.553c-.45-.072-.6.133-.533.553.078.472-.175.526-.572.534-.424.009-.562-.151-.5-.54.068-.427-.09-.622-.535-.547s-.62-.106-.523-.547" transform="translate(266.46 4643.184)" fill="#29c4bb"/>
    </g>
    <g id="Grupo_158042" data-name="Grupo 158042" transform="translate(1191.769 5123)">
      <g id="Grupo_158041" data-name="Grupo 158041" transform="translate(0 0)" clip-path="url(#clip-path)">
        <path id="Trazado_131550" data-name="Trazado 131550" d="M57.745,42.412a2.691,2.691,0,0,0-.291.884,5.3,5.3,0,0,1-4.947,3.616c-7.14.022-14.28.011-21.419.008a2.9,2.9,0,0,1-1.956-.742c-.195-.171-.309-.184-.509-.008a3.223,3.223,0,0,1-2.235.757q-10.4-.011-20.8-.005A5.356,5.356,0,0,1,0,41.315Q0,24.63,0,7.945A2.553,2.553,0,0,1,2.845,5.092c.433,0,.556-.1.551-.544A2.55,2.55,0,0,1,6.242,1.7c.357,0,.714.005,1.071,0,.581-.011,1.237.231,1.293-.8.031-.562.628-.874,1.224-.88q2.565-.026,5.129,0a1.381,1.381,0,0,1,1.392,1.4c.017.394.016.788.023,1.182a.961.961,0,0,1,.151.645q0,3.383,0,6.765a1.841,1.841,0,0,1-.273,1.02,1.508,1.508,0,0,1-2.115.5,8.3,8.3,0,0,1-1.1-.877c-.558-.49-.692-.492-1.24-.014-.3.259-.6.516-.913.753a1.483,1.483,0,0,1-1.634.239A1.586,1.586,0,0,1,8.3,10.145c-.027-1.089-.007-2.18-.009-3.27,0-.9-.009-1.8,0-2.706.006-.417-.131-.631-.583-.611-.487.021-.977-.008-1.465.009-.72.025-.959.274-.989,1.009-.007.169,0,.338,0,.507q0,17.534,0,35.068c0,1.405.116,1.524,1.5,1.524H26.478c1.182,0,1.315-.123,1.416-1.3.018-.206.009-.413.015-.62a.512.512,0,0,0-.46-.587c-.623-.15-.876-.478-.868-1.006a.933.933,0,0,1,.846-.967.544.544,0,0,0,.484-.628q-.008-1.494,0-2.988a.544.544,0,0,0-.491-.622.931.931,0,0,1-.839-.973c0-.527.247-.849.875-1a.517.517,0,0,0,.454-.592q0-1.522,0-3.044a.519.519,0,0,0-.46-.587c-.624-.153-.876-.48-.868-1.006s.253-.814.9-.98a.493.493,0,0,0,.426-.554q0-1.55,0-3.1a.5.5,0,0,0-.431-.554c-.652-.173-.891-.465-.9-.984-.005-.537.232-.822.927-1.016a.472.472,0,0,0,.4-.519q.009-1.579,0-3.157c0-.317-.158-.452-.459-.533-.624-.165-.873-.484-.864-1.011a.932.932,0,0,1,.849-.965.545.545,0,0,0,.48-.631c-.005-.958-.007-1.917,0-2.875a.561.561,0,0,0-.484-.636.914.914,0,0,1-.737-.943.915.915,0,0,1,.757-.982.554.554,0,0,0,.465-.647,10.926,10.926,0,0,0-.038-1.182c-.1-.689-.343-.916-1.04-.921-1.935-.015-3.871,0-5.807-.007a13.589,13.589,0,0,1-1.578-.026c-.606-.072-.88-.387-.858-.936.147-.7.37-.9,1.058-.9,2.479,0,4.958,0,7.437,0a2.449,2.449,0,0,1,1.485.432.42.42,0,0,0,.589.009A2.5,2.5,0,0,1,30.7,1.694q10.479.006,20.958,0a2.514,2.514,0,0,1,2.69,2.72c-.009.517.078.708.649.676a2.611,2.611,0,0,1,2.748,2.016V35.645a.867.867,0,0,1-.955.691,1.074,1.074,0,0,1-.907-1.121c-.019-.262-.01-.526-.01-.789q0-12.934,0-25.868a6.171,6.171,0,0,0-.031-.9.732.732,0,0,0-.6-.664c-.472-.11-.665.031-.7.516-.015.225-.006.451-.006.676q0,16.2.009,32.405a2.968,2.968,0,0,1-1.5,2.824,3.476,3.476,0,0,1-1.7.306q-10.262,0-20.524,0a1.434,1.434,0,0,0-.169,0c-.227.027-.534-.1-.637.2a.734.734,0,0,0,.28.752,1.323,1.323,0,0,0,.812.354,7.956,7.956,0,0,0,.9.024c6.5,0,13.006-.008,19.508,0a3.879,3.879,0,0,0,3.395-1.1,3.529,3.529,0,0,0,.972-2.387c.023-.711-.017-1.425.015-2.137.031-.66.3-.947.979-1.1a.864.864,0,0,1,.859.694Z" transform="translate(0 0)"/>
        <path id="Trazado_131551" data-name="Trazado 131551" d="M26.479,6.635a.97.97,0,0,0,1.112.8C30,7.417,32.4,7.424,34.808,7.426c.808,0,1.092.274,1.1,1.069.008.526-.008,1.053.005,1.579.007.26-.02.4-.35.409a.81.81,0,0,0-.885.816c-.009.493.3.817.909.851.3.016.327.134.326.376-.008,1.222-.013,2.444,0,3.665,0,.3-.086.374-.381.379-.632.011-.977.338-.97.848s.343.812.993.823c.327.006.357.14.355.4-.01,1.24-.015,2.481,0,3.721,0,.325-.1.4-.412.406a.829.829,0,0,0-.939.821.821.821,0,0,0,.91.85c.341,0,.45.076.443.434q-.035,1.832,0,3.665c.007.357-.1.436-.442.435a.837.837,0,1,0-.027,1.668c.363,0,.478.088.47.464-.025,1.2-.018,2.406,0,3.609,0,.311-.027.47-.413.463a.819.819,0,0,0-.937.82c-.007.512.336.838.969.849.294.005.385.079.381.379q-.023,1.888,0,3.778c0,.309-.1.367-.386.373-.631.014-.974.34-.964.854.01.493.347.814.941.82.317,0,.428.085.409.408-.026.45,0,.9-.009,1.353-.013.8-.291,1.071-1.1,1.071q-6.654,0-13.308,0-3.694,0-7.387,0c-.885,0-1.155-.262-1.155-1.125q0-18.1,0-36.2c0-.869.269-1.132,1.148-1.135.583,0,1.167.025,1.748-.009.388-.023.5.079.5.484-.023,2.03,0,4.06-.017,6.09a1.488,1.488,0,0,0,.825,1.531,1.437,1.437,0,0,0,1.7-.365c.358-.332.758-.621,1.1-.971.269-.277.444-.215.688.018.379.364.791.694,1.185,1.042a1.364,1.364,0,0,0,1.561.287,1.405,1.405,0,0,0,.85-1.4q0-3.749.018-7.5h2.219" transform="translate(-7.887 -4.037)" fill="#f1f1f1"/>
        <path id="Trazado_131552" data-name="Trazado 131552" d="M96.125,47.1c-.169.007-.337.02-.506.02H77.068c-.925,0-1.177-.247-1.184-1.155,0-.263,0-.526,0-.789,0-.457-.15-.957.647-.95.392,0,.608-.414.573-.841a.746.746,0,0,0-.757-.76c-.415,0-.48-.154-.473-.524.023-1.184.016-2.368,0-3.552,0-.3.015-.475.4-.471a.774.774,0,0,0,.825-.814.8.8,0,0,0-.847-.852c-.276-.016-.39-.064-.386-.374q.027-1.888,0-3.778c0-.3.089-.367.379-.382a.834.834,0,1,0-.023-1.667c-.322-.013-.356-.139-.354-.406.011-1.24.016-2.481,0-3.721-.005-.324.1-.4.409-.409a.833.833,0,1,0-.025-1.666c-.348-.009-.386-.144-.382-.436q.021-1.833,0-3.665c0-.287.027-.43.379-.439a.833.833,0,1,0-.026-1.665c-.324-.013-.354-.143-.352-.407.011-1.2.016-2.406,0-3.609-.005-.325.1-.4.41-.4a.832.832,0,0,0,.941-.822c.009-.512-.335-.837-.966-.853-.282-.007-.4-.066-.383-.373.025-.6-.009-1.2.016-1.8a.816.816,0,0,1,.894-.872q9.669,0,19.339.015a.735.735,0,0,1,.285.587c.015.206.014.413.014.619q0,18,0,36.009c0,.419.107.879-.294,1.207" transform="translate(-46.164 -5.273)" fill="#fefefe"/>
        <path id="Trazado_131553" data-name="Trazado 131553" d="M4.322,35.218q0-8.373,0-16.746c0-1.02.433-1.379,1.45-1.238.205.028.25.108.243.283-.007.15,0,.3,0,.451q0,16.548,0,33.1c0,1.972.969,2.945,2.933,2.946H29.47a2.541,2.541,0,0,0,.729-.033c.421-.131.481.029.443.4a1.405,1.405,0,0,1-1.306,1.318c-.168.015-.338.007-.507.007H8.362a3.7,3.7,0,0,1-4.04-4.017q0-8.232,0-16.464" transform="translate(-2.629 -10.468)" fill="#cbac76"/>
        <path id="Trazado_131554" data-name="Trazado 131554" d="M127.593,47.1a2.639,2.639,0,0,0,.12-.829q-.006-18.383,0-36.765a2.582,2.582,0,0,0-.121-.829c.6-.006,1.2-.027,1.8-.015a.843.843,0,0,1,.907.92c0,.113,0,.226,0,.338q0,17.97,0,35.94c0,1.033-.225,1.262-1.246,1.26-.487,0-.975-.013-1.463-.02" transform="translate(-77.632 -5.267)" fill="#e7e7e7"/>
        <path id="Trazado_131555" data-name="Trazado 131555" d="M137.215,46.715q0,1.117,0,2.234c-.69.139-.889.369-.895,1.058s.007,1.387,0,2.08a3.668,3.668,0,0,1-3.608,3.637c-.262.005-.524-.007-.786-.012.02-.3.31-.391.469-.581a4.107,4.107,0,0,0,.857-1.345,2.875,2.875,0,0,0,1.391-2.694q-.03-16.54,0-33.079c0-.243-.285-.679.276-.744.8-.092,1.29.156,1.385.716a3.743,3.743,0,0,1,.016.619q0,13.468,0,26.936c0,.8.173,1.029.9,1.175" transform="translate(-80.267 -10.496)" fill="#b4874d"/>
        <path id="Trazado_131556" data-name="Trazado 131556" d="M99.175,110.555c.222.151.058.3-.018.429a4.667,4.667,0,0,1-1.308,1.5q-5.722.008-11.444.015-4.454,0-8.908,0a1.419,1.419,0,0,1-1.577-1.452c0-.2-.018-.368.3-.3a4.585,4.585,0,0,0,.951.064q10.233,0,20.465.007a3.964,3.964,0,0,0,1.541-.259" transform="translate(-46.192 -67.266)" fill="#cbac75"/>
        <path id="Trazado_131557" data-name="Trazado 131557" d="M30.422,12.209c-.477-.415-.853-.752-1.239-1.077a1.43,1.43,0,0,0-2.033,0c-.384.327-.761.661-1.133.986-.146-.057-.1-.165-.1-.247,0-2.366.006-4.732-.011-7.1,0-.365.09-.474.462-.467,1.22.024,2.441.009,3.661.009.2,0,.4-.047.4.29-.011,2.493-.006,4.987-.006,7.6" transform="translate(-15.76 -2.622)" fill="#f6a974"/>
        <path id="Trazado_131558" data-name="Trazado 131558" d="M25.29,36.6a2.616,2.616,0,0,1,1.791.714c.432.419.877.827,1.271,1.279.3.341.473.37.814.018,1.505-1.55,3.041-3.071,4.577-4.59A2.536,2.536,0,0,1,38.056,35.5a2.308,2.308,0,0,1-.658,2.017c-2.3,2.324-4.6,4.648-6.939,6.932a2.438,2.438,0,0,1-3.418-.026q-1.807-1.74-3.547-3.548a2.369,2.369,0,0,1-.465-2.764A2.484,2.484,0,0,1,25.29,36.6" transform="translate(-13.86 -20.237)"/>
        <path id="Trazado_131559" data-name="Trazado 131559" d="M32.341,70.868q2.677,0,5.353,0c.673,0,1.046.294,1.061.819.016.551-.369.87-1.067.871q-5.409,0-10.82,0c-.672,0-1.045-.295-1.061-.82-.016-.551.368-.869,1.066-.87q2.733,0,5.466,0" transform="translate(-15.702 -43.118)"/>
        <path id="Trazado_131560" data-name="Trazado 131560" d="M35.753,81.2c-1.052,0-2.1,0-3.155,0-.654,0-1.035-.321-1.035-.847s.383-.841,1.039-.842q3.183-.005,6.366,0c.654,0,1.037.321,1.035.846s-.385.84-1.039.843c-1.071,0-2.141,0-3.211,0" transform="translate(-19.204 -48.375)"/>
        <path id="Trazado_131561" data-name="Trazado 131561" d="M93.291,33.383a2.472,2.472,0,0,1,1.778.727c.394.376.789.753,1.154,1.157.29.322.518.357.821.015.348-.393.728-.759,1.113-1.117a2.539,2.539,0,0,1,3.512.008,2.506,2.506,0,0,1,.126,3.505c-.384.436-.8.843-1.228,1.242-.27.253-.261.448,0,.7.385.357.756.732,1.116,1.115a2.522,2.522,0,0,1,.016,3.593,2.552,2.552,0,0,1-3.637-.04c-.338-.326-.684-.647-.991-1s-.54-.386-.861-.016c-.344.4-.729.758-1.112,1.119a2.537,2.537,0,1,1-3.575-3.6c.377-.392.757-.784,1.156-1.153.291-.269.277-.478-.006-.743-.438-.41-.873-.829-1.268-1.28a2.4,2.4,0,0,1-.434-2.722,2.444,2.444,0,0,1,2.312-1.5" transform="translate(-55.207 -20.311)"/>
        <path id="Trazado_131562" data-name="Trazado 131562" d="M95.592,72.561q-2.677,0-5.354,0c-.7,0-1.08-.322-1.063-.874.016-.524.389-.816,1.063-.816q5.41,0,10.82,0c.674,0,1.047.293,1.063.817.017.551-.368.872-1.064.873q-2.734,0-5.467,0" transform="translate(-54.257 -43.119)"/>
        <path id="Trazado_131563" data-name="Trazado 131563" d="M99.107,81.2c-1.052,0-2.1,0-3.155,0-.653,0-1.029-.328-1.019-.861.009-.51.377-.826,1-.827q3.211-.006,6.422,0c.653,0,1.03.328,1.019.861-.01.509-.379.824-1,.828-1.089.006-2.178,0-3.268,0" transform="translate(-57.761 -48.375)"/>
        <path id="Trazado_131564" data-name="Trazado 131564" d="M31.426,46.061a.947.947,0,0,1-.693-.315c-1.085-1.091-2.18-2.174-3.261-3.269a.847.847,0,1,1,1.184-1.193c.513.5,1.01,1.007,1.516,1.51a1.48,1.48,0,0,0,2.465.013q2.391-2.388,4.776-4.781a.976.976,0,0,1,1.046-.366.836.836,0,0,1,.258,1.45c-.865.887-1.749,1.755-2.625,2.631l-3.9,3.9a1.034,1.034,0,0,1-.768.415" transform="translate(-16.51 -22.887)" fill="#8fd298"/>
        <path id="Trazado_131565" data-name="Trazado 131565" d="M103.406,38.569a1,1,0,0,1-.327.729c-.385.385-.777.763-1.152,1.157a1.951,1.951,0,0,0-.016,2.865c.347.369.717.717,1.072,1.078.5.514.555.981.155,1.368-.379.368-.875.3-1.376-.2-.361-.356-.71-.724-1.078-1.072a1.939,1.939,0,0,0-2.781-.014c-.426.4-.823.823-1.24,1.228-.466.452-.97.489-1.331.111s-.322-.832.12-1.29c.378-.392.772-.767,1.152-1.157a1.963,1.963,0,0,0,.015-2.946c-.379-.39-.774-.766-1.153-1.157-.464-.478-.5-.955-.111-1.331a.87.87,0,0,1,1.291.12c.4.391.79.8,1.2,1.191a1.96,1.96,0,0,0,2.906-.023c.4-.392.8-.8,1.2-1.19a.856.856,0,0,1,1.457.528" transform="translate(-57.855 -22.943)" fill="#f39494"/>
      </g>
    </g>
  </g>
</svg>
