<svg xmlns="http://www.w3.org/2000/svg" xmlns:xlink="http://www.w3.org/1999/xlink" width="70" height="85" viewBox="0 0 70 85">
  <defs>
    <clipPath id="clip-path">
      <rect id="Rect치ngulo_37880" data-name="Rect치ngulo 37880" width="44.928" height="57.519" fill="none"/>
    </clipPath>
  </defs>
  <g id="Grupo_158035" data-name="Grupo 158035" transform="translate(-813 -5280)">
    <rect id="Rect치ngulo_37872" data-name="Rect치ngulo 37872" width="70" height="85" rx="12" transform="translate(813 5280)" fill="#1169e3"/>
    <g id="Grupo_158014" data-name="Grupo 158014" transform="translate(822.197 5296.978)">
      <g id="Grupo_158008" data-name="Grupo 158008" transform="translate(0 1.416)">
        <path id="Trazado_131261" data-name="Trazado 131261" d="M15.515,119.662c-.456-.1-.561.113-.556.539.012,1.066-.007,1.085-1.11,1.078-.41,0-.538.125-.53.531.007.378.077.555.514.553,1.107,0,1.135.018,1.123,1.123-.005.5.24.509.61.513s.562-.058.562-.5c0-1.119.023-1.139,1.115-1.134.423,0,.523-.151.524-.543s-.1-.543-.522-.541c-1.114.006-1.141-.014-1.116-1.07.012-.49-.169-.633-.614-.547" transform="translate(-13.318 -103.017)" fill="#29c4bb"/>
        <path id="Trazado_131262" data-name="Trazado 131262" d="M213.648,154.464c.408.078.634-.057.566-.519-.056-.386.077-.6.5-.535s.571-.088.575-.538c0-.472-.189-.58-.591-.526-.384.052-.506-.115-.5-.5.012-.6-.358-.828-.937-.647-.275.086-.215.305-.2.479.048.473-.06.763-.618.668-.432-.073-.459.2-.457.529s.014.6.453.532c.472-.073.7.1.618.6-.075.477.231.5.584.456" transform="translate(-164.006 -141.995)" fill="#29c4bb"/>
        <path id="Trazado_131263" data-name="Trazado 131263" d="M210.729,69.3c.105-.455-.1-.61-.529-.539-.462.078-.65-.112-.569-.571s-.113-.55-.543-.554-.611.127-.534.559c.083.46-.109.65-.566.564-.473-.089-.515.159-.533.557-.021.468.161.59.568.519.443-.077.608.106.533.538-.072.414.062.581.522.565.406-.014.641-.072.554-.538s.115-.641.569-.565c.427.072.634-.081.528-.536" transform="translate(-160.562 -35.719)" fill="#010000"/>
        <path id="Trazado_131264" data-name="Trazado 131264" d="M55.051,186.618c.1-.424-.11-.58-.534-.5-.5.09-.616-.169-.544-.589.079-.467-.147-.539-.556-.536-.392,0-.6.091-.52.513.108.555-.169.691-.647.609s-.467.226-.469.561.007.6.45.514c.6-.118.748.168.667.7-.077.51.312.363.571.379.275.016.581.052.5-.391-.1-.547.093-.8.672-.69.483.093.424-.244.41-.568" transform="translate(-42.49 -184.99)" fill="#010000"/>
        <path id="Trazado_131265" data-name="Trazado 131265" d="M121.786,17.456c-.114.484.154.578.55.52.412-.061.574.109.511.515s.058.59.524.58c.429-.009.625-.12.55-.56s.132-.6.555-.535c.392.059.589-.035.591-.514s-.183-.622-.61-.554c-.452.072-.605-.134-.535-.555.079-.473-.175-.528-.573-.536-.426-.009-.564.151-.5.542.068.428-.09.624-.536.549s-.622.107-.525.549" transform="translate(-95.566 30.246)" fill="#29c4bb"/>
      </g>
      <g id="Grupo_158038" data-name="Grupo 158038" transform="translate(3.803 -2.977)">
        <g id="Grupo_158038-2" data-name="Grupo 158038" clip-path="url(#clip-path)">
          <path id="Trazado_131486" data-name="Trazado 131486" d="M34.255,29.668a.961.961,0,0,1,1.289-.435c1.728.6,3.471,1.148,5.193,1.759a6.133,6.133,0,0,1,4.17,5.807q.039,7.242,0,14.486a4.41,4.41,0,0,1-4.428,4.427c-2.976.027-5.952.013-8.928,0a.932.932,0,0,0-.924.43,3.687,3.687,0,0,1-2.217,1.373H24.481a3.034,3.034,0,0,1-1.778-.846.3.3,0,0,0-.488,0,2.984,2.984,0,0,1-1.89.846H16.393a4.1,4.1,0,0,1-2.345-1.68c-.128-.21-.34-.112-.512-.113-2.9-.007-5.8,0-8.7-.005A4.484,4.484,0,0,1,0,50.9q0-6.85,0-13.7a6.247,6.247,0,0,1,4.543-6.335q4.616-1.55,9.234-3.092a1.961,1.961,0,0,0,1.543-2.111,3.145,3.145,0,0,0-.918-2.588A10.127,10.127,0,0,1,11.826,17.4c-.05-.345-.162-.428-.485-.413a4.67,4.67,0,0,1-1.668-.147,3.513,3.513,0,0,1-2.458-3.284c-.04-2.4-.014-4.791-.014-7.187a.864.864,0,0,1,1.553-.6c.946.951,1.895,1.9,2.906,2.914.1-.785,0-1.489.106-2.184a4.421,4.421,0,0,1,3.463-3.675.81.81,0,0,0,.629-.452A4.306,4.306,0,0,1,19.786.014C21.545-.008,23.3,0,25.064.012a4.34,4.34,0,0,1,4.018,2.4.673.673,0,0,0,.486.4,4.425,4.425,0,0,1,3.647,4.467c.007.44,0,.88,0,1.452.991-.993,1.886-1.886,2.777-2.783.335-.338.658-.695,1.207-.447.505.228.521.672.52,1.137-.005,2.171,0,4.342,0,6.513a3.547,3.547,0,0,1-3.842,3.84c-.5,0-.714.05-.789.654a10.269,10.269,0,0,1-3.146,6.228.914.914,0,0,0-.333.775c.025.392,0,.786.008,1.179a1.879,1.879,0,0,0,1.407,1.927c.447.16.973.188,1.22.7.144,1.143-.3,1.481-1.406,1.163a3.937,3.937,0,0,1-2.762-2.219,3.176,3.176,0,0,1-.268-1.2c.009-.4-.174-.424-.493-.272a10.485,10.485,0,0,1-3.088.989,10.816,10.816,0,0,1-6.552-.985c-.527-.269-.53-.262-.564.313a3.583,3.583,0,0,1-2.561,3.215Q10,30.974,5.443,32.488a6.961,6.961,0,0,0-1.4.58,4.266,4.266,0,0,0-2.2,3.808c-.039,4.771-.022,9.542-.008,14.313a2.6,2.6,0,0,0,1.94,2.583,4,4,0,0,0,1,.1q3.846,0,7.693,0c.825,0,.828-.005.83-.857q0-1.01,0-2.021c0-.82,0-.823-.759-1.077q-1.57-.527-3.142-1.048a1.964,1.964,0,0,1-1.474-1.963c-.038-2.077-.02-4.155-.008-6.232a1.269,1.269,0,0,1,.221-.742.94.94,0,0,1,1.033-.4.866.866,0,0,1,.72.763,4.428,4.428,0,0,1,.034.784c0,1.7.015,3.406-.009,5.109a.847.847,0,0,0,.688.978c.809.23,1.6.512,2.4.794a.586.586,0,0,0,.835-.3,3.549,3.549,0,0,1,2.552-1.84c.4-.082.508-.287.512-.659A13.588,13.588,0,0,1,17,42.762,2.774,2.774,0,0,1,19.778,40.4q2.7-.018,5.39,0a2.767,2.767,0,0,1,2.747,2.337,11.868,11.868,0,0,1,.093,2.352c0,.438.107.669.587.767a3.434,3.434,0,0,1,2.459,1.787.618.618,0,0,0,.878.317c.812-.285,1.628-.563,2.451-.814a.771.771,0,0,0,.609-.865c-.015-1.74-.007-3.481-.006-5.222a4.843,4.843,0,0,1,.022-.673.9.9,0,0,1,.82-.857.971.971,0,0,1,1.069.636,1.985,1.985,0,0,1,.1.774c0,1.89.008,3.781,0,5.671a2.091,2.091,0,0,1-1.682,2.328c-1.042.366-2.093.7-3.142,1.046a.7.7,0,0,0-.57.768c.019.861.012,1.722,0,2.583,0,.378.149.543.532.541,2.808-.006,5.616.04,8.422-.023a2.571,2.571,0,0,0,2.505-2.659c.027-1.422.007-2.845.007-4.267q0-4.829,0-9.657a4.474,4.474,0,0,0-3.3-4.665c-1.5-.526-3.018-1.009-4.525-1.516a3.182,3.182,0,0,1-.676-.271.8.8,0,0,1-.317-1.145" transform="translate(0 0)"/>
          <path id="Trazado_131487" data-name="Trazado 131487" d="M39.607,72.437c-.032.769.08.942.809,1.188,1.592.537,3.191,1.055,4.781,1.6a4.573,4.573,0,0,1,3.387,4.72q0,6.906,0,13.812a2.794,2.794,0,0,1-3.03,3.047c-2.752,0-5.5-.011-8.254.013-.459,0-.555-.14-.542-.564.029-.972.034-1.947,0-2.919a.572.572,0,0,1,.492-.662c1.193-.375,2.379-.772,3.564-1.173a1.776,1.776,0,0,0,1.355-1.839c.012-2.077,0-4.155,0-6.232a.886.886,0,0,0-.641-.994c-.593-.16-1.04.252-1.042.96-.006,1.965-.013,3.931.007,5.9,0,.394-.093.593-.495.712-1.02.3-2.028.648-3.031,1.005-.3.108-.408.042-.543-.239a3.414,3.414,0,0,0-2.931-2.046c-.283-.025-.337-.14-.333-.384.009-.711.007-1.422,0-2.133a2.656,2.656,0,0,0-2.895-2.9q-2.5,0-5,0a2.629,2.629,0,0,0-2.81,2.754q-.025,1.094,0,2.19c.008.315-.056.445-.417.48a3.3,3.3,0,0,0-2.777,1.913c-.209.429-.409.452-.8.309-.965-.351-1.938-.681-2.92-.981a.508.508,0,0,1-.417-.594q.02-3.032,0-6.064a.8.8,0,0,0-.788-.9.838.838,0,0,0-.89.873c-.01.13,0,.262,0,.393v5c0,2.274.093,2.4,2.235,3.1.922.3,1.837.631,2.762.924.291.092.422.213.415.544-.023,1.048-.027,2.1,0,3.144.009.373-.134.422-.455.42-2.845-.011-5.69-.007-8.535-.007a2.168,2.168,0,0,1-.826-.129c-.35-.2-.265-.552-.266-.857-.008-2.414,0-4.828,0-7.241q0-4.406,0-8.813a2.812,2.812,0,0,1,2.061-2.873c2.962-1,5.921-2,8.9-2.958a6.134,6.134,0,0,0,3.539-2.5,1.108,1.108,0,0,1,1.318-.5,12.286,12.286,0,0,0,8.437-.723.534.534,0,0,1,.534-.036,4.077,4.077,0,0,0,2.685,2.071c1,.278,1.431-.025,1.346-1.033.055.762.684.817,1.218.987.264.084.53.16.8.239" transform="translate(-5.352 -42.769)" fill="#94d5a3"/>
          <path id="Trazado_131488" data-name="Trazado 131488" d="M38.867,7.229a1.819,1.819,0,0,1,.92-.186.9.9,0,0,0,.929-.653,2.759,2.759,0,0,1,2.978-2.048q2.443,0,4.886,0a2.716,2.716,0,0,1,2.81,1.964.979.979,0,0,0,.986.743,2.665,2.665,0,0,1,2.74,2.632c.043,3.331.191,6.67-.056,9.992A8.942,8.942,0,0,1,45.75,27.85a6.8,6.8,0,0,1-2.718-.573A8.326,8.326,0,0,1,39.4,22.944a9.783,9.783,0,0,1-.689-3.785c.023-3.668.007-7.337.01-11.006a1.5,1.5,0,0,1,.149-.925" transform="translate(-23.611 -2.648)" fill="#b2e49e"/>
          <path id="Trazado_131489" data-name="Trazado 131489" d="M30.839,67.2a18.809,18.809,0,0,1-3.553,1.152,11.908,11.908,0,0,1-5.253-.194c-.793-.208-.993-.142-1.447.534a5.658,5.658,0,0,1-3.044,2.249c-3.12,1.029-6.233,2.079-9.35,3.118a2.631,2.631,0,0,0-1.978,2.711q0,8.112,0,16.224a1.172,1.172,0,0,0,.109.708,2.68,2.68,0,0,1-2-2.6c-.013-4.864-.023-9.728.006-14.592A4.459,4.459,0,0,1,7.5,72.319c3.111-1.053,6.233-2.078,9.349-3.117a3.557,3.557,0,0,0,2.768-3.732c0-.071.012-.143.017-.205.143-.077.232.021.323.07a10.428,10.428,0,0,0,10.148.11c.374-.188.493-.154.46.276a4.02,4.02,0,0,0,.276,1.477" transform="translate(-2.627 -39.794)" fill="#78c1a3"/>
          <path id="Trazado_131490" data-name="Trazado 131490" d="M36.18,11.745c0,4.184-.032,8.369.031,12.552a8.665,8.665,0,0,0,2.453,5.953,11.494,11.494,0,0,0,1.681,1.544A8.526,8.526,0,0,1,36.069,28.5a9.24,9.24,0,0,1-1.748-5.409c-.028-2.881-.016-5.763-.005-8.645a2.681,2.681,0,0,1,1.865-2.7" transform="translate(-20.925 -7.164)" fill="#94d5a3"/>
          <path id="Trazado_131491" data-name="Trazado 131491" d="M52.671,108.3c1.493-.005,2.986-.014,4.48-.013a.834.834,0,0,1,.922.778c.1,1.154.013,2.31.046,3.465.009.3-.168.4-.415.407a8.536,8.536,0,0,0-3.046.652c-.61.252-1.972-.627-2.074-1.359a17.914,17.914,0,0,1-.027-3.74.38.38,0,0,1,.113-.19" transform="translate(-32.008 -66.055)" fill="#5d5360"/>
          <path id="Trazado_131492" data-name="Trazado 131492" d="M50,108.3c0,1.122.015,2.244-.007,3.365a1.433,1.433,0,0,0,.9,1.464,1.54,1.54,0,0,0,1.573.12,4.7,4.7,0,0,1,2.444-.453c.366.012.489-.11.483-.479-.015-1.084,0-2.168.007-3.252.126.143.09.317.09.482,0,1.552-.011,3.1,0,4.657,0,.344-.066.53-.46.494a3.731,3.731,0,0,0-3.073,1.06c-.164.16-.227.089-.351-.03a3.674,3.674,0,0,0-2.973-1.029c-.418.037-.548-.1-.541-.529.025-1.477.009-2.955.01-4.432,0-1.166.289-1.455,1.447-1.451.15,0,.3.008.449.012" transform="translate(-29.338 -66.056)" fill="#4b3f4e"/>
          <path id="Trazado_131493" data-name="Trazado 131493" d="M45.313,126.591a8.662,8.662,0,0,1-.005,2.176,1.785,1.785,0,0,1-1.727,1.55q-1.429.042-2.861,0a1.812,1.812,0,0,1-1.784-1.808c-.039-1.532-.034-3.067,0-4.6a1.831,1.831,0,0,1,1.352-1.737c.384-.113.592-.076.567.413-.028.557.021,1.119.036,1.679a15.911,15.911,0,0,1,.076,2.232,1.61,1.61,0,0,0,1.736,1.753c.634.011,1.268,0,1.9,0,.383.005.521-.165.531-.54s-.127-.789.176-1.123" transform="translate(-23.734 -74.492)" fill="#94d5a3"/>
          <path id="Trazado_131494" data-name="Trazado 131494" d="M64.162,124.837l1.568-.022c.782-.011,1.073-.3,1.086-1.091.007-.411.022-.824,0-1.233-.024-.362.143-.4.436-.349a1.8,1.8,0,0,1,1.419,1.535c.094,1.488.013,2.978.044,4.466a.37.37,0,0,1-.4.424,19.063,19.063,0,0,1-2.792-.023,1.554,1.554,0,0,1-1.185-.856,3.548,3.548,0,0,1-.169-2.852" transform="translate(-39.006 -74.493)" fill="#b2e49e"/>
          <path id="Trazado_131495" data-name="Trazado 131495" d="M61.6,127.27c0,.541,0,1.081,0,1.622a1.777,1.777,0,0,0,1.966,1.961c.652,0,1.306-.023,1.957.008.43.021.584-.1.576-.557-.025-1.4,0-2.8.006-4.193a.7.7,0,0,1,.074.434c0,1.383.012,2.766,0,4.149a1.9,1.9,0,0,1-2.11,2.067c-.785,0-1.57.006-2.355,0a1.838,1.838,0,0,1-1.957-1.918c-.016-.635-.005-1.271.013-1.906A1.789,1.789,0,0,1,61.6,127.27" transform="translate(-36.447 -76.926)" fill="#94d5a3"/>
          <path id="Trazado_131496" data-name="Trazado 131496" d="M48.216,129.945c-.009.465-.031.93-.021,1.395.006.3-.071.444-.4.438-.838-.017-1.676.009-2.513-.011a1.656,1.656,0,0,1-1.526-1.328,9.494,9.494,0,0,1,.042-2.819,1,1,0,0,0,1.015.553c.541-.016,1.083-.014,1.625,0a1.778,1.778,0,0,1,1.782,1.772" transform="translate(-26.637 -77.846)" fill="#b2e49e"/>
          <path id="Trazado_131497" data-name="Trazado 131497" d="M22.828,21.3c.919.924,1.769,1.785,2.626,2.638a.64.64,0,0,1,.144.517c0,1.139-.014,2.279.009,3.418.007.353-.107.431-.444.435-1.7.022-2.381-.635-2.381-2.347q0-2.213,0-4.426a2.184,2.184,0,0,1,.045-.234" transform="translate(-13.896 -12.991)" fill="#94d5a3"/>
          <path id="Trazado_131498" data-name="Trazado 131498" d="M87.986,21.236c0,1.783.02,3.406-.006,5.029s-1.162,2.14-2.608,1.994c-.229-.023-.2-.178-.2-.323q0-1.821,0-3.641a.422.422,0,0,1,.114-.359c.084-.073.158-.158.238-.237l2.465-2.464" transform="translate(-51.952 -12.954)" fill="#94d5a3"/>
          <path id="Trazado_131499" data-name="Trazado 131499" d="M55.426,89.921c0-.43-.023-.861.005-1.289a.791.791,0,0,1,.858-.831.773.773,0,0,1,.8.827c.023.9.026,1.794,0,2.69a.831.831,0,1,1-1.661,0c-.019-.466,0-.934,0-1.4" transform="translate(-33.803 -53.558)"/>
          <path id="Trazado_131500" data-name="Trazado 131500" d="M39.6,95.872a.961.961,0,0,1-.636-.29c-.566-.568-1.141-1.126-1.7-1.7a.828.828,0,0,1-.064-1.241.856.856,0,0,1,1.247.05c.59.569,1.163,1.156,1.737,1.742a.823.823,0,0,1,.17.933.837.837,0,0,1-.757.508" transform="translate(-22.542 -56.359)"/>
          <path id="Trazado_131501" data-name="Trazado 131501" d="M70.189,95.842a.872.872,0,0,1-.814-.48.772.772,0,0,1,.1-.893c.631-.659,1.268-1.316,1.942-1.93a.75.75,0,0,1,1.069.045.722.722,0,0,1,.122,1.055c-.647.719-1.353,1.385-2.049,2.058a.984.984,0,0,1-.37.145" transform="translate(-42.26 -56.324)"/>
          <path id="Trazado_131502" data-name="Trazado 131502" d="M47.823,46.355a6.238,6.238,0,0,1-6.242-6.077.838.838,0,0,1,.667-.964.763.763,0,0,1,.971.615c.059.229.186.241.363.241q4.24,0,8.48,0c.178,0,.305-.012.364-.241a.761.761,0,0,1,.97-.616.836.836,0,0,1,.667.963,6.233,6.233,0,0,1-6.241,6.078" transform="translate(-25.363 -23.966)"/>
          <path id="Trazado_131503" data-name="Trazado 131503" d="M45.934,30.129a.75.75,0,0,1-.422.633.729.729,0,0,1-.846-.027,1.277,1.277,0,0,0-1.815-.009.74.74,0,0,1-1.1-.176.791.791,0,0,1,.074-1.117,2.781,2.781,0,0,1,3.849-.01.918.918,0,0,1,.256.7" transform="translate(-25.35 -17.48)"/>
          <path id="Trazado_131504" data-name="Trazado 131504" d="M64.571,28.6a2.836,2.836,0,0,1,1.877.763.835.835,0,0,1,.122,1.16.805.805,0,0,1-1.151.144,1.228,1.228,0,0,0-1.719,0,.8.8,0,0,1-1.149-.156.849.849,0,0,1,.134-1.16,2.845,2.845,0,0,1,1.886-.755" transform="translate(-38.051 -17.445)" fill="#000100"/>
          <path id="Trazado_131505" data-name="Trazado 131505" d="M44.243,21.086a.882.882,0,0,1-.484-.122c-.55-.273-1.1-.538-1.648-.825a.849.849,0,0,1-.438-1.168.838.838,0,0,1,1.15-.35q.91.425,1.8.9a.835.835,0,0,1-.377,1.564" transform="translate(-25.362 -11.299)" fill="#000100"/>
          <path id="Trazado_131506" data-name="Trazado 131506" d="M65.629,21.059c-.494-.03-.775-.2-.894-.553a.76.76,0,0,1,.32-.98c.65-.361,1.321-.687,2-1a.73.73,0,0,1,.931.3.7.7,0,0,1-.016.976,9.073,9.073,0,0,1-2.34,1.252" transform="translate(-39.452 -11.261)"/>
          <path id="Trazado_131507" data-name="Trazado 131507" d="M51.174,45.859c1.253,0,2.505.008,3.758-.005.332,0,.4.073.231.37a4.574,4.574,0,0,1-8.1-.005c-.178-.316-.071-.367.24-.364,1.29.011,2.58,0,3.87,0" transform="translate(-28.656 -27.97)" fill="#fefefe"/>
        </g>
      </g>
    </g>
  </g>
</svg>
