<svg xmlns="http://www.w3.org/2000/svg" xmlns:xlink="http://www.w3.org/1999/xlink" width="99" height="99" viewBox="0 0 99 99">
  <defs>
    <clipPath id="clip-path">
      <rect id="Rectángulo_37885" data-name="Rectángulo 37885" width="56.459" height="56.454" fill="none"/>
    </clipPath>
  </defs>
  <g id="Grupo_157820" data-name="Grupo 157820" transform="translate(-1171 -5097)">
    <circle id="Elipse_4760" data-name="Elipse 4760" cx="49.5" cy="49.5" r="49.5" transform="translate(1171 5097)" fill="#1169e3"/>
    <g id="Grupo_156593" data-name="Grupo 156593" transform="translate(833.421 454)">
      <path id="Trazado_127053" data-name="Trazado 127053" d="M15.507,123.96c-.454.1-.559-.113-.555-.537.012-1.063-.007-1.081-1.106-1.075-.409,0-.536-.124-.528-.529.007-.377.077-.553.512-.551,1.1,0,1.131-.018,1.119-1.119-.005-.5.239-.507.608-.511s.56.058.56.5c0,1.115.023,1.135,1.112,1.131.421,0,.521.15.522.541s-.1.541-.52.539c-1.11-.006-1.137.014-1.112,1.066.012.488-.169.631-.611.545" transform="translate(339.683 4578.363)" fill="#29c4bb"/>
      <path id="Trazado_127054" data-name="Trazado 127054" d="M213.642,151.161c.406-.078.632.057.565.517-.056.385.077.6.5.533s.57.088.573.537c0,.47-.189.578-.589.525-.383-.052-.5.115-.5.5.012.6-.357.826-.934.645-.274-.086-.214-.3-.2-.477.048-.472-.06-.76-.616-.666-.431.073-.457-.2-.456-.527s.014-.6.451-.53c.471.073.694-.1.616-.6-.075-.475.23-.5.582-.454" transform="translate(205.528 4558.239)" fill="#29c4bb"/>
      <path id="Trazado_127055" data-name="Trazado 127055" d="M210.718,69.268c.1.453-.1.608-.527.537-.46-.078-.648.111-.567.569s-.113.548-.542.553-.609-.127-.532-.557c.082-.459-.109-.648-.565-.562-.472.089-.513-.158-.531-.555-.021-.466.16-.588.566-.517.441.077.606-.106.531-.537-.072-.412.061-.579.521-.563.4.014.639.072.552.536s.115.639.567.563c.425-.072.632.081.526.534" transform="translate(208.976 4610.651)" fill="#010000"/>
      <path id="Trazado_127056" data-name="Trazado 127056" d="M55.04,186.64c.1.423-.11.578-.532.5-.5-.09-.614.169-.543.587.079.465-.146.537-.555.535-.39,0-.6-.091-.518-.511.108-.553-.169-.688-.645-.607s-.466-.225-.467-.559.007-.6.448-.512c.593.117.745-.168.665-.7-.077-.508.311-.362.569-.377.274-.016.579-.052.5.389-.1.545.092.8.67.687.482-.092.423.243.409.566" transform="translate(313.711 4536.959)" fill="#010000"/>
      <path id="Trazado_127057" data-name="Trazado 127057" d="M121.786,17.426c-.114-.483.153-.577.548-.518.41.061.572-.109.509-.513s.058-.588.522-.578c.427.009.623.119.548.558s.131.6.553.533c.391-.059.587.035.589.513s-.182.62-.608.553c-.45-.072-.6.133-.533.553.078.472-.175.526-.572.534-.424.009-.562-.151-.5-.54.068-.427-.09-.622-.535-.547s-.62-.106-.523-.547" transform="translate(266.46 4643.184)" fill="#29c4bb"/>
    </g>
    <g id="Grupo_158044" data-name="Grupo 158044" transform="translate(1191.771 5118.273)">
      <g id="Grupo_158044-2" data-name="Grupo 158044" clip-path="url(#clip-path)">
        <path id="Trazado_131591" data-name="Trazado 131591" d="M31.728,80.744a17.3,17.3,0,1,1,17.159,17.3,17.311,17.311,0,0,1-17.159-17.3" transform="translate(-20.798 -41.586)"/>
        <path id="Trazado_131592" data-name="Trazado 131592" d="M74.709,23.519H69.224a1.169,1.169,0,0,1-.147-.819q-.007-4.237,0-8.473c0-.189.007-.379-.006-.568-.041-.611-.277-.849-.883-.887-.359-.022-.722.021-1.079-.026-.431-.056-.492-.2-.223-.554.473-.617,1.015-1.176,1.53-1.757.916-1.035,1.846-2.059,2.751-3.1.074-.086.155-.166.237-.245.485-.468.672-.49,1.129,0,1.079,1.169,2.121,2.372,3.178,3.562.44.5.9.974,1.31,1.5.1.132.258.269.163.449-.075.141-.256.147-.408.158-.322.022-.645,0-.966.016-.673.03-.923.269-.939.946-.022.853-.006,1.706-.007,2.559q0,3.213,0,6.426a1.17,1.17,0,0,1-.147.819" transform="translate(-43.737 -4.409)" fill="#d8a2a3"/>
        <path id="Trazado_131593" data-name="Trazado 131593" d="M69.093,19.111q-.005-4.947-.008-9.894A.913.913,0,0,1,70.105,8.2c.454-.01.909,0,1.353,0,.088-.128-.014-.183-.07-.246-1.561-1.757-3.131-3.506-4.676-5.276-.286-.327-.426-.34-.719,0C64.4,4.493,62.786,6.294,61.1,8.2c.572,0,1.036-.008,1.5,0a.916.916,0,0,1,1.021,1.019q.005,4.947-.008,9.894c-.584-.007-1.332.2-1.705-.083-.352-.269-.1-1.062-.1-1.624-.012-2.276-.023-4.553.009-6.829.007-.5-.144-.594-.6-.568-.681.04-1.366.007-2.048.011a.918.918,0,0,1-.92-.537.89.89,0,0,1,.2-1.045Q62.013,4.415,65.589.4a.925.925,0,0,1,1.522,0q3.582,4.009,7.145,8.036a.891.891,0,0,1,.2,1.045.919.919,0,0,1-.92.538c-.664,0-1.33.03-1.991-.011-.491-.03-.662.081-.655.625.033,2.655.007,5.311.025,7.967,0,.4-.06.585-.512.534a12.711,12.711,0,0,0-1.307-.021" transform="translate(-38.12 0)"/>
        <path id="Trazado_131594" data-name="Trazado 131594" d="M5.455,38.437c-.584-.007-1.332.2-1.705-.083-.353-.269-.1-1.062-.1-1.624-.013-1.972-.025-3.945.009-5.917.009-.5-.141-.6-.6-.569-.68.041-1.365.007-2.048.012a.92.92,0,0,1-.921-.536.893.893,0,0,1,.193-1.046q3.107-3.555,6.22-7.1a.936.936,0,0,1,1.56,0q3.118,3.545,6.218,7.106a.894.894,0,0,1,.194,1.046.921.921,0,0,1-.921.536c-.683,0-1.367.029-2.048-.012-.455-.027-.6.074-.6.569.031,2.37,0,4.742.023,7.112,0,.4-.06.584-.513.534a12.7,12.7,0,0,0-1.307-.021c-.216-.214-.168-.492-.168-.752q-.006-3.978,0-7.956c0-1.11.35-1.444,1.472-1.457a2.188,2.188,0,0,0,.766-.059,9.868,9.868,0,0,0-1.143-1.374c-.762-.893-1.547-1.765-2.313-2.655-.359-.417-.5-.442-.813-.083-1.1,1.273-2.218,2.537-3.326,3.806a.4.4,0,0,0-.15.336,6.686,6.686,0,0,0,.992.036c.769.045,1.172.408,1.179,1.168.025,2.822.012,5.645.007,8.467a.65.65,0,0,1-.167.525" transform="translate(0 -13.863)"/>
        <path id="Trazado_131595" data-name="Trazado 131595" d="M127.044,38.437c-.584-.007-1.332.2-1.705-.083-.353-.269-.1-1.062-.1-1.624-.013-1.972-.025-3.945.009-5.917.009-.5-.141-.6-.6-.569-.68.041-1.365.007-2.048.012a.92.92,0,0,1-.921-.536.893.893,0,0,1,.193-1.046q3.107-3.555,6.22-7.1a.936.936,0,0,1,1.56,0q3.118,3.545,6.218,7.106a.894.894,0,0,1,.194,1.046.921.921,0,0,1-.921.536c-.683,0-1.367.029-2.048-.012-.455-.027-.6.074-.6.569.031,2.37,0,4.742.023,7.112,0,.4-.06.584-.513.534a12.7,12.7,0,0,0-1.307-.021c-.216-.214-.168-.492-.168-.752q-.006-3.978,0-7.956c0-1.11.35-1.441,1.472-1.46a1.376,1.376,0,0,0,.751-.081,9.957,9.957,0,0,0-1.128-1.35c-.762-.893-1.547-1.766-2.313-2.655-.359-.417-.5-.442-.813-.083-1.1,1.273-2.218,2.537-3.326,3.806a.4.4,0,0,0-.149.336,6.686,6.686,0,0,0,.992.036c.769.045,1.172.408,1.179,1.168.025,2.822.012,5.645.007,8.467a.65.65,0,0,1-.167.525" transform="translate(-79.704 -13.863)"/>
        <path id="Trazado_131596" data-name="Trazado 131596" d="M11.02,43.021c0-2.994.011-5.987.008-8.981a.916.916,0,0,0-1.018-1.021c-.467-.01-.935,0-1.52,0,1.086-1.245,2.1-2.407,3.115-3.569.324-.371.666-.728.971-1.113.212-.268.342-.248.558,0,1.325,1.533,2.665,3.052,4.09,4.679-.576,0-1.053-.008-1.529,0a.913.913,0,0,0-1.018,1.021c0,2.994,0,5.987.008,8.981H11.02" transform="translate(-5.565 -18.448)" fill="#d8a2a3"/>
        <path id="Trazado_131597" data-name="Trazado 131597" d="M132.609,43.021c0-2.994.011-5.987.008-8.981a.915.915,0,0,0-1.018-1.021c-.467-.01-.935,0-1.52,0,1.086-1.245,2.1-2.407,3.115-3.569.324-.371.666-.728.971-1.113.212-.268.342-.248.558,0,1.325,1.533,2.665,3.052,4.09,4.679-.576,0-1.053-.008-1.529,0a.913.913,0,0,0-1.018,1.021c0,2.994,0,5.987.008,8.981h-3.664" transform="translate(-85.269 -18.448)" fill="#d8a2a3"/>
        <path id="Trazado_131598" data-name="Trazado 131598" d="M8.2,124.092c-.185-.011-.223-.159-.295-.261-.559-.786-1.12-1.571-1.662-2.369-.162-.238-.283-.279-.52-.091-.354.282-.733.536-1.112.785a.892.892,0,0,1-1.379-.226c-.807-1.12-1.59-2.258-2.4-3.38-.162-.225-.117-.329.095-.489,1.172-.886,1.167-.892,1.991.28.37.526.747,1.047,1.106,1.581.15.224.276.251.5.081.373-.289.763-.559,1.159-.816a.87.87,0,0,1,1.333.234c.82,1.134,1.617,2.285,2.42,3.431.059.084.2.2.083.287-.434.334-.887.643-1.319.952" transform="translate(-0.482 -76.975)"/>
        <path id="Trazado_131599" data-name="Trazado 131599" d="M143.255,122.175a1.781,1.781,0,0,1-1.021-.495c-1.03-.724-1.029-.727-1.741.288-.391.557-.8,1.106-1.168,1.676-.168.257-.3.267-.526.08-.362-.3-.955-.5-1.06-.862-.082-.279.426-.736.683-1.106q.826-1.188,1.663-2.368c.509-.717.892-.774,1.617-.309.44.281.859.9,1.3.776.383-.1.619-.759.915-1.173.319-.446.65-.886.941-1.35.178-.284.308-.266.566-.089,1.166.8,1.173.792.361,1.945-.577.82-1.158,1.637-1.73,2.46a1.077,1.077,0,0,1-.8.527" transform="translate(-90.285 -76.77)"/>
        <path id="Trazado_131600" data-name="Trazado 131600" d="M46.669,75.239c-2.018-.5-3.6.332-4.02,2.082a3.666,3.666,0,0,0-.074.846q-.007,5.519,0,11.038a5.662,5.662,0,0,0,2.91,5.13.669.669,0,0,1,.374.676c-.018.834-.032,1.67,0,2.5.023.532-.122.554-.548.325a15.2,15.2,0,0,1-7.487-8.778A15.468,15.468,0,1,1,59.8,97.767c-.083.045-.173.079-.253.13-.358.226-.435.089-.43-.284.017-1.176.013-2.352,0-3.527a.538.538,0,0,1,.315-.533,5.74,5.74,0,0,0,2.973-5.325c-.013-1.328-.009-2.655,0-3.983a4.935,4.935,0,0,0-1.394-3.555.791.791,0,0,1-.232-.6c.01-.929.014-1.859,0-2.788a2.946,2.946,0,0,0-3.759-2.954c-.275.064-.369.047-.447-.27a2.9,2.9,0,0,0-4.6-1.725c-.212.145-.333.214-.578.031a2.774,2.774,0,0,0-3.1-.293,2.84,2.84,0,0,0-1.625,2.721c0,.132,0,.263,0,.433" transform="translate(-24.257 -44.988)" fill="#98a3be"/>
        <path id="Trazado_131601" data-name="Trazado 131601" d="M74.625,109.842q0,1,0,1.992a3.827,3.827,0,0,1-2.28,3.695,1.567,1.567,0,0,0-1.012,1.684c.053,1.535,0,3.073.024,4.609a.536.536,0,0,1-.472.622,15.407,15.407,0,0,1-8.746-.012.5.5,0,0,1-.434-.591c.018-1.347-.01-2.694.015-4.04a1.27,1.27,0,0,0-.81-1.341,3.962,3.962,0,0,1-2.478-3.975q.028-1.479,0-2.959c-.008-.353.087-.4.412-.311a2.786,2.786,0,0,0,2.474-.482c.2-.146.309-.221.564-.035a2.891,2.891,0,0,0,4.036-.42c.109-.113.166-.308.4-.163a3.889,3.889,0,0,0,2.2.392c.531-.009,1.062-.007,1.594,0,.185,0,.427-.1.424.268,0,.284-.042.452-.371.494a5.875,5.875,0,0,0-3.332,1.578A6.145,6.145,0,0,0,64.8,115.38c-.006.316.074.436.4.413.435-.03.944.124,1.288-.056s.149-.753.231-1.147A4.456,4.456,0,0,1,70.878,111c.208-.019.418-.017.624-.048a.892.892,0,0,0,.843-.962q.02-1.166,0-2.333a.89.89,0,0,0-1-.975c-1.119-.011-2.238,0-3.358,0-.849,0-1.343-.415-1.353-1.119-.011-.73.49-1.153,1.372-1.156,1.1,0,2.2-.005,3.3,0a3.172,3.172,0,0,1,3.317,3.33c.005.7,0,1.4,0,2.105" transform="translate(-38.3 -68.438)" fill="#fedaab"/>
        <path id="Trazado_131602" data-name="Trazado 131602" d="M70.34,88.208c0-1.307,0-2.613,0-3.919a1.161,1.161,0,0,1,1.119-1.3,1.176,1.176,0,0,1,1.152,1.282q.013,3.948,0,7.9a1.148,1.148,0,0,1-1.135,1.284,1.118,1.118,0,0,1-1.136-1.267c-.008-1.325,0-2.651,0-3.976" transform="translate(-46.108 -54.401)" fill="#fedaab"/>
        <path id="Trazado_131603" data-name="Trazado 131603" d="M58.445,96.1c0-.777-.008-1.554,0-2.33A1.133,1.133,0,0,1,59.5,92.524,1.171,1.171,0,0,1,60.708,93.7q.04,2.444,0,4.888a1.129,1.129,0,1,1-2.258-.047c-.015-.814,0-1.629,0-2.444" transform="translate(-38.31 -60.65)" fill="#fedaab"/>
        <path id="Trazado_131604" data-name="Trazado 131604" d="M82.243,88.767c0-1.619-.012-3.15.006-4.68a1.114,1.114,0,0,1,1.082-1.1,1.089,1.089,0,0,1,1.146.97c.054,1.454.029,2.912.038,4.368,0,.282-.2.216-.361.219a4.791,4.791,0,0,0-1.911.223" transform="translate(-53.909 -54.4)" fill="#fedaab"/>
        <path id="Trazado_131605" data-name="Trazado 131605" d="M96.386,93.485a6.055,6.055,0,0,0-1.943-.227c-.241.016-.336-.055-.328-.313.018-.548-.006-1.1.011-1.646a1.126,1.126,0,0,1,2.248-.1c.048.749.011,1.5.011,2.288" transform="translate(-61.695 -59.11)" fill="#fddaab"/>
      </g>
    </g>
  </g>
</svg>
