<svg xmlns="http://www.w3.org/2000/svg" xmlns:xlink="http://www.w3.org/1999/xlink" width="99" height="99" viewBox="0 0 99 99">
  <defs>
    <clipPath id="clip-path">
      <rect id="Rectángulo_37887" data-name="Rectángulo 37887" width="48.479" height="59.347" fill="none"/>
    </clipPath>
  </defs>
  <g id="Grupo_157822" data-name="Grupo 157822" transform="translate(-1171 -5097)">
    <circle id="Elipse_4760" data-name="Elipse 4760" cx="49.5" cy="49.5" r="49.5" transform="translate(1171 5097)" fill="#1169e3"/>
    <g id="Grupo_156593" data-name="Grupo 156593" transform="translate(833.421 454)">
      <path id="Trazado_127053" data-name="Trazado 127053" d="M15.507,123.96c-.454.1-.559-.113-.555-.537.012-1.063-.007-1.081-1.106-1.075-.409,0-.536-.124-.528-.529.007-.377.077-.553.512-.551,1.1,0,1.131-.018,1.119-1.119-.005-.5.239-.507.608-.511s.56.058.56.5c0,1.115.023,1.135,1.112,1.131.421,0,.521.15.522.541s-.1.541-.52.539c-1.11-.006-1.137.014-1.112,1.066.012.488-.169.631-.611.545" transform="translate(339.683 4578.363)" fill="#29c4bb"/>
      <path id="Trazado_127054" data-name="Trazado 127054" d="M213.642,151.161c.406-.078.632.057.565.517-.056.385.077.6.5.533s.57.088.573.537c0,.47-.189.578-.589.525-.383-.052-.5.115-.5.5.012.6-.357.826-.934.645-.274-.086-.214-.3-.2-.477.048-.472-.06-.76-.616-.666-.431.073-.457-.2-.456-.527s.014-.6.451-.53c.471.073.694-.1.616-.6-.075-.475.23-.5.582-.454" transform="translate(205.528 4558.239)" fill="#29c4bb"/>
      <path id="Trazado_127055" data-name="Trazado 127055" d="M210.718,69.268c.1.453-.1.608-.527.537-.46-.078-.648.111-.567.569s-.113.548-.542.553-.609-.127-.532-.557c.082-.459-.109-.648-.565-.562-.472.089-.513-.158-.531-.555-.021-.466.16-.588.566-.517.441.077.606-.106.531-.537-.072-.412.061-.579.521-.563.4.014.639.072.552.536s.115.639.567.563c.425-.072.632.081.526.534" transform="translate(208.976 4610.651)" fill="#010000"/>
      <path id="Trazado_127056" data-name="Trazado 127056" d="M55.04,186.64c.1.423-.11.578-.532.5-.5-.09-.614.169-.543.587.079.465-.146.537-.555.535-.39,0-.6-.091-.518-.511.108-.553-.169-.688-.645-.607s-.466-.225-.467-.559.007-.6.448-.512c.593.117.745-.168.665-.7-.077-.508.311-.362.569-.377.274-.016.579-.052.5.389-.1.545.092.8.67.687.482-.092.423.243.409.566" transform="translate(313.711 4536.959)" fill="#010000"/>
      <path id="Trazado_127057" data-name="Trazado 127057" d="M121.786,17.426c-.114-.483.153-.577.548-.518.41.061.572-.109.509-.513s.058-.588.522-.578c.427.009.623.119.548.558s.131.6.553.533c.391-.059.587.035.589.513s-.182.62-.608.553c-.45-.072-.6.133-.533.553.078.472-.175.526-.572.534-.424.009-.562-.151-.5-.54.068-.427-.09-.622-.535-.547s-.62-.106-.523-.547" transform="translate(266.46 4643.184)" fill="#29c4bb"/>
    </g>
    <g id="Grupo_158046" data-name="Grupo 158046" transform="translate(1196 5117)">
      <g id="Grupo_158046-2" data-name="Grupo 158046" clip-path="url(#clip-path)">
        <path id="Trazado_131631" data-name="Trazado 131631" d="M48.478,32.152q0,11.683,0,23.367a3.5,3.5,0,0,1-3.835,3.829H4.825A4.477,4.477,0,0,1,0,54.538q0-1.391,0-2.782c0-1,.321-1.31,1.341-1.312a7.818,7.818,0,0,1,1.05.009c.513.069.586-.154.586-.61Q2.961,29.228,2.969,8.612A3.465,3.465,0,0,1,5.852,4.995a4.752,4.752,0,0,1,.862-.05c4.8,0,9.6-.013,14.406.013.55,0,.692-.132.656-.669a3.959,3.959,0,1,1,7.9-.322c.014.976.014.976,1,.976H44.719a3.485,3.485,0,0,1,3.759,3.78q0,11.714,0,23.429" transform="translate(0 0)"/>
        <path id="Trazado_131632" data-name="Trazado 131632" d="M58.41,52.526q0,10.816,0,21.632a2.436,2.436,0,0,1-1.345,2.326,2.328,2.328,0,0,1-2.565-.189,2.364,2.364,0,0,1-1.035-2c-.01-1.051,0-2.1,0-3.152,0-.968-.329-1.3-1.294-1.3q-13.352,0-26.7.011c-.539,0-.708-.1-.707-.684q.029-19.128,0-38.257c0-.572.168-.655.68-.65,2.617.026,5.233.018,7.851.005a.71.71,0,0,1,.766.417,2.812,2.812,0,0,0,2.614,1.563q4.914.022,9.829,0a2.845,2.845,0,0,0,2.656-1.6.626.626,0,0,1,.663-.38c2.679.012,5.357.019,8.036-.005.462,0,.571.108.57.57Q58.4,41.679,58.41,52.526" transform="translate(-15.868 -19.397)" fill="#e9e8e3"/>
        <path id="Trazado_131633" data-name="Trazado 131633" d="M39.886,150.925H8.282A2.513,2.513,0,0,1,5.5,148.139c0-.577.022-1.155-.008-1.73-.019-.362.112-.481.452-.432a1.716,1.716,0,0,0,.247,0q16.136,0,32.271-.015c.581,0,.758.165.681.708a6.2,6.2,0,0,0-.006.679,5.652,5.652,0,0,0,.754,3.573" transform="translate(-3.516 -93.556)" fill="#cccbc7"/>
        <path id="Trazado_131634" data-name="Trazado 131634" d="M103.788,69.724a5.609,5.609,0,0,0,.762-3.3q-.016-21.847-.007-43.694c0-1.217-.261-1.476-1.488-1.476-2.926,0-5.851-.009-8.777.009-.452,0-.644-.067-.632-.59.032-1.4,0-1.4,1.42-1.4h9.581c1.346,0,1.874.525,1.874,1.862q0,23.33,0,46.66c0,1.422-.506,1.925-1.936,1.925h-.8" transform="translate(-60.022 -12.355)" fill="#c6820b"/>
        <path id="Trazado_131635" data-name="Trazado 131635" d="M13.779,41.583q0-10.227,0-20.454c0-1.343.525-1.868,1.866-1.868,3.461,0,6.922.008,10.383-.01.46,0,.638.082.626.595-.032,1.392-.005,1.393-1.425,1.393h-8.1c-1.086,0-1.376.3-1.376,1.4q0,19.712.015,39.424c0,.6-.148.757-.741.734-1.251-.049-1.252-.014-1.252-1.257V41.583" transform="translate(-8.832 -12.339)" fill="#c6820b"/>
        <path id="Trazado_131636" data-name="Trazado 131636" d="M61.026,19.259c1.814,0,3.627.013,5.441-.01.405-.005.523.1.506.508-.033.782,0,1.566-.013,2.349a1,1,0,0,1-1.111,1.107q-4.822.011-9.645,0a1,1,0,0,1-1.111-1.106c-.011-.783.02-1.567-.012-2.349-.016-.4.1-.515.5-.509,1.813.023,3.627.01,5.441.01" transform="translate(-35.304 -12.337)" fill="#e9e8e3"/>
        <path id="Trazado_131637" data-name="Trazado 131637" d="M67.924,8.47c-.534,0-1.069,0-1.6,0-.125,0-.271.065-.345-.148a2.362,2.362,0,0,1,1.257-2.681,1.992,1.992,0,0,1,2.7,1.694c.094,1.138.094,1.138-1.019,1.138h-.987" transform="translate(-42.232 -3.527)" fill="#e9e8e3"/>
        <path id="Trazado_131638" data-name="Trazado 131638" d="M45.153,59.119H31.617A1.432,1.432,0,0,1,30.836,59a.934.934,0,0,1-.493-1.094.953.953,0,0,1,1-.758c1.113,0,2.226-.033,3.337.012.512.021.609-.157.587-.616-.036-.74-.017-1.483-.008-2.224a1.008,1.008,0,0,1,1.15-1.128q1.823-.011,3.647,0a1.009,1.009,0,0,1,1.135,1.144c.009.8.018,1.607-.006,2.41-.01.331.1.4.415.409,1.572.035,1.572.045,1.572-1.531q0-4.511,0-9.022c0-1.01.316-1.323,1.328-1.325q1.669,0,3.338,0c.93,0,1.269.336,1.269,1.26,0,3.337.01,6.674-.01,10.011,0,.464.088.625.591.612,1.4-.036,1.4-.01,1.4-1.4q0-6.551,0-13.1c0-1.018.314-1.337,1.314-1.339,1.133,0,2.266,0,3.4,0,.878,0,1.221.352,1.221,1.246,0,4.655.011,9.311-.013,13.966,0,.526.135.678.642.623a9.248,9.248,0,0,1,1.3-.006.987.987,0,1,1-.009,1.97c-1.772.013-3.543,0-5.315,0H45.153" transform="translate(-19.425 -26.48)"/>
        <path id="Trazado_131639" data-name="Trazado 131639" d="M30.313,103.335a6.925,6.925,0,1,1,6.964,6.929,6.933,6.933,0,0,1-6.964-6.929" transform="translate(-19.429 -61.799)"/>
        <path id="Trazado_131640" data-name="Trazado 131640" d="M85.853,123.963q2.345,0,4.691,0c.782,0,1.231.36,1.239.976s-.449,1-1.216,1q-4.722,0-9.443,0c-.762,0-1.22-.391-1.207-1.008.012-.6.456-.965,1.185-.968,1.584,0,3.168,0,4.752,0" transform="translate(-51.222 -79.454)"/>
        <path id="Trazado_131641" data-name="Trazado 131641" d="M84.859,114.92c-1.255,0-2.509,0-3.764,0-.725,0-1.17-.378-1.179-.974s.436-1,1.151-1q3.794-.008,7.588,0c.713,0,1.159.4,1.149,1s-.455.969-1.182.972c-1.255.005-2.509,0-3.764,0" transform="translate(-51.223 -72.389)"/>
        <path id="Trazado_131642" data-name="Trazado 131642" d="M34.732,54.31c-1.09,0-2.179.005-3.269,0-.71-.005-1.158-.408-1.146-1.007a1,1,0,0,1,1.122-.967q3.331-.01,6.662,0a1,1,0,0,1,1.115.974c.008.6-.438,1-1.153,1-1.11.007-2.221,0-3.331,0" transform="translate(-19.432 -33.541)"/>
        <path id="Trazado_131643" data-name="Trazado 131643" d="M83.868,101.922c.946,0,1.891-.006,2.837,0a1,1,0,0,1,1.121.968c.012.6-.436,1-1.146,1.006q-2.806.009-5.612,0c-.714,0-1.16-.4-1.152-1s.452-.971,1.176-.975c.925-.006,1.85,0,2.775,0" transform="translate(-51.223 -65.325)"/>
        <path id="Trazado_131644" data-name="Trazado 131644" d="M33.287,41.309c.637,0,1.274-.012,1.91,0a.986.986,0,1,1,.022,1.97q-1.94.024-3.882,0a.978.978,0,0,1-1.02-1,.992.992,0,0,1,1.059-.965c.636-.014,1.274,0,1.91,0" transform="translate(-19.432 -26.474)"/>
        <path id="Trazado_131645" data-name="Trazado 131645" d="M33.281,63.351c.616,0,1.233-.007,1.849,0a1.006,1.006,0,0,1,1.119.969.993.993,0,0,1-1.084,1q-1.879.017-3.759,0a.993.993,0,1,1,.026-1.973c.616-.009,1.233,0,1.849,0" transform="translate(-19.433 -40.603)"/>
        <path id="Trazado_131646" data-name="Trazado 131646" d="M93.67,53.667c0-2.12.011-4.24-.009-6.359,0-.4.106-.511.509-.509,1.479.005,1.479-.011,1.479,1.444,0,3.951-.009,7.9.011,11.854,0,.462-.11.582-.573.573-1.417-.025-1.417,0-1.417-1.446V53.667" transform="translate(-60.032 -29.995)" fill="#5ebdf6"/>
        <path id="Trazado_131647" data-name="Trazado 131647" d="M73.606,62.765c0,1.484-.016,2.968.01,4.451.007.419-.13.5-.521.5-1.469,0-1.469.012-1.469-1.462,0-2.617.009-5.234-.009-7.851,0-.421.043-.613.55-.6,1.437.029,1.437,0,1.437,1.437v3.524" transform="translate(-45.904 -37.05)" fill="#ed9c0d"/>
        <path id="Trazado_131648" data-name="Trazado 131648" d="M51.579,80.826c0,1.038,0,1.038-1.063,1.038-.916,0-.916,0-.916-.94,0-1.038,0-1.038,1.064-1.038.915,0,.915,0,.915.94" transform="translate(-31.791 -51.203)" fill="#f9a5b1"/>
        <path id="Trazado_131649" data-name="Trazado 131649" d="M39.775,102.337c0,1.483,0,2.959-.006,4.435a.992.992,0,0,1-.13.4c-.574,1.159-1.155,2.314-1.732,3.472-.105.211-.175.427-.461.15a4.865,4.865,0,0,1-1.456-4.945,4.775,4.775,0,0,1,3.785-3.515" transform="translate(-22.957 -65.593)" fill="#5ebdf6"/>
        <path id="Trazado_131650" data-name="Trazado 131650" d="M46.061,122.2c.6-1.192,1.176-2.322,1.725-3.465.138-.286.333-.306.593-.3,1.109.007,2.219.018,3.327-.005.406-.009.479.077.358.479a4.944,4.944,0,0,1-6,3.295" transform="translate(-29.523 -75.908)" fill="#ed9c0d"/>
        <path id="Trazado_131651" data-name="Trazado 131651" d="M54.042,106.136c-.524-.061-1.364.28-1.72-.127-.308-.354-.087-1.173-.092-1.787-.005-.534.011-1.069-.006-1.6-.01-.3.094-.344.36-.259A4.975,4.975,0,0,1,56,105.779c.084.263.048.372-.256.362-.534-.018-1.069-.005-1.706-.005" transform="translate(-33.431 -65.583)" fill="#f9a5b1"/>
      </g>
    </g>
  </g>
</svg>
