<svg id="Grupo_157915" data-name="Grupo 157915" xmlns="http://www.w3.org/2000/svg" xmlns:xlink="http://www.w3.org/1999/xlink" width="59.538" height="59.537" viewBox="0 0 59.538 59.537">
  <defs>
    <clipPath id="clip-path">
      <rect id="Rectángulo_37891" data-name="Rectángulo 37891" width="38.826" height="38.828" fill="none"/>
    </clipPath>
  </defs>
  <path id="Trazado_127482" data-name="Trazado 127482" d="M29.769,0A29.769,29.769,0,1,1,0,29.769,29.769,29.769,0,0,1,29.769,0Z" fill="#b0c8cb"/>
  <g id="Grupo_156595" data-name="Grupo 156595" transform="translate(9.021 10.224)">
    <path id="Trazado_127053" data-name="Trazado 127053" d="M14.667,122.237c.273.061.336-.068.334-.323-.007-.639,0-.65.665-.646.246,0,.323-.075.318-.318,0-.227-.046-.332-.308-.331-.663,0-.68-.011-.673-.673,0-.3-.144-.305-.366-.307s-.337.035-.337.3c0,.67-.014.682-.669.68-.253,0-.313.09-.314.326s.059.325.313.324c.668,0,.684.009.669.641-.007.294.1.379.368.328" transform="translate(24.796 -96.183)" fill="#29c4bb"/>
    <path id="Trazado_127054" data-name="Trazado 127054" d="M212.981,151.153c-.244-.047-.38.034-.34.311.034.232-.046.36-.3.321s-.343.053-.345.323.113.348.354.315.3.069.3.3c-.007.359.215.5.562.388.165-.052.129-.183.118-.287-.029-.284.036-.457.371-.4.259.044.275-.118.274-.317s-.008-.36-.271-.319c-.283.044-.417-.06-.37-.359s-.138-.3-.35-.273" transform="translate(-211.994 -120.843)" fill="#29c4bb"/>
    <path id="Trazado_127055" data-name="Trazado 127055" d="M207.47,68.616c-.063.273.062.366.317.323.277-.047.39.067.341.342s.068.33.326.332.366-.076.32-.335c-.049-.276.066-.389.34-.338s.309-.1.319-.334c.013-.28-.1-.353-.34-.311-.265.046-.364-.064-.319-.323s-.037-.348-.313-.338c-.244.009-.384.043-.332.322s-.069.384-.341.339c-.256-.043-.38.049-.317.321" transform="translate(-205.475 -63.854)" fill="#010000"/>
    <path id="Trazado_127056" data-name="Trazado 127056" d="M51.8,185.982c-.06.254.066.348.32.3.3-.054.369.1.326.353-.047.28.088.323.334.322s.361-.055.312-.308c-.065-.332.1-.414.388-.365s.28-.135.281-.336,0-.36-.269-.308c-.357.071-.448-.1-.4-.42s-.187-.218-.342-.227-.348-.031-.3.234c.059.328-.056.48-.4.413-.29-.056-.254.146-.246.34" transform="translate(-20.487 -147.133)" fill="#010000"/>
    <path id="Trazado_127057" data-name="Trazado 127057" d="M123.727,16.785c.068-.29-.092-.347-.33-.312s-.344-.065-.306-.309-.035-.354-.314-.348c-.257.005-.374.072-.33.336s-.079.359-.333.321c-.235-.035-.353.021-.354.308s.109.373.366.332.363.08.321.333c-.047.284.105.316.344.321.255.005.338-.091.3-.325-.041-.257.054-.374.322-.329s.373-.064.315-.329" transform="translate(-104.142 -15.817)" fill="#29c4bb"/>
  </g>
  <g id="Grupo_158050" data-name="Grupo 158050" transform="translate(10.707 10.354)">
    <g id="Grupo_158050-2" data-name="Grupo 158050" transform="translate(0 0)" clip-path="url(#clip-path)">
      <path id="Trazado_131718" data-name="Trazado 131718" d="M19.28,6.166c1.255-1.31,1.926-1.31,3.137.048V4.305c0-2.7,0-2.7-2.434-2.635a1.239,1.239,0,0,1-.2,0c-.36-.049-.524.079-.516.528.024,1.293.008,2.585.008,3.967" transform="translate(-10.978 -0.943)" fill="#f7a32f"/>
      <path id="Trazado_131719" data-name="Trazado 131719" d="M7.89,41.387c.391.516,1.526,1.919,2.027,2.517l-.032-1.746c0-1.128.154-1.3,1.146-1.3h2.184c.621,0,.866-.288.866-1.017V32.147c0-.728-.245-1.014-.868-1.014H2.378c-.65,0-.885.278-.885,1.044V39.77c0,.829.22,1.087.937,1.087h0c1.66,0,2.648.012,4.308-.017a1.285,1.285,0,0,1,1.153.546" transform="translate(-0.85 -17.734)" fill="#fcc059"/>
      <path id="Trazado_131720" data-name="Trazado 131720" d="M70.99,24.089H60.929c-.55,0-.781.234-.781.79q0,3.091,0,6.182c0,.554.232.788.784.788.782,0,1.563-.005,2.344,0a.682.682,0,0,1,.178,0,.663.663,0,0,1,.575.74c0,.278,0,.556,0,.932.475-.479.887-.868,1.267-1.286a1.172,1.172,0,0,1,.962-.392c1.576.017,3.151.006,4.727.006.577,0,.806-.229.806-.807h0q0-3.07,0-6.14c0-.583-.225-.812-.8-.812m-2.113,5.818c-2.141,0-4.283-.007-6.426.008-.3,0-.379-.068-.373-.371.019-.927,0-.927.939-.927h2.951c1.186,0,2.372.008,3.557-.007.263,0,.334.065.33.328-.006.97,0,.97-.978.97m0-2.586c-2.141,0-4.283-.006-6.426.008-.3,0-.379-.07-.373-.375.019-.927,0-.927.939-.927h2.99c1.173,0,2.345.009,3.517-.006.265,0,.331.066.331.331-.006.97,0,.97-.979.97" transform="translate(-34.261 -13.722)" fill="#fe5d7c"/>
      <path id="Trazado_131721" data-name="Trazado 131721" d="M40.4,21.136a1.89,1.89,0,0,0-1.223.216l-2.215,2.154a.68.68,0,0,1-.8.192.673.673,0,0,1-.415-.7c.009-.522-.016-1.046.009-1.567.015-.267-.081-.319-.331-.309-.508.019-1.017.006-1.523.006a2.1,2.1,0,0,1-.356,0,2,2,0,0,1-1.855-2.151V12.755a1.957,1.957,0,0,1,0-.386,2.028,2.028,0,0,1,2.226-1.792c2.07,0,4.141,0,6.211,0,.249,0,.361-.025.361-.321-.015-2.268-.009-4.534-.009-6.8,0-.56-.246-.8-.828-.8q-10.246,0-20.492-.007c-.268,0-.321.071-.321.319.015,1.124,0,2.25.011,3.377,0,.4-.039.759-.5.892s-.7-.167-.908-.5c-.192-.3-.4-.585-.627-.918-.247.362-.473.68-.677.994a.738.738,0,0,1-.865.421c-.4-.118-.494-.43-.49-.811.011-1.153-.005-2.308.011-3.462,0-.257-.065-.326-.325-.315-.508.022-1.017.007-1.524.007-.635,0-.864.223-.864.843,0,3.558,0,7.117-.008,10.676,0,.286.065.361.365.361q3.19-.017,6.379-.006h.057a1.982,1.982,0,0,1,1.991,1.975q.017,3.3,0,6.6v.048a1.991,1.991,0,0,1-2.044,1.932c-.576.011-1.154.014-1.731,0-.22-.008-.289.052-.282.27.016.508,0,1.017.008,1.525a.719.719,0,0,1-.413.777.729.729,0,0,1-.86-.253c-.634-.624-1.293-1.227-1.9-1.874a1.356,1.356,0,0,0-1.135-.46c-.357.012-.426.1-.426.433q.008,6.575.009,13.149c0,.758.189.946.969.946H39.5c.778,0,.973-.189.973-.946V25.463q0-2,0-4c0-.109.076-.252-.077-.329" transform="translate(-6.875 -1.512)" fill="#dcd9ea"/>
      <path id="Trazado_131722" data-name="Trazado 131722" d="M36.943,9.071c-.04,0-.081,0-.122,0-.729-.006-1.457-.016-2.186.006-.287.009-.352-.071-.351-.353.013-2.169.007-4.339.007-6.509a1.965,1.965,0,0,0-2.186-2.2H6.721a1.968,1.968,0,0,0-2.186,2.2c0,3.463,0,6.927.006,10.39,0,.283-.066.361-.351.352-.729-.023-1.457-.011-2.186-.007a1.93,1.93,0,0,0-2,1.86c0,.04,0,.08,0,.121q-.01,3.194,0,6.388A1.932,1.932,0,0,0,1.886,23.3c.04,0,.079,0,.119,0,.714.005,1.429.019,2.142-.007.318-.012.392.08.391.393q-.017,6.448-.007,12.9a1.98,1.98,0,0,0,2.225,2.244H32.025a1.986,1.986,0,0,0,2.265-2.244V31.774q0-6-.006-12.008c0-.283.066-.361.351-.352.729.022,1.458.012,2.186.006a1.93,1.93,0,0,0,2-1.858c0-.041,0-.082,0-.123q.013-3.194,0-6.388a1.93,1.93,0,0,0-1.878-1.98M8.81.728a1.245,1.245,0,0,0,.2,0C11.44.667,11.44.667,11.44,3.363V5.272C10.229,3.913,9.557,3.913,8.3,5.224c0-1.382.016-2.675-.008-3.967C8.286.807,8.45.679,8.81.728M1.578,22.894h0c-.717,0-.937-.251-.937-1.056V14.464c0-.744.235-1.014.885-1.014H12.361c.624,0,.868.277.869.984v7.472c0,.708-.245.984-.867.987H10.18c-.992,0-1.146.168-1.146,1.264L9.056,25.9s-1.729-1.9-2.12-2.406a1.3,1.3,0,0,0-1.153-.53c-1.66.027-2.545-.062-4.206-.067M33.6,20.03q0,1.993,0,3.981V37.145c0,.753-.195.942-.973.942H6.179c-.779,0-.969-.187-.969-.942q0-6.547-.008-13.093c0-.337.069-.42.426-.431a1.357,1.357,0,0,1,1.134.458c.609.644,1.268,1.245,1.9,1.867a.731.731,0,0,0,.86.251.714.714,0,0,0,.413-.773c-.01-.506.009-1.013-.007-1.519-.007-.217.062-.277.282-.269.576.014,1.155.011,1.731,0a1.987,1.987,0,0,0,2.044-1.924c0-.016,0-.031,0-.047q.017-3.283,0-6.567A1.978,1.978,0,0,0,12,13.13h-.056q-3.19-.012-6.379.005c-.3,0-.366-.074-.365-.359C5.206,9.233,5.2,5.69,5.2,2.146c0-.617.229-.837.864-.839.507,0,1.015.015,1.523-.007.261-.011.329.059.325.314-.016,1.149,0,2.3-.011,3.448,0,.379.089.689.49.807a.739.739,0,0,0,.865-.419c.2-.312.431-.63.677-.99.229.331.434.619.627.915.213.328.45.627.908.494s.5-.49.5-.888c-.011-1.122,0-2.244-.01-3.363,0-.247.053-.318.321-.318q10.246.012,20.492.008c.581,0,.827.235.827.792,0,2.258-.006,4.515.01,6.773,0,.295-.111.321-.361.32-2.07-.008-4.141-.006-6.211,0a2.026,2.026,0,0,0-2.226,1.785,1.907,1.907,0,0,0,0,.384v6.2A2,2,0,0,0,26.666,19.7a2.091,2.091,0,0,0,.356,0c.507,0,1.015.014,1.523-.005.25-.009.346.042.331.308-.025.518,0,1.04-.009,1.56a.67.67,0,0,0,.415.695.681.681,0,0,0,.8-.192L32.3,19.917A1.9,1.9,0,0,1,33.52,19.7c.154.077.077.219.077.328m3.931-2.71h0c0,.579-.229.807-.806.807-1.576,0-3.152.011-4.727-.006a1.172,1.172,0,0,0-.962.392c-.38.418-.792.807-1.267,1.286,0-.376,0-.655,0-.932a.663.663,0,0,0-.575-.74.683.683,0,0,0-.178,0c-.781-.005-1.562,0-2.344,0-.552,0-.783-.234-.784-.788q0-3.091,0-6.182c0-.556.231-.79.78-.79H36.729c.576,0,.8.229.8.812q0,3.07,0,6.14" transform="translate(0 0)"/>
      <path id="Trazado_131723" data-name="Trazado 131723" d="M21.459,70.474q9.683-.017,19.365-.008c.935,0,.919,0,.939-.927.006-.306-.076-.372-.374-.371-3.312.012-6.63.007-9.945.007h-9.5c-.891,0-.873,0-.9.89-.01.337.082.409.415.409" transform="translate(-11.987 -39.4)"/>
      <path id="Trazado_131724" data-name="Trazado 131724" d="M49.913,75.17q-6.448.019-12.9.009c-.935,0-.92,0-.939.927-.006.3.073.374.374.371,2.253-.014,4.5-.008,6.751-.008H49.43c.891,0,.873,0,.9-.89.009-.337-.082-.411-.416-.41" transform="translate(-20.551 -42.819)"/>
      <path id="Trazado_131725" data-name="Trazado 131725" d="M39.08,58.065c-.006.3.071.374.373.372,2.021-.015,4.041-.008,6.064-.008h5.619c.892,0,.874,0,.9-.889.01-.338-.079-.415-.414-.414-3.868.013-7.735.009-11.6.009-.935,0-.92,0-.94.93" transform="translate(-22.261 -32.541)"/>
      <path id="Trazado_131726" data-name="Trazado 131726" d="M39.465,15.183l-.006,0a3.114,3.114,0,0,0,3.44-.443c.389-.306.381-.316,0-.65a3.545,3.545,0,0,1-.331-.3c-.181-.2-.3-.227-.544-.023a1.885,1.885,0,0,1-2.537-.114,1.926,1.926,0,0,1-.222-2.537,1.958,1.958,0,0,1,2.528-.547c.193.106.319.4.544.331.2-.063.35-.283.523-.433a1.137,1.137,0,0,1,.151-.133c.274-.161.2-.3,0-.47A3.132,3.132,0,0,0,39.551,9.3a3.209,3.209,0,0,0-.086,5.879" transform="translate(-21.409 -5.137)"/>
      <path id="Trazado_131727" data-name="Trazado 131727" d="M27.431,64.457c2.574-.013,5.147-.008,7.721-.008.983,0,.973,0,.979-.97,0-.265-.066-.331-.331-.331q-1.041.01-2.081.009H28c-.935,0-.921,0-.939.927-.006.3.072.374.373.373" transform="translate(-15.413 -35.971)"/>
      <path id="Trazado_131728" data-name="Trazado 131728" d="M36.044,29.523c-.028.254.062.312.309.309q.889-.01,1.779-.009h4.731c.957,0,.943,0,.958-.951,0-.286-.072-.352-.353-.349-2.142.012-4.285,0-6.426.009-.319,0-.738-.138-.931.057s-.029.616-.067.934" transform="translate(-20.515 -16.226)"/>
      <path id="Trazado_131729" data-name="Trazado 131729" d="M39.056,35.886H42.9c.961,0,.949,0,.961-.947,0-.279-.06-.356-.349-.354-2.155.014-4.312.007-6.468.007-.97,0-.961,0-.961.987,0,.244.051.317.308.313.89-.01,1.779-.008,2.668-.006" transform="translate(-20.552 -19.701)"/>
      <path id="Trazado_131730" data-name="Trazado 131730" d="M43.508,40.6c-2.156.013-4.312.007-6.468.007-.968,0-.958,0-.959.989,0,.248.058.315.31.312.889-.011,1.779-.009,2.667-.007H42.9c.958,0,.946,0,.96-.949,0-.283-.066-.354-.351-.352" transform="translate(-20.553 -23.127)"/>
      <path id="Trazado_131731" data-name="Trazado 131731" d="M43.49,46.616c-2.142.015-4.285.008-6.426.008-.982,0-.972,0-.978.97,0,.265.066.331.331.331,1.186-.015,2.371-.006,3.557-.006h2.95c.935,0,.92,0,.939-.927,0-.309-.075-.379-.374-.376" transform="translate(-20.556 -26.554)"/>
      <path id="Trazado_131732" data-name="Trazado 131732" d="M25.95,75.178c-.566.011-1.131.009-1.7.006H22.031c-.983,0-.972,0-.979.97,0,.265.066.331.331.331,1.293-.014,2.583-.007,3.88-.007.994,0,.989,0,.977-1.01,0-.23-.062-.3-.291-.291" transform="translate(-11.992 -42.824)"/>
      <path id="Trazado_131733" data-name="Trazado 131733" d="M63.721,63.149c-.861.018-1.722.006-2.584.006-1.028,0-1.022,0-1,1.028,0,.2.047.278.265.272.276-.008.552-.009.828-.009s.553,0,.829,0h1.01c.97,0,.961,0,.961-.987,0-.243-.054-.317-.309-.313" transform="translate(-34.253 -35.972)"/>
      <path id="Trazado_131734" data-name="Trazado 131734" d="M30.361,58.45c.662-.015,1.32-.019,1.979,0,.265.008.331-.071.331-.331-.006-.968,0-.968-.979-.968h-.647c-.994,0-.987,0-.975,1.012,0,.231.062.292.29.287" transform="translate(-17.128 -32.555)"/>
      <path id="Trazado_131735" data-name="Trazado 131735" d="M52.434,63.166h-.323c-1.06,0-1.06,0-1.009,1.06.007.155.015.244.212.241.729-.011,1.457-.006,2.182,0,.123,0,.182-.019.2-.168.144-1.043.078-1.126-.941-1.126Z" transform="translate(-29.1 -35.982)"/>
      <path id="Trazado_131736" data-name="Trazado 131736" d="M21.7,64.46c.655,0,.655,0,.655-.639,0-.655,0-.655-.638-.655-.655,0-.655,0-.655.639,0,.655,0,.655.639.655" transform="translate(-12 -35.982)"/>
      <path id="Trazado_131737" data-name="Trazado 131737" d="M72.082,28.576c-1.172.015-2.344.006-3.517.006h-2.99c-.935,0-.921,0-.939.927-.006.306.071.377.373.375,2.142-.015,4.285-.008,6.426-.008.983,0,.973,0,.979-.97,0-.265-.066-.331-.331-.331" transform="translate(-36.819 -16.278)"/>
      <path id="Trazado_131738" data-name="Trazado 131738" d="M72.082,34.591c-1.185.015-2.372.006-3.557.006H65.574c-.935,0-.92,0-.939.927-.006.3.072.374.373.372,2.142-.015,4.285-.008,6.426-.008.982,0,.972,0,.978-.97,0-.262-.067-.331-.33-.327" transform="translate(-36.818 -19.704)"/>
      <path id="Trazado_131739" data-name="Trazado 131739" d="M7.89,38.9c2.142-.015,4.285-.008,6.426-.008.982,0,.972,0,.978-.97,0-.265-.066-.331-.331-.331-1.185.015-2.371.006-3.557.006H8.455c-.935,0-.92,0-.939.927-.005.308.074.378.374.376" transform="translate(-4.281 -21.414)"/>
      <path id="Trazado_131740" data-name="Trazado 131740" d="M14.364,44.909c.935,0,.92,0,.939-.927.006-.3-.071-.374-.373-.372-2.142.014-4.285.007-6.426.007-.982,0-.972,0-.978.97,0,.265.066.331.331.331,1.171-.015,2.344-.007,3.516-.007Z" transform="translate(-4.287 -24.842)"/>
    </g>
  </g>
</svg>
