<svg xmlns="http://www.w3.org/2000/svg" xmlns:xlink="http://www.w3.org/1999/xlink" width="59.538" height="59.538" viewBox="0 0 59.538 59.538">
  <defs>
    <clipPath id="clip-path">
      <rect id="Rectángulo_37889" data-name="Rectángulo 37889" width="29.171" height="30.893" transform="translate(0 0)" fill="none"/>
    </clipPath>
  </defs>
  <g id="Grupo_157918" data-name="Grupo 157918" transform="translate(-0.122 -0.013)">
    <path id="Trazado_127482" data-name="Trazado 127482" d="M29.769,0A29.769,29.769,0,1,1,0,29.769,29.769,29.769,0,0,1,29.769,0Z" transform="translate(0.122 0.013)" fill="#b0c8cb"/>
    <g id="Grupo_156595" data-name="Grupo 156595" transform="translate(9.021 10.224)">
      <path id="Trazado_127053" data-name="Trazado 127053" d="M14.667,122.237c.273.061.336-.068.334-.323-.007-.639,0-.65.665-.646.246,0,.323-.075.318-.318,0-.227-.046-.332-.308-.331-.663,0-.68-.011-.673-.673,0-.3-.144-.305-.366-.307s-.337.035-.337.3c0,.67-.014.682-.669.68-.253,0-.313.09-.314.326s.059.325.313.324c.668,0,.684.009.669.641-.007.294.1.379.368.328" transform="translate(24.796 -96.183)" fill="#29c4bb"/>
      <path id="Trazado_127054" data-name="Trazado 127054" d="M212.981,151.153c-.244-.047-.38.034-.34.311.034.232-.046.36-.3.321s-.343.053-.345.323.113.348.354.315.3.069.3.3c-.007.359.215.5.562.388.165-.052.129-.183.118-.287-.029-.284.036-.457.371-.4.259.044.275-.118.274-.317s-.008-.36-.271-.319c-.283.044-.417-.06-.37-.359s-.138-.3-.35-.273" transform="translate(-211.994 -120.843)" fill="#29c4bb"/>
      <path id="Trazado_127055" data-name="Trazado 127055" d="M207.47,68.616c-.063.273.062.366.317.323.277-.047.39.067.341.342s.068.33.326.332.366-.076.32-.335c-.049-.276.066-.389.34-.338s.309-.1.319-.334c.013-.28-.1-.353-.34-.311-.265.046-.364-.064-.319-.323s-.037-.348-.313-.338c-.244.009-.384.043-.332.322s-.069.384-.341.339c-.256-.043-.38.049-.317.321" transform="translate(-205.475 -63.854)" fill="#010000"/>
      <path id="Trazado_127056" data-name="Trazado 127056" d="M51.8,185.982c-.06.254.066.348.32.3.3-.054.369.1.326.353-.047.28.088.323.334.322s.361-.055.312-.308c-.065-.332.1-.414.388-.365s.28-.135.281-.336,0-.36-.269-.308c-.357.071-.448-.1-.4-.42s-.187-.218-.342-.227-.348-.031-.3.234c.059.328-.056.48-.4.413-.29-.056-.254.146-.246.34" transform="translate(-20.487 -147.133)" fill="#010000"/>
      <path id="Trazado_127057" data-name="Trazado 127057" d="M123.727,16.785c.068-.29-.092-.347-.33-.312s-.344-.065-.306-.309-.035-.354-.314-.348c-.257.005-.374.072-.33.336s-.079.359-.333.321c-.235-.035-.353.021-.354.308s.109.373.366.332.363.08.321.333c-.047.284.105.316.344.321.255.005.338-.091.3-.325-.041-.257.054-.374.322-.329s.373-.064.315-.329" transform="translate(-104.142 -15.817)" fill="#29c4bb"/>
    </g>
    <g id="Grupo_158048" data-name="Grupo 158048" transform="translate(15.122 14.013)">
      <g id="Grupo_158048-2" data-name="Grupo 158048" transform="translate(0 0)" clip-path="url(#clip-path)">
        <path id="Trazado_131665" data-name="Trazado 131665" d="M1.037,41.612q0-.353.005-.706a1.282,1.282,0,0,0,.17-.751q-.013-1.081,0-2.163a1.249,1.249,0,0,0-.168-.719q0-.36-.006-.72a1.334,1.334,0,0,0,.169-.786q-.007-1.577,0-3.153c0-.5.065-.564.573-.564q12.4,0,24.8,0c.532,0,.592.057.592.578q0,3.761,0,7.522c0,.16.048.371-.112.453s-.3-.093-.421-.187a7.768,7.768,0,0,0-8.653-.5,1.352,1.352,0,0,1-.409.2c-.49.038-.981.011-1.471.021-.544.011-.7.165-.7.71,0,.48-.01.96.006,1.439a8.77,8.77,0,0,1-.473.934,7.671,7.671,0,0,0,.647,7.89c.1.15.311.3.222.478s-.335.112-.516.112c-4.019,0-8.038-.014-12.057.013a1.968,1.968,0,0,1-2.026-2.026q0-3.219,0-6.439c0-.285-.007-.57,0-.854a1.253,1.253,0,0,0-.174-.784" transform="translate(-0.767 -23.717)" fill="#71c9f4"/>
        <path id="Trazado_131666" data-name="Trazado 131666" d="M.269,17.895c.264.062.278.258.277.482,0,2.518.016,5.036-.011,7.553A1.912,1.912,0,0,0,2.5,27.912c4.083-.028,8.166-.011,12.25-.011.084,0,.168-.008.262-.013a7.918,7.918,0,0,1-.424-9.333,1.876,1.876,0,0,1,.57-.859,5.065,5.065,0,0,1,1.612-1.362A8.663,8.663,0,0,1,19.476,15.2a7.784,7.784,0,0,1,6.659,1.577l.106.081c.106-.06.054-.158.054-.233,0-2.617,0-5.233.008-7.849,0-.245-.046-.335-.318-.335Q13.422,8.451.86,8.44c-.268,0-.324.082-.321.332.012,1.2,0,2.409.009,3.613,0,.221-.038.39-.277.451-.214-.066-.265-.216-.265-.429C.011,9.778,0,7.15.012,4.522A2.342,2.342,0,0,1,2.357,2.186c.931-.006,1.862-.014,2.793.005.3.006.386-.067.378-.372A1.663,1.663,0,0,1,6.506.2a1.722,1.722,0,0,1,1.86.154,2.123,2.123,0,0,1,.647.851.7.7,0,0,1,.165.579c0,.224.093.319.315.308A.986.986,0,0,1,10,2.175c2.505,0,5.01,0,7.515.016.274,0,.235-.143.234-.306a1.739,1.739,0,0,1,1.1-1.736A1.771,1.771,0,0,1,21.1.915c.054.095.1.193.151.29a.769.769,0,0,1,.156.585c-.006.225.1.316.315.307a1.124,1.124,0,0,1,.576.081c.632,0,1.264.029,1.894,0a2.464,2.464,0,0,1,2.424,1.335,1.3,1.3,0,0,1,.31,1.005c0,1.336,0,2.671,0,4.007,0,2.77,0,5.54-.005,8.31a1.236,1.236,0,0,0,.3.866,7.9,7.9,0,0,1,1.912,4.456,7.994,7.994,0,0,1-10.485,8.317,7.8,7.8,0,0,1-2.857-1.692.752.752,0,0,0-.533-.208c-.515,0-1.029,0-1.544,0q-5.4,0-10.806,0a7.974,7.974,0,0,1-1.045-.092.62.62,0,0,1-.459-.225,2.551,2.551,0,0,1-1.4-2.5c.03-2.469.011-4.94.006-7.41,0-.214.021-.395.263-.461" transform="translate(0 0)"/>
        <path id="Trazado_131667" data-name="Trazado 131667" d="M.312,52.143a.342.342,0,0,1,.267.391q-.009,1.429,0,2.858c0,.2-.052.344-.268.384a.306.306,0,0,1-.262-.353q.007-1.46,0-2.92a.332.332,0,0,1,.264-.36" transform="translate(-0.035 -38.588)" fill="#3a2e5f"/>
        <path id="Trazado_131668" data-name="Trazado 131668" d="M33.168,42.617c0-.416,0-.832,0-1.248,0-.379.178-.58.554-.586q1.281-.02,2.562,0a.522.522,0,0,1,.562.585q.006,1.248,0,2.5c0,.412-.188.594-.608.6q-1.231.005-2.463,0c-.434,0-.606-.183-.608-.627,0-.405,0-.81,0-1.215" transform="translate(-24.545 -30.173)" fill="#d4fafd"/>
        <path id="Trazado_131669" data-name="Trazado 131669" d="M59.6,42.631c0,.416,0,.832,0,1.249a.514.514,0,0,1-.587.582q-1.249.007-2.5,0c-.413,0-.593-.188-.594-.609q0-1.232,0-2.464a.529.529,0,0,1,.6-.606q1.232-.012,2.464,0c.432,0,.608.2.61.633,0,.405,0,.811,0,1.216" transform="translate(-41.382 -30.176)" fill="#d4fafd"/>
        <path id="Trazado_131670" data-name="Trazado 131670" d="M82.357,42.65c0,.4,0,.81,0,1.215,0,.425-.177.6-.59.606q-1.231,0-2.462,0c-.452,0-.628-.183-.629-.642q0-1.182,0-2.363c0-.464.217-.675.688-.677q1.149,0,2.3,0c.524,0,.693.169.7.68,0,.394,0,.788,0,1.182" transform="translate(-58.221 -30.183)" fill="#d4fafd"/>
        <path id="Trazado_131671" data-name="Trazado 131671" d="M12.223,44.461c-.427,0-.853,0-1.28,0a.489.489,0,0,1-.532-.529q-.012-1.3,0-2.593a.5.5,0,0,1,.551-.554c.853-.013,1.707-.011,2.56,0a.551.551,0,0,1,.564.564q.014,1.3,0,2.593a.5.5,0,0,1-.55.519c-.438.008-.875,0-1.313,0" transform="translate(-7.701 -30.175)" fill="#d4fafd"/>
        <path id="Trazado_131672" data-name="Trazado 131672" d="M10.412,64.6c0-.405,0-.81,0-1.215,0-.388.168-.592.54-.6.864-.015,1.73-.012,2.594,0a.546.546,0,0,1,.542.552q.015,1.313,0,2.627a.48.48,0,0,1-.507.493q-1.346.013-2.693,0a.471.471,0,0,1-.475-.512c-.006-.449,0-.9,0-1.346" transform="translate(-7.704 -46.455)" fill="#d4fafd"/>
        <path id="Trazado_131673" data-name="Trazado 131673" d="M34.979,66.461c-.427,0-.853,0-1.28,0a.49.49,0,0,1-.531-.53q-.011-1.3,0-2.593a.512.512,0,0,1,.559-.552q1.28-.018,2.56,0a.558.558,0,0,1,.558.6q0,1.247,0,2.495a.516.516,0,0,1-.585.584c-.427.006-.853,0-1.28,0" transform="translate(-24.541 -46.456)" fill="#d4fafd"/>
        <path id="Trazado_131674" data-name="Trazado 131674" d="M34.978,88.461c-.427,0-.853,0-1.28,0a.491.491,0,0,1-.531-.531q-.011-1.3,0-2.593a.512.512,0,0,1,.559-.552q1.28-.018,2.56,0a.55.55,0,0,1,.556.571q.012,1.28,0,2.56a.5.5,0,0,1-.552.545c-.438,0-.875,0-1.313,0" transform="translate(-24.541 -62.736)" fill="#d4fafd"/>
        <path id="Trazado_131675" data-name="Trazado 131675" d="M12.237,88.462c-.427,0-.853,0-1.28,0a.487.487,0,0,1-.545-.545q-.006-1.264,0-2.527c0-.4.183-.6.573-.6.843-.011,1.685-.01,2.527,0a.554.554,0,0,1,.577.585q.012,1.28,0,2.56a.5.5,0,0,1-.539.53c-.438.009-.875,0-1.313,0" transform="translate(-7.703 -62.737)" fill="#d4fafd"/>
        <path id="Trazado_131676" data-name="Trazado 131676" d="M58.107,62.8a8.783,8.783,0,0,0-2.182,2.221,7.75,7.75,0,0,1-.029-1.811c.016-.285.293-.415.581-.417.543,0,1.087,0,1.631.007" transform="translate(-41.336 -46.471)" fill="#d4fafd"/>
        <path id="Trazado_131677" data-name="Trazado 131677" d="M14.924,15.631q-6.242,0-12.483.008c-.316,0-.4-.076-.4-.4.022-.985.006-1.971.009-2.956A1.823,1.823,0,0,1,3.9,10.431c.953,0,1.906.006,2.858-.006.235,0,.3.073.292.3-.015.492-.01.985,0,1.478a1.739,1.739,0,0,0,1.747,1.719,1.757,1.757,0,0,0,1.8-1.708c.012-.514.009-1.029,0-1.544,0-.188.061-.243.245-.242q4.09.007,8.18,0c.2,0,.265.06.26.261-.012.481-.006.963,0,1.445a1.775,1.775,0,1,0,3.549.018c.006-.493.008-.986,0-1.478,0-.184.056-.247.243-.246,1.018.007,2.037-.009,3.055.008a1.818,1.818,0,0,1,1.694,1.771c.009,1.04-.006,2.081.008,3.121,0,.25-.073.31-.315.309-1.927-.009-3.854-.005-5.782-.005h-6.8" transform="translate(-1.512 -7.715)" fill="#178aeb"/>
        <path id="Trazado_131678" data-name="Trazado 131678" d="M67.317,65.672a6.593,6.593,0,0,1,.547,2.962,7.314,7.314,0,0,1-1.807,4.617,7.31,7.31,0,0,1-10.162.907,7.215,7.215,0,0,1-2.732-6.2,7.008,7.008,0,0,1,.4-1.983c.035-.1.062-.213.174-.267a5.067,5.067,0,0,1,.932-1.494A7.429,7.429,0,0,1,59.5,61.6a7.555,7.555,0,0,1,7.078,2.886,11.629,11.629,0,0,1,.742,1.184" transform="translate(-39.336 -45.539)" fill="#ba608a"/>
        <path id="Trazado_131679" data-name="Trazado 131679" d="M23.3,4.69c0-.449-.007-.9,0-1.347a1.244,1.244,0,0,1,2.488-.011q.022,1.346,0,2.694A1.245,1.245,0,0,1,23.3,6c-.007-.438,0-.876,0-1.314" transform="translate(-17.242 -1.567)" fill="#d4fafd"/>
        <path id="Trazado_131680" data-name="Trazado 131680" d="M72.825,4.691c0,.449.008.9,0,1.347a1.244,1.244,0,0,1-2.486.021c-.018-.908-.015-1.817,0-2.726a1.244,1.244,0,0,1,2.488.012c.009.449,0,.9,0,1.347" transform="translate(-52.042 -1.567)" fill="#d4fafd"/>
        <path id="Trazado_131681" data-name="Trazado 131681" d="M68.966,64.387c-.155-.036-.172-.189-.237-.294A7.5,7.5,0,0,0,63.159,60.4a7.588,7.588,0,0,0-7.615,3.772c-.049.084-.1.166-.156.249a.538.538,0,0,1,.095-.341,7.345,7.345,0,0,1,13.483.306" transform="translate(-40.984 -44.254)" fill="#fefefe"/>
        <path id="Trazado_131682" data-name="Trazado 131682" d="M37.8,43.545c-.031.059-.066.139-.112.211-.367.569-.734,1.139-1.107,1.7-.192.291-.314.3-.572.064-.225-.208-.445-.421-.669-.629-.136-.127-.264-.27-.1-.445s.308-.077.457.048c.187.158.34.486.557.441.169-.035.277-.364.409-.565.21-.32.417-.641.625-.962a.279.279,0,0,1,.335-.14c.118.035.168.129.18.273" transform="translate(-26.024 -32.012)" fill="#3a2f5f"/>
        <path id="Trazado_131683" data-name="Trazado 131683" d="M58.062,44.343c.213.042.326.233.476.37.316.288.311.293.536-.054.262-.4.527-.8.785-1.209.106-.166.238-.287.426-.164s.116.3.013.458c-.369.568-.734,1.138-1.106,1.7-.186.282-.308.3-.548.081-.259-.235-.51-.479-.763-.721a.255.255,0,0,1-.072-.324.268.268,0,0,1,.252-.141" transform="translate(-42.758 -31.996)" fill="#3a2f5f"/>
        <path id="Trazado_131684" data-name="Trazado 131684" d="M83.619,43.51a.353.353,0,0,1-.09.239c-.374.577-.753,1.152-1.123,1.732-.153.239-.32.278-.531.077q-.369-.351-.738-.7c-.135-.128-.208-.275-.053-.423.133-.127.282-.083.409.036.024.022.047.046.07.068.512.476.511.476.886-.1.226-.348.455-.694.681-1.042a.267.267,0,0,1,.34-.118.214.214,0,0,1,.148.23" transform="translate(-59.94 -32.013)" fill="#3a2f5f"/>
        <path id="Trazado_131685" data-name="Trazado 131685" d="M13.538,45.675a.368.368,0,0,1-.232-.11c-.255-.24-.509-.48-.765-.719-.137-.128-.2-.277-.055-.425.131-.131.28-.086.408.031l.1.09c.491.459.491.459.865-.118.214-.33.432-.657.642-.99.1-.159.233-.259.406-.156.2.118.142.287.033.452q-.567.862-1.127,1.73a.391.391,0,0,1-.272.215" transform="translate(-9.178 -31.997)" fill="#3a2f5f"/>
        <path id="Trazado_131686" data-name="Trazado 131686" d="M13.564,67.679a3.5,3.5,0,0,1-1.129-1.058.224.224,0,0,1,.106-.224.269.269,0,0,1,.335.029,4.22,4.22,0,0,1,.429.4c.161.189.243.124.352-.052.27-.436.558-.862.835-1.294.108-.168.235-.327.445-.192s.106.317,0,.482q-.548.836-1.09,1.675c-.072.111-.143.223-.281.231" transform="translate(-9.202 -48.28)" fill="#3a2f5f"/>
        <path id="Trazado_131687" data-name="Trazado 131687" d="M37.792,65.436a.4.4,0,0,1-.086.314c-.374.578-.747,1.157-1.127,1.731-.183.277-.306.29-.548.067s-.477-.451-.717-.674c-.136-.127-.212-.274-.062-.423s.3-.08.433.046.278.249.4.386.193.108.286-.041c.295-.473.6-.936.908-1.4a.291.291,0,0,1,.327-.161.233.233,0,0,1,.185.16" transform="translate(-26.026 -48.3)" fill="#3a2f5f"/>
        <path id="Trazado_131688" data-name="Trazado 131688" d="M37.8,87.519a.431.431,0,0,1-.1.244c-.369.569-.735,1.138-1.108,1.7-.2.3-.314.311-.569.076s-.477-.451-.717-.675c-.126-.118-.2-.255-.068-.4s.291-.106.431.017c.024.022.048.045.072.067.514.47.513.47.887-.107.22-.339.442-.677.662-1.017a.282.282,0,0,1,.331-.149.242.242,0,0,1,.181.238" transform="translate(-26.028 -64.581)" fill="#3a2f5f"/>
        <path id="Trazado_131689" data-name="Trazado 131689" d="M15.04,87.55c-.036.068-.07.147-.117.219-.367.569-.734,1.138-1.106,1.7-.193.293-.311.3-.57.067-.233-.215-.461-.435-.693-.651-.132-.123-.226-.266-.083-.423s.311-.083.454.048c.176.161.381.462.532.438.23-.037.308-.383.455-.595.212-.3.407-.621.609-.933a.281.281,0,0,1,.335-.141c.119.036.161.137.184.268" transform="translate(-9.176 -64.582)" fill="#3a2f5f"/>
        <path id="Trazado_131690" data-name="Trazado 131690" d="M64.413,77.3a5.711,5.711,0,0,1-4.846-3.091,5.817,5.817,0,0,1,.6-6.439A5.67,5.67,0,0,1,64.953,65.6a5.836,5.836,0,0,1,4.119,9.742,5.98,5.98,0,0,1-3.517,1.919,4.253,4.253,0,0,1-.49.035,2.141,2.141,0,0,1-.652,0" transform="translate(-43.563 -48.544)" fill="#3a2e5f"/>
        <path id="Trazado_131691" data-name="Trazado 131691" d="M80.2,110.6h.652a.868.868,0,0,1-.652,0" transform="translate(-59.353 -81.849)" fill="#a85883"/>
        <path id="Trazado_131692" data-name="Trazado 131692" d="M66.253,78.243a5.347,5.347,0,1,1,5.339-5.353,5.348,5.348,0,0,1-5.339,5.353" transform="translate(-45.076 -49.989)" fill="#fdd6e4"/>
        <path id="Trazado_131693" data-name="Trazado 131693" d="M72.978,75.109c0,.668-.008,1.335,0,2,0,.293-.1.413-.4.409-.853-.012-1.707-.006-2.561,0-.192,0-.377-.028-.373-.26s.185-.268.378-.267c.711,0,1.423-.012,2.134.007.255.007.3-.074.3-.312-.012-1.138-.005-2.277-.005-3.415,0-.077,0-.153,0-.23,0-.181.083-.308.263-.309s.263.128.263.309q0,1.034,0,2.069" transform="translate(-51.539 -53.824)" fill="#3a2e5f"/>
      </g>
    </g>
  </g>
</svg>
