<svg xmlns="http://www.w3.org/2000/svg" width="85.523" height="59.853" viewBox="0 0 85.523 59.853">
  <g id="Grupo_157366" data-name="Grupo 157366" transform="translate(-179.477 -574.226)">
    <path id="Trazado_99274" data-name="Trazado 99274" d="M418.688,119.934a2.239,2.239,0,1,1-2.238-2.14A2.191,2.191,0,0,1,418.688,119.934Z" transform="translate(-234.736 456.432)" fill="#1169e3"/>
    <path id="Trazado_116550" data-name="Trazado 116550" d="M418.688,119.934a2.239,2.239,0,1,1-2.238-2.14A2.191,2.191,0,0,1,418.688,119.934Z" transform="translate(-234.736 489.774)" fill="#1169e3"/>
    <path id="Trazado_116529" data-name="Trazado 116529" d="M418.688,119.934a2.239,2.239,0,1,1-2.238-2.14A2.191,2.191,0,0,1,418.688,119.934Z" transform="translate(-184.081 456.432)" fill="#1169e3"/>
    <path id="Trazado_116551" data-name="Trazado 116551" d="M418.688,119.934a2.239,2.239,0,1,1-2.238-2.14A2.191,2.191,0,0,1,418.688,119.934Z" transform="translate(-184.081 489.774)" fill="#1169e3"/>
    <path id="Trazado_99275" data-name="Trazado 99275" d="M427.134,119.934a2.239,2.239,0,1,1-2.236-2.14A2.19,2.19,0,0,1,427.134,119.934Z" transform="translate(-233.052 456.432)" fill="#1169e3"/>
    <path id="Trazado_116552" data-name="Trazado 116552" d="M427.134,119.934a2.239,2.239,0,1,1-2.236-2.14A2.19,2.19,0,0,1,427.134,119.934Z" transform="translate(-233.052 489.774)" fill="#1169e3"/>
    <path id="Trazado_116530" data-name="Trazado 116530" d="M427.134,119.934a2.239,2.239,0,1,1-2.236-2.14A2.19,2.19,0,0,1,427.134,119.934Z" transform="translate(-182.396 456.432)" fill="#1169e3"/>
    <path id="Trazado_116553" data-name="Trazado 116553" d="M427.134,119.934a2.239,2.239,0,1,1-2.236-2.14A2.19,2.19,0,0,1,427.134,119.934Z" transform="translate(-182.396 489.774)" fill="#1169e3"/>
    <path id="Trazado_99276" data-name="Trazado 99276" d="M435.58,119.934a2.239,2.239,0,1,1-2.236-2.14A2.191,2.191,0,0,1,435.58,119.934Z" transform="translate(-231.366 456.432)" fill="#1169e3"/>
    <path id="Trazado_116554" data-name="Trazado 116554" d="M435.58,119.934a2.239,2.239,0,1,1-2.236-2.14A2.191,2.191,0,0,1,435.58,119.934Z" transform="translate(-231.366 489.774)" fill="#1169e3"/>
    <path id="Trazado_116534" data-name="Trazado 116534" d="M435.58,119.934a2.239,2.239,0,1,1-2.236-2.14A2.191,2.191,0,0,1,435.58,119.934Z" transform="translate(-180.711 456.432)" fill="#1169e3"/>
    <path id="Trazado_116555" data-name="Trazado 116555" d="M435.58,119.934a2.239,2.239,0,1,1-2.236-2.14A2.191,2.191,0,0,1,435.58,119.934Z" transform="translate(-180.711 489.774)" fill="#1169e3"/>
    <path id="Trazado_99277" data-name="Trazado 99277" d="M444.027,119.934a2.239,2.239,0,1,1-2.238-2.14A2.191,2.191,0,0,1,444.027,119.934Z" transform="translate(-229.683 456.432)" fill="#1169e3"/>
    <path id="Trazado_116556" data-name="Trazado 116556" d="M444.027,119.934a2.239,2.239,0,1,1-2.238-2.14A2.191,2.191,0,0,1,444.027,119.934Z" transform="translate(-229.683 489.774)" fill="#1169e3"/>
    <path id="Trazado_116535" data-name="Trazado 116535" d="M444.027,119.934a2.239,2.239,0,1,1-2.238-2.14A2.191,2.191,0,0,1,444.027,119.934Z" transform="translate(-179.026 456.432)" fill="#1169e3"/>
    <path id="Trazado_116557" data-name="Trazado 116557" d="M444.027,119.934a2.239,2.239,0,1,1-2.238-2.14A2.191,2.191,0,0,1,444.027,119.934Z" transform="translate(-179.026 489.774)" fill="#1169e3"/>
    <path id="Trazado_99278" data-name="Trazado 99278" d="M452.473,119.934a2.239,2.239,0,1,1-2.236-2.14A2.19,2.19,0,0,1,452.473,119.934Z" transform="translate(-227.997 456.432)" fill="#1169e3"/>
    <path id="Trazado_116558" data-name="Trazado 116558" d="M452.473,119.934a2.239,2.239,0,1,1-2.236-2.14A2.19,2.19,0,0,1,452.473,119.934Z" transform="translate(-227.997 489.774)" fill="#1169e3"/>
    <ellipse id="Elipse_3980" data-name="Elipse 3980" cx="2.237" cy="2.139" rx="2.237" ry="2.139" transform="translate(179.477 585.343)" fill="#1169e3"/>
    <ellipse id="Elipse_4754" data-name="Elipse 4754" cx="2.237" cy="2.139" rx="2.237" ry="2.139" transform="translate(179.477 618.686)" fill="#1169e3"/>
    <ellipse id="Elipse_4744" data-name="Elipse 4744" cx="2.237" cy="2.139" rx="2.237" ry="2.139" transform="translate(230.133 585.343)" fill="#1169e3"/>
    <ellipse id="Elipse_4750" data-name="Elipse 4750" cx="2.237" cy="2.139" rx="2.237" ry="2.139" transform="translate(230.133 618.686)" fill="#1169e3"/>
    <path id="Trazado_99285" data-name="Trazado 99285" d="M427.134,127.442a2.239,2.239,0,1,1-2.236-2.14A2.189,2.189,0,0,1,427.134,127.442Z" transform="translate(-233.052 460.039)" fill="#1169e3"/>
    <path id="Trazado_116548" data-name="Trazado 116548" d="M427.134,127.442a2.239,2.239,0,1,1-2.236-2.14A2.189,2.189,0,0,1,427.134,127.442Z" transform="translate(-233.052 493.381)" fill="#1169e3"/>
    <path id="Trazado_116536" data-name="Trazado 116536" d="M427.134,127.442a2.239,2.239,0,1,1-2.236-2.14A2.189,2.189,0,0,1,427.134,127.442Z" transform="translate(-182.396 460.039)" fill="#1169e3"/>
    <path id="Trazado_116542" data-name="Trazado 116542" d="M427.134,127.442a2.239,2.239,0,1,1-2.236-2.14A2.189,2.189,0,0,1,427.134,127.442Z" transform="translate(-182.396 493.381)" fill="#1169e3"/>
    <ellipse id="Elipse_3981" data-name="Elipse 3981" cx="2.237" cy="2.139" rx="2.237" ry="2.139" transform="translate(199.739 585.343)" fill="#1169e3"/>
    <ellipse id="Elipse_4751" data-name="Elipse 4751" cx="2.237" cy="2.139" rx="2.237" ry="2.139" transform="translate(199.739 618.686)" fill="#1169e3"/>
    <ellipse id="Elipse_4745" data-name="Elipse 4745" cx="2.237" cy="2.139" rx="2.237" ry="2.139" transform="translate(250.395 585.343)" fill="#1169e3"/>
    <ellipse id="Elipse_4752" data-name="Elipse 4752" cx="2.237" cy="2.139" rx="2.237" ry="2.139" transform="translate(250.395 618.686)" fill="#1169e3"/>
    <path id="Trazado_99286" data-name="Trazado 99286" d="M444.027,127.442a2.239,2.239,0,1,1-2.238-2.14A2.189,2.189,0,0,1,444.027,127.442Z" transform="translate(-229.683 460.039)" fill="#1169e3"/>
    <path id="Trazado_116543" data-name="Trazado 116543" d="M444.027,127.442a2.239,2.239,0,1,1-2.238-2.14A2.189,2.189,0,0,1,444.027,127.442Z" transform="translate(-229.683 493.381)" fill="#1169e3"/>
    <path id="Trazado_116537" data-name="Trazado 116537" d="M444.027,127.442a2.239,2.239,0,1,1-2.238-2.14A2.189,2.189,0,0,1,444.027,127.442Z" transform="translate(-179.026 460.039)" fill="#1169e3"/>
    <path id="Trazado_116544" data-name="Trazado 116544" d="M444.027,127.442a2.239,2.239,0,1,1-2.238-2.14A2.189,2.189,0,0,1,444.027,127.442Z" transform="translate(-179.026 493.381)" fill="#1169e3"/>
    <path id="Trazado_99287" data-name="Trazado 99287" d="M452.473,127.442a2.239,2.239,0,1,1-2.236-2.14A2.189,2.189,0,0,1,452.473,127.442Z" transform="translate(-227.997 460.039)" fill="#1169e3"/>
    <path id="Trazado_116545" data-name="Trazado 116545" d="M452.473,127.442a2.239,2.239,0,1,1-2.236-2.14A2.189,2.189,0,0,1,452.473,127.442Z" transform="translate(-227.997 493.381)" fill="#1169e3"/>
    <ellipse id="Elipse_3985" data-name="Elipse 3985" cx="2.237" cy="2.139" rx="2.237" ry="2.139" transform="translate(179.477 596.455)" fill="#1169e3"/>
    <ellipse id="Elipse_4879" data-name="Elipse 4879" cx="2.237" cy="2.139" rx="2.237" ry="2.139" transform="translate(179.477 629.799)" fill="#1169e3"/>
    <ellipse id="Elipse_4746" data-name="Elipse 4746" cx="2.237" cy="2.139" rx="2.237" ry="2.139" transform="translate(230.133 596.455)" fill="#1169e3"/>
    <ellipse id="Elipse_4880" data-name="Elipse 4880" cx="2.237" cy="2.139" rx="2.237" ry="2.139" transform="translate(230.133 629.799)" fill="#1169e3"/>
    <path id="Trazado_99291" data-name="Trazado 99291" d="M427.134,134.95a2.239,2.239,0,1,1-2.236-2.14A2.189,2.189,0,0,1,427.134,134.95Z" transform="translate(-233.052 463.646)" fill="#1169e3"/>
    <path id="Trazado_128959" data-name="Trazado 128959" d="M427.134,134.95a2.239,2.239,0,1,1-2.236-2.14A2.189,2.189,0,0,1,427.134,134.95Z" transform="translate(-233.052 496.99)" fill="#1169e3"/>
    <path id="Trazado_116538" data-name="Trazado 116538" d="M427.134,134.95a2.239,2.239,0,1,1-2.236-2.14A2.189,2.189,0,0,1,427.134,134.95Z" transform="translate(-182.396 463.646)" fill="#1169e3"/>
    <path id="Trazado_128960" data-name="Trazado 128960" d="M427.134,134.95a2.239,2.239,0,1,1-2.236-2.14A2.189,2.189,0,0,1,427.134,134.95Z" transform="translate(-182.396 496.99)" fill="#1169e3"/>
    <ellipse id="Elipse_3986" data-name="Elipse 3986" cx="2.237" cy="2.139" rx="2.237" ry="2.139" transform="translate(199.739 596.455)" fill="#1169e3"/>
    <ellipse id="Elipse_4881" data-name="Elipse 4881" cx="2.237" cy="2.139" rx="2.237" ry="2.139" transform="translate(199.739 629.799)" fill="#1169e3"/>
    <ellipse id="Elipse_4747" data-name="Elipse 4747" cx="2.237" cy="2.139" rx="2.237" ry="2.139" transform="translate(250.395 596.455)" fill="#1169e3"/>
    <ellipse id="Elipse_4882" data-name="Elipse 4882" cx="2.237" cy="2.139" rx="2.237" ry="2.139" transform="translate(250.395 629.799)" fill="#1169e3"/>
    <path id="Trazado_99292" data-name="Trazado 99292" d="M444.027,134.95a2.239,2.239,0,1,1-2.238-2.14A2.189,2.189,0,0,1,444.027,134.95Z" transform="translate(-229.683 463.646)" fill="#1169e3"/>
    <path id="Trazado_128961" data-name="Trazado 128961" d="M444.027,134.95a2.239,2.239,0,1,1-2.238-2.14A2.189,2.189,0,0,1,444.027,134.95Z" transform="translate(-229.683 496.99)" fill="#1169e3"/>
    <path id="Trazado_116539" data-name="Trazado 116539" d="M444.027,134.95a2.239,2.239,0,1,1-2.238-2.14A2.189,2.189,0,0,1,444.027,134.95Z" transform="translate(-179.026 463.646)" fill="#1169e3"/>
    <path id="Trazado_128962" data-name="Trazado 128962" d="M444.027,134.95a2.239,2.239,0,1,1-2.238-2.14A2.189,2.189,0,0,1,444.027,134.95Z" transform="translate(-179.026 496.99)" fill="#1169e3"/>
    <path id="Trazado_99293" data-name="Trazado 99293" d="M452.473,134.95a2.239,2.239,0,1,1-2.236-2.14A2.189,2.189,0,0,1,452.473,134.95Z" transform="translate(-227.997 463.646)" fill="#1169e3"/>
    <path id="Trazado_128963" data-name="Trazado 128963" d="M452.473,134.95a2.239,2.239,0,1,1-2.236-2.14A2.189,2.189,0,0,1,452.473,134.95Z" transform="translate(-227.997 496.99)" fill="#1169e3"/>
  </g>
</svg>
