<svg id="Grupo_156636" data-name="Grupo 156636" xmlns="http://www.w3.org/2000/svg" xmlns:xlink="http://www.w3.org/1999/xlink" width="59.537" height="59.537" viewBox="0 0 59.537 59.537">
  <defs>
    <clipPath id="clip-path">
      <rect id="Rectángulo_37895" data-name="Rectángulo 37895" width="30.634" height="38.478" fill="none"/>
    </clipPath>
  </defs>
  <path id="Trazado_127482" data-name="Trazado 127482" d="M29.769,0A29.769,29.769,0,1,1,0,29.769,29.769,29.769,0,0,1,29.769,0Z" fill="#0c487b"/>
  <g id="Grupo_156595" data-name="Grupo 156595" transform="translate(9.021 10.224)">
    <path id="Trazado_127053" data-name="Trazado 127053" d="M14.667,122.237c.273.061.336-.068.334-.323-.007-.639,0-.65.665-.646.246,0,.323-.075.318-.318,0-.227-.046-.332-.308-.331-.663,0-.68-.011-.673-.673,0-.3-.144-.305-.366-.307s-.337.035-.337.3c0,.67-.014.682-.669.68-.253,0-.313.09-.314.326s.059.325.313.324c.668,0,.684.009.669.641-.007.294.1.379.368.328" transform="translate(24.796 -96.183)" fill="#29c4bb"/>
    <path id="Trazado_127054" data-name="Trazado 127054" d="M212.981,151.153c-.244-.047-.38.034-.34.311.034.232-.046.36-.3.321s-.343.053-.345.323.113.348.354.315.3.069.3.3c-.007.359.215.5.562.388.165-.052.129-.183.118-.287-.029-.284.036-.457.371-.4.259.044.275-.118.274-.317s-.008-.36-.271-.319c-.283.044-.417-.06-.37-.359s-.138-.3-.35-.273" transform="translate(-211.994 -120.843)" fill="#29c4bb"/>
    <path id="Trazado_127055" data-name="Trazado 127055" d="M207.47,68.616c-.063.273.062.366.317.323.277-.047.39.067.341.342s.068.33.326.332.366-.076.32-.335c-.049-.276.066-.389.34-.338s.309-.1.319-.334c.013-.28-.1-.353-.34-.311-.265.046-.364-.064-.319-.323s-.037-.348-.313-.338c-.244.009-.384.043-.332.322s-.069.384-.341.339c-.256-.043-.38.049-.317.321" transform="translate(-205.475 -63.854)" fill="#010000"/>
    <path id="Trazado_127056" data-name="Trazado 127056" d="M51.8,185.982c-.06.254.066.348.32.3.3-.054.369.1.326.353-.047.28.088.323.334.322s.361-.055.312-.308c-.065-.332.1-.414.388-.365s.28-.135.281-.336,0-.36-.269-.308c-.357.071-.448-.1-.4-.42s-.187-.218-.342-.227-.348-.031-.3.234c.059.328-.056.48-.4.413-.29-.056-.254.146-.246.34" transform="translate(-20.487 -147.133)" fill="#010000"/>
    <path id="Trazado_127057" data-name="Trazado 127057" d="M123.727,16.785c.068-.29-.092-.347-.33-.312s-.344-.065-.306-.309-.035-.354-.314-.348c-.257.005-.374.072-.33.336s-.079.359-.333.321c-.235-.035-.353.021-.354.308s.109.373.366.332.363.08.321.333c-.047.284.105.316.344.321.255.005.338-.091.3-.325-.041-.257.054-.374.322-.329s.373-.064.315-.329" transform="translate(-104.142 -15.817)" fill="#29c4bb"/>
  </g>
  <g id="Grupo_158056" data-name="Grupo 158056" transform="translate(14.803 10.529)">
    <g id="Grupo_158056-2" data-name="Grupo 158056" clip-path="url(#clip-path)">
      <path id="Trazado_131870" data-name="Trazado 131870" d="M4.073,30.487c-.465.313-.849.6-1.262.839-.385.222-.706.737-1.244.445-.517-.28-.262-.818-.314-1.249a2.415,2.415,0,0,1,0-.5c.02-.222-.07-.275-.284-.281-.869-.024-.955-.124-.957-1Q.005,26.159,0,23.581c0-.61.178-.787.791-.792.97-.008,1.941-.022,2.911-.015.261,0,.361-.056.36-.343q-.016-4.3,0-8.61c0-.274-.075-.358-.35-.349-.554.019-1.109.007-1.663,0A1.357,1.357,0,0,1,.593,12.013Q.588,10.475.6,8.936a1.355,1.355,0,0,1,1.471-1.48c.554-.008,1.109-.011,1.663.011.277.011.351-.079.349-.351C4.067,5.507,4.071,3.9,4.074,2.291A2.088,2.088,0,0,1,6.335,0Q15.319,0,24.3,0a2.081,2.081,0,0,1,2.256,2.252c0,1.331.007,2.662,0,3.992,0,.269.033.393.35.46a4.668,4.668,0,0,1,0,9.144c-.249.056-.359.128-.356.416.018,1.5.014,2.995,0,4.492,0,.253.067.348.325.415a4.669,4.669,0,0,1,.011,9.044c-.267.07-.338.178-.337.446.013,1.844.009,3.688.006,5.531a2.088,2.088,0,0,1-2.273,2.278q-8.963.006-17.927,0a2.1,2.1,0,0,1-2.285-2.307q0-2.6,0-5.2v-.483" transform="translate(0 0.001)"/>
      <path id="Trazado_131871" data-name="Trazado 131871" d="M36.317,27.524c3.2,0,6.4.006,9.607-.008.351,0,.528.062.454.445a.7.7,0,0,0,0,.249c.06.341-.08.454-.421.532a4.662,4.662,0,0,0,.029,9.111c.32.071.4.191.4.514-.021,1.414-.018,2.828,0,4.242,0,.312-.046.445-.4.5a4.667,4.667,0,0,0,.016,9.217c.271.04.435.106.387.432-.052.351.151.826-.089,1.031-.2.175-.661.064-1.006.064q-9.274,0-18.548.01c-.377,0-.511-.089-.478-.477a9.789,9.789,0,0,0,0-1.288c-.013-.268.064-.357.344-.353,1,.014,2,0,2.994,0,.552,0,.755-.2.755-.746q0-2.745-.016-5.489c0-.518-.213-.735-.732-.737-.984,0-1.968,0-2.952.015-.28.005-.382-.061-.381-.364q.017-4.283,0-8.567c0-.3.1-.369.381-.357.526.022,1.053.011,1.58.006a1.368,1.368,0,0,0,1.485-1.434q.028-1.58.007-3.16a1.33,1.33,0,0,0-1.408-1.412c-.582-.013-1.164-.021-1.746-.012-.231,0-.32-.063-.31-.305a10.991,10.991,0,0,0,0-1.247c-.023-.329.081-.412.409-.411,3.216.013,6.432.008,9.648.008" transform="translate(-21.005 -22.014)" fill="#e0eff4"/>
      <path id="Trazado_131872" data-name="Trazado 131872" d="M36.333,165.258c3.2,0,6.4,0,9.6-.007.337,0,.457.078.447.434-.025.9,0,1.8-.009,2.7,0,.762-.357,1.112-1.127,1.112q-8.957,0-17.914,0a.956.956,0,0,1-1.079-1.072c-.007-.914.015-1.829-.01-2.743-.01-.358.113-.434.448-.433,3.214.012,6.429.007,9.643.007" transform="translate(-20.995 -132.21)" fill="#58727f"/>
      <path id="Trazado_131873" data-name="Trazado 131873" d="M36.308,9.032c-3.2,0-6.4-.005-9.6.008-.353,0-.5-.072-.472-.455.034-.51,0-1.025.009-1.538a.965.965,0,0,1,1.095-1.1q8.938,0,17.876,0c.8,0,1.146.344,1.151,1.131,0,.513-.018,1.027.007,1.538.016.328-.087.427-.419.423-1.469-.017-2.938-.007-4.407-.007H36.308" transform="translate(-20.985 -4.757)" fill="#58727f"/>
      <path id="Trazado_131874" data-name="Trazado 131874" d="M114.746,118.112a3.468,3.468,0,1,1,3.435-3.608,3.471,3.471,0,0,1-3.435,3.608" transform="translate(-88.983 -88.952)" fill="#baebfe"/>
      <path id="Trazado_131875" data-name="Trazado 131875" d="M9.435,119.862c1.039,0,2.079.007,3.118-.005.249,0,.337.062.335.323q-.013,1.975.009,3.95c0,.239-.076.308-.309.306-.9-.009-1.8,0-2.7,0a1.035,1.035,0,0,0-.623.181c-.592.41-1.19.81-1.789,1.21-.075.05-.149.157-.252.1s-.038-.177-.048-.267a2.3,2.3,0,0,1,0-.249c0-.828-.107-.951-.917-.952-.268,0-.322-.092-.321-.336.006-1.3,0-2.605-.014-3.908,0-.287.1-.342.358-.339,1.053.013,2.106.005,3.16.005v-.012" transform="translate(-4.734 -95.892)" fill="#bee59e"/>
      <path id="Trazado_131876" data-name="Trazado 131876" d="M115.924,39.169a3.458,3.458,0,1,1-3.469,3.441,3.452,3.452,0,0,1,3.469-3.441" transform="translate(-89.97 -31.337)" fill="#baebfe"/>
      <path id="Trazado_131877" data-name="Trazado 131877" d="M8.952,46.822l1.823,1.558a1.4,1.4,0,0,0,2.1-.009c.573-.49,1.149-.977,1.787-1.519,0,.937,0,1.788,0,2.64,0,.185-.1.235-.26.234q-2.594-.007-5.188-.007c-.169,0-.267-.057-.267-.234,0-.853,0-1.706,0-2.664" transform="translate(-7.162 -37.46)" fill="#fee682"/>
      <path id="Trazado_131878" data-name="Trazado 131878" d="M14.32,43.459h3.6c-.6.509-1.13.96-1.659,1.412-.14.12-.248.056-.362-.044-.5-.435-1-.867-1.583-1.368" transform="translate(-11.457 -34.77)" fill="#eacc6c"/>
      <path id="Trazado_131879" data-name="Trazado 131879" d="M51.046,61.519a6.378,6.378,0,1,1-6.387,6.353,6.379,6.379,0,0,1,6.387-6.353" transform="translate(-35.73 -49.219)"/>
      <path id="Trazado_131880" data-name="Trazado 131880" d="M65,172.8c.705,0,1.41,0,2.115,0,.5,0,.788.226.8.6.016.338-.363.635-.825.636q-2.074,0-4.148,0c-.5,0-.828-.265-.815-.638s.3-.595.794-.6c.691,0,1.383,0,2.074,0" transform="translate(-49.71 -138.247)"/>
      <path id="Trazado_131881" data-name="Trazado 131881" d="M121.267,119.335c0-.526-.014-1.053,0-1.579.022-.646.478-.893,1.017-.549q1.207.77,2.394,1.572c.519.349.511.8-.017,1.151q-1.173.785-2.359,1.55c-.548.353-1.019.1-1.036-.566-.013-.526,0-1.053,0-1.579" transform="translate(-97.017 -93.648)"/>
      <path id="Trazado_131882" data-name="Trazado 131882" d="M13.083,132.848c.61,0,1.219,0,1.829,0,.449,0,.709.212.727.568.019.382-.229.633-.7.64q-1.891.026-3.783.012a.613.613,0,0,1-.671-.593.622.622,0,0,1,.687-.618c.637-.01,1.275,0,1.912,0v-.007" transform="translate(-8.387 -106.285)"/>
      <path id="Trazado_131883" data-name="Trazado 131883" d="M13.078,124.911c-.623,0-1.247.006-1.87,0-.471-.006-.741-.235-.742-.605s.278-.607.737-.609q1.85-.01,3.7-.006c.442,0,.707.221.72.576.014.384-.24.61-.716.616-.609.007-1.218,0-1.828,0v.029" transform="translate(-8.373 -98.957)"/>
      <path id="Trazado_131884" data-name="Trazado 131884" d="M119.185,45.992c.452.252.994.025,1.543,0a1.653,1.653,0,0,1,1.58,2.22,3.914,3.914,0,0,1-2.069,2.42.558.558,0,0,1-.518.032,3.778,3.778,0,0,1-2.257-2.782,1.661,1.661,0,0,1,1.722-1.886" transform="translate(-93.958 -36.791)"/>
      <path id="Trazado_131885" data-name="Trazado 131885" d="M55.905,77.857a5.172,5.172,0,1,1,5.183-5.127,5.163,5.163,0,0,1-5.183,5.127" transform="translate(-40.602 -54.013)" fill="#a5dafe"/>
      <path id="Trazado_131886" data-name="Trazado 131886" d="M127.472,125.735l.819.534a3.8,3.8,0,0,1-.819.577Z" transform="translate(-101.985 -100.595)" fill="#e26652"/>
      <path id="Trazado_131887" data-name="Trazado 131887" d="M126.016,52.5a2.745,2.745,0,0,1-1.131,1.675.264.264,0,0,1-.3-.061,2.88,2.88,0,0,1-1.018-1.283c-.1-.253-.15-.529.108-.72.241-.179.459-.071.671.1a.588.588,0,0,0,.857-.044.505.505,0,0,1,.574-.117.417.417,0,0,1,.239.446" transform="translate(-98.796 -41.609)" fill="#f3b9a5"/>
      <path id="Trazado_131888" data-name="Trazado 131888" d="M54.883,78.442A1.661,1.661,0,0,1,57.4,77.217a.59.59,0,0,0,.68.036,4.818,4.818,0,0,1,.495-.213,1.322,1.322,0,0,0,1.015-1.006,1.574,1.574,0,0,1,2.224-.934,1.656,1.656,0,0,1,.759,2.316,1.632,1.632,0,0,1-2.36.582.594.594,0,0,0-.7-.056c-.359.177-.734.322-1.1.475-.109.045-.2.089-.192.231s.1.156.186.193c.444.193.893.373,1.333.574.2.094.307-.052.439-.14a1.666,1.666,0,1,1-.153,2.629,1.473,1.473,0,0,1-.547-1.037.391.391,0,0,0-.294-.391,6.428,6.428,0,0,1-.649-.275,1.364,1.364,0,0,0-1.4-.045,1.644,1.644,0,0,1-2.252-1.713" transform="translate(-43.91 -59.957)"/>
      <path id="Trazado_131889" data-name="Trazado 131889" d="M84.68,81.5a.426.426,0,0,1-.473.412.433.433,0,0,1-.44-.5.422.422,0,0,1,.474-.42.439.439,0,0,1,.439.505" transform="translate(-67.018 -64.798)" fill="#dcebf4"/>
      <path id="Trazado_131890" data-name="Trazado 131890" d="M84.69,101.649c-.025.291-.165.464-.441.474a.42.42,0,0,1-.477-.455.429.429,0,0,1,.477-.458.438.438,0,0,1,.44.439" transform="translate(-67.022 -80.973)" fill="#deecf5"/>
      <path id="Trazado_131891" data-name="Trazado 131891" d="M61.3,91.116a.459.459,0,1,1,.041.917.459.459,0,0,1-.041-.917" transform="translate(-48.702 -72.898)" fill="#dcebf4"/>
    </g>
  </g>
</svg>
