<svg id="Grupo_157771" data-name="Grupo 157771" xmlns="http://www.w3.org/2000/svg" xmlns:xlink="http://www.w3.org/1999/xlink" width="59.538" height="59.537" viewBox="0 0 59.538 59.537">
  <defs>
    <clipPath id="clip-path">
      <rect id="Rectángulo_37898" data-name="Rectángulo 37898" width="34.522" height="29.135" fill="none"/>
    </clipPath>
  </defs>
  <path id="Trazado_127482" data-name="Trazado 127482" d="M29.769,0A29.769,29.769,0,1,1,0,29.769,29.769,29.769,0,0,1,29.769,0Z" fill="#0c487b"/>
  <g id="Grupo_156595" data-name="Grupo 156595" transform="translate(9.021 10.224)">
    <path id="Trazado_127053" data-name="Trazado 127053" d="M14.667,122.237c.273.061.336-.068.334-.323-.007-.639,0-.65.665-.646.246,0,.323-.075.318-.318,0-.227-.046-.332-.308-.331-.663,0-.68-.011-.673-.673,0-.3-.144-.305-.366-.307s-.337.035-.337.3c0,.67-.014.682-.669.68-.253,0-.313.09-.314.326s.059.325.313.324c.668,0,.684.009.669.641-.007.294.1.379.368.328" transform="translate(24.796 -96.183)" fill="#29c4bb"/>
    <path id="Trazado_127054" data-name="Trazado 127054" d="M212.981,151.153c-.244-.047-.38.034-.34.311.034.232-.046.36-.3.321s-.343.053-.345.323.113.348.354.315.3.069.3.3c-.007.359.215.5.562.388.165-.052.129-.183.118-.287-.029-.284.036-.457.371-.4.259.044.275-.118.274-.317s-.008-.36-.271-.319c-.283.044-.417-.06-.37-.359s-.138-.3-.35-.273" transform="translate(-211.994 -120.843)" fill="#29c4bb"/>
    <path id="Trazado_127055" data-name="Trazado 127055" d="M207.47,68.616c-.063.273.062.366.317.323.277-.047.39.067.341.342s.068.33.326.332.366-.076.32-.335c-.049-.276.066-.389.34-.338s.309-.1.319-.334c.013-.28-.1-.353-.34-.311-.265.046-.364-.064-.319-.323s-.037-.348-.313-.338c-.244.009-.384.043-.332.322s-.069.384-.341.339c-.256-.043-.38.049-.317.321" transform="translate(-205.475 -63.854)" fill="#010000"/>
    <path id="Trazado_127056" data-name="Trazado 127056" d="M51.8,185.982c-.06.254.066.348.32.3.3-.054.369.1.326.353-.047.28.088.323.334.322s.361-.055.312-.308c-.065-.332.1-.414.388-.365s.28-.135.281-.336,0-.36-.269-.308c-.357.071-.448-.1-.4-.42s-.187-.218-.342-.227-.348-.031-.3.234c.059.328-.056.48-.4.413-.29-.056-.254.146-.246.34" transform="translate(-20.487 -147.133)" fill="#010000"/>
    <path id="Trazado_127057" data-name="Trazado 127057" d="M123.727,16.785c.068-.29-.092-.347-.33-.312s-.344-.065-.306-.309-.035-.354-.314-.348c-.257.005-.374.072-.33.336s-.079.359-.333.321c-.235-.035-.353.021-.354.308s.109.373.366.332.363.08.321.333c-.047.284.105.316.344.321.255.005.338-.091.3-.325-.041-.257.054-.374.322-.329s.373-.064.315-.329" transform="translate(-104.142 -15.817)" fill="#29c4bb"/>
  </g>
  <g id="Grupo_158059" data-name="Grupo 158059" transform="translate(13.859 15.201)">
    <g id="Grupo_158059-2" data-name="Grupo 158059" clip-path="url(#clip-path)">
      <path id="Trazado_131940" data-name="Trazado 131940" d="M34.522,26.3c-.115.071-.081.2-.109.3a3.358,3.358,0,0,1-3.26,2.528c-1.921.012-3.842,0-5.763,0q-10.936,0-21.872,0A3.374,3.374,0,0,1,.108,26.582,3.669,3.669,0,0,1,0,25.649Q0,14.561,0,3.472A3.362,3.362,0,0,1,3.464,0Q8.772,0,14.08,0c.531,0,.737.168.837.672a.612.612,0,0,1-.47.729,2.011,2.011,0,0,1-.635.054H3.735c-.157,0-.315,0-.472.009a1.912,1.912,0,0,0-1.8,1.818c-.009.123-.007.247-.007.371q0,7.651,0,15.3c0,.625,0,.626.633.626H32.455c.61,0,.61,0,.61-.611q0-7.651,0-15.3c0-.112,0-.225,0-.337a1.913,1.913,0,0,0-1.822-1.866c-.168-.013-.337-.009-.505-.009H20.725a2.538,2.538,0,0,1-.538-.027.662.662,0,0,1-.572-.755c.131-.519.32-.673.843-.673q5.317,0,10.634,0a3.342,3.342,0,0,1,3.376,2.825c0,.027.036.049.054.073Z" transform="translate(0 0)"/>
      <path id="Trazado_131941" data-name="Trazado 131941" d="M25.151,3.453c.133.53.319.675.878.675H36.476A2.041,2.041,0,0,1,38.71,6.368q0,7.87.007,15.739c0,.285-.051.37-.359.37q-15.553-.015-31.105,0c-.321,0-.374-.1-.373-.389q.013-7.87.006-15.739A2.036,2.036,0,0,1,9.1,4.128H19.617c.53,0,.735-.17.835-.676h1.664c.115.081.136.225.223.328a.559.559,0,0,0,.984-.084c.048-.085.062-.194.162-.244h1.665" transform="translate(-5.536 -2.778)" fill="#fe7c94"/>
      <path id="Trazado_131942" data-name="Trazado 131942" d="M86.28.687c-.087.438-.31.665-.664.674s-.591-.215-.706-.674c.116-.46.348-.681.705-.672s.578.236.664.671" transform="translate(-68.33 -0.013)" fill="#010101"/>
      <path id="Trazado_131943" data-name="Trazado 131943" d="M22.79,107.715q7.786,0,15.571-.006c.272,0,.354.052.35.34-.017,1.416-.006,2.831-.008,4.247a2.031,2.031,0,0,1-2.176,2.162H9.059a2.034,2.034,0,0,1-2.179-2.192c0-1.4.009-2.809-.008-4.213,0-.282.068-.345.346-.344q7.786.014,15.571.007" transform="translate(-5.53 -86.675)" fill="#e1e6ee"/>
      <path id="Trazado_131944" data-name="Trazado 131944" d="M70.755,37.528c0-.674-.007-1.349,0-2.023a1.9,1.9,0,0,1,2.861-1.7q1.814,1,3.583,2.071a1.89,1.89,0,0,1,.012,3.271Q75.434,40.241,73.6,41.24a1.9,1.9,0,0,1-2.844-1.689c-.009-.674,0-1.348,0-2.023" transform="translate(-56.936 -27)"/>
      <path id="Trazado_131945" data-name="Trazado 131945" d="M68.815,121.548h8.122a3.117,3.117,0,0,1,.337.005.672.672,0,0,1,0,1.337,2.751,2.751,0,0,1-.3.005H60.657a2.7,2.7,0,0,1-.3-.005.672.672,0,0,1,0-1.338,3.173,3.173,0,0,1,.337-.005h8.122" transform="translate(-48.078 -97.811)"/>
      <path id="Trazado_131946" data-name="Trazado 131946" d="M24.166,116.671a2.022,2.022,0,1,1,2,2.027,2.021,2.021,0,0,1-2-2.027" transform="translate(-19.447 -92.264)"/>
      <path id="Trazado_131947" data-name="Trazado 131947" d="M77.665,43.1c0-.651,0-1.3,0-1.953a.575.575,0,0,1,.929-.545q1.691.965,3.373,1.948a.58.58,0,0,1,0,1.1q-1.682.982-3.373,1.948a.576.576,0,0,1-.931-.542c0-.651,0-1.3,0-1.953" transform="translate(-62.497 -32.58)" fill="#fefefe"/>
      <path id="Trazado_131948" data-name="Trazado 131948" d="M32.421,122.238a.685.685,0,0,1-.693.671.673.673,0,0,1,.038-1.345.685.685,0,0,1,.655.674" transform="translate(-25.008 -97.825)" fill="#ceabe2"/>
    </g>
  </g>
</svg>
