<svg xmlns="http://www.w3.org/2000/svg" xmlns:xlink="http://www.w3.org/1999/xlink" width="59.537" height="59.537" viewBox="0 0 59.537 59.537">
  <defs>
    <clipPath id="clip-path">
      <rect id="Rectángulo_37896" data-name="Rectángulo 37896" width="31.647" height="28.691" fill="none"/>
    </clipPath>
  </defs>
  <g id="Grupo_157763" data-name="Grupo 157763" transform="translate(-0.307 -0.013)">
    <path id="Trazado_127482" data-name="Trazado 127482" d="M29.769,0A29.769,29.769,0,1,1,0,29.769,29.769,29.769,0,0,1,29.769,0Z" transform="translate(0.307 0.013)" fill="#0c487b"/>
    <g id="Grupo_156595" data-name="Grupo 156595" transform="translate(9.021 10.224)">
      <path id="Trazado_127053" data-name="Trazado 127053" d="M14.667,122.237c.273.061.336-.068.334-.323-.007-.639,0-.65.665-.646.246,0,.323-.075.318-.318,0-.227-.046-.332-.308-.331-.663,0-.68-.011-.673-.673,0-.3-.144-.305-.366-.307s-.337.035-.337.3c0,.67-.014.682-.669.68-.253,0-.313.09-.314.326s.059.325.313.324c.668,0,.684.009.669.641-.007.294.1.379.368.328" transform="translate(24.796 -96.183)" fill="#29c4bb"/>
      <path id="Trazado_127054" data-name="Trazado 127054" d="M212.981,151.153c-.244-.047-.38.034-.34.311.034.232-.046.36-.3.321s-.343.053-.345.323.113.348.354.315.3.069.3.3c-.007.359.215.5.562.388.165-.052.129-.183.118-.287-.029-.284.036-.457.371-.4.259.044.275-.118.274-.317s-.008-.36-.271-.319c-.283.044-.417-.06-.37-.359s-.138-.3-.35-.273" transform="translate(-211.994 -120.843)" fill="#29c4bb"/>
      <path id="Trazado_127055" data-name="Trazado 127055" d="M207.47,68.616c-.063.273.062.366.317.323.277-.047.39.067.341.342s.068.33.326.332.366-.076.32-.335c-.049-.276.066-.389.34-.338s.309-.1.319-.334c.013-.28-.1-.353-.34-.311-.265.046-.364-.064-.319-.323s-.037-.348-.313-.338c-.244.009-.384.043-.332.322s-.069.384-.341.339c-.256-.043-.38.049-.317.321" transform="translate(-205.475 -63.854)" fill="#010000"/>
      <path id="Trazado_127056" data-name="Trazado 127056" d="M51.8,185.982c-.06.254.066.348.32.3.3-.054.369.1.326.353-.047.28.088.323.334.322s.361-.055.312-.308c-.065-.332.1-.414.388-.365s.28-.135.281-.336,0-.36-.269-.308c-.357.071-.448-.1-.4-.42s-.187-.218-.342-.227-.348-.031-.3.234c.059.328-.056.48-.4.413-.29-.056-.254.146-.246.34" transform="translate(-20.487 -147.133)" fill="#010000"/>
      <path id="Trazado_127057" data-name="Trazado 127057" d="M123.727,16.785c.068-.29-.092-.347-.33-.312s-.344-.065-.306-.309-.035-.354-.314-.348c-.257.005-.374.072-.33.336s-.079.359-.333.321c-.235-.035-.353.021-.354.308s.109.373.366.332.363.08.321.333c-.047.284.105.316.344.321.255.005.338-.091.3-.325-.041-.257.054-.374.322-.329s.373-.064.315-.329" transform="translate(-104.142 -15.817)" fill="#29c4bb"/>
    </g>
    <g id="Grupo_158057" data-name="Grupo 158057" transform="translate(13.481 15.89)">
      <g id="Grupo_158057-2" data-name="Grupo 158057" clip-path="url(#clip-path)">
        <path id="Trazado_131892" data-name="Trazado 131892" d="M31.648,56.127a.775.775,0,0,1-.709.315Q15.818,56.431.7,56.435c-.549,0-.7-.147-.7-.692q0-7.475,0-14.95c0-.46.085-.576.494-.685a.435.435,0,0,1,.543.309,1.2,1.2,0,0,1,.051.427q0,6.713,0,13.426c0,.062-.007.123-.009.185.018.205.006.411.011.617,0,.175.082.266.262.269.113,0,.226,0,.34,0H29.949c.607,0,.607,0,.609-.608,0-.093,0-.185.009-.278-.016-.2-.008-.391-.008-.586q0-9.585,0-19.171c0-.154,0-.309.005-.463a.6.6,0,0,1,.491-.623.5.5,0,0,1,.593.381Z" transform="translate(-0.001 -27.75)"/>
        <path id="Trazado_131893" data-name="Trazado 131893" d="M.494,11.388C.1,11.283,0,11.159,0,10.764Q0,5.7,0,.633C0,.172.17.006.637.006Q15.818.006,31,0a.758.758,0,0,1,.647.315V4.642a.528.528,0,0,1-.563.4c-1.493.014-2.986.006-4.479.006q-5.5,0-11,0a2.629,2.629,0,0,1-2.37-1.309c-.382-.611-.79-1.206-1.16-1.824a1.616,1.616,0,0,0-1.513-.827c-3,.01-5.993,0-8.989,0-.487,0-.488,0-.488.506q0,4.448,0,8.9a2.051,2.051,0,0,1-.032.523.445.445,0,0,1-.559.371" transform="translate(0 0)"/>
        <path id="Trazado_131894" data-name="Trazado 131894" d="M33.491,9.636v.969c-.409.107-.495.225-.495.683q0,9.862,0,19.723c0,.123-.006.246-.01.37a.427.427,0,0,1-.315.1c-.1.005-.206,0-.309,0q-14.2,0-28.4,0c-.21,0-.436.056-.624-.1,0-.113-.01-.226-.01-.339q0-6.663,0-13.326c0-.457-.087-.575-.495-.683v-.97c.4-.107.495-.23.495-.655q0-4.711-.005-9.423c0-.245.04-.324.309-.323q4.665.017,9.33,0a1.623,1.623,0,0,1,1.508.832c.379.623.791,1.227,1.176,1.847a2.563,2.563,0,0,0,2.338,1.285q7.585-.012,15.169,0c.113,0,.226.006.339.01" transform="translate(-2.338 -4.675)" fill="#e9f1fe"/>
        <path id="Trazado_131895" data-name="Trazado 131895" d="M5.616,153.094H35.265c0,.318.115.722-.038.928s-.576.059-.88.059q-14.185,0-28.369.011c-.311,0-.419-.071-.376-.382a5.145,5.145,0,0,0,.015-.617" transform="translate(-4.617 -126.388)" fill="#c0d0f6"/>
        <path id="Trazado_131896" data-name="Trazado 131896" d="M73.186,5.673h.347q8.6,0,17.2-.007c.28,0,.356.068.349.349-.021.792-.015,1.585,0,2.378,0,.206-.059.251-.257.251q-7.443-.008-14.886,0a1.358,1.358,0,0,1-1.183-.555c-.534-.775-1.03-1.577-1.571-2.412" transform="translate(-60.419 -4.678)" fill="#e9d48f"/>
        <path id="Trazado_131897" data-name="Trazado 131897" d="M57.746,60.159c.8,0,1.607,0,2.41,0a.524.524,0,0,1,.572.322c.046.12.124.106.221.091a16.039,16.039,0,0,0,6.562-2.521.347.347,0,0,0,.183-.349c-.057-.994.152-1.026,1-1,.453.012.906,0,1.359,0,.424,0,.6.177.6.6q0,1.946,0,3.893c0,.449,0,.449.444.453a1.978,1.978,0,0,1,.111,3.954c-.555.018-.555.018-.555.56q0,1.869,0,3.738c0,.483-.165.647-.648.648-.577,0-1.153,0-1.73,0-.4,0-.627-.188-.577-.582a.955.955,0,0,0-.587-1.035,16.432,16.432,0,0,0-6.149-2.254c-.132-.02-.2,0-.259.13a.464.464,0,0,1-.473.28,4.832,4.832,0,0,1-.586,0c-.285-.035-.377.042-.373.353.02,1.472.009,2.945.009,4.418,0,.52-.156.672-.685.673-.566,0-1.133,0-1.7,0a.507.507,0,0,1-.587-.5c-.288-1.567-.576-3.134-.855-4.7-.03-.167-.074-.233-.261-.251a1.462,1.462,0,0,1-1.35-1.5q-.009-1.962,0-3.924a1.469,1.469,0,0,1,1.489-1.489c.8-.008,1.606,0,2.41,0" transform="translate(-44.45 -46.802)"/>
        <path id="Trazado_131898" data-name="Trazado 131898" d="M45.35,39.337c0-.628,0-1.256,0-1.884,0-.4.181-.591.582-.586a7.622,7.622,0,0,1,1.386.049,2.469,2.469,0,0,1-.335,4.886c-.36.017-.721.011-1.081.005a.5.5,0,0,1-.552-.556c-.005-.638,0-1.277,0-1.915" transform="translate(-37.438 -30.43)"/>
        <path id="Trazado_131899" data-name="Trazado 131899" d="M21,41.313a.5.5,0,0,1-.346.489.459.459,0,0,1-.545-.175.8.8,0,0,1-.1-.192c-.241-.592-.241-.593-.869-.593a1.04,1.04,0,0,1-.185,0,.7.7,0,0,0-.951.621.461.461,0,0,1-.652.327A.491.491,0,0,1,17.1,41.1q.712-1.918,1.433-3.834a.5.5,0,0,1,.473-.376.482.482,0,0,1,.491.35q.73,1.944,1.454,3.891c.025.066.038.137.051.184" transform="translate(-14.076 -30.453)"/>
        <path id="Trazado_131900" data-name="Trazado 131900" d="M74.748,41.817c-.185,0-.371.009-.556,0a.491.491,0,0,1,.007-.982c.308-.012.617,0,.926,0a.5.5,0,1,0,.036-.988,1.484,1.484,0,1,1,.11-2.966c.288,0,.577-.005.864,0a.495.495,0,1,1-.007.986c-.278.006-.556,0-.833,0-.371,0-.589.177-.6.476s.2.487.564.515a1.493,1.493,0,0,1,1.409,1.382,1.477,1.477,0,0,1-1.212,1.554,5.31,5.31,0,0,1-.707.04v-.012" transform="translate(-60.848 -30.44)"/>
        <path id="Trazado_131901" data-name="Trazado 131901" d="M19.986,142.746c-.792,0-1.584,0-2.375,0-.367,0-.585-.185-.591-.484s.214-.5.572-.5c1.594,0,3.188,0,4.781,0a.52.52,0,0,1,.529.293.459.459,0,0,1-.071.518.55.55,0,0,1-.47.181c-.792,0-1.583,0-2.375,0" transform="translate(-14.05 -117.028)"/>
        <path id="Trazado_131902" data-name="Trazado 131902" d="M18.981,131.409c-.452,0-.9,0-1.356,0-.386,0-.61-.19-.605-.5s.223-.486.588-.487q1.387,0,2.774,0c.366,0,.585.185.59.485s-.22.5-.6.5c-.462,0-.925,0-1.387,0" transform="translate(-14.051 -107.669)"/>
        <path id="Trazado_131903" data-name="Trazado 131903" d="M54.352,8.542a.494.494,0,1,1-.487.492.5.5,0,0,1,.487-.492" transform="translate(-44.469 -7.052)" fill="#020203"/>
        <path id="Trazado_131904" data-name="Trazado 131904" d="M142.724,11.877a.493.493,0,1,1-.478-.5.5.5,0,0,1,.478.5" transform="translate(-117.012 -9.392)" fill="#020201"/>
        <path id="Trazado_131905" data-name="Trazado 131905" d="M153.582,11.376a.494.494,0,1,1-.506.473.5.5,0,0,1,.506-.473" transform="translate(-126.373 -9.392)" fill="#020201"/>
        <path id="Trazado_131906" data-name="Trazado 131906" d="M165.4,11.871a.493.493,0,1,1-.485-.494.5.5,0,0,1,.485.494" transform="translate(-135.735 -9.392)" fill="#020201"/>
        <path id="Trazado_131907" data-name="Trazado 131907" d="M93.525,76.27c0-.968,0-1.936-.016-2.9,0-.22.13-.191.251-.208a17.012,17.012,0,0,0,6.083-2.089c.185-.106.367-.218.549-.326.021.029.042.044.042.058q0,4-.006,8c-.126.082-.215-.016-.305-.072a16.172,16.172,0,0,0-6.26-2.329.548.548,0,0,1-.338-.133" transform="translate(-77.197 -58.402)" fill="#f5f5f5"/>
        <path id="Trazado_131908" data-name="Trazado 131908" d="M59.549,86.057c0-1.1-.01-2.2-.007-3.3a.478.478,0,0,1,.519-.524c1.411-.006,2.821,0,4.232-.006.144,0,.2.037.194.189-.009,1.256-.01,2.512-.013,3.768-.023.02-.043.049-.074.052a4.607,4.607,0,0,1-1.626-.028c-.082-.1,0-.169.042-.247.193-.4.037-.663-.407-.679-.266-.01-.533-.01-.8,0-.445.018-.6.285-.4.681.035.071.1.133.06.225a.665.665,0,0,1-.471.089c-.266,0-.533.012-.8-.005-.174-.011-.353-.025-.448-.21" transform="translate(-49.154 -67.879)" fill="#e28398"/>
        <path id="Trazado_131909" data-name="Trazado 131909" d="M138.884,73.24c0-.607-.009-1.214-.01-1.822,0-2.924,0-5.847-.006-8.771,0-.225.046-.3.284-.291.71.013.71,0,.71.723q0,4.91,0,9.821c0,.113-.006.226-.01.339a1.1,1.1,0,0,1-.969,0" transform="translate(-114.644 -51.479)" fill="#e28398"/>
        <path id="Trazado_131910" data-name="Trazado 131910" d="M93.526,102.426a16.58,16.58,0,0,1,4.262,1.147,22.65,22.65,0,0,1,2.641,1.387v.92a17.339,17.339,0,0,0-2.306-1.216,16.641,16.641,0,0,0-4.366-1.221c-.192-.026-.261-.084-.245-.279.02-.245.011-.492.014-.738" transform="translate(-77.198 -84.559)" fill="#dbdbdb"/>
        <path id="Trazado_131911" data-name="Trazado 131911" d="M59.542,104.205a3.56,3.56,0,0,0,1.727.069,1.309,1.309,0,0,1,.659-.03,2.2,2.2,0,0,1,.812.03,2.244,2.244,0,0,0,.84.052c.295.016.591,0,.886,0,.01.317.132.72-.039.927s-.579.059-.884.061c-1.112.008-2.223,0-3.335,0-.524,0-.676-.153-.676-.681,0-.144.006-.288.01-.432" transform="translate(-49.147 -86.027)" fill="#da4e6c"/>
        <path id="Trazado_131912" data-name="Trazado 131912" d="M71.417,121.441c0,1.09,0,2.18.013,3.27,0,.142-.031.188-.184.195-.876.037-.882.044-1.035-.795-.162-.888-.309-1.779-.462-2.669a.289.289,0,0,1,.22-.092q.613-.025,1.227,0a.3.3,0,0,1,.221.091" transform="translate(-57.581 -100.172)" fill="#f5f5f5"/>
        <path id="Trazado_131913" data-name="Trazado 131913" d="M150.222,91.492c0-.267,0-.534,0-.8,0-.062-.035-.137.069-.176a1.171,1.171,0,0,1,1.352.654.989.989,0,0,1-.881,1.322c-.541.033-.541.033-.541-.506v-.493" transform="translate(-124.014 -74.686)" fill="#fefefe"/>
        <path id="Trazado_131914" data-name="Trazado 131914" d="M70.551,117.053H68.883c-.011-.017-.028-.033-.031-.051-.05-.3-.235-.7-.108-.88s.569-.045.872-.058c.245-.01.491.006.737,0,.149-.006.225.021.213.2-.017.265-.01.531-.014.8" transform="translate(-56.716 -95.783)" fill="#dbdbdb"/>
        <path id="Trazado_131915" data-name="Trazado 131915" d="M138.911,124.747h.969c0,.133.009.266.01.4,0,.592,0,.592-.586.592-.4,0-.4,0-.4-.407,0-.195.006-.389.01-.584" transform="translate(-114.671 -102.986)" fill="#da4e6c"/>
        <path id="Trazado_131916" data-name="Trazado 131916" d="M51.006,44c0-.422.008-.844,0-1.266,0-.164.047-.2.206-.2a1.541,1.541,0,0,1,1.718,1.093A1.481,1.481,0,0,1,51.545,45.5c-.54.02-.54.02-.54-.51V44" transform="translate(-42.105 -35.107)" fill="#e9f1fe"/>
        <path id="Trazado_131917" data-name="Trazado 131917" d="M26.5,47.773l.4,1.06h-.784l.388-1.06" transform="translate(-21.556 -39.439)" fill="#e6edfa"/>
        <path id="Trazado_131918" data-name="Trazado 131918" d="M69.755,100.169a4.175,4.175,0,0,1-1.471,0,.5.5,0,0,1-.217-.612.518.518,0,0,1,.568-.324q.383.01.768,0a.519.519,0,0,1,.568.323.5.5,0,0,1-.216.612" transform="translate(-56.163 -81.923)"/>
      </g>
    </g>
  </g>
</svg>
