<svg xmlns="http://www.w3.org/2000/svg" width="59.538" height="59.537" viewBox="0 0 59.538 59.537">
  <g id="Grupo_157770" data-name="Grupo 157770" transform="translate(-0.307 -0.013)">
    <path id="Trazado_127482" data-name="Trazado 127482" d="M29.769,0A29.769,29.769,0,1,1,0,29.769,29.769,29.769,0,0,1,29.769,0Z" transform="translate(0.307 0.013)" fill="#0c487b"/>
    <g id="Grupo_156595" data-name="Grupo 156595" transform="translate(9.021 10.224)">
      <path id="Trazado_127053" data-name="Trazado 127053" d="M14.667,122.237c.273.061.336-.068.334-.323-.007-.639,0-.65.665-.646.246,0,.323-.075.318-.318,0-.227-.046-.332-.308-.331-.663,0-.68-.011-.673-.673,0-.3-.144-.305-.366-.307s-.337.035-.337.3c0,.67-.014.682-.669.68-.253,0-.313.09-.314.326s.059.325.313.324c.668,0,.684.009.669.641-.007.294.1.379.368.328" transform="translate(24.796 -96.183)" fill="#29c4bb"/>
      <path id="Trazado_127054" data-name="Trazado 127054" d="M212.981,151.153c-.244-.047-.38.034-.34.311.034.232-.046.36-.3.321s-.343.053-.345.323.113.348.354.315.3.069.3.3c-.007.359.215.5.562.388.165-.052.129-.183.118-.287-.029-.284.036-.457.371-.4.259.044.275-.118.274-.317s-.008-.36-.271-.319c-.283.044-.417-.06-.37-.359s-.138-.3-.35-.273" transform="translate(-211.994 -120.843)" fill="#29c4bb"/>
      <path id="Trazado_127055" data-name="Trazado 127055" d="M207.47,68.616c-.063.273.062.366.317.323.277-.047.39.067.341.342s.068.33.326.332.366-.076.32-.335c-.049-.276.066-.389.34-.338s.309-.1.319-.334c.013-.28-.1-.353-.34-.311-.265.046-.364-.064-.319-.323s-.037-.348-.313-.338c-.244.009-.384.043-.332.322s-.069.384-.341.339c-.256-.043-.38.049-.317.321" transform="translate(-205.475 -63.854)" fill="#010000"/>
      <path id="Trazado_127056" data-name="Trazado 127056" d="M51.8,185.982c-.06.254.066.348.32.3.3-.054.369.1.326.353-.047.28.088.323.334.322s.361-.055.312-.308c-.065-.332.1-.414.388-.365s.28-.135.281-.336,0-.36-.269-.308c-.357.071-.448-.1-.4-.42s-.187-.218-.342-.227-.348-.031-.3.234c.059.328-.056.48-.4.413-.29-.056-.254.146-.246.34" transform="translate(-20.487 -147.133)" fill="#010000"/>
      <path id="Trazado_127057" data-name="Trazado 127057" d="M123.727,16.785c.068-.29-.092-.347-.33-.312s-.344-.065-.306-.309-.035-.354-.314-.348c-.257.005-.374.072-.33.336s-.079.359-.333.321c-.235-.035-.353.021-.354.308s.109.373.366.332.363.08.321.333c-.047.284.105.316.344.321.255.005.338-.091.3-.325-.041-.257.054-.374.322-.329s.373-.064.315-.329" transform="translate(-104.142 -15.817)" fill="#29c4bb"/>
    </g>
    <g id="Grupo_158058" data-name="Grupo 158058" transform="translate(16.307 13.012)">
      <g id="Grupo_158060" data-name="Grupo 158060">
        <path id="Trazado_131919" data-name="Trazado 131919" d="M26.67,16.664q0,6.821,0,13.643a2.794,2.794,0,0,1-3.022,3.025H3.024A2.793,2.793,0,0,1,0,30.309Q0,16.667,0,3.024A2.792,2.792,0,0,1,3.022,0H23.645A2.792,2.792,0,0,1,26.67,3.022q0,6.821,0,13.643" transform="translate(0 0.001)"/>
        <path id="Trazado_131920" data-name="Trazado 131920" d="M6.142,21.73q0-6.8,0-13.608A1.7,1.7,0,0,1,8.036,6.21H28.695a1.7,1.7,0,0,1,1.895,1.911q0,13.643,0,27.287a1.7,1.7,0,0,1-1.929,1.913c-6.863,0-13.726-.014-20.589.014a1.838,1.838,0,0,1-1.944-1.961c.037-4.547.015-9.1.015-13.643" transform="translate(-5.031 -5.099)" fill="#29c4bb"/>
        <path id="Trazado_131921" data-name="Trazado 131921" d="M12.42,24.623q0-5.433,0-10.867c0-.92.415-1.337,1.33-1.337H33.334a1.152,1.152,0,0,1,1.311,1.321q0,10.9,0,21.8a1.148,1.148,0,0,1-1.312,1.32H13.714a1.145,1.145,0,0,1-1.294-1.3q0-5.468,0-10.936" transform="translate(-10.198 -10.197)"/>
        <path id="Trazado_131922" data-name="Trazado 131922" d="M61.771,158.552c-.37,0-.74.006-1.11,0a1.664,1.664,0,0,1-.01-3.328q1.128-.017,2.256,0a1.664,1.664,0,0,1,.01,3.328c-.381.009-.763,0-1.145,0" transform="translate(-48.449 -127.442)"/>
        <path id="Trazado_131923" data-name="Trazado 131923" d="M23.6,40.8c-1.6,0-3.194.005-4.791.015-.166,0-.235-.045-.211-.213a1.273,1.273,0,0,0,0-.173q0-10.728-.008-21.457c0-.315.077-.391.391-.39q9.619.015,19.237,0c.317,0,.392.08.389.392-.018,2.28-.015,4.559-.019,6.839a.879.879,0,0,1-.143.233c-.6.6-1.195,1.206-1.8,1.8-.09.087-.215.271-.339.015-.064-.622-.02-1.245-.029-1.868-.008-.53,0-.53-.465-.715a1.228,1.228,0,0,1-.09-.71c-.008-.787-.086-.868-.885-.869-1.3,0-2.592.006-3.888,0a2.808,2.808,0,0,0-2.037.819c-.306.293-.315.294-.612.007a2.8,2.8,0,0,0-2.034-.826c-1.342.008-2.684,0-4.027,0-.627,0-.753.127-.753.755q0,5.241,0,10.482c0,.653.119.761.769.776a1.457,1.457,0,0,1,.813.093c.184.456.184.457.69.457h3.564a2.713,2.713,0,0,1,.517.023c.145.036.194.113.1.248a1.815,1.815,0,0,1-.232.256l-3.724,3.724a1.113,1.113,0,0,1-.384.289" transform="translate(-15.263 -15.26)" fill="#e5e6e7"/>
        <path id="Trazado_131924" data-name="Trazado 131924" d="M46.582,73.986q2.05-2.062,4.1-4.125c.1-.1.184-.205.275-.308a.279.279,0,0,1,.181-.089,4.543,4.543,0,0,1,.588-.023h7c.514,0,.522-.008.522-.522q0-3.517,0-7.034a4.433,4.433,0,0,1,.023-.554.27.27,0,0,1,.09-.181q.94-.923,1.881-1.845c.107-.1.22-.2.33-.306,0,.578.011,1.157.011,1.735q0,6.458.008,12.915c0,.289-.068.356-.356.356q-7.17-.015-14.34-.008c-.1,0-.208-.007-.312-.011" transform="translate(-38.247 -48.443)" fill="#dfdfe1"/>
        <path id="Trazado_131925" data-name="Trazado 131925" d="M66.878,162.549c-.357,0-.715.008-1.073,0a.553.553,0,1,1,0-1.105q1.09-.013,2.18,0a.552.552,0,1,1,0,1.1c-.369.012-.738,0-1.107,0" transform="translate(-53.553 -132.55)" fill="#e5e6e7"/>
        <path id="Trazado_131926" data-name="Trazado 131926" d="M35.822,58.788c-.347,0-.694,0-1.041-.013a.56.56,0,0,1-.623-.622q0-5.485,0-10.969a.554.554,0,0,1,.616-.628c1.493,0,2.986-.014,4.478.007a2.606,2.606,0,0,1,1.975.939c.122.14.171.156.3.006a2.728,2.728,0,0,1,2.145-.954q2.118,0,4.236,0c.5,0,.687.2.692.694q.005.486.012.971a.737.737,0,0,1,.1.5c0,.945.007,1.89,0,2.835.012,2.161.008,4.323,0,6.484,0,.606-.241.846-.845.848-2.162.006-4.324.011-6.485,0-1.663.011-3.327,0-4.99,0a.854.854,0,0,1-.568-.1" transform="translate(-28.045 -38.222)"/>
        <path id="Trazado_131927" data-name="Trazado 131927" d="M43.469,114.945h5.554c-.035.293-.283.4-.483.543H48.4q-2.184,0-4.369,0c-.648,0-.55.074-.563-.543" transform="translate(-35.691 -94.378)" fill="#d7d6d9"/>
        <path id="Trazado_131928" data-name="Trazado 131928" d="M114.961,59.2q0-1.666,0-3.332a2.505,2.505,0,0,0,.277,0c.221-.024.273.084.271.285-.008.808,0,1.616,0,2.424v.14c-.146.2-.25.447-.543.483" transform="translate(-94.391 -45.866)" fill="#d7d6d9"/>
        <path id="Trazado_131929" data-name="Trazado 131929" d="M79.533,72.287l.543-.483c0,2.622-.005,5.244.007,7.866,0,.319-.085.406-.4.4-2.622-.013-5.245-.007-7.867-.007l.483-.543,6.411-.012c.66,0,.814-.154.815-.814q.006-3.205.012-6.411" transform="translate(-58.963 -58.956)" fill="#c5c4c9"/>
        <path id="Trazado_131930" data-name="Trazado 131930" d="M45.9,61.1a3.185,3.185,0,0,0-2.046-.571c-1.076.02-2.153,0-3.229.011-.228,0-.284-.06-.283-.285q.013-3.611,0-7.221c0-.229.062-.284.286-.282,1.2.011,2.407,0,3.611.008a1.632,1.632,0,0,1,1.656,1.582c.02,2.232.007,4.465.007,6.759" transform="translate(-33.121 -43.315)" fill="#f0f1f1"/>
        <path id="Trazado_131931" data-name="Trazado 131931" d="M77.628,61.1V57.969c0-1.145,0-2.289,0-3.434a1.669,1.669,0,0,1,1.78-1.776c1.156,0,2.312.005,3.469-.006.226,0,.314.03.313.29q-.017,3.607,0,7.214c0,.223-.053.288-.282.285-1.121-.013-2.243.006-3.364-.01a3.059,3.059,0,0,0-1.915.573" transform="translate(-63.738 -43.314)" fill="#f8f9f9"/>
        <path id="Trazado_131932" data-name="Trazado 131932" d="M43.07,103.567c-.832,0-1.664-.006-2.5,0-.192,0-.252-.047-.256-.248-.017-.868-.024-.868.845-.868,1.005,0,2.01,0,3.015,0a1.634,1.634,0,0,1,1.448.8c.053.084.155.176.093.277-.05.08-.17.034-.258.034-.8,0-1.594,0-2.391,0" transform="translate(-33.101 -84.122)" fill="#3d99e1"/>
        <path id="Trazado_131933" data-name="Trazado 131933" d="M81.113,103.558c-.809,0-1.618-.01-2.426.005-.3.006-.279-.095-.155-.289a1.6,1.6,0,0,1,1.366-.819c1.247-.02,2.5,0,3.743-.01.159,0,.213.04.222.21.047.9.053.9-.843.9H81.113" transform="translate(-64.411 -84.114)" fill="#3d99e1"/>
        <path id="Trazado_131934" data-name="Trazado 131934" d="M48.138,60.083c-.474,0-.949-.007-1.423,0-.167,0-.208-.047-.214-.212-.035-.9-.04-.9.839-.9.752,0,1.5.007,2.256,0,.2,0,.247.052.249.248.01.868.017.868-.84.868h-.867" transform="translate(-38.172 -48.417)"/>
        <path id="Trazado_131935" data-name="Trazado 131935" d="M48.212,71.395c.486,0,.972.007,1.457,0,.166,0,.208.046.214.212.035.9.04.9-.874.9-.74,0-1.481-.007-2.221,0-.2,0-.247-.052-.249-.248-.011-.868-.017-.868.839-.868h.833" transform="translate(-38.211 -58.617)"/>
        <path id="Trazado_131936" data-name="Trazado 131936" d="M48.137,84.923c-.474,0-.949-.006-1.423,0-.162,0-.211-.039-.218-.209-.037-.906-.043-.906.871-.906.74,0,1.481.006,2.221,0,.191,0,.25.044.253.245.011.871.018.871-.837.871h-.867" transform="translate(-38.168 -68.812)"/>
        <path id="Trazado_131937" data-name="Trazado 131937" d="M85.4,60.083c-.474,0-.949-.007-1.423,0-.166,0-.208-.046-.215-.212-.035-.9-.04-.9.873-.9.74,0,1.481.007,2.221,0,.2,0,.247.051.25.247.01.869.017.868-.839.868H85.4" transform="translate(-68.769 -48.417)"/>
        <path id="Trazado_131938" data-name="Trazado 131938" d="M85.51,71.395c.474,0,.949.007,1.423,0,.167,0,.208.047.214.212.035.9.04.9-.873.9-.74,0-1.481-.007-2.221,0-.2,0-.247-.052-.249-.248-.01-.868-.017-.868.839-.868h.868" transform="translate(-68.807 -58.617)"/>
        <path id="Trazado_131939" data-name="Trazado 131939" d="M85.511,83.814c.474,0,.949.007,1.423,0,.167,0,.208.047.214.212.034.9.04.9-.874.9-.74,0-1.481-.007-2.221,0-.2,0-.247-.052-.249-.248-.01-.868-.017-.868.839-.868h.868" transform="translate(-68.807 -68.814)"/>
      </g>
    </g>
  </g>
</svg>
