<svg xmlns="http://www.w3.org/2000/svg" xmlns:xlink="http://www.w3.org/1999/xlink" width="81" height="81" viewBox="0 0 81 81">
  <defs>
    <clipPath id="clip-path">
      <rect id="Rectángulo_38132" data-name="Rectángulo 38132" width="36.114" height="36.122" fill="none"/>
    </clipPath>
  </defs>
  <g id="Grupo_158629" data-name="Grupo 158629" transform="translate(-1171.189 -5097.419)">
    <circle id="Elipse_4760" data-name="Elipse 4760" cx="40.5" cy="40.5" r="40.5" transform="translate(1171.189 5097.419)" fill="#1169e3"/>
    <g id="Grupo_156593" data-name="Grupo 156593" transform="translate(1183.708 5110.227)">
      <path id="Trazado_127053" data-name="Trazado 127053" d="M15.128,123.211c-.375.084-.462-.093-.459-.444.01-.878-.005-.894-.915-.889-.338,0-.443-.1-.437-.438.006-.312.063-.457.423-.456.912,0,.935-.015.925-.925,0-.412.2-.419.5-.423s.463.048.463.414c0,.922.019.938.919.935.348,0,.431.124.431.448s-.082.447-.43.445c-.918-.005-.94.012-.92.881.01.4-.14.522-.505.451" transform="translate(-13.318 -87.398)" fill="#29c4bb"/>
      <path id="Trazado_127054" data-name="Trazado 127054" d="M213.357,151.157c.336-.064.522.047.467.427-.046.318.064.5.416.441s.471.073.474.444c0,.389-.156.478-.487.434s-.417.095-.411.41c.01.493-.3.683-.772.533-.226-.071-.177-.252-.162-.394.04-.39-.049-.628-.509-.55-.356.061-.378-.163-.377-.436s.012-.494.373-.438c.389.06.574-.082.509-.494-.062-.393.19-.41.481-.376" transform="translate(-158.657 -109.494)" fill="#29c4bb"/>
      <path id="Trazado_127055" data-name="Trazado 127055" d="M210.152,68.984c.087.375-.085.5-.436.444-.381-.064-.536.092-.468.47s-.093.453-.448.457-.5-.1-.44-.461c.068-.379-.09-.535-.467-.465s-.424-.131-.439-.459c-.017-.385.132-.486.468-.427.365.064.5-.087.439-.444-.059-.341.051-.479.43-.465.335.012.528.059.457.443s.095.528.469.465c.352-.059.523.067.435.442" transform="translate(-155.02 -51.692)" fill="#010000"/>
      <path id="Trazado_127056" data-name="Trazado 127056" d="M54.475,186.354c.082.35-.091.478-.44.415-.411-.074-.507.139-.449.485.065.384-.121.444-.459.442s-.5-.075-.428-.423c.089-.457-.14-.569-.533-.5s-.385-.186-.386-.463.006-.5.37-.423c.491.1.616-.139.55-.578-.063-.42.257-.3.471-.312s.479-.043.413.322c-.082.451.076.66.553.568.4-.076.349.2.338.468" transform="translate(-41.455 -132.953)" fill="#010000"/>
      <path id="Trazado_127057" data-name="Trazado 127057" d="M121.781,17.147c-.094-.4.127-.477.453-.428s.473-.09.421-.424.048-.486.432-.478c.353.007.515.1.453.461s.109.493.458.441c.323-.048.485.029.487.424s-.15.513-.5.457c-.372-.059-.5.11-.441.458.065.39-.144.435-.472.441-.351.007-.465-.125-.413-.446.056-.353-.074-.514-.442-.452s-.513-.088-.432-.453" transform="translate(-92.645 -15.816)" fill="#29c4bb"/>
    </g>
    <g id="Grupo_158633" data-name="Grupo 158633" transform="translate(1193.189 5119.419)">
      <g id="Grupo_158633-2" data-name="Grupo 158633" clip-path="url(#clip-path)">
        <path id="Trazado_133710" data-name="Trazado 133710" d="M26.187,87.343a.983.983,0,0,1-.552-1q.013-5.784.005-11.567c0-.713.265-.977.975-.977h3.456a2.209,2.209,0,0,1,1.838.868c.117.15.181.141.328.043a6.8,6.8,0,0,0,2.677-3.265c.433-1.112.956-2.19,1.443-3.281A1.894,1.894,0,0,1,39.43,67.4a3.757,3.757,0,0,1,1.39,4.193c-.182.643-.351,1.29-.552,1.926-.078.246-.028.291.217.289,1.763-.009,3.527.033,5.289-.015a2.266,2.266,0,0,1,2.215,3.221.172.172,0,0,0,.066.257,2.242,2.242,0,0,1-.008,3.6c-.114.081-.106.156-.052.264a2.22,2.22,0,0,1-.656,2.719.218.218,0,0,0-.085.315,2.2,2.2,0,0,1-1.64,3.12c-.013,0-.019.037-.028.056H34.509a5.123,5.123,0,0,1-2.182-.81.238.238,0,0,0-.364.046,1.933,1.933,0,0,1-1.474.765Z" transform="translate(-19.627 -51.221)"/>
        <path id="Trazado_133711" data-name="Trazado 133711" d="M0,2.4c.127-.062.106-.2.14-.3A2.986,2.986,0,0,1,2.939.012q4.584-.02,9.168,0a2.928,2.928,0,0,1,2.918,2.854q.047,4.654,0,9.309a2.892,2.892,0,0,1-2.866,2.859c-3.091.029-6.183.023-9.273,0a2.936,2.936,0,0,1-2.752-2.1c-.033-.1-.012-.238-.135-.3Z" transform="translate(0 0)"/>
        <path id="Trazado_133712" data-name="Trazado 133712" d="M97.4,15.059c-1.516,0-3.033.019-4.549-.005a2.949,2.949,0,0,1-2.887-2.421,3.941,3.941,0,0,1-.052-.772q0-4.32,0-8.64A3,3,0,0,1,93.1.02h8.639a3.016,3.016,0,0,1,3.21,3.223q0,4.32,0,8.64a3,3,0,0,1-3.179,3.179c-1.457,0-2.915,0-4.372,0Z" transform="translate(-68.834 -0.015)"/>
        <path id="Trazado_133713" data-name="Trazado 133713" d="M60.726,80.075a8,8,0,0,0,2.359-3.314c.439-1.073.936-2.122,1.409-3.181.218-.488.4-.532.825-.206a2.236,2.236,0,0,1,.844,2.5c-.284,1.016-.55,2.038-.888,3.036a.842.842,0,0,0,.909,1.2c2.115-.037,4.23-.013,6.346-.012.479,0,.766.165.884.5a.758.758,0,0,1-.777,1.015c-.87.013-1.739,0-2.609,0-.576,0-1.152-.005-1.728,0a.732.732,0,0,0-.816.728.744.744,0,0,0,.818.767c1.692,0,3.385,0,5.077,0a.758.758,0,0,1,.84.59.731.731,0,0,1-.76.9c-.928.011-1.857,0-2.785,0-.787,0-1.575,0-2.362,0a.767.767,0,0,0-.753.424.72.72,0,0,0,.038.739.852.852,0,0,0,.8.355q2.08-.005,4.16,0a1.484,1.484,0,0,1,.451.049.745.745,0,0,1-.263,1.443c-.764.011-1.528,0-2.291,0-.7,0-1.41,0-2.115,0a.755.755,0,0,0-.852.734c-.009.471.307.761.852.763,1.175,0,2.351.012,3.525,0,.45-.006.923.32.852.764a.638.638,0,0,1-.468.109c-2.688,0-5.376.011-8.063,0A4.316,4.316,0,0,1,61.4,88.941a2.049,2.049,0,0,1-.78-1.6c-.014-2.277-.006-4.554-.005-6.831a.79.79,0,0,1,.109-.438" transform="translate(-46.408 -56.017)" fill="#feddc6"/>
        <path id="Trazado_133714" data-name="Trazado 133714" d="M56.073,102.651c0,2.374,0,4.747,0,7.121a2.165,2.165,0,0,0,1.055,1.9,4.793,4.793,0,0,0,2.757.787c2.726-.019,5.452-.007,8.178-.007a.694.694,0,0,1-.607.735,2.373,2.373,0,0,1-.421.023c-3.1,0-6.2-.018-9.3.01a4.7,4.7,0,0,1-3.051-1.072.368.368,0,0,1-.144-.332q0-3.911,0-7.823a.356.356,0,0,1,.146-.331c.466-.334.927-.676,1.39-1.016" transform="translate(-41.755 -78.592)" fill="#f5cbae"/>
        <path id="Trazado_133715" data-name="Trazado 133715" d="M39.779,102.817a.719.719,0,0,1,.611.807q0,1.812,0,3.624,0,2.585-.011,5.171c-.191.131-.367.026-.53-.054a2.986,2.986,0,0,1-1.809-2.73c-.047-2.137-.016-4.276-.011-6.414,0-.41.031-.434.449-.427a11.918,11.918,0,0,1,1.3.023" transform="translate(-29.106 -78.697)" fill="#81bbf3"/>
        <path id="Trazado_133716" data-name="Trazado 133716" d="M35.26,102.765c-.446,0-.891.018-1.337.009-.217,0-.314.045-.313.29.008,2.194-.022,4.388.014,6.582a2.893,2.893,0,0,0,2.236,2.721.765.765,0,0,1-.831.9c-.881.01-1.763,0-2.644.008-.225,0-.273-.078-.272-.285q.008-4.99,0-9.98c0-.134-.043-.29.191-.289.952.007,1.9,0,2.856.007a.3.3,0,0,1,.1.039" transform="translate(-24.587 -78.644)" fill="#6faae5"/>
        <path id="Trazado_133717" data-name="Trazado 133717" d="M21.812,6.51A1.456,1.456,0,0,1,23.07,8.044q0,4.444,0,8.888a1.279,1.279,0,0,1-.212.8.835.835,0,0,1-.507.113c-2.537,0-5.075,0-7.612,0a2.292,2.292,0,0,1-2.287-2.29c-.015-2.385,0-4.77,0-7.155,0-.517-.007-1.034,0-1.551.005-.221.057-.371.342-.371,2.96.008,5.921,0,8.881,0a.286.286,0,0,1,.136.029" transform="translate(-9.528 -4.958)" fill="#f16674"/>
        <path id="Trazado_133718" data-name="Trazado 133718" d="M17.17,6.442,8.4,6.45c-.477,0-.477,0-.477.47,0,2.831.026,5.662-.013,8.493a2.349,2.349,0,0,0,2.242,2.267c2.689-.054,5.379-.017,8.069-.017a1.363,1.363,0,0,1-1.285.772q-4.512.014-9.025,0a1.508,1.508,0,0,1-1.522-1.629c0-2.021,0-4.043,0-6.064,0-.9,0-1.81,0-2.715A1.528,1.528,0,0,1,8.015,6.391c2.949-.007,5.9,0,8.848,0a.48.48,0,0,1,.307.053" transform="translate(-4.886 -4.89)" fill="#da5669"/>
        <path id="Trazado_133719" data-name="Trazado 133719" d="M111.516,6.512a1.459,1.459,0,0,1,1.3,1.537c.01,1.245,0,2.491,0,3.736q0,2.52,0,5.041a1.547,1.547,0,0,1-.211.91.781.781,0,0,1-.505.114c-2.548,0-5.1.006-7.645,0a2.291,2.291,0,0,1-2.222-1.817,4.24,4.24,0,0,1-.094-.909q0-4,0-8c0-.059,0-.117,0-.176.014-.429.044-.459.464-.459h8.6a.8.8,0,0,1,.314.024" transform="translate(-78.2 -4.965)" fill="#81bbf3"/>
        <path id="Trazado_133720" data-name="Trazado 133720" d="M107.042,6.427c-.869,0-1.738.012-2.607.013q-3.153,0-6.307,0c-.241,0-.356.035-.355.321.01,2.854-.006,5.708.013,8.563a2.267,2.267,0,0,0,1.72,2.286,1.511,1.511,0,0,0,.381.047l8.245,0a1.383,1.383,0,0,1-1.288.773q-4.531.014-9.061,0A1.476,1.476,0,0,1,96.3,16.941q-.011-4.531,0-9.062a1.465,1.465,0,0,1,1.236-1.456,3.2,3.2,0,0,1,.56-.042q4.248,0,8.5,0a.844.844,0,0,1,.448.046" transform="translate(-73.727 -4.879)" fill="#6faae5"/>
        <path id="Trazado_133721" data-name="Trazado 133721" d="M25.27,22.322a3,3,0,0,1-6.008-.037,3,3,0,1,1,6.008.037" transform="translate(-14.748 -14.766)"/>
        <path id="Trazado_133722" data-name="Trazado 133722" d="M46.427,13.651a.756.756,0,0,1-1.511,0,.752.752,0,0,1,.774-.742.741.741,0,0,1,.737.74" transform="translate(-34.389 -9.885)" fill="#010000"/>
        <path id="Trazado_133723" data-name="Trazado 133723" d="M112.183,19.777c0,.447.007.893,0,1.339a.748.748,0,1,1-1.493,0c-.007-.846-.026-1.693.008-2.537.015-.386-.116-.493-.466-.442a1.565,1.565,0,0,1-.352,0,.718.718,0,0,1-.686-.712.733.733,0,0,1,.665-.772,3.447,3.447,0,0,1,.6,0c.189.014.24-.057.233-.238a4.168,4.168,0,0,1,.138-1.43,2.989,2.989,0,0,1,2.729-2.084c.305-.011.611-.016.916,0a.737.737,0,0,1,.726.716.75.75,0,0,1-.712.771c-.245.017-.493,0-.74.006a1.512,1.512,0,0,0-1.561,1.519c-.029.738-.029.738.718.738.235,0,.47,0,.7,0a.744.744,0,0,1,.828.757.729.729,0,0,1-.8.739c-.364.007-.73.023-1.092,0-.308-.023-.377.094-.362.378.023.421.006.845.006,1.268Z" transform="translate(-83.6 -9.863)"/>
        <path id="Trazado_133724" data-name="Trazado 133724" d="M25.854,27.005A1.462,1.462,0,0,1,27.308,25.7a1.521,1.521,0,0,1,1.508,1.351,1.464,1.464,0,0,1-1.168,1.6.87.87,0,0,1-.732-.168,1.959,1.959,0,0,1-1.061-1.477" transform="translate(-19.795 -19.676)" fill="#eceaf1"/>
        <path id="Trazado_133725" data-name="Trazado 133725" d="M25.769,31.271a2.5,2.5,0,0,0,1.354,1.537,1.258,1.258,0,0,0,.439.107,1.452,1.452,0,0,1-1.793-1.645" transform="translate(-19.709 -23.942)" fill="#d7d4e2"/>
      </g>
    </g>
  </g>
</svg>
