<svg xmlns="http://www.w3.org/2000/svg" xmlns:xlink="http://www.w3.org/1999/xlink" width="69" height="84" viewBox="0 0 69 84">
  <defs>
    <clipPath id="clip-path">
      <rect id="Rect치ngulo_37899" data-name="Rect치ngulo 37899" width="46.089" height="46.099" fill="none"/>
    </clipPath>
  </defs>
  <g id="Grupo_157748" data-name="Grupo 157748" transform="translate(-323 -10916.999)">
    <g id="Grupo_156377" data-name="Grupo 156377" transform="translate(323.373 10917.39)">
      <rect id="Rect치ngulo_36766" data-name="Rect치ngulo 36766" width="69" height="84" rx="12" transform="translate(-0.373 -0.391)" fill="#0c487b"/>
    </g>
    <g id="Grupo_156647" data-name="Grupo 156647" transform="translate(1)">
      <g id="Grupo_156582" data-name="Grupo 156582" transform="translate(-26 6270)">
        <path id="Trazado_127053" data-name="Trazado 127053" d="M15.507,123.96c-.454.1-.559-.113-.555-.537.012-1.063-.007-1.081-1.106-1.075-.409,0-.536-.124-.528-.529.007-.377.077-.553.512-.551,1.1,0,1.131-.018,1.119-1.119-.005-.5.239-.507.608-.511s.56.058.56.5c0,1.115.023,1.135,1.112,1.131.421,0,.521.15.522.541s-.1.541-.52.539c-1.11-.006-1.137.014-1.112,1.066.012.488-.169.631-.611.545" transform="translate(339.683 4573.993)" fill="#29c4bb"/>
        <path id="Trazado_127054" data-name="Trazado 127054" d="M213.642,151.161c.406-.078.632.057.565.517-.056.385.077.6.5.533s.57.088.573.537c0,.47-.189.578-.589.525-.383-.052-.5.115-.5.5.012.6-.357.826-.934.645-.274-.086-.214-.3-.2-.477.048-.472-.06-.76-.616-.666-.431.073-.457-.2-.456-.527s.014-.6.451-.53c.471.073.694-.1.616-.6-.075-.475.23-.5.582-.454" transform="translate(195.806 4552.685)" fill="#29c4bb"/>
        <path id="Trazado_127055" data-name="Trazado 127055" d="M210.718,69.268c.1.453-.1.608-.527.537-.46-.078-.648.111-.567.569s-.113.548-.542.553-.609-.127-.532-.557c.082-.459-.109-.648-.565-.562-.472.089-.513-.158-.531-.555-.021-.466.16-.588.566-.517.441.077.606-.106.531-.537-.072-.412.061-.579.521-.563.4.014.639.072.552.536s.115.639.567.563c.425-.072.632.081.526.534" transform="translate(199.254 4608.526)" fill="#010000"/>
        <path id="Trazado_127056" data-name="Trazado 127056" d="M55.04,186.64c.1.423-.11.578-.532.5-.5-.09-.614.169-.543.587.079.465-.146.537-.555.535-.39,0-.6-.091-.518-.511.108-.553-.169-.688-.645-.607s-.466-.225-.467-.559.007-.6.448-.512c.593.117.745-.168.665-.7-.077-.508.311-.362.569-.377.274-.016.579-.052.5.389-.1.545.092.8.67.687.482-.092.423.243.409.566" transform="translate(311.829 4530.025)" fill="#010000"/>
        <path id="Trazado_127057" data-name="Trazado 127057" d="M121.786,17.426c-.114-.483.153-.577.548-.518.41.061.572-.109.509-.513s.058-.588.522-.578c.427.009.623.119.548.558s.131.6.553.533c.391-.059.587.035.589.513s-.182.62-.608.553c-.45-.072-.6.133-.533.553.078.472-.175.526-.572.534-.424.009-.562-.151-.5-.54.068-.427-.09-.622-.535-.547s-.62-.106-.523-.547" transform="translate(261.153 4643.184)" fill="#29c4bb"/>
      </g>
      <g id="Grupo_158061" data-name="Grupo 158061" transform="translate(333 10935.998)">
        <g id="Grupo_158061-2" data-name="Grupo 158061" clip-path="url(#clip-path)">
          <path id="Trazado_131949" data-name="Trazado 131949" d="M26.339,92.989a1.255,1.255,0,0,1-.7-1.275q.017-7.381.007-14.762c0-.91.339-1.247,1.244-1.247H31.3a2.82,2.82,0,0,1,2.346,1.108c.149.191.231.179.419.055A8.68,8.68,0,0,0,37.478,72.7c.552-1.42,1.22-2.795,1.842-4.187a2.418,2.418,0,0,1,3.92-.981,4.794,4.794,0,0,1,1.773,5.351c-.232.82-.448,1.646-.7,2.458-.1.314-.036.371.277.369,2.25-.011,4.5.042,6.75-.019a2.892,2.892,0,0,1,2.826,4.11.219.219,0,0,0,.084.328,2.861,2.861,0,0,1-.011,4.6c-.145.1-.136.2-.067.337a2.834,2.834,0,0,1-.837,3.47.278.278,0,0,0-.108.4,2.813,2.813,0,0,1-2.093,3.982c-.017,0-.025.047-.036.071H36.961a6.538,6.538,0,0,1-2.785-1.034.3.3,0,0,0-.465.058,2.467,2.467,0,0,1-1.88.976Z" transform="translate(-17.967 -46.89)"/>
          <path id="Trazado_131950" data-name="Trazado 131950" d="M0,3.068c.162-.079.136-.25.178-.383A3.811,3.811,0,0,1,3.751.015q5.85-.026,11.7,0a3.736,3.736,0,0,1,3.724,3.642q.06,5.94,0,11.88a3.69,3.69,0,0,1-3.658,3.648c-3.945.037-7.89.029-11.835,0A3.747,3.747,0,0,1,.172,16.509c-.042-.133-.016-.3-.172-.388Z" transform="translate(0 0)"/>
          <path id="Trazado_131951" data-name="Trazado 131951" d="M99.466,19.213c-1.935,0-3.87.024-5.805-.007a3.764,3.764,0,0,1-3.684-3.089,5.029,5.029,0,0,1-.067-.985q-.006-5.513,0-11.027A3.83,3.83,0,0,1,93.981.02q5.513,0,11.025,0a3.849,3.849,0,0,1,4.1,4.113q0,5.513,0,11.026a3.831,3.831,0,0,1-4.057,4.057c-1.86,0-3.72,0-5.58,0Z" transform="translate(-63.015 -0.014)"/>
          <path id="Trazado_131952" data-name="Trazado 131952" d="M60.757,81.984a10.215,10.215,0,0,0,3.011-4.23c.561-1.369,1.194-2.708,1.8-4.059.278-.623.51-.678,1.053-.263A2.854,2.854,0,0,1,67.7,76.621c-.362,1.3-.7,2.6-1.133,3.875a1.075,1.075,0,0,0,1.16,1.528c2.7-.047,5.4-.017,8.1-.015.611,0,.978.211,1.128.634a.968.968,0,0,1-.992,1.3c-1.11.017-2.22,0-3.329,0-.735,0-1.47-.007-2.2,0a.934.934,0,0,0-1.041.929.949.949,0,0,0,1.044.979c2.16.005,4.319,0,6.479,0a.968.968,0,0,1,1.072.753.933.933,0,0,1-.97,1.154c-1.184.014-2.37,0-3.554.005-1,0-2.01,0-3.014,0a.978.978,0,0,0-.96.541.918.918,0,0,0,.049.942,1.087,1.087,0,0,0,1.017.453q2.655-.007,5.309,0a1.894,1.894,0,0,1,.576.063.951.951,0,0,1-.336,1.842c-.974.014-1.95.005-2.924.005-.9,0-1.8,0-2.7,0a.963.963,0,0,0-1.087.936c-.012.6.392.971,1.087.974,1.5.006,3,.015,4.5-.005.575-.007,1.178.408,1.088.974a.814.814,0,0,1-.6.139c-3.43,0-6.86.014-10.29,0A5.509,5.509,0,0,1,61.62,93.3a2.615,2.615,0,0,1-1-2.038c-.018-2.906-.007-5.812-.007-8.718a1.008,1.008,0,0,1,.139-.558" transform="translate(-42.484 -51.281)" fill="#feddc6"/>
          <path id="Trazado_131953" data-name="Trazado 131953" d="M56.5,102.651c0,3.029.005,6.059,0,9.088a2.763,2.763,0,0,0,1.347,2.43,6.117,6.117,0,0,0,3.519,1c3.479-.024,6.957-.008,10.436-.008a.885.885,0,0,1-.775.938,3.028,3.028,0,0,1-.537.029c-3.957,0-7.914-.023-11.871.013a6,6,0,0,1-3.893-1.369.469.469,0,0,1-.184-.423q0-4.992,0-9.984a.455.455,0,0,1,.186-.423c.6-.427,1.183-.863,1.774-1.3" transform="translate(-38.225 -71.947)" fill="#f5cbae"/>
          <path id="Trazado_131954" data-name="Trazado 131954" d="M40.267,102.825a.917.917,0,0,1,.779,1.03q.006,2.312,0,4.625,0,3.3-.014,6.6c-.244.167-.468.034-.676-.069a3.81,3.81,0,0,1-2.308-3.483c-.06-2.728-.021-5.457-.014-8.186,0-.523.04-.554.572-.546a15.208,15.208,0,0,1,1.66.029" transform="translate(-26.645 -72.043)" fill="#81bbf3"/>
          <path id="Trazado_131955" data-name="Trazado 131955" d="M36.13,102.777c-.569.006-1.138.023-1.706.012-.276-.005-.4.058-.4.37.01,2.8-.028,5.6.018,8.4a3.692,3.692,0,0,0,2.853,3.473.976.976,0,0,1-1.06,1.146c-1.125.013-2.25-.005-3.375.01-.287,0-.348-.1-.348-.364q.01-6.368.006-12.737c0-.171-.054-.371.244-.368,1.215.009,2.43.005,3.645.009a.377.377,0,0,1,.123.049" transform="translate(-22.508 -71.995)" fill="#6faae5"/>
          <path id="Trazado_131956" data-name="Trazado 131956" d="M24.4,6.519A1.859,1.859,0,0,1,26,8.477q0,5.671,0,11.342a1.632,1.632,0,0,1-.271,1.02,1.066,1.066,0,0,1-.647.144c-3.238,0-6.477.006-9.715,0a2.925,2.925,0,0,1-2.919-2.922c-.019-3.043-.005-6.087-.005-9.131,0-.66-.009-1.319.006-1.979.007-.281.072-.474.436-.473,3.778.01,7.556.006,11.334.006a.365.365,0,0,1,.173.037" transform="translate(-8.723 -4.539)" fill="#f16674"/>
          <path id="Trazado_131957" data-name="Trazado 131957" d="M20.15,6.457l-11.2.011c-.609,0-.609,0-.609.6,0,3.613.034,7.226-.017,10.838A3,3,0,0,0,11.187,20.8c3.431-.068,6.865-.022,10.3-.022a1.74,1.74,0,0,1-1.64.985q-5.759.018-11.517,0a1.925,1.925,0,0,1-1.942-2.079c-.006-2.58,0-5.159,0-7.739,0-1.155-.005-2.31,0-3.465a1.95,1.95,0,0,1,2.081-2.09c3.764-.009,7.528,0,11.292,0a.613.613,0,0,1,.391.067" transform="translate(-4.473 -4.476)" fill="#da5669"/>
          <path id="Trazado_131958" data-name="Trazado 131958" d="M114.105,6.52a1.862,1.862,0,0,1,1.656,1.961c.012,1.589,0,3.179,0,4.768q0,3.216,0,6.433a1.974,1.974,0,0,1-.269,1.162,1,1,0,0,1-.645.146c-3.252,0-6.5.008-9.756,0a2.923,2.923,0,0,1-2.836-2.319,5.411,5.411,0,0,1-.12-1.16q0-5.1,0-10.207c0-.075,0-.15,0-.225.018-.548.056-.586.593-.586q5.485,0,10.97,0a1.022,1.022,0,0,1,.4.03" transform="translate(-71.589 -4.545)" fill="#81bbf3"/>
          <path id="Trazado_131959" data-name="Trazado 131959" d="M110.01,6.441c-1.109.006-2.218.015-3.327.016q-4.024,0-8.049,0c-.308,0-.455.045-.453.409.013,3.643-.008,7.285.016,10.928a2.893,2.893,0,0,0,2.2,2.917,1.928,1.928,0,0,0,.486.06l10.522,0a1.765,1.765,0,0,1-1.644.986q-5.782.018-11.564,0A1.884,1.884,0,0,1,96.3,19.86q-.014-5.782,0-11.565a1.869,1.869,0,0,1,1.577-1.858,4.081,4.081,0,0,1,.715-.054q5.422,0,10.844,0a1.077,1.077,0,0,1,.572.059" transform="translate(-67.493 -4.467)" fill="#6faae5"/>
          <path id="Trazado_131960" data-name="Trazado 131960" d="M26.93,23.16a3.834,3.834,0,0,1-7.668-.047,3.834,3.834,0,1,1,7.668.047" transform="translate(-13.501 -13.517)"/>
          <path id="Trazado_131961" data-name="Trazado 131961" d="M46.845,13.855a.964.964,0,0,1-1.929,0,.96.96,0,0,1,.988-.948.946.946,0,0,1,.941.945" transform="translate(-31.481 -9.049)" fill="#010000"/>
          <path id="Trazado_131962" data-name="Trazado 131962" d="M113.009,21.682c0,.57.01,1.14,0,1.709a.954.954,0,1,1-1.905,0c-.01-1.079-.033-2.16.01-3.238.019-.493-.148-.629-.6-.564a2,2,0,0,1-.449-.006.916.916,0,0,1-.875-.908.935.935,0,0,1,.849-.985,4.4,4.4,0,0,1,.764-.005c.241.018.306-.072.3-.3a5.32,5.32,0,0,1,.176-1.825,3.814,3.814,0,0,1,3.482-2.66c.389-.014.78-.02,1.169,0a.941.941,0,0,1,.927.913.957.957,0,0,1-.909.984c-.313.021-.629,0-.944.007a1.929,1.929,0,0,0-1.992,1.939c-.037.942-.037.942.917.942.3,0,.6,0,.9,0a.949.949,0,0,1,1.057.966.93.93,0,0,1-1.027.944c-.465.01-.932.029-1.394-.006-.392-.03-.481.12-.462.482.029.538.008,1.079.008,1.618Z" transform="translate(-76.532 -9.029)"/>
          <path id="Trazado_131963" data-name="Trazado 131963" d="M25.854,27.366A1.865,1.865,0,0,1,27.709,25.7a1.941,1.941,0,0,1,1.924,1.724,1.868,1.868,0,0,1-1.491,2.041,1.11,1.11,0,0,1-.934-.214,2.5,2.5,0,0,1-1.354-1.885" transform="translate(-18.121 -18.013)" fill="#eceaf1"/>
          <path id="Trazado_131964" data-name="Trazado 131964" d="M25.776,31.271A3.2,3.2,0,0,0,27.5,33.233a1.606,1.606,0,0,0,.561.137,1.853,1.853,0,0,1-2.289-2.1" transform="translate(-18.043 -21.918)" fill="#d7d4e2"/>
        </g>
      </g>
    </g>
  </g>
</svg>
