<svg xmlns="http://www.w3.org/2000/svg" xmlns:xlink="http://www.w3.org/1999/xlink" width="90.773" height="90.773" viewBox="0 0 90.773 90.773">
  <defs>
    <clipPath id="clip-path">
      <rect id="Rectángulo_37908" data-name="Rectángulo 37908" width="61.588" height="58.173" fill="none"/>
    </clipPath>
  </defs>
  <g id="Grupo_157765" data-name="Grupo 157765" transform="translate(6399 6571)">
    <path id="Trazado_127482" data-name="Trazado 127482" d="M45.387,0A45.387,45.387,0,1,1,0,45.387,45.387,45.387,0,0,1,45.387,0Z" transform="translate(-6399 -6571)" fill="#b0c8cb"/>
    <g id="Grupo_156595" data-name="Grupo 156595" transform="translate(-6385.246 -6555.413)">
      <path id="Trazado_127053" data-name="Trazado 127053" d="M15.375,123.6c.416.093.513-.1.509-.492-.011-.974.006-.992,1.015-.986.375,0,.492-.114.485-.485-.007-.346-.07-.507-.469-.505-1.011,0-1.037-.017-1.026-1.026,0-.457-.219-.465-.558-.469s-.514.053-.514.459c0,1.022-.021,1.041-1.019,1.037-.386,0-.478.138-.479.5s.091.5.477.494c1.018-.006,1.042.013,1.02.978-.011.448.155.579.561.5" transform="translate(44.792 -83.878)" fill="#29c4bb"/>
      <path id="Trazado_127054" data-name="Trazado 127054" d="M213.5,151.159c-.373-.071-.579.052-.518.474.051.353-.071.55-.461.489s-.522.081-.525.492c0,.431.173.53.54.481.351-.047.462.105.455.455-.011.547.328.757.857.591.251-.079.2-.279.18-.437-.044-.432.055-.7.565-.611.395.067.419-.181.418-.484s-.013-.548-.414-.486c-.432.067-.636-.091-.564-.547.068-.436-.211-.455-.533-.417" transform="translate(-211.994 -104.948)" fill="#29c4bb"/>
      <path id="Trazado_127055" data-name="Trazado 127055" d="M207.478,69.132c-.1.416.094.558.484.492.422-.071.594.1.52.521s.1.5.5.507.558-.116.488-.511c-.075-.42.1-.594.518-.515s.471-.145.487-.509c.019-.427-.147-.539-.519-.474-.4.071-.555-.1-.487-.492.066-.378-.056-.531-.477-.516-.371.013-.586.066-.506.491s-.105.586-.52.516c-.39-.066-.58.074-.483.49" transform="translate(-204.437 -61.871)" fill="#010000"/>
      <path id="Trazado_127056" data-name="Trazado 127056" d="M51.8,186.5c-.091.388.1.53.488.46.455-.082.563.155.5.538-.072.426.134.493.509.49.358,0,.55-.083.475-.469-.1-.507.155-.631.591-.556s.427-.206.428-.513-.006-.549-.411-.47c-.544.108-.683-.154-.61-.641.07-.466-.285-.332-.522-.346s-.531-.047-.458.357c.09.5-.085.732-.614.63-.442-.085-.388.223-.375.519" transform="translate(-4.069 -127.272)" fill="#010000"/>
      <path id="Trazado_127057" data-name="Trazado 127057" d="M124.759,17.292c.1-.443-.141-.529-.5-.475s-.524-.1-.467-.47-.053-.539-.479-.53c-.392.008-.571.109-.5.512s-.121.547-.507.489c-.358-.054-.538.032-.54.47s.167.569.558.507c.413-.066.553.122.489.507-.072.432.16.482.524.49.389.008.516-.138.458-.495-.062-.391.082-.57.49-.5s.569-.1.48-.5" transform="translate(-94.9 -15.817)" fill="#29c4bb"/>
    </g>
    <g id="Grupo_158083" data-name="Grupo 158083" transform="translate(-6384 -6555)">
      <g id="Grupo_158083-2" data-name="Grupo 158083" transform="translate(0 0)" clip-path="url(#clip-path)">
        <path id="Trazado_132203" data-name="Trazado 132203" d="M102.146,18.021c-.166.376-.3.768-.5,1.124a3.726,3.726,0,0,1-2.465,1.86.615.615,0,0,0-.49.435,7.759,7.759,0,0,1-7.518,5.13c-1.623,0-3.246.007-4.869,0a7.776,7.776,0,0,1-7.423-5.095A.67.67,0,0,0,78.352,21a3.848,3.848,0,0,1-2.911-4.251A2.3,2.3,0,0,1,77.9,14.564c.463.032.468-.138.467-.481-.009-2.746-.018-5.491,0-8.236A5.619,5.619,0,0,1,82.781.163,6.789,6.789,0,0,1,84.27.012q4.509-.02,9.017,0a5.635,5.635,0,0,1,5.791,4.649,7.547,7.547,0,0,1,.085,1.376q.011,4.028,0,8.056c0,.36.024.51.479.475a2.238,2.238,0,0,1,2.387,1.767c.024.091-.008.205.118.246Z" transform="translate(-40.557 0)"/>
        <path id="Trazado_132204" data-name="Trazado 132204" d="M72.793,75.45c.782-.117,1.009,0,1.323.689a11,11,0,0,1,.954,4.55c0,.942,0,1.884,0,2.827,0,.2-.031.387.18.53,1.266.865,1.317,2.1,1,3.425a2.9,2.9,0,0,1-.8,1.455,1.29,1.29,0,0,0-.385,1.067c.015,1.5.01,3.007,0,4.511,0,.893-.308,1.21-1.187,1.211q-10.8.006-21.594,0c-.886,0-1.189-.31-1.193-1.2-.006-1.544-.011-3.088.005-4.631a1.211,1.211,0,0,0-.342-.9,3.716,3.716,0,0,1-.894-3.513,1.835,1.835,0,0,1,.749-1.2,1.036,1.036,0,0,0,.492-1.043,22.582,22.582,0,0,1,.295-5.207,10.674,10.674,0,0,1,9.888-8.146,19.105,19.105,0,0,1,5.974.365,10.616,10.616,0,0,1,4.22,2.324c.577.52.615.781.24,1.46a.839.839,0,0,1-1.294.2c-.3-.2-.559-.453-.847-.669a8.221,8.221,0,0,0-5.145-1.7c-1.161.012-2.322,0-3.482.006a8.62,8.62,0,0,0-5.891,3.132,9.49,9.49,0,0,0-2.045,6.443c0,.154-.063.452.238.346a9.134,9.134,0,0,1,1.965-.213c1.175-.152,2.331-.392,3.49-.621A23.194,23.194,0,0,0,65.67,78.4a8.218,8.218,0,0,0,1.107-.822c.844-.713,1.437-.618,2,.321a10.012,10.012,0,0,0,2.514,3.024,5.1,5.1,0,0,0,1.377.716c.34.119.482.049.479-.327a10.951,10.951,0,0,0-.627-3.887A2.945,2.945,0,0,1,72.2,76.4c0-.431.025-.864.591-.952" transform="translate(-26.752 -37.543)"/>
        <path id="Trazado_132205" data-name="Trazado 132205" d="M17.9,17.112a.908.908,0,0,1,.988-.7q3.457-.01,6.914,0c.547,0,.988.266.991.832a19.707,19.707,0,0,1-.256,5.146A9.062,9.062,0,0,1,23.018,27.6a.884.884,0,0,0-.412.84c.025,1.062.007,2.124.01,3.186,0,.187-.066.366.275.386,1.977.116,2.929,1.439,2.442,3.409a3.567,3.567,0,0,1-2.6,2.723.9.9,0,0,0-.64.595,7.266,7.266,0,0,1-6.778,4.71c-1.741.064-3.489.071-5.229,0a7.231,7.231,0,0,1-6.729-4.682.953.953,0,0,0-.691-.627,3.673,3.673,0,0,1-2.57-4.354A2.13,2.13,0,0,1,2.322,32c.413.011.529-.1.48-.484a2.935,2.935,0,0,1,0-.541,1.4,1.4,0,0,0-.632-1.514,2,2,0,0,1-.788-1.8c0-1.423-.04-2.847.012-4.268a4,4,0,0,1,4.115-3.972q1.292-.021,2.585,0a.584.584,0,0,0,.616-.331,5.127,5.127,0,0,1,4.644-2.691c.481-.009.962,0,1.443,0,.849,0,1.029.132,1.319.926.109.608-.285.826-.76.982a24.868,24.868,0,0,0-2.692.137,3.157,3.157,0,0,0-2.631,3.13q-.027,1.29,0,2.581a3.145,3.145,0,0,0,3.284,3.233c.3,0,.6.009.9-.006,1.162,0,2.323,0,3.484,0a7.269,7.269,0,0,0,7.023-5.94,13.108,13.108,0,0,0,.121-2.274c0-.792-.026-.82-.8-.821-1.562,0-3.123,0-4.685,0a4.915,4.915,0,0,1-.66-.021c-.713-.1-.972-.5-.793-1.219" transform="translate(0 -8.82)"/>
        <path id="Trazado_132206" data-name="Trazado 132206" d="M32.506,17.938c.005.836.259,1.09,1.117,1.092,1.821,0,3.641.013,5.462-.008.416-.005.531.11.543.532a8.845,8.845,0,0,1-1.154,5.359A7.243,7.243,0,0,1,32.449,28.4c-1.218.046-2.439-.007-3.659-.015A3.472,3.472,0,0,1,27.2,25.51c-.085-1.156-.035-2.323-.014-3.485a3.976,3.976,0,0,1,.847-2.274,1.366,1.366,0,0,1,1.364-.69,1.172,1.172,0,0,0,.594-.034,1.16,1.16,0,0,0,.725-.869c.431,0,.863-.011,1.294,0a.475.475,0,0,0,.5-.221" transform="translate(-14.601 -9.647)" fill="#a97a63"/>
        <path id="Trazado_132207" data-name="Trazado 132207" d="M83.066,77.557a.961.961,0,0,0-.357,1.348,10.579,10.579,0,0,1,.814,5.17A6.545,6.545,0,0,1,79.486,81c-.247-.364-.456-.753-.691-1.126a.871.871,0,0,0-1.423-.246c-2.353,2.045-5.259,2.8-8.173,3.547a.773.773,0,0,1-.179,0,.819.819,0,0,1-.166-.675,21.619,21.619,0,0,1,1.085-6.637,7.6,7.6,0,0,1,.733-1.568,1.083,1.083,0,0,1,.512-.48,23.1,23.1,0,0,1,5.316.137,8.292,8.292,0,0,1,4.058,2.068.988.988,0,0,0,1.438.109l1.071,1.43" transform="translate(-37.025 -39.65)" fill="#dc636e"/>
        <path id="Trazado_132208" data-name="Trazado 132208" d="M29.908,91.417c.017.923-.6,1.321-1.3,1.052a24.716,24.716,0,0,1-5.334-2.841,25.818,25.818,0,0,1-9.543-12.28c-.036-.093-.068-.188-.1-.283a.9.9,0,1,1,1.683-.633c.214.495.387,1.007.607,1.5A23.988,23.988,0,0,0,29.052,90.7c.442.185.848.385.856.714" transform="translate(-7.296 -40.759)"/>
        <path id="Trazado_132209" data-name="Trazado 132209" d="M50.467,3.307a24.2,24.2,0,0,1,5.54.6c.649.147.939.546.822,1.1a.91.91,0,0,1-1.209.655,24.075,24.075,0,0,0-17.476,2.8,1.183,1.183,0,0,1-.957.247.879.879,0,0,1-.667-.772A.923.923,0,0,1,37.048,7a25.787,25.787,0,0,1,5.787-2.578,25.488,25.488,0,0,1,7.633-1.118" transform="translate(-19.636 -1.778)"/>
        <path id="Trazado_132210" data-name="Trazado 132210" d="M113.822,59.333a26.013,26.013,0,0,1-6.058,15.821.935.935,0,0,1-1.365.239c-.424-.349-.435-.892.012-1.432a24.155,24.155,0,0,0,5.068-10.414,23.516,23.516,0,0,0,.539-4.768c.008-.8.343-1.227.93-1.211s.88.443.873,1.256c0,.141,0,.281,0,.51" transform="translate(-57.047 -30.958)"/>
        <path id="Trazado_132211" data-name="Trazado 132211" d="M93.574,18.479c.5.364,1,.723,1.5,1.094a5.113,5.113,0,0,0,6.544.042c.42-.308.82-.642,1.238-.952a2.27,2.27,0,0,1,2.983-.059,2.257,2.257,0,0,1,1.146,2.121c-.086,2.481-.023,4.967-.029,7.45a6,6,0,0,1-6.347,6.31c-1.262,0-2.523-.014-3.785-.021a4.341,4.341,0,0,1-2.1-1.7A7.664,7.664,0,0,1,93.4,26.695c.107-.128.255-.089.391-.093a.591.591,0,0,0,.347-.074,1.557,1.557,0,0,0,.467-1.584c-.05-.482-.243-.9-.827-.94a.481.481,0,0,1-.377-.157.973.973,0,0,1-.124-.516c-.015-1.43-.02-2.859.005-4.288,0-.216-.038-.5.3-.562" transform="translate(-50.154 -9.72)" fill="#c28859"/>
        <path id="Trazado_132212" data-name="Trazado 132212" d="M103.588,4.031a3.69,3.69,0,0,1,3.329,3.176c.074.747.012,1.508.012,2.321a5.951,5.951,0,0,0-2.022-.8,4.13,4.13,0,0,0-3.23.984c-.42.337-.847.669-1.291.975a3.287,3.287,0,0,1-4.16-.091,10.26,10.26,0,0,0-2.758-1.776,1.558,1.558,0,0,1-.185-1.1,4.979,4.979,0,0,1,1.207-3.184,1.35,1.35,0,0,1,1.076-.561q3.924,0,7.848,0a.475.475,0,0,1,.172.044" transform="translate(-50.16 -2.143)" fill="#365e7c"/>
        <path id="Trazado_132213" data-name="Trazado 132213" d="M89.38,26.631a15.715,15.715,0,0,0,.158,3.462,7.074,7.074,0,0,0,3.2,4.368,6.138,6.138,0,0,1-7.061-6.249c-.009-2.681,0-5.363-.009-8.044a1.086,1.086,0,0,1,.312-.8A4.114,4.114,0,0,1,87.4,18.277a1.952,1.952,0,0,1,2.091.2c-.129.1-.118.242-.118.381v4.66c0,.14,0,.281.13.375a.3.3,0,0,1-.052.277,1.9,1.9,0,0,0-.149,2.01.575.575,0,0,1,.077.452" transform="translate(-46.073 -9.716)" fill="#b0794a"/>
        <path id="Trazado_132214" data-name="Trazado 132214" d="M99.481,3.934c-2.424.005-4.85.068-7.272-.012A2.266,2.266,0,0,0,90.02,5.252a5.884,5.884,0,0,0-.658,3.477,4.314,4.314,0,0,0-3.6.73c-.558-2.9.671-5.472,3.756-5.591,3.163-.121,6.334-.031,9.5-.032a.642.642,0,0,1,.459.1" transform="translate(-46.052 -2.046)" fill="#2b4d66"/>
        <path id="Trazado_132215" data-name="Trazado 132215" d="M126.789,38.086c0-.708,0-1.362,0-2.016,0-.395.175-.672.593-.673.4,0,.524.306.574.645a1.968,1.968,0,0,1-1.168,2.044" transform="translate(-68.185 -19.036)" fill="#ac7748"/>
        <path id="Trazado_132216" data-name="Trazado 132216" d="M80.425,38.059a1.958,1.958,0,0,1-1.091-2.208.526.526,0,0,1,.547-.453.5.5,0,0,1,.541.513c.007.706,0,1.413,0,2.148" transform="translate(-42.633 -19.036)" fill="#af7949"/>
        <path id="Trazado_132217" data-name="Trazado 132217" d="M67.734,94.575A45.565,45.565,0,0,0,72.86,93.13a17,17,0,0,0,3.86-1.9c.293-.2.414-.138.6.13A9.024,9.024,0,0,0,81,94.707c.135.061.236.136.23.308a34.756,34.756,0,0,1-.164,5.693,5.829,5.829,0,0,1-5.456,4.585c-1.5.093-3,.024-4.5.033a.857.857,0,0,1-.506-.168,6.9,6.9,0,0,1-2.854-4.355c.013-.2.17-.291.306-.405.472-.4.465-.724-.012-1.094-.138-.107-.313-.171-.4-.34a.731.731,0,0,1,.113-.806c.951.074,1.213-.1,1.352-.878a1.366,1.366,0,0,0-1.049-1.714c-.154-.039-.319-.053-.411-.211a.733.733,0,0,1,.085-.779" transform="translate(-36.342 -48.998)" fill="#fedccd"/>
        <path id="Trazado_132218" data-name="Trazado 132218" d="M64.552,73.912a11.233,11.233,0,0,0-1.787,4.78,24.7,24.7,0,0,0-.377,4.58,23.4,23.4,0,0,1-4.184.719,4.036,4.036,0,0,0-1.636.288c-.595-6.817,4.3-10.111,7.985-10.367" transform="translate(-30.394 -39.749)" fill="#ca5769"/>
        <path id="Trazado_132219" data-name="Trazado 132219" d="M63.81,104.733a7.264,7.264,0,0,0,2.8,4.306,1.39,1.39,0,0,0,.891.265c1.356,0,2.713.011,4.069.018a.89.89,0,0,1-.228.062c-2,0-4.012.124-6.009-.068a5.919,5.919,0,0,1-5.248-5.654c-.035-1.382,0-2.766-.022-4.149-.005-.331.092-.424.424-.462,1.072-.121,2.139-.293,3.208-.446q0,.422,0,.843a.381.381,0,0,1-.14.11c-.8.351-.8.364-.161.9.08.067.165.142.165.24,0,.514.242.992.221,1.508-.162.263-.055.551-.079.827-.184.128-.387.051-.581.051a2.016,2.016,0,0,0-.927.19c-.258.13-.486.3-.465.629a.655.655,0,0,0,.48.556,1.944,1.944,0,0,0,1.044.188c.2-.029.4-.085.563.083" transform="translate(-32.298 -53.027)" fill="#fecabd"/>
        <path id="Trazado_132220" data-name="Trazado 132220" d="M97.547,114q0,1.693,0,3.386c0,.257-.18.271-.373.271-.7,0-1.4,0-2.28,0a8.257,8.257,0,0,0,2.5-3.7l.156.042" transform="translate(-51.032 -61.285)" fill="#d8616b"/>
        <path id="Trazado_132221" data-name="Trazado 132221" d="M59.213,117.69c-.9,0-1.611,0-2.325,0-.22,0-.339-.08-.339-.312,0-1.111,0-2.223.079-3.361a9.308,9.308,0,0,0,2.585,3.671" transform="translate(-30.411 -61.317)" fill="#c65566"/>
        <path id="Trazado_132222" data-name="Trazado 132222" d="M101.015,106.488c0-.757-.007-1.431,0-2.1a.535.535,0,0,1,.54-.594c.384-.025.525.223.6.543a2.049,2.049,0,0,1-1.14,2.156" transform="translate(-54.323 -55.815)" fill="#f9c6b9"/>
        <path id="Trazado_132223" data-name="Trazado 132223" d="M54.8,106.431a1.9,1.9,0,0,1-1.106-2.223.518.518,0,0,1,.571-.419.532.532,0,0,1,.529.543c.01.1.005.2.006.3v1.8" transform="translate(-28.837 -55.815)" fill="#f9c6ba"/>
        <path id="Trazado_132224" data-name="Trazado 132224" d="M17.18,43.63a6.881,6.881,0,0,0,1.741-1.26c.157-.177.27-.144.444-.018a5.349,5.349,0,0,0,3.4.952c1.122-.031,2.246-.02,3.368,0a9.606,9.606,0,0,0,3.433-.462c.307-.11.375-.031.373.275-.013,2.406.049,4.814-.034,7.217a5.561,5.561,0,0,1-5.273,5.206c-1.441.045-2.885,0-4.328,0a5.167,5.167,0,0,1-2.561-2.561,5.065,5.065,0,0,1-.693-2.692,1.393,1.393,0,0,0-.013-1.093,1.885,1.885,0,0,1,.067-.934c.034-.05.08-.1.14-.1a.844.844,0,0,0,.96-.624,1.661,1.661,0,0,0-.2-1.592c-.209-.287-.612-.164-.853-.392a2.481,2.481,0,0,1,.031-1.917" transform="translate(-9.127 -22.72)" fill="#fedccd"/>
        <path id="Trazado_132225" data-name="Trazado 132225" d="M13.394,51.847a6.4,6.4,0,0,0,2.655,4.939c.156.122.318.237.477.355-3.273.232-5.761-1.47-6.429-4.424a6.827,6.827,0,0,1-.141-1.431c-.017-1.683,0-3.366-.015-5.049,0-.4.067-.579.516-.55a7.29,7.29,0,0,0,2.942-.45,6.078,6.078,0,0,0,.129,1.928,3.808,3.808,0,0,0-.338,1.645c.046.334.286.618.217.971q0,.554-.008,1.107c-.22.083-.378-.079-.556-.148a1.873,1.873,0,0,0-1.454.018c-.263.11-.533.237-.54.568s.265.477.519.591a2.046,2.046,0,0,0,1.458.04c.186-.055.355-.2.568-.111" transform="translate(-5.346 -24.328)" fill="#fecabd"/>
        <path id="Trazado_132226" data-name="Trazado 132226" d="M26.854,20.29c-.071.033-.147.1-.211.092-1.309-.2-1.713.8-2.157,1.68A3.078,3.078,0,0,0,24.2,23.52c.022.942.03,1.884,0,2.825a4.183,4.183,0,0,0,1.227,3.025c.08.088.149.186.223.28a3.794,3.794,0,0,1-3.382-.99,3.309,3.309,0,0,1-.941-2.276c-.019-.862-.01-1.724,0-2.586a3.377,3.377,0,0,1,3.423-3.5c.7-.02,1.4-.005,2.1-.006" transform="translate(-11.465 -10.909)" fill="#976b54"/>
        <path id="Trazado_132227" data-name="Trazado 132227" d="M13.678,26.944c.01.94.031,1.881.028,2.821a4.765,4.765,0,0,0,.544,2.372.528.528,0,0,1-.147.764,3.406,3.406,0,0,1-2.173,1.03c-1.418.171-1.419.171-1.419-1.236,0-1.161,0-2.321,0-3.482a3.49,3.49,0,0,1,.5-1.83.9.9,0,0,1,.885-.5,10.929,10.929,0,0,1,1.786.064" transform="translate(-5.652 -14.452)" fill="#a97963"/>
        <path id="Trazado_132228" data-name="Trazado 132228" d="M11.68,26.86c-.541,0-1.084.024-1.623-.007a.892.892,0,0,0-.908.546A3.446,3.446,0,0,0,8.7,29.115c.014,1.343.031,2.687-.009,4.029-.017.559.153.771.7.691a3.154,3.154,0,0,1,.54.012,8.9,8.9,0,0,1-2.5.054.643.643,0,0,1-.593-.716,38.092,38.092,0,0,1,.059-4.56,1.871,1.871,0,0,1,1.315-1.649,7.628,7.628,0,0,1,3.471-.115" transform="translate(-3.654 -14.368)" fill="#976a53"/>
        <path id="Trazado_132229" data-name="Trazado 132229" d="M48.925,56.525c0-.716,0-1.314,0-1.912,0-.324.114-.548.472-.567s.48.211.513.526a1.942,1.942,0,0,1-.984,1.952" transform="translate(-26.31 -29.064)" fill="#fbc8bb"/>
        <path id="Trazado_132230" data-name="Trazado 132230" d="M4.894,56.508a1.947,1.947,0,0,1-.982-1.945c.031-.3.157-.54.524-.522s.459.251.459.567c0,.6,0,1.193,0,1.9" transform="translate(-2.096 -29.062)" fill="#fcc9bc"/>
        <path id="Trazado_132231" data-name="Trazado 132231" d="M101.838,45.128a2.745,2.745,0,0,1-1.852-.7.917.917,0,0,1-.171-1.285.884.884,0,0,1,1.28-.12,1.009,1.009,0,0,0,1.4-.009.873.873,0,0,1,1.276.144.886.886,0,0,1-.183,1.277,2.7,2.7,0,0,1-1.755.7" transform="translate(-53.576 -23.016)"/>
        <path id="Trazado_132232" data-name="Trazado 132232" d="M93.164,33.331a2.067,2.067,0,0,1,.124-2.739.732.732,0,0,1,1.011.455,2.107,2.107,0,0,1-.05,2,.683.683,0,0,1-1.085.288" transform="translate(-49.856 -16.416)" fill="#010100"/>
        <path id="Trazado_132233" data-name="Trazado 132233" d="M113.781,32.008c0,.85-.4,1.489-.915,1.463-.49-.025-.9-.741-.879-1.521s.434-1.439.907-1.442c.5,0,.89.661.886,1.5" transform="translate(-60.224 -16.407)"/>
        <path id="Trazado_132234" data-name="Trazado 132234" d="M76.174,113.532a2.661,2.661,0,0,1-1.808-.722.907.907,0,0,1-.123-1.242.858.858,0,0,1,1.23-.153.954.954,0,0,0,1.343.008.866.866,0,0,1,1.235.132.9.9,0,0,1-.1,1.244,2.643,2.643,0,0,1-1.773.734" transform="translate(-39.823 -59.813)" fill="#010000"/>
        <path id="Trazado_132235" data-name="Trazado 132235" d="M87.4,100.5c.085,0,.306.006.523.032a.479.479,0,0,1,.462.467c.023.295-.1.54-.409.561-.363.024-.389.2-.386.5a1.757,1.757,0,0,1-.348,1.123.657.657,0,0,1-1.112.018,2.223,2.223,0,0,1-.018-2.37c.309-.4.738-.328,1.287-.333" transform="translate(-46.133 -54.044)" fill="#010101"/>
        <path id="Trazado_132236" data-name="Trazado 132236" d="M66.84,103.19a4.653,4.653,0,0,1-.306-.77c-.084-.4.113-.929-.581-1-.167-.017-.209-.273-.191-.462a.444.444,0,0,1,.346-.435c.212-.048.431-.065.647-.1a1.577,1.577,0,0,1,1.389,2.407c-.294.668-.7.778-1.3.355" transform="translate(-35.363 -54.008)" fill="#010101"/>
        <path id="Trazado_132237" data-name="Trazado 132237" d="M65.519,109.748a2.626,2.626,0,0,1-1.744-.141.827.827,0,0,1-.538-.726c-.017-.384.247-.575.542-.718a2.031,2.031,0,0,1,1.627-.112c.413.128.79.3.843.8.056.539-.39.675-.728.9" transform="translate(-34.007 -58.043)" fill="#e9a598"/>
        <path id="Trazado_132238" data-name="Trazado 132238" d="M88.931,107.952a1.822,1.822,0,0,1,1.217.416.7.7,0,0,1-.016,1.094,2.24,2.24,0,0,1-2.521-.045.636.636,0,0,1-.009-1,1.777,1.777,0,0,1,1.328-.463" transform="translate(-46.982 -58.055)" fill="#e9a598"/>
        <path id="Trazado_132239" data-name="Trazado 132239" d="M25.022,63.12a2.594,2.594,0,0,1-1.748-.7.884.884,0,0,1-.121-1.286.862.862,0,0,1,1.237-.108.922.922,0,0,0,1.294.006.865.865,0,0,1,1.278.141.915.915,0,0,1-.189,1.282,2.582,2.582,0,0,1-1.75.667" transform="translate(-12.33 -32.704)" fill="#010000"/>
        <path id="Trazado_132240" data-name="Trazado 132240" d="M14.2,57.89a2.123,2.123,0,0,1-2.316.1c-.608-.354-.585-.907.031-1.237a1.987,1.987,0,0,1,2.289.177.785.785,0,0,1-.005.957" transform="translate(-6.154 -30.371)" fill="#e9a498"/>
        <path id="Trazado_132241" data-name="Trazado 132241" d="M38.667,58.291a1.481,1.481,0,0,1-1.318-.5.561.561,0,0,1,.1-.885,2.215,2.215,0,0,1,2.155-.171c.263.153.5.34.475.7a.772.772,0,0,1-.563.7,1.81,1.81,0,0,1-.847.151" transform="translate(-19.993 -30.403)" fill="#e9a598"/>
        <path id="Trazado_132242" data-name="Trazado 132242" d="M34.814,50.7c0-.8.366-1.4.848-1.394s.856.629.853,1.4-.395,1.405-.862,1.4-.839-.626-.839-1.412" transform="translate(-18.722 -26.517)" fill="#010101"/>
        <path id="Trazado_132243" data-name="Trazado 132243" d="M16.947,51.973a2.008,2.008,0,0,1,.121-2.616.768.768,0,0,1,1.013.566,1.966,1.966,0,0,1-.1,1.774.648.648,0,0,1-1.029.276" transform="translate(-8.886 -26.519)" fill="#010101"/>
      </g>
    </g>
  </g>
</svg>
