<svg xmlns="http://www.w3.org/2000/svg" xmlns:xlink="http://www.w3.org/1999/xlink" width="60" height="73" viewBox="0 0 60 73">
  <defs>
    <clipPath id="clip-path">
      <rect id="Rect치ngulo_37157" data-name="Rect치ngulo 37157" width="44.473" height="35.14" fill="none"/>
    </clipPath>
  </defs>
  <g id="Grupo_156659" data-name="Grupo 156659" transform="translate(0.121 0.034)">
    <g id="Grupo_156378" data-name="Grupo 156378" transform="translate(0 0)">
      <rect id="Rect치ngulo_36766" data-name="Rect치ngulo 36766" width="60" height="73" rx="12" transform="translate(-0.121 -0.035)" fill="#1169e3"/>
    </g>
    <g id="Grupo_156652" data-name="Grupo 156652" transform="translate(4.372 10.491)">
      <g id="Grupo_156650" data-name="Grupo 156650" transform="translate(3.497 8.743)">
        <g id="Grupo_156649" data-name="Grupo 156649" transform="translate(0 0)" clip-path="url(#clip-path)">
          <path id="Trazado_127589" data-name="Trazado 127589" d="M20.4,49.445a5.285,5.285,0,0,0-1.589-3.25c-1.6-1.624-3.219-3.232-4.837-4.841a1.186,1.186,0,0,0-1.757-.073A1.2,1.2,0,0,0,12.3,43.01c.7.718,1.424,1.42,2.129,2.136a2.242,2.242,0,0,1,.1,3.223,2.3,2.3,0,0,1-3.272-.062c-1.843-1.828-3.673-3.67-5.51-5.5a1.97,1.97,0,0,1-.61-1.4c-.005-.3,0-.6-.023-.9a.6.6,0,0,1,.423-.7h0a2.425,2.425,0,0,1,.069-.873.453.453,0,0,1-.5-.4c-.042-.308.179-.437.426-.532A2.317,2.317,0,0,1,5.6,37.12c-.376-.006-.534-.205-.526-.572.008-.33.008-.66-.007-.99a1.363,1.363,0,0,0-1.352-1.344,1.336,1.336,0,0,0-1.329,1.36c.014,2.685.046,5.37.071,8.055a1.646,1.646,0,0,0,.592,1.166c3.015,3.01,6.018,6.031,9.045,9.029a1.5,1.5,0,0,1,.55,1.334,6.028,6.028,0,0,0,.009.853h7.822c0-2.189.127-4.381-.08-6.565m-6.775-6.669c-.4-.011-.9-.51-.886-.795a.454.454,0,0,1,.413-.453c.246-.036.847.573.843.829-.005.3-.183.419-.369.418m6.32,11.566c.006.338-.083.646-.447.652s-.463-.294-.461-.636c.009-1.2-.008-2.4.006-3.6a4.977,4.977,0,0,0-1.611-3.89c-.92-.86-1.788-1.775-2.678-2.666-.085-.085-.173-.167-.249-.26a.412.412,0,0,1-.006-.606.437.437,0,0,1,.644,0c.267.241.518.5.767.76.973,1.017,2.048,1.937,2.944,3.029a5.26,5.26,0,0,1,1.08,3.211c.032.658.006,1.319.006,1.979,0,.675-.008,1.35,0,2.025" transform="translate(-1.487 -21.321)" fill="#feb59e"/>
          <path id="Trazado_127590" data-name="Trazado 127590" d="M85.645,40.63c.021-1.681.041-3.362.05-5.043a1.306,1.306,0,0,0-.789-1.259,1.238,1.238,0,0,0-1.354.153,1.394,1.394,0,0,0-.544,1.177c-.015,1.816-.052,3.632-.051,5.448a2.439,2.439,0,0,1-.772,1.842c-1.775,1.748-3.531,3.516-5.288,5.283a2.321,2.321,0,0,1-2.382.685,2.206,2.206,0,0,1-.963-3.68c.714-.75,1.459-1.47,2.193-2.2a1.31,1.31,0,0,0,.437-.861,1.1,1.1,0,0,0-.6-1.118,1.123,1.123,0,0,0-1.269.1,2.761,2.761,0,0,0-.3.274c-1.519,1.517-3.029,3.041-4.557,4.549a5.931,5.931,0,0,0-1.86,4.341c-.009,1.891,0,3.781.006,5.672h7.823a.493.493,0,0,0,.013-.133,2.749,2.749,0,0,1,1.076-2.6c2.8-2.709,5.525-5.491,8.278-8.247a3.635,3.635,0,0,0,.674-.778.521.521,0,0,1,.587-.223h0l.018-.879a.461.461,0,0,1-.434-.439c-.013-.283.185-.421.435-.493a2.423,2.423,0,0,1,.069-.874c-.448-.034-.5-.338-.5-.7M74.436,54.376c-.284-.006-.446-.14-.438-.436s.427-.746.689-.715a.492.492,0,0,1,.46.468c.026.27-.422.684-.711.684M85.147,35.838c-.135,2.627-.046,5.13-.07,7.632a1.212,1.212,0,0,1-.385.878q-4.1,4.105-8.211,8.208a1.2,1.2,0,0,1-.322.239.413.413,0,0,1-.533-.085.4.4,0,0,1-.014-.536,4.738,4.738,0,0,1,.434-.512q3.863-3.869,7.736-7.727a1.236,1.236,0,0,0,.4-.983c-.023-1.695.009-3.39-.012-5.084-.009-.751.093-1.493.086-2.241,0-.268.059-.486.368-.518.326-.034.451.195.516.455a.779.779,0,0,1,.006.277" transform="translate(-42.123 -21.309)" fill="#feb59e"/>
          <path id="Trazado_127591" data-name="Trazado 127591" d="M35.735,15.769q1.738-1.732,3.471-3.47c.461-.461.638-.46,1.111.012q1.736,1.734,3.469,3.472a1.5,1.5,0,0,0,1.251.494,1.273,1.273,0,0,0,1.149-.875,1.352,1.352,0,0,0-.319-1.5q-1.521-1.535-3.057-3.056a.863.863,0,0,1-.284-.673c.011-1.08.014-2.161,0-3.241,0-.275.066-.354.347-.35,1.036.017,2.072.019,3.107,0A1.36,1.36,0,0,0,47.3,5.254a1.374,1.374,0,0,0-1.28-1.373c-.284-.02-.57-.011-.855-.011H41.348a4.069,4.069,0,0,0,.225-2.2A1.812,1.812,0,0,0,39.634,0a1.842,1.842,0,0,0-1.768,1.807A4.023,4.023,0,0,0,38.1,3.841H31.013a3.854,3.854,0,0,0,.225-2.2A1.818,1.818,0,0,0,29.276,0a1.853,1.853,0,0,0-1.755,1.826,4,4,0,0,0,.243,2.027H20.671a3.81,3.81,0,0,0,.249-1.916,1.868,1.868,0,1,0-3.735-.046,3.859,3.859,0,0,0,.252,1.977c-1.52,0-2.987,0-4.453,0a1.368,1.368,0,1,0,0,2.723c.976,0,1.951.012,2.927-.006.279-.005.353.07.349.348q-.025,1.621,0,3.242a.955.955,0,0,1-.315.751c-.984.968-1.955,1.951-2.934,2.925a1.493,1.493,0,0,0-.465.8A1.394,1.394,0,0,0,14.913,15.9c1.217-1.2,2.422-2.417,3.633-3.626.426-.425.628-.428,1.049-.008q1.771,1.764,3.538,3.53a1.419,1.419,0,0,0,2.239-.012q1.754-1.748,3.5-3.5c.446-.445.63-.445,1.081,0q1.737,1.734,3.471,3.471a1.436,1.436,0,0,0,2.306.008M38.763,1.838A.952.952,0,0,1,39.672.9a.916.916,0,0,1,1.006.866,6.754,6.754,0,0,1,0,1.21.952.952,0,0,1-.961.884.984.984,0,0,1-.956-.948c-.012-.179,0-.359,0-.539s-.01-.36,0-.539M28.44,1.714a.962.962,0,0,1,1.9,0,4.342,4.342,0,0,1,.006.672h.031a5.345,5.345,0,0,1-.042.67.969.969,0,0,1-.946.8.956.956,0,0,1-.944-.806,4.612,4.612,0,0,1,0-1.343M18.1,1.759A.913.913,0,0,1,19.075.9a.953.953,0,0,1,.94.9c.017.193,0,.389,0,.584h0a5.574,5.574,0,0,1,0,.583.981.981,0,0,1-.963.891.94.94,0,0,1-.943-.851,6.8,6.8,0,0,1,0-1.254m12.48,9.883a1.444,1.444,0,0,0-2.339.005q-1.736,1.734-3.471,3.468c-.431.43-.619.431-1.048,0Q22,13.4,20.285,11.684a1.46,1.46,0,0,0-2.4-.015q-1.737,1.734-3.469,3.47c-.257.259-.538.449-.847.136s-.115-.593.143-.849c.969-.962,1.927-1.936,2.9-2.892a1.713,1.713,0,0,0,.547-1.322c-.017-1.275,0-2.551-.006-3.826,0-.575-.112-.689-.676-.69-1.141,0-2.281-.006-3.422,0-.356,0-.667-.075-.654-.488.012-.385.32-.442.653-.441q8.194.006,16.387,0H45.558c.36,0,.768-.058.829.454.039.325-.231.469-.81.47-1.1,0-2.191,0-3.286,0-.543,0-.659.118-.661.66,0,1.276.01,2.551-.006,3.826a1.715,1.715,0,0,0,.558,1.317c1,.976,1.975,1.972,2.964,2.956.245.243.354.514.09.784s-.546.158-.792-.071c-.077-.072-.149-.148-.223-.222Q42.6,13.321,40.975,11.7a1.461,1.461,0,0,0-2.432-.009L35.3,14.936c-.691.691-.727.691-1.433-.015q-1.639-1.639-3.279-3.279" transform="translate(-7.156 0)"/>
          <path id="Trazado_127592" data-name="Trazado 127592" d="M65.971,53.976c0-1.771-.026-3.542.005-5.312a5.733,5.733,0,0,1,1.679-4.015c1.572-1.61,3.177-3.19,4.771-4.778a1.388,1.388,0,0,1,.97-.5,1.211,1.211,0,0,1,1.191.572,1.332,1.332,0,0,1-.056,1.45,2.914,2.914,0,0,1-.418.471c-.655.66-1.337,1.3-1.966,1.981a2.059,2.059,0,0,0,.621,3.377,2.007,2.007,0,0,0,2.3-.37q2.9-2.86,5.763-5.76a1.7,1.7,0,0,0,.453-1.14c.139-1.888.058-3.778.081-5.667a1.608,1.608,0,0,1,.536-1.286,1.307,1.307,0,0,1,1.38-.295,1.406,1.406,0,0,1,1,1.273,41.43,41.43,0,0,1-.016,4.272c-.011.164-.031.328-.044.493a1.192,1.192,0,0,0,.408,1.127c.33-.07.4-.3.406-.6.012-1.726.034-3.452.047-5.178a2.18,2.18,0,0,0-.3-1.115A2.242,2.242,0,0,0,80.6,34.092q-.042,2.791-.058,5.583a1.491,1.491,0,0,1-.461,1.123c-1.791,1.775-3.567,3.565-5.354,5.345a1.418,1.418,0,0,1-2.047.11,1.355,1.355,0,0,1,.137-2c.7-.7,1.4-1.4,2.1-2.1a2.091,2.091,0,0,0,.049-3.018,2.066,2.066,0,0,0-2.978.078c-1.576,1.566-3.139,3.145-4.717,4.708a6.833,6.833,0,0,0-2.086,4.961c-.02,1.831-.007,3.662-.014,5.493,0,.277.038.529.35.593.338.07.485-.158.571-.44-.161-.157-.122-.362-.122-.552" transform="translate(-40.614 -19.84)"/>
          <path id="Trazado_127593" data-name="Trazado 127593" d="M67.391,50.134a5.93,5.93,0,0,1,1.86-4.341c1.527-1.508,3.038-3.033,4.557-4.549a2.8,2.8,0,0,1,.3-.274,1.122,1.122,0,0,1,1.268-.1,1.1,1.1,0,0,1,.6,1.118,1.308,1.308,0,0,1-.437.86c-.733.731-1.479,1.451-2.193,2.2a2.206,2.206,0,0,0,.963,3.68,2.321,2.321,0,0,0,2.382-.686c1.757-1.767,3.512-3.535,5.288-5.283a2.436,2.436,0,0,0,.771-1.842c0-1.816.036-3.632.052-5.448a1.393,1.393,0,0,1,.544-1.177,1.238,1.238,0,0,1,1.354-.154,1.307,1.307,0,0,1,.789,1.259q-.014,2.522-.05,5.043c0,.364.05.667.5.7a1.192,1.192,0,0,1-.408-1.127c.014-.164.034-.328.044-.492a41.439,41.439,0,0,0,.016-4.273,1.406,1.406,0,0,0-1-1.273,1.307,1.307,0,0,0-1.38.295,1.608,1.608,0,0,0-.536,1.286c-.024,1.889.058,3.779-.081,5.667a1.706,1.706,0,0,1-.453,1.14q-2.868,2.893-5.763,5.76a2.006,2.006,0,0,1-2.3.37,2.059,2.059,0,0,1-.621-3.377c.63-.684,1.311-1.32,1.966-1.981a2.915,2.915,0,0,0,.418-.471,1.332,1.332,0,0,0,.056-1.45,1.211,1.211,0,0,0-1.191-.572,1.39,1.39,0,0,0-.97.5c-1.595,1.589-3.2,3.168-4.771,4.778a5.733,5.733,0,0,0-1.679,4.015c-.031,1.77-.009,3.541-.005,5.312,0,.19-.039.4.122.552,0-1.891-.015-3.781-.006-5.672" transform="translate(-41.917 -21.118)"/>
          <path id="Trazado_127594" data-name="Trazado 127594" d="M26.049,59.329a6.347,6.347,0,0,0-1.8-4.391c-1.67-1.724-3.381-3.411-5.089-5.1a1.942,1.942,0,0,0-2.08-.472,2.066,2.066,0,0,0-.819,3.431c.748.78,1.532,1.524,2.284,2.3a1.32,1.32,0,0,1-1.266,2.216,1.616,1.616,0,0,1-.794-.482c-1.578-1.585-3.131-3.2-4.755-4.732a2.669,2.669,0,0,1-1.042-2.424.53.53,0,0,0-.477-.643,2.52,2.52,0,0,0,.279,2.862c1.861,1.875,3.749,3.724,5.6,5.613a2.262,2.262,0,0,0,2.988.061,2.1,2.1,0,0,0,.043-3c-.662-.716-1.374-1.386-2.063-2.076a2.034,2.034,0,0,1-.476-.648,1.338,1.338,0,0,1,.327-1.485,1.384,1.384,0,0,1,1.6-.04,3.878,3.878,0,0,1,.466.424L23.429,55.2a6.047,6.047,0,0,1,1.845,4.449c0,1.666,0,3.332,0,5,0,.2.054.425-.118.6.087.283.233.509.572.44.313-.064.352-.317.35-.593-.009-1.921.019-3.842-.026-5.762" transform="translate(-6.165 -30.557)"/>
          <path id="Trazado_127595" data-name="Trazado 127595" d="M25.1,64.647c0-1.666,0-3.332,0-5A6.047,6.047,0,0,0,23.256,55.2L18.8,50.742a3.789,3.789,0,0,0-.466-.424,1.383,1.383,0,0,0-1.6.04,1.338,1.338,0,0,0-.328,1.485,2.032,2.032,0,0,0,.477.649c.689.691,1.4,1.36,2.063,2.076a2.1,2.1,0,0,1-.043,3,2.262,2.262,0,0,1-2.988-.061c-1.847-1.889-3.735-3.738-5.6-5.614a2.52,2.52,0,0,1-.279-2.861.6.6,0,0,0-.423.7c.02.3.018.6.023.9a1.967,1.967,0,0,0,.61,1.4c1.837,1.835,3.666,3.677,5.51,5.5a2.3,2.3,0,0,0,3.272.061,2.242,2.242,0,0,0-.1-3.223c-.706-.716-1.426-1.418-2.13-2.136a1.2,1.2,0,0,1-.089-1.729,1.186,1.186,0,0,1,1.757.073c1.617,1.609,3.235,3.216,4.837,4.841A5.286,5.286,0,0,1,24.9,58.68c.207,2.184.075,4.376.08,6.565.171-.173.117-.395.118-.6" transform="translate(-5.991 -30.557)"/>
          <path id="Trazado_127596" data-name="Trazado 127596" d="M11.044,53.684a1.473,1.473,0,0,0-.511-1.225c-3.02-3.071-6.04-6.142-9.1-9.171a1.8,1.8,0,0,1-.58-1.4c.066-2.52-.144-5.038-.088-7.559a1.726,1.726,0,0,1,.484-1.312,1.316,1.316,0,0,1,1.408-.352,1.517,1.517,0,0,1,1.032,1.256,2.983,2.983,0,0,1,.02.719.966.966,0,0,0,.406.974.485.485,0,0,0,.378-.535c-.009-.375.006-.75-.016-1.124a2.166,2.166,0,0,0-.789-1.606,2.12,2.12,0,0,0-2.353-.34A2.129,2.129,0,0,0,0,34.069c.007,2.579.058,5.158.058,7.737a2.876,2.876,0,0,0,.906,2.161c2.831,2.811,5.63,5.652,8.476,8.448a2.058,2.058,0,0,1,.815,1.932.455.455,0,0,0,.344.592c.334.069.492-.143.567-.437a1,1,0,0,1-.122-.817" transform="translate(0 -19.812)"/>
          <path id="Trazado_127597" data-name="Trazado 127597" d="M12.4,54.954a1.5,1.5,0,0,0-.55-1.334c-3.027-3-6.03-6.019-9.045-9.029a1.647,1.647,0,0,1-.592-1.166c-.025-2.685-.058-5.37-.072-8.054a1.337,1.337,0,0,1,1.329-1.361,1.363,1.363,0,0,1,1.352,1.344c.015.33.015.66.007.99-.009.367.15.566.526.572a.966.966,0,0,1-.406-.974,3.022,3.022,0,0,0-.02-.719A1.517,1.517,0,0,0,3.9,33.968a1.315,1.315,0,0,0-1.408.352,1.725,1.725,0,0,0-.484,1.311c-.056,2.521.154,5.038.088,7.559a1.8,1.8,0,0,0,.58,1.4c3.062,3.03,6.082,6.1,9.1,9.171a1.473,1.473,0,0,1,.511,1.225,1,1,0,0,0,.122.817,6.028,6.028,0,0,1-.009-.853" transform="translate(-1.246 -21.118)"/>
          <path id="Trazado_127598" data-name="Trazado 127598" d="M97.449,61.711c-.2.2-.376.425-.577.627q-3.954,3.953-7.914,7.9a1.371,1.371,0,0,0-.471,1.144c.018.284.107.6-.109.862.073.3.232.5.565.437.308-.063.366-.312.353-.59-.008-.164.017-.332,0-.494a1.162,1.162,0,0,1,.434-1.049q4.434-4.4,8.838-8.823a4.43,4.43,0,0,0,.554-.646.526.526,0,0,0-.11-.816,6.066,6.066,0,0,0-1.557,1.448" transform="translate(-55.075 -37.555)"/>
          <path id="Trazado_127599" data-name="Trazado 127599" d="M98.37,60.47a3.654,3.654,0,0,1-.675.777C94.943,64,92.216,66.786,89.418,69.5a2.748,2.748,0,0,0-1.076,2.6.481.481,0,0,1-.014.133c.217-.263.128-.578.11-.862a1.372,1.372,0,0,1,.471-1.144q3.972-3.935,7.914-7.9c.2-.2.377-.428.577-.627a6.073,6.073,0,0,1,1.557-1.448.52.52,0,0,0-.587.223" transform="translate(-55.026 -37.539)"/>
          <path id="Trazado_127600" data-name="Trazado 127600" d="M116.171,56.388c.266-.04.449-.166.451-.46s-.2-.409-.451-.471c-.373.463-.373.463,0,.932" transform="translate(-72.221 -34.559)" fill="#070605"/>
          <path id="Trazado_127601" data-name="Trazado 127601" d="M115.479,55.948a.461.461,0,0,0,.434.439c-.372-.469-.372-.469,0-.932-.251.072-.448.21-.435.493" transform="translate(-71.964 -34.558)" fill="#070605"/>
          <path id="Trazado_127602" data-name="Trazado 127602" d="M10.2,45.058a.189.189,0,0,1,.112.127.451.451,0,0,0,.382-.47c0-.309-.254-.357-.459-.457a.372.372,0,0,1-.121.179c-.254.246-.233.454.086.622" transform="translate(-6.196 -27.58)" fill="#050403"/>
          <path id="Trazado_127603" data-name="Trazado 127603" d="M9.588,44.789a.454.454,0,0,0,.5.4.189.189,0,0,0-.112-.127c-.319-.167-.34-.375-.086-.622a.37.37,0,0,0,.121-.179c-.246.094-.468.224-.426.532" transform="translate(-5.972 -27.58)" fill="#050403"/>
          <path id="Trazado_127604" data-name="Trazado 127604" d="M39.744,65.191a5.264,5.264,0,0,0-1.081-3.211c-.9-1.092-1.971-2.011-2.944-3.029-.249-.26-.5-.519-.767-.76a.437.437,0,0,0-.644,0,.413.413,0,0,0,.006.606c.076.092.164.175.249.26.89.891,1.759,1.806,2.678,2.666a4.975,4.975,0,0,1,1.611,3.89c-.014,1.2,0,2.4-.006,3.6,0,.343.1.642.46.636s.453-.314.447-.652c-.012-.675,0-1.349,0-2.024,0-.66.026-1.321-.006-1.979" transform="translate(-21.299 -36.175)" fill="#fadfe1"/>
          <path id="Trazado_127605" data-name="Trazado 127605" d="M30.262,53.624a.454.454,0,0,0-.413.453c-.016.285.486.784.886.795.186,0,.364-.118.369-.418,0-.257-.6-.866-.843-.829" transform="translate(-18.601 -33.417)" fill="#fadfe0"/>
          <path id="Trazado_127606" data-name="Trazado 127606" d="M97.725,36.611c-.309.032-.37.251-.368.518.007.748-.095,1.491-.086,2.241.021,1.695-.011,3.39.012,5.084a1.235,1.235,0,0,1-.4.983Q93,49.289,89.147,53.165a4.669,4.669,0,0,0-.435.512.4.4,0,0,0,.014.535.413.413,0,0,0,.532.086,1.187,1.187,0,0,0,.322-.239q4.108-4.1,8.211-8.208a1.21,1.21,0,0,0,.385-.878c.024-2.5-.064-5,.07-7.632a.785.785,0,0,0-.005-.277c-.066-.26-.19-.489-.517-.455" transform="translate(-55.224 -22.813)" fill="#fadfe1"/>
          <path id="Trazado_127607" data-name="Trazado 127607" d="M85.277,84.7c-.262-.031-.681.413-.689.715s.154.43.438.436.737-.414.711-.684a.492.492,0,0,0-.46-.468" transform="translate(-52.714 -52.779)" fill="#fadee0"/>
          <path id="Trazado_127608" data-name="Trazado 127608" d="M36.811,22.821l3.247-3.247a1.461,1.461,0,0,1,2.432.008l3.246,3.247c.074.075.147.151.223.222.246.229.528.341.792.071s.154-.54-.091-.783c-.989-.984-1.967-1.981-2.964-2.957a1.713,1.713,0,0,1-.558-1.317c.016-1.276,0-2.551.006-3.826,0-.543.118-.659.66-.66,1.1,0,2.191,0,3.287,0,.578,0,.848-.144.81-.47-.061-.512-.469-.454-.829-.454H30.955q-8.194,0-16.387,0c-.333,0-.642.055-.653.442-.012.413.3.49.654.488,1.141-.008,2.281,0,3.422,0,.564,0,.676.115.676.69,0,1.276-.011,2.551.006,3.826a1.714,1.714,0,0,1-.547,1.323c-.975.956-1.932,1.93-2.9,2.892-.258.256-.451.537-.143.849s.589.123.846-.136q1.73-1.739,3.469-3.469a1.459,1.459,0,0,1,2.4.015Q23.521,21.286,25.241,23c.428.427.616.426,1.048,0q1.738-1.732,3.471-3.468a1.444,1.444,0,0,1,2.339-.005q1.641,1.637,3.279,3.279c.706.706.742.706,1.433.015m-7.8-4.563a1.43,1.43,0,0,1-.442,1.046c-.795.8-1.587,1.592-2.386,2.384-.342.339-.518.336-.868-.012-.8-.791-1.588-1.591-2.387-2.382a1.573,1.573,0,0,1-.481-1.17c0-1.3,0-2.608,0-3.912,0-.489.151-.63.652-.632.884,0,1.769,0,2.653,0s1.769.005,2.653,0c.409,0,.608.169.606.59-.006,1.364,0,2.728,0,4.092m3.78-.128c.009-1.3,0-2.608,0-3.911,0-.5.139-.637.64-.638.884,0,1.769,0,2.653,0,.869,0,1.739,0,2.608,0,.507,0,.657.139.659.626,0,1.333,0,2.668,0,4a1.529,1.529,0,0,1-.474,1.126c-.786.782-1.567,1.57-2.355,2.35-.345.342-.521.34-.869,0-.8-.792-1.589-1.59-2.386-2.383a1.554,1.554,0,0,1-.482-1.167" transform="translate(-8.671 -7.884)" fill="#72c1e8"/>
          <path id="Trazado_127609" data-name="Trazado 127609" d="M29.953,5.356a.981.981,0,0,0,.963-.891,5.575,5.575,0,0,0,0-.583h0c0-.195.014-.391,0-.584a.952.952,0,0,0-.94-.9.912.912,0,0,0-.971.856,6.764,6.764,0,0,0,0,1.254.94.94,0,0,0,.943.851" transform="translate(-18.06 -1.493)" fill="#fdb59e"/>
          <path id="Trazado_127610" data-name="Trazado 127610" d="M57.356,5.357a.969.969,0,0,0,.946-.8,5.281,5.281,0,0,0,.042-.671h-.031a4.341,4.341,0,0,0-.006-.672.962.962,0,0,0-1.9,0,4.6,4.6,0,0,0,0,1.343.957.957,0,0,0,.944.806" transform="translate(-35.122 -1.493)" fill="#fdb59e"/>
          <path id="Trazado_127611" data-name="Trazado 127611" d="M83.869,4.41a.984.984,0,0,0,.956.947.952.952,0,0,0,.961-.883,6.793,6.793,0,0,0,0-1.21A.917.917,0,0,0,84.778,2.4a.953.953,0,0,0-.909.934c-.012.179,0,.359,0,.539s-.01.36,0,.539" transform="translate(-52.261 -1.493)" fill="#fdb59e"/>
          <path id="Trazado_127612" data-name="Trazado 127612" d="M42.526,15.1c-.884.008-1.768,0-2.653,0s-1.769,0-2.653,0c-.5,0-.65.142-.652.632,0,1.3,0,2.608,0,3.912a1.574,1.574,0,0,0,.481,1.17c.8.791,1.589,1.591,2.387,2.382.35.347.526.351.868.012.8-.791,1.591-1.589,2.386-2.383a1.432,1.432,0,0,0,.442-1.046c0-1.364,0-2.728,0-4.092,0-.421-.2-.593-.606-.59m-.294,4.587a.727.727,0,0,1-.233.558c-.639.633-1.281,1.263-1.9,1.913-.193.2-.294.145-.457-.022q-.942-.967-1.908-1.91a.824.824,0,0,1-.267-.637c.009-1.08.013-2.159,0-3.239,0-.274.066-.362.348-.353.689.021,1.38.007,2.069.007s1.35.01,2.025,0c.243-.006.336.049.332.315-.015,1.125-.01,2.25,0,3.374" transform="translate(-22.787 -9.412)"/>
          <path id="Trazado_127613" data-name="Trazado 127613" d="M67.753,23.214c.788-.78,1.569-1.568,2.355-2.351a1.529,1.529,0,0,0,.475-1.126c0-1.334,0-2.668,0-4,0-.487-.152-.624-.659-.626-.869,0-1.739,0-2.608,0-.884,0-1.769,0-2.653,0-.5,0-.639.139-.641.638,0,1.3.005,2.608,0,3.912a1.553,1.553,0,0,0,.482,1.166c.8.793,1.588,1.591,2.386,2.383.347.344.523.346.869,0m-2.614-3.019a.686.686,0,0,1-.222-.517c.006-1.125.009-2.25,0-3.375,0-.238.069-.3.3-.3.69.015,1.38.005,2.07.005s1.381.011,2.07-.006c.255-.006.332.069.329.326-.014,1.11-.009,2.22,0,3.33a.784.784,0,0,1-.246.6c-.64.633-1.278,1.268-1.9,1.913-.164.168-.262.165-.424,0-.649-.667-1.311-1.32-1.97-1.976" transform="translate(-39.893 -9.415)"/>
        </g>
      </g>
      <g id="Grupo_156651" data-name="Grupo 156651">
        <path id="Trazado_127053" data-name="Trazado 127053" d="M15.232,123.416c-.4.088-.489-.1-.485-.469.01-.929-.006-.945-.967-.94-.358,0-.469-.109-.462-.463.007-.33.067-.483.447-.482.964,0,.989-.016.979-.978,0-.435.209-.443.532-.447s.49.051.49.437c0,.975.02.992.972.988.368,0,.455.131.456.473s-.086.473-.455.471c-.971-.005-.994.013-.973.932.01.427-.148.552-.535.477" transform="translate(-13.318 -89.361)" fill="#29c4bb"/>
        <path id="Trazado_127054" data-name="Trazado 127054" d="M213.435,151.158c.355-.068.552.05.494.452-.049.337.067.524.44.466s.5.077.5.469c0,.411-.165.506-.515.459-.335-.045-.441.1-.434.433.011.522-.312.722-.817.564-.24-.075-.187-.266-.172-.417.042-.412-.052-.665-.539-.582-.377.064-.4-.172-.4-.461s.012-.523.394-.464c.412.064.607-.087.538-.522-.065-.416.2-.434.509-.4" transform="translate(-164.083 -111.951)" fill="#29c4bb"/>
        <path id="Trazado_127055" data-name="Trazado 127055" d="M210.308,69.062c.092.4-.089.532-.461.469-.4-.068-.567.1-.5.5s-.1.479-.474.483-.532-.111-.465-.487c.072-.4-.1-.566-.494-.491s-.449-.138-.464-.485c-.018-.407.14-.514.495-.452.386.067.53-.092.464-.469-.063-.361.054-.506.455-.492.354.013.559.063.483.469s.1.559.5.492c.372-.063.553.071.46.467" transform="translate(-160.498 -52.631)" fill="#010000"/>
        <path id="Trazado_127056" data-name="Trazado 127056" d="M54.631,186.433c.087.37-.1.506-.465.439-.434-.079-.537.147-.474.513.069.407-.128.47-.485.467-.341,0-.525-.079-.453-.447.094-.483-.148-.6-.564-.531s-.407-.2-.409-.489.006-.524.392-.448c.519.1.651-.146.581-.611-.067-.445.272-.317.5-.33s.506-.045.437.34c-.086.477.081.7.585.6.421-.081.37.213.357.495" transform="translate(-42.505 -136.017)" fill="#010000"/>
        <path id="Trazado_127057" data-name="Trazado 127057" d="M121.783,17.224c-.1-.422.134-.5.479-.453s.5-.1.445-.449.05-.514.457-.506c.374.008.544.1.479.488s.115.521.484.466c.342-.051.513.031.515.448s-.159.542-.532.483c-.394-.063-.527.117-.466.484.069.412-.153.46-.5.467-.371.008-.492-.132-.437-.472.06-.373-.078-.543-.467-.478s-.542-.093-.457-.479" transform="translate(-95.608 -15.816)" fill="#29c4bb"/>
      </g>
    </g>
  </g>
</svg>
