<svg xmlns="http://www.w3.org/2000/svg" width="69" height="84" viewBox="0 0 69 84">
  <g id="Grupo_157741" data-name="Grupo 157741" transform="translate(-323 -10916.998)">
    <g id="Grupo_156377" data-name="Grupo 156377" transform="translate(323.373 10917.389)">
      <rect id="Rectángulo_36766" data-name="Rectángulo 36766" width="69" height="84" rx="12" transform="translate(-0.373 -0.391)" fill="#1169e3"/>
    </g>
    <g id="Grupo_156647" data-name="Grupo 156647" transform="translate(1)">
      <g id="Grupo_156582" data-name="Grupo 156582" transform="translate(-26 6270)">
        <path id="Trazado_127053" data-name="Trazado 127053" d="M15.507,123.96c-.454.1-.559-.113-.555-.537.012-1.063-.007-1.081-1.106-1.075-.409,0-.536-.124-.528-.529.007-.377.077-.553.512-.551,1.1,0,1.131-.018,1.119-1.119-.005-.5.239-.507.608-.511s.56.058.56.5c0,1.115.023,1.135,1.112,1.131.421,0,.521.15.522.541s-.1.541-.52.539c-1.11-.006-1.137.014-1.112,1.066.012.488-.169.631-.611.545" transform="translate(339.683 4573.993)" fill="#29c4bb"/>
        <path id="Trazado_127054" data-name="Trazado 127054" d="M213.642,151.161c.406-.078.632.057.565.517-.056.385.077.6.5.533s.57.088.573.537c0,.47-.189.578-.589.525-.383-.052-.5.115-.5.5.012.6-.357.826-.934.645-.274-.086-.214-.3-.2-.477.048-.472-.06-.76-.616-.666-.431.073-.457-.2-.456-.527s.014-.6.451-.53c.471.073.694-.1.616-.6-.075-.475.23-.5.582-.454" transform="translate(195.806 4552.685)" fill="#29c4bb"/>
        <path id="Trazado_127055" data-name="Trazado 127055" d="M210.718,69.268c.1.453-.1.608-.527.537-.46-.078-.648.111-.567.569s-.113.548-.542.553-.609-.127-.532-.557c.082-.459-.109-.648-.565-.562-.472.089-.513-.158-.531-.555-.021-.466.16-.588.566-.517.441.077.606-.106.531-.537-.072-.412.061-.579.521-.563.4.014.639.072.552.536s.115.639.567.563c.425-.072.632.081.526.534" transform="translate(199.254 4608.526)" fill="#010000"/>
        <path id="Trazado_127056" data-name="Trazado 127056" d="M55.04,186.64c.1.423-.11.578-.532.5-.5-.09-.614.169-.543.587.079.465-.146.537-.555.535-.39,0-.6-.091-.518-.511.108-.553-.169-.688-.645-.607s-.466-.225-.467-.559.007-.6.448-.512c.593.117.745-.168.665-.7-.077-.508.311-.362.569-.377.274-.016.579-.052.5.389-.1.545.092.8.67.687.482-.092.423.243.409.566" transform="translate(311.829 4530.025)" fill="#010000"/>
        <path id="Trazado_127057" data-name="Trazado 127057" d="M121.786,17.426c-.114-.483.153-.577.548-.518.41.061.572-.109.509-.513s.058-.588.522-.578c.427.009.623.119.548.558s.131.6.553.533c.391-.059.587.035.589.513s-.182.62-.608.553c-.45-.072-.6.133-.533.553.078.472-.175.526-.572.534-.424.009-.562-.151-.5-.54.068-.427-.09-.622-.535-.547s-.62-.106-.523-.547" transform="translate(261.153 4643.184)" fill="#29c4bb"/>
      </g>
      <path id="Trazado_132372" data-name="Trazado 132372" d="M784.58,73.08a19.977,19.977,0,0,0-39.244-1.525c-1.676,7.681.551,14.27,6.4,19.542a19.172,19.172,0,0,0,11.229,4.812c.071.007.162-.023.193.081h3.124a8.133,8.133,0,0,1,1.473-.219,20.064,20.064,0,0,0,16.862-17.088,3.2,3.2,0,0,1,.174-1.046v-3.2A5.841,5.841,0,0,1,784.58,73.08Zm-10.033-2a1.474,1.474,0,0,0-.624,1.363A13.006,13.006,0,0,1,754.4,83.508a2.6,2.6,0,0,1-.355-.227A9.8,9.8,0,0,0,760.6,81.3a4.722,4.722,0,0,1-4.256-3.2,4.336,4.336,0,0,0,2.017-.1,4.692,4.692,0,0,1-2.608-1.632,4.619,4.619,0,0,1-1.006-2.895,5.219,5.219,0,0,0,2.037.548,4.73,4.73,0,0,1-1.885-2.8,4.542,4.542,0,0,1,.5-3.305,16.925,16.925,0,0,0,1.716,1.72,13.015,13.015,0,0,0,7.488,3.045c.241.019.239-.049.207-.251a4.58,4.58,0,0,1,7.632-4.138.527.527,0,0,0,.584.143,7.373,7.373,0,0,0,2.448-1.021h0c.009.023.017.046.027.069,0,0,.015,0,.023,0l-.05-.069h0c.136.112.06.214,0,.308a.45.45,0,0,0-.035.063,4.79,4.79,0,0,1-1.71,2.086,8.059,8.059,0,0,0,2.444-.631A6.467,6.467,0,0,1,774.547,71.078Z" transform="translate(-407.792 10882.992)" fill="#fff"/>
    </g>
  </g>
</svg>
