<svg xmlns="http://www.w3.org/2000/svg" xmlns:xlink="http://www.w3.org/1999/xlink" width="69" height="84" viewBox="0 0 69 84">
  <defs>
    <clipPath id="clip-path">
      <rect id="Rect치ngulo_37911" data-name="Rect치ngulo 37911" width="51.379" height="51" fill="none"/>
    </clipPath>
  </defs>
  <g id="Grupo_157733" data-name="Grupo 157733" transform="translate(-323 -10916.998)">
    <g id="Grupo_156377" data-name="Grupo 156377" transform="translate(323.373 10917.39)">
      <rect id="Rect치ngulo_36766" data-name="Rect치ngulo 36766" width="69" height="84" rx="12" transform="translate(-0.373 -0.391)" fill="#1169e3"/>
    </g>
    <g id="Grupo_156647" data-name="Grupo 156647" transform="translate(1)">
      <g id="Grupo_156582" data-name="Grupo 156582" transform="translate(-26 6270)">
        <path id="Trazado_127053" data-name="Trazado 127053" d="M15.507,123.96c-.454.1-.559-.113-.555-.537.012-1.063-.007-1.081-1.106-1.075-.409,0-.536-.124-.528-.529.007-.377.077-.553.512-.551,1.1,0,1.131-.018,1.119-1.119-.005-.5.239-.507.608-.511s.56.058.56.5c0,1.115.023,1.135,1.112,1.131.421,0,.521.15.522.541s-.1.541-.52.539c-1.11-.006-1.137.014-1.112,1.066.012.488-.169.631-.611.545" transform="translate(339.683 4573.993)" fill="#29c4bb"/>
        <path id="Trazado_127054" data-name="Trazado 127054" d="M213.642,151.161c.406-.078.632.057.565.517-.056.385.077.6.5.533s.57.088.573.537c0,.47-.189.578-.589.525-.383-.052-.5.115-.5.5.012.6-.357.826-.934.645-.274-.086-.214-.3-.2-.477.048-.472-.06-.76-.616-.666-.431.073-.457-.2-.456-.527s.014-.6.451-.53c.471.073.694-.1.616-.6-.075-.475.23-.5.582-.454" transform="translate(195.806 4552.685)" fill="#29c4bb"/>
        <path id="Trazado_127055" data-name="Trazado 127055" d="M210.718,69.268c.1.453-.1.608-.527.537-.46-.078-.648.111-.567.569s-.113.548-.542.553-.609-.127-.532-.557c.082-.459-.109-.648-.565-.562-.472.089-.513-.158-.531-.555-.021-.466.16-.588.566-.517.441.077.606-.106.531-.537-.072-.412.061-.579.521-.563.4.014.639.072.552.536s.115.639.567.563c.425-.072.632.081.526.534" transform="translate(199.254 4608.526)" fill="#010000"/>
        <path id="Trazado_127056" data-name="Trazado 127056" d="M55.04,186.64c.1.423-.11.578-.532.5-.5-.09-.614.169-.543.587.079.465-.146.537-.555.535-.39,0-.6-.091-.518-.511.108-.553-.169-.688-.645-.607s-.466-.225-.467-.559.007-.6.448-.512c.593.117.745-.168.665-.7-.077-.508.311-.362.569-.377.274-.016.579-.052.5.389-.1.545.092.8.67.687.482-.092.423.243.409.566" transform="translate(311.829 4530.025)" fill="#010000"/>
        <path id="Trazado_127057" data-name="Trazado 127057" d="M121.786,17.426c-.114-.483.153-.577.548-.518.41.061.572-.109.509-.513s.058-.588.522-.578c.427.009.623.119.548.558s.131.6.553.533c.391-.059.587.035.589.513s-.182.62-.608.553c-.45-.072-.6.133-.533.553.078.472-.175.526-.572.534-.424.009-.562-.151-.5-.54.068-.427-.09-.622-.535-.547s-.62-.106-.523-.547" transform="translate(261.153 4643.184)" fill="#29c4bb"/>
      </g>
      <g id="Grupo_158086" data-name="Grupo 158086" transform="translate(331 10933.998)">
        <g id="Grupo_158086-2" data-name="Grupo 158086" clip-path="url(#clip-path)">
          <path id="Trazado_132328" data-name="Trazado 132328" d="M50.594,43.928a1.871,1.871,0,0,1-.366-1.5,8.606,8.606,0,0,0-4.757-9.4c-.282-.142-.3-.265-.2-.524a19.668,19.668,0,0,0,1.157-5.424,20.735,20.735,0,0,0-1.309-9.011.406.406,0,0,1,.119-.553,5.033,5.033,0,0,0,1.623-2.537.489.489,0,0,1,.389-.389,3.09,3.09,0,0,0,1.781-1.305,8.652,8.652,0,0,0-.284-9.671.727.727,0,0,0-1-.281c-.492.415-.55.694-.168,1.243A7.022,7.022,0,0,1,48.846,9.2a6.77,6.77,0,0,1-1.106,3.282.846.846,0,0,1-.159.192c-.134.11-.239.347-.441.247-.166-.082-.076-.3-.076-.463-.006-1.169,0-2.338,0-3.507a2.7,2.7,0,0,0-2.283-2.346c-.2-.04-.376-.056-.361-.36a.684.684,0,0,0-.7-.753c-.409-.04-.71.244-.792.738a4.182,4.182,0,0,1-.8,1.974A4.821,4.821,0,0,1,38.74,9.854a7.033,7.033,0,0,1-1.949.036.739.739,0,0,0-.853.472.7.7,0,0,0,.267.884.421.421,0,0,1,.192.378c-.007.433,0,.866,0,1.344a1.557,1.557,0,0,1-.884-.865A7.133,7.133,0,0,1,40.036,1.724a6.49,6.49,0,0,1,3.989.2,2.156,2.156,0,0,1,.838.318.953.953,0,0,0,1.274-.126c.151-.7.054-.9-.6-1.223a8.6,8.6,0,0,0-11.88,4.769c-.146.4-.253.472-.677.316a20.579,20.579,0,0,0-14.623-.023c-.425.155-.583.16-.76-.317a8.628,8.628,0,1,0-15.545,7.34,3.266,3.266,0,0,0,1.922,1.588.574.574,0,0,1,.449.453,4.831,4.831,0,0,0,1.538,2.419.53.53,0,0,1,.16.72,19.59,19.59,0,0,0-1.288,5.905,20.475,20.475,0,0,0,1.185,8.486c.085.229.05.344-.19.447a6.988,6.988,0,0,0-1.42.841c-.528.4-.582.624-.293,1.239.446.355.835.223,1.269-.074a7,7,0,0,1,6.765-.831,1.788,1.788,0,0,1,.218.117,6.967,6.967,0,0,1,4.223,5.621,6.858,6.858,0,0,1-.072,2.246,3.5,3.5,0,0,0,.711,2.779,1.927,1.927,0,0,1-1.338,3.1H14.279a7.841,7.841,0,0,0,.586-3.95c0-.871.012-1.741,0-2.612a2.718,2.718,0,0,0-2.244-2.7c-.288-.058-.464-.1-.444-.473a.639.639,0,0,0-.632-.66.688.688,0,0,0-.783.487,5.687,5.687,0,0,0-.137.636,4.072,4.072,0,0,1-3.557,3.152,9.436,9.436,0,0,1-2.7.1c-.438-.037-.81.034-.958.516-.13.422.031.725.574.946.255.1.2.271.2.441a14.045,14.045,0,0,0,.138,2.9c.1.4.246.791.38,1.217a12.617,12.617,0,0,1-1.643-.011,1.91,1.91,0,0,1-1.33-2.954,4.265,4.265,0,0,0,.728-3.407,6.3,6.3,0,0,1,.594-3.861.922.922,0,0,0-.166-1.219h0c-.664-.179-.888-.075-1.186.551a8.639,8.639,0,0,0-.661,5.327A1.62,1.62,0,0,1,.78,43.756,7.316,7.316,0,0,0,0,45.141v2.01c.087.007.085.081.111.14a3.455,3.455,0,0,0,3.439,2.28c.653,0,1.306.009,1.959,0a.989.989,0,0,1,.684.228,5.276,5.276,0,0,0,6.63.022,1.05,1.05,0,0,1,.722-.251q1.1.022,2.21,0a3.451,3.451,0,0,0,3.261-2.577,6.241,6.241,0,0,0,.079-1.681,21.053,21.053,0,0,0,13.061.009c0,.168.007.3,0,.43a3.448,3.448,0,0,0,3.557,3.824c.67.006,1.34.012,2.009,0a1.039,1.039,0,0,1,.723.251,5.073,5.073,0,0,0,5.907.426,4.214,4.214,0,0,1,2.712-.674c.234.015.469,0,.7,0a3.48,3.48,0,0,0,2.828-5.643M13.287,46.267a3.817,3.817,0,0,1-7.576-.373c-.036-.634,0-1.273-.029-1.907-.017-.338.108-.429.425-.44a7.776,7.776,0,0,0,2.774-.614,5.015,5.015,0,0,0,2.643-2.349.584.584,0,0,1,.711-.356A1.248,1.248,0,0,1,13.352,41.5c.019.72,0,1.44,0,2.331a20.16,20.16,0,0,1-.069,2.436M38.31,11.4a7.651,7.651,0,0,0,3.275-.843A4.847,4.847,0,0,0,43.738,8.45a.607.607,0,0,1,.754-.367,1.206,1.206,0,0,1,1.068,1.2c.025.77.006,1.541.006,2.311h-.005c0,.687.028,1.374,0,2.06a3.783,3.783,0,0,1-3.836,3.654,3.825,3.825,0,0,1-3.806-3.7c-.024-.585.015-1.173-.016-1.758-.018-.331.1-.433.413-.447M4.726,9.9a.858.858,0,0,0-.989.413.71.71,0,0,0,.313.989.357.357,0,0,1,.14.351c0,.285.011.57-.006.854-.009.151.106.381-.1.437-.155.043-.3-.134-.4-.263A6.073,6.073,0,0,1,2.428,9.345,7.1,7.1,0,0,1,9.91,1.527a4.831,4.831,0,0,1,1.851.387,6.6,6.6,0,0,1,3.911,3.173,6.919,6.919,0,0,1-.009,7.163,1.529,1.529,0,0,1-.778.744v-1.43q-.01-1.054-.019-2.108a2.726,2.726,0,0,0-2.32-2.836c-.286-.057-.375-.157-.371-.451a.634.634,0,0,0-.624-.662.683.683,0,0,0-.805.517c-.06.19-.079.393-.123.588A3.8,3.8,0,0,1,7.9,9.549,7.562,7.562,0,0,1,4.726,9.9m.985,3.868c-.031-.5-.019-1-.021-1.506,0-.822,0-.819.8-.888a7.452,7.452,0,0,0,2.872-.815,4.847,4.847,0,0,0,2.152-2.107.6.6,0,0,1,.756-.363,1.247,1.247,0,0,1,1.083,1.3c.014.7,0,1.406,0,2.269a20.387,20.387,0,0,1-.075,2.5,3.819,3.819,0,0,1-7.571-.387M32.892,43.435a19.41,19.41,0,0,1-14.535,0c-.472-.183-.414-.514-.368-.849a12.206,12.206,0,0,0,.118-2.7,8.728,8.728,0,0,0-7.176-7.614,8.571,8.571,0,0,0-3.044.057c-.282.06-.369-.013-.461-.267a19.584,19.584,0,0,1-1.135-6.84,18.929,18.929,0,0,1,1.146-6.337c.106-.3.189-.4.552-.3a5.29,5.29,0,0,0,6.614-3.52.677.677,0,0,1,.515-.512,3.12,3.12,0,0,0,1.792-1.448,8.411,8.411,0,0,0,1.205-5.085c-.024-.3.076-.4.329-.5A19.275,19.275,0,0,1,32.787,7.51a.464.464,0,0,1,.355.577A8.35,8.35,0,0,0,34.414,13.2,3.083,3.083,0,0,0,36.16,14.56a.632.632,0,0,1,.488.475,5.294,5.294,0,0,0,6.641,3.548c.336-.1.426-.015.525.27a19.4,19.4,0,0,1,.029,13.176c-.092.263-.167.349-.484.288a8.622,8.622,0,0,0-10.116,9.975c.03.181.026.367.043.55a.515.515,0,0,1-.4.592M45.556,45.8a3.824,3.824,0,0,1-7.642-.038c-.025-.6.013-1.207-.016-1.809-.016-.33.128-.391.407-.4a8,8,0,0,0,2.731-.588,5.167,5.167,0,0,0,2.757-2.44.485.485,0,0,1,.542-.305,1.216,1.216,0,0,1,1.224,1.21c.028.769.006,1.541.006,2.311h0c0,.687.028,1.375-.005,2.06m3.626,1.776a1.721,1.721,0,0,1-1.033.459H46.56c.879-2.066.435-4.241.506-6.373a2.659,2.659,0,0,0-2.335-2.91c-.254-.052-.313-.129-.31-.375a.7.7,0,0,0-.676-.739.76.76,0,0,0-.815.661c-.059.26-.094.528-.17.783a4.084,4.084,0,0,1-3.494,2.842,9.316,9.316,0,0,1-2.7.1c-.454-.042-.819.077-.942.545a.7.7,0,0,0,.555.913c.266.073.212.251.218.426.025.8-.048,1.606.055,2.408a6.017,6.017,0,0,0,.517,1.725,6.714,6.714,0,0,1-1.809-.029,1.932,1.932,0,0,1-1.136-3.049,3.888,3.888,0,0,0,.692-3.027,7.129,7.129,0,0,1,9.668-7.753,3.41,3.41,0,0,1,.353.179,7.126,7.126,0,0,1,4,7.869,3.283,3.283,0,0,0,.672,2.637,1.928,1.928,0,0,1-.226,2.71" transform="translate(0 0)"/>
          <path id="Trazado_132329" data-name="Trazado 132329" d="M6.735,113.024a9.375,9.375,0,0,0-.609,1.961,8.281,8.281,0,0,0,.04,2.649,3.41,3.41,0,0,1-.528,2.395c-.094.158-.206.305-.3.463a1.8,1.8,0,0,0,1.246,2.737.682.682,0,0,0,.1.013c.383.01.861.168,1.125-.054.311-.261-.082-.659-.146-1a13.071,13.071,0,0,1-.077-2.405,1.026,1.026,0,0,0-.473-1.016.777.777,0,0,1-.316-.932.8.8,0,0,1,.785-.592c.652-.049,1.3.02,1.957-.01a6.257,6.257,0,0,0,2.513-.633,3.458,3.458,0,0,0,1.877-2.355,3.917,3.917,0,0,1,.22-.823.864.864,0,0,1,.868-.565.793.793,0,0,1,.742.649.641.641,0,0,0,.533.515,2.9,2.9,0,0,1,2.216,2.925c.011,1.357.008,2.713,0,4.07a4.9,4.9,0,0,1-.376,1.86c-.14.337-.032.409.289.387.3-.021.6,0,.9-.01a1.851,1.851,0,0,0,.205-.034,2.516,2.516,0,0,0,.317-3.079,3.965,3.965,0,0,1-.656-3.4,6.127,6.127,0,0,0-.283-2.794,7.35,7.35,0,0,0-2.824-4.085c-.1-.044-.191-.089-.29-.129a6.929,6.929,0,0,0-6.9.763c-.567.386-.972.361-1.291-.074h0a5.315,5.315,0,0,0-1.227,1.511h0a.757.757,0,0,1,.357,1.09" transform="translate(-3.494 -75.344)" fill="#fe5a95"/>
          <path id="Trazado_132330" data-name="Trazado 132330" d="M14.565,110.18a6.929,6.929,0,0,1,6.9-.763c.1.04.194.084.29.128-.034-.025-.065-.052-.1-.077a.8.8,0,0,1-.128-.151,1.768,1.768,0,0,0-.219-.117,7,7,0,0,0-6.765.831c-.434.3-.823.43-1.269.074.319.435.724.46,1.291.074" transform="translate(-9.163 -75.027)" fill="#fe5a95"/>
          <path id="Trazado_132331" data-name="Trazado 132331" d="M6.16,119.364a6.3,6.3,0,0,0-.594,3.861,4.267,4.267,0,0,1-.728,3.407,1.91,1.91,0,0,0,1.33,2.954,12.568,12.568,0,0,0,1.643.012c-.135-.426-.282-.815-.381-1.217a14.046,14.046,0,0,1-.138-2.9c-.006-.17.053-.337-.2-.441-.543-.221-.7-.523-.574-.946.148-.481.52-.553.958-.516a9.446,9.446,0,0,0,2.7-.1,4.072,4.072,0,0,0,3.557-3.152,5.657,5.657,0,0,1,.137-.636.688.688,0,0,1,.783-.487.639.639,0,0,1,.632.66c-.02.371.156.415.444.473a2.718,2.718,0,0,1,2.244,2.7c.016.87,0,1.741,0,2.612a7.841,7.841,0,0,1-.586,3.95H19c.052-.052.1-.106.149-.161a1.83,1.83,0,0,1-.2.035c-.3.006-.6-.011-.9.009-.321.022-.429-.05-.289-.387a4.9,4.9,0,0,0,.376-1.86c.007-1.357.011-2.713,0-4.069a2.9,2.9,0,0,0-2.216-2.926.64.64,0,0,1-.533-.515.794.794,0,0,0-.742-.649.864.864,0,0,0-.868.565,3.908,3.908,0,0,0-.22.823,3.458,3.458,0,0,1-1.877,2.355,6.248,6.248,0,0,1-2.513.633c-.653.03-1.306-.039-1.958.011a.794.794,0,0,0-.784.592.777.777,0,0,0,.316.932A1.026,1.026,0,0,1,7.2,126a13.1,13.1,0,0,0,.077,2.405c.065.34.458.738.147,1-.264.221-.741.064-1.125.054a.683.683,0,0,1-.1-.013A1.8,1.8,0,0,1,4.953,126.7c.095-.158.207-.305.3-.463a3.41,3.41,0,0,0,.528-2.395,8.288,8.288,0,0,1-.04-2.649,9.391,9.391,0,0,1,.609-1.961.757.757,0,0,0-.357-1.09.922.922,0,0,1,.166,1.219" transform="translate(-3.109 -81.555)" fill="#fe5a95"/>
          <path id="Trazado_132332" data-name="Trazado 132332" d="M143.57,7.139c-.286-.112-.558-.259-.849-.36.247.221.537.391.789.609a7.852,7.852,0,0,1,2.674,5.09,7.028,7.028,0,0,1-.487,3.463c0,.477.009.957.031,1.445a1.1,1.1,0,0,0,.616-.636,6.889,6.889,0,0,0-.107-7.022,4.847,4.847,0,0,1-.419-.74A.684.684,0,0,1,146.264,8c-.2.034-.289-.132-.4-.243a6.013,6.013,0,0,0-1.2-.964.767.767,0,0,1-1.086.34" transform="translate(-98.519 -4.68)" fill="#5b5555"/>
          <path id="Trazado_132333" data-name="Trazado 132333" d="M152.145,11.72a4.851,4.851,0,0,0,.419.74,6.888,6.888,0,0,1,.107,7.022,1.1,1.1,0,0,1-.616.636c-.022-.488-.028-.968-.031-1.445-.011.03-.021.059-.032.089,0-.621,0-1.243,0-1.865,0-.178.056-.37-.081-.531,0,1.169,0,2.339,0,3.508,0,.158-.09.381.077.463.2.1.307-.138.441-.248a.838.838,0,0,0,.159-.192,6.77,6.77,0,0,0,1.106-3.282,7.022,7.022,0,0,0-1.27-4.636c-.381-.548-.324-.828.169-1.243a.685.685,0,0,0-.446.984" transform="translate(-104.846 -7.411)" fill="#5b5555"/>
          <path id="Trazado_132334" data-name="Trazado 132334" d="M142.988,6.54a2.158,2.158,0,0,0-.838-.318,1.933,1.933,0,0,0,.177.173c.29.1.563.248.849.36a.766.766,0,0,0,1.086-.34.953.953,0,0,1-1.273.126" transform="translate(-98.125 -4.295)" fill="#5b5555"/>
          <path id="Trazado_132335" data-name="Trazado 132335" d="M123.223,119.266a2.779,2.779,0,0,1-.395-2.335,7.457,7.457,0,0,0-1.075-5.27,8.334,8.334,0,0,0-1.943-2.135.6.6,0,0,1-.1-.166,3.293,3.293,0,0,0-.353-.179,7.129,7.129,0,0,0-9.668,7.753,3.888,3.888,0,0,1-.692,3.027,1.932,1.932,0,0,0,1.137,3.049,6.714,6.714,0,0,0,1.809.029,6.008,6.008,0,0,1-.517-1.725c-.1-.8-.029-1.606-.054-2.408-.006-.175.047-.353-.218-.426a.7.7,0,0,1-.555-.913c.123-.467.488-.586.942-.545a9.316,9.316,0,0,0,2.7-.1,4.083,4.083,0,0,0,3.494-2.842c.076-.255.111-.522.17-.783a.761.761,0,0,1,.815-.661.7.7,0,0,1,.676.739c0,.246.056.322.31.375a2.659,2.659,0,0,1,2.335,2.91c-.071,2.132.373,4.306-.506,6.373h1.59a2.751,2.751,0,0,0,.1-3.769" transform="translate(-74.971 -75.002)" fill="#fea630"/>
          <path id="Trazado_132336" data-name="Trazado 132336" d="M15.975,10c.044-.2.062-.4.123-.588a.683.683,0,0,1,.805-.517.633.633,0,0,1,.624.662c0,.294.085.394.371.451a2.726,2.726,0,0,1,2.32,2.836q.009,1.055.019,2.109a7.272,7.272,0,0,0,.323-4.972A8.084,8.084,0,0,0,17.112,5.3a4.831,4.831,0,0,0-1.851-.387,7.1,7.1,0,0,0-7.482,7.818,6.072,6.072,0,0,0,1.257,3.332c.1.129.245.306.4.263.2-.056.09-.286.1-.437.017-.284,0-.569.006-.854a.357.357,0,0,0-.14-.351.711.711,0,0,1-.313-.989.858.858,0,0,1,.989-.413,7.562,7.562,0,0,0,3.169-.347A3.8,3.8,0,0,0,15.975,10" transform="translate(-5.351 -3.389)" fill="#c37a4a"/>
          <path id="Trazado_132337" data-name="Trazado 132337" d="M124.757,14.678a7.64,7.64,0,0,0-.867-6.446,7.512,7.512,0,0,0-2.011-2.148c-.127-.091-.291-.163-.334-.326l-.043-.014A7.04,7.04,0,0,0,113.15,8.91c-1.506,2.663-.874,6.18.57,7.488.034-.527.175-1-.17-1.413a.86.86,0,0,1-.158-1.058.96.96,0,0,1,1.036-.453,7.4,7.4,0,0,0,3.3-.406,3.66,3.66,0,0,0,2.5-2.779,3.5,3.5,0,0,1,.184-.677.794.794,0,0,1,.794-.505.758.758,0,0,1,.8.569c.082.376.306.5.636.6a2.718,2.718,0,0,1,2.043,2.407c0,.009,0,.018,0,.028a.28.28,0,0,1,.078.2,10.163,10.163,0,0,1-.005,1.762" transform="translate(-77.509 -3.711)" fill="#756f6f"/>
          <path id="Trazado_132338" data-name="Trazado 132338" d="M124.311,12.358V12.33a2.719,2.719,0,0,0-2.044-2.407c-.33-.106-.554-.225-.636-.6a.759.759,0,0,0-.8-.569.794.794,0,0,0-.794.505,3.532,3.532,0,0,0-.184.677,3.659,3.659,0,0,1-2.5,2.779,7.4,7.4,0,0,1-3.305.407.959.959,0,0,0-1.036.453.86.86,0,0,0,.158,1.058c.346.413.2.887.171,1.413-1.444-1.309-2.077-4.826-.571-7.488a7.04,7.04,0,0,1,8.352-3.164c.015,0,.028.009.043.013a.34.34,0,0,1-.011-.121,6.49,6.49,0,0,0-3.989-.2,7.133,7.133,0,0,0-4.524,10.379,1.557,1.557,0,0,0,.884.865c0-.478,0-.911,0-1.344a.421.421,0,0,0-.192-.378.7.7,0,0,1-.267-.885.739.739,0,0,1,.853-.472,7.021,7.021,0,0,0,1.949-.036,4.821,4.821,0,0,0,3.379-1.646,4.18,4.18,0,0,0,.8-1.974c.082-.494.383-.778.792-.738a.684.684,0,0,1,.7.753c-.015.3.166.32.361.36a2.7,2.7,0,0,1,2.283,2.346.183.183,0,0,1,.113.046" transform="translate(-77.135 -3.357)" fill="#756f6f"/>
          <path id="Trazado_132339" data-name="Trazado 132339" d="M142.519,6.938a7.5,7.5,0,0,1,2.011,2.148,7.637,7.637,0,0,1,.867,6.446,10.128,10.128,0,0,0,.006-1.762.281.281,0,0,0-.078-.2c.007.749,0,1.5,0,2.26a7.032,7.032,0,0,0,.487-3.463,7.853,7.853,0,0,0-2.674-5.09c-.252-.219-.541-.388-.789-.609-.055-.019-.11-.037-.166-.052.043.163.208.234.334.326" transform="translate(-98.149 -4.564)" fill="#756f6f"/>
          <path id="Trazado_132340" data-name="Trazado 132340" d="M142.324,6.395a1.938,1.938,0,0,1-.177-.173.334.334,0,0,0,.011.121c.056.015.111.033.166.052" transform="translate(-98.122 -4.295)" fill="#756f6f"/>
          <path id="Trazado_132341" data-name="Trazado 132341" d="M152.04,29.446c.007.622,0,1.243,0,1.865.011-.03.021-.059.032-.089,0-.76,0-1.511,0-2.26a.183.183,0,0,0-.113-.046c.137.16.079.352.081.53" transform="translate(-104.896 -19.961)" fill="#756f6f"/>
          <path id="Trazado_132342" data-name="Trazado 132342" d="M21.929,35.278a3.811,3.811,0,0,0,4.036-3.15,20.449,20.449,0,0,0,.075-2.5c0-.863.011-1.566,0-2.269a1.247,1.247,0,0,0-1.083-1.3.6.6,0,0,0-.756.363,4.846,4.846,0,0,1-2.152,2.107,7.458,7.458,0,0,1-2.872.816c-.8.068-.8.065-.8.887,0,.5-.01,1.005.02,1.506a3.8,3.8,0,0,0,3.535,3.537" transform="translate(-12.682 -17.977)" fill="#fcd0a6"/>
          <path id="Trazado_132343" data-name="Trazado 132343" d="M26.019,133.464c0-.891.015-1.611,0-2.331A1.247,1.247,0,0,0,24.9,129.86a.584.584,0,0,0-.711.356,5.015,5.015,0,0,1-2.643,2.349,7.775,7.775,0,0,1-2.774.614c-.317.01-.442.1-.425.439.031.635-.007,1.274.029,1.908a3.817,3.817,0,0,0,7.576.373,20.1,20.1,0,0,0,.069-2.436" transform="translate(-12.662 -89.632)" fill="#fcd0a6"/>
          <path id="Trazado_132344" data-name="Trazado 132344" d="M130.025,131.059a1.217,1.217,0,0,0-1.224-1.21.486.486,0,0,0-.543.306,5.165,5.165,0,0,1-2.757,2.44,8,8,0,0,1-2.73.588c-.28.01-.424.072-.407.4.029.6-.009,1.207.016,1.809a3.824,3.824,0,0,0,7.642.039c.033-.685.005-1.374.005-2.06h0c0-.771.021-1.542-.007-2.311" transform="translate(-84.466 -89.633)" fill="#fcd0a6"/>
          <path id="Trazado_132345" data-name="Trazado 132345" d="M122.377,31.578a3.825,3.825,0,0,0,3.806,3.7,3.782,3.782,0,0,0,3.836-3.653c.033-.685.005-1.373.005-2.06h.005c0-.771.019-1.541-.006-2.311a1.206,1.206,0,0,0-1.068-1.2.607.607,0,0,0-.754.367,4.844,4.844,0,0,1-2.153,2.107,7.646,7.646,0,0,1-3.275.844c-.312.014-.43.116-.413.447.031.584-.007,1.173.016,1.758" transform="translate(-84.463 -17.973)" fill="#fcd0a6"/>
          <path id="Trazado_132346" data-name="Trazado 132346" d="M40.8,8.995a7.689,7.689,0,0,1,.625,6.39c-.059.175-.065.411-.328.445v1.43a1.526,1.526,0,0,0,.778-.744,6.92,6.92,0,0,0,.009-7.163,6.6,6.6,0,0,0-3.911-3.173A6.232,6.232,0,0,1,40.8,8.995" transform="translate(-26.215 -4.267)" fill="#b16944"/>
          <path id="Trazado_132347" data-name="Trazado 132347" d="M41.423,10.859a7.276,7.276,0,0,1-.323,4.972c.262-.035.269-.27.328-.445a7.688,7.688,0,0,0-.625-6.39,6.231,6.231,0,0,0-2.826-2.814,8.082,8.082,0,0,1,3.447,4.678" transform="translate(-26.215 -4.267)" fill="#b16944"/>
          <path id="Trazado_132348" data-name="Trazado 132348" d="M44.881,117.233a6.807,6.807,0,0,1-.042,2.291,2.958,2.958,0,0,0,.531,2.367,2.776,2.776,0,0,1,.293,2.811,1.666,1.666,0,0,1-.327.56,1.727,1.727,0,0,0,.959-2.569,5.112,5.112,0,0,1-.772-3.9,6.443,6.443,0,0,0-1.554-4.97,6.79,6.79,0,0,0-1.86-1.62,7.567,7.567,0,0,1,2.772,5.031" transform="translate(-29.068 -77.452)" fill="#fe3b81"/>
          <path id="Trazado_132349" data-name="Trazado 132349" d="M42.458,112.8a6.443,6.443,0,0,1,1.554,4.97,5.112,5.112,0,0,0,.772,3.9,1.727,1.727,0,0,1-.959,2.57.835.835,0,0,1-.382.227,1.927,1.927,0,0,0,1.338-3.1,3.5,3.5,0,0,1-.711-2.778,6.858,6.858,0,0,0,.072-2.246,6.967,6.967,0,0,0-4.223-5.621,7.224,7.224,0,0,1,.678.459,6.785,6.785,0,0,1,1.86,1.62" transform="translate(-27.557 -76.43)" fill="#fe3b81"/>
          <path id="Trazado_132350" data-name="Trazado 132350" d="M44.659,124.185a2.776,2.776,0,0,0-.293-2.811,2.958,2.958,0,0,1-.531-2.367,6.8,6.8,0,0,0,.042-2.291,7.565,7.565,0,0,0-2.772-5.031c-.145-.084-.3-.16-.45-.231a7.349,7.349,0,0,1,2.824,4.085,6.128,6.128,0,0,1,.283,2.795,3.964,3.964,0,0,0,.656,3.4,2.516,2.516,0,0,1-.318,3.078,1.809,1.809,0,0,0,.234-.067,1.662,1.662,0,0,0,.327-.56" transform="translate(-28.063 -76.937)" fill="#fe3b81"/>
          <path id="Trazado_132351" data-name="Trazado 132351" d="M40.147,110.948c.154.072.305.148.45.231a7.259,7.259,0,0,0-.678-.459.8.8,0,0,0,.128.151c.035.024.066.052.1.077" transform="translate(-27.557 -76.43)" fill="#fe3b81"/>
          <path id="Trazado_132352" data-name="Trazado 132352" d="M51.677,154.369a1.833,1.833,0,0,1-.234.067c-.048.055-.1.109-.149.161a.835.835,0,0,0,.382-.228" transform="translate(-35.409 -106.56)" fill="#fe3b81"/>
          <path id="Trazado_132353" data-name="Trazado 132353" d="M148.447,118.806a7.127,7.127,0,0,0-4-7.869h0a7.507,7.507,0,0,1,3.29,5.341,7.694,7.694,0,0,1-.063,2.6,2.561,2.561,0,0,0,.524,2.071,2.741,2.741,0,0,1,.36,2.844,1.441,1.441,0,0,1-.7.82,1.722,1.722,0,0,0,1.033-.459,1.928,1.928,0,0,0,.226-2.71,3.284,3.284,0,0,1-.672-2.637" transform="translate(-99.711 -76.579)" fill="#f98816"/>
          <path id="Trazado_132354" data-name="Trazado 132354" d="M148.558,123.793a2.743,2.743,0,0,0-.36-2.844,2.559,2.559,0,0,1-.524-2.071,7.7,7.7,0,0,0,.063-2.6,7.507,7.507,0,0,0-3.29-5.341.593.593,0,0,0,.1.166,8.335,8.335,0,0,1,1.943,2.136,7.455,7.455,0,0,1,1.075,5.269,2.78,2.78,0,0,0,.395,2.335,2.751,2.751,0,0,1-.1,3.769,1.442,1.442,0,0,0,.7-.82" transform="translate(-99.711 -76.58)" fill="#f98816"/>
          <path id="Trazado_132355" data-name="Trazado 132355" d="M68.385,68.657A1.7,1.7,0,0,0,70.2,66.763q.023-3.291,0-6.583a1.8,1.8,0,0,0-1.965-1.922c-1.239,0-2.479-.015-3.718.009-.361.007-.436-.1-.431-.445.02-1.423.019-2.847,0-4.271a1.8,1.8,0,0,0-1.82-1.921q-5.327-.02-10.653,0a1.73,1.73,0,0,0-1.8,1.718q-.056,3.014,0,6.029a1.722,1.722,0,0,0,1.8,1.715c.586.016,1.173,0,1.759.007.727.005.644-.093.646.635,0,1.675-.01,3.35,0,5.025a1.815,1.815,0,0,0,1.914,1.933c.385.009.771.008,1.156,0,.583-.012.788-.187.931-.771-.161-.6-.326-.729-.947-.735q-.552-.005-1.1,0c-.282,0-.447-.12-.447-.415q0-2.759.011-5.518c0-.026.035-.053.085-.125.58.53,1.166,1.045,1.728,1.584a1.81,1.81,0,0,0,2.054.5,1.713,1.713,0,0,0,1.142-1.719c0-.358.149-.414.45-.4.434.017.87.007,1.3,0a1.717,1.717,0,0,0,1.6-1.021c.1-.2.181-.314.431-.309,1,.021,2.006.017,3.009.023,1.621-.042,1.337-.146,1.349,1.282.016,1.838-.007,3.676.011,5.513,0,.454-.147.635-.608.615-.65-.027-1.3-.009-1.954-.011a10.484,10.484,0,0,0-1.717,1.435c-.142.115-.265.255-.41.366-.288.222-.513.137-.553-.221-.029-.264,0-.533-.014-.8a.715.715,0,0,0-.783-.773c-.6-.013-1.2.007-1.8-.007a.782.782,0,0,0-.892.738c.142.583.348.755.93.771a4.059,4.059,0,0,0,.553,0c.328-.036.5.031.545.423A1.715,1.715,0,0,0,63.43,70.6a1.688,1.688,0,0,0,1.642-.548,3.624,3.624,0,0,1,3.313-1.391m-5.8-9.533c0,.3-.11.478-.44.465-.349-.014-.7-.018-1.049-.027-.4.009-.8.011-1.2.028a.765.765,0,0,0-.843.842c-.013.317,0,.636-.007.953,0,.166,0,.343-.2.42s-.314-.055-.437-.167c-.6-.554-1.214-1.1-1.806-1.668a1.319,1.319,0,0,0-.99-.387c-1.238.015-2.475-.007-3.713.012-.419.007-.605-.109-.6-.563.018-1.789.011-3.58,0-5.369,0-.334.077-.538.473-.536q4.616.02,9.232.02c.367-.005.734,0,1.1-.018.35-.015.476.162.476.487q0,2.754,0,5.507" transform="translate(-34.37 -35.633)"/>
          <path id="Trazado_132356" data-name="Trazado 132356" d="M73.574,85.562a12.416,12.416,0,0,1,2.248,0c.463.042.668.347.723.875.031.3-.149.737.2.857.3.1.526-.29.763-.484.387-.315.709-.706,1.117-1a1.1,1.1,0,0,1,.578-.274c.322-.007.644-.009.967-.013.126-.074.172-.225.17-.477-.02-2.223-.011-4.447-.011-6.67-.88,0-1.759,0-2.639-.006a.805.805,0,0,0-.787.413,1.823,1.823,0,0,1-1.639.9c-.3,0-.6,0-.9,0-.579.006-.614.024-.708.6a1.878,1.878,0,0,1-1.317,1.563,1.814,1.814,0,0,1-1.945-.453c-.466-.432-.974-.819-1.408-1.286-.075-.081-.165-.2-.293-.129-.093.052-.074.179-.074.278,0,1.557-.014,3.113.006,4.669.006.456.147.571.626.594.368.018.738-.022,1.1.026a.661.661,0,0,1,.664.839h1.945c-.056-.487.131-.779.615-.824m1.892-4.38q1.755-.034,3.511,0a.721.721,0,0,1,.762.759c0,.456-.3.725-.826.735-.569.01-1.137,0-1.706,0s-1.138.01-1.706,0a.747.747,0,1,1-.035-1.492" transform="translate(-47.36 -54.098)" fill="#00c1f7"/>
          <path id="Trazado_132357" data-name="Trazado 132357" d="M83.525,101.566c.6.013,1.2-.006,1.8.007a.715.715,0,0,1,.783.773c.014.266-.015.535.014.8.04.358.264.443.553.221.145-.111.267-.251.41-.366a10.5,10.5,0,0,1,1.717-1.435.917.917,0,0,1,.677-.073.619.619,0,0,0,.366-.051c-.322,0-.644.007-.966.013a1.1,1.1,0,0,0-.578.274c-.408.3-.73.686-1.117,1-.238.194-.464.587-.763.484-.348-.12-.168-.557-.2-.857-.055-.528-.26-.834-.723-.875a12.419,12.419,0,0,0-2.248,0c-.484.045-.671.337-.615.824a.782.782,0,0,1,.892-.738" transform="translate(-57.035 -70.016)" fill="#00c1f7"/>
          <path id="Trazado_132358" data-name="Trazado 132358" d="M70.145,85.221c-.366-.048-.736-.007-1.1-.025-.478-.024-.62-.139-.626-.595-.02-1.556-.008-3.113-.006-4.669,0-.1-.019-.226.074-.278.128-.072.217.048.292.129.434.467.942.854,1.408,1.286a1.815,1.815,0,0,0,1.945.453,1.877,1.877,0,0,0,1.317-1.563c.094-.58.129-.6.708-.6.3,0,.6,0,.9,0a1.822,1.822,0,0,0,1.639-.9.806.806,0,0,1,.788-.413c.88.011,1.759,0,2.639.006,0-.043,0-.086,0-.129-1-.006-2.007,0-3.009-.023-.25,0-.332.107-.431.309a1.717,1.717,0,0,1-1.6,1.021c-.435.009-.87.019-1.3,0-.3-.012-.451.044-.45.4a1.714,1.714,0,0,1-1.142,1.719,1.81,1.81,0,0,1-2.054-.5c-.562-.54-1.148-1.054-1.728-1.584-.05.072-.085.1-.085.125q-.008,2.759-.011,5.518c0,.295.164.417.446.415q.551,0,1.1,0c.62.006.786.135.947.735a.661.661,0,0,0-.664-.839" transform="translate(-47.156 -53.773)" fill="#00c1f7"/>
          <path id="Trazado_132359" data-name="Trazado 132359" d="M64.384,56.505c-3.077-.005-6.155-.007-9.232-.02-.4,0-.474.2-.473.536.006,1.79.013,3.58,0,5.369,0,.454.181.57.6.563,1.237-.019,2.475,0,3.713-.013a1.32,1.32,0,0,1,.99.387c.592.566,1.2,1.114,1.806,1.668.122.112.242.243.437.167s.194-.254.2-.42c.007-.318-.007-.636.007-.953a.764.764,0,0,1,.843-.842c.4-.017.8-.02,1.2-.028q0-2.965.007-5.93a.888.888,0,0,0-.094-.486M61.3,60.484c-.569.01-1.138,0-1.707,0-.586,0-1.172.01-1.758,0a.791.791,0,0,1-.876-.767c0-.441.345-.733.892-.736q1.732-.01,3.465,0c.574,0,.879.262.889.727s-.32.767-.905.777" transform="translate(-37.742 -38.991)" fill="#feb44e"/>
          <path id="Trazado_132360" data-name="Trazado 132360" d="M106.71,78.923q.007,2.981,0,5.962c0,.37-.011.555-.116.649l.583-.008c.352-.005.52-.161.521-.516q.008-3.056,0-6.113c0-.366-.181-.507-.528-.5a4.531,4.531,0,0,1-.531-.01,1.161,1.161,0,0,1,.07.532" transform="translate(-73.581 -54.113)" fill="#00aaed"/>
          <path id="Trazado_132361" data-name="Trazado 132361" d="M104.392,78.067c.347-.009.528.132.528.5q.005,3.056,0,6.113c0,.355-.169.511-.521.516l-.583.008c-.1.09-.29.1-.649.1a2.093,2.093,0,0,0-.6.028c.651,0,1.3-.017,1.954.011.461.02.613-.162.608-.615-.018-1.837,0-3.676-.011-5.513-.012-1.429.271-1.324-1.349-1.282a.507.507,0,0,1,.091.129,4.528,4.528,0,0,0,.531.01" transform="translate(-70.802 -53.78)" fill="#00aaed"/>
          <path id="Trazado_132362" data-name="Trazado 132362" d="M106.256,84.884q.009-2.981,0-5.962a1.169,1.169,0,0,0-.07-.532h-.091c0,2.223-.008,4.447.011,6.67,0,.253-.044.4-.17.477l.2,0c.105-.094.115-.278.116-.649" transform="translate(-73.127 -54.111)" fill="#00aaed"/>
          <path id="Trazado_132363" data-name="Trazado 132363" d="M103.166,101.555c.36,0,.548-.009.649-.1l-.2,0a.621.621,0,0,1-.366.051.916.916,0,0,0-.677.073,2.113,2.113,0,0,1,.6-.028" transform="translate(-70.803 -70.035)" fill="#00aaed"/>
          <path id="Trazado_132364" data-name="Trazado 132364" d="M106.52,78.1h.02a.513.513,0,0,0-.091-.13c0,.043,0,.086,0,.129h.072" transform="translate(-73.48 -53.824)" fill="#00aaed"/>
          <path id="Trazado_132365" data-name="Trazado 132365" d="M87.126,56.489c-.366.015-.733.013-1.1.018h0c.249.136.249.38.25.611.01,1.748.008,3.5,0,5.244a.757.757,0,0,1-.166.56c.349.008.7.012,1.049.027.33.013.44-.166.44-.465q0-2.753,0-5.507c0-.326-.126-.5-.476-.487" transform="translate(-59.383 -38.994)" fill="#fd991b"/>
          <path id="Trazado_132366" data-name="Trazado 132366" d="M86.277,57.16c0-.232,0-.476-.251-.611a.889.889,0,0,1,.094.486q-.006,2.965-.007,5.93a.755.755,0,0,0,.166-.56c.006-1.748.008-3.5,0-5.245" transform="translate(-59.383 -39.035)" fill="#fd991b"/>
          <path id="Trazado_132367" data-name="Trazado 132367" d="M89.09,88.9c.568.013,1.137,0,1.706,0s1.137.008,1.706,0c.531-.01.823-.279.826-.735a.721.721,0,0,0-.762-.76q-1.755-.033-3.511,0A.747.747,0,1,0,89.09,88.9" transform="translate(-60.949 -60.328)" fill="#000101"/>
          <path id="Trazado_132368" data-name="Trazado 132368" d="M66.4,64.529q-1.732-.009-3.465,0c-.547,0-.888.3-.892.736a.792.792,0,0,0,.876.767c.586.013,1.172,0,1.758,0,.569,0,1.138.007,1.707,0,.585-.01.915-.3.905-.777s-.315-.724-.889-.727" transform="translate(-42.827 -44.541)" fill="#010100"/>
        </g>
      </g>
    </g>
  </g>
</svg>
