<svg xmlns="http://www.w3.org/2000/svg" width="69" height="84" viewBox="0 0 69 84">
  <g id="Grupo_157739" data-name="Grupo 157739" transform="translate(-323 -10916.998)">
    <g id="Grupo_156377" data-name="Grupo 156377" transform="translate(323.373 10917.389)">
      <rect id="Rectángulo_36766" data-name="Rectángulo 36766" width="69" height="84" rx="12" transform="translate(-0.373 -0.391)" fill="#1169e3"/>
    </g>
    <g id="Grupo_156647" data-name="Grupo 156647" transform="translate(1)">
      <g id="Grupo_156582" data-name="Grupo 156582" transform="translate(-26 6270)">
        <path id="Trazado_127053" data-name="Trazado 127053" d="M15.507,123.96c-.454.1-.559-.113-.555-.537.012-1.063-.007-1.081-1.106-1.075-.409,0-.536-.124-.528-.529.007-.377.077-.553.512-.551,1.1,0,1.131-.018,1.119-1.119-.005-.5.239-.507.608-.511s.56.058.56.5c0,1.115.023,1.135,1.112,1.131.421,0,.521.15.522.541s-.1.541-.52.539c-1.11-.006-1.137.014-1.112,1.066.012.488-.169.631-.611.545" transform="translate(339.683 4573.993)" fill="#29c4bb"/>
        <path id="Trazado_127054" data-name="Trazado 127054" d="M213.642,151.161c.406-.078.632.057.565.517-.056.385.077.6.5.533s.57.088.573.537c0,.47-.189.578-.589.525-.383-.052-.5.115-.5.5.012.6-.357.826-.934.645-.274-.086-.214-.3-.2-.477.048-.472-.06-.76-.616-.666-.431.073-.457-.2-.456-.527s.014-.6.451-.53c.471.073.694-.1.616-.6-.075-.475.23-.5.582-.454" transform="translate(195.806 4552.685)" fill="#29c4bb"/>
        <path id="Trazado_127055" data-name="Trazado 127055" d="M210.718,69.268c.1.453-.1.608-.527.537-.46-.078-.648.111-.567.569s-.113.548-.542.553-.609-.127-.532-.557c.082-.459-.109-.648-.565-.562-.472.089-.513-.158-.531-.555-.021-.466.16-.588.566-.517.441.077.606-.106.531-.537-.072-.412.061-.579.521-.563.4.014.639.072.552.536s.115.639.567.563c.425-.072.632.081.526.534" transform="translate(199.254 4608.526)" fill="#010000"/>
        <path id="Trazado_127056" data-name="Trazado 127056" d="M55.04,186.64c.1.423-.11.578-.532.5-.5-.09-.614.169-.543.587.079.465-.146.537-.555.535-.39,0-.6-.091-.518-.511.108-.553-.169-.688-.645-.607s-.466-.225-.467-.559.007-.6.448-.512c.593.117.745-.168.665-.7-.077-.508.311-.362.569-.377.274-.016.579-.052.5.389-.1.545.092.8.67.687.482-.092.423.243.409.566" transform="translate(311.829 4530.025)" fill="#010000"/>
        <path id="Trazado_127057" data-name="Trazado 127057" d="M121.786,17.426c-.114-.483.153-.577.548-.518.41.061.572-.109.509-.513s.058-.588.522-.578c.427.009.623.119.548.558s.131.6.553.533c.391-.059.587.035.589.513s-.182.62-.608.553c-.45-.072-.6.133-.533.553.078.472-.175.526-.572.534-.424.009-.562-.151-.5-.54.068-.427-.09-.622-.535-.547s-.62-.106-.523-.547" transform="translate(261.153 4643.184)" fill="#29c4bb"/>
      </g>
      <g id="Grupo_158087" data-name="Grupo 158087" transform="translate(337 10938.998)">
        <path id="Trazado_131155" data-name="Trazado 131155" d="M657.249,239.721a4.412,4.412,0,1,0,4.429,4.408A4.4,4.4,0,0,0,657.249,239.721Z" transform="translate(-637.268 -223.322)" fill="#fff"/>
        <path id="Trazado_131156" data-name="Trazado 131156" d="M568.245,139.551a19.182,19.182,0,0,0-.255-3.507,4.483,4.483,0,0,0-3.526-3.625,15.7,15.7,0,0,0-3.6-.417c-1.548-.04-3.1.008-4.645-.023-1.521-.03-3.043,0-4.564.028a15.029,15.029,0,0,0-2.809.251,4.5,4.5,0,0,0-3.761,3.347,12.031,12.031,0,0,0-.387,3.155q-.027,4.207-.007,8.415a11.129,11.129,0,0,0,.272,2.52,4.631,4.631,0,0,0,3.7,3.681,15.266,15.266,0,0,0,3.247.33c2.707.055,5.414.045,8.121.03a20.441,20.441,0,0,0,4.038-.293,4.6,4.6,0,0,0,3.79-3.3,10.616,10.616,0,0,0,.356-2.56c.079-1.7.046-3.4.038-5.1C568.25,141.5,568.27,140.526,568.245,139.551Zm-11.716,10.123a6.823,6.823,0,1,1,7.337-6.806A7.085,7.085,0,0,1,556.528,149.674Zm7.635-12.286a1.591,1.591,0,1,1-.02-3.173,1.592,1.592,0,1,1,.02,3.173Z" transform="translate(-536.508 -122.029)" fill="#fff"/>
        <path id="Trazado_131157" data-name="Trazado 131157" d="M429.026-16.831a20,20,0,1,0,20,20A20,20,0,0,0,429.026-16.831ZM442.9.341V8.635c-.111.069-.052.18-.055.268a13.867,13.867,0,0,1-.38,3.164,7.026,7.026,0,0,1-4.571,5.122,13.185,13.185,0,0,1-4,.609c-.088,0-.2-.058-.269.053h-9.921c-.048-.1-.142-.052-.214-.058a16.675,16.675,0,0,1-2.093-.267,7.1,7.1,0,0,1-5.832-5.52,18.2,18.2,0,0,1-.418-4.411c-.016-2.412-.012-4.825-.005-7.237a20.8,20.8,0,0,1,.324-4.044,7.24,7.24,0,0,1,2.917-4.65,8.3,8.3,0,0,1,4.576-1.455c3.729-.173,7.46-.139,11.19-.05a13.434,13.434,0,0,1,2.766.313,6.963,6.963,0,0,1,5.369,4.781,12.938,12.938,0,0,1,.558,3.9c0,.088-.057.2.053.269Z" transform="translate(-409.026 16.831)" fill="#fff"/>
      </g>
    </g>
  </g>
</svg>
