<svg xmlns="http://www.w3.org/2000/svg" xmlns:xlink="http://www.w3.org/1999/xlink" width="60" height="73" viewBox="0 0 60 73">
  <defs>
    <clipPath id="clip-path">
      <rect id="Rect치ngulo_37915" data-name="Rect치ngulo 37915" width="34.729" height="42.043" fill="none"/>
    </clipPath>
  </defs>
  <g id="Grupo_156648" data-name="Grupo 156648" transform="translate(0.222 0.035)">
    <g id="Grupo_156377" data-name="Grupo 156377" transform="translate(-0.253 0)">
      <rect id="Rect치ngulo_36766" data-name="Rect치ngulo 36766" width="60" height="73" rx="12" transform="translate(0.031 -0.035)" fill="#1169e3"/>
    </g>
    <g id="Grupo_156647" data-name="Grupo 156647" transform="translate(4.372 10.491)">
      <g id="Grupo_156582" data-name="Grupo 156582">
        <path id="Trazado_127053" data-name="Trazado 127053" d="M15.232,123.416c-.4.088-.489-.1-.485-.469.01-.929-.006-.945-.967-.94-.358,0-.469-.109-.462-.463.007-.33.067-.483.447-.482.964,0,.989-.016.979-.978,0-.435.209-.443.532-.447s.49.051.49.437c0,.975.02.992.972.988.368,0,.455.131.456.473s-.086.473-.455.471c-.971-.005-.994.013-.973.932.01.427-.148.552-.535.477" transform="translate(-13.318 -89.361)" fill="#29c4bb"/>
        <path id="Trazado_127054" data-name="Trazado 127054" d="M213.435,151.158c.355-.068.552.05.494.452-.049.337.067.524.44.466s.5.077.5.469c0,.411-.165.506-.515.459-.335-.045-.441.1-.434.433.011.522-.312.722-.817.564-.24-.075-.187-.266-.172-.417.042-.412-.052-.665-.539-.582-.377.064-.4-.172-.4-.461s.012-.523.394-.464c.412.064.607-.087.538-.522-.065-.416.2-.434.509-.4" transform="translate(-164.083 -111.951)" fill="#29c4bb"/>
        <path id="Trazado_127055" data-name="Trazado 127055" d="M210.308,69.062c.092.4-.089.532-.461.469-.4-.068-.567.1-.5.5s-.1.479-.474.483-.532-.111-.465-.487c.072-.4-.1-.566-.494-.491s-.449-.138-.464-.485c-.018-.407.14-.514.495-.452.386.067.53-.092.464-.469-.063-.361.054-.506.455-.492.354.013.559.063.483.469s.1.559.5.492c.372-.063.553.071.46.467" transform="translate(-160.498 -52.631)" fill="#010000"/>
        <path id="Trazado_127056" data-name="Trazado 127056" d="M54.631,186.433c.087.37-.1.506-.465.439-.434-.079-.537.147-.474.513.069.407-.128.47-.485.467-.341,0-.525-.079-.453-.447.094-.483-.148-.6-.564-.531s-.407-.2-.409-.489.006-.524.392-.448c.519.1.651-.146.581-.611-.067-.445.272-.317.5-.33s.506-.045.437.34c-.086.477.081.7.585.6.421-.081.37.213.357.495" transform="translate(-42.505 -136.017)" fill="#010000"/>
        <path id="Trazado_127057" data-name="Trazado 127057" d="M121.783,17.224c-.1-.422.134-.5.479-.453s.5-.1.445-.449.05-.514.457-.506c.374.008.544.1.479.488s.115.521.484.466c.342-.051.513.031.515.448s-.159.542-.532.483c-.394-.063-.527.117-.466.484.069.412-.153.46-.5.467-.371.008-.492-.132-.437-.472.06-.373-.078-.543-.467-.478s-.542-.093-.457-.479" transform="translate(-95.608 -15.816)" fill="#29c4bb"/>
      </g>
      <g id="Grupo_158094" data-name="Grupo 158094" transform="translate(8.407 4.474)">
        <g id="Grupo_158094-2" data-name="Grupo 158094" clip-path="url(#clip-path)">
          <path id="Trazado_132416" data-name="Trazado 132416" d="M36.017,122.388a.886.886,0,0,1-.469-.878c.013-.985,0-1.97.006-2.955a5.3,5.3,0,0,1,4.966-5.377,23.7,23.7,0,0,1,4.63.015,5.284,5.284,0,0,1,4.5,4.783c.069,1.228.025,2.461.042,3.692a.831.831,0,0,1-.451.72Z" transform="translate(-25.259 -80.344)"/>
          <path id="Trazado_132417" data-name="Trazado 132417" d="M58.671,0a.852.852,0,0,1,.414.856c-.026.379,0,.762-.008,1.142a.616.616,0,1,1-1.228,0c-.008-.381.019-.763-.008-1.142A.824.824,0,0,1,58.26,0Z" transform="translate(-41.097)"/>
          <path id="Trazado_132418" data-name="Trazado 132418" d="M0,58.257a.825.825,0,0,1,.852-.419c.379.026.762,0,1.142.008a.616.616,0,1,1,0,1.228c-.381.01-.763-.018-1.142.008A.85.85,0,0,1,0,58.667Z" transform="translate(0 -41.094)"/>
          <path id="Trazado_132419" data-name="Trazado 132419" d="M34.653,37.948c.153.5.085.693-.352.953a12.816,12.816,0,0,1-3.386,1.416,1.413,1.413,0,0,0-.693.384,3.8,3.8,0,0,1-5.41-.035,1.191,1.191,0,0,0-.587-.334A13.209,13.209,0,1,1,40.6,25.643,12.793,12.793,0,0,1,36.9,36.862c-.343.355-.568.372-1.011.1-.329-.3-.326-.587.02-.975a16.114,16.114,0,0,0,1.6-2.018,11.988,11.988,0,0,0,.73-11.547,11.086,11.086,0,0,0-2.733-3.643,11.29,11.29,0,0,0-6.808-3.041,11.581,11.581,0,0,0-8.9,2.818,11.445,11.445,0,0,0-4.072,7.8,11.566,11.566,0,0,0,2.83,8.938,12.031,12.031,0,0,0,4.673,3.311c.389.159.331.145.394-.268.127-.836-.248-1.207-.974-1.589a10.041,10.041,0,0,1-5.421-7.494,10.091,10.091,0,0,1,1.718-7.68.8.8,0,0,1,1.179-.362.814.814,0,0,1,.027,1.15,9,9,0,0,0,.877,11.378,8.706,8.706,0,0,0,2.814,2.012.37.37,0,0,0,.526-.126,3.946,3.946,0,0,1,6.295-.053c.145.265.317.3.6.16a8.779,8.779,0,0,0,5.188-7.095,8.564,8.564,0,0,0-2.389-7.267,8.2,8.2,0,0,0-1.864-1.528A8.7,8.7,0,0,0,27.5,18.535a8.6,8.6,0,0,0-4.9,1.485c-.135.092-.27.185-.411.269a.724.724,0,0,1-1.056-.128c-.224-.508-.137-.79.36-1.145a9.96,9.96,0,0,1,4.326-1.776,10.222,10.222,0,0,1,8.612,2.471,9.9,9.9,0,0,1,3.495,6.713,10.536,10.536,0,0,1-6.145,10.67.448.448,0,0,0-.318.536,3.716,3.716,0,0,1,.008.533,2.965,2.965,0,0,0-.005.561,8.314,8.314,0,0,0,1.722-.732c.208-.1.4-.237.613-.329a.61.61,0,0,1,.856.285" transform="translate(-10.173 -10.186)"/>
          <path id="Trazado_132420" data-name="Trazado 132420" d="M77.2,29.356a11.274,11.274,0,0,1,3.678,6.329,11.739,11.739,0,0,1-3.1,10.881c-.443.474-.472.575-.236,1.072a7.961,7.961,0,0,1-1.24.983.717.717,0,0,0-1.018-.093,11,11,0,0,1-2.355,1.07l.1-.736a.816.816,0,0,1,.318-.249A12.513,12.513,0,0,0,77.379,29.88c-.111-.148-.341-.275-.179-.524" transform="translate(-51.818 -20.859)" fill="#fcd230"/>
          <path id="Trazado_132421" data-name="Trazado 132421" d="M112.1,57.863c.245,0,.491-.012.735,0a.61.61,0,0,1,.009,1.219c-.5.02-1.007.02-1.51,0a.61.61,0,0,1,.032-1.219c.244-.014.49,0,.735,0" transform="translate(-78.701 -41.112)" fill="#010101"/>
          <path id="Trazado_132422" data-name="Trazado 132422" d="M105.542,28.932a.6.6,0,0,1,.533.423.537.537,0,0,1-.194.659c-.46.292-.934.565-1.418.814a.533.533,0,0,1-.713-.227.512.512,0,0,1,.038-.714,6.746,6.746,0,0,1,1.616-.946.459.459,0,0,1,.138-.008" transform="translate(-73.632 -20.558)" fill="#010101"/>
          <path id="Trazado_132423" data-name="Trazado 132423" d="M30.275,10.21a.617.617,0,0,1-.562-.343c-.225-.387-.457-.771-.671-1.164a.606.606,0,0,1,.185-.858.6.6,0,0,1,.871.236c.25.4.5.811.712,1.234a.6.6,0,0,1-.535.895" transform="translate(-20.565 -5.501)" fill="#010101"/>
          <path id="Trazado_132424" data-name="Trazado 132424" d="M10.194,30.239a.583.583,0,0,1-.812.566A11.38,11.38,0,0,1,7.97,30a.54.54,0,0,1-.143-.794.551.551,0,0,1,.777-.224c.445.233.875.493,1.308.747a.573.573,0,0,1,.282.511" transform="translate(-5.482 -20.537)" fill="#010101"/>
          <path id="Trazado_132425" data-name="Trazado 132425" d="M104.332,84.275a1.606,1.606,0,0,1,.282.1c.4.226.8.453,1.2.695a.614.614,0,1,1-.609,1.064q-.626-.34-1.231-.718a.568.568,0,0,1-.252-.708.633.633,0,0,1,.612-.433" transform="translate(-73.673 -59.883)" fill="#010101"/>
          <path id="Trazado_132426" data-name="Trazado 132426" d="M86.293,8.4a1.763,1.763,0,0,1-.11.307c-.218.392-.439.781-.673,1.164a.629.629,0,0,1-.869.273.614.614,0,0,1-.2-.883q.333-.607.7-1.2a.57.57,0,0,1,.7-.275.641.641,0,0,1,.454.612" transform="translate(-59.929 -5.514)" fill="#010101"/>
          <path id="Trazado_132427" data-name="Trazado 132427" d="M8.429,86.245a.678.678,0,0,1-.636-.421.539.539,0,0,1,.2-.687c.456-.292.932-.556,1.411-.81a.526.526,0,0,1,.66.166.509.509,0,0,1,.077.676,5.391,5.391,0,0,1-1.712,1.075" transform="translate(-5.504 -59.878)" fill="#010101"/>
          <path id="Trazado_132428" data-name="Trazado 132428" d="M50.419,124.361c-.808.042-.808.042-.808-.76,0-.506.007-1.012,0-1.518a.659.659,0,0,0-.635-.713.681.681,0,0,0-.68.722c-.013.656-.015,1.313,0,1.969.007.258-.08.32-.328.318-1.409-.011-2.817-.014-4.226,0-.293,0-.334-.114-.329-.361.013-.629.014-1.258,0-1.887-.012-.56-.42-.881-.881-.717a.636.636,0,0,0-.438.667c0,.656-.01,1.313,0,1.969.005.249-.075.336-.328.326-.465-.018-.93-.005-1.395,0-.128,0-.258,0-.254-.179A18.413,18.413,0,0,1,40.207,121a3.92,3.92,0,0,1,3.749-3.206,29.233,29.233,0,0,1,4.26.014,1.239,1.239,0,0,1,.231.068,3.87,3.87,0,0,1,1.681,1.878,5.287,5.287,0,0,1,.484,2.263c0,.614,0,1.228,0,1.841,0,.184.034.394-.188.5" transform="translate(-28.489 -83.651)" fill="#5bbc92"/>
          <path id="Trazado_132429" data-name="Trazado 132429" d="M70.928,124.738a.115.115,0,0,0,.017-.037c.089-1.807.305-3.634-.827-5.247a9.156,9.156,0,0,0-1.163-1.2,3.941,3.941,0,0,1,3.114,3.5c.044.9.011,1.8.027,2.7,0,.239-.085.31-.311.3-.285-.018-.572-.012-.858-.017" transform="translate(-48.997 -84.028)" fill="#2db17f"/>
          <path id="Trazado_132430" data-name="Trazado 132430" d="M40.689,45.662a3.908,3.908,0,0,0-2.89-1.5,3.717,3.717,0,0,0-3.311,1.616.348.348,0,0,1-.521.139A9.122,9.122,0,0,1,30.105,32.4c.258-.373.4-.711.073-1.1a.176.176,0,0,1,.053-.22,5,5,0,0,1,1.038-.958c.436.351.573.339,1.085,0a8.978,8.978,0,0,1,9.828-.441,1.3,1.3,0,0,1,.161.12,9.281,9.281,0,0,1,3.4,7.214A9.474,9.474,0,0,1,44.3,42.363a9.575,9.575,0,0,1-3.083,3.13c-.159.1-.313.233-.527.169" transform="translate(-20.251 -20.201)" fill="#f8c42d"/>
          <path id="Trazado_132431" data-name="Trazado 132431" d="M24.163,23.094l-1.091,1.178c-.52-.2-.7-.148-1.034.318a10.346,10.346,0,0,0,4.329,15.417c.287.126.377.254.335.564a3.2,3.2,0,0,0,.093,1.346,11.231,11.231,0,0,1-4.5-2.681,11.506,11.506,0,0,1-3.269-12.013A11.385,11.385,0,0,1,28.189,18.8a11.4,11.4,0,0,1,10.338,2.864c-.026.278.222.4.354.574a12.537,12.537,0,0,1,1.606,12.463,12.226,12.226,0,0,1-3.1,4.425,10.2,10.2,0,0,1-3.039,2.043c-.152-.7.063-1.069.773-1.416A10.251,10.251,0,0,0,40.81,29.483a10.375,10.375,0,0,0-10.919-9.275,10.256,10.256,0,0,0-5.408,1.915c-.44.314-.486.467-.32.971" transform="translate(-13.145 -13.172)" fill="#fce265"/>
          <path id="Trazado_132432" data-name="Trazado 132432" d="M70.613,49.032a9.659,9.659,0,0,0,4.911-7.359,9.659,9.659,0,0,0-1.347-6.165,16.544,16.544,0,0,0-1.91-2.335A8.757,8.757,0,0,1,76.2,38.121a9.127,9.127,0,0,1-4.947,11.144c-.333.15-.529.124-.644-.232" transform="translate(-50.175 -23.571)" fill="#e6b629"/>
          <path id="Trazado_132433" data-name="Trazado 132433" d="M53.258,92.269A2.314,2.314,0,0,1,51.4,90.574,2.361,2.361,0,0,1,52.086,88a2.336,2.336,0,0,1,2.5-.523,1.2,1.2,0,0,1,.428.58,3.282,3.282,0,0,1-1.226,4.073.628.628,0,0,1-.529.142" transform="translate(-36.428 -62.044)" fill="#5bbc92"/>
          <path id="Trazado_132434" data-name="Trazado 132434" d="M58.148,92.654a3.072,3.072,0,0,0,1.9-2.584,3.64,3.64,0,0,0-.575-2.21,2.49,2.49,0,0,1-1.326,4.794" transform="translate(-41.318 -62.43)" fill="#2db17f"/>
          <path id="Trazado_132435" data-name="Trazado 132435" d="M55.407,49.5a.822.822,0,0,0-.563-.695c-.42-.194-.866-.333-1.287-.527a1.953,1.953,0,0,1-.817-3.165.712.712,0,0,1,.175-.172c.489-.258.877-.547.846-1.206-.012-.261.307-.393.6-.37a.543.543,0,0,1,.526.438,1.37,1.37,0,0,1,.03.407.286.286,0,0,0,.256.342,2.8,2.8,0,0,1,.979.5.637.637,0,0,1,.206.894.614.614,0,0,1-.9.12,1.773,1.773,0,0,0-1.136-.395.847.847,0,0,0-.833.6c-.087.411.155.638.467.821a6.946,6.946,0,0,0,1.175.472,2.1,2.1,0,0,1,1.509,1.939A2.227,2.227,0,0,1,55.27,51.69a.5.5,0,0,0-.359.576c.012.472-.213.718-.594.724s-.625-.241-.623-.7c0-.294-.062-.439-.385-.485a2.374,2.374,0,0,1-.935-.4.616.616,0,0,1-.248-.848.6.6,0,0,1,.854-.212,2.384,2.384,0,0,0,1.37.337A1.106,1.106,0,0,0,55.407,49.5" transform="translate(-36.979 -30.813)"/>
        </g>
      </g>
    </g>
  </g>
</svg>
