<svg xmlns="http://www.w3.org/2000/svg" xmlns:xlink="http://www.w3.org/1999/xlink" width="69" height="84" viewBox="0 0 69 84">
  <defs>
    <clipPath id="clip-path">
      <rect id="Rect치ngulo_37900" data-name="Rect치ngulo 37900" width="51.804" height="46.602" fill="none"/>
    </clipPath>
  </defs>
  <g id="Grupo_157758" data-name="Grupo 157758" transform="translate(-323 -10916.999)">
    <g id="Grupo_156377" data-name="Grupo 156377" transform="translate(323.373 10917.39)">
      <rect id="Rect치ngulo_36766" data-name="Rect치ngulo 36766" width="69" height="84" rx="12" transform="translate(-0.373 -0.391)" fill="#0c487b"/>
    </g>
    <g id="Grupo_156647" data-name="Grupo 156647" transform="translate(1)">
      <g id="Grupo_156582" data-name="Grupo 156582" transform="translate(-26 6270)">
        <path id="Trazado_127053" data-name="Trazado 127053" d="M15.507,123.96c-.454.1-.559-.113-.555-.537.012-1.063-.007-1.081-1.106-1.075-.409,0-.536-.124-.528-.529.007-.377.077-.553.512-.551,1.1,0,1.131-.018,1.119-1.119-.005-.5.239-.507.608-.511s.56.058.56.5c0,1.115.023,1.135,1.112,1.131.421,0,.521.15.522.541s-.1.541-.52.539c-1.11-.006-1.137.014-1.112,1.066.012.488-.169.631-.611.545" transform="translate(339.683 4573.993)" fill="#29c4bb"/>
        <path id="Trazado_127054" data-name="Trazado 127054" d="M213.642,151.161c.406-.078.632.057.565.517-.056.385.077.6.5.533s.57.088.573.537c0,.47-.189.578-.589.525-.383-.052-.5.115-.5.5.012.6-.357.826-.934.645-.274-.086-.214-.3-.2-.477.048-.472-.06-.76-.616-.666-.431.073-.457-.2-.456-.527s.014-.6.451-.53c.471.073.694-.1.616-.6-.075-.475.23-.5.582-.454" transform="translate(195.806 4552.685)" fill="#29c4bb"/>
        <path id="Trazado_127055" data-name="Trazado 127055" d="M210.718,69.268c.1.453-.1.608-.527.537-.46-.078-.648.111-.567.569s-.113.548-.542.553-.609-.127-.532-.557c.082-.459-.109-.648-.565-.562-.472.089-.513-.158-.531-.555-.021-.466.16-.588.566-.517.441.077.606-.106.531-.537-.072-.412.061-.579.521-.563.4.014.639.072.552.536s.115.639.567.563c.425-.072.632.081.526.534" transform="translate(199.254 4608.526)" fill="#010000"/>
        <path id="Trazado_127056" data-name="Trazado 127056" d="M55.04,186.64c.1.423-.11.578-.532.5-.5-.09-.614.169-.543.587.079.465-.146.537-.555.535-.39,0-.6-.091-.518-.511.108-.553-.169-.688-.645-.607s-.466-.225-.467-.559.007-.6.448-.512c.593.117.745-.168.665-.7-.077-.508.311-.362.569-.377.274-.016.579-.052.5.389-.1.545.092.8.67.687.482-.092.423.243.409.566" transform="translate(311.829 4530.025)" fill="#010000"/>
        <path id="Trazado_127057" data-name="Trazado 127057" d="M121.786,17.426c-.114-.483.153-.577.548-.518.41.061.572-.109.509-.513s.058-.588.522-.578c.427.009.623.119.548.558s.131.6.553.533c.391-.059.587.035.589.513s-.182.62-.608.553c-.45-.072-.6.133-.533.553.078.472-.175.526-.572.534-.424.009-.562-.151-.5-.54.068-.427-.09-.622-.535-.547s-.62-.106-.523-.547" transform="translate(261.153 4643.184)" fill="#29c4bb"/>
      </g>
      <g id="Grupo_158062" data-name="Grupo 158062" transform="translate(331 10935.999)">
        <g id="Grupo_158062-2" data-name="Grupo 158062" transform="translate(0 -0.001)" clip-path="url(#clip-path)">
          <path id="Trazado_131965" data-name="Trazado 131965" d="M51.926,34.64a12.786,12.786,0,0,1-1.076,2.784c-.115.243-.212.5-.318.743-.238.107-.4-.069-.57-.17a4.148,4.148,0,0,0-5.611,5.858c.153.24.412.435.384.768a17.537,17.537,0,0,1-5.58,2.8.546.546,0,0,1-.293-.223c-.219-.252-.47-.438-.819-.294a.759.759,0,0,0-.483.741c0,.1.016.212-.09.281a23.618,23.618,0,0,1-4.931.51c-.34-.08-.481-.385-.682-.616a.429.429,0,0,1,.013-.578c.1-.136.222-.253.321-.389a.708.708,0,0,0,.01-.977c-.272-.295-.608-.215-.932-.072a.293.293,0,0,0-.106.067c-.451.535-.867.494-1.361.009a.687.687,0,0,0-1.024,0c-.336.361-.182.729.09,1.075.5.638.495.682-.038.981a19.272,19.272,0,0,1-7.4-3.313c-.029-.333.23-.528.383-.768a4.133,4.133,0,0,0-2.783-6.451,3.9,3.9,0,0,0-2.668.491c-.226.125-.413.38-.729.272-.379-.878-.759-1.755-1.135-2.634a2.339,2.339,0,0,1-.258-.893c.225-.217.512-.158.778-.161.946-.009,1.893.007,2.838-.006,1.075-.015,1.343-.358,1.2-1.4a6.018,6.018,0,0,0-2.681-4.3c-.492-.341-.5-.41-.1-.88a4.078,4.078,0,0,0-1.058-6.417c-.189-.115-.443-.174-.475-.456a16.836,16.836,0,0,1,1.394-2.792c.249-.274.584-.194.888-.2,1.911-.008,3.822,0,5.733,0a5.2,5.2,0,0,0,.692-.019.823.823,0,0,0,.814-.984,6.007,6.007,0,0,0-2.029-4.134c-.185-.164-.422-.293-.418-.592a4.107,4.107,0,0,1,1.325-.927,19.444,19.444,0,0,1,7.215-2.5,20.218,20.218,0,0,1,8.286.611,21.969,21.969,0,0,1,5.093,2.3c.225.134.5.232.618.514.009.272-.2.4-.369.552a6.009,6.009,0,0,0-2.066,3.921c-.112.859.183,1.241,1.049,1.25,2.059.021,4.119,0,6.178.011.3,0,.639-.079.889.2l1.5,2.765c.019.294-.246.306-.413.4a4.081,4.081,0,0,0-1.228,6.5c.4.476.4.532-.151.92A6.037,6.037,0,0,0,47.086,33.2c-.1.859.17,1.239,1.035,1.269,1.008.034,2.018,0,3.027.013.267,0,.553-.056.778.161" transform="translate(-7.183 -4.387)" fill="#d1dcfe"/>
          <path id="Trazado_131966" data-name="Trazado 131966" d="M78,13.836,71,13.812c-1.121,0-1.4-.346-1.278-1.475a6.354,6.354,0,0,1,2.605-4.431,1.292,1.292,0,0,0,.561-.346,4.3,4.3,0,0,1-1.452-3.594,4.171,4.171,0,0,1,1.375-2.826,4.319,4.319,0,0,1,5.946.092,4.363,4.363,0,0,1-.171,6.35c.193.131.383.254.566.384a6.036,6.036,0,0,1,2.611,4.554c.089.93-.238,1.282-1.166,1.291L78,13.836" transform="translate(-35.156 0)"/>
          <path id="Trazado_131967" data-name="Trazado 131967" d="M7.556,33.333a4.378,4.378,0,0,1,1.317,7.361,6.143,6.143,0,0,1,3.191,4.82c.118,1.04-.191,1.4-1.228,1.407q-1.89.016-3.781.036-2.872-.019-5.744-.037C.2,46.914-.107,46.558.032,45.444A6.133,6.133,0,0,1,3.223,40.7a4.321,4.321,0,0,1,3.962-7.433c.122.031.247.048.371.071" transform="translate(0 -16.704)"/>
          <path id="Trazado_131968" data-name="Trazado 131968" d="M85.166,47c-1.242-.012-2.484-.027-3.726-.036-1.116-.007-1.414-.359-1.275-1.482a6.1,6.1,0,0,1,3.123-4.706c.032-.163-.108-.215-.184-.3a4.286,4.286,0,0,1,1.513-7.029,1,1,0,0,0,.157-.1c2.63-.563,4.737.494,5.493,2.755.536,1.606.174,2.978-1.238,4.643a6,6,0,0,1,3,3.93c.422,1.9.294,2.366-1.752,2.3-1.7-.056-3.41.011-5.115.024" transform="translate(-40.424 -16.748)"/>
          <path id="Trazado_131969" data-name="Trazado 131969" d="M19.907,7.909a6.324,6.324,0,0,1,2.6,4.431c.122,1.134-.152,1.47-1.276,1.473l-7.007.024c-.883-.008-1.766-.014-2.649-.025-.85-.01-1.18-.361-1.11-1.22a6.019,6.019,0,0,1,2.757-4.72l.417-.279c-1.9-2.212-1.919-4.737-.061-6.453a4.317,4.317,0,1,1,5.791,6.4.918.918,0,0,0,.536.366" transform="translate(-5.276 -0.001)"/>
          <path id="Trazado_131970" data-name="Trazado 131970" d="M72.705,73.627a4.395,4.395,0,0,1-1.233-3.816A4.309,4.309,0,0,1,78.243,67c.085.059.173.114.259.171,1.962,2.033,2.075,4.247.3,6.341-.231.273-.145.343.095.5a6.01,6.01,0,0,1,2.849,4.531c.142,1.107-.16,1.453-1.288,1.453q-4.764,0-9.529,0c-1.05,0-1.333-.338-1.214-1.4a6.04,6.04,0,0,1,2.8-4.564c.23-.152.229-.153.192-.4" transform="translate(-35.153 -33.391)"/>
          <path id="Trazado_131971" data-name="Trazado 131971" d="M13.72,67.169c2.031-1.356,4.078-1.3,5.668.141a4.29,4.29,0,0,1,.592,5.721c-.147.2-.308.4-.463.594-.323.321.1.322.2.39a6.119,6.119,0,0,1,2.662,3.766c.01.041.027.08.036.12.372,1.759.106,2.087-1.688,2.087q-4.512,0-9.024,0c-1.047,0-1.351-.347-1.229-1.393a6.08,6.08,0,0,1,2.8-4.569c.154-.1.48-.108.194-.473-1.824-2.326-1.735-4.291.255-6.386" transform="translate(-5.27 -33.388)"/>
          <path id="Trazado_131972" data-name="Trazado 131972" d="M43.25,85.364c.612-.327.253-.6-.046-.88a.873.873,0,0,1-.239-1.182.824.824,0,0,1,.988-.36,1.275,1.275,0,0,1,.639.492c.223.267.4.309.632.01a1.688,1.688,0,0,1,.415-.384.812.812,0,0,1,1.094.088.8.8,0,0,1,.1,1.09,1.044,1.044,0,0,1-.25.282c-.446.317-.406.6.012.914a2.458,2.458,0,0,1,.364.427.885.885,0,0,1-.424,1.08.938.938,0,0,1-1.22-.348c-.243-.293-.426-.436-.764-.056-.516.579-1.009.647-1.413.307-.435-.366-.4-.814.112-1.48" transform="translate(-21.602 -41.814)"/>
          <path id="Trazado_131973" data-name="Trazado 131973" d="M61.077,86.592c-.128-.649.048-1.058.548-1.2.612-.171.919.2,1.137.693a.955.955,0,0,1-.674.954.887.887,0,0,1-1.01-.449" transform="translate(-30.79 -43.055)" fill="#4e2721"/>
          <path id="Trazado_131974" data-name="Trazado 131974" d="M64.448,4.36a.86.86,0,1,1-.865-.9.879.879,0,0,1,.865.9" transform="translate(-31.643 -1.747)" fill="#4e261f"/>
          <path id="Trazado_131975" data-name="Trazado 131975" d="M48.208,47.423c0,.927.01,1.855,0,2.782-.01.675-.3.962-.967.966q-2.466.014-4.931,0c-.7,0-.972-.292-.979-1.019-.016-1.685-.056-3.37-.021-5.054a6.56,6.56,0,0,0-1.866-4.862,7.146,7.146,0,0,1-1.1-8.531,7.007,7.007,0,0,1,6.907-3.788,6.9,6.9,0,0,1,6.217,4.377,6.958,6.958,0,0,1-1.149,7.675,7.532,7.532,0,0,0-2.091,4.55c-.04.967-.007,1.937-.007,2.9h-.015" transform="translate(-18.868 -14.072)"/>
          <path id="Trazado_131976" data-name="Trazado 131976" d="M52.225,20.926a6.4,6.4,0,0,1-.007.883.821.821,0,0,1-.89.8.8.8,0,0,1-.823-.8,12.525,12.525,0,0,1,0-1.83.791.791,0,0,1,.823-.792.815.815,0,0,1,.889.793,6.841,6.841,0,0,1,.008.946" transform="translate(-25.46 -9.678)" fill="#4d251e"/>
          <path id="Trazado_131977" data-name="Trazado 131977" d="M45.312,25.219a2.8,2.8,0,0,1-1.737-1.71.8.8,0,0,1,.453-.772.754.754,0,0,1,.89.064,11.626,11.626,0,0,1,1.066,1.07.767.767,0,0,1,.054.89.835.835,0,0,1-.726.458" transform="translate(-21.981 -11.412)" fill="#4d251e"/>
          <path id="Trazado_131978" data-name="Trazado 131978" d="M57.486,22.637a.876.876,0,0,1,.748.439.748.748,0,0,1-.038.889,10.334,10.334,0,0,1-1.113,1.111.729.729,0,0,1-.888.021.8.8,0,0,1-.411-.731,2.677,2.677,0,0,1,1.7-1.728" transform="translate(-28.14 -11.419)" fill="#4d251e"/>
          <path id="Trazado_131979" data-name="Trazado 131979" d="M77.649,20.849c-1.242,0-2.484-.012-3.725.007-.434.006-.485-.125-.357-.517a4.316,4.316,0,0,1,8.169,0c.129.4.066.523-.362.517-1.241-.018-2.483-.006-3.725-.006" transform="translate(-37.08 -8.785)" fill="#bc53b4"/>
          <path id="Trazado_131980" data-name="Trazado 131980" d="M79.244,8.61A2.518,2.518,0,0,1,76.679,6.07a2.582,2.582,0,1,1,5.164-.043,2.552,2.552,0,0,1-2.6,2.582" transform="translate(-38.681 -1.742)" fill="#fee7db"/>
          <path id="Trazado_131981" data-name="Trazado 131981" d="M7.907,53.983c-1.219,0-2.439-.011-3.657.006-.412.005-.511-.1-.379-.511a4.334,4.334,0,0,1,8.2,0c.136.415.026.512-.38.507-1.261-.016-2.522-.006-3.784-.006" transform="translate(-1.925 -25.5)" fill="#a8b95a"/>
          <path id="Trazado_131982" data-name="Trazado 131982" d="M12.151,39.161a2.579,2.579,0,1,1-2.544-2.593,2.579,2.579,0,0,1,2.544,2.593" transform="translate(-3.528 -18.446)" fill="#fee7db"/>
          <path id="Trazado_131983" data-name="Trazado 131983" d="M88.116,53.985c-1.239,0-2.479-.016-3.719.008-.472.009-.529-.139-.383-.553a4.331,4.331,0,0,1,8.152-.037c.16.436.113.6-.395.59-1.218-.026-2.437-.008-3.656-.008" transform="translate(-42.346 -25.502)" fill="#e56353"/>
          <path id="Trazado_131984" data-name="Trazado 131984" d="M87.126,39.139a2.578,2.578,0,1,1,2.527,2.608,2.577,2.577,0,0,1-2.527-2.608" transform="translate(-43.951 -18.447)" fill="#fee7db"/>
          <path id="Trazado_131985" data-name="Trazado 131985" d="M18.386,20.853c-1.219,0-2.439-.017-3.658.008-.467.01-.525-.12-.381-.543a4.319,4.319,0,0,1,8.17.026c.164.482-.01.52-.411.515-1.24-.016-2.48-.006-3.721-.006" transform="translate(-7.203 -8.785)" fill="#9cc0e3"/>
          <path id="Trazado_131986" data-name="Trazado 131986" d="M19.98,8.61a2.547,2.547,0,0,1-2.55-2.566,2.581,2.581,0,1,1,5.163.01A2.522,2.522,0,0,1,19.98,8.61" transform="translate(-8.793 -1.742)" fill="#fee7db"/>
          <path id="Trazado_131987" data-name="Trazado 131987" d="M77.639,87.062c-1.242,0-2.485-.011-3.727.006-.422.006-.5-.109-.368-.514a4.314,4.314,0,0,1,8.177-.06c.164.471.057.585-.418.576-1.221-.023-2.443-.008-3.664-.008" transform="translate(-37.07 -42.164)" fill="#fecd56"/>
          <path id="Trazado_131988" data-name="Trazado 131988" d="M79.262,74.831a2.567,2.567,0,1,1-.015-5.134,2.572,2.572,0,0,1,2.594,2.6,2.537,2.537,0,0,1-2.579,2.537" transform="translate(-38.68 -35.158)" fill="#fee7db"/>
          <path id="Trazado_131989" data-name="Trazado 131989" d="M18.438,87.083c-1.2,0-2.4-.022-3.6.01-.576.015-.648-.185-.458-.671a4.317,4.317,0,0,1,8.173.18c.13.388-.028.487-.387.485-1.242-.009-2.485,0-3.728,0" transform="translate(-7.206 -42.164)" fill="#6b4f5b"/>
          <path id="Trazado_131990" data-name="Trazado 131990" d="M20,69.7a2.551,2.551,0,0,1,2.59,2.591,2.582,2.582,0,0,1-5.163-.036A2.571,2.571,0,0,1,20,69.7" transform="translate(-8.792 -35.158)" fill="#fee7db"/>
          <path id="Trazado_131991" data-name="Trazado 131991" d="M47.423,43.221c-.494-1.467.374-2.669,1.667-3.7a4.475,4.475,0,0,0,.666-.673.819.819,0,0,0-.021-1.194.781.781,0,0,0-1.183-.015c-.526.486-1.048.98-1.523,1.514-.339.381-.57.441-.932.021a19.545,19.545,0,0,0-1.428-1.431c-.486-.459-.952-.472-1.329-.071a.878.878,0,0,0,.113,1.29q.947.974,1.924,1.919a.908.908,0,0,1,.308.716c-.015,1.306-.011,2.613,0,3.919,0,.289-.024.482-.4.467-.307-.013-.483-.034-.526-.425a7.926,7.926,0,0,0-2.266-4.748,5.554,5.554,0,0,1-.918-6.439,5.6,5.6,0,0,1,10.5,1.616,5.317,5.317,0,0,1-1.259,4.594,9.075,9.075,0,0,0-2.477,5.072c-.047.413-.317.3-.548.32-.271.028-.372-.089-.367-.362.012-.695,0-1.391,0-2.391" transform="translate(-20.651 -15.811)" fill="#fecd56"/>
          <path id="Trazado_131992" data-name="Trazado 131992" d="M50.526,64.4c.4,0,.8.013,1.2,0,.332-.014.51.071.5.452-.018.864-.013,1.728,0,2.592,0,.316-.1.461-.435.456-.864-.012-1.728-.015-2.592,0-.36.007-.473-.133-.476-.484,0-.37.19-.406.478-.4.4.011.8.018,1.2,0a.871.871,0,1,0,0-1.737c-.421-.013-.843-.016-1.264,0-.3.011-.418-.091-.408-.4.008-.288.044-.5.408-.482.463.016.927,0,1.391,0" transform="translate(-24.579 -32.486)" fill="#b39f9a"/>
        </g>
      </g>
    </g>
  </g>
</svg>
