<svg xmlns="http://www.w3.org/2000/svg" xmlns:xlink="http://www.w3.org/1999/xlink" width="90.773" height="90.773" viewBox="0 0 90.773 90.773">
  <defs>
    <clipPath id="clip-path">
      <rect id="Rectángulo_37905" data-name="Rectángulo 37905" width="50.573" height="50.549" fill="none"/>
    </clipPath>
  </defs>
  <g id="Grupo_156636" data-name="Grupo 156636" transform="translate(6399 6571)">
    <path id="Trazado_127482" data-name="Trazado 127482" d="M45.387,0A45.387,45.387,0,1,1,0,45.387,45.387,45.387,0,0,1,45.387,0Z" transform="translate(-6399 -6571)" fill="#b0c8cb"/>
    <g id="Grupo_156595" data-name="Grupo 156595" transform="translate(-6385.246 -6555.413)">
      <path id="Trazado_127053" data-name="Trazado 127053" d="M15.375,123.6c.416.093.513-.1.509-.492-.011-.974.006-.992,1.015-.986.375,0,.492-.114.485-.485-.007-.346-.07-.507-.469-.505-1.011,0-1.037-.017-1.026-1.026,0-.457-.219-.465-.558-.469s-.514.053-.514.459c0,1.022-.021,1.041-1.019,1.037-.386,0-.478.138-.479.5s.091.5.477.494c1.018-.006,1.042.013,1.02.978-.011.448.155.579.561.5" transform="translate(44.792 -83.878)" fill="#29c4bb"/>
      <path id="Trazado_127054" data-name="Trazado 127054" d="M213.5,151.159c-.373-.071-.579.052-.518.474.051.353-.071.55-.461.489s-.522.081-.525.492c0,.431.173.53.54.481.351-.047.462.105.455.455-.011.547.328.757.857.591.251-.079.2-.279.18-.437-.044-.432.055-.7.565-.611.395.067.419-.181.418-.484s-.013-.548-.414-.486c-.432.067-.636-.091-.564-.547.068-.436-.211-.455-.533-.417" transform="translate(-211.994 -104.948)" fill="#29c4bb"/>
      <path id="Trazado_127055" data-name="Trazado 127055" d="M207.478,69.132c-.1.416.094.558.484.492.422-.071.594.1.52.521s.1.5.5.507.558-.116.488-.511c-.075-.42.1-.594.518-.515s.471-.145.487-.509c.019-.427-.147-.539-.519-.474-.4.071-.555-.1-.487-.492.066-.378-.056-.531-.477-.516-.371.013-.586.066-.506.491s-.105.586-.52.516c-.39-.066-.58.074-.483.49" transform="translate(-204.437 -61.871)" fill="#010000"/>
      <path id="Trazado_127056" data-name="Trazado 127056" d="M51.8,186.5c-.091.388.1.53.488.46.455-.082.563.155.5.538-.072.426.134.493.509.49.358,0,.55-.083.475-.469-.1-.507.155-.631.591-.556s.427-.206.428-.513-.006-.549-.411-.47c-.544.108-.683-.154-.61-.641.07-.466-.285-.332-.522-.346s-.531-.047-.458.357c.09.5-.085.732-.614.63-.442-.085-.388.223-.375.519" transform="translate(-4.069 -127.272)" fill="#010000"/>
      <path id="Trazado_127057" data-name="Trazado 127057" d="M124.759,17.292c.1-.443-.141-.529-.5-.475s-.524-.1-.467-.47-.053-.539-.479-.53c-.392.008-.571.109-.5.512s-.121.547-.507.489c-.358-.054-.538.032-.54.47s.167.569.558.507c.413-.066.553.122.489.507-.072.432.16.482.524.49.389.008.516-.138.458-.495-.062-.391.082-.57.49-.5s.569-.1.48-.5" transform="translate(-94.9 -15.817)" fill="#29c4bb"/>
    </g>
    <g id="Grupo_158080" data-name="Grupo 158080" transform="translate(-6379 -6551)">
      <g id="Grupo_158080-2" data-name="Grupo 158080" clip-path="url(#clip-path)">
        <path id="Trazado_132115" data-name="Trazado 132115" d="M29.032,95.492c-1.737,0-3.473.006-5.21-.005a1.694,1.694,0,0,0-.887.236,9.894,9.894,0,0,1-10.425-.035,1.405,1.405,0,0,0-.738-.2q-5.236.009-10.472,0c-1.112,0-1.408-.4-1.092-1.478a35.788,35.788,0,0,0,1.38-6.03,49.178,49.178,0,0,0,.161-4.992,15.467,15.467,0,0,1,3.7-10.206c4.257-4.954,9.674-7,16.059-5.443,6.4,1.558,10.332,5.814,11.9,12.216a17.18,17.18,0,0,1,.345,4.5A25.8,25.8,0,0,0,34.5,91.2c.269,1.032.579,2.054.863,3.082a.853.853,0,0,1-.906,1.21c-1.806.008-3.613,0-5.42,0" transform="translate(-0.063 -46.641)"/>
        <path id="Trazado_132116" data-name="Trazado 132116" d="M124.507,13.832c1.354,1.148,1.544,2.209.686,3.683a.266.266,0,0,0,.008.36,2.494,2.494,0,0,1-.947,3.772c-.211.092-.224.221-.228.405a5.443,5.443,0,0,1-.068,1.256,2.512,2.512,0,0,1-2.425,1.959q-1.71.026-3.421,0a2.525,2.525,0,0,1-2.505-2.52,1.59,1.59,0,0,1,0-.315c.086-.472-.105-.722-.528-.973a2.417,2.417,0,0,1-.765-3.4.536.536,0,0,0,.021-.713,2.427,2.427,0,0,1,.457-3.228c.1-.091.211-.177.344-.288-.426-.29-.846-.544-1.231-.844a6.781,6.781,0,0,1-1.531-8.9,8.829,8.829,0,0,1,14.875-.016,6.773,6.773,0,0,1-2.2,9.385c-.179.107-.345.236-.547.375" transform="translate(-77.704 -0.005)"/>
        <path id="Trazado_132117" data-name="Trazado 132117" d="M10.228,1.174c1.052-.563,1.113-.554,1.934.266l1.526,1.526c.863.864.867.887.307,1.955.152.046.3.094.444.133a.884.884,0,0,1,.725.954c-.006,1.035-.009,2.07,0,3.106a.885.885,0,0,1-.8,1c-.37.064-.386.2-.183.494a.892.892,0,0,1-.173,1.267c-.6.586-1.193,1.189-1.788,1.785-.886.886-.886.886-2,.338-.047.172-.085.342-.139.506a.845.845,0,0,1-.848.655q-1.658.008-3.316,0a.843.843,0,0,1-.851-.65c-.054-.165-.092-.334-.144-.529-.178.1-.326.188-.478.267A.839.839,0,0,1,3.391,14.1c-.785-.778-1.571-1.556-2.344-2.346-.5-.515-.189-1,.11-1.457-.025-.039-.037-.08-.06-.088C0,9.839,0,9.84,0,8.7Q0,7.462,0,6.225c0-.831.111-.975.921-1.217.082-.024.16-.06.258-.1-.088-.154-.165-.29-.244-.425a.832.832,0,0,1,.127-1.1c.766-.773,1.53-1.547,2.309-2.306.43-.418.652-.395,1.522.075A1,1,0,0,0,5.066.682.851.851,0,0,1,5.946,0Q7.578,0,9.21,0a.858.858,0,0,1,.885.676c.046.15.082.3.134.5" transform="translate(0 0)"/>
        <path id="Trazado_132118" data-name="Trazado 132118" d="M124.65,104.268c0,1.158,0,2.316,0,3.474,0,.714-.308,1.015-1.031,1.016-2.053,0-4.106-.008-6.158.01-.337,0-.4-.1-.4-.411,0-1.283-.012-1.283,1.253-1.283,1.4,0,2.807-.015,4.211.01.382.007.453-.109.449-.466-.018-1.93.006-3.86-.02-5.79-.006-.429.127-.51.521-.5,1.175.023,1.176.007,1.176,1.2v2.737" transform="translate(-81.694 -70.016)"/>
        <path id="Trazado_132119" data-name="Trazado 132119" d="M72.831,22.281c1.807,0,3.614.01,5.421-.008.344,0,.433.088.431.431-.008,1.262.006,1.263-1.274,1.263-3.351,0-6.7-.008-10.053.01-.394,0-.493-.091-.485-.485.024-1.209.005-1.21,1.223-1.21h4.737" transform="translate(-46.667 -15.544)"/>
        <path id="Trazado_132120" data-name="Trazado 132120" d="M22.29,58.175c0-.719.01-1.438-.005-2.157-.005-.249.063-.318.318-.328,1.372-.053,1.372-.062,1.372,1.321,0,1.123-.01,2.245.007,3.368,0,.293-.071.377-.373.381-1.319.016-1.319.027-1.319-1.269V58.175" transform="translate(-15.551 -38.853)"/>
        <path id="Trazado_132121" data-name="Trazado 132121" d="M55.757,23.109c0-.808,0-.808.825-.808.86,0,.86,0,.86.877,0,.808,0,.808-.825.808-.86,0-.86,0-.86-.877" transform="translate(-38.911 -15.563)"/>
        <path id="Trazado_132122" data-name="Trazado 132122" d="M138.288,90.056c0,.838,0,.838-.847.838s-.838,0-.838-.847,0-.838.847-.838.838,0,.838.847" transform="translate(-95.331 -62.256)"/>
        <path id="Trazado_132123" data-name="Trazado 132123" d="M39.505,115.2A8.431,8.431,0,0,1,30.74,108a24.93,24.93,0,0,1-.086-3.1c-.013-2.157,0-4.315-.011-6.472A.6.6,0,0,1,31,97.82c1.512-.845,3.012-1.714,4.514-2.577a.675.675,0,0,1,.543-.118q4.456,1.211,8.914,2.416a.871.871,0,0,1,.152.648c0,2.983.086,5.968-.021,8.947a9.121,9.121,0,0,1-4.553,7.736,2.333,2.333,0,0,1-1.039.327" transform="translate(-21.386 -66.371)" fill="#fed9a9"/>
        <path id="Trazado_132124" data-name="Trazado 132124" d="M34.052,85.265c-.26-.03-.519-.078-.78-.085-.8-.022-.8-.016-.8-.842,0-.807,0-1.614,0-2.42a.884.884,0,0,0-.724-.954q-6.238-1.663-12.475-3.33a1.02,1.02,0,0,0-.8.131q-2.848,1.631-5.7,3.257a.949.949,0,0,0-.515.9c.009.842,0,1.684,0,2.525,0,.72,0,.73-.7.722a2.558,2.558,0,0,0-1.906.735c-1.115,1.1-1.118,4.164-.006,5.265a2.348,2.348,0,0,0,1.9.729c.582-.05.778.107.858.728A9.408,9.408,0,0,0,14.423,97.3c.109.137.218.274.326.413.007.009,0,.03-.008.1h-.491c-2.368,0-4.736-.005-7.1.006-.361,0-.541,0-.389-.465a31.178,31.178,0,0,0,1.3-10.22A13.643,13.643,0,0,1,11.252,78a14.088,14.088,0,0,1,12.969-5.334,3.966,3.966,0,0,1,.461.1A11.714,11.714,0,0,1,29.232,75.5a14.985,14.985,0,0,1,4.759,8.395c.088.444.305.9.061,1.372" transform="translate(-4.678 -50.644)" fill="#fedd55"/>
        <path id="Trazado_132125" data-name="Trazado 132125" d="M75.581,85.716a14.49,14.49,0,0,0-2.228-6.478,14.915,14.915,0,0,0-6.972-5.907,1,1,0,0,1-.17-.117,12.873,12.873,0,0,1,5.8,2.312A14.033,14.033,0,0,1,78.2,87.177a43.436,43.436,0,0,0,.424,7.131c.23,1.206.546,2.388.879,3.568a.55.55,0,0,1,.05.369H77.144a.608.608,0,0,1-.29-.418A28.086,28.086,0,0,1,75.688,92.4a.636.636,0,0,1,.014-.157,2.682,2.682,0,0,0,1.673-2.806,8.27,8.27,0,0,1,0-.891,2.647,2.647,0,0,0-1.792-2.827" transform="translate(-46.207 -51.095)" fill="#fecc00"/>
        <path id="Trazado_132126" data-name="Trazado 132126" d="M59.973,120.823A8.537,8.537,0,0,0,64.1,117.2a9.3,9.3,0,0,0,1.336-5.042c-.011-3,0-5.994,0-8.991.761.192,1.52.39,2.284.571.222.053.249.181.248.377-.008,2.925.06,5.852-.029,8.774a8.385,8.385,0,0,1-7.965,7.936" transform="translate(-41.853 -71.996)" fill="#fec377"/>
        <path id="Trazado_132127" data-name="Trazado 132127" d="M87.968,136.187a5.757,5.757,0,0,1,.384,1.919,36.418,36.418,0,0,0,1.059,4.084H83.789c-.007-.2.163-.3.263-.422a9.824,9.824,0,0,0,2.119-5.056c.034-.3.122-.437.446-.4a4.09,4.09,0,0,0,1.353-.12" transform="translate(-58.474 -95.041)" fill="#fedd55"/>
        <path id="Trazado_132128" data-name="Trazado 132128" d="M21.161,121.337a4.377,4.377,0,0,1-.016.943c-.056.247.306.679-.253.738-.852.091-1.354-.157-1.4-.737a12.627,12.627,0,0,1,0-1.891,1.191,1.191,0,0,1,1.6-.714c.1.077.062.193.063.293,0,.456,0,.912,0,1.367" transform="translate(-13.58 -83.435)" fill="#fec376"/>
        <path id="Trazado_132129" data-name="Trazado 132129" d="M91.892,121.47a3.7,3.7,0,0,1,.016-.89c.063-.247-.307-.679.252-.739.853-.092,1.353.154,1.4.735a12.421,12.421,0,0,1,0,1.891,1.191,1.191,0,0,1-1.6.716c-.1-.077-.062-.193-.063-.293,0-.473,0-.947,0-1.42" transform="translate(-64.096 -83.62)" fill="#fec376"/>
        <path id="Trazado_132130" data-name="Trazado 132130" d="M124.643,17c-.005-1.438-.006-2.876-.022-4.313,0-.245.058-.365.318-.325a.669.669,0,0,0,.157,0c.4-.031,1,.179,1.14-.087.2-.367.06-.916.076-1.387.007-.211-.12-.211-.27-.211-1.508,0-3.017,0-4.525,0-.212,0-.285.077-.26.275,0,.017,0,.035,0,.053.01.435-.135.985.076,1.273s.785.082,1.2.079c.3,0,.424.046.419.394-.023,1.42-.018,2.841,0,4.262,0,.307-.052.473-.395.408a.539.539,0,0,0-.157,0,1.933,1.933,0,0,1-2.043-.772,3.962,3.962,0,0,0-1.165-.883A5.085,5.085,0,0,1,117.9,8.739a7.029,7.029,0,0,1,6.109-3.085,4.818,4.818,0,0,1,2.455,1.7,6.268,6.268,0,0,1,1.561,5.5,5.485,5.485,0,0,1-2.527,3.758c-.259.169-.457.508-.852.4" transform="translate(-81.671 -3.945)" fill="#feea98"/>
        <path id="Trazado_132131" data-name="Trazado 132131" d="M140.763,17a5.991,5.991,0,0,0,2.051-9.16,8.089,8.089,0,0,0-2.688-2.192,6.6,6.6,0,0,1,6.443,5.146,4.677,4.677,0,0,1-1.834,4.789,7.372,7.372,0,0,0-1.988,1.692c-.107.163-.265.141-.421.141-.4,0-.809-.026-1.209.008-.364.031-.419-.13-.354-.424" transform="translate(-97.79 -3.945)" fill="#fedd55"/>
        <path id="Trazado_132132" data-name="Trazado 132132" d="M131.146,51.853c-1.591.005-3.182.018-4.773.013a.841.841,0,1,1,0-1.676c1.591,0,3.182.008,4.773.013a1.124,1.124,0,0,1,0,1.65" transform="translate(-87.557 -35.026)" fill="#57a3fe"/>
        <path id="Trazado_132133" data-name="Trazado 132133" d="M131.146,63.005c-1.591.005-3.182.018-4.773.013a.841.841,0,1,1,0-1.676c1.591,0,3.182.008,4.773.013a1.124,1.124,0,0,1,0,1.65" transform="translate(-87.557 -42.808)" fill="#57a3fe"/>
        <path id="Trazado_132134" data-name="Trazado 132134" d="M138.9,72.486c.736-.006,1.472,0,2.208-.022.252-.007.318.075.329.325.043,1.07-.22,1.366-1.273,1.363-.491,0-.981-.011-1.472-.016a4.9,4.9,0,0,1,.208-1.65" transform="translate(-96.791 -50.57)" fill="#abaab0"/>
        <path id="Trazado_132135" data-name="Trazado 132135" d="M144.275,51.849a1.7,1.7,0,0,0,0-1.65c.609-.006,1.218-.023,1.826-.013a.841.841,0,1,1,0,1.676c-.608.01-1.218-.008-1.826-.013" transform="translate(-100.686 -35.021)" fill="#2487fe"/>
        <path id="Trazado_132136" data-name="Trazado 132136" d="M144.275,63a1.7,1.7,0,0,0,0-1.65c.609-.006,1.218-.023,1.826-.013a.841.841,0,1,1,0,1.676c-.608.01-1.218-.008-1.826-.013" transform="translate(-100.686 -42.804)" fill="#2487fe"/>
        <path id="Trazado_132137" data-name="Trazado 132137" d="M133.332,72.485a3.226,3.226,0,0,1-.208,1.65c-.438.006-.876.02-1.314.015a1.115,1.115,0,0,1-1-1.572c.073-.161.2-.107.311-.107.736,0,1.472.008,2.208.014" transform="translate(-91.221 -50.57)" fill="#c5c4c9"/>
        <path id="Trazado_132138" data-name="Trazado 132138" d="M11.4,17.366c-.988,0-.988,0-1.255-.925a.856.856,0,0,0-1.376-.564c-.839.46-.839.46-1.51-.211-.718-.718-.718-.718-.254-1.593.346-.653.128-1.143-.6-1.354-.893-.258-.9-.258-.892-1.174,0-.35-.1-.763.05-1.031s.628-.2.953-.315A.849.849,0,0,0,7.023,8.9c-.472-.928-.472-.928.273-1.673l.037-.037c.612-.613.612-.613,1.347-.185q1.14.663,1.483-.621c.219-.813.219-.813,1.083-.813H11.4c.984,0,.984,0,1.253.927a.843.843,0,0,0,1.33.578c.895-.466.895-.466,1.632.271.653.653.653.653.2,1.472a.853.853,0,0,0,.584,1.395c.89.241.89.241.89,1.18v.158c0,.926,0,.926-.9,1.171A.844.844,0,0,0,15.8,14.08c.464.864.464.864-.226,1.554l-.112.111c-.6.6-.6.6-1.344.179q-1.141-.656-1.486.624c-.218.816-.218.816-1.238.816" transform="translate(-3.818 -3.89)" fill="#feea98"/>
        <path id="Trazado_132139" data-name="Trazado 132139" d="M20.678,17.332a3.368,3.368,0,1,1-3.356-3.393,3.374,3.374,0,0,1,3.356,3.393" transform="translate(-9.73 -9.728)"/>
        <path id="Trazado_132140" data-name="Trazado 132140" d="M21.194,22.883a1.682,1.682,0,1,1,1.693-1.659,1.687,1.687,0,0,1-1.693,1.659" transform="translate(-13.624 -13.622)" fill="#c5c4c9"/>
      </g>
    </g>
  </g>
</svg>
