<svg xmlns="http://www.w3.org/2000/svg" xmlns:xlink="http://www.w3.org/1999/xlink" width="69" height="84" viewBox="0 0 69 84">
  <defs>
    <clipPath id="clip-path">
      <rect id="Rect치ngulo_37910" data-name="Rect치ngulo 37910" width="53.746" height="52.223" fill="none"/>
    </clipPath>
  </defs>
  <g id="Grupo_157174" data-name="Grupo 157174" transform="translate(-323 -10916.998)">
    <g id="Grupo_156377" data-name="Grupo 156377" transform="translate(323.373 10917.39)">
      <rect id="Rect치ngulo_36766" data-name="Rect치ngulo 36766" width="69" height="84" rx="12" transform="translate(-0.373 -0.391)" fill="#1169e3"/>
    </g>
    <g id="Grupo_156647" data-name="Grupo 156647" transform="translate(1)">
      <g id="Grupo_156582" data-name="Grupo 156582" transform="translate(-26 6270)">
        <path id="Trazado_127053" data-name="Trazado 127053" d="M15.507,123.96c-.454.1-.559-.113-.555-.537.012-1.063-.007-1.081-1.106-1.075-.409,0-.536-.124-.528-.529.007-.377.077-.553.512-.551,1.1,0,1.131-.018,1.119-1.119-.005-.5.239-.507.608-.511s.56.058.56.5c0,1.115.023,1.135,1.112,1.131.421,0,.521.15.522.541s-.1.541-.52.539c-1.11-.006-1.137.014-1.112,1.066.012.488-.169.631-.611.545" transform="translate(339.683 4573.993)" fill="#29c4bb"/>
        <path id="Trazado_127054" data-name="Trazado 127054" d="M213.642,151.161c.406-.078.632.057.565.517-.056.385.077.6.5.533s.57.088.573.537c0,.47-.189.578-.589.525-.383-.052-.5.115-.5.5.012.6-.357.826-.934.645-.274-.086-.214-.3-.2-.477.048-.472-.06-.76-.616-.666-.431.073-.457-.2-.456-.527s.014-.6.451-.53c.471.073.694-.1.616-.6-.075-.475.23-.5.582-.454" transform="translate(195.806 4552.685)" fill="#29c4bb"/>
        <path id="Trazado_127055" data-name="Trazado 127055" d="M210.718,69.268c.1.453-.1.608-.527.537-.46-.078-.648.111-.567.569s-.113.548-.542.553-.609-.127-.532-.557c.082-.459-.109-.648-.565-.562-.472.089-.513-.158-.531-.555-.021-.466.16-.588.566-.517.441.077.606-.106.531-.537-.072-.412.061-.579.521-.563.4.014.639.072.552.536s.115.639.567.563c.425-.072.632.081.526.534" transform="translate(199.254 4608.526)" fill="#010000"/>
        <path id="Trazado_127056" data-name="Trazado 127056" d="M55.04,186.64c.1.423-.11.578-.532.5-.5-.09-.614.169-.543.587.079.465-.146.537-.555.535-.39,0-.6-.091-.518-.511.108-.553-.169-.688-.645-.607s-.466-.225-.467-.559.007-.6.448-.512c.593.117.745-.168.665-.7-.077-.508.311-.362.569-.377.274-.016.579-.052.5.389-.1.545.092.8.67.687.482-.092.423.243.409.566" transform="translate(311.829 4530.025)" fill="#010000"/>
        <path id="Trazado_127057" data-name="Trazado 127057" d="M121.786,17.426c-.114-.483.153-.577.548-.518.41.061.572-.109.509-.513s.058-.588.522-.578c.427.009.623.119.548.558s.131.6.553.533c.391-.059.587.035.589.513s-.182.62-.608.553c-.45-.072-.6.133-.533.553.078.472-.175.526-.572.534-.424.009-.562-.151-.5-.54.068-.427-.09-.622-.535-.547s-.62-.106-.523-.547" transform="translate(261.153 4643.184)" fill="#29c4bb"/>
      </g>
      <g id="Grupo_158085" data-name="Grupo 158085" transform="translate(330 10932.998)">
        <g id="Grupo_158085-2" data-name="Grupo 158085" clip-path="url(#clip-path)">
          <path id="Trazado_132296" data-name="Trazado 132296" d="M18.895,100.805c.668.221.823.408.813,1.089-.026,1.781.083,3.564-.069,5.344a9,9,0,0,1-17.714,1.068c-.038-.145,0-.327-.169-.419A3.915,3.915,0,0,1,0,105.526v-1.365c.123-.278.237-.56.372-.832a3.644,3.644,0,0,1,2.134-1.8,1.921,1.921,0,0,1,1.51-.2,2.527,2.527,0,0,1,1.17.429.947.947,0,0,0,1.243-.089,1.813,1.813,0,0,0,.774-1.524c0-.122,0-.244,0-.366.022-.865.325-1.171,1.211-1.223,2.377-.008,4.755.03,7.131-.014a6.183,6.183,0,0,0,6-4.589.732.732,0,0,0,.03-.558c-.156-.17-.361-.111-.546-.111-3.6,0-7.2-.02-10.8.011a6.549,6.549,0,0,0-5.141,2.06A5.887,5.887,0,0,0,3.511,99.04a1.924,1.924,0,0,1-.215.909c-.182.307-.422.52-.818.364-.634-.168-.8-.4-.785-1.09a7.9,7.9,0,0,1,7.589-7.629c4.439-.079,8.881-.025,13.321-.022a.8.8,0,0,1,.915.946,7.8,7.8,0,0,1-4.14,6.83l-.492.285a.942.942,0,0,1-.518.332,7.7,7.7,0,0,1-2.665.471c-1.972-.023-3.946,0-5.918-.015a.671.671,0,0,0-.787.609,3.755,3.755,0,0,1-2.7,2.8,2.047,2.047,0,0,1-1.919-.335,1.587,1.587,0,0,0-2.332.471,1.647,1.647,0,0,0,.412,2.28,1.923,1.923,0,0,0,.356.221,1.223,1.223,0,0,1,.718.958,7.5,7.5,0,0,0,2.106,4.022,6.3,6.3,0,0,0,1.077.831A7.215,7.215,0,0,0,17.875,107.1a34.619,34.619,0,0,0,.035-3.512c.007-.612-.027-1.225.015-1.835.044-.638.435-1,.97-.945" transform="translate(0 -64.711)"/>
          <path id="Trazado_132297" data-name="Trazado 132297" d="M107.295,2.809h.926a1.9,1.9,0,0,0,1.864.678,5.492,5.492,0,0,1,.629,0,1.713,1.713,0,0,1,1.865,1.863c.019.979,0,1.959,0,2.938q0,3.28,0,6.559c0,1.529-.647,2.183-2.168,2.186-3.393.007-6.787,0-10.18,0a6.259,6.259,0,0,0-.629.012.718.718,0,0,0-.76.764c-.038.488.006.979-.025,1.469-.01.157-.016.351-.174.412s-.285-.093-.393-.206q-.87-.911-1.676-1.878a1.479,1.479,0,0,0-1.228-.576q-2.125.018-4.25,0A1.888,1.888,0,0,1,88.962,14.9c-.013-3.1-.005-6.192,0-9.288a2.942,2.942,0,0,1,.174-1.029,1.541,1.541,0,0,1,1.458-1.088c.227-.013.455-.008.682-.008,4.775,0,9.55-.008,14.325.009a1.792,1.792,0,0,0,1.7-.684" transform="translate(-62.875 -1.985)" fill="#00c6a8"/>
          <path id="Trazado_132298" data-name="Trazado 132298" d="M37.063,20.373H38.18c.237.224.169.52.169.791.008,2.186-.013,4.371.01,6.557a2.948,2.948,0,0,0,3,2.982c.49,0,.979-.007,1.469,0,.2,0,.427-.021.574.18a5.23,5.23,0,0,0-.056,1.214,2.188,2.188,0,0,0-.761,1.32,1.669,1.669,0,0,1-1.638,1.161c-1.451.021-2.9.029-4.354,0a1.792,1.792,0,0,0-1.581.73,21.155,21.155,0,0,1-1.5,1.682c-.121.123-.25.32-.423.259-.2-.071-.184-.316-.192-.506-.016-.367,0-.735-.01-1.1-.024-.77-.279-1.038-1.06-1.046-1.731-.018-3.462,0-5.194-.006-1.819,0-3.637.006-5.456,0-1.4-.006-2.032-.632-2.036-2.016q-.011-4.722,0-9.444c0-1.467.612-2.082,2.071-2.084,4.722,0,9.444-.011,14.166.009a1.738,1.738,0,0,0,1.685-.681" transform="translate(-13.527 -14.4)" fill="#3fabc8"/>
          <path id="Trazado_132299" data-name="Trazado 132299" d="M89.314,16.489c-.732-.006-1.464,0-2.2-.019A3.086,3.086,0,0,1,84.111,13.4c-.021-2.475-.015-4.95-.021-7.425,0-.874.012-1.748.015-2.622A3.141,3.141,0,0,1,87.407.01c2.168-.016,4.337,0,6.5,0q4.406,0,8.813,0c.747,0,.95.152,1.131.816-.179.661-.391.818-1.13.818-5.021,0-10.042.028-15.063-.016A1.723,1.723,0,0,0,85.7,3.6c.032,3.114.011,6.228.011,9.343,0,1.389.55,1.935,1.942,1.935,1.469,0,2.939.013,4.408-.007a1.253,1.253,0,0,1,1.046.475c.67.777,1.362,1.535,2.134,2.4,0-.692,0-1.259,0-1.826,0-.773.27-1.043,1.038-1.043q5.406,0,10.812,0c1.316,0,1.885-.568,1.885-1.882q0-4.776,0-9.552a1.566,1.566,0,0,0-1.79-1.8c-.437,0-.875,0-1.312,0-.677-.005-.875-.156-1.091-.818.215-.665.4-.819,1.089-.814a14.352,14.352,0,0,1,2.042.052,3.052,3.052,0,0,1,2.649,2.983q.032,5.192,0,10.385a3.033,3.033,0,0,1-3.04,3.037c-3.374.028-6.749.02-10.123,0-.427,0-.573.089-.554.539.038.872,0,1.748.013,2.622,0,.43-.069.821-.517.99a.9.9,0,0,1-1.051-.377c-1.016-1.155-2.051-2.293-3.062-3.452a.822.822,0,0,0-.715-.318c-.734.024-1.468.012-2.2.015" transform="translate(-59.437 0)"/>
          <path id="Trazado_132300" data-name="Trazado 132300" d="M19.314,123.225a3.678,3.678,0,0,0,2.742-3.163c.041-.328.252-.273.454-.273,1.661,0,3.322-.025,4.982.006a10.742,10.742,0,0,0,4.517-.678q0,.587.008,1.173c-.681.226-.814.408-.815,1.142,0,1.4.007,2.8,0,4.2a7.343,7.343,0,0,1-7.974,7.462,6.384,6.384,0,0,1-3.493-1.249,4.3,4.3,0,0,1-.755-1.811,11.788,11.788,0,0,1,.013-6.233c.059-.217.094-.449.322-.57" transform="translate(-13.122 -84.194)" fill="#fbd1bd"/>
          <path id="Trazado_132301" data-name="Trazado 132301" d="M109.276,93.665a.933.933,0,0,1-.782-.8c-.893-3.415.842-6.382,4.3-6.958a22.28,22.28,0,0,1,10.548.713c.5.161.823.456.706,1.042-.064.6-.468.858-1.121.654a17.6,17.6,0,0,0-2.429-.613,14.612,14.612,0,0,0-2.6-.224,14.681,14.681,0,0,0-5,.193,3.432,3.432,0,0,0-2.86,3.666c.011.388.137.526.53.491a5.529,5.529,0,0,0,2.771-.853c.6-.419.892-.369,1.432.145a9.064,9.064,0,0,0,1.825,1.563,6.638,6.638,0,0,0,4.586.555,3.181,3.181,0,0,1,.669-.121.909.909,0,0,1,.883.973c.016.41.141.586.569.481a1.414,1.414,0,0,1,.625.016,3.357,3.357,0,0,1,2.51,1.615,3.252,3.252,0,0,1-.583,4.2,2.188,2.188,0,0,0-.868,1.3,8.1,8.1,0,0,1-2.772,4.1.682.682,0,0,1-.454.23,9.492,9.492,0,0,1-3.963,1.5,8.388,8.388,0,0,1-9.147-6.81,35.7,35.7,0,0,1-.118-5.229c0-.4.278-.617.644-.725a.79.79,0,0,1,1.065.78c.045.593,0,1.189.017,1.782a20.8,20.8,0,0,0,.1,2.878,6.53,6.53,0,0,0,5.394,5.5,6.134,6.134,0,0,0,4.26-.705,6.3,6.3,0,0,0,3.322-4.4,1.982,1.982,0,0,1,.974-1.394,1.422,1.422,0,0,0,.508-2.036,1.493,1.493,0,0,0-2.116-.414c-.117.075-.224.168-.348.232a.946.946,0,0,1-1.437-.75,2.984,2.984,0,0,1-.017-.366c-.015-.667-.054-.7-.75-.564a7.547,7.547,0,0,1-5.741-1.891,1.048,1.048,0,0,0-1.251-.213,9.052,9.052,0,0,1-3.328.568.817.817,0,0,1-.548-.125" transform="translate(-76.522 -60.496)"/>
          <path id="Trazado_132302" data-name="Trazado 132302" d="M33.569,18.494c-.145.652-.36.826-1.055.827h-14.8c-1.377,0-1.909.527-1.909,1.892q0,4.776,0,9.552a1.563,1.563,0,0,0,1.8,1.789H28.365c.927,0,1.17.248,1.172,1.19,0,.517,0,1.033,0,1.686.752-.842,1.426-1.567,2.062-2.323a1.433,1.433,0,0,1,1.221-.562c1.5.027,3.009.011,4.513.009a1.507,1.507,0,0,0,1.7-1.457.893.893,0,0,1,.817-.873c.679.175.893.492.795,1.174a3.078,3.078,0,0,1-3.009,2.754c-1.415.048-2.832.029-4.248.012a1.093,1.093,0,0,0-.94.412c-.969,1.127-1.977,2.219-2.956,3.337a.916.916,0,0,1-1.1.384c-.44-.179-.505-.577-.5-1,.009-.857-.033-1.716.016-2.57.028-.494-.15-.562-.587-.56q-4.9.027-9.809.007A3.136,3.136,0,0,1,14.285,31.8a3.845,3.845,0,0,1-.088-.989q0-4.879,0-9.757a3.1,3.1,0,0,1,3.33-3.341q7.475,0,14.95,0c.743,0,.917.128,1.092.778" transform="translate(-10.033 -12.521)"/>
          <path id="Trazado_132303" data-name="Trazado 132303" d="M122.308,122.5a6.724,6.724,0,0,1-9.973-5.966c-.013-1.116,0-2.233,0-3.35,0-.733-.226-.971-.942-1.02.193-.358.068-.744.1-1.116a9.739,9.739,0,0,0,4.419-.834c.162-.083.257,0,.36.1a7.791,7.791,0,0,0,6.118,2.275c.282,0,.265.245.3.411a23.515,23.515,0,0,1,.508,3.984,14.593,14.593,0,0,1-.319,4.353,2.68,2.68,0,0,1-.566,1.162" transform="translate(-78.733 -77.877)" fill="#fbd1bd"/>
          <path id="Trazado_132304" data-name="Trazado 132304" d="M141.047,91.581a14.6,14.6,0,0,1,4.965.81c.646.223.924.1,1.2-.488.221.38.72.389.973.727,0,.8.567,1.244,1.051,1.763a9.541,9.541,0,0,1,2.1,4.109,17.514,17.514,0,0,1,.636,4.814,24.785,24.785,0,0,1-1.671,8.8c-.2.5-.389,1.012-.632,1.5-.071.141-.087.474-.412.265a2.785,2.785,0,0,1-.074-1.244,33.429,33.429,0,0,0-.274-7.352,1.505,1.505,0,0,1,.011-.673,3.5,3.5,0,0,0,1.043-2.43,3.212,3.212,0,0,0-2.669-3.153.884.884,0,0,1-.187-.081.508.508,0,0,0-.044-.356,14.651,14.651,0,0,0-5.226-6.344c-.2-.134-.423-.247-.623-.387-.093-.065-.23-.114-.178-.277" transform="translate(-99.688 -64.731)" fill="#5b3d2d"/>
          <path id="Trazado_132305" data-name="Trazado 132305" d="M157.542,115.734a20.491,20.491,0,0,0,1.473-3.792,22.093,22.093,0,0,0,1.01-6.434,15.443,15.443,0,0,0-1.792-8.021,6.489,6.489,0,0,0-1.385-1.7,1.113,1.113,0,0,1-.455-1.365c.722-.442.915-.425,1.551.166a11.019,11.019,0,0,1,3.16,5.9,24.651,24.651,0,0,1-1.929,15.618c-.315.716-.7,1.4-1.075,2.091a.812.812,0,0,1-1.265.385,8.1,8.1,0,0,1-4.106-4.676c-.2-.57-.071-.847.482-1.142.306-.286.568-.128.822.085a2,2,0,0,1,.5.9,6.476,6.476,0,0,0,2.025,2.607c.31.264.511.214.668-.159a.9.9,0,0,1,.313-.469" transform="translate(-107.891 -66.523)"/>
          <path id="Trazado_132306" data-name="Trazado 132306" d="M8.457,104.164c.658-.134.8-.318.848-1.1a6.273,6.273,0,0,1,5.207-5.926,21.825,21.825,0,0,1,3.817-.115c3.02-.021,6.041-.008,9.062,0,.131,0,.281-.058.393.069-.233.219-.527.153-.8.154-2.568.005-5.139.074-7.7-.026a3.734,3.734,0,0,0-3.028,1.457,6.915,6.915,0,0,0-1.705,3.43.733.733,0,0,1-.174.429c-.835.064-1.04.293-1.043,1.161a2.1,2.1,0,0,1-1.41,2.256.5.5,0,0,1-.494-.02,3.572,3.572,0,0,0-2.944-.545l-.027-1.221" transform="translate(-5.978 -68.562)" fill="#e1a01e"/>
          <path id="Trazado_132307" data-name="Trazado 132307" d="M158.727,145.356c-.571,1.342-.414,1.283-1.464.381a6.029,6.029,0,0,1-1.809-2.69.822.822,0,0,0-1.057-.656,2.49,2.49,0,0,0-.079-.7,8.393,8.393,0,0,0,3.145-4.53,1.666,1.666,0,0,1,.857-1.141,12.413,12.413,0,0,1,.39,2.6,30.849,30.849,0,0,1,.107,4.594c-.038.712-.087,1.422-.089,2.135" transform="translate(-109.075 -96.145)" fill="#6b4b3d"/>
          <path id="Trazado_132308" data-name="Trazado 132308" d="M28.645,102.72a6.361,6.361,0,0,1,1.444-3.571,8.3,8.3,0,0,1,.8-.894,3.733,3.733,0,0,1,2.9-.99c2.755.07,5.513.016,8.27.011a5.674,5.674,0,0,1-1.918,3.765,5.809,5.809,0,0,1-3.956,1.671c-2.51.048-5.023.01-7.534.008" transform="translate(-20.247 -68.748)" fill="#f8cd55"/>
          <path id="Trazado_132309" data-name="Trazado 132309" d="M10.074,131.4a14.822,14.822,0,0,0-.537,2.65,12.737,12.737,0,0,0,.957,5.964,6.944,6.944,0,0,1-3.128-4.583,1.622,1.622,0,0,0-.929-1.32A1.808,1.808,0,1,1,8.273,131a2.077,2.077,0,0,0,1.8.4" transform="translate(-3.882 -92.373)" fill="#f9b897"/>
          <path id="Trazado_132310" data-name="Trazado 132310" d="M104.995,38.189q-2.753,0-5.506,0a.908.908,0,0,1-.952-.5.768.768,0,0,1,.468-1.058,2.07,2.07,0,0,1,.619-.069q5.375-.006,10.749,0a3.119,3.119,0,0,1,.367.008.808.808,0,0,1-.031,1.616c-.488.024-.979.007-1.468.007h-4.247" transform="translate(-69.599 -25.84)" fill="#000101"/>
          <path id="Trazado_132311" data-name="Trazado 132311" d="M104.776,25.327q2.7,0,5.4,0a.809.809,0,0,1,.8.473.739.739,0,0,1-.078.791.814.814,0,0,1-.727.334q-5.422,0-10.844,0a.8.8,0,1,1,0-1.587c1.816-.009,3.632,0,5.448,0" transform="translate(-69.603 -17.901)"/>
          <path id="Trazado_132312" data-name="Trazado 132312" d="M128.916,13.973h4.145a4.169,4.169,0,0,1,.42.006.8.8,0,0,1,.8.8.788.788,0,0,1-.787.814c-.26.024-.524.008-.787.008h-7.818c-.1,0-.21,0-.315,0-.624-.014-1.011-.338-1-.835.013-.472.394-.792.985-.795,1.451-.007,2.9,0,4.355,0" transform="translate(-87.347 -9.875)" fill="#000101"/>
          <path id="Trazado_132313" data-name="Trazado 132313" d="M101.594,15.6c-.715,0-1.431.006-2.146,0-.6-.007-.961-.307-.974-.794-.013-.507.356-.831.986-.835q2.146-.011,4.292,0c.624,0,1.011.329,1.006.821s-.387.8-1.018.808c-.715.006-1.431,0-2.146,0" transform="translate(-69.604 -9.873)" fill="#000101"/>
          <path id="Trazado_132314" data-name="Trazado 132314" d="M147.253,26.91c-.454,0-.909.012-1.363,0a.794.794,0,1,1-.006-1.586q1.389-.02,2.779,0a.792.792,0,1,1,.005,1.583c-.471.017-.944,0-1.416,0" transform="translate(-102.528 -17.89)"/>
          <path id="Trazado_132315" data-name="Trazado 132315" d="M35.517,41.825q3.437,0,6.875,0c.605,0,.96.3.954.8a.739.739,0,0,1-.637.777,2.539,2.539,0,0,1-.522.026H28.751c-.052,0-.1,0-.157,0-.629-.015-1.009-.331-.992-.827s.382-.777.988-.778q3.463,0,6.928,0" transform="translate(-19.509 -29.563)"/>
          <path id="Trazado_132316" data-name="Trazado 132316" d="M48.736,54.75c-1.014,0-2.029,0-3.043,0-.646,0-1-.3-.988-.822s.327-.78.965-.781q3.07-.008,6.139,0c.6,0,.962.323.95.809s-.386.79-.979.794c-1.014.005-2.029,0-3.043,0" transform="translate(-31.598 -37.562)"/>
          <path id="Trazado_132317" data-name="Trazado 132317" d="M30.714,32.125c-.715,0-1.431.007-2.146,0-.595-.008-.961-.323-.966-.8s.364-.816.951-.821q2.2-.018,4.4,0a.835.835,0,0,1,.938.831c-.012.484-.373.787-.976.794-.732.008-1.465,0-2.2,0" transform="translate(-19.51 -21.55)" fill="#000101"/>
          <path id="Trazado_132318" data-name="Trazado 132318" d="M57.706,32.124c-.718,0-1.435.008-2.152,0a.842.842,0,0,1-.944-.775c-.023-.494.323-.841.92-.847q2.23-.024,4.461,0a.784.784,0,0,1,.884.823c-.007.482-.342.788-.912.8-.752.012-1.5,0-2.257,0" transform="translate(-38.599 -21.549)" fill="#000101"/>
          <path id="Trazado_132319" data-name="Trazado 132319" d="M29.515,54.74c-.367,0-.735.015-1.1,0a.81.81,0,0,1-.814-.794.786.786,0,0,1,.8-.8c.785-.02,1.573-.022,2.358,0a.733.733,0,0,1,.749.777.8.8,0,0,1-.732.811.781.781,0,0,1-.1,0H29.515" transform="translate(-19.509 -37.553)"/>
          <path id="Trazado_132320" data-name="Trazado 132320" d="M31.9,150.311a4.774,4.774,0,0,1-3.969-2.1c-.347-.534-.3-1,.12-1.283s.854-.162,1.221.388a3.033,3.033,0,0,0,2.31,1.343c.1.012.21.011.312.03a.817.817,0,0,1,.752.9.791.791,0,0,1-.746.726" transform="translate(-19.581 -103.746)"/>
          <path id="Trazado_132321" data-name="Trazado 132321" d="M49.821,129.3a5.768,5.768,0,0,1,.006-.733.771.771,0,0,1,.792-.753.744.744,0,0,1,.806.731,9.156,9.156,0,0,1,0,1.465.756.756,0,0,1-.838.748.774.774,0,0,1-.767-.777,5.993,5.993,0,0,1,0-.681h0" transform="translate(-35.207 -90.342)" fill="#020101"/>
          <path id="Trazado_132322" data-name="Trazado 132322" d="M39.448,129.305a7.186,7.186,0,0,1,0,.733.767.767,0,0,1-.823.707.715.715,0,0,1-.753-.713,12.725,12.725,0,0,1,0-1.518.735.735,0,0,1,.76-.716.779.779,0,0,1,.816.722c.026.259,0,.523,0,.785" transform="translate(-26.749 -90.329)"/>
          <path id="Trazado_132323" data-name="Trazado 132323" d="M121.826,91.286a14.38,14.38,0,0,1,3.444,2.763,16.663,16.663,0,0,1,2.7,4.2c.052.112.249.325-.073.4-.052,0-.105,0-.157,0-.347.025-.752.176-1.024.047-.341-.162-.073-.634-.172-.957a.789.789,0,0,0-1.006-.5,7.411,7.411,0,0,1-3.527.11,5.946,5.946,0,0,1-3.235-2.017c-.64-.726-.792-.731-1.576-.186a6.128,6.128,0,0,1-3.1.816c-.288.026-.232-.253-.244-.431a3.565,3.565,0,0,1,2.975-4.057,14.638,14.638,0,0,1,5-.19" transform="translate(-80.466 -64.436)" fill="#6b4b3d"/>
          <path id="Trazado_132324" data-name="Trazado 132324" d="M148.632,128.074a12.424,12.424,0,0,0,.658-2.454,20.809,20.809,0,0,0,.033-3.946,20.207,20.207,0,0,0-.488-3.236c-.024-.1-.031-.206-.125-.274a.836.836,0,0,1,.147-.05c.71-.1.71-.1.711.593a4.339,4.339,0,0,0,.01.576.8.8,0,0,0,1.226.585,3.33,3.33,0,0,0,.289-.225,1.633,1.633,0,0,1,2.383.406,1.581,1.581,0,0,1-.608,2.289,1.437,1.437,0,0,0-.842,1.147,6.41,6.41,0,0,1-3.392,4.588" transform="translate(-105.057 -83.452)" fill="#f9b897"/>
          <path id="Trazado_132325" data-name="Trazado 132325" d="M130.843,139.993a.823.823,0,0,1-.87-.73.8.8,0,0,1,.714-.873c.221-.045.451-.047.672-.1a2.718,2.718,0,0,0,1.8-1.24.8.8,0,0,1,1.168-.286.807.807,0,0,1,.183,1.153,4.364,4.364,0,0,1-3.662,2.072" transform="translate(-91.865 -96.566)"/>
          <path id="Trazado_132326" data-name="Trazado 132326" d="M121.59,120.547a4.645,4.645,0,0,1-.007.731.748.748,0,0,1-.788.691.733.733,0,0,1-.789-.689,6.885,6.885,0,0,1,0-1.464.727.727,0,0,1,.788-.686.739.739,0,0,1,.79.685,4.649,4.649,0,0,1,.007.732" transform="translate(-84.795 -84.204)" fill="#020101"/>
          <path id="Trazado_132327" data-name="Trazado 132327" d="M131.1,120.488a4.006,4.006,0,0,1,.006-.628.762.762,0,0,1,.81-.727.719.719,0,0,1,.777.694,7.914,7.914,0,0,1,.007,1.412.739.739,0,0,1-.8.732.767.767,0,0,1-.795-.749,5.556,5.556,0,0,1-.006-.733h0" transform="translate(-92.653 -84.206)" fill="#020101"/>
        </g>
      </g>
    </g>
  </g>
</svg>
