<svg xmlns="http://www.w3.org/2000/svg" xmlns:xlink="http://www.w3.org/1999/xlink" width="90.773" height="90.773" viewBox="0 0 90.773 90.773">
  <defs>
    <clipPath id="clip-path">
      <rect id="Rectángulo_37906" data-name="Rectángulo 37906" width="47.549" height="47.528" fill="none"/>
    </clipPath>
  </defs>
  <g id="Grupo_157763" data-name="Grupo 157763" transform="translate(6399 6571)">
    <path id="Trazado_127482" data-name="Trazado 127482" d="M45.387,0A45.387,45.387,0,1,1,0,45.387,45.387,45.387,0,0,1,45.387,0Z" transform="translate(-6399 -6571)" fill="#b0c8cb"/>
    <g id="Grupo_156595" data-name="Grupo 156595" transform="translate(-6385.246 -6555.413)">
      <path id="Trazado_127053" data-name="Trazado 127053" d="M15.375,123.6c.416.093.513-.1.509-.492-.011-.974.006-.992,1.015-.986.375,0,.492-.114.485-.485-.007-.346-.07-.507-.469-.505-1.011,0-1.037-.017-1.026-1.026,0-.457-.219-.465-.558-.469s-.514.053-.514.459c0,1.022-.021,1.041-1.019,1.037-.386,0-.478.138-.479.5s.091.5.477.494c1.018-.006,1.042.013,1.02.978-.011.448.155.579.561.5" transform="translate(44.792 -83.878)" fill="#29c4bb"/>
      <path id="Trazado_127054" data-name="Trazado 127054" d="M213.5,151.159c-.373-.071-.579.052-.518.474.051.353-.071.55-.461.489s-.522.081-.525.492c0,.431.173.53.54.481.351-.047.462.105.455.455-.011.547.328.757.857.591.251-.079.2-.279.18-.437-.044-.432.055-.7.565-.611.395.067.419-.181.418-.484s-.013-.548-.414-.486c-.432.067-.636-.091-.564-.547.068-.436-.211-.455-.533-.417" transform="translate(-211.994 -104.948)" fill="#29c4bb"/>
      <path id="Trazado_127055" data-name="Trazado 127055" d="M207.478,69.132c-.1.416.094.558.484.492.422-.071.594.1.52.521s.1.5.5.507.558-.116.488-.511c-.075-.42.1-.594.518-.515s.471-.145.487-.509c.019-.427-.147-.539-.519-.474-.4.071-.555-.1-.487-.492.066-.378-.056-.531-.477-.516-.371.013-.586.066-.506.491s-.105.586-.52.516c-.39-.066-.58.074-.483.49" transform="translate(-204.437 -61.871)" fill="#010000"/>
      <path id="Trazado_127056" data-name="Trazado 127056" d="M51.8,186.5c-.091.388.1.53.488.46.455-.082.563.155.5.538-.072.426.134.493.509.49.358,0,.55-.083.475-.469-.1-.507.155-.631.591-.556s.427-.206.428-.513-.006-.549-.411-.47c-.544.108-.683-.154-.61-.641.07-.466-.285-.332-.522-.346s-.531-.047-.458.357c.09.5-.085.732-.614.63-.442-.085-.388.223-.375.519" transform="translate(-4.069 -127.272)" fill="#010000"/>
      <path id="Trazado_127057" data-name="Trazado 127057" d="M124.759,17.292c.1-.443-.141-.529-.5-.475s-.524-.1-.467-.47-.053-.539-.479-.53c-.392.008-.571.109-.5.512s-.121.547-.507.489c-.358-.054-.538.032-.54.47s.167.569.558.507c.413-.066.553.122.489.507-.072.432.16.482.524.49.389.008.516-.138.458-.495-.062-.391.082-.57.49-.5s.569-.1.48-.5" transform="translate(-94.9 -15.817)" fill="#29c4bb"/>
    </g>
    <g id="Grupo_158081" data-name="Grupo 158081" transform="translate(-6377 -6549)">
      <g id="Grupo_158081-2" data-name="Grupo 158081" clip-path="url(#clip-path)">
        <path id="Trazado_132141" data-name="Trazado 132141" d="M8.407,52.137c-2.171,0-4.343-.005-6.514.006-.3,0-.4-.047-.383-.383Q1.9,45,2.27,38.232q.307-5.569.61-11.139c.015-.271.03-.542.052-.812a5.809,5.809,0,0,0-.55-3.67,7.524,7.524,0,0,1-.842-3.93.515.515,0,0,0-.312-.552A2.2,2.2,0,0,1,0,16.064C0,15.09,0,14.116,0,13.143a2.237,2.237,0,0,1,1.285-2.125.61.61,0,0,0,.358-.448A3.043,3.043,0,0,1,4.471,8.256c1.892-.153,3.784-.315,5.671-.522a3.008,3.008,0,0,1,3.645,2.792c.026.191.082.233.257.232.846-.007,1.693-.012,2.539,0,.24,0,.289-.079.286-.3-.012-.8,0-1.6-.01-2.394,0-.266.023-.387.348-.386q5.029.021,10.058,0c.281,0,.335.089.335.349q-.011,6.561,0,13.122c0,.279-.085.337-.348.336q-5.029-.013-10.058,0c-.278,0-.343-.083-.337-.347.017-.8-.006-1.6.013-2.394.007-.279-.087-.334-.348-.337-1.192-.012-1.216-.02-1.186,1.163a6.194,6.194,0,0,1-1.388,4.309.63.63,0,0,0-.127.488q.554,9.775,1.1,19.551c.145,2.6.269,5.2.43,7.792.024.388-.1.433-.433.431-2.171-.014-4.343-.007-6.514-.007" transform="translate(0 -4.618)"/>
        <path id="Trazado_132142" data-name="Trazado 132142" d="M82.24,84.547c-2.921,0-5.842-.007-8.763.009-.355,0-.453-.078-.444-.44A8.011,8.011,0,0,1,73.3,81.99a.787.787,0,0,0-.013-.512,3.868,3.868,0,0,1,.553-3.716,3.229,3.229,0,0,0,.638-2.787,3.546,3.546,0,0,0-.509-1.072,5,5,0,0,1-.3-5.34c.466-.923.89-1.87,1.4-2.766a8.2,8.2,0,0,1,14.292-.08,35.3,35.3,0,0,1,1.611,3.2,4.715,4.715,0,0,1-.344,4.785,3.277,3.277,0,0,0,.037,4.108,3.81,3.81,0,0,1,.527,3.676.784.784,0,0,0-.01.512,7.841,7.841,0,0,1,.264,2.175c0,.321-.093.388-.4.387-2.937-.011-5.873-.007-8.81-.007" transform="translate(-43.918 -37.028)"/>
        <path id="Trazado_132143" data-name="Trazado 132143" d="M82.244,23c-2.922,0-5.844-.007-8.765.009-.358,0-.441-.084-.441-.441A6.65,6.65,0,0,1,78.431,15.7a3.726,3.726,0,0,1,.6-.156c.378-.026.316-.341.409-.556s-.07-.309-.212-.414a3.652,3.652,0,0,1-1.51-2.508.53.53,0,0,0-.417-.494,11.859,11.859,0,0,1-1.151-.46,2.544,2.544,0,0,1-1.375-3.3,1.061,1.061,0,0,0,.029-.689A5.549,5.549,0,0,1,78.879.153,5.136,5.136,0,0,1,80.111.005c1.421,0,2.842-.014,4.262,0a5.527,5.527,0,0,1,5.362,6.869,1.836,1.836,0,0,0,.039,1.1A2.526,2.526,0,0,1,88.39,11.09a12.753,12.753,0,0,1-1.24.5.5.5,0,0,0-.378.471,3.659,3.659,0,0,1-1.507,2.511c-.162.12-.307.222-.2.462.089.206.057.446.395.512a10.357,10.357,0,0,1,1.7.474,6.683,6.683,0,0,1,4.293,6.739c-.014.293-.178.238-.344.239H82.244" transform="translate(-43.921 0)"/>
        <path id="Trazado_132144" data-name="Trazado 132144" d="M53.017,72.254c0,2.155-.01,4.31.009,6.465,0,.357-.082.443-.441.441q-4.933-.024-9.867,0c-.358,0-.443-.083-.441-.441q.022-6.465,0-12.931c0-.357.082-.443.441-.441q4.933.024,9.867,0c.357,0,.444.082.441.441-.019,2.155-.01,4.31-.01,6.465" transform="translate(-25.423 -39.296)"/>
        <path id="Trazado_132145" data-name="Trazado 132145" d="M47.679,46.95c0,.732,0,.732-.753.732-.78,0-.78,0-.78-.8,0-.732,0-.732.753-.732.78,0,.78,0,.78.8" transform="translate(-27.749 -27.751)"/>
        <path id="Trazado_132146" data-name="Trazado 132146" d="M55.37,46.875c0,.807,0,.807-.822.807-.711,0-.711,0-.711-.726,0-.807,0-.807.822-.807.711,0,.711,0,.711.726" transform="translate(-32.374 -27.751)"/>
        <path id="Trazado_132147" data-name="Trazado 132147" d="M63.06,46.877c0,.8,0,.8-.824.8-.709,0-.709,0-.709-.728,0-.8,0-.8.824-.8.709,0,.709,0,.709.728" transform="translate(-36.999 -27.751)"/>
        <path id="Trazado_132148" data-name="Trazado 132148" d="M46.146,104.545c0-.726,0-.726.711-.726.822,0,.822,0,.822.807,0,.726,0,.726-.711.726-.822,0-.822,0-.822-.807" transform="translate(-27.749 -62.43)"/>
        <path id="Trazado_132149" data-name="Trazado 132149" d="M55.37,104.587c0,.765,0,.765-.768.765s-.765,0-.765-.768,0-.765.768-.765.765,0,.765.768" transform="translate(-32.374 -62.43)"/>
        <path id="Trazado_132150" data-name="Trazado 132150" d="M61.527,104.547c0-.728,0-.728.757-.728.776,0,.776,0,.776.756,0,.777,0,.777-.757.777-.776,0-.776,0-.776-.8" transform="translate(-36.999 -62.43)"/>
        <path id="Trazado_132151" data-name="Trazado 132151" d="M8.3,81.486c.149-2.677.3-5.353.441-8.03.014-.283.051-.418.39-.416q4.023.023,8.045,0c.282,0,.376.064.391.365q.425,8.031.883,16.06c.02.356-.04.452-.412.45q-4.885-.025-9.77,0c-.371,0-.435-.092-.413-.45.161-2.66.3-5.321.439-7.982h0" transform="translate(-4.723 -43.922)" fill="#fe816e"/>
        <path id="Trazado_132152" data-name="Trazado 132152" d="M13.084,29.977c-1.277,0-2.553-.006-3.83.006a.531.531,0,0,1-.56-.312A8.775,8.775,0,0,1,7.675,25.73c-.008-.317.105-.358.38-.356,2.107.01,4.213.007,6.32.005a2.313,2.313,0,0,0,2.505-2.5c0-.7-.01-1.4,0-2.106a1.542,1.542,0,0,1,1.192-1.489c.228-.054.344-.043.342.25-.013,2.6-.006,5.2-.018,7.8a3.748,3.748,0,0,1-.282,1.3c-.458,1.212-.644,1.34-1.923,1.34Z" transform="translate(-4.615 -11.58)" fill="#efcfb3"/>
        <path id="Trazado_132153" data-name="Trazado 132153" d="M53.729,16.837c0,1.644-.008,3.289.007,4.933,0,.307-.034.44-.4.437q-3.449-.028-6.9,0c-.33,0-.4-.106-.381-.4.028-.445-.125-.974.068-1.314s.774-.362,1.186-.52c1.16-.443,2.324-.874,3.485-1.315a1.885,1.885,0,0,0-.008-3.643c-1.459-.55-2.918-1.1-4.384-1.635-.274-.1-.374-.232-.345-.514.047-.454-.2-1.064.1-1.324.255-.224.85-.067,1.295-.068,1.964,0,3.928.006,5.892-.009.316,0,.393.085.391.395-.015,1.66-.007,3.321-.007,4.981" transform="translate(-27.668 -6.865)" fill="#fee9a6"/>
        <path id="Trazado_132154" data-name="Trazado 132154" d="M6.909,21.537c0,.654-.009,1.308,0,1.961.005.24-.049.338-.313.33-.637-.019-1.276,0-1.914-.009a.761.761,0,0,1-.84-.827q-.017-1.459,0-2.919a.771.771,0,0,1,.869-.848c.622-.009,1.245.013,1.866-.009.288-.01.34.1.334.358-.016.653-.005,1.308-.005,1.961" transform="translate(-2.308 -11.556)" fill="#a9b1bc"/>
        <path id="Trazado_132155" data-name="Trazado 132155" d="M14.672,66.892c-1.308,0-2.616-.01-3.923.008-.321,0-.394-.086-.372-.4.083-1.14.071-1.141,1.23-1.141,2.28,0,4.561.008,6.841-.008.343,0,.513.065.453.432a.452.452,0,0,0,0,.1c.059,1.013.059,1.013-.981,1.013Z" transform="translate(-6.238 -39.298)" fill="#e5e8ec"/>
        <path id="Trazado_132156" data-name="Trazado 132156" d="M14.888,59.2c-1.229,0-2.459-.011-3.688.008-.319,0-.4-.087-.384-.4.043-1.14.031-1.14,1.15-1.14,2.187,0,4.375.008,6.562-.008.336,0,.457.064.483.43.078,1.112.1,1.11-1.009,1.11H14.888" transform="translate(-6.503 -34.675)" fill="#fb6e51"/>
        <path id="Trazado_132157" data-name="Trazado 132157" d="M15.191,51.515c-1.179,0-2.358-.007-3.537.005-.281,0-.415-.024-.4-.374.05-1.163.033-1.164,1.205-1.164,2.055,0,4.111.007,6.166-.007.329,0,.472.05.49.424.053,1.117.071,1.116-1.056,1.116Z" transform="translate(-6.767 -30.052)" fill="#e5e8ec"/>
        <path id="Trazado_132158" data-name="Trazado 132158" d="M8,13.087a1.446,1.446,0,0,1,1.23-.949q3.117-.307,6.237-.572a1.443,1.443,0,0,1,1.586,1.151c.045.223.061.379-.273.378-2.9-.013-5.8-.007-8.78-.007" transform="translate(-4.81 -6.951)" fill="#efcfb3"/>
        <path id="Trazado_132159" data-name="Trazado 132159" d="M20.343,19.236a3.88,3.88,0,0,0-.377,1.361c-.005.2-.146.171-.267.171-1.355,0-2.71,0-4.065,0-.2,0-.3-.051-.273-.266a.24.24,0,0,0,0-.048c-.052-1.222-.052-1.222,1.179-1.222h3.8" transform="translate(-9.227 -11.567)" fill="#fe816e"/>
        <path id="Trazado_132160" data-name="Trazado 132160" d="M17.4,28.447c-.574,0-1.148-.01-1.722,0-.239.006-.323-.048-.33-.31-.034-1.227-.044-1.227,1.179-1.227,1.02,0,2.041.011,3.061-.007.287,0,.378.059.376.364-.006.956-.208,1.176-1.176,1.176H17.4" transform="translate(-9.225 -16.18)" fill="#fbd670"/>
        <path id="Trazado_132161" data-name="Trazado 132161" d="M46.2,20.116c.465.175.89.348,1.324.492.189.063.186.185.186.332q0,1.125,0,2.249c0,.146,0,.269-.186.332-.435.144-.859.317-1.324.492Z" transform="translate(-27.784 -12.097)" fill="#a9b1bc"/>
        <path id="Trazado_132162" data-name="Trazado 132162" d="M39.26,28.458c-.8,0-.8,0-.8-.824,0-.709,0-.709.728-.709.8,0,.8,0,.8.824,0,.709,0,.709-.728.709" transform="translate(-23.125 -16.191)" fill="#fbd670"/>
        <path id="Trazado_132163" data-name="Trazado 132163" d="M39.235,19.236c.754,0,.754,0,.754.732,0,.8,0,.8-.779.8-.753,0-.753,0-.753-.732,0-.8,0-.8.779-.8" transform="translate(-23.125 -11.567)" fill="#fe816e"/>
        <path id="Trazado_132164" data-name="Trazado 132164" d="M53.818,22.973c.47.177.882.328,1.291.486a.333.333,0,0,1,.241.319.341.341,0,0,1-.235.325.666.666,0,0,1-.086.04,6.994,6.994,0,0,1-1.16.385,11.747,11.747,0,0,1-.052-1.555" transform="translate(-32.363 -13.815)" fill="#a8b0bb"/>
        <path id="Trazado_132165" data-name="Trazado 132165" d="M77.2,81.3q.21-.33.421-.66a4.459,4.459,0,0,0,.012-5.209,3.617,3.617,0,0,1-.222-3.969,26.538,26.538,0,0,1,1.831-3.41,6.662,6.662,0,0,1,11.213.845c.494.929.96,1.874,1.415,2.823a3.356,3.356,0,0,1-.224,3.5,4.636,4.636,0,0,0,.047,5.66c.11.159.292.3.232.591A7.124,7.124,0,0,0,87.89,79.4c-.339-.069-.415-.255-.5-.533s.1-.372.261-.5a3.769,3.769,0,0,0,1.525-3.1q.007-1.293,0-2.586a1.121,1.121,0,0,0-.832-1.245,8.58,8.58,0,0,1-3.486-2.287c-.218-.236-.352-.224-.563,0a8.474,8.474,0,0,1-3.533,2.3.992.992,0,0,0-.759.9,21.337,21.337,0,0,0,.065,3.726,3.584,3.584,0,0,0,1.36,2.238c.171.14.415.207.342.551a.642.642,0,0,1-.594.559,7.243,7.243,0,0,0-3.3,1.437c-.2.165-.4.338-.6.507L77.2,81.3" transform="translate(-46.256 -39.314)" fill="#656d78"/>
        <path id="Trazado_132166" data-name="Trazado 132166" d="M94.565,83.015a7.978,7.978,0,0,1-.065,1.443,2.29,2.29,0,0,1-2.2,1.782q-.789.017-1.579,0a2.294,2.294,0,0,1-2.279-2.291c-.012-.734.008-1.468-.009-2.2a.4.4,0,0,1,.308-.45,9.091,9.091,0,0,0,2.54-1.5c.164-.136.264-.155.439-.008a9.252,9.252,0,0,0,2.581,1.522.367.367,0,0,1,.274.422c-.014.4,0,.8,0,1.278" transform="translate(-53.175 -47.921)" fill="#efcfb3"/>
        <path id="Trazado_132167" data-name="Trazado 132167" d="M83.081,108.809c-1.937,0-3.788-.009-5.639.008-.375,0-.322-.174-.268-.41a5.214,5.214,0,0,1,4.237-3.926c.192-.029.252,0,.268.19a9.179,9.179,0,0,0,.435,2.15,9.963,9.963,0,0,0,.967,1.989" transform="translate(-46.385 -62.823)" fill="#b3dc7e"/>
        <path id="Trazado_132168" data-name="Trazado 132168" d="M100.233,108.811a8.786,8.786,0,0,0,1.173-2.757c.09-.436.155-.878.214-1.32.027-.2.053-.3.311-.244a5.163,5.163,0,0,1,4.184,3.859c.088.316.112.48-.331.473-1.738-.028-3.477-.011-5.215-.011Z" transform="translate(-60.274 -62.824)" fill="#b3dc7e"/>
        <path id="Trazado_132169" data-name="Trazado 132169" d="M93.807,99.943h.575c.842,0,.883.013.955.863a6.564,6.564,0,0,1-.151,1.95c-.042.194-.112.26-.31.257-.718-.011-1.437-.006-2.156,0-.139,0-.229-.017-.263-.191a5.4,5.4,0,0,1-.022-2.648c.067-.221.157-.259.366-.244.334.024.67.006,1.005.006v.011" transform="translate(-55.49 -60.088)" fill="#efcfb3"/>
        <path id="Trazado_132170" data-name="Trazado 132170" d="M94.252,111.559H95.7a4.13,4.13,0,0,1-.562.946c-.112.164-.2.111-.283-.019-.187-.286-.372-.573-.6-.927" transform="translate(-56.677 -67.085)" fill="#fbe6a4"/>
        <path id="Trazado_132171" data-name="Trazado 132171" d="M87.051,3.844a20.6,20.6,0,0,1,2.687.08,4.006,4.006,0,0,1,3.27,4.209c-.024.337-.077.534-.5.388a4.4,4.4,0,0,0-1.569-.073A4.608,4.608,0,0,1,87.22,6.916c-.242-.266-.4-.308-.663-.014a4.585,4.585,0,0,1-3.711,1.546,5.83,5.83,0,0,0-1.808.106c-.355.1-.25-.222-.266-.357a4.007,4.007,0,0,1,2.5-4.063,4.184,4.184,0,0,1,1.54-.292c.686.006,1.372,0,2.235,0" transform="translate(-48.558 -2.307)" fill="#b17946"/>
        <path id="Trazado_132172" data-name="Trazado 132172" d="M94.564,19.581c0,.559.008,1.117,0,1.676a2.3,2.3,0,0,1-2.272,2.3c-.542.013-1.086.016-1.628,0a2.283,2.283,0,0,1-2.224-2.246c-.019-1.2,0-2.394-.012-3.59,0-.274.1-.349.349-.383a5.383,5.383,0,0,0,2.454-.995.381.381,0,0,1,.534,0,5.445,5.445,0,0,0,2.5,1c.246.032.31.138.3.372-.014.622,0,1.245-.005,1.867" transform="translate(-53.174 -9.76)" fill="#efcfb3"/>
        <path id="Trazado_132173" data-name="Trazado 132173" d="M83.936,45.525c0,.824-.01,1.584,0,2.343.006.335-.222.242-.389.242q-2.607.007-5.213,0h-.526c-.778,0-.786,0-.556-.728a5.134,5.134,0,0,1,2.4-2.974c.246-.142.37-.14.5.143.3.65.654,1.275.946,1.928.144.323.289.329.571.181.727-.384,1.468-.741,2.26-1.137" transform="translate(-46.378 -26.65)" fill="#75b0f1"/>
        <path id="Trazado_132174" data-name="Trazado 132174" d="M98.045,45.525c.792.4,1.532.754,2.259,1.138.279.148.427.149.572-.177.291-.653.647-1.277.945-1.927.13-.283.252-.286.5-.143a5.162,5.162,0,0,1,2.506,3.34c.061.245.043.369-.274.367q-3.084-.02-6.168,0c-.273,0-.352-.074-.345-.346.018-.727.006-1.455.006-2.251" transform="translate(-58.954 -26.653)" fill="#75b0f1"/>
        <path id="Trazado_132175" data-name="Trazado 132175" d="M107.667,21.583c0-.754,0-1.452,0-2.15,0-.1-.029-.206.14-.247a1.212,1.212,0,0,1,1.3.663,1.018,1.018,0,0,1-.448,1.316c-.3.163-.635.269-1,.419" transform="translate(-64.744 -11.522)" fill="#efcfb3"/>
        <path id="Trazado_132176" data-name="Trazado 132176" d="M82.287,21.587c-.344-.14-.629-.238-.9-.367a1.02,1.02,0,0,1-.567-1.305,1.178,1.178,0,0,1,1.309-.724c.207.04.154.169.154.281,0,.684,0,1.368,0,2.115" transform="translate(-48.561 -11.528)" fill="#efcfb3"/>
        <path id="Trazado_132177" data-name="Trazado 132177" d="M94.056,38.413c.351,0,.7,0,1.052,0,.129,0,.254-.036.288.152.028.155.1.293-.09.411-.367.225-.724.465-1.076.713a.289.289,0,0,1-.385-.012c-.339-.237-.681-.472-1.034-.689-.173-.107-.165-.222-.127-.4.047-.21.17-.181.318-.177.35.008.7,0,1.052,0v0" transform="translate(-55.722 -23.096)" fill="#eeceb3"/>
        <path id="Trazado_132178" data-name="Trazado 132178" d="M89.813,43.089c-.384.193-.706.35-1.023.517-.138.073-.2.017-.254-.1a3.5,3.5,0,0,1-.165-.342c-.053-.167-.313-.364-.125-.49a.763.763,0,0,1,.764-.123,9.03,9.03,0,0,1,.8.539" transform="translate(-53.026 -25.55)" fill="#5c9ae8"/>
        <path id="Trazado_132179" data-name="Trazado 132179" d="M100.015,43.121c.481-.3.808-.752,1.414-.488.206.089.222.144.143.336-.326.788-.319.791-1.073.412-.138-.069-.273-.146-.484-.26" transform="translate(-60.143 -25.589)" fill="#5c9ae8"/>
        <path id="Trazado_132180" data-name="Trazado 132180" d="M53.8,73.483c0,2.057,0,4.114.005,6.171,0,.236-.075.29-.3.289q-3.542-.011-7.085,0c-.234,0-.291-.073-.29-.3q.01-5.074,0-10.147c0-.23.066-.294.295-.293q3.542.011,7.085,0c.229,0,.325.064.291.294a.456.456,0,0,0,0,.144,2.67,2.67,0,0,1-1.061,2.646c-1.142.991-2.166,2.118-3.228,3.2-.214.218-.34.291-.594.029-.7-.725-.7-.693-1.427-.015-.325.3-.317.478.006.764a17.065,17.065,0,0,1,1.354,1.353c.258.287.4.313.694.015,1.267-1.3,2.565-2.58,3.849-3.867.109-.11.2-.234.305-.351l.1.068" transform="translate(-27.743 -41.616)" fill="#fee9a6"/>
      </g>
    </g>
  </g>
</svg>
