<svg xmlns="http://www.w3.org/2000/svg" xmlns:xlink="http://www.w3.org/1999/xlink" width="84" height="102" viewBox="0 0 84 102">
  <defs>
    <clipPath id="clip-path">
      <rect id="Rect치ngulo_37876" data-name="Rect치ngulo 37876" width="55.143" height="61.68" fill="none"/>
    </clipPath>
  </defs>
  <g id="Grupo_158018" data-name="Grupo 158018" transform="translate(-813 -5280)">
    <rect id="Rect치ngulo_37872" data-name="Rect치ngulo 37872" width="84" height="102" rx="12" transform="translate(813 5280)" fill="#1169e3"/>
    <g id="Grupo_158014" data-name="Grupo 158014" transform="translate(632 693.184)">
      <g id="Grupo_158022" data-name="Grupo 158022" transform="translate(195.428 4607.123)">
        <g id="Grupo_158022-2" data-name="Grupo 158022" clip-path="url(#clip-path)">
          <path id="Trazado_131388" data-name="Trazado 131388" d="M50.26,51.963a.94.94,0,0,1,.877,1.085,8.73,8.73,0,0,1-.081,1.737,3.5,3.5,0,0,1-2.744,2.862c-4.39.99-8.791,1.929-13.19,2.885-1.563.34-3.13.664-4.692,1.011a5.388,5.388,0,0,1-.773.08A32.591,32.591,0,0,1,19.8,60.5c-4.19-.966-8.4-1.837-12.608-2.735A3.753,3.753,0,0,1,3.98,53.815c0-2.887-.009-5.774.008-8.661,0-.462-.024-.675-.612-.691a3.392,3.392,0,0,1-3.367-3.5c-.008-.742-.016-1.484,0-2.226A3.367,3.367,0,0,1,3.323,35.38c.566-.011.7-.184.668-.71a5.964,5.964,0,0,1,.059-1.557,3.634,3.634,0,0,1,4.367-2.936c1.388.279,2.77.584,4.243.9a11.257,11.257,0,0,1-.562-3.826.582.582,0,0,0-.453-.637A3.979,3.979,0,0,1,9.728,20.39a.868.868,0,0,0,.151-.815,36.841,36.841,0,0,1-1.214-8.844c0-.361.022-.721.039-1.082A.968.968,0,0,1,9.636,8.6c.644-.041.936.193.987.82.036.439.017.881.012,1.321a34.12,34.12,0,0,0,.936,7.429c.09.431.266.658.737.493a.988.988,0,0,1,.356-.045c2.068.072,3.23-1.151,4.041-2.85a8.221,8.221,0,0,0,.681-2.047,1.469,1.469,0,0,1,.586-1.01,1.141,1.141,0,0,1,1.38.245,13.292,13.292,0,0,0,7.771,3.153,16.2,16.2,0,0,0,6.933-.725,13.326,13.326,0,0,0,4.4-2.649A24.165,24.165,0,0,0,43.24,7.3a7.8,7.8,0,0,0,1.195-2.674c.138-.705-.085-.921-.794-.8a7.291,7.291,0,0,0-2.435,1.841,7.906,7.906,0,0,1-.919,1.024,1.043,1.043,0,0,1-1.392.265,1.089,1.089,0,0,1-.353-1.43,10.73,10.73,0,0,0,.693-2.287c.164-1.109-.3-1.511-1.362-1.148a4.57,4.57,0,0,0-.6.271,6.134,6.134,0,0,0-2.242,2.525c-.213.363-.377.752-.561,1.132-.44.574-.9.757-1.375.545a1.118,1.118,0,0,1-.587-1.37,17.227,17.227,0,0,0,.273-1.964,2.108,2.108,0,0,0-.233-1.1c-.449-.378-.759.009-1.038.239a11.454,11.454,0,0,0-1.772,1.953,25.559,25.559,0,0,1-2.53,3.046,6.589,6.589,0,0,1-1.584,1.177,2.112,2.112,0,0,1-.553.228,1.045,1.045,0,0,1-1.13-.5A1,1,0,0,1,24.1,7.052a2.158,2.158,0,0,1,.588-.409,7.26,7.26,0,0,0,2.243-2.131c.146-.189.176-.353-.08-.482A9.279,9.279,0,0,0,21.133,2.86a4.019,4.019,0,0,0-2.876,2.152c-.643,1-.933,1.1-2.031.69a6.027,6.027,0,0,0-2.536-.359,2.763,2.763,0,0,0-2,1.088,1.717,1.717,0,0,1-.552.543c-.329.15-.672.308-.966-.074-.554-.523-.6-.855-.194-1.456a4.82,4.82,0,0,1,5.279-1.994A2.058,2.058,0,0,0,17.588,2.7C19.17.87,21.346.558,23.638.9a13.3,13.3,0,0,1,4.5,1.587c.3.166.458.158.682-.134A6.307,6.307,0,0,1,31.772,0h1.083A1.94,1.94,0,0,1,34.5,1.3c.15.374.3.319.557.087A4.617,4.617,0,0,1,37.909,0h1.324A2.639,2.639,0,0,1,41.245,2.94c.339-.216.614-.394.893-.566a3.552,3.552,0,0,1,2.093-.63A2.462,2.462,0,0,1,46.4,4.909a12.263,12.263,0,0,1-2.313,4.634,20.322,20.322,0,0,1-1.829,2.229.849.849,0,0,0-.243.754c.244,1.97.412,3.946.49,5.929a.461.461,0,0,0,.379.5,4.019,4.019,0,0,1,.067,7.689c-.324.115-.355.28-.364.559a11.537,11.537,0,0,1-.617,3.988c1.288-.28,2.509-.554,3.733-.809a5.649,5.649,0,0,1,2.548-.207,3.688,3.688,0,0,1,2.883,3.477,4.5,4.5,0,0,0,.046,1.488c.224.518.88.166,1.337.3a3.4,3.4,0,0,1,2.554,2.941,15.809,15.809,0,0,1,0,3.062,3.351,3.351,0,0,1-3.389,3.029c-.454.012-.563.119-.552.564.032,1.3.013,2.606.011,3.909,0,.8-.147.993-.925,1.248-.655.022-.993-.288-1.03-1.016-.046-.881-.011-1.763-.016-2.646,0-.22-.016-.442,0-.661a2.233,2.233,0,0,0-.909-2.286,3.01,3.01,0,0,1-1.14-2.6c.006-.7,0-1.4,0-2.1a3.545,3.545,0,0,1,1.5-3,1.175,1.175,0,0,0,.552-1.115c-.02-.28,0-.562-.008-.842a1.759,1.759,0,0,0-2.285-1.764q-2.7.58-5.406,1.172-4.788,1.044-9.578,2.08c-.759.163-.787.185-.787.937q0,11.094,0,22.189c0,.806.015.818.82.648,5.157-1.089,10.3-2.238,15.457-3.339a1.9,1.9,0,0,0,1.785-2.221,4.954,4.954,0,0,1,.035-.9.858.858,0,0,1,1.058-.758" transform="translate(0 -0.001)"/>
          <path id="Trazado_131389" data-name="Trazado 131389" d="M84.989,87.812c-.7.136-.957.386-.918,1.088.135,2.45-.767,2.741-2.518,3.106-5.153,1.074-10.293,2.205-15.434,3.338-.442.1-.5-.014-.5-.408q.011-11.58,0-23.161c0-.362.092-.515.471-.6,5.244-1.124,10.482-2.276,15.726-3.4a1.862,1.862,0,0,1,2.241,1.706c.016.179-.007.362.01.541a1.932,1.932,0,0,1-.892,2.1A2.814,2.814,0,0,0,82.026,74.6c-.008.742,0,1.484,0,2.226a3.345,3.345,0,0,0,1.673,3,.668.668,0,0,1,.373.663c-.017,1.443.014,2.888-.016,4.331a1.066,1.066,0,0,0,.888,1.223q.024.884.047,1.768" transform="translate(-34.728 -35.85)" fill="#d94a54"/>
          <path id="Trazado_131390" data-name="Trazado 131390" d="M21.008,12.416a.909.909,0,0,0,1.21-.333A3.339,3.339,0,0,1,25.9,10.73a6.039,6.039,0,0,1,1.091.306c1.233.436,1.255.435,2-.611.237.268.056.531-.023.784a11.49,11.49,0,0,0-.428,5.887c.087.413.286.784.365,1.194a1.494,1.494,0,0,0-.515.911,8.841,8.841,0,0,1-1.156,3,3.929,3.929,0,0,1-3.591,2.1,1.164,1.164,0,0,0-.474.045c-.694.3-.819-.052-.946-.658a31.944,31.944,0,0,1-.891-8.5c.039-.66-.176-.892-.868-1.068q.273-.851.542-1.7" transform="translate(-10.832 -5.517)" fill="#ebc22e"/>
          <path id="Trazado_131391" data-name="Trazado 131391" d="M30.712,83.4c0,3.788-.01,7.577.011,11.366,0,.528-.074.674-.647.547-5.39-1.19-10.788-2.347-16.183-3.515a1.89,1.89,0,0,1-1.613-1.953c-.01-3.127,0-6.254-.009-9.381a.624.624,0,0,1,.341-.622,3.366,3.366,0,0,0,1.7-3.047c0-.7,0-1.4,0-2.1a3.319,3.319,0,0,0-1.631-2.963.745.745,0,0,1-.414-.769c.026-.459-.009-.923.011-1.383a1.87,1.87,0,0,1,2.269-1.8c5.221,1.123,10.437,2.269,15.659,3.387.44.094.512.294.511.691-.013,3.849-.008,7.7-.008,11.546" transform="translate(-6.493 -35.85)" fill="#c22430"/>
          <path id="Trazado_131392" data-name="Trazado 131392" d="M42.707,31.582a18.456,18.456,0,0,0,8.67,2.054,15.588,15.588,0,0,0,10.867-4.073c.116-.106.24-.2.41-.347a8.359,8.359,0,0,1,.225,1.867,94.435,94.435,0,0,1,.176,13.093,7.026,7.026,0,0,1-.723,2.583.8.8,0,0,1-.629.473q-4.577.974-9.15,1.968a16.572,16.572,0,0,1-2.155.081,23,23,0,0,1-7.218-.986c-.289-.145-.333-.439-.407-.7a13.775,13.775,0,0,1-.49-3.38c-.022-.861-.008-1.723,0-2.584a1.273,1.273,0,0,1,.14-.755.442.442,0,0,1,.264-.127A1.561,1.561,0,0,0,44.155,38.8a1.712,1.712,0,0,0-.834-1.505c-.292-.148-.653.056-.916-.205a.4.4,0,0,1-.074-.164,25.707,25.707,0,0,1,.079-4.962c.024-.165.041-.376.3-.38" transform="translate(-22.362 -15.462)" fill="#f0cfa4"/>
          <path id="Trazado_131393" data-name="Trazado 131393" d="M37.551,14.8c-.355-.176-.4-.543-.476-.857A11.488,11.488,0,0,1,37.554,7.4a.959.959,0,0,0,.083-.462,4.329,4.329,0,0,1,4.277-2.308A11.51,11.51,0,0,1,46.9,6.166,8.649,8.649,0,0,1,44.082,8.9c-.63.307-.849.792-.6,1.295.229.468.727.6,1.344.359.092-.036.186-.066.279-.1.5-.136,1.025-.11,1.532-.21a4.568,4.568,0,0,0,2.992-2.3c.72-1.135,1.146-2.415,1.8-3.584.138-.249.238-.592.654-.4A1.786,1.786,0,0,1,52.4,5.416a9.541,9.541,0,0,1-.236,1.712c-.129.558-.14,1.038.434,1.335.457.235.857.054,1.28-.541,1-.195,1.371-.956,1.692-1.8a4.55,4.55,0,0,1,1.085-1.827,2.089,2.089,0,0,1,1.211-.447c.81-.079,1.116.218,1.055,1.031a8.44,8.44,0,0,1-.716,2.645c-.275.653-.193,1.1.25,1.367s.858.142,1.34-.4c.277-.313.571-.611.857-.915.775-.637,1.566-1.252,2.384-1.832.825-.318,1.208-.042,1.072.811a6.756,6.756,0,0,1-1.024,2.479,22.925,22.925,0,0,1-7.324,7.5,14.1,14.1,0,0,1-8.786,1.809,14.087,14.087,0,0,1-7.15-2.358,7.668,7.668,0,0,1-1.023-.832,1.158,1.158,0,0,0-1.25-.346" transform="translate(-19.477 -2.03)" fill="#f3dc45"/>
          <path id="Trazado_131394" data-name="Trazado 131394" d="M35.894,33.4a2.506,2.506,0,0,0-.226,1.2c-.049,1.339-.02,2.68-.022,4.02a.367.367,0,0,0,.12.322c.037.113-.032.187-.092.267a2.339,2.339,0,0,0-.017,3.123.431.431,0,0,1,.135.321c-.044.064-.128.128-.127.191.015,1.374-.08,2.747.058,4.124a13.817,13.817,0,0,0,.643,3.14c-1.875-.4-3.751-.8-5.628-1.19a.69.69,0,0,1-.525-.428,6.9,6.9,0,0,1-.694-2.529c-.162-2.56-.158-5.123-.113-7.686,0-.226-.063-.466.3-.544a6.293,6.293,0,0,0,4.359-3.87c.2-.422.235-1.141.594-1.208s.8.439,1.2.694c.016.01.023.032.033.049" transform="translate(-15.549 -17.281)" fill="#f0b885"/>
          <path id="Trazado_131395" data-name="Trazado 131395" d="M58.337,87.807c0,3.79-.014,7.58.015,11.37,0,.578-.177.708-.705.674-.659-.043-1.323-.021-1.985-.006-.282.007-.415-.08-.384-.374a3.411,3.411,0,0,0,0-.361c0-7.58.009-15.16-.017-22.739,0-.635.182-.788.767-.736a11.4,11.4,0,0,0,1.743,0c.447-.03.579.1.574.561-.022,2.707-.011,5.414-.011,8.121v3.489" transform="translate(-29.249 -40.026)" fill="#dc626d"/>
          <path id="Trazado_131396" data-name="Trazado 131396" d="M106.735,78.98c.338-.01.677-.04,1.014-.025a1.6,1.6,0,0,1,1.621,1.643c.023.717.018,1.437,0,2.155a1.625,1.625,0,0,1-1.63,1.707,2.648,2.648,0,0,1-1.125-.058,1.769,1.769,0,0,1-.572-1.224,9.019,9.019,0,0,1,.107-3.4,1.079,1.079,0,0,1,.582-.794" transform="translate(-56.069 -41.786)" fill="#f0cfa4"/>
          <path id="Trazado_131397" data-name="Trazado 131397" d="M6.4,78.98c.32-.012.64-.041.958-.031a1.609,1.609,0,0,1,1.689,1.707c.011.722.016,1.444,0,2.165a1.541,1.541,0,0,1-1.408,1.584.427.427,0,0,1-.114.035c-1.438.083-1.772-.227-1.783-1.674-.006-.819-.018-1.638.008-2.457A1.413,1.413,0,0,1,6.4,78.98" transform="translate(-3.036 -41.784)" fill="#f0cfa4"/>
          <path id="Trazado_131398" data-name="Trazado 131398" d="M61.416,3.951c-.322-.046-.4.2-.5.418-.467.972-.922,1.95-1.4,2.914a7.547,7.547,0,0,1-1.371,1.947,4.3,4.3,0,0,1-3.7,1.214,14.132,14.132,0,0,0,3.732-3.831,12.662,12.662,0,0,1,2.085-2.38c.326-.257.673-.6,1.158-.282" transform="translate(-28.814 -2.023)" fill="#ebc22e"/>
          <path id="Trazado_131399" data-name="Trazado 131399" d="M5.393,79.017A2.8,2.8,0,0,0,4.9,80.939c.033.677,0,1.358.008,2.036.006,1.167.258,1.422,1.421,1.445.1,0,.2.015.3.023a3.126,3.126,0,0,1-1.364.027,1.584,1.584,0,0,1-1.421-1.6c-.025-.76-.027-1.522,0-2.282a1.547,1.547,0,0,1,1.548-1.573" transform="translate(-2.024 -41.821)" fill="#efb885"/>
          <path id="Trazado_131400" data-name="Trazado 131400" d="M105.858,79.013a3.035,3.035,0,0,0-.592,1.907,12.871,12.871,0,0,0,.093,2.451c.078.384.349.677.381,1.063a1.5,1.5,0,0,1-1.435-1.473c-.032-.818-.034-1.639,0-2.456a1.53,1.53,0,0,1,1.553-1.492" transform="translate(-55.192 -41.819)" fill="#f0b885"/>
          <path id="Trazado_131401" data-name="Trazado 131401" d="M90.592,48.278V44.344a1.875,1.875,0,0,1,1.294,1.642,2.146,2.146,0,0,1-1.294,2.292" transform="translate(-47.947 -23.47)" fill="#edb684"/>
          <path id="Trazado_131402" data-name="Trazado 131402" d="M24.057,44.285c0,1.3,0,2.6,0,3.89a1.935,1.935,0,0,1-1.3-1.791,2.08,2.08,0,0,1,1.3-2.1" transform="translate(-12.041 -23.439)" fill="#efb785"/>
          <path id="Trazado_131403" data-name="Trazado 131403" d="M75.859,4.81a26.043,26.043,0,0,0-1.368,2.849,1.267,1.267,0,0,1-1.409.778A7,7,0,0,1,75.859,4.81" transform="translate(-38.68 -2.546)" fill="#eac12e"/>
          <path id="Trazado_131404" data-name="Trazado 131404" d="M89.857,7.885a9.91,9.91,0,0,1-2.384,1.832,6.307,6.307,0,0,1,2.384-1.832" transform="translate(-46.296 -4.173)" fill="#e1bb2d"/>
          <path id="Trazado_131405" data-name="Trazado 131405" d="M86.507,80.946c-.013.51-.4.739-.915.85Q82.8,82.4,80.017,83q-1.82.393-3.641.778c-.176.038-.352.08-.53.106a.9.9,0,0,1-1.094-.687.875.875,0,0,1,.735-1.057c1.168-.279,2.343-.528,3.516-.783q3.051-.664,6.1-1.32c.868-.187,1.4.127,1.4.9" transform="translate(-39.551 -42.335)"/>
          <path id="Trazado_131406" data-name="Trazado 131406" d="M85.589,87.06a.838.838,0,0,1,.9.72.825.825,0,0,1-.673,1.038c-1.228.286-2.46.553-3.692.821q-2.933.638-5.869,1.269c-.117.025-.235.053-.354.068-.628.079-1.04-.167-1.154-.684a.913.913,0,0,1,.8-1.076c.955-.225,1.915-.423,2.874-.631q3.315-.72,6.631-1.438c.176-.038.355-.058.534-.087" transform="translate(-39.55 -46.078)"/>
          <path id="Trazado_131407" data-name="Trazado 131407" d="M53.758,62.906a4.147,4.147,0,0,1-3.615-2.178A.923.923,0,0,1,50.4,59.37c.475-.275.954-.109,1.308.451a2.322,2.322,0,0,0,4.146,0c.356-.562.837-.729,1.305-.454a.907.907,0,0,1,.257,1.357,4.152,4.152,0,0,1-3.656,2.179" transform="translate(-26.443 -31.354)"/>
          <path id="Trazado_131408" data-name="Trazado 131408" d="M42,49.667a2.4,2.4,0,0,1-.026-3.71,1.108,1.108,0,0,1,1.465.659,2.571,2.571,0,0,1,.047,2.3A1.157,1.157,0,0,1,42,49.667" transform="translate(-21.76 -24.29)"/>
          <path id="Trazado_131409" data-name="Trazado 131409" d="M69.5,47.751a2.166,2.166,0,0,1,.5-1.5.975.975,0,0,1,1.6.012,2.619,2.619,0,0,1,.008,3.022.988.988,0,0,1-1.638-.017,2.216,2.216,0,0,1-.463-1.515" transform="translate(-36.784 -24.261)"/>
        </g>
      </g>
      <g id="Grupo_158008" data-name="Grupo 158008" transform="translate(192 4608.816)">
        <path id="Trazado_131261" data-name="Trazado 131261" d="M15.945,119.667c-.545-.121-.671.135-.666.644.014,1.275-.008,1.3-1.328,1.29-.491,0-.644.149-.634.635.009.453.092.663.614.661,1.324,0,1.358.022,1.343,1.343-.006.6.287.609.73.613s.673-.069.673-.6c0-1.338.027-1.362,1.334-1.357.506,0,.625-.18.626-.65s-.118-.649-.624-.647c-1.332.008-1.364-.017-1.335-1.279.014-.586-.2-.757-.734-.654" transform="translate(-13.318 -99.758)" fill="#29c4bb"/>
        <path id="Trazado_131262" data-name="Trazado 131262" d="M213.972,155.115c.488.093.758-.068.677-.62-.067-.462.092-.719.6-.64s.683-.106.688-.644c0-.564-.226-.694-.707-.629-.459.062-.6-.138-.6-.595.014-.716-.429-.991-1.121-.774-.329.1-.257.365-.236.573.057.566-.072.912-.74.8-.517-.088-.549.236-.547.633s.017.718.541.636c.565-.087.833.119.739.716-.09.571.276.6.7.545" transform="translate(-154.597 -140.201)" fill="#29c4bb"/>
        <path id="Trazado_131263" data-name="Trazado 131263" d="M211.371,69.623c.126-.544-.123-.73-.633-.644-.552.093-.778-.133-.68-.682.094-.531-.135-.658-.65-.663-.531,0-.731.152-.638.669.1.55-.131.777-.677.675-.566-.106-.616.19-.637.666-.025.559.192.705.679.62.53-.092.727.127.637.644-.086.495.074.7.625.675.486-.017.767-.086.663-.643s.138-.767.681-.675c.51.086.759-.1.632-.641" transform="translate(-151.369 -29.462)" fill="#010000"/>
        <path id="Trazado_131264" data-name="Trazado 131264" d="M55.692,186.938c.119-.508-.131-.694-.639-.6-.6.108-.737-.2-.651-.7.095-.558-.176-.645-.666-.642-.469,0-.72.109-.622.614.129.663-.2.826-.774.728-.586-.1-.559.27-.561.671s.008.719.538.614c.712-.141.894.2.8.838-.092.61.373.434.683.453.329.02.7.062.6-.467-.118-.654.111-.958.8-.825.578.111.507-.292.49-.679" transform="translate(-40.668 -184.989)" fill="#010000"/>
        <path id="Trazado_131265" data-name="Trazado 131265" d="M121.791,17.778c-.136.579.184.692.658.622.493-.073.686.131.611.616s.069.705.627.694c.513-.01.747-.143.658-.67s.158-.716.664-.64c.469.07.7-.042.707-.615s-.218-.744-.73-.663c-.541.086-.724-.16-.64-.664.094-.566-.21-.631-.686-.641-.509-.01-.675.181-.6.648.082.512-.107.746-.642.656s-.744.127-.628.657" transform="translate(-90.431 39.277)" fill="#29c4bb"/>
      </g>
    </g>
  </g>
</svg>
