<svg xmlns="http://www.w3.org/2000/svg" xmlns:xlink="http://www.w3.org/1999/xlink" width="84" height="102" viewBox="0 0 84 102">
  <defs>
    <clipPath id="clip-path">
      <rect id="Rect치ngulo_37875" data-name="Rect치ngulo 37875" width="46.922" height="47.402" fill="none"/>
    </clipPath>
  </defs>
  <g id="Grupo_158017" data-name="Grupo 158017" transform="translate(-813 -5280)">
    <rect id="Rect치ngulo_37872" data-name="Rect치ngulo 37872" width="84" height="102" rx="12" transform="translate(813 5280)" fill="#1169e3"/>
    <g id="Grupo_158014" data-name="Grupo 158014" transform="translate(632 693.184)">
      <g id="Grupo_158021" data-name="Grupo 158021" transform="translate(199.539 4614.146)">
        <g id="Grupo_158021-2" data-name="Grupo 158021" transform="translate(0 0)" clip-path="url(#clip-path)">
          <path id="Trazado_131365" data-name="Trazado 131365" d="M13.472,47.4h-.647a4.759,4.759,0,0,1-1.364-.842.609.609,0,0,0-.828-.009,5.672,5.672,0,0,1-1.415.851H8.662a.933.933,0,0,1-.852-.835c-.055-.338-.265-.406-.559-.406-1.017,0-2.035.032-3.051-.008A4.175,4.175,0,0,1,.305,43.575,3.889,3.889,0,0,1,0,41.907Q.01,31.25.006,20.592C.006,15.106.015,9.62,0,4.133A4.169,4.169,0,0,1,1.586.791,3.452,3.452,0,0,1,3.9,0Q20.078,0,36.259,0a1.166,1.166,0,0,1,1.309,1.314c.016,1.048,0,2.1,0,3.144,0,.895,0,.9.874.9h6.38c.216,0,.432-.005.647.013a1.368,1.368,0,0,1,1.439,1.549q0,10.98,0,21.961c0,.771-.1.936-.671,1.153a.869.869,0,0,1-.985-.865,5.917,5.917,0,0,1-.022-.785q0-10.263,0-20.526c0-.821,0-.822-.8-.822q-3.074,0-6.148,0c-.674,0-.708.035-.71.7q-.005,1.572,0,3.144c0,.63.046.672.692.674,1.094,0,2.188,0,3.282,0,.74,0,1.14.277,1.153.78.014.534-.436.884-1.178.892-1.109.011-2.219,0-3.328,0-.586,0-.616.036-.621.636,0,.385.011.771,0,1.156s.157.515.526.511c1.079-.011,2.158-.005,3.236,0a2.92,2.92,0,0,1,.6.036.892.892,0,0,1,.766.9.823.823,0,0,1-.869.727c-1.14.027-2.281.007-3.421.01-.835,0-.835,0-.835.84,0,.354.009.709,0,1.063s.142.495.5.492c1.094-.007,2.188,0,3.282,0a4.238,4.238,0,0,1,.554.017.835.835,0,0,1,.8.8.849.849,0,0,1-.778.833,3.659,3.659,0,0,1-.554.022c-1.079,0-2.158-.005-3.236,0-.5,0-.552.057-.562.561q-.011.624,0,1.248c.011.518.064.574.6.578,1.033.009,2.065,0,3.1,0,.17,0,.339,0,.509,0a.853.853,0,0,1,.919.727.9.9,0,0,1-.787.885,3.546,3.546,0,0,1-.828.06c-.925,0-1.849,0-2.774,0-.725,0-.736.014-.738.759,0,.292,0,.585,0,.878,0,.629.03.659.645.661,1.048,0,2.1,0,3.144,0a2.648,2.648,0,0,1,.689.057.822.822,0,0,1,.657.836A.831.831,0,0,1,42,29.29a2.916,2.916,0,0,1-.6.034c-1.063,0-2.126,0-3.19,0-.6,0-.634.038-.64.62q-.005.578,0,1.156c.006.568.043.61.6.613,1.079.006,2.158,0,3.236,0a2.428,2.428,0,0,1,.644.047.77.77,0,0,1,.642.7.8.8,0,0,1-.5.811,1.574,1.574,0,0,1-.723.119c-1.079,0-2.158,0-3.236,0-.635,0-.656.024-.661.64,0,.308.005.616,0,.924a1.3,1.3,0,0,1-1.029,1.353,10.861,10.861,0,0,1-1.424.036c-.287,0-.4.121-.419.413-.063,1.066-.071,1.065,1.01,1.065.276,0,.552-.005.829,0,2.559-.026,5.117,0,7.675-.012.154,0,.308,0,.462,0,.506-.012.555-.053.558-.561.009-1.479-.008-2.959.008-4.439.008-.728.238-1.01.877-1.151.57.131.784.348.79.906.019,1.88.025,3.761,0,5.641A1.245,1.245,0,0,1,45.73,39.48a5.06,5.06,0,0,1-.646.022q-3.375,0-6.75,0c-.759,0-.76,0-.76.78,0,1.264-.046,2.53.011,3.791.076,1.685-.521,2.1-2.083,2.1-6.7-.021-13.408-.009-20.113-.009-.216,0-.432.006-.647,0a.437.437,0,0,0-.51.407.967.967,0,0,1-.76.833" transform="translate(0 0)"/>
          <path id="Trazado_131366" data-name="Trazado 131366" d="M21.744,110.2c.523-.365,1.051-.723,1.565-1.1a.348.348,0,0,1,.482-.005c.513.377,1.039.738,1.559,1.105Z" transform="translate(-12.527 -62.794)" fill="#fdfdfd"/>
          <path id="Trazado_131367" data-name="Trazado 131367" d="M95.587,39.317a7.558,7.558,0,0,0-.09,1.827c-.582.167-.715.336-.716.947,0,1.614-.012,3.228.008,4.842,0,.345-.081.429-.426.427-2.828-.021-5.656-.02-8.483-.025a2.268,2.268,0,0,1,0-1.736,1.253,1.253,0,0,0,.946-1.4c-.022-.384.019-.772-.011-1.155-.026-.338.066-.448.425-.441,1.232.025,2.465.009,3.7.009.108,0,.216.006.323,0a.718.718,0,0,0,.7-.712.689.689,0,0,0-.736-.668c-1.31-.01-2.62-.019-3.929,0-.376.006-.512-.082-.487-.476a13.7,13.7,0,0,0,0-1.663c-.023-.4.068-.552.515-.54,1.247.035,2.5.014,3.745.011.573,0,.9-.262.894-.7s-.339-.685-.917-.687c-1.264,0-2.528-.017-3.791.01-.382.008-.461-.117-.445-.465.027-.6.025-1.2,0-1.8-.013-.31.088-.39.39-.386,1.233.016,2.466.008,3.7.005a2.646,2.646,0,0,0,.506-.033.677.677,0,0,0-.057-1.337,6.19,6.19,0,0,0-.646-.015c-1.125,0-2.251-.025-3.375.011-.446.014-.542-.137-.518-.542a15.453,15.453,0,0,0,0-1.664c-.017-.348.062-.473.445-.465,1.294.027,2.589.014,3.883.008.5,0,.816-.274.825-.683s-.307-.688-.8-.7c-.108,0-.216,0-.323,0-1.171,0-2.343-.024-3.514.012-.446.014-.537-.136-.515-.539.032-.584.026-1.172,0-1.756-.013-.313.1-.385.392-.381,1.341.014,2.682.011,4.022,0a.687.687,0,0,0,.737-.666.719.719,0,0,0-.7-.713c-.122-.012-.246,0-.37,0-1.217,0-2.435-.015-3.652.009-.359.007-.441-.1-.426-.441.028-.615.024-1.233,0-1.849-.011-.3.1-.358.369-.355,1.233.013,2.466.006,3.7.006a3.313,3.313,0,0,0,.416-.009.719.719,0,0,0,.668-.7.691.691,0,0,0-.729-.674c-.6-.013-1.2,0-1.8,0-.724,0-1.449-.016-2.173.007-.328.011-.456-.053-.449-.422q.036-1.965,0-3.93c-.006-.361.111-.429.445-.426,2.342.014,4.685.018,7.027,0,.407,0,.507.094.507.5q-.022,10.148-.01,20.3c0,.462-.007.925,0,1.387.011.577.213.783.805.845" transform="translate(-49.377 -9.381)" fill="#dff5fc"/>
          <path id="Trazado_131368" data-name="Trazado 131368" d="M47.415,20.081q0,8.045.009,16.089c0,.443-.075.6-.569.6q-13.291-.027-26.583,0c-.407,0-.546-.083-.545-.524q.02-16.181,0-32.363c0-.447.147-.521.548-.521q13.291.015,26.583-.006c.5,0,.568.159.566.6q-.02,8.067-.009,16.135" transform="translate(-11.365 -1.929)" fill="#863f31"/>
          <path id="Trazado_131369" data-name="Trazado 131369" d="M8.551,3.391c.755-.006,1.509,0,2.263-.021.245-.006.337.086.312.323a2.629,2.629,0,0,0,0,.277V36.177c0,.589,0,.581-.6.591a24.816,24.816,0,0,0-3.18.085c-.22-.25-.145-.557-.146-.841Q7.2,27.507,7.2,19q0-6.379,0-12.757A3.684,3.684,0,0,1,7.945,3.87a1.32,1.32,0,0,1,.606-.479" transform="translate(-4.143 -1.941)" fill="#a14f41"/>
          <path id="Trazado_131370" data-name="Trazado 131370" d="M30.318,91.345a.692.692,0,0,0-.766-.581c-.691,0-1.383-.018-2.073.007-.3.011-.354-.09-.347-.362.019-.706.007-1.413.006-2.119,0-.839-.2-1.039-1.019-1.042q-1.75-.006-3.5-.016a1.644,1.644,0,0,1,1.534-1.7H45.6c.635,0,.558-.064.551.579a4.173,4.173,0,0,1-.042,1.1l-4.2.033c-.431,0-.863,0-1.294,0-.5.008-.8.272-.8.692s.3.691.8.692c1.71,0,3.419.013,5.129-.007.348,0,.458.082.432.432a8.07,8.07,0,0,0,0,1.292c.031.369-.113.421-.441.42-3.127-.012-6.253-.007-9.38-.007q-1.663,0-3.327,0a.714.714,0,0,0-.814.583,1.571,1.571,0,0,1-1.894,0" transform="translate(-13.031 -49.277)" fill="#fefefe"/>
          <path id="Trazado_131371" data-name="Trazado 131371" d="M6.477,3.413A4.123,4.123,0,0,0,5.26,6.658q.039,15.109.015,30.217a5.1,5.1,0,0,0-1.6.814.571.571,0,0,1-.074-.42q0-15.555,0-31.11A2.6,2.6,0,0,1,6.477,3.413" transform="translate(-2.069 -1.963)" fill="#863f31"/>
          <path id="Trazado_131372" data-name="Trazado 131372" d="M36.4,95.548a2.978,2.978,0,0,0,1.894,0c.032.615.229.8.86.8q6.677,0,13.353,0a.992.992,0,0,0,1.13-1.1c.022-.677.02-1.356,0-2.033-.009-.306.092-.388.392-.39,1.138-.008,1.138-.019,1.138,1.112,0,1.248-.01,2.5.007,3.743,0,.317-.082.418-.41.418q-10.581-.013-21.162,0c-.307,0-.414-.094-.382-.394.047-.438-.191-1.008.1-1.284.264-.251.822-.058,1.25-.071.339-.01.678,0,1.016,0,.587-.007.783-.2.814-.8" transform="translate(-19.109 -53.48)" fill="#b85d4f"/>
          <path id="Trazado_131373" data-name="Trazado 131373" d="M7.783,85.429a4.146,4.146,0,0,0,0,5.271,11.341,11.341,0,0,1-2.191-.082,2.61,2.61,0,0,1-1.983-2.924,2.637,2.637,0,0,1,2.534-2.262c.523-.015,1.047,0,1.643,0" transform="translate(-2.066 -49.214)" fill="#24cff8"/>
          <path id="Trazado_131374" data-name="Trazado 131374" d="M41.444,87.138c0-.431-.013-.862,0-1.292.008-.263-.094-.367-.351-.343-.122.011-.246,0-.369,0-6.97,0-13.941.018-20.912-.024a1.56,1.56,0,0,0-1.54.961c-.124.228-.213.475-.319.714-.261.006-.523.012-.784.017-.615.01-.86.253-.865.877-.006.693-.023,1.387.006,2.079.019.446-.13.4-.431.233a2.637,2.637,0,0,1,1.156-4.939c.738-.025,1.479-.008,2.218-.008q10.881,0,21.761-.011c.424,0,.541.117.49.511a6.731,6.731,0,0,1-.062,1.225" transform="translate(-8.365 -49.201)" fill="#f1fafe"/>
          <path id="Trazado_131375" data-name="Trazado 131375" d="M26.862,99.009c-.314-.208-.636-.4-.938-.629a.965.965,0,0,0-.892-.184.754.754,0,0,1-.155-.606c-.006-1.338-.009-2.676,0-4.013,0-.6.046-.635.667-.635.354,0,.709.02,1.06-.006.323-.024.419.087.416.411-.016,1.537-.007,3.075-.007,4.613,0,.277,0,.554,0,.83,0,.1.027.233-.149.218" transform="translate(-14.329 -53.54)" fill="#f72f41"/>
          <path id="Trazado_131376" data-name="Trazado 131376" d="M25.193,98.945c.151-.114.1-.28.1-.427,0-1.71-.007-3.419.009-5.129,0-.356-.084-.507-.462-.473a7.214,7.214,0,0,1-1.062,0c-.31-.018-.434.073-.431.409.017,1.6.011,3.2.013,4.806l-1.266.9c-.179-.12-.109-.273-.109-.4-.006-1.787,0-3.573-.011-5.36,0-.325.053-.463.422-.452.877.028,1.756.018,2.633,0,.291-.006.362.09.361.369-.011,1.848,0,3.7-.012,5.544,0,.082.13.375-.188.209" transform="translate(-12.66 -53.476)" fill="#df2334"/>
          <path id="Trazado_131377" data-name="Trazado 131377" d="M9.72,101.15c1.153,0,2.305,0,3.458-.019.248,0,.365.055.351.33-.024.444-.018.89-.025,1.335a17.929,17.929,0,0,1-2.7.027c-.58-.022-1.237-1.1-1.084-1.673" transform="translate(-5.587 -58.263)" fill="#b85c4f"/>
          <path id="Trazado_131378" data-name="Trazado 131378" d="M6.217,99.9a2.651,2.651,0,0,0,.8,1.46.7.7,0,0,0,.593.189c.8-.006,1.6,0,2.392,0-.077.146-.216.088-.328.088-1.153,0-2.305.013-3.457-.008a2.626,2.626,0,0,1-2.6-2.389c0-.072.008-.145.016-.278a4.357,4.357,0,0,0,2.583.941" transform="translate(-2.084 -57.009)" fill="#a14f41"/>
          <path id="Trazado_131379" data-name="Trazado 131379" d="M83.355,85.357q0,.868,0,1.736c-.567.006-1.133,0-1.7.021-.221.008-.3-.059-.285-.283.021-.474-.156-1.078.074-1.386.218-.293.859-.066,1.313-.09.2-.011.4,0,.6,0" transform="translate(-46.853 -49.139)" fill="#c8eefc"/>
          <path id="Trazado_131380" data-name="Trazado 131380" d="M52.14,15.354a.394.394,0,0,1,.192.335q-.02.617,0,1.234a.392.392,0,0,1-.192.335,2.445,2.445,0,0,0-.4,1.655q.014,8.986.006,17.972c0,1.054-.023,1.076-1.092,1.076q-8.685,0-17.37,0a1.418,1.418,0,0,1-.853-.125,1.029,1.029,0,0,1-.129-.667q0-12.937,0-25.875c0-.74.072-.8.832-.8q8.917,0,17.834,0a1.3,1.3,0,0,1,.59.068c.211.169.175.412.177.636.008.857.019,1.714,0,2.57a2.167,2.167,0,0,0,.412,1.591" transform="translate(-18.606 -6.041)" fill="#c76e5c"/>
          <path id="Trazado_131381" data-name="Trazado 131381" d="M47.179,13.526a.776.776,0,0,1-.537-.861c0-1.291-.009-2.583-.015-3.874a.938.938,0,0,0-.5-.045c-6.039,0-12.078-.015-18.117.013-.794,0-1.593.094-2.391.1-.273,0-.387.141-.385.4,0,.139,0,.277,0,.416q0,12.641,0,25.282c0,.877,0,.863.9.883a2.687,2.687,0,0,1,1.359.129c.955.005,1.91.014,2.865.014q7.835,0,15.669,0c.622,0,.622,0,.622-.645q0-9.476,0-18.952c0-.43.059-.8.537-.956.669.025.848.2.848.86q0,9.963,0,19.928c0,.806-.347,1.151-1.153,1.151q-11.027,0-22.054,0a.985.985,0,0,1-1.134-1.127q0-13.894,0-27.788c0-.8.355-1.141,1.167-1.141H46.86c.81,0,1.165.348,1.167,1.145q0,2.1,0,4.207c0,.659-.18.836-.848.86" transform="translate(-13.645 -4.213)"/>
          <path id="Trazado_131382" data-name="Trazado 131382" d="M29.351,37.823c-.693.005-1.386,0-2.08.02-.254.007-.379-.063-.343-.334a1.743,1.743,0,0,0,0-.231q0-13.082-.013-26.164c0-.483.137-.571.588-.57q10.237.02,20.476.011c.168,0,.367-.093.508.089q-9.315,0-18.631-.009c-.4,0-.521.1-.52.512q.019,13.338.011,26.675" transform="translate(-15.507 -6.068)" fill="#b85d4f"/>
          <path id="Trazado_131383" data-name="Trazado 131383" d="M44.453,26.559q-2.311,0-4.622,0c-.824,0-1.2-.356-1.211-1.167q-.018-2.01,0-4.021c.007-.827.371-1.182,1.192-1.182q4.645,0,9.29,0c.806,0,1.172.333,1.183,1.14q.03,2.056,0,4.113c-.013.771-.393,1.114-1.164,1.117-1.556,0-3.112,0-4.668,0" transform="translate(-22.245 -11.63)"/>
          <path id="Trazado_131384" data-name="Trazado 131384" d="M44.533,52.031q2.471,0,4.943,0c.523,0,.808.242.817.67s-.287.707-.783.713c-.724.009-1.448,0-2.171,0q-3.881,0-7.762,0a.89.89,0,0,1-.756-.259.661.661,0,0,1-.091-.737.646.646,0,0,1,.628-.391q1.248,0,2.495,0h2.68" transform="translate(-22.272 -29.975)"/>
          <path id="Trazado_131385" data-name="Trazado 131385" d="M44.5,59.16q2.494,0,4.988,0a.736.736,0,0,1,.77.39.669.669,0,0,1-.49.958,2.745,2.745,0,0,1-.551.039q-4.71,0-9.421,0a2.661,2.661,0,0,1-.6-.049.615.615,0,0,1-.5-.719.6.6,0,0,1,.585-.6c.321-.026.646-.015.969-.015q2.125,0,4.249,0" transform="translate(-22.292 -34.082)" fill="#010000"/>
          <path id="Trazado_131386" data-name="Trazado 131386" d="M50.746,26.968c-.1.151-.253.078-.379.078-2.678,0-5.357-.005-8.035.008-.339,0-.454-.076-.444-.43.024-.938.017-1.878,0-2.816,0-.281.081-.365.365-.364,2.724.009,5.449,0,8.173,0,.153,0,.368-.072.362.21-.025,1.1.061,2.211-.046,3.314a.9.9,0,0,1-.153-.657c0-.708-.012-1.416,0-2.124.008-.381-.148-.512-.52-.51q-2.54.015-5.079,0c-.35,0-.5.125-.495.485.013.708,0,1.416.006,2.124.006.467.057.517.55.519,1.662.008,3.325,0,4.987,0a.96.96,0,0,1,.7.153" transform="translate(-24.132 -13.504)" fill="#e6b629"/>
          <path id="Trazado_131387" data-name="Trazado 131387" d="M54.088,27.092c-1.971,0-3.942-.016-5.913,0-.392,0-.5-.12-.486-.5.026-.846.019-1.694,0-2.541-.006-.3.094-.4.4-.4,1.863.011,3.727.014,5.59,0,.349,0,.4.142.4.439-.009,1,0,2,.009,3l0,0" transform="translate(-27.474 -13.628)" fill="#f8c42d"/>
        </g>
      </g>
      <g id="Grupo_158008" data-name="Grupo 158008" transform="translate(192 4608.816)">
        <path id="Trazado_131261" data-name="Trazado 131261" d="M15.945,119.667c-.545-.121-.671.135-.666.644.014,1.275-.008,1.3-1.328,1.29-.491,0-.644.149-.634.635.009.453.092.663.614.661,1.324,0,1.358.022,1.343,1.343-.006.6.287.609.73.613s.673-.069.673-.6c0-1.338.027-1.362,1.334-1.357.506,0,.625-.18.626-.65s-.118-.649-.624-.647c-1.332.008-1.364-.017-1.335-1.279.014-.586-.2-.757-.734-.654" transform="translate(-13.318 -99.758)" fill="#29c4bb"/>
        <path id="Trazado_131262" data-name="Trazado 131262" d="M213.972,155.115c.488.093.758-.068.677-.62-.067-.462.092-.719.6-.64s.683-.106.688-.644c0-.564-.226-.694-.707-.629-.459.062-.6-.138-.6-.595.014-.716-.429-.991-1.121-.774-.329.1-.257.365-.236.573.057.566-.072.912-.74.8-.517-.088-.549.236-.547.633s.017.718.541.636c.565-.087.833.119.739.716-.09.571.276.6.7.545" transform="translate(-154.597 -140.201)" fill="#29c4bb"/>
        <path id="Trazado_131263" data-name="Trazado 131263" d="M211.371,69.623c.126-.544-.123-.73-.633-.644-.552.093-.778-.133-.68-.682.094-.531-.135-.658-.65-.663-.531,0-.731.152-.638.669.1.55-.131.777-.677.675-.566-.106-.616.19-.637.666-.025.559.192.705.679.62.53-.092.727.127.637.644-.086.495.074.7.625.675.486-.017.767-.086.663-.643s.138-.767.681-.675c.51.086.759-.1.632-.641" transform="translate(-151.369 -29.462)" fill="#010000"/>
        <path id="Trazado_131264" data-name="Trazado 131264" d="M55.692,186.938c.119-.508-.131-.694-.639-.6-.6.108-.737-.2-.651-.7.095-.558-.176-.645-.666-.642-.469,0-.72.109-.622.614.129.663-.2.826-.774.728-.586-.1-.559.27-.561.671s.008.719.538.614c.712-.141.894.2.8.838-.092.61.373.434.683.453.329.02.7.062.6-.467-.118-.654.111-.958.8-.825.578.111.507-.292.49-.679" transform="translate(-40.668 -184.989)" fill="#010000"/>
        <path id="Trazado_131265" data-name="Trazado 131265" d="M121.791,17.778c-.136.579.184.692.658.622.493-.073.686.131.611.616s.069.705.627.694c.513-.01.747-.143.658-.67s.158-.716.664-.64c.469.07.7-.042.707-.615s-.218-.744-.73-.663c-.541.086-.724-.16-.64-.664.094-.566-.21-.631-.686-.641-.509-.01-.675.181-.6.648.082.512-.107.746-.642.656s-.744.127-.628.657" transform="translate(-90.431 39.277)" fill="#29c4bb"/>
      </g>
    </g>
  </g>
</svg>
