<svg id="Grupo_156636" data-name="Grupo 156636" xmlns="http://www.w3.org/2000/svg" width="87.191" height="87.191" viewBox="0 0 87.191 87.191">
  <path id="Trazado_127482" data-name="Trazado 127482" d="M43.6,0A43.6,43.6,0,1,1,0,43.6,43.6,43.6,0,0,1,43.6,0Z" fill="#b0c8cb"/>
  <g id="Grupo_156595" data-name="Grupo 156595" transform="translate(13.211 14.972)">
    <path id="Trazado_127053" data-name="Trazado 127053" d="M15.294,123.444c.4.089.493-.1.489-.473-.01-.936.006-.952.974-.947.36,0,.472-.11.465-.466-.007-.332-.067-.487-.451-.485-.972,0-1-.016-.986-.986,0-.439-.211-.447-.536-.45s-.494.051-.494.441c0,.982-.02,1-.979,1-.371,0-.459.132-.46.477s.087.477.458.475c.978-.006,1,.013.98.939-.01.43.149.556.539.48" transform="translate(42.499 -85.289)" fill="#29c4bb"/>
    <path id="Trazado_127054" data-name="Trazado 127054" d="M213.439,151.159c-.358-.068-.556.05-.5.455.049.339-.068.528-.443.47s-.5.078-.5.473c0,.414.166.509.519.462.337-.046.444.1.437.437-.011.525.315.727.823.568.241-.075.189-.268.173-.42-.042-.415.053-.67.543-.586.379.064.4-.173.4-.465s-.012-.527-.4-.467c-.415.064-.611-.088-.542-.526.066-.419-.2-.437-.512-.4" transform="translate(-211.994 -106.771)" fill="#29c4bb"/>
    <path id="Trazado_127055" data-name="Trazado 127055" d="M207.477,69.073c-.092.4.09.536.465.473.405-.068.571.1.5.5s.1.483.477.487.536-.112.469-.491c-.072-.4.1-.57.5-.5s.452-.139.468-.489c.018-.41-.141-.518-.5-.455-.389.068-.533-.093-.468-.473.063-.363-.054-.51-.459-.5-.357.013-.563.063-.486.472s-.1.563-.5.5c-.375-.063-.557.071-.464.47" transform="translate(-204.556 -62.099)" fill="#010000"/>
    <path id="Trazado_127056" data-name="Trazado 127056" d="M51.8,186.444c-.087.373.1.509.469.442.437-.079.541.148.478.517-.07.41.129.473.489.471.344,0,.529-.08.456-.45-.095-.487.149-.606.568-.535s.41-.2.412-.493-.006-.528-.395-.451c-.523.1-.656-.148-.586-.615.068-.448-.274-.319-.5-.332s-.51-.046-.44.343c.087.48-.081.7-.59.605-.424-.081-.372.214-.36.5" transform="translate(-5.952 -129.55)" fill="#010000"/>
    <path id="Trazado_127057" data-name="Trazado 127057" d="M124.64,17.234c.1-.425-.135-.508-.483-.456s-.5-.1-.449-.452-.051-.518-.46-.509c-.376.008-.548.105-.483.491s-.116.525-.487.469c-.344-.052-.517.031-.519.451s.16.546.536.487c.4-.063.531.117.47.487-.069.415.154.463.5.47.374.008.5-.133.44-.475-.06-.376.079-.547.471-.482s.546-.094.461-.482" transform="translate(-95.96 -15.817)" fill="#29c4bb"/>
  </g>
  <g id="Grupo_158029" data-name="Grupo 158029" transform="translate(20.265 23.654)">
    <g id="Grupo_158030" data-name="Grupo 158030">
      <path id="Trazado_131410" data-name="Trazado 131410" d="M0,35.268v-19.2A.7.7,0,0,1,.761,15.5a.867.867,0,0,1,.745.894c.017.212.01.424.01.636q0,8.6,0,17.191a2.566,2.566,0,0,0,.2,1.2,1.846,1.846,0,0,0,1.542,1.052,5.409,5.409,0,0,0,.591.01H25.177c.136,0,.273-.008.409,0a.462.462,0,0,0,.547-.414,2.96,2.96,0,0,1,3.146-2.327c2.743.048,5.488-.008,8.231.024.786,0,1.574-.009,2.36.006.371.007.519-.133.505-.506-.022-.586.007-1.173-.016-1.83-.564.334-1.02.7-1.508,1.023a.848.848,0,0,1-1.356-.334,6.6,6.6,0,0,1-.047-1.269c-.009-.7-.015-.718-.7-.719-2.409,0-4.82-.059-7.227.017a3.081,3.081,0,0,1-3.46-3.458c.061-1.224.05-2.455,0-3.681-.076-1.986,1.041-3.343,3.328-3.363,1.318-.012,2.636-.006,3.955,0,1.394,0,2.788-.018,4.181.011.787,0,1.575-.006,2.363,0,.342,0,.5-.118.49-.477-.017-.586,0-1.174-.009-1.834-.405.238-.725.483-1.056.71-.175.12-.341.253-.526.358a.81.81,0,0,1-1.288-.334,7.555,7.555,0,0,1-.053-1.406c-.016-.6-.051-.645-.655-.647-2.533-.005-5.067-.057-7.6.017a2.968,2.968,0,0,1-3.132-3.124c.034-1.152.008-2.3.006-3.458,0-.7-.013-.718-.706-.718q-5.164,0-10.329,0H2.471c-.151,0-.3.01-.455,0-.373-.025-.507.148-.5.513.008,1,.018,2,0,3a.879.879,0,0,1-.741.992A.7.7,0,0,1,0,12.7V2.775A3.091,3.091,0,0,1,1.526.43,3.233,3.233,0,0,1,3.311,0H38.4a3.363,3.363,0,0,1,3.618,3.632c0,.5.012,1,0,1.5-.011.376.152.513.516.5.485-.014.971-.011,1.456,0a2.666,2.666,0,0,1,2.663,2.7c.005,1.668-.038,3.338.012,5.005a2.713,2.713,0,0,1-2.688,2.687c-.469-.015-.941-.014-1.41,0-.443.017-.531.1-.54.548-.017.879,0,1.759-.007,2.639,0,.309.13.434.436.433a11.366,11.366,0,0,1,1.861.088,2.582,2.582,0,0,1,2.336,2.72q0,2.412,0,4.823a2.705,2.705,0,0,1-2.768,2.846c-.455.016-.91,0-1.365.009a.439.439,0,0,0-.5.5c0,.9,0,1.79,0,2.685,0,.309.142.435.443.434.485,0,.972-.019,1.456.007a2.8,2.8,0,0,1,2.526,1.585,2.277,2.277,0,0,1,.205,1.06c.006,1.7.012,3.4,0,5.1A2.575,2.575,0,0,1,44,44.148c-.5.006-1,.013-1.5,0-.553-.019-.727-.182-.843-.752a.785.785,0,0,1,.726-.835,7.153,7.153,0,0,1,1.4-.057,1.183,1.183,0,0,0,1.306-1.29q.019-2.2,0-4.408c-.009-.952-.446-1.375-1.408-1.389-.636-.009-1.272,0-1.908-.005-4.079.009-8.158,0-12.237,0-.212,0-.425-.008-.637.012a1.172,1.172,0,0,0-1.156,1.132c-.052,1.606-.058,3.214,0,4.82a1.127,1.127,0,0,0,1.234,1.12c.364.006.73.026,1.091,0a2.705,2.705,0,0,1,1.939.629c.443.344.907.661,1.371.975.227.154.331.092.33-.174-.006-1.3.611-1.437,1.608-1.426.849.009,1.7-.029,2.547.017.72.039.98.3,1.025.95-.161.538-.314.668-.861.681-.71.017-1.421,0-2.132.009-.469.008-.518.062-.531.526-.01.378-.007.756,0,1.134a.73.73,0,0,1-.6.833h-.455a2.936,2.936,0,0,1-.871-.476c-.792-.586-1.618-1.127-2.409-1.715a1.505,1.505,0,0,0-.975-.308c-.379.011-.759-.017-1.137.006a2.794,2.794,0,0,1-2.849-2.805c-.009-.834,0-1.668,0-2.5,0-.694-.009-.7-.717-.7q-10.874,0-21.748,0a3.881,3.881,0,0,1-2.087-.532A3,3,0,0,1,0,35.268" transform="translate(0 0)" fill="#060606"/>
      <path id="Trazado_131411" data-name="Trazado 131411" d="M.637,45.983A.9.9,0,0,0,0,46.447V43.079a.959.959,0,0,0,.637.459.535.535,0,0,1,.141.369q.029.853,0,1.707a.516.516,0,0,1-.141.368" transform="translate(0 -30.383)" fill="#fdfdfd"/>
      <path id="Trazado_131412" data-name="Trazado 131412" d="M2.161,36.178V33.734c.616-.143.727-.276.728-.893,0-1.062.018-2.123-.009-3.184-.009-.369.072-.478.462-.477,3.685.017,7.37.01,11.055.01,4.276,0,8.553.009,12.83-.012.457,0,.538.131.528.551-.029,1.319-.015,2.638-.009,3.958a2.658,2.658,0,0,0,2.765,2.786c2.684.012,5.369.016,8.053-.009.459,0,.555.133.535.557a8.537,8.537,0,0,0,.032,1.68,2.2,2.2,0,0,1-.012,1.684c-.166.01-.331.027-.5.028q-3.956,0-7.911,0a2.709,2.709,0,0,0-2.966,2.959c0,1.455,0,2.91,0,4.364a2.692,2.692,0,0,0,2.831,2.822c2.7.006,5.4.008,8.093-.007.341,0,.44.08.427.425-.023.589.012,1.18.023,1.771a2.259,2.259,0,0,1,0,1.72q-4.163.008-8.325.016A2.7,2.7,0,0,0,27.756,57c-.027.144-.053.222-.212.207-.09-.009-.182,0-.273,0H5.2A2.022,2.022,0,0,1,2.89,54.9q0-8.895,0-17.789c0-.66-.118-.808-.728-.935" transform="translate(-1.524 -20.579)" fill="#f6f9f9"/>
      <path id="Unión_20" data-name="Unión 20" d="M8983.477,4717.571c.031-1.123,0-2.244.013-3.367a1.958,1.958,0,0,1,2.012-2.016q16.585-.007,33.171,0c.045,0,.09.009.136.013.636,0,1.272-.025,1.908-.009a1.951,1.951,0,0,1,1.909,1.932c.016.7-.014,1.4.012,2.094.011.306-.118.337-.372.335q-1.884-.007-3.77,0h-2.512q-2.591,0-5.187-.011a2.679,2.679,0,0,0-2.04,1.284c-.134.224-.308.2-.5.2h-8.417q-7.941,0-15.88.009C8983.592,4718.031,8983.465,4717.965,8983.477,4717.571Z" transform="translate(-8982.121 -4710.776)" fill="#fee734" stroke="rgba(0,0,0,0)" stroke-miterlimit="10" stroke-width="1"/>
      <path id="Unión_21" data-name="Unión 21" d="M8988,4720.266a2.7,2.7,0,0,0-2.131-.68,6.779,6.779,0,0,1-1.091,0,1.273,1.273,0,0,1-1.281-1.274q-.034-2.413,0-4.823a1.3,1.3,0,0,1,1.443-1.3q4.213-.007,8.422,0c1.441,0,2.88.009,4.321.014.712,0,1.424-.025,2.133-.007a1.3,1.3,0,0,1,1.323,1.371c.007,1.559.01,3.118,0,4.676a1.29,1.29,0,0,1-1.342,1.346c-.229.007-.456,0-.685,0-.212,0-.422,0-.633,0-.562.014-.709.145-.828.7l-1.051-.021a5.564,5.564,0,0,1-.8.011,4.065,4.065,0,0,0-1.1.066c-.065-.579-.228-.746-.811-.75q-1.613-.017-3.23,0c-.623,0-.838.232-.852.865-.007.327,0,.655,0,1.091C8989.14,4721.088,8988.534,4720.717,8988,4720.266Zm10.079-3.86a.383.383,0,0,1,.048.031.15.15,0,0,1,.033-.14.612.612,0,0,0-.072-.942.167.167,0,0,1-.05-.082h0a2.194,2.194,0,0,1-.766.063q-4.91,0-9.822,0a2.956,2.956,0,0,0-.68.039.477.477,0,0,0-.414.424.491.491,0,0,0,.287.477,1.109,1.109,0,0,0,.619.12q1.827,0,3.657,0c2.3,0,4.595.009,6.893-.016h.067A.671.671,0,0,1,8998.074,4716.405Z" transform="translate(-8955.896 -4676.916)" fill="#29c4bb" stroke="rgba(0,0,0,0)" stroke-miterlimit="10" stroke-width="1"/>
      <path id="Unión_24" data-name="Unión 24" d="M8994.842,4720.261a.815.815,0,0,0-.937-.653c-2.928.014-5.855.007-8.783.007-1.157,0-1.643-.477-1.643-1.618,0-1.457-.007-2.912,0-4.369a1.265,1.265,0,0,1,1.233-1.392,1.022,1.022,0,0,1,.493-.043q7.122,0,14.24,0c1.227,0,1.686.454,1.686,1.661q0,2.138,0,4.276a1.339,1.339,0,0,1-1.457,1.477c-.667,0-1.335,0-2,0-.4.149-.682.488-1.068.662l-1.764,1.3Zm3.1-3.813a.638.638,0,0,1,.236.031l.027.016v0a1.491,1.491,0,0,0-.119-1.141s-.007,0-.01,0a2.432,2.432,0,0,1-.723.047q-4.954,0-9.91,0a2.993,2.993,0,0,0-.68.039.477.477,0,0,0-.423.463.5.5,0,0,0,.353.479,1.513,1.513,0,0,0,.626.082c1.265,0,2.53,0,3.795,0,2.266,0,4.531.009,6.795-.018Z" transform="translate(-8955.891 -4690.999)" fill="#1169e3" stroke="rgba(0,0,0,0)" stroke-miterlimit="10" stroke-width="1"/>
      <path id="Unión_23" data-name="Unión 23" d="M8994.843,4720.293h0c-.192-.6-.342-.711-.983-.711q-4.392,0-8.78,0c-1.127,0-1.6-.477-1.606-1.6,0-1.425,0-2.851,0-4.276a1.336,1.336,0,0,1,1.5-1.52q6.236,0,12.468,0c.106,0,.212.011.318.018.709,0,1.421-.027,2.13-.009a1.256,1.256,0,0,1,1.231,1.261q.028,2.426,0,4.854a1.253,1.253,0,0,1-1.231,1.26c-.709.021-1.421,0-2.13-.009-.479.138-.8.542-1.238.743-.542.4-1.082.8-1.676,1.233A6.4,6.4,0,0,1,8994.843,4720.293Zm3.079-3.946a.509.509,0,0,1,.064.018c.123-.215.347-.381.3-.694-.029-.2-.211-.306-.245-.484l-.017.008a2.286,2.286,0,0,1-.764.061q-4.91,0-9.817,0a3.48,3.48,0,0,0-.635.029.494.494,0,0,0-.057.967,2.362,2.362,0,0,0,.766.063q4.84,0,9.683,0l.307,0A2.361,2.361,0,0,1,8997.922,4716.347Z" transform="translate(-8955.89 -4705.049)" fill="#0c487b" stroke="rgba(0,0,0,0)" stroke-miterlimit="10" stroke-width="1"/>
      <path id="Trazado_131421" data-name="Trazado 131421" d="M127.564,108.389q0-.86,0-1.72c.426.487.7.519,1.241.139s1.075-.757,1.67-1.178c0,.9-.005,1.73,0,2.556,0,.188-.074.224-.241.222-.892-.011-1.784-.014-2.676-.019" transform="translate(-89.97 -74.5)" fill="#f1f4f4"/>
      <path id="Trazado_131422" data-name="Trazado 131422" d="M127.567,60.627q.006-.842.012-1.684c.449.469.681.494,1.212.123s1.082-.761,1.688-1.188c0,.9,0,1.723,0,2.549,0,.181-.061.233-.236.23-.893-.016-1.786-.022-2.679-.031" transform="translate(-89.972 -40.822)" fill="#f1f4f4"/>
      <path id="Trazado_131425" data-name="Trazado 131425" d="M23.914,39.991h9.279c.788,0,.981.2.981,1q0,6.186,0,12.371c0,.8-.193,1-.978,1h-18.6c-.786,0-.985-.2-.985-1q0-6.163,0-12.326c0-.862.181-1.047,1.027-1.047h9.28" transform="translate(-9.597 -28.205)" fill="#060606"/>
      <path id="Trazado_131426" data-name="Trazado 131426" d="M23.71,100.645q-4.593,0-9.186,0c-.618,0-.936-.34-.812-.849a.614.614,0,0,1,.565-.507,3.11,3.11,0,0,1,.363-.007H32.83a1.98,1.98,0,0,1,.408.014.684.684,0,0,1-.025,1.342,2.417,2.417,0,0,1-.408.009h-9.1" transform="translate(-9.652 -70.019)" fill="#060606"/>
      <path id="Trazado_131427" data-name="Trazado 131427" d="M20.85,110.813q-3.186,0-6.372,0c-.575,0-.888-.361-.764-.854a.6.6,0,0,1,.568-.5c.09-.008.182-.007.273-.007q6.326,0,12.652,0c.4,0,.735.067.834.518.112.507-.2.848-.774.849q-3.208.006-6.417,0" transform="translate(-9.654 -77.191)" fill="#060606"/>
      <path id="Trazado_131428" data-name="Trazado 131428" d="M16.56,13.068a.662.662,0,1,1-1.323.023.662.662,0,0,1,1.323-.023" transform="translate(-10.747 -8.758)" fill="#090907"/>
      <path id="Trazado_131429" data-name="Trazado 131429" d="M26.5,13.772a.64.64,0,0,1-.653-.666.625.625,0,0,1,.624-.686.633.633,0,0,1,.68.68.646.646,0,0,1-.651.672" transform="translate(-18.227 -8.76)" fill="#070706"/>
      <path id="Trazado_131430" data-name="Trazado 131430" d="M37.073,13.774a.636.636,0,0,1-.668-.65.65.65,0,1,1,1.3-.039.64.64,0,0,1-.629.689" transform="translate(-25.676 -8.761)" fill="#080806"/>
      <path id="Trazado_131431" data-name="Trazado 131431" d="M114.543,129.846c.559.418.586.768.1,1.27a2.768,2.768,0,0,1-.85.08H103.74c-.121,0-.243.006-.364,0a.71.71,0,0,1-.718-.722.675.675,0,0,1,.742-.637q5.571,0,11.143.013" transform="translate(-72.403 -91.57)" fill="#060606"/>
      <path id="Trazado_131432" data-name="Trazado 131432" d="M114.553,82.291c.5.374.544.7.181,1.235a1.732,1.732,0,0,1-.707.122q-5.206-.007-10.413,0a1.142,1.142,0,0,1-.535-.07.676.676,0,0,1,.153-1.283.863.863,0,0,1,.181-.011l11.14.011" transform="translate(-72.418 -58.032)" fill="#060606"/>
      <path id="Trazado_131433" data-name="Trazado 131433" d="M114.627,34.112c.589.458.553.987-.093,1.355l-10.74,0a2.708,2.708,0,0,1-.454-.013.622.622,0,0,1-.567-.7.6.6,0,0,1,.614-.65c.03,0,.061,0,.091,0l11.149.011" transform="translate(-72.484 -24.051)" fill="#060606"/>
      <path id="Trazado_131434" data-name="Trazado 131434" d="M18.2,50.423c0-1.8.007-3.609-.006-5.413,0-.311.075-.414.4-.413q4.322.019,8.643,0c.35,0,.427.106.425.438-.014,2.441-.008,4.882-.007,7.323,0,.689.208.9.888.9,2.351,0,4.7.009,7.051-.008.367,0,.463.106.451.459-.026.742-.014,1.486,0,2.229,0,.231-.067.318-.309.318q-4.276-.01-8.553,0c-.26,0-.34-.085-.336-.34a3.968,3.968,0,0,0-.883-2.659.265.265,0,0,1-.011-.358,5.554,5.554,0,0,0,.292-4.367,3.266,3.266,0,0,0-4.118-1.969,3.181,3.181,0,0,0-2.473,3.188,7.34,7.34,0,0,0,.12,2.26c.119.384.464.763.426,1.114-.037.335-.427.637-.577,1a3.61,3.61,0,0,0-.334,1.588c.029.44-.122.563-.559.549-.393-.013-.57-.078-.536-.52.042-.558.01-1.121.01-1.682V50.423" transform="translate(-12.828 -31.453)" fill="#68637f"/>
      <path id="Trazado_131435" data-name="Trazado 131435" d="M54.931,48.245c0-1.091.011-2.182-.007-3.273-.005-.3.078-.375.374-.373q3.137.019,6.274,0c.273,0,.39.037.387.358q-.024,3.3,0,6.591c0,.28-.068.353-.35.351q-3.159-.019-6.319,0c-.315,0-.367-.1-.363-.385.014-1.091.006-2.182.006-3.273" transform="translate(-38.737 -31.456)" fill="#fef1b9"/>
      <path id="Trazado_131436" data-name="Trazado 131436" d="M29.72,64.657h1.77c.132,0,.247-.027.278.187a2.138,2.138,0,0,1-1.671,2.4,2.045,2.045,0,0,1-2.387-1.519c-.011-.044-.025-.087-.032-.132-.151-.883-.108-.936.772-.936H29.72" transform="translate(-19.473 -45.602)" fill="#fee9d6"/>
      <path id="Trazado_131437" data-name="Trazado 131437" d="M28.856,78.954c-.7,0-1.392,0-2.088,0-.187,0-.315-.009-.311-.256a3.082,3.082,0,0,1,.439-1.686c.132-.2.243-.285.505-.155a3.25,3.25,0,0,0,3.01-.011.286.286,0,0,1,.44.118,3.02,3.02,0,0,1,.475,1.764c0,.232-.129.225-.291.225-.726,0-1.452,0-2.178,0" transform="translate(-18.66 -54.16)" fill="#9df9fe"/>
      <path id="Trazado_131438" data-name="Trazado 131438" d="M28.248,56.732A1.959,1.959,0,0,1,30,55.359a2.043,2.043,0,0,1,1.955,1.062c.082.166.166.315-.14.314-1.176,0-2.351,0-3.567,0" transform="translate(-19.923 -39.042)" fill="#cd8f68"/>
    </g>
  </g>
</svg>
