<svg id="Grupo_158025" data-name="Grupo 158025" xmlns="http://www.w3.org/2000/svg" xmlns:xlink="http://www.w3.org/1999/xlink" width="87.191" height="87.191" viewBox="0 0 87.191 87.191">
  <defs>
    <clipPath id="clip-path">
      <rect id="Rectángulo_37148" data-name="Rectángulo 37148" width="34.01" height="48.275" fill="none"/>
    </clipPath>
  </defs>
  <path id="Trazado_127482" data-name="Trazado 127482" d="M43.6,0A43.6,43.6,0,1,1,0,43.6,43.6,43.6,0,0,1,43.6,0Z" fill="#b0c8cb"/>
  <g id="Grupo_156595" data-name="Grupo 156595" transform="translate(13.211 14.972)">
    <path id="Trazado_127053" data-name="Trazado 127053" d="M15.294,123.444c.4.089.493-.1.489-.473-.01-.936.006-.952.974-.947.36,0,.472-.11.465-.466-.007-.332-.067-.487-.451-.485-.972,0-1-.016-.986-.986,0-.439-.211-.447-.536-.45s-.494.051-.494.441c0,.982-.02,1-.979,1-.371,0-.459.132-.46.477s.087.477.458.475c.978-.006,1,.013.98.939-.01.43.149.556.539.48" transform="translate(42.499 -85.289)" fill="#29c4bb"/>
    <path id="Trazado_127054" data-name="Trazado 127054" d="M213.439,151.159c-.358-.068-.556.05-.5.455.049.339-.068.528-.443.47s-.5.078-.5.473c0,.414.166.509.519.462.337-.046.444.1.437.437-.011.525.315.727.823.568.241-.075.189-.268.173-.42-.042-.415.053-.67.543-.586.379.064.4-.173.4-.465s-.012-.527-.4-.467c-.415.064-.611-.088-.542-.526.066-.419-.2-.437-.512-.4" transform="translate(-211.994 -106.771)" fill="#29c4bb"/>
    <path id="Trazado_127055" data-name="Trazado 127055" d="M207.477,69.073c-.092.4.09.536.465.473.405-.068.571.1.5.5s.1.483.477.487.536-.112.469-.491c-.072-.4.1-.57.5-.5s.452-.139.468-.489c.018-.41-.141-.518-.5-.455-.389.068-.533-.093-.468-.473.063-.363-.054-.51-.459-.5-.357.013-.563.063-.486.472s-.1.563-.5.5c-.375-.063-.557.071-.464.47" transform="translate(-204.556 -62.099)" fill="#010000"/>
    <path id="Trazado_127056" data-name="Trazado 127056" d="M51.8,186.444c-.087.373.1.509.469.442.437-.079.541.148.478.517-.07.41.129.473.489.471.344,0,.529-.08.456-.45-.095-.487.149-.606.568-.535s.41-.2.412-.493-.006-.528-.395-.451c-.523.1-.656-.148-.586-.615.068-.448-.274-.319-.5-.332s-.51-.046-.44.343c.087.48-.081.7-.59.605-.424-.081-.372.214-.36.5" transform="translate(-5.952 -129.55)" fill="#010000"/>
    <path id="Trazado_127057" data-name="Trazado 127057" d="M124.64,17.234c.1-.425-.135-.508-.483-.456s-.5-.1-.449-.452-.051-.518-.46-.509c-.376.008-.548.105-.483.491s-.116.525-.487.469c-.344-.052-.517.031-.519.451s.16.546.536.487c.4-.063.531.117.47.487-.069.415.154.463.5.47.374.008.5-.133.44-.475-.06-.376.079-.547.471-.482s.546-.094.461-.482" transform="translate(-95.96 -15.817)" fill="#29c4bb"/>
  </g>
  <g id="Grupo_156617" data-name="Grupo 156617" transform="translate(26.739 19.763)">
    <g id="Grupo_156617-2" data-name="Grupo 156617" clip-path="url(#clip-path)">
      <path id="Trazado_127344" data-name="Trazado 127344" d="M33.3,43.306c.6.25.726.493.6,1.114a4.826,4.826,0,0,1-4.628,3.837q-12.242.03-24.485,0A4.816,4.816,0,0,1,.009,43.6C0,43.428,0,43.256,0,43.084q0-15.9,0-31.8A4.89,4.89,0,0,1,3.589,6.346,8.315,8.315,0,0,1,6,6.194c.328,0,.4-.094.393-.4-.021-.876-.009-1.752-.007-2.629,0-.721.236-.962.953-.964,1.925,0,3.849-.008,5.773.005a.64.64,0,0,0,.648-.352,3.773,3.773,0,0,1,6.492,0,.641.641,0,0,0,.647.355c1.907-.014,3.815-.008,5.722-.006.785,0,1.007.226,1.008,1.013,0,.842.018,1.685-.008,2.526-.011.351.069.468.443.46a9.18,9.18,0,0,1,2.054.083A4.885,4.885,0,0,1,34,10.817a.792.792,0,0,1-.513.857c-.618.162-.9,0-1.044-.614-.06-.251-.091-.507-.152-.758a3.157,3.157,0,0,0-3.129-2.5q-12.138-.016-24.277,0A3.244,3.244,0,0,0,1.6,10.974c-.015.189-.012.377-.012.567q0,15.695,0,31.39a5.061,5.061,0,0,0,.08,1.025,3.224,3.224,0,0,0,3.286,2.7q7.448.01,14.9,0,4.484,0,8.968,0a3.276,3.276,0,0,0,3.5-2.586c.219-.7.435-.872.972-.77" transform="translate(0 0)"/>
      <path id="Trazado_127345" data-name="Trazado 127345" d="M36.405,59.743a.834.834,0,0,0-.821.768A3.365,3.365,0,0,1,32.15,63.26q-12.039.008-24.079,0a3.392,3.392,0,0,1-3.515-3.511q-.01-16.087,0-32.174a3.382,3.382,0,0,1,3.511-3.507q12.039-.008,24.079,0a3.4,3.4,0,0,1,3.515,3.191c.073.707.24.86.934.853-.206.126-.2.326-.2.533.006.881,0,1.763.005,2.644a1.665,1.665,0,0,0-.573,1.551c.024,1.7.029,3.4,0,5.1a1.33,1.33,0,0,0,.668,1.415,3,3,0,0,0-.089,1.265c-.02.633,0,1.267,0,1.9a1.487,1.487,0,0,0-.569,1.437q.022,5.576,0,11.152c0,.62.061,1.152.663,1.472a2.508,2.508,0,0,0-.091,1.161c-.019.667,0,1.335,0,2" transform="translate(-3.109 -16.437)" fill="#29c4bb"/>
      <path id="Trazado_127346" data-name="Trazado 127346" d="M103.553,96.349c-.628-.055-.824-.25-.824-.866q0-6.161-.005-12.322a.771.771,0,0,1,.738-.874.808.808,0,0,1,.711.913q-.007,6.134,0,12.268a.786.786,0,0,1-.618.881" transform="translate(-70.165 -56.206)"/>
      <path id="Trazado_127347" data-name="Trazado 127347" d="M103.545,54.919c-.625-.056-.821-.252-.822-.864,0-2.089.008-4.178-.009-6.268a.817.817,0,0,1,.739-.932.851.851,0,0,1,.716.965c-.012,2.056-.009,4.113,0,6.17,0,.46-.135.806-.622.928" transform="translate(-70.158 -32.005)"/>
      <path id="Trazado_127348" data-name="Trazado 127348" d="M50.912,6.961a2.366,2.366,0,1,1-2.327-2.389,2.385,2.385,0,0,1,2.327,2.389" transform="translate(-31.543 -3.123)" fill="#fee734"/>
      <path id="Trazado_127349" data-name="Trazado 127349" d="M30.85,14.02c-2,0-3.909,0-5.814,0-.242,0-.379-.027-.37-.326.021-.635.016-1.271,0-1.906-.006-.25.083-.323.326-.322,1.58.009,3.16,0,4.74,0,.163,0,.309,0,.31.228a4.1,4.1,0,0,0,.806,2.318" transform="translate(-16.848 -7.835)" fill="#9baeca"/>
      <path id="Trazado_127350" data-name="Trazado 127350" d="M63.109,14.02a4.123,4.123,0,0,0,.806-2.319c0-.233.15-.227.311-.227,1.58,0,3.16,0,4.74,0,.244,0,.331.073.326.322-.014.635-.019,1.271,0,1.906.01.3-.128.326-.37.325-1.906-.007-3.812,0-5.815,0" transform="translate(-43.106 -7.835)" fill="#9baeca"/>
      <path id="Trazado_127351" data-name="Trazado 127351" d="M37.339,46.785q0,7.912,0,15.824A2.032,2.032,0,0,1,35,64.931H11.344a2,2,0,0,1-2.237-2.214q0-15.953,0-31.905a1.98,1.98,0,0,1,2.206-2.188H35.126a1.992,1.992,0,0,1,2.213,2.234q0,7.963,0,15.927" transform="translate(-6.22 -19.551)"/>
      <path id="Trazado_127352" data-name="Trazado 127352" d="M39.01,49.84q0,7.939,0,15.878c0,.777-.107.881-.9.881H14.554c-.781,0-.887-.106-.887-.89q0-15.826,0-31.652c0-.777.1-.877.9-.877H38.122c.791,0,.888.1.888.887q0,7.887,0,15.774" transform="translate(-9.335 -22.662)" fill="#f4f2f7"/>
      <path id="Trazado_127353" data-name="Trazado 127353" d="M58.919,46.826c1.355,0,2.711,0,4.066,0,.575,0,.88.249.888.7.008.468-.317.742-.906.743q-4.041,0-8.081,0c-.59,0-.92-.274-.914-.735s.313-.7.933-.706c1.338,0,2.677,0,4.015,0" transform="translate(-36.865 -31.984)"/>
      <path id="Trazado_127354" data-name="Trazado 127354" d="M58.917,79.276c-1.355,0-2.711,0-4.066,0-.577,0-.877-.247-.881-.7s.314-.736.864-.738q4.092-.01,8.183,0c.547,0,.864.3.855.745s-.311.692-.889.693c-1.355,0-2.711,0-4.066,0" transform="translate(-36.864 -53.162)" fill="#010101"/>
      <path id="Trazado_127355" data-name="Trazado 127355" d="M58.92,108.971q2.007,0,4.015,0c.629,0,.931.228.938.7s-.317.745-.908.745q-4.04.007-8.081,0c-.59,0-.919-.279-.913-.741s.314-.7.935-.7q2.007,0,4.015,0" transform="translate(-36.865 -74.432)"/>
      <path id="Trazado_127356" data-name="Trazado 127356" d="M58.911,59.723c-1.338,0-2.677,0-4.015,0-.606,0-.924-.253-.925-.717s.328-.724.923-.725q4.041,0,8.081,0c.586,0,.913.28.9.748-.014.445-.325.692-.9.693-1.355,0-2.711,0-4.066,0" transform="translate(-36.865 -39.807)"/>
      <path id="Trazado_127357" data-name="Trazado 127357" d="M58.93,90.82q-1.93,0-3.86,0a2.471,2.471,0,0,1-.511-.033.66.66,0,0,1-.577-.732.65.65,0,0,1,.649-.666c.255-.023.514-.011.771-.011,2.522,0,5.043,0,7.565,0,.437,0,.792.1.9.576.113.495-.253.864-.872.868-1.355.01-2.71,0-4.065,0" transform="translate(-36.872 -61.046)" fill="#010101"/>
      <path id="Trazado_127358" data-name="Trazado 127358" d="M58.974,120.41q1.982,0,3.964,0c.6,0,.927.251.935.71s-.311.731-.909.732q-4.041,0-8.081,0c-.6,0-.919-.266-.911-.731s.333-.709.936-.711q2.033,0,4.066,0" transform="translate(-36.865 -82.245)"/>
      <path id="Trazado_127359" data-name="Trazado 127359" d="M23.076,48.8a1.029,1.029,0,0,1,.817.376c.337.306.612.9,1,.864.341-.028.642-.567.958-.882.669-.667,1.335-1.338,2.007-2,.4-.4.81-.445,1.129-.149.352.327.327.742-.094,1.165q-1.69,1.7-3.391,3.389c-.471.467-.806.465-1.277,0-.514-.506-1.027-1.014-1.529-1.532a.662.662,0,0,1-.149-.8.691.691,0,0,1,.532-.426" transform="translate(-15.347 -31.975)"/>
      <path id="Trazado_127360" data-name="Trazado 127360" d="M29.01,78.531a.884.884,0,0,1-.3.684c-1.151,1.151-2.3,2.308-3.456,3.453a.736.736,0,0,1-1.2,0q-.755-.736-1.491-1.491a.73.73,0,1,1,1.012-1.035,8.89,8.89,0,0,1,.76.766c.228.274.379.276.634.012.9-.937,1.836-1.848,2.758-2.769a.71.71,0,0,1,.838-.2.745.745,0,0,1,.447.582" transform="translate(-15.213 -53.199)"/>
      <path id="Trazado_127361" data-name="Trazado 127361" d="M28.776,109.691a.736.736,0,0,1-.274.561c-1.165,1.164-2.325,2.334-3.5,3.492a.719.719,0,0,1-1.165-.008q-.759-.733-1.5-1.49a.739.739,0,0,1-.068-1.129c.313-.294.705-.258,1.091.1.025.023.048.05.074.072.345.3.613.893,1,.869.338-.021.647-.555.963-.868q1.059-1.052,2.112-2.11a.72.72,0,0,1,.848-.17.662.662,0,0,1,.408.68" transform="translate(-15.058 -74.412)"/>
    </g>
  </g>
</svg>
