<svg xmlns="http://www.w3.org/2000/svg" xmlns:xlink="http://www.w3.org/1999/xlink" width="87.191" height="87.191" viewBox="0 0 87.191 87.191">
  <defs>
    <clipPath id="clip-path">
      <rect id="Rectángulo_37879" data-name="Rectángulo 37879" width="46.258" height="46.273" fill="none"/>
    </clipPath>
  </defs>
  <g id="Grupo_158028" data-name="Grupo 158028" transform="translate(0 0.161)">
    <path id="Trazado_127482" data-name="Trazado 127482" d="M43.6,0A43.6,43.6,0,1,1,0,43.6,43.6,43.6,0,0,1,43.6,0Z" transform="translate(0 -0.161)" fill="#b0c8cb"/>
    <g id="Grupo_156595" data-name="Grupo 156595" transform="translate(13.211 14.972)">
      <path id="Trazado_127053" data-name="Trazado 127053" d="M15.294,123.444c.4.089.493-.1.489-.473-.01-.936.006-.952.974-.947.36,0,.472-.11.465-.466-.007-.332-.067-.487-.451-.485-.972,0-1-.016-.986-.986,0-.439-.211-.447-.536-.45s-.494.051-.494.441c0,.982-.02,1-.979,1-.371,0-.459.132-.46.477s.087.477.458.475c.978-.006,1,.013.98.939-.01.43.149.556.539.48" transform="translate(42.499 -85.289)" fill="#29c4bb"/>
      <path id="Trazado_127054" data-name="Trazado 127054" d="M213.439,151.159c-.358-.068-.556.05-.5.455.049.339-.068.528-.443.47s-.5.078-.5.473c0,.414.166.509.519.462.337-.046.444.1.437.437-.011.525.315.727.823.568.241-.075.189-.268.173-.42-.042-.415.053-.67.543-.586.379.064.4-.173.4-.465s-.012-.527-.4-.467c-.415.064-.611-.088-.542-.526.066-.419-.2-.437-.512-.4" transform="translate(-211.994 -106.771)" fill="#29c4bb"/>
      <path id="Trazado_127055" data-name="Trazado 127055" d="M207.477,69.073c-.092.4.09.536.465.473.405-.068.571.1.5.5s.1.483.477.487.536-.112.469-.491c-.072-.4.1-.57.5-.5s.452-.139.468-.489c.018-.41-.141-.518-.5-.455-.389.068-.533-.093-.468-.473.063-.363-.054-.51-.459-.5-.357.013-.563.063-.486.472s-.1.563-.5.5c-.375-.063-.557.071-.464.47" transform="translate(-204.556 -62.099)" fill="#010000"/>
      <path id="Trazado_127056" data-name="Trazado 127056" d="M51.8,186.444c-.087.373.1.509.469.442.437-.079.541.148.478.517-.07.41.129.473.489.471.344,0,.529-.08.456-.45-.095-.487.149-.606.568-.535s.41-.2.412-.493-.006-.528-.395-.451c-.523.1-.656-.148-.586-.615.068-.448-.274-.319-.5-.332s-.51-.046-.44.343c.087.48-.081.7-.59.605-.424-.081-.372.214-.36.5" transform="translate(-5.952 -129.55)" fill="#010000"/>
      <path id="Trazado_127057" data-name="Trazado 127057" d="M124.64,17.234c.1-.425-.135-.508-.483-.456s-.5-.1-.449-.452-.051-.518-.46-.509c-.376.008-.548.105-.483.491s-.116.525-.487.469c-.344-.052-.517.031-.519.451s.16.546.536.487c.4-.063.531.117.47.487-.069.415.154.463.5.47.374.008.5-.133.44-.475-.06-.376.079-.547.471-.482s.546-.094.461-.482" transform="translate(-95.96 -15.817)" fill="#29c4bb"/>
    </g>
    <g id="Grupo_158033" data-name="Grupo 158033" transform="translate(20 20.839)">
      <g id="Grupo_158033-2" data-name="Grupo 158033" clip-path="url(#clip-path)">
        <path id="Trazado_131470" data-name="Trazado 131470" d="M45.626,46.273H.682c-.564-.193-.675-.339-.675-.949Q0,32.192,0,19.061a1.337,1.337,0,0,1,.611-1.088q2.222-1.808,4.447-3.613c1.017-.824,2.02-1.663,3.052-2.468a1.093,1.093,0,0,0,.489-1.04,8.805,8.805,0,0,1-.005-.992C8.605,9,8.984,8.616,9.831,8.6c.6-.009,1.2-.012,1.8,0A1.272,1.272,0,0,0,12.5,8.3q4.66-3.779,9.31-7.572c.175-.143.348-.288.526-.426A1.247,1.247,0,0,1,23.957.295c2.112,1.694,4.2,3.416,6.3,5.12,1.18.956,2.361,1.911,3.533,2.877a1.31,1.31,0,0,0,.912.313c.6-.015,1.2-.012,1.8,0a1.077,1.077,0,0,1,1.2,1.2c.01.391.017.783,0,1.173a.907.907,0,0,0,.379.813q2.95,2.378,5.884,4.776c.595.484,1.2.961,1.785,1.451a1.436,1.436,0,0,1,.5.727v26.9a.708.708,0,0,1-.632.632" transform="translate(0 0)"/>
        <path id="Trazado_131471" data-name="Trazado 131471" d="M151.844,152.527a1.941,1.941,0,0,0,.632-.632c0,.632,0,.632-.632.632" transform="translate(-106.218 -106.254)" fill="#f2f2f2"/>
        <path id="Trazado_131472" data-name="Trazado 131472" d="M47.647,35.021c4.059,0,8.118,0,12.177-.008.344,0,.445.074.443.434q-.022,5.638,0,11.277a.6.6,0,0,1-.389.643q-5.97,2.889-11.924,5.812a.661.661,0,0,1-.661,0q-5.995-2.941-12-5.856a.472.472,0,0,1-.306-.507q.01-5.706,0-11.412c0-.326.094-.386.4-.386q6.133.016,12.267.007" transform="translate(-24.469 -24.492)" fill="#cae5f6"/>
        <path id="Trazado_131473" data-name="Trazado 131473" d="M46.959,114.6H34.418a3.168,3.168,0,0,0-.45.012.9.9,0,0,0,0,1.779,3.44,3.44,0,0,0,.5.013q6.927,0,13.853-.006a.93.93,0,0,1,.744.309c.458.477.951.919,1.523,1.464h-40.1c.588-.593,1.144-1.169,1.724-1.718.084-.08.286-.047.434-.047q6.926,0,13.852,0c.15,0,.3.008.451-.006a.9.9,0,0,0-.014-1.793c-.134-.012-.271-.005-.406-.005H14.095c.034-.172.157-.241.243-.329q4.247-4.3,8.491-8.611a.517.517,0,0,1,.723-.127c2.07,1.029,4.158,2.02,6.225,3.053a1.419,1.419,0,0,0,1.4.01c2.094-1.046,4.2-2.059,6.307-3.09.2-.1.346-.156.546.048,2.942,2.992,5.894,5.975,8.929,9.046" transform="translate(-7.328 -73.738)" fill="#f9c700"/>
        <path id="Trazado_131474" data-name="Trazado 131474" d="M18.5,88.509,6.271,100.885V82.544L18.5,88.509" transform="translate(-4.387 -57.741)" fill="#f9c700"/>
        <path id="Trazado_131475" data-name="Trazado 131475" d="M119.4,100.893,107.173,88.515,119.4,82.549Z" transform="translate(-74.97 -57.745)" fill="#f9c700"/>
        <path id="Trazado_131476" data-name="Trazado 131476" d="M6.149,68.081l5.279,2.574q7.663,3.737,15.323,7.483a1.436,1.436,0,0,0,1.4,0q9.98-4.89,19.972-9.753c.187-.091.375-.178.625-.3,0,.744-.008,1.442,0,2.139,0,.259-.206.274-.351.345Q43.854,72.8,39.3,75.02q-5.722,2.791-11.441,5.588a.835.835,0,0,1-.828-.005q-10.224-5-20.462-9.982a.642.642,0,0,1-.432-.708c.031-.584.009-1.172.009-1.831" transform="translate(-4.294 -47.624)" fill="#feafb7"/>
        <path id="Trazado_131477" data-name="Trazado 131477" d="M50.056,13.815c2.7-2.2,5.305-4.312,7.9-6.431.153-.125.247-.149.414-.012q3.857,3.152,7.725,6.291a1.435,1.435,0,0,1,.127.152c-.812,0-1.57,0-2.327,0-.173,0-.27-.119-.383-.212q-2.266-1.858-4.528-3.72c-.663-.545-.968-.545-1.618-.009q-2.279,1.877-4.562,3.749a.582.582,0,0,1-.389.194c-.745-.008-1.491,0-2.359,0" transform="translate(-35.015 -5.092)" fill="#feafb7"/>
        <path id="Trazado_131478" data-name="Trazado 131478" d="M8.737,51.108l6.086-4.949c0,.724,0,1.373,0,2.023,0,.146-.124.2-.212.27-1.321,1.089-2.648,2.171-3.965,3.265a.419.419,0,0,1-.551.062c-.428-.238-.878-.437-1.358-.672" transform="translate(-6.112 -32.289)" fill="#feafb7"/>
        <path id="Trazado_131479" data-name="Trazado 131479" d="M125.105,46.137l6.094,4.957c-.531.26-1.015.491-1.492.736-.159.082-.25,0-.354-.086q-2.037-1.674-4.077-3.344a.391.391,0,0,1-.174-.336c.008-.611,0-1.223,0-1.926" transform="translate(-87.512 -32.274)" fill="#feafb7"/>
        <path id="Trazado_131480" data-name="Trazado 131480" d="M73.467,23.9H68.016c.235-.2.418-.358.606-.512.626-.516,1.259-1.024,1.879-1.547.163-.138.268-.171.451-.015.8.679,1.62,1.34,2.515,2.074" transform="translate(-47.579 -15.198)" fill="#f99500"/>
        <path id="Trazado_131481" data-name="Trazado 131481" d="M125.172,64.478V61.029l2.638,2.162-2.638,1.287" transform="translate(-87.561 -42.691)" fill="#f99500"/>
        <path id="Trazado_131482" data-name="Trazado 131482" d="M22.8,64.493l-2.612-1.273,2.612-2.15Z" transform="translate(-14.121 -42.721)" fill="#f99500"/>
        <path id="Trazado_131483" data-name="Trazado 131483" d="M64.716,51.8a3.329,3.329,0,0,1-.335.451,2.141,2.141,0,0,1-2.416.453,1.611,1.611,0,0,1-1.076-1.57,1.566,1.566,0,0,1,1.026-1.55,4.958,4.958,0,0,1,2.21-.331c.324.011.421-.081.37-.409a.942.942,0,0,0-.794-.856,2.5,2.5,0,0,0-1.623.208c-.3.137-.576.2-.765-.164a.662.662,0,0,1,.167-.921,3.345,3.345,0,0,1,3.8.123,1.914,1.914,0,0,1,.579,1.508c0,.722,0,1.444,0,2.166a2.554,2.554,0,0,0,.055.581.542.542,0,0,0,.429.47.613.613,0,0,0,.614-.3,1.636,1.636,0,0,0,.261-.714,6.8,6.8,0,0,0-.194-3.166,3.04,3.04,0,0,0-2.7-2.191,5.514,5.514,0,0,0-2.061.1A3.214,3.214,0,0,0,59.855,47.9a5.992,5.992,0,0,0-.139,3.466,3.4,3.4,0,0,0,4.444,2.535c.247-.064.489-.143.734-.214a.466.466,0,0,1,.623.29.5.5,0,0,1-.206.666,3.848,3.848,0,0,1-1.541.463A4.542,4.542,0,0,1,58.3,50.773a8.175,8.175,0,0,1,.134-2.511,4.792,4.792,0,0,1,4.844-3.851A4.887,4.887,0,0,1,67.5,46.03a5.436,5.436,0,0,1,1.068,3.989,4.194,4.194,0,0,1-.614,2.05,1.9,1.9,0,0,1-2.2.813,1.547,1.547,0,0,1-1.035-1.08" transform="translate(-40.759 -31.063)"/>
        <path id="Trazado_131484" data-name="Trazado 131484" d="M74.959,135.983a.9.9,0,1,1-.9.879.91.91,0,0,1,.9-.879" transform="translate(-51.808 -95.123)" fill="#010100"/>
        <path id="Trazado_131485" data-name="Trazado 131485" d="M74.1,63.251c.319-.087.409.1.379.469a1.39,1.39,0,0,1-1.149,1.252c-.371.053-.7,0-.854-.4a.857.857,0,0,1,.37-1.054,2.884,2.884,0,0,1,1.254-.271" transform="translate(-50.654 -44.231)" fill="#cae4f5"/>
      </g>
    </g>
  </g>
</svg>
