<svg id="Grupo_158026" data-name="Grupo 158026" xmlns="http://www.w3.org/2000/svg" xmlns:xlink="http://www.w3.org/1999/xlink" width="87.191" height="87.191" viewBox="0 0 87.191 87.191">
  <defs>
    <clipPath id="clip-path">
      <rect id="Rectángulo_37877" data-name="Rectángulo 37877" width="44.854" height="44.877" fill="none"/>
    </clipPath>
  </defs>
  <path id="Trazado_127482" data-name="Trazado 127482" d="M43.6,0A43.6,43.6,0,1,1,0,43.6,43.6,43.6,0,0,1,43.6,0Z" fill="#b0c8cb"/>
  <g id="Grupo_156595" data-name="Grupo 156595" transform="translate(13.211 14.972)">
    <path id="Trazado_127053" data-name="Trazado 127053" d="M15.294,123.444c.4.089.493-.1.489-.473-.01-.936.006-.952.974-.947.36,0,.472-.11.465-.466-.007-.332-.067-.487-.451-.485-.972,0-1-.016-.986-.986,0-.439-.211-.447-.536-.45s-.494.051-.494.441c0,.982-.02,1-.979,1-.371,0-.459.132-.46.477s.087.477.458.475c.978-.006,1,.013.98.939-.01.43.149.556.539.48" transform="translate(42.499 -85.289)" fill="#29c4bb"/>
    <path id="Trazado_127054" data-name="Trazado 127054" d="M213.439,151.159c-.358-.068-.556.05-.5.455.049.339-.068.528-.443.47s-.5.078-.5.473c0,.414.166.509.519.462.337-.046.444.1.437.437-.011.525.315.727.823.568.241-.075.189-.268.173-.42-.042-.415.053-.67.543-.586.379.064.4-.173.4-.465s-.012-.527-.4-.467c-.415.064-.611-.088-.542-.526.066-.419-.2-.437-.512-.4" transform="translate(-211.994 -106.771)" fill="#29c4bb"/>
    <path id="Trazado_127055" data-name="Trazado 127055" d="M207.477,69.073c-.092.4.09.536.465.473.405-.068.571.1.5.5s.1.483.477.487.536-.112.469-.491c-.072-.4.1-.57.5-.5s.452-.139.468-.489c.018-.41-.141-.518-.5-.455-.389.068-.533-.093-.468-.473.063-.363-.054-.51-.459-.5-.357.013-.563.063-.486.472s-.1.563-.5.5c-.375-.063-.557.071-.464.47" transform="translate(-204.556 -62.099)" fill="#010000"/>
    <path id="Trazado_127056" data-name="Trazado 127056" d="M51.8,186.444c-.087.373.1.509.469.442.437-.079.541.148.478.517-.07.41.129.473.489.471.344,0,.529-.08.456-.45-.095-.487.149-.606.568-.535s.41-.2.412-.493-.006-.528-.395-.451c-.523.1-.656-.148-.586-.615.068-.448-.274-.319-.5-.332s-.51-.046-.44.343c.087.48-.081.7-.59.605-.424-.081-.372.214-.36.5" transform="translate(-5.952 -129.55)" fill="#010000"/>
    <path id="Trazado_127057" data-name="Trazado 127057" d="M124.64,17.234c.1-.425-.135-.508-.483-.456s-.5-.1-.449-.452-.051-.518-.46-.509c-.376.008-.548.105-.483.491s-.116.525-.487.469c-.344-.052-.517.031-.519.451s.16.546.536.487c.4-.063.531.117.47.487-.069.415.154.463.5.47.374.008.5-.133.44-.475-.06-.376.079-.547.471-.482s.546-.094.461-.482" transform="translate(-95.96 -15.817)" fill="#29c4bb"/>
  </g>
  <g id="Grupo_158031" data-name="Grupo 158031" transform="translate(23.966 23.956)">
    <g id="Grupo_158031-2" data-name="Grupo 158031" clip-path="url(#clip-path)">
      <path id="Trazado_131439" data-name="Trazado 131439" d="M24.144,2.573l1.455,0a.173.173,0,0,1,.062.068c.2.525.473.664,1.044.539a.285.285,0,0,0,.253-.233c.03-.133.022-.285.155-.375h1.465c.169.583.606.608,1.122.605,3.253-.018,6.507-.009,9.761-.009.187,0,.374,0,.56,0,.541.027.652.137.681.669.009.171,0,.342,0,.514q0,16.907,0,33.813c0,1.188,0,1.188-1.19,1.188H20.6c-1.115,0-1.132-.016-1.132-1.108q0-16.976,0-33.952c0-1.1.025-1.127,1.119-1.127.763,0,1.526-.006,2.289,0,.523.005,1.075.089,1.267-.6" transform="translate(-13.643 -1.803)" fill="#20b1a9"/>
      <path id="Trazado_131440" data-name="Trazado 131440" d="M10.5.818c-.053.75-.053.75-.829.75-1.09,0-2.18.01-3.27-.006-.3,0-.431.042-.43.394q.014,17.563,0,35.125c0,.326.116.374.4.374q10.066-.01,20.132,0c.327,0,.413-.084.412-.412q-.013-17.539,0-35.078c0-.337-.1-.406-.419-.406-3.581.011-7.162.007-10.743.007-.783,0-.783,0-.821-.749.037-.746.037-.746.808-.746q5.817,0,11.634,0c.48,0,.878.084,1.011.61.057.223.215.136.333.138.638.009,1.277,0,1.916.006a2.226,2.226,0,0,1,2.251,2.253c.012,1.978,0,3.956.007,5.933,0,.59-.5,1.082-.479,1.547s.478.936.477,1.506q-.006,2.967,0,5.933a2.121,2.121,0,0,1-.4,1.269c-.125.174-.16.283-.013.474a2.155,2.155,0,0,1,.414,1.357q-.007,2.9,0,5.793a2.174,2.174,0,0,1-.412,1.358.327.327,0,0,0,.009.474,2.164,2.164,0,0,1,.4,1.315c0,1.962.007,3.925,0,5.887A2.229,2.229,0,0,1,30.61,38.2q-.934.011-1.869,0c-.2,0-.323.019-.4.257-.132.425-.495.5-.9.5q-7.218-.008-14.437,0a5.808,5.808,0,0,1-.7-.006c-.3-.037-.355.086-.352.363.014,1.541,0,3.083.009,4.625a.874.874,0,0,1-.424.91.858.858,0,0,1-.948-.178c-.449-.308-.913-.593-1.355-.91a.393.393,0,0,0-.533,0c-.47.332-.956.64-1.432.962a.8.8,0,0,1-.914.105.829.829,0,0,1-.38-.8c.006-1.542-.007-3.084.01-4.625,0-.345-.058-.476-.443-.465-1.058.031-2.118.014-3.177.01A2.24,2.24,0,0,1,0,36.57Q0,19.517,0,2.464A2.241,2.241,0,0,1,2.4.074q3.644,0,7.288,0c.765,0,.765,0,.814.745" transform="translate(0 -0.048)"/>
      <path id="Trazado_131441" data-name="Trazado 131441" d="M125.108,28.463c.746.038.746.038.746.808,0,1.386,0,2.772,0,4.157a1.8,1.8,0,0,1-.195.851q-1.02,2.016-2.024,4.041c-.168.34-.363.626-.787.62-.4-.006-.591-.272-.753-.6q-1.01-2.046-2.042-4.08a1.728,1.728,0,0,1-.187-.805q.006-12.472,0-24.943c0-.452.113-.8.58-.941.127-.038.177-.081.174-.214-.007-.374-.014-.748,0-1.121.008-.185-.117-.181-.228-.223a.764.764,0,0,1-.525-.794c0-1.214-.008-2.429.005-3.643a1.472,1.472,0,0,1,1.514-1.5q1.471-.018,2.943,0a1.478,1.478,0,0,1,1.516,1.5c.013,1.214,0,2.429.005,3.643a.736.736,0,0,1-.528.787c-.188.058-.219.146-.225.323-.043,1.218-.048,1.217,1.171,1.218a2.259,2.259,0,0,1,2.517,1.737,2.474,2.474,0,0,1,.052.555q.006,2.125,0,4.25c0,.6-.265.926-.738.931s-.754-.327-.755-.913c0-1.355,0-2.709,0-4.064a.98.98,0,0,0-1.373-1,.143.143,0,0,0-.121.16c0,.109,0,.218,0,.327q0,8.478,0,16.956c0,.175.083.373-.078.528-.289.047-.581.017-.876.089-.43.105-.639-.085-.679-.528-.018-.2-.01-.4-.01-.606q0-7.9,0-15.806c0-.156-.007-.311,0-.466.014-.35-.139-.506-.5-.5-.528.005-1.057.019-1.585-.01-.585.061-.6.071-.6.638q0,11.2,0,22.392c0,.54.019.547.58.614.529-.022,1.058-.018,1.586-.005.379.009.529-.139.526-.519-.008-1.089-.015-2.178,0-3.267.01-.667.269-.824.892-.57" transform="translate(-83.992 -0.046)"/>
      <path id="Trazado_131442" data-name="Trazado 131442" d="M129.989,49.461c-.749.038-.749.038-.749.815,0,1.1-.011,2.2.007,3.306,0,.306-.083.4-.388.386-.62-.027-1.241-.017-1.861-.022-.228-.269-.15-.594-.151-.9q-.007-11.048,0-22.1c0-.156,0-.312.007-.467a.591.591,0,0,1,.147-.43c.637-.005,1.274,0,1.911-.021.27-.01.343.082.336.343-.017.652-.006,1.306-.006,1.958,0,5.052.007,10.1-.012,15.156,0,.453.146.556.547.515a2.679,2.679,0,0,1,.878,0c-.667.067-.667.067-.667.761,0,.23,0,.461,0,.691" transform="translate(-88.872 -21.044)" fill="#24bbb0"/>
      <path id="Trazado_131443" data-name="Trazado 131443" d="M41.461.771c-.038.749-.038.749-.8.749-.668,0-.668,0-.717-.748C40,.025,40,.025,40.756.025a.694.694,0,0,0,.139,0c.477-.1.633.113.553.563a.742.742,0,0,0,.013.184" transform="translate(-27.99 0)" fill="#000101"/>
      <path id="Trazado_131444" data-name="Trazado 131444" d="M57.266,106.461c-1.478,0-2.957-.011-4.435.008-.336,0-.41-.1-.407-.419.009-1.084,0-1.084,1.087-1.084,2.723,0,5.447,0,8.17-.006.335,0,.49.04.48.441-.025,1.06,0,1.061-1.067,1.061H57.266" transform="translate(-36.733 -73.544)"/>
      <path id="Trazado_131445" data-name="Trazado 131445" d="M57.266,116.451c-1.478,0-2.957-.011-4.435.008-.336,0-.41-.1-.407-.418.009-1.085,0-1.085,1.087-1.085,2.723,0,5.447,0,8.17-.006.335,0,.49.039.481.44-.025,1.06,0,1.061-1.067,1.061H57.266" transform="translate(-36.733 -80.544)"/>
      <path id="Trazado_131446" data-name="Trazado 131446" d="M7.984,23.011q0,8.709.011,17.419c0,.444-.133.549-.544.524-.543-.034-1.089,0-1.634-.011a.748.748,0,0,1-.822-.806c0-.109,0-.218,0-.327V6.186c0-.927.194-1.122,1.116-1.122.514,0,1.028.014,1.541-.006.272-.01.366.089.335.348a2.762,2.762,0,0,0,0,.327V23.011" transform="translate(-3.498 -3.544)" fill="#1f9a91"/>
      <path id="Trazado_131447" data-name="Trazado 131447" d="M94.891,11.273c0-1.121.01-2.242-.007-3.362,0-.289.07-.372.36-.361.606.024,1.214,0,1.821.01a.741.741,0,0,1,.813.814q.011,2.919,0,5.838a.733.733,0,0,1-.763.815c-.653.017-1.308-.01-1.961.012-.31.01-.263-.172-.263-.357q0-1.7,0-3.409" transform="translate(-66.484 -5.289)" fill="#f6e86d"/>
      <path id="Trazado_131448" data-name="Trazado 131448" d="M94.89,41.272c0-1.12.01-2.24-.007-3.359,0-.3.068-.406.383-.393.59.025,1.182,0,1.773.009a.749.749,0,0,1,.839.835q.01,2.893,0,5.786c0,.574-.286.843-.872.851-.56.007-1.122-.027-1.679.011-.4.027-.45-.133-.444-.475.019-1.088.007-2.177.007-3.266" transform="translate(-66.483 -26.289)" fill="#f05a24"/>
      <path id="Trazado_131449" data-name="Trazado 131449" d="M94.89,71.236c0-1.121.011-2.242-.007-3.363-.005-.307.079-.4.384-.382.591.025,1.183,0,1.775.009a.752.752,0,0,1,.836.839q.009,2.9,0,5.792a.753.753,0,0,1-.835.84c-.607.009-1.215-.01-1.821.008-.262.008-.341-.067-.337-.333.015-1.136.006-2.273.006-3.41" transform="translate(-66.483 -47.29)" fill="#ef9ef6"/>
      <path id="Trazado_131450" data-name="Trazado 131450" d="M94.89,101.161c0-1.1.011-2.209-.007-3.313-.005-.31.087-.4.389-.384.59.023,1.182,0,1.773.009a.75.75,0,0,1,.832.842q.01,2.894,0,5.787a.751.751,0,0,1-.833.842c-.607.01-1.214-.01-1.82.008-.264.008-.343-.069-.34-.337.014-1.151.006-2.3.006-3.453" transform="translate(-66.483 -68.291)" fill="#29aae1"/>
      <path id="Trazado_131451" data-name="Trazado 131451" d="M27.873,133.8a1.651,1.651,0,0,0-2.835,0l-.077-.1v-1.035c0-.778.012-1.557-.006-2.335-.007-.291.058-.411.38-.4.762.023,1.525.009,2.288.007.181,0,.333-.01.331.254-.01,1.163,0,2.327,0,3.49l-.078.118" transform="translate(-17.486 -91.041)" fill="#c52a44"/>
      <path id="Trazado_131452" data-name="Trazado 131452" d="M125.628,30.076v23.89a.881.881,0,0,1-.092.013c-.656.019-.656.019-.656-.616V30.772c0-.736,0-.736.749-.7" transform="translate(-87.502 -21.065)" fill="#20b1a9"/>
      <path id="Trazado_131453" data-name="Trazado 131453" d="M126.951,5.086c.65-.005,1.3,0,1.951-.019.22-.005.3.066.294.29q-.016,1.208,0,2.417c0,.224-.075.3-.294.29-.65-.016-1.3-.014-1.951-.019a6.06,6.06,0,0,1,0-2.959" transform="translate(-88.825 -3.55)" fill="#21a497"/>
      <path id="Trazado_131454" data-name="Trazado 131454" d="M125.6,5.053V8.012c-.015,0-.031.006-.046.006-.7.028-.7.028-.7-.652,0-.6.028-1.207-.009-1.807-.026-.422.1-.6.527-.523a2.114,2.114,0,0,0,.231.016" transform="translate(-87.472 -3.517)" fill="#1f9a91"/>
      <path id="Trazado_131455" data-name="Trazado 131455" d="M128.144,20.062c.729,0,.729,0,.729.837,0,.659,0,.659-.907.658-.589,0-.595,0-.587-.929.006-.669-.1-.554.765-.566" transform="translate(-89.253 -14.057)" fill="#1b776e"/>
      <path id="Trazado_131456" data-name="Trazado 131456" d="M127.557,117.087c-.348-.7-.646-1.3-.943-1.893a1.128,1.128,0,0,1-.047-.151h2.008l-1.019,2.044" transform="translate(-88.684 -80.61)" fill="#cbcbcb"/>
    </g>
  </g>
</svg>
