<svg xmlns="http://www.w3.org/2000/svg" xmlns:xlink="http://www.w3.org/1999/xlink" width="70" height="85" viewBox="0 0 70 85">
  <defs>
    <clipPath id="clip-path">
      <rect id="Rect치ngulo_37881" data-name="Rect치ngulo 37881" width="42.051" height="34.488" fill="none"/>
    </clipPath>
  </defs>
  <g id="Grupo_158036" data-name="Grupo 158036" transform="translate(-813 -5280)">
    <rect id="Rect치ngulo_37872" data-name="Rect치ngulo 37872" width="70" height="85" rx="12" transform="translate(813 5280)" fill="#1169e3"/>
    <g id="Grupo_158014" data-name="Grupo 158014" transform="translate(822.197 5296.978)">
      <g id="Grupo_158008" data-name="Grupo 158008" transform="translate(0 1.416)">
        <path id="Trazado_131261" data-name="Trazado 131261" d="M15.515,119.662c-.456-.1-.561.113-.556.539.012,1.066-.007,1.085-1.11,1.078-.41,0-.538.125-.53.531.007.378.077.555.514.553,1.107,0,1.135.018,1.123,1.123-.005.5.24.509.61.513s.562-.058.562-.5c0-1.119.023-1.139,1.115-1.134.423,0,.523-.151.524-.543s-.1-.543-.522-.541c-1.114.006-1.141-.014-1.116-1.07.012-.49-.169-.633-.614-.547" transform="translate(-13.318 -103.017)" fill="#29c4bb"/>
        <path id="Trazado_131262" data-name="Trazado 131262" d="M213.648,154.464c.408.078.634-.057.566-.519-.056-.386.077-.6.5-.535s.571-.088.575-.538c0-.472-.189-.58-.591-.526-.384.052-.506-.115-.5-.5.012-.6-.358-.828-.937-.647-.275.086-.215.305-.2.479.048.473-.06.763-.618.668-.432-.073-.459.2-.457.529s.014.6.453.532c.472-.073.7.1.618.6-.075.477.231.5.584.456" transform="translate(-164.006 -141.995)" fill="#29c4bb"/>
        <path id="Trazado_131263" data-name="Trazado 131263" d="M210.729,69.3c.105-.455-.1-.61-.529-.539-.462.078-.65-.112-.569-.571s-.113-.55-.543-.554-.611.127-.534.559c.083.46-.109.65-.566.564-.473-.089-.515.159-.533.557-.021.468.161.59.568.519.443-.077.608.106.533.538-.072.414.062.581.522.565.406-.014.641-.072.554-.538s.115-.641.569-.565c.427.072.634-.081.528-.536" transform="translate(-160.562 -35.719)" fill="#010000"/>
        <path id="Trazado_131264" data-name="Trazado 131264" d="M55.051,186.618c.1-.424-.11-.58-.534-.5-.5.09-.616-.169-.544-.589.079-.467-.147-.539-.556-.536-.392,0-.6.091-.52.513.108.555-.169.691-.647.609s-.467.226-.469.561.007.6.45.514c.6-.118.748.168.667.7-.077.51.312.363.571.379.275.016.581.052.5-.391-.1-.547.093-.8.672-.69.483.093.424-.244.41-.568" transform="translate(-42.49 -184.99)" fill="#010000"/>
        <path id="Trazado_131265" data-name="Trazado 131265" d="M121.786,17.456c-.114.484.154.578.55.52.412-.061.574.109.511.515s.058.59.524.58c.429-.009.625-.12.55-.56s.132-.6.555-.535c.392.059.589-.035.591-.514s-.183-.622-.61-.554c-.452.072-.605-.134-.535-.555.079-.473-.175-.528-.573-.536-.426-.009-.564.151-.5.542.068.428-.09.624-.536.549s-.622.107-.525.549" transform="translate(-95.566 30.246)" fill="#29c4bb"/>
      </g>
      <g id="Grupo_158039" data-name="Grupo 158039" transform="translate(4.803 8.023)">
        <g id="Grupo_158039-2" data-name="Grupo 158039" clip-path="url(#clip-path)">
          <path id="Trazado_131508" data-name="Trazado 131508" d="M23.888.823c.134-.607.383-.819.982-.82Q31.887,0,38.9,0a3.042,3.042,0,0,1,3.083,2.478.934.934,0,0,0,.064.149V27.515c-.133.086-.108.241-.149.363a3.045,3.045,0,0,1-2.788,2.114c-.191.008-.383.007-.574.007q-11.823,0-23.646,0a1.589,1.589,0,0,0-.742.175q-4.1,2.058-8.206,4.1c-.1.049-.193.1-.295.141A.8.8,0,0,1,4.5,33.672c-.017-.848,0-1.7-.009-2.545-.005-.364.16-.831-.076-1.063-.216-.213-.677-.049-1.03-.063a5,5,0,0,1-1.059-.089,3.035,3.035,0,0,1-2.323-2.92Q-.006,15,.007,3.017A3.028,3.028,0,0,1,3.019.008C7.753-.005,12.488,0,17.223,0c.558,0,.808.225.942.819a.728.728,0,0,1-.531.873,2.182,2.182,0,0,1-.772.077q-6.734,0-13.468,0a1.569,1.569,0,0,0-1.151.33,1.312,1.312,0,0,0-.462.929c-.009.178-.007.356-.007.534,0,7.6.01,15.193-.011,22.789,0,1.154.292,1.971,1.883,1.859.436-.031.876-.011,1.314,0,.926.018,1.312.406,1.328,1.342.011.657,0,1.314,0,1.971,0,.543.04.568.518.33,2.131-1.063,4.267-2.118,6.388-3.2a4.1,4.1,0,0,1,1.93-.451q11.723.016,23.446.007a3.753,3.753,0,0,0,.656-.024,1.273,1.273,0,0,0,1.021-1.051,3.174,3.174,0,0,0,.03-.573q0-11.579,0-23.158a1.726,1.726,0,0,0-.14-.882,1.319,1.319,0,0,0-1.07-.734c-.191-.017-.383-.011-.574-.011H25.232a2.461,2.461,0,0,1-.774-.064.737.737,0,0,1-.57-.886" transform="translate(0 0)"/>
          <path id="Trazado_131509" data-name="Trazado 131509" d="M27.7,2.731a.869.869,0,0,0,1.024.822H42.56a1.459,1.459,0,0,1,1.66,1.66c0,7.733-.015,15.465.017,23.2a1.641,1.641,0,0,1-1.849,1.869c-7.91-.033-15.821-.013-23.732-.024a3.008,3.008,0,0,0-1.411.338c-2.278,1.154-4.566,2.291-6.85,3.433-.12.06-.243.113-.363.169-.128-.111-.076-.242-.077-.354-.005-.862,0-1.725,0-2.587a.87.87,0,0,0-.98-.99c-.671-.008-1.342,0-2.012,0a1.41,1.41,0,0,1-1.5-1.521q0-11.825,0-23.65A1.425,1.425,0,0,1,6.992,3.554q6.98,0,13.96,0a.871.871,0,0,0,1.025-.822H24c.119.066.141.2.2.3a.707.707,0,0,0,1.277,0c.054-.107.077-.236.2-.3H27.7" transform="translate(-3.812 -1.908)" fill="#fe5d7c"/>
          <path id="Trazado_131510" data-name="Trazado 131510" d="M68.678.831c-.123.547-.421.833-.855.821s-.695-.284-.814-.821c.118-.538.386-.808.814-.819s.732.27.855.819" transform="translate(-46.817 -0.008)" fill="#010101"/>
          <path id="Trazado_131511" data-name="Trazado 131511" d="M27.752,40.014c.356-.536.409-1.255,1.159-1.243.722.012.782.7,1.088,1.194a8.2,8.2,0,0,0,.159-1.484c.087-.816.133-1.636.19-2.454.042-.6.367-.932.889-.9a.805.805,0,0,1,.75.976c-.138,1.923-.3,3.845-.446,5.768q-.053.675-.113,1.349a.822.822,0,0,1-1.6.285c-.306-.635-.6-1.275-.931-1.971-.315.668-.6,1.283-.9,1.9-.23.485-.552.7-.94.63a.877.877,0,0,1-.716-.921q-.273-3.518-.536-7.036a.82.82,0,1,1,1.625-.153c.118,1.319.209,2.64.319,4.066" transform="translate(-18.029 -24.538)"/>
          <path id="Trazado_131512" data-name="Trazado 131512" d="M50.7,39.574c0-1.163,0-2.325,0-3.488,0-.6.311-.96.823-.959s.816.352.818.961c0,.793.009,1.587,0,2.38,0,.231.061.309.3.3q.717-.026,1.436,0c.239.008.3-.078.3-.306-.011-.793-.008-1.587,0-2.38,0-.613.308-.958.822-.954a.818.818,0,0,1,.815.929q.011,3.528,0,7.057a.851.851,0,0,1-.84.959c-.492-.012-.794-.382-.8-.993,0-.78-.011-1.559,0-2.339.005-.272-.083-.355-.352-.342a13.064,13.064,0,0,1-1.313,0c-.28-.015-.378.058-.37.356.022.793.01,1.586.006,2.38a.827.827,0,1,1-1.64.008c-.005-1.19,0-2.38,0-3.57" transform="translate(-35.42 -24.542)"/>
          <path id="Trazado_131513" data-name="Trazado 131513" d="M73.472,39.557c0-.588-.011-1.177,0-1.765a2.645,2.645,0,1,1,5.288.065c0,1.176,0,2.353,0,3.529a2.641,2.641,0,0,1-5.282.1c-.024-.642,0-1.286,0-1.929h0" transform="translate(-51.329 -24.54)"/>
          <path id="Trazado_131514" data-name="Trazado 131514" d="M99.148,32.134a2.455,2.455,0,0,1,2.1,1.515,2.538,2.538,0,0,1-.372,2.839c-.267.328-.567.631-.856.94a1.261,1.261,0,0,0-.344.892c-.007.584-.321.921-.816.919s-.818-.38-.82-.969a2.775,2.775,0,0,1,.783-1.968c.252-.27.506-.538.751-.815a1.041,1.041,0,0,0,.162-1.214,1.005,1.005,0,0,0-1.876.457c-.068.566-.415.9-.891.859a.863.863,0,0,1-.746-1.037,2.729,2.729,0,0,1,2.923-2.419" transform="translate(-67.226 -22.451)"/>
          <path id="Trazado_131515" data-name="Trazado 131515" d="M103.081,59.393a.79.79,0,0,1,.825.774.816.816,0,0,1-.795.859.848.848,0,0,1-.838-.827.817.817,0,0,1,.807-.805" transform="translate(-71.455 -41.495)" fill="#010001"/>
          <path id="Trazado_131516" data-name="Trazado 131516" d="M78.92,43.423c0-.574-.006-1.148,0-1.722.009-.706.4-1.13,1.02-1.123a1,1,0,0,1,.984,1.12q0,1.723,0,3.445a1.023,1.023,0,0,1-.98,1.1,1.011,1.011,0,0,1-1.021-1.051c-.015-.587,0-1.175,0-1.763" transform="translate(-55.136 -28.35)" fill="#fe5d7c"/>
        </g>
      </g>
    </g>
  </g>
</svg>
