<svg xmlns="http://www.w3.org/2000/svg" xmlns:xlink="http://www.w3.org/1999/xlink" width="99" height="99" viewBox="0 0 99 99">
  <defs>
    <clipPath id="clip-path">
      <rect id="Rectángulo_37884" data-name="Rectángulo 37884" width="67.158" height="53.065" fill="none"/>
    </clipPath>
  </defs>
  <g id="Grupo_157819" data-name="Grupo 157819" transform="translate(-1171 -5097)">
    <circle id="Elipse_4760" data-name="Elipse 4760" cx="49.5" cy="49.5" r="49.5" transform="translate(1171 5097)" fill="#1169e3"/>
    <g id="Grupo_156593" data-name="Grupo 156593" transform="translate(833.421 454)">
      <path id="Trazado_127053" data-name="Trazado 127053" d="M15.507,123.96c-.454.1-.559-.113-.555-.537.012-1.063-.007-1.081-1.106-1.075-.409,0-.536-.124-.528-.529.007-.377.077-.553.512-.551,1.1,0,1.131-.018,1.119-1.119-.005-.5.239-.507.608-.511s.56.058.56.5c0,1.115.023,1.135,1.112,1.131.421,0,.521.15.522.541s-.1.541-.52.539c-1.11-.006-1.137.014-1.112,1.066.012.488-.169.631-.611.545" transform="translate(339.683 4578.363)" fill="#29c4bb"/>
      <path id="Trazado_127054" data-name="Trazado 127054" d="M213.642,151.161c.406-.078.632.057.565.517-.056.385.077.6.5.533s.57.088.573.537c0,.47-.189.578-.589.525-.383-.052-.5.115-.5.5.012.6-.357.826-.934.645-.274-.086-.214-.3-.2-.477.048-.472-.06-.76-.616-.666-.431.073-.457-.2-.456-.527s.014-.6.451-.53c.471.073.694-.1.616-.6-.075-.475.23-.5.582-.454" transform="translate(205.528 4558.239)" fill="#29c4bb"/>
      <path id="Trazado_127055" data-name="Trazado 127055" d="M210.718,69.268c.1.453-.1.608-.527.537-.46-.078-.648.111-.567.569s-.113.548-.542.553-.609-.127-.532-.557c.082-.459-.109-.648-.565-.562-.472.089-.513-.158-.531-.555-.021-.466.16-.588.566-.517.441.077.606-.106.531-.537-.072-.412.061-.579.521-.563.4.014.639.072.552.536s.115.639.567.563c.425-.072.632.081.526.534" transform="translate(208.976 4610.651)" fill="#010000"/>
      <path id="Trazado_127056" data-name="Trazado 127056" d="M55.04,186.64c.1.423-.11.578-.532.5-.5-.09-.614.169-.543.587.079.465-.146.537-.555.535-.39,0-.6-.091-.518-.511.108-.553-.169-.688-.645-.607s-.466-.225-.467-.559.007-.6.448-.512c.593.117.745-.168.665-.7-.077-.508.311-.362.569-.377.274-.016.579-.052.5.389-.1.545.092.8.67.687.482-.092.423.243.409.566" transform="translate(313.711 4536.959)" fill="#010000"/>
      <path id="Trazado_127057" data-name="Trazado 127057" d="M121.786,17.426c-.114-.483.153-.577.548-.518.41.061.572-.109.509-.513s.058-.588.522-.578c.427.009.623.119.548.558s.131.6.553.533c.391-.059.587.035.589.513s-.182.62-.608.553c-.45-.072-.6.133-.533.553.078.472-.175.526-.572.534-.424.009-.562-.151-.5-.54.068-.427-.09-.622-.535-.547s-.62-.106-.523-.547" transform="translate(266.46 4643.184)" fill="#29c4bb"/>
    </g>
    <g id="Grupo_158043" data-name="Grupo 158043" transform="translate(1186.421 5119.968)">
      <g id="Grupo_158043-2" data-name="Grupo 158043" transform="translate(0 0)" clip-path="url(#clip-path)">
        <path id="Trazado_131566" data-name="Trazado 131566" d="M29.583,57.214a7.981,7.981,0,0,0-2.4-4.908c-2.418-2.453-4.861-4.881-7.3-7.31a1.791,1.791,0,0,0-2.654-.11A1.812,1.812,0,0,0,17.36,47.5c1.062,1.085,2.15,2.144,3.216,3.226a3.385,3.385,0,0,1,.146,4.867,3.474,3.474,0,0,1-4.941-.093c-2.784-2.76-5.546-5.542-8.32-8.312a2.974,2.974,0,0,1-.921-2.121c-.008-.453-.005-.907-.035-1.359a.911.911,0,0,1,.638-1.057h0a3.662,3.662,0,0,1,.1-1.318.685.685,0,0,1-.759-.6c-.064-.465.271-.66.643-.8A3.5,3.5,0,0,1,7.24,38.6c-.568-.01-.807-.31-.794-.864.012-.5.011-1-.011-1.495a2.059,2.059,0,0,0-2.042-2.03,2.018,2.018,0,0,0-2.006,2.054c.021,4.054.07,8.109.108,12.163a2.486,2.486,0,0,0,.895,1.761c4.552,4.545,9.088,9.108,13.658,13.634a2.261,2.261,0,0,1,.83,2.014,9.1,9.1,0,0,0,.013,1.288H29.7c-.007-3.3.192-6.615-.12-9.913M19.353,47.143c-.6-.016-1.363-.77-1.338-1.2a.686.686,0,0,1,.624-.683c.372-.055,1.279.865,1.272,1.252-.008.454-.277.633-.558.631M28.9,64.609c.009.511-.125.976-.675.984s-.7-.444-.7-.961c.014-1.812-.012-3.624.01-5.435A7.516,7.516,0,0,0,25.1,53.322c-1.389-1.3-2.7-2.681-4.044-4.026-.128-.128-.261-.253-.376-.392a.622.622,0,0,1-.009-.914.659.659,0,0,1,.972,0c.4.364.782.755,1.158,1.148,1.47,1.536,3.092,2.925,4.446,4.574a7.943,7.943,0,0,1,1.631,4.849c.048.994.009,1.992.01,2.989,0,1.019-.012,2.039.006,3.057" transform="translate(-1.029 -14.745)" fill="#feb59e"/>
        <path id="Trazado_131567" data-name="Trazado 131567" d="M94.852,43.913c.032-2.538.062-5.076.075-7.615a1.973,1.973,0,0,0-1.192-1.9,1.87,1.87,0,0,0-2.045.232,2.105,2.105,0,0,0-.822,1.778c-.023,2.742-.079,5.484-.077,8.226a3.683,3.683,0,0,1-1.165,2.781c-2.681,2.64-5.332,5.31-7.985,7.978a3.5,3.5,0,0,1-3.6,1.035,3.331,3.331,0,0,1-1.454-5.557c1.078-1.132,2.2-2.219,3.311-3.323a1.979,1.979,0,0,0,.66-1.3,1.657,1.657,0,0,0-.908-1.688,1.7,1.7,0,0,0-1.916.154,4.169,4.169,0,0,0-.449.414C75,47.418,72.714,49.721,70.407,52A8.956,8.956,0,0,0,67.6,58.553c-.014,2.855,0,5.71.009,8.565H79.421a.745.745,0,0,0,.02-.2c-.3-1.658.448-2.785,1.625-3.925,4.226-4.09,8.344-8.292,12.5-12.454a5.488,5.488,0,0,0,1.018-1.174.787.787,0,0,1,.887-.336h0L95.5,47.7a.7.7,0,0,1-.656-.663c-.02-.427.279-.636.657-.744a3.659,3.659,0,0,1,.1-1.32c-.676-.052-.759-.51-.752-1.06M77.926,64.671c-.429-.009-.674-.212-.661-.659s.645-1.126,1.04-1.079a.742.742,0,0,1,.694.706c.039.407-.638,1.033-1.073,1.032M94.1,36.677c-.2,3.967-.07,7.747-.106,11.525a1.83,1.83,0,0,1-.582,1.325q-6.2,6.2-12.4,12.394a1.8,1.8,0,0,1-.486.36.624.624,0,0,1-.8-.129.605.605,0,0,1-.02-.809,7.154,7.154,0,0,1,.656-.774Q86.191,54.727,92.04,48.9a1.866,1.866,0,0,0,.605-1.484c-.034-2.559.013-5.118-.019-7.677-.014-1.134.14-2.255.13-3.385,0-.4.089-.733.556-.782.493-.051.681.294.78.687a1.177,1.177,0,0,1,.009.418" transform="translate(-29.131 -14.737)" fill="#feb59e"/>
        <path id="Trazado_131568" data-name="Trazado 131568" d="M48.1,23.813q2.624-2.616,5.241-5.24c.7-.7.964-.695,1.677.018q2.622,2.619,5.238,5.242a2.269,2.269,0,0,0,1.889.745,1.922,1.922,0,0,0,1.735-1.321A2.042,2.042,0,0,0,63.4,21q-2.3-2.318-4.617-4.614a1.3,1.3,0,0,1-.429-1.016c.017-1.631.021-3.263,0-4.895-.006-.416.1-.535.525-.528,1.564.026,3.129.028,4.692,0a2.054,2.054,0,0,0,1.993-2.012,2.075,2.075,0,0,0-1.932-2.073c-.429-.03-.861-.017-1.291-.017-1.9,0-3.791,0-5.76,0a6.144,6.144,0,0,0,.34-3.329A2.736,2.736,0,0,0,53.993,0a2.782,2.782,0,0,0-2.67,2.729,6.075,6.075,0,0,0,.355,3.07h-10.7a5.82,5.82,0,0,0,.339-3.315A2.745,2.745,0,0,0,38.351,0,2.8,2.8,0,0,0,35.7,2.76a6.047,6.047,0,0,0,.367,3.061H25.357a5.753,5.753,0,0,0,.376-2.893,2.822,2.822,0,1,0-5.641-.07,5.828,5.828,0,0,0,.381,2.985c-2.3,0-4.51-.005-6.725,0a2.065,2.065,0,1,0,0,4.111c1.473.007,2.946.019,4.42-.009.422-.008.533.106.527.525q-.038,2.447,0,4.9a1.442,1.442,0,0,1-.475,1.134c-1.486,1.462-2.952,2.946-4.43,4.417a2.255,2.255,0,0,0-.7,1.211,2.106,2.106,0,0,0,3.578,1.885c1.838-1.816,3.658-3.65,5.487-5.476.643-.642.949-.646,1.585-.012q2.674,2.663,5.343,5.331a2.143,2.143,0,0,0,3.381-.019q2.649-2.64,5.291-5.286c.673-.672.952-.672,1.633.007Q42,21.179,44.622,23.8a2.169,2.169,0,0,0,3.482.011M52.678,2.776a1.437,1.437,0,0,1,1.373-1.41A1.383,1.383,0,0,1,55.57,2.674a10.2,10.2,0,0,1,0,1.827,1.437,1.437,0,0,1-1.45,1.334A1.486,1.486,0,0,1,52.678,4.4c-.019-.27,0-.542,0-.814s-.015-.543,0-.814M37.09,2.589a1.452,1.452,0,0,1,2.87,0,6.556,6.556,0,0,1,.009,1.015h.047a8.073,8.073,0,0,1-.064,1.012,1.463,1.463,0,0,1-1.429,1.215A1.444,1.444,0,0,1,37.1,4.618a6.964,6.964,0,0,1-.007-2.029m-15.608.067a1.379,1.379,0,0,1,1.466-1.293,1.439,1.439,0,0,1,1.42,1.363c.026.292,0,.588,0,.881h0a8.418,8.418,0,0,1-.005.881A1.481,1.481,0,0,1,22.91,5.834a1.419,1.419,0,0,1-1.424-1.285,10.263,10.263,0,0,1,0-1.893M40.327,17.579a2.181,2.181,0,0,0-3.532.008q-2.622,2.618-5.242,5.237c-.651.649-.935.65-1.582.006q-2.6-2.591-5.2-5.188c-1.281-1.278-2.364-1.285-3.629-.023q-2.623,2.618-5.239,5.24c-.389.391-.812.678-1.279.2s-.173-.9.216-1.283c1.464-1.452,2.909-2.923,4.382-4.367a2.587,2.587,0,0,0,.826-2c-.025-1.926-.006-3.852-.009-5.778,0-.869-.17-1.041-1.021-1.042-1.722,0-3.445-.009-5.167,0-.538,0-1.007-.113-.988-.737.018-.582.483-.667.986-.666q12.373.009,24.746,0H62.938c.544,0,1.159-.087,1.251.686.059.491-.349.708-1.223.709-1.654,0-3.308,0-4.962,0-.819,0-1,.178-1,1,0,1.926.015,3.852-.009,5.778a2.59,2.59,0,0,0,.843,1.989c1.506,1.474,2.982,2.978,4.477,4.464.369.368.534.777.137,1.184s-.825.239-1.2-.107c-.116-.108-.225-.224-.337-.336q-2.451-2.452-4.9-4.9c-1.317-1.316-2.365-1.319-3.673-.013q-2.453,2.451-4.9,4.9c-1.043,1.044-1.1,1.043-2.165-.023q-2.475-2.475-4.951-4.951" transform="translate(-4.949 0)"/>
        <path id="Trazado_131569" data-name="Trazado 131569" d="M66.379,65.269c-.006-2.674-.039-5.348.008-8.021a8.658,8.658,0,0,1,2.536-6.063c2.375-2.431,4.8-4.817,7.205-7.216a2.1,2.1,0,0,1,1.465-.762,1.828,1.828,0,0,1,1.8.863,2.011,2.011,0,0,1-.084,2.189,4.4,4.4,0,0,1-.63.711c-.99,1-2.018,1.957-2.969,2.991a3.109,3.109,0,0,0,.938,5.1,3.03,3.03,0,0,0,3.478-.558q4.382-4.318,8.7-8.7a2.574,2.574,0,0,0,.684-1.721c.211-2.851.087-5.706.123-8.558a2.428,2.428,0,0,1,.809-1.942,1.973,1.973,0,0,1,2.083-.445,2.124,2.124,0,0,1,1.51,1.922,62.565,62.565,0,0,1-.024,6.452c-.016.248-.046.5-.067.744a1.8,1.8,0,0,0,.616,1.7c.5-.106.611-.458.613-.911.019-2.607.051-5.213.072-7.819a3.292,3.292,0,0,0-.454-1.684,3.385,3.385,0,0,0-6.32,1.7q-.064,4.215-.088,8.431a2.251,2.251,0,0,1-.7,1.7c-2.7,2.681-5.387,5.383-8.084,8.071a2.141,2.141,0,0,1-3.09.166,2.047,2.047,0,0,1,.207-3.014c1.054-1.062,2.121-2.109,3.17-3.176a3.158,3.158,0,0,0,.073-4.558,3.12,3.12,0,0,0-4.5.118c-2.38,2.365-4.739,4.749-7.123,7.109a10.318,10.318,0,0,0-3.15,7.492c-.031,2.764-.01,5.53-.021,8.295,0,.418.057.8.529.9.511.105.732-.238.863-.664-.244-.237-.184-.547-.185-.834" transform="translate(-28.087 -13.721)"/>
        <path id="Trazado_131570" data-name="Trazado 131570" d="M67.457,58.421a8.954,8.954,0,0,1,2.808-6.556c2.306-2.277,4.588-4.58,6.881-6.87a4.223,4.223,0,0,1,.449-.414,1.7,1.7,0,0,1,1.915-.154,1.656,1.656,0,0,1,.909,1.688,1.976,1.976,0,0,1-.66,1.3c-1.107,1.1-2.233,2.191-3.311,3.324A3.331,3.331,0,0,0,77.9,56.3a3.505,3.505,0,0,0,3.6-1.036c2.653-2.668,5.3-5.338,7.985-7.978A3.678,3.678,0,0,0,90.648,44.5c0-2.742.054-5.484.078-8.226a2.1,2.1,0,0,1,.822-1.778,1.87,1.87,0,0,1,2.045-.232,1.973,1.973,0,0,1,1.192,1.9q-.02,3.808-.075,7.615c-.007.55.076,1.008.752,1.06a1.8,1.8,0,0,1-.616-1.7c.021-.248.051-.5.067-.743a62.576,62.576,0,0,0,.024-6.452,2.124,2.124,0,0,0-1.51-1.922,1.973,1.973,0,0,0-2.083.445,2.428,2.428,0,0,0-.809,1.942c-.036,2.853.088,5.707-.123,8.558a2.577,2.577,0,0,1-.684,1.722q-4.331,4.369-8.7,8.7a3.029,3.029,0,0,1-3.478.558,3.109,3.109,0,0,1-.938-5.1c.951-1.033,1.98-1.993,2.969-2.991a4.4,4.4,0,0,0,.63-.711,2.011,2.011,0,0,0,.084-2.189,1.828,1.828,0,0,0-1.8-.863,2.1,2.1,0,0,0-1.465.762c-2.408,2.4-4.83,4.784-7.205,7.216a8.658,8.658,0,0,0-2.536,6.063c-.047,2.673-.014,5.347-.008,8.021,0,.287-.059.6.185.834,0-2.855-.022-5.71-.009-8.564" transform="translate(-28.989 -14.604)"/>
        <path id="Trazado_131571" data-name="Trazado 131571" d="M34.29,64.58a9.585,9.585,0,0,0-2.714-6.631c-2.523-2.6-5.105-5.151-7.685-7.7a2.932,2.932,0,0,0-3.14-.713,3.12,3.12,0,0,0-1.236,5.182c1.129,1.178,2.313,2.3,3.448,3.474a1.993,1.993,0,0,1-1.912,3.346,2.44,2.44,0,0,1-1.2-.728c-2.383-2.393-4.727-4.826-7.181-7.145A4.03,4.03,0,0,1,11.1,50a.8.8,0,0,0-.72-.971,3.805,3.805,0,0,0,.421,4.321c2.81,2.832,5.661,5.624,8.45,8.476a3.416,3.416,0,0,0,4.512.093,3.176,3.176,0,0,0,.064-4.533c-1-1.081-2.075-2.092-3.115-3.135a3.071,3.071,0,0,1-.719-.979,2.021,2.021,0,0,1,.494-2.243,2.09,2.09,0,0,1,2.413-.061,5.858,5.858,0,0,1,.7.64l6.732,6.731a9.131,9.131,0,0,1,2.787,6.719c0,2.516,0,5.032,0,7.548,0,.307.081.642-.178.9.131.427.352.769.863.664.473-.1.531-.479.529-.9-.013-2.9.029-5.8-.039-8.7" transform="translate(-4.263 -21.132)"/>
        <path id="Trazado_131572" data-name="Trazado 131572" d="M33,72.611c.007-2.516,0-5.032,0-7.548a9.132,9.132,0,0,0-2.786-6.718q-3.367-3.365-6.733-6.731a5.722,5.722,0,0,0-.7-.64,2.088,2.088,0,0,0-2.413.06,2.021,2.021,0,0,0-.5,2.243,3.068,3.068,0,0,0,.72.979C21.63,55.3,22.7,56.31,23.7,57.391a3.176,3.176,0,0,1-.065,4.533,3.416,3.416,0,0,1-4.512-.093c-2.789-2.853-5.64-5.644-8.45-8.477a3.805,3.805,0,0,1-.421-4.321.912.912,0,0,0-.639,1.057c.031.452.027.906.035,1.359a2.97,2.97,0,0,0,.922,2.121c2.773,2.771,5.536,5.553,8.32,8.313a3.474,3.474,0,0,0,4.941.093,3.386,3.386,0,0,0-.145-4.867c-1.066-1.081-2.154-2.141-3.216-3.225a1.812,1.812,0,0,1-.134-2.611,1.791,1.791,0,0,1,2.654.11c2.442,2.429,4.886,4.857,7.3,7.31A7.983,7.983,0,0,1,32.7,63.6c.312,3.3.113,6.608.12,9.913.258-.261.176-.6.178-.9" transform="translate(-4.143 -21.132)"/>
        <path id="Trazado_131573" data-name="Trazado 131573" d="M16.678,64.85A2.224,2.224,0,0,0,15.905,63c-4.56-4.638-9.12-9.275-13.744-13.85a2.715,2.715,0,0,1-.876-2.118c.1-3.806-.218-7.607-.133-11.414a2.607,2.607,0,0,1,.731-1.981,1.987,1.987,0,0,1,2.126-.531A2.291,2.291,0,0,1,5.567,35,4.5,4.5,0,0,1,5.6,36.088a1.458,1.458,0,0,0,.613,1.471.733.733,0,0,0,.571-.808c-.013-.566.01-1.133-.024-1.7a3.271,3.271,0,0,0-1.191-2.425,3.2,3.2,0,0,0-3.554-.514A3.215,3.215,0,0,0,0,35.23c.011,3.894.088,7.789.088,11.684a4.343,4.343,0,0,0,1.367,3.263c4.275,4.244,8.5,8.535,12.8,12.756a3.108,3.108,0,0,1,1.231,2.917.688.688,0,0,0,.52.894c.5.1.743-.216.856-.66a1.5,1.5,0,0,1-.184-1.234" transform="translate(0 -13.701)"/>
        <path id="Trazado_131574" data-name="Trazado 131574" d="M17.711,65.7a2.262,2.262,0,0,0-.83-2.014C12.31,59.159,7.774,54.6,3.222,50.051a2.488,2.488,0,0,1-.894-1.761c-.038-4.054-.087-8.109-.108-12.162a2.018,2.018,0,0,1,2.006-2.055A2.059,2.059,0,0,1,6.268,36.1c.023.5.023,1,.011,1.495-.013.554.226.855.794.864a1.459,1.459,0,0,1-.613-1.472,4.563,4.563,0,0,0-.031-1.086,2.291,2.291,0,0,0-1.559-1.9,1.986,1.986,0,0,0-2.126.531,2.605,2.605,0,0,0-.731,1.98c-.085,3.807.232,7.608.133,11.415a2.714,2.714,0,0,0,.876,2.117c4.623,4.576,9.184,9.213,13.744,13.85a2.224,2.224,0,0,1,.772,1.85,1.5,1.5,0,0,0,.184,1.234,9.1,9.1,0,0,1-.013-1.288" transform="translate(-0.862 -14.605)"/>
        <path id="Trazado_131575" data-name="Trazado 131575" d="M102.076,62.45c-.3.3-.567.642-.871.946q-5.971,5.97-11.951,11.93a2.07,2.07,0,0,0-.712,1.728c.028.428.162.9-.165,1.3.111.446.351.763.854.66.465-.094.553-.471.533-.892-.012-.248.026-.5-.007-.745a1.755,1.755,0,0,1,.656-1.584q6.7-6.639,13.346-13.323a6.689,6.689,0,0,0,.836-.976.794.794,0,0,0-.166-1.232,9.161,9.161,0,0,0-2.351,2.187" transform="translate(-38.088 -25.971)"/>
        <path id="Trazado_131576" data-name="Trazado 131576" d="M103.507,60.588a5.517,5.517,0,0,1-1.019,1.174c-4.157,4.162-8.274,8.364-12.5,12.455-1.177,1.14-1.92,2.267-1.625,3.925a.726.726,0,0,1-.02.2c.327-.4.193-.873.166-1.3a2.071,2.071,0,0,1,.711-1.728q6-5.942,11.951-11.93c.3-.3.57-.646.871-.946a9.171,9.171,0,0,1,2.351-2.187.785.785,0,0,0-.887.336" transform="translate(-38.054 -25.961)"/>
        <path id="Trazado_131577" data-name="Trazado 131577" d="M116.313,56.863c.4-.061.678-.251.682-.7s-.3-.617-.681-.712c-.563.7-.563.7,0,1.407" transform="translate(-49.946 -23.9)" fill="#070605"/>
        <path id="Trazado_131578" data-name="Trazado 131578" d="M115.479,56.2a.7.7,0,0,0,.656.663c-.562-.708-.562-.708,0-1.408-.378.109-.677.317-.657.744" transform="translate(-49.768 -23.899)" fill="#070605"/>
        <path id="Trazado_131579" data-name="Trazado 131579" d="M10.336,45.466a.285.285,0,0,1,.168.191.681.681,0,0,0,.577-.71c0-.466-.384-.539-.693-.69a.561.561,0,0,1-.183.27c-.384.372-.352.686.13.939" transform="translate(-4.285 -19.073)" fill="#050403"/>
        <path id="Trazado_131580" data-name="Trazado 131580" d="M9.59,45.06a.685.685,0,0,0,.759.6.286.286,0,0,0-.168-.192c-.482-.253-.514-.566-.13-.939a.559.559,0,0,0,.183-.27c-.372.142-.706.339-.643.8" transform="translate(-4.13 -19.073)" fill="#050403"/>
        <path id="Trazado_131581" data-name="Trazado 131581" d="M42.583,68.835a7.948,7.948,0,0,0-1.632-4.849c-1.354-1.648-2.976-3.037-4.446-4.574-.376-.393-.756-.784-1.158-1.148a.66.66,0,0,0-.973,0,.623.623,0,0,0,.009.915c.116.139.248.264.376.392C36.1,60.914,37.415,62.3,38.8,63.595a7.513,7.513,0,0,1,2.433,5.875c-.022,1.811,0,3.623-.009,5.435,0,.517.145.97.695.961s.685-.473.675-.984c-.018-1.019-.006-2.038-.006-3.057,0-1,.039-2-.009-2.989" transform="translate(-14.73 -25.017)" fill="#fadfe1"/>
        <path id="Trazado_131582" data-name="Trazado 131582" d="M30.473,53.625a.685.685,0,0,0-.624.683c-.024.43.734,1.184,1.338,1.2.281,0,.55-.178.558-.631.007-.388-.9-1.307-1.272-1.252" transform="translate(-12.864 -23.11)" fill="#fadfe0"/>
        <path id="Trazado_131583" data-name="Trazado 131583" d="M102.372,36.613c-.466.049-.559.378-.556.782.01,1.13-.143,2.252-.129,3.385.031,2.559-.016,5.119.018,7.678a1.865,1.865,0,0,1-.605,1.484q-5.86,5.815-11.682,11.669a7.052,7.052,0,0,0-.657.774.6.6,0,0,0,.021.808.623.623,0,0,0,.8.129,1.792,1.792,0,0,0,.486-.36q6.2-6.193,12.4-12.394a1.828,1.828,0,0,0,.582-1.325c.036-3.778-.1-7.558.106-11.525a1.185,1.185,0,0,0-.008-.418c-.1-.393-.287-.738-.78-.687" transform="translate(-38.191 -15.777)" fill="#fadfe1"/>
        <path id="Trazado_131584" data-name="Trazado 131584" d="M85.629,84.7c-.4-.047-1.028.624-1.04,1.079s.232.65.661.659,1.112-.625,1.073-1.032a.743.743,0,0,0-.694-.706" transform="translate(-36.455 -36.501)" fill="#fadee0"/>
        <path id="Trazado_131585" data-name="Trazado 131585" d="M48.49,28.007l4.9-4.9c1.308-1.306,2.356-1.3,3.673.012q2.452,2.451,4.9,4.9c.112.113.221.229.337.336.371.347.8.516,1.2.107s.232-.815-.137-1.182c-1.494-1.486-2.97-2.991-4.476-4.465a2.587,2.587,0,0,1-.843-1.989c.024-1.926.005-3.852.009-5.778,0-.82.178-1,1-1,1.654,0,3.309,0,4.963,0,.873,0,1.281-.217,1.223-.709-.092-.773-.708-.685-1.252-.685H39.647q-12.373,0-24.746,0c-.5,0-.969.084-.987.667-.019.624.451.74.988.736,1.722-.012,3.444-.006,5.167,0,.852,0,1.02.174,1.021,1.042,0,1.926-.016,3.852.009,5.778a2.589,2.589,0,0,1-.826,2c-1.473,1.443-2.918,2.914-4.382,4.367-.389.386-.681.811-.216,1.282s.889.186,1.278-.205q2.613-2.626,5.239-5.239c1.266-1.263,2.348-1.256,3.629.023q2.6,2.593,5.2,5.187c.646.645.931.643,1.582-.007q2.624-2.615,5.242-5.236a2.18,2.18,0,0,1,3.532-.008q2.479,2.472,4.951,4.951c1.066,1.066,1.121,1.066,2.165.023m-11.775-6.89a2.16,2.16,0,0,1-.667,1.579c-1.2,1.2-2.4,2.4-3.6,3.6-.517.512-.782.507-1.31-.018-1.205-1.195-2.4-2.4-3.6-3.6a2.375,2.375,0,0,1-.726-1.766c0-1.969,0-3.938,0-5.907,0-.739.228-.951.984-.954,1.336-.005,2.671,0,4.007,0s2.671.008,4.006,0c.617,0,.918.255.916.891-.01,2.059,0,4.119,0,6.179m5.708-.193c.014-1.968,0-3.938.006-5.907,0-.754.209-.962.967-.964,1.336-.006,2.671,0,4.007,0,1.313,0,2.626,0,3.939,0,.766,0,.992.211.995.946.007,2.013,0,4.028,0,6.043a2.31,2.31,0,0,1-.716,1.7c-1.186,1.181-2.366,2.371-3.556,3.549-.521.517-.787.513-1.312-.006-1.205-1.2-2.4-2.4-3.6-3.6a2.347,2.347,0,0,1-.727-1.762" transform="translate(-5.997 -5.452)" fill="#72c1e8"/>
        <path id="Trazado_131586" data-name="Trazado 131586" d="M30.45,6.867A1.481,1.481,0,0,0,31.9,5.521a8.419,8.419,0,0,0,.005-.881h0c0-.294.022-.59,0-.881A1.438,1.438,0,0,0,30.488,2.4a1.378,1.378,0,0,0-1.466,1.293,10.214,10.214,0,0,0,0,1.893A1.42,1.42,0,0,0,30.45,6.867" transform="translate(-12.49 -1.032)" fill="#fdb59e"/>
        <path id="Trazado_131587" data-name="Trazado 131587" d="M57.863,6.867a1.463,1.463,0,0,0,1.429-1.215,7.974,7.974,0,0,0,.064-1.013h-.047A6.556,6.556,0,0,0,59.3,3.624a1.452,1.452,0,0,0-2.869,0,6.94,6.94,0,0,0,.007,2.028,1.445,1.445,0,0,0,1.425,1.218" transform="translate(-24.29 -1.032)" fill="#fdb59e"/>
        <path id="Trazado_131588" data-name="Trazado 131588" d="M83.872,5.436a1.486,1.486,0,0,0,1.443,1.431,1.437,1.437,0,0,0,1.451-1.334,10.259,10.259,0,0,0,0-1.827A1.384,1.384,0,0,0,85.244,2.4a1.438,1.438,0,0,0-1.373,1.411c-.018.27,0,.542,0,.814s-.015.544,0,.814" transform="translate(-36.142 -1.033)" fill="#fdb59e"/>
        <path id="Trazado_131589" data-name="Trazado 131589" d="M45.566,15.1c-1.335.012-2.67,0-4.006,0s-2.671,0-4.007,0c-.757,0-.982.215-.984.954-.006,1.969,0,3.938,0,5.907a2.377,2.377,0,0,0,.726,1.766c1.206,1.194,2.4,2.4,3.6,3.6.529.525.794.53,1.31.018,1.206-1.194,2.4-2.4,3.6-3.6a2.162,2.162,0,0,0,.667-1.579c0-2.06-.005-4.119,0-6.179,0-.636-.3-.9-.916-.891m-.443,6.926a1.1,1.1,0,0,1-.352.842c-.965.956-1.935,1.908-2.875,2.888-.291.3-.443.22-.69-.034q-1.423-1.46-2.881-2.884a1.245,1.245,0,0,1-.4-.962c.013-1.63.02-3.261,0-4.891-.006-.414.1-.546.526-.534,1.041.032,2.083.01,3.125.01,1.019,0,2.039.015,3.057-.007.368-.009.507.073.5.475-.022,1.7-.015,3.4,0,5.1" transform="translate(-15.759 -6.509)"/>
        <path id="Trazado_131590" data-name="Trazado 131590" d="M69.659,27.348c1.19-1.178,2.369-2.367,3.556-3.55a2.309,2.309,0,0,0,.717-1.7c0-2.014.005-4.029,0-6.043,0-.735-.229-.943-1-.946-1.313,0-2.626,0-3.938,0-1.336,0-2.671,0-4.007,0-.758,0-.966.21-.967.964,0,1.969.008,3.938-.006,5.907a2.345,2.345,0,0,0,.728,1.761c1.2,1.2,2.4,2.4,3.6,3.6.524.52.79.523,1.312.007M65.712,22.79a1.036,1.036,0,0,1-.335-.781c.009-1.7.014-3.4,0-5.1,0-.36.1-.458.458-.451,1.041.023,2.084.008,3.126.008s2.085.017,3.126-.009c.385-.009.5.1.5.493-.02,1.676-.014,3.353-.005,5.029a1.184,1.184,0,0,1-.371.907c-.966.955-1.93,1.914-2.876,2.889-.247.254-.395.249-.641,0-.979-1.007-1.979-1.994-2.975-2.985" transform="translate(-27.589 -6.511)"/>
      </g>
    </g>
  </g>
</svg>
