<svg xmlns="http://www.w3.org/2000/svg" xmlns:xlink="http://www.w3.org/1999/xlink" width="59.538" height="59.538" viewBox="0 0 59.538 59.538">
  <defs>
    <clipPath id="clip-path">
      <rect id="Rectángulo_37893" data-name="Rectángulo 37893" width="31.398" height="31.507" fill="none"/>
    </clipPath>
  </defs>
  <g id="Grupo_157920" data-name="Grupo 157920" transform="translate(-0.122 -0.013)">
    <path id="Trazado_127482" data-name="Trazado 127482" d="M29.769,0A29.769,29.769,0,1,1,0,29.769,29.769,29.769,0,0,1,29.769,0Z" transform="translate(0.122 0.013)" fill="#b0c8cb"/>
    <g id="Grupo_156595" data-name="Grupo 156595" transform="translate(9.021 10.224)">
      <path id="Trazado_127053" data-name="Trazado 127053" d="M14.667,122.237c.273.061.336-.068.334-.323-.007-.639,0-.65.665-.646.246,0,.323-.075.318-.318,0-.227-.046-.332-.308-.331-.663,0-.68-.011-.673-.673,0-.3-.144-.305-.366-.307s-.337.035-.337.3c0,.67-.014.682-.669.68-.253,0-.313.09-.314.326s.059.325.313.324c.668,0,.684.009.669.641-.007.294.1.379.368.328" transform="translate(24.796 -96.183)" fill="#29c4bb"/>
      <path id="Trazado_127054" data-name="Trazado 127054" d="M212.981,151.153c-.244-.047-.38.034-.34.311.034.232-.046.36-.3.321s-.343.053-.345.323.113.348.354.315.3.069.3.3c-.007.359.215.5.562.388.165-.052.129-.183.118-.287-.029-.284.036-.457.371-.4.259.044.275-.118.274-.317s-.008-.36-.271-.319c-.283.044-.417-.06-.37-.359s-.138-.3-.35-.273" transform="translate(-211.994 -120.843)" fill="#29c4bb"/>
      <path id="Trazado_127055" data-name="Trazado 127055" d="M207.47,68.616c-.063.273.062.366.317.323.277-.047.39.067.341.342s.068.33.326.332.366-.076.32-.335c-.049-.276.066-.389.34-.338s.309-.1.319-.334c.013-.28-.1-.353-.34-.311-.265.046-.364-.064-.319-.323s-.037-.348-.313-.338c-.244.009-.384.043-.332.322s-.069.384-.341.339c-.256-.043-.38.049-.317.321" transform="translate(-205.475 -63.854)" fill="#010000"/>
      <path id="Trazado_127056" data-name="Trazado 127056" d="M51.8,185.982c-.06.254.066.348.32.3.3-.054.369.1.326.353-.047.28.088.323.334.322s.361-.055.312-.308c-.065-.332.1-.414.388-.365s.28-.135.281-.336,0-.36-.269-.308c-.357.071-.448-.1-.4-.42s-.187-.218-.342-.227-.348-.031-.3.234c.059.328-.056.48-.4.413-.29-.056-.254.146-.246.34" transform="translate(-20.487 -147.133)" fill="#010000"/>
      <path id="Trazado_127057" data-name="Trazado 127057" d="M123.727,16.785c.068-.29-.092-.347-.33-.312s-.344-.065-.306-.309-.035-.354-.314-.348c-.257.005-.374.072-.33.336s-.079.359-.333.321c-.235-.035-.353.021-.354.308s.109.373.366.332.363.08.321.333c-.047.284.105.316.344.321.255.005.338-.091.3-.325-.041-.257.054-.374.322-.329s.373-.064.315-.329" transform="translate(-104.142 -15.817)" fill="#29c4bb"/>
    </g>
    <g id="Grupo_158052" data-name="Grupo 158052" transform="translate(14.122 14.013)">
      <g id="Grupo_158052-2" data-name="Grupo 158052" clip-path="url(#clip-path)">
        <path id="Trazado_131776" data-name="Trazado 131776" d="M27.612,0a.691.691,0,0,1,.31.677c-.006,3.277,0,6.554-.009,9.831,0,.254.037.352.323.338.589-.027.59-.008.59-.595,0-.2.006-.41,0-.614a.5.5,0,0,1,.436-.569c.323-.027.5.107.569.449a3.947,3.947,0,0,1,.029.765c.005.439.015.452.443.454.747,0,1.493-.006,2.24,0a5.989,5.989,0,0,1,.613,0c.234.008.332-.09.33-.325,0-.511,0-1.023,0-1.534,0-.89,0-1.78,0-2.67,0-.357-.03-.381-.386-.387-.184,0-.368.006-.552-.006-.737.011-1.474,0-2.211,0-.467,0-.471.006-.473.486,0,.389,0,.778,0,1.167a.868.868,0,0,1-.129.5c-.113.162-.251.274-.466.18a.489.489,0,0,1-.438-.563c.005-.738,0-1.476,0-2.214a1.013,1.013,0,0,1,.121-.469Q30.072,2.689,31.188.471c.106-.211.23-.4.5-.4s.381.2.487.407q1.1,2.176,2.2,4.347a1.435,1.435,0,0,1,.159.677c0,1.671,0,3.342-.008,5.013,0,.247.045.333.312.326.789-.02,1.578-.009,2.367-.006.463,0,.628.172.617.637a18.358,18.358,0,0,1-1.733,7.043c-.046.1-.1.2-.137.308a.509.509,0,0,1-.651.359.436.436,0,0,1-.333-.531,2.02,2.02,0,0,1,.193-.549,18.6,18.6,0,0,0,1.557-5.385c.022-.184.011-.371.046-.551.051-.264-.079-.326-.3-.319-.3.008-.594-.008-.892-.008q-10.1,0-20.2,0a.748.748,0,0,0-.448.057.792.792,0,0,0-.211.369c-.738,1.857-1.5,3.7-2.266,5.551-.179.432-.1.547.377.553.42,0,.84,0,1.26,0,.528,0,.706.138.809.645.254,1.245.515,2.489.808,3.726.113.479.256.949.385,1.424a2.316,2.316,0,0,0,2.345,1.764,6.712,6.712,0,0,0,1.746-.079c.571-.108.814.077.915.662.2,1.141.406,2.28.6,3.421.1.559.095.56.649.56H31.9c.123,0,.246,0,.369,0,.215,0,.43,0,.645,0,.3-.006.321-.025.276-.32-.126-.83-.255-1.66-.382-2.49-.192-1.255-.388-2.51-.579-3.766a1.343,1.343,0,0,1,.23-1.046c.587-.816,1.093-1.683,1.6-2.551a.921.921,0,0,1,.318-.368c.171-.1.344-.143.495.041a.514.514,0,0,1,.1.76q-.77,1.36-1.642,2.658a.554.554,0,0,0-.094.429q.545,3.468,1.084,6.937a.607.607,0,0,1-.3.725H21.152a.948.948,0,0,1-.323-.62c-.212-1.261-.45-2.518-.659-3.779-.042-.255-.18-.215-.344-.195a6,6,0,0,1-2.554-.176,3.231,3.231,0,0,1-2.218-2.446c-.413-1.5-.741-3.018-1.039-4.543-.056-.286-.152-.4-.464-.384a5.644,5.644,0,0,1-1.257-.022,1.127,1.127,0,0,1-.925-1.507c.334-.921.732-1.818,1.1-2.727.517-1.278,1.036-2.555,1.541-3.838a.605.605,0,0,1,.652-.437c.42.014.84,0,1.26,0,.112,0,.186,0,.208-.149.084-.567.181-1.132.276-1.7a.151.151,0,0,0-.1-.191.462.462,0,0,1-.262-.479c0-.533,0-1.066,0-1.6a.394.394,0,0,1,.156-.38c.2-.1.155-.207.079-.364a2.308,2.308,0,0,1-.086-1.849A21.679,21.679,0,0,1,18.2.245a.893.893,0,0,1,.3-.245h.246a.673.673,0,0,1,.386.279,22.948,22.948,0,0,1,1.874,3.558,2.783,2.783,0,0,1,.057,2.068.4.4,0,0,0,.055.456.615.615,0,0,1,.115.436c0,.492,0,.984,0,1.476a.657.657,0,0,1-.173.508.455.455,0,0,0-.124.424c.062.415.145.828.2,1.245.026.212.139.288.351.295.681.022.681.028.681-.646q0-2.675,0-5.35a3.523,3.523,0,0,1,.009-.4.592.592,0,0,1,.619-.59.573.573,0,0,1,.477.654c.013.666,0,1.333,0,2q0,1.922,0,3.845c0,.467.008.472.487.475.7,0,1.394-.011,2.09.007.234-.006.469-.01.7,0s.358-.072.347-.332c-.013-.3-.038-.344-.36-.346-.378,0-.755-.009-1.133-.009-.345-.076-.525-.26-.522-.531a.564.564,0,0,1,.546-.55,2.585,2.585,0,0,1,.455-.014c.256-.009.512,0,.768,0,.164,0,.231-.076.246-.242.056-.65.036-.677-.609-.683A1.63,1.63,0,0,1,25.931,8a.525.525,0,0,1-.439-.543.509.509,0,0,1,.429-.517,5.87,5.87,0,0,1,.729-.018c.179,0,.255-.079.255-.258,0-.766.038-.659-.608-.668-.132,0-.264.005-.4,0a1.83,1.83,0,0,1-.543-.043q-.462-.131-.468-.522c0-.258.14-.425.451-.526.417-.009.834-.017,1.252-.011.217,0,.306-.082.314-.305.025-.677.032-.677-.637-.681a2.249,2.249,0,0,1-.335-.015.51.51,0,0,1-.439-.477.5.5,0,0,1,.352-.542,1.918,1.918,0,0,1,.759-.071c.205,0,.3-.081.3-.292,0-.4-.005-.8,0-1.2,0-.207-.079-.3-.29-.3-.246,0-.492.006-.738,0-.736.013-1.472,0-2.208.006-.36,0-.385.028-.391.38-.005.327.01.655-.007.982a.551.551,0,0,1-.567.59c-.37-.1-.518-.25-.529-.609q-.028-.9,0-1.811A.509.509,0,0,1,22.567,0Z" transform="translate(-9.021)"/>
        <path id="Trazado_131777" data-name="Trazado 131777" d="M3.117,15.333a.467.467,0,0,1-.446-.318c-.137-.3-.272-.594-.4-.9a1.851,1.851,0,0,0-1.05-1.057c-.3-.124-.6-.262-.9-.4a.474.474,0,0,1,0-.9c.279-.126.554-.262.839-.374a1.88,1.88,0,0,0,1.116-1.111c.111-.285.247-.561.372-.84a.477.477,0,0,1,.917,0c.14.318.289.631.425.951a1.725,1.725,0,0,0,.927.932q.491.215.978.438a.474.474,0,0,1,0,.9c-.316.143-.631.29-.95.425A1.728,1.728,0,0,0,4,14.04c-.141.328-.287.654-.437.979a.464.464,0,0,1-.448.314" transform="translate(0.001 -7.262)"/>
        <path id="Trazado_131778" data-name="Trazado 131778" d="M28.747,58.353c.086-.115.208-.054.31-.054q10.727,0,21.453-.005c.244,0,.323.031.3.313a18.516,18.516,0,0,1-1.731,6.3c-.2.438-.171.57.152.82a6.457,6.457,0,0,0-.431.815.51.51,0,0,0-.689.275q-.831,1.471-1.785,2.867a.838.838,0,0,0-.1.647q.351,2.276.7,4.553c.107.688.211,1.376.326,2.063.028.165-.033.19-.174.185-.286-.012-.573-.01-.86-.014a.476.476,0,0,1-.162-.352c-.336-2.137-.66-4.276-.993-6.414a1.021,1.021,0,0,1,.234-.769c.586-.855,1.123-1.74,1.621-2.649a21.027,21.027,0,0,0,2.694-7.893c0-.02.006-.041.008-.061.054-.485.016-.529-.476-.529q-9.92,0-19.839,0c-.189,0-.393.054-.56-.091" transform="translate(-22.955 -46.54)" fill="#f4af84"/>
        <path id="Trazado_131779" data-name="Trazado 131779" d="M103.723,33.486c-.869,0-1.738,0-2.607.015-.161,0-.183-.069-.18-.2.006-.327.007-.655,0-.982-.008-.381-.11-.5-.486-.587a5.429,5.429,0,0,0,0-.919c.368-.074.479-.2.483-.582.007-.541.008-1.082,0-1.623,0-.169.04-.228.219-.226.857.012,1.714.011,2.57.014a.523.523,0,0,1,.1.4q0,2.142,0,4.283a.534.534,0,0,1-.1.4" transform="translate(-80.211 -22.662)" fill="#fdce4a"/>
        <path id="Trazado_131780" data-name="Trazado 131780" d="M133.364,3.425a.447.447,0,0,1-.292.428c-.279.127-.556.257-.839.375a1.607,1.607,0,0,0-.9.91c-.113.273-.241.541-.362.811a.465.465,0,0,1-.873.007c-.137-.3-.271-.594-.4-.894a1.485,1.485,0,0,0-.8-.8c-.3-.129-.6-.267-.893-.4A.463.463,0,0,1,128,2.984c.28-.125.557-.255.839-.375a1.572,1.572,0,0,0,.868-.863c.12-.282.251-.559.375-.839a.464.464,0,0,1,.44-.322.458.458,0,0,1,.444.315c.128.289.266.574.39.865a1.519,1.519,0,0,0,.823.825c.3.13.6.266.894.4a.442.442,0,0,1,.286.432" transform="translate(-101.966 -0.469)"/>
        <path id="Trazado_131781" data-name="Trazado 131781" d="M18.5,58.631l20.545,0c.442,0,.469,0,.432.451a16.7,16.7,0,0,1-.746,3.645,27.074,27.074,0,0,1-2.493,5.424c-.39.673-.824,1.318-1.251,1.965-.18.273-.073.519-.038.761.181,1.248.4,2.491.59,3.738.133.855.252,1.711.379,2.567a1.843,1.843,0,0,0,.055.207c-.943,0-1.886.01-2.829.011-2.481,0-4.962,0-7.443.008-.251,0-.325-.079-.363-.308-.217-1.282-.448-2.561-.676-3.842-.087-.489-.267-.607-.776-.512a6.07,6.07,0,0,1-2.2.037,2.305,2.305,0,0,1-1.977-1.69c-.513-1.7-.847-3.436-1.2-5.17-.121-.588-.193-.656-.789-.656-.482,0-.964.006-1.445,0-.329-.006-.429-.153-.307-.455q1.243-3.071,2.5-6.137c.007-.017.026-.03.04-.045" transform="translate(-12.706 -46.818)" fill="#fdc7a1"/>
        <path id="Trazado_131782" data-name="Trazado 131782" d="M68,7.457q-.009-.452-.019-.9c.362-.085.463-.2.467-.567,0-.41.006-.82,0-1.23,0-.145.038-.2.188-.193.84.009,1.68.009,2.52.012a.416.416,0,0,1,.092.314c0,.449.006.9,0,1.346a.351.351,0,0,1-.148.346c-.4.3-.379.63.057.883a1.75,1.75,0,0,1,.066.98c-.006.1-.081.152-.191.153a1.913,1.913,0,0,0-.424.015.441.441,0,0,0-.37.513c.039.3.258.39.526.4l.395.017a1.474,1.474,0,0,1,0,1.115c-.465.28-.463.638,0,.915a1.487,1.487,0,0,1,0,1.115c-.132,0-.264.007-.4.013-.268.014-.479.11-.526.405-.041.254.11.429.435.522.041,0-.009,0,.029.008.166.049.408-.1.5.1a.775.775,0,0,1-.038.727c-.809,0-1.618,0-2.426.017-.232.005-.286-.059-.285-.288.009-2.028,0-4.056.01-6.084,0-.346-.1-.575-.454-.657" transform="translate(-54.282 -3.643)" fill="#fdce4a"/>
        <path id="Trazado_131783" data-name="Trazado 131783" d="M41.229,15.233c-.338,0-.676,0-1.013.012a.339.339,0,0,1-.269-.115,1.5,1.5,0,0,1-.41-1.631,11.091,11.091,0,0,1,1.023-2.191c.148-.018.19.1.24.2a14.235,14.235,0,0,1,.817,1.782,2,2,0,0,1-.109,1.633.568.568,0,0,1-.278.314" transform="translate(-31.498 -9.028)" fill="#fb6240"/>
        <path id="Trazado_131784" data-name="Trazado 131784" d="M116.693,33.489q0-2.546,0-5.092c.3,0,.593,0,.889-.013.153-.006.188.056.188.2q-.005,2.362,0,4.725c0,.14-.035.2-.188.2-.3-.013-.592-.01-.889-.014" transform="translate(-93.181 -22.665)" fill="#fba129"/>
        <path id="Trazado_131785" data-name="Trazado 131785" d="M45.645,11.481a2.364,2.364,0,0,0,0-2.7,6.087,6.087,0,0,0-.665-1.228l.521-.949a15.157,15.157,0,0,1,1.594,3.28,1.486,1.486,0,0,1-.463,1.509.308.308,0,0,1-.246.1c-.246-.007-.491-.008-.737-.012" transform="translate(-35.914 -5.276)" fill="#dd5039"/>
        <path id="Trazado_131786" data-name="Trazado 131786" d="M41.96,45.921c-.632,0-1.264,0-1.9.015-.156,0-.183-.039-.155-.193q.142-.781.248-1.569c.022-.161.067-.226.24-.22.417.016.836.011,1.253.015a3.724,3.724,0,0,1,.267,1.239,1.17,1.17,0,0,1,.041.713" transform="translate(-31.86 -35.098)" fill="#fcac52"/>
        <path id="Trazado_131787" data-name="Trazado 131787" d="M106.508,17.465h-2.186c.263-.519.514-1.006.755-1.5.056-.115.146-.091.233-.091.153,0,.307.005.46.009a.334.334,0,0,1,.172.167q.286.561.561,1.127c.044.091.091.189.005.286" transform="translate(-83.303 -12.676)" fill="#fdc7a1"/>
        <path id="Trazado_131788" data-name="Trazado 131788" d="M83.446,6.58a1.526,1.526,0,0,0,.054-.692c.01-.438,0-.876,0-1.315.307,0,.614,0,.92-.012.15-.006.19.05.188.193-.007.532-.01,1.064,0,1.6,0,.176-.074.2-.219.2a4.607,4.607,0,0,0-.947.034" transform="translate(-66.633 -3.642)" fill="#fca129"/>
        <path id="Trazado_131789" data-name="Trazado 131789" d="M48.9,45.92,48.6,43.968c.285,0,.571,0,.855-.015.162-.01.213.061.235.2q.123.8.255,1.6c.022.131-.01.187-.152.181-.295-.011-.591-.01-.886-.015" transform="translate(-38.804 -35.096)" fill="#df9249"/>
        <path id="Trazado_131790" data-name="Trazado 131790" d="M41.577,36.217c-.683,0-1.366,0-2.049.013-.135,0-.166-.043-.173-.173-.034-.63-.038-.631.6-.63.54,0,1.08.006,1.621.01a.771.771,0,0,1,0,.781" transform="translate(-31.417 -28.288)" fill="#dfdfdf"/>
        <path id="Trazado_131791" data-name="Trazado 131791" d="M112.249,17.354a7.689,7.689,0,0,0-.584-1.279c-.044-.1-.1-.2-.153-.3a2.554,2.554,0,0,1,.964.021c.277.121.325.532.481.811.128.228.237.467.378.747Z" transform="translate(-89.043 -12.565)" fill="#f4af84"/>
        <path id="Trazado_131792" data-name="Trazado 131792" d="M81.005,20.111a.252.252,0,0,1,.078-.042c.471-.059.471-.058.471-.531q0-.287,0-.575c.3,0,.594.008.891,0,.151,0,.226.029.217.2a7.27,7.27,0,0,0,0,.738c.008.164-.054.21-.212.208-.482-.007-.963,0-1.445,0" transform="translate(-64.684 -15.142)" fill="#faa129"/>
        <path id="Trazado_131793" data-name="Trazado 131793" d="M83.733,30.33q0-.557,0-1.115c.306-.005.613,0,.919-.017.154-.007.191.059.186.2-.008.245-.013.492,0,.737.01.175-.07.2-.217.2-.3-.008-.593,0-.89,0" transform="translate(-66.862 -23.315)" fill="#fca129"/>
        <path id="Trazado_131794" data-name="Trazado 131794" d="M83.731,40.473q0-.557,0-1.115c.3,0,.593.01.889,0,.148,0,.226.023.216.2-.018.294.095.675-.051.861s-.553.044-.843.065a1.689,1.689,0,0,1-.213-.011" transform="translate(-66.86 -31.428)" fill="#fca229"/>
        <path id="Trazado_131795" data-name="Trazado 131795" d="M81.8,50.365c0-.05,0-.1,0-.151a1.981,1.981,0,0,0-.017-.539c-.071-.229-.335-.018-.47-.149.471,0,.942,0,1.413-.009.13,0,.195.038.179.174a.193.193,0,0,0,0,.031c.033.655.033.655-.614.654-.164,0-.327-.007-.491-.01" transform="translate(-64.931 -39.54)" fill="#fba129"/>
        <path id="Trazado_131796" data-name="Trazado 131796" d="M50.428,36.216v-.781c.173,0,.347-.01.52-.01.6,0,.594,0,.564.615-.007.148-.052.194-.2.188-.3-.012-.592-.009-.888-.013" transform="translate(-40.268 -28.288)" fill="#c4c3c8"/>
        <path id="Trazado_131797" data-name="Trazado 131797" d="M111.137,7.63l.357.727h-.68a4.46,4.46,0,0,1,.323-.727" transform="translate(-88.487 -6.093)" fill="#3b4f53"/>
        <path id="Trazado_131798" data-name="Trazado 131798" d="M10.919,18.47a2.751,2.751,0,0,0-1.535,1.539A2.773,2.773,0,0,0,7.842,18.47a2.742,2.742,0,0,0,1.536-1.543,2.786,2.786,0,0,0,1.541,1.543" transform="translate(-6.262 -13.516)" fill="#fdce4a"/>
        <path id="Trazado_131799" data-name="Trazado 131799" d="M135.555,9.716A2.534,2.534,0,0,0,136.8,8.464,2.478,2.478,0,0,0,138.059,9.7a2.5,2.5,0,0,0-1.245,1.27,2.5,2.5,0,0,0-1.259-1.256" transform="translate(-108.243 -6.759)" fill="#fdce4a"/>
        <path id="Trazado_131800" data-name="Trazado 131800" d="M70.512,70.318a.5.5,0,0,1-.325.443c-.317.141-.63.293-.951.426a1.786,1.786,0,0,0-.991.993c-.136.319-.285.633-.426.951a.464.464,0,0,1-.873,0c-.141-.318-.29-.631-.426-.951a1.781,1.781,0,0,0-.989-.994c-.32-.134-.633-.285-.951-.426a.468.468,0,0,1,0-.889c.308-.136.614-.279.924-.411a1.826,1.826,0,0,0,1.016-1.01c.13-.311.277-.614.413-.923a.47.47,0,0,1,.9,0c.132.3.278.592.4.895a1.84,1.84,0,0,0,1.056,1.05c.3.124.6.267.9.4a.5.5,0,0,1,.326.446" transform="translate(-51.313 -53.656)"/>
        <path id="Trazado_131801" data-name="Trazado 131801" d="M73.666,78.309a2.763,2.763,0,0,0-1.531-1.524,2.791,2.791,0,0,0,1.518-1.492c.71,1.029.71,1.029,1.521,1.49a3.944,3.944,0,0,0-.892.6,3.657,3.657,0,0,0-.615.926" transform="translate(-57.601 -60.123)" fill="#fca129"/>
      </g>
    </g>
  </g>
</svg>
