<svg xmlns="http://www.w3.org/2000/svg" xmlns:xlink="http://www.w3.org/1999/xlink" width="59.538" height="59.538" viewBox="0 0 59.538 59.538">
  <defs>
    <clipPath id="clip-path">
      <rect id="Rectángulo_37890" data-name="Rectángulo 37890" width="32.423" height="39.681" fill="none"/>
    </clipPath>
  </defs>
  <g id="Grupo_157921" data-name="Grupo 157921" transform="translate(-0.122 -0.013)">
    <path id="Trazado_127482" data-name="Trazado 127482" d="M29.769,0A29.769,29.769,0,1,1,0,29.769,29.769,29.769,0,0,1,29.769,0Z" transform="translate(0.122 0.013)" fill="#b0c8cb"/>
    <g id="Grupo_156595" data-name="Grupo 156595" transform="translate(9.021 10.224)">
      <path id="Trazado_127053" data-name="Trazado 127053" d="M14.667,122.237c.273.061.336-.068.334-.323-.007-.639,0-.65.665-.646.246,0,.323-.075.318-.318,0-.227-.046-.332-.308-.331-.663,0-.68-.011-.673-.673,0-.3-.144-.305-.366-.307s-.337.035-.337.3c0,.67-.014.682-.669.68-.253,0-.313.09-.314.326s.059.325.313.324c.668,0,.684.009.669.641-.007.294.1.379.368.328" transform="translate(24.796 -96.183)" fill="#29c4bb"/>
      <path id="Trazado_127054" data-name="Trazado 127054" d="M212.981,151.153c-.244-.047-.38.034-.34.311.034.232-.046.36-.3.321s-.343.053-.345.323.113.348.354.315.3.069.3.3c-.007.359.215.5.562.388.165-.052.129-.183.118-.287-.029-.284.036-.457.371-.4.259.044.275-.118.274-.317s-.008-.36-.271-.319c-.283.044-.417-.06-.37-.359s-.138-.3-.35-.273" transform="translate(-211.994 -120.843)" fill="#29c4bb"/>
      <path id="Trazado_127055" data-name="Trazado 127055" d="M207.47,68.616c-.063.273.062.366.317.323.277-.047.39.067.341.342s.068.33.326.332.366-.076.32-.335c-.049-.276.066-.389.34-.338s.309-.1.319-.334c.013-.28-.1-.353-.34-.311-.265.046-.364-.064-.319-.323s-.037-.348-.313-.338c-.244.009-.384.043-.332.322s-.069.384-.341.339c-.256-.043-.38.049-.317.321" transform="translate(-205.475 -63.854)" fill="#010000"/>
      <path id="Trazado_127056" data-name="Trazado 127056" d="M51.8,185.982c-.06.254.066.348.32.3.3-.054.369.1.326.353-.047.28.088.323.334.322s.361-.055.312-.308c-.065-.332.1-.414.388-.365s.28-.135.281-.336,0-.36-.269-.308c-.357.071-.448-.1-.4-.42s-.187-.218-.342-.227-.348-.031-.3.234c.059.328-.056.48-.4.413-.29-.056-.254.146-.246.34" transform="translate(-20.487 -147.133)" fill="#010000"/>
      <path id="Trazado_127057" data-name="Trazado 127057" d="M123.727,16.785c.068-.29-.092-.347-.33-.312s-.344-.065-.306-.309-.035-.354-.314-.348c-.257.005-.374.072-.33.336s-.079.359-.333.321c-.235-.035-.353.021-.354.308s.109.373.366.332.363.08.321.333c-.047.284.105.316.344.321.255.005.338-.091.3-.325-.041-.257.054-.374.322-.329s.373-.064.315-.329" transform="translate(-104.142 -15.817)" fill="#29c4bb"/>
    </g>
    <g id="Grupo_158049" data-name="Grupo 158049" transform="translate(13.122 10.013)">
      <g id="Grupo_158049-2" data-name="Grupo 158049" clip-path="url(#clip-path)">
        <path id="Trazado_131694" data-name="Trazado 131694" d="M41.65,76.5a.877.877,0,0,0,.421.3l.382.38q.318-.374.65-.736l-.979-.98-1.511-1.51a1.116,1.116,0,0,0-1.316-.269,1.414,1.414,0,0,1-1.712-.374c-.755-.775-1.528-1.532-2.292-2.3a1.4,1.4,0,0,1-.287-.346c-.085-.169-.134-.384.014-.5s.236.116.335.2c.3.264.546.579.859.824a.519.519,0,0,0,.715.006.5.5,0,0,0,.035-.677,2.151,2.151,0,0,0-.373-.436c-1.4-1.4-2.811-2.806-4.207-4.217-.153-.155-.509-.334-.262-.582s.457.089.627.255c.812.8,1.611,1.6,2.415,2.408.31.31.617.622.93.929.386.378.62.422.878.175s.2-.516-.155-.878c-.144-.147-.292-.289-.434-.437-.074-.078-.177-.163-.062-.276s.2-.034.286.045c.179.169.346.351.526.519.286.266.546.3.761.1.234-.212.223-.5-.039-.8-.144-.166-.31-.31-.459-.47-.08-.086-.226-.192-.121-.307s.213.034.3.109c.182.166.339.359.535.51a.51.51,0,0,0,.738.022c.226-.214.223-.47-.012-.769-.143-.181-.327-.329-.5-.531a1.213,1.213,0,0,1,.985.452q3.385,3.389,6.772,6.775a5.021,5.021,0,0,0,.479-.888l-.269-.269c-.105-.105-.2-.22-.3-.33a.961.961,0,0,0-.31-.422c-.574-.583-1.166-1.148-1.728-1.743-1.3-1.31-2.617-2.611-3.919-3.923a2.274,2.274,0,0,0-3.3.023c-.184.2-.384.391-.58.582-.772.754-.56.763-1.363-.008a.751.751,0,0,1-.238-.767,2.694,2.694,0,0,0-.374-2.05A2.784,2.784,0,0,0,31.375,62a2.731,2.731,0,0,0-2.323,1.835.626.626,0,0,1-.7.46c-1.013-.019-2.026-.008-3.039-.006-.466,0-.932-.018-1.4.009s-.664.229-.669.686c.181.423.564.435.935.437q2.113.014,4.227,0a.557.557,0,0,1,.612.412,2.764,2.764,0,0,0,1.711,1.713.574.574,0,0,1,.441.631c-.011,1.094,0,2.189,0,3.283,0,.862-.007,1.724,0,2.586,0,.345.079.658.459.788.359.049.527-.16.621-.464a2.191,2.191,0,0,0,.054-.652q0-2.81,0-5.62c0-.145-.039-.327.131-.4s.283.061.39.166c.41.4.813.811,1.22,1.216a.362.362,0,0,1,.066.476,1.562,1.562,0,0,0,.348,2.074c.82.824,1.658,1.63,2.46,2.471a2.218,2.218,0,0,0,2.523.663.46.46,0,0,1,.531.081c.574.535,1.114,1.105,1.673,1.654" transform="translate(-15.521 -41.377)" fill="#1c1d21"/>
        <path id="Trazado_131695" data-name="Trazado 131695" d="M26.041,49.448c.69.626,1.342,1.29,1.977,1.971-.187.13-.384.251-.428.5a.977.977,0,0,0-1.048.224,14.766,14.766,0,0,1-6.489,2.617,15.44,15.44,0,0,1-7.6-.737A15.477,15.477,0,0,1,2.345,41.518a14.953,14.953,0,0,1,1.095-8.11,1.69,1.69,0,0,0,.153-1.03l.333-.744a.83.83,0,0,0,.719-1.154,3.145,3.145,0,0,0,.6-.76,1.415,1.415,0,0,0,.926-.6,15.331,15.331,0,0,1,7.164-4.517,14.8,14.8,0,0,1,4.246-.644,15.546,15.546,0,0,1,6.635,1.479A15.414,15.414,0,0,1,33.03,37.6a14.86,14.86,0,0,1-.64,6.646c-.036.1-.07.207-.1.312-.172.565-.168.578.317.883-.461.08-.474.523-.664.823-.714-.661-1.4-1.353-2.065-2.061a.448.448,0,0,1-.012-.358,14.522,14.522,0,0,0,.77-3.848.319.319,0,0,1,.055-.108c.4-.459.4-.459-.031-.884a22.025,22.025,0,0,0-.348-2.384,12.806,12.806,0,0,0-2.641-5.388,1.837,1.837,0,0,1-.476-.7c.039-.539,0-.573-.634-.575a2.578,2.578,0,0,1-.595-.434,12.653,12.653,0,0,0-6.557-2.888c-.408-.056-.817-.066-1.224-.1a.324.324,0,0,1-.166-.111c-.333-.414-.383-.413-.711,0a.345.345,0,0,1-.092.08,10.9,10.9,0,0,1-1.259.125,13,13,0,0,0-6.9,3.178.676.676,0,0,1-.24.153.554.554,0,0,1-.161.011c-.449-.025-.5.021-.473.463a.635.635,0,0,1-.007.163c-.28.436-.637.813-.942,1.231a12.5,12.5,0,0,0-2.462,6.871.738.738,0,0,1-.06.319c-.123.177-.466.233-.361.529s.411.257.665.281a.925.925,0,0,0,.9-.372.728.728,0,0,1,.5-.142q1.166-.009,2.332,0c.189,0,.39-.006.506.194.082.371.366.392.668.392,1.533,0,3.067.009,4.6-.008.318,0,.423.1.516.4a2.609,2.609,0,0,0,1.876,1.838c.3.084.344.21.343.477-.01,2.04,0,4.081-.007,6.121,0,.312.049.577.405.663.216.341.091.72.117,1.081a2.631,2.631,0,0,1-.02.613.4.4,0,0,1-.136.242c-.426.353-.288.82-.217,1.247.048.29.3.319.509.091.073-.079.119-.183.227-.227a15.956,15.956,0,0,0,3.1-.512,12.871,12.871,0,0,0,4.292-2.15,1.288,1.288,0,0,1,.515-.32" transform="translate(-1.467 -15.999)" fill="#ebf3f6"/>
        <path id="Trazado_131696" data-name="Trazado 131696" d="M38.462,29.439c-.516-.013-.659-.2-.482-.7a15.681,15.681,0,0,0,.915-4.936A15.361,15.361,0,0,0,29.888,9.478,14.962,14.962,0,0,0,20.8,8.346,15.2,15.2,0,0,0,11.926,13.4c-.219.25-.427.527-.824.318-.222-.279-.14-.51.076-.76a16.34,16.34,0,0,1,8.359-5.213,12.872,12.872,0,0,1,1.286-.259c.223-.035.291-.127.288-.348-.012-.753-.008-1.507,0-2.26,0-.7.287-.983,1-.994.137,0,.274,0,.411,0,.59,0,.59,0,.59-.61,0-.123-.01-.248,0-.37.02-.207-.078-.257-.266-.25-.3.011-.6.013-.9,0a.773.773,0,0,1-.83-.818c-.014-.342-.015-.685,0-1.027a.764.764,0,0,1,.81-.8q1.622-.023,3.245,0a.777.777,0,0,1,.8.816c.016.314.011.63,0,.945a.8.8,0,0,1-.859.882c-.3.012-.6,0-.9,0-.11,0-.239-.01-.243.146-.009.315-.007.63,0,.945,0,.174.143.132.243.134.287,0,.576-.009.862,0a.834.834,0,0,1,.9.934c.007.753.013,1.507,0,2.26-.006.271.069.368.348.417A16.239,16.239,0,0,1,39.36,19.976a16.209,16.209,0,0,1-.586,9.048.683.683,0,0,1-.312.415" transform="translate(-7.325 0)" fill="#1c1d21"/>
        <path id="Trazado_131697" data-name="Trazado 131697" d="M2.126,49.223c.263.24.2.5.068.783A14.419,14.419,0,0,0,.846,56.044,15.167,15.167,0,0,0,5.778,67.571a14.653,14.653,0,0,0,7.293,3.783,15.1,15.1,0,0,0,11.642-2.24c.217-.143.434-.287.641-.444a.474.474,0,0,1,.769.1.564.564,0,0,1-.277.587,15.833,15.833,0,0,1-11.609,3.033A15.776,15.776,0,0,1,2.811,65.4,15.686,15.686,0,0,1,.057,54.988a16.3,16.3,0,0,1,1.379-5.371c.143-.322.325-.5.69-.395" transform="translate(0 -32.844)" fill="#1c1d21"/>
        <path id="Trazado_131698" data-name="Trazado 131698" d="M7.779,43.507c.3.275.19.545,0,.829s-.363.482-.724.325a.492.492,0,0,1-.053-.687c.182-.288.339-.6.772-.466" transform="translate(-4.602 -29.026)" fill="#1f2024"/>
        <path id="Trazado_131699" data-name="Trazado 131699" d="M61.493,81.553a16.239,16.239,0,0,0,2.019-2.328l-6.674-6.676a3.3,3.3,0,0,0-.336-.3,1.232,1.232,0,0,0-1.108-.2c.277.254.5.447.711.655a.422.422,0,1,1-.59.595c-.216-.21-.433-.419-.639-.639-.121-.13-.2-.171-.353-.017s-.09.244.034.361q.328.311.638.639a.419.419,0,1,1-.595.585c-.226-.219-.457-.435-.665-.67-.156-.177-.237-.072-.356.035-.135.122-.125.205,0,.325.24.223.472.457.7.7a.385.385,0,0,1,0,.585.4.4,0,0,1-.588,0c-.083-.071-.159-.151-.236-.229-1.113-1.113-2.223-2.23-3.342-3.338-.2-.2-.412-.565-.736-.247s.043.534.239.732q2.258,2.273,4.527,4.535c.2.2.325.437.09.678s-.471.134-.678-.072c-.281-.281-.553-.572-.847-.837-.1-.093-.169-.348-.367-.215a.5.5,0,0,0-.153.561.744.744,0,0,0,.22.34c.872.871,1.74,1.746,2.615,2.613A1.3,1.3,0,0,0,56.6,80a.955.955,0,0,1,1.32.26l2.464,2.464c.364-.4.736-.789,1.105-1.174" transform="translate(-32.881 -47.577)" fill="#fcde7f"/>
        <path id="Trazado_131700" data-name="Trazado 131700" d="M48.712,87.686l-.006-1.811c.429-.053.451-.365.451-.7,0-2.039.006-4.077-.007-6.116,0-.3.1-.428.385-.439.13-.005.193.086.269.162.484.483.963.972,1.455,1.447.145.14.163.225.032.4a1.38,1.38,0,0,0,.121,1.928c.91.928,1.826,1.85,2.758,2.756a1.953,1.953,0,0,0,2.268.429c.34-.147.5-.066.655.2a6.418,6.418,0,0,1-1.466,1.105,12.7,12.7,0,0,1-6.183,1.942c-.1,0-.191-.008-.287-.013a.388.388,0,0,1-.067-.269,1.252,1.252,0,0,0-.378-1.02" transform="translate(-32.518 -52.492)" fill="#82e0e4"/>
        <path id="Trazado_131701" data-name="Trazado 131701" d="M46.819,67c-.478-.447-.845-.958-1.523-.88a1.179,1.179,0,0,0-1,1.524c.125.412.476.648.738.975a1.876,1.876,0,0,1-2.045-1.744,1.921,1.921,0,0,1,1.935-2.082A1.941,1.941,0,0,1,46.819,67" transform="translate(-28.697 -43.258)" fill="#a9b0b9"/>
        <path id="Trazado_131702" data-name="Trazado 131702" d="M85.422,70.152c-.27-.008-.541-.009-.811-.026s-.484-.146-.471-.446c.012-.275.215-.393.473-.406s.541-.015.811-.021c.228.07.44.163.44.45s-.219.373-.442.449" transform="translate(-56.176 -46.237)" fill="#1e2125"/>
        <path id="Trazado_131703" data-name="Trazado 131703" d="M8.677,69.247c.242.007.484.015.725.02.355.007.563.157.536.541a.487.487,0,0,1-.512.315c-.2,0-.4,0-.607,0-.273,0-.538-.041-.592-.362s.189-.44.451-.516" transform="translate(-5.487 -46.232)" fill="#1f2125"/>
        <path id="Trazado_131704" data-name="Trazado 131704" d="M48.306,30.508c0,.274,0,.547-.012.821a.394.394,0,0,1-.405.426c-.286,0-.415-.183-.433-.446s-.016-.546-.023-.819c.066-.25.174-.472.477-.453.279.018.365.23.4.472" transform="translate(-31.668 -20.052)" fill="#1d1f23"/>
        <path id="Trazado_131705" data-name="Trazado 131705" d="M47.9,105.894a.523.523,0,0,1,.445.609c-.005.227,0,.454,0,.681-.045.258-.143.483-.453.457-.332-.028-.4-.276-.4-.559,0-.191.006-.382,0-.572a.536.536,0,0,1,.411-.615" transform="translate(-31.702 -70.7)" fill="#1e1f23"/>
        <path id="Trazado_131706" data-name="Trazado 131706" d="M21.188,95.629a.422.422,0,0,1-.117.3c-.216.226-.433.453-.664.664a.376.376,0,0,1-.552,0A.388.388,0,0,1,19.826,96a9.2,9.2,0,0,1,.663-.665.378.378,0,0,1,.454-.067.451.451,0,0,1,.245.357" transform="translate(-13.157 -63.576)" fill="#1e1f23"/>
        <path id="Trazado_131707" data-name="Trazado 131707" d="M20.463,41.659c.2.206.4.409.588.619a.42.42,0,1,1-.593.592c-.209-.192-.412-.392-.619-.588-.1-.2-.176-.4,0-.594.193-.208.408-.146.621-.03" transform="translate(-13.175 -27.742)" fill="#1d1f23"/>
        <path id="Trazado_131708" data-name="Trazado 131708" d="M74.786,42.235c-.224.219-.443.444-.674.656a.384.384,0,0,1-.584,0,.391.391,0,0,1,0-.587c.2-.224.412-.435.619-.652.2-.107.407-.166.6.024a.427.427,0,0,1,.042.559" transform="translate(-49.002 -27.743)" fill="#1d1f23"/>
        <path id="Trazado_131709" data-name="Trazado 131709" d="M45.568,3.492c-.424,0-.849-.019-1.272.007-.283.017-.336-.092-.332-.348.009-.639,0-.639.654-.639.725,0,1.451.017,2.175-.008.32-.011.421.1.374.4a.622.622,0,0,0,0,.2c.062.343-.105.412-.41.394-.4-.023-.793-.006-1.19-.006" transform="translate(-29.353 -1.671)" fill="#fbdd7e"/>
        <path id="Trazado_131710" data-name="Trazado 131710" d="M51.213,15.519c0,.341-.012.683,0,1.024.011.227-.076.268-.285.257-.9-.045-.9-.039-.9-.936,0-.45.008-.9,0-1.351-.005-.211.066-.278.281-.286.907-.038.906-.045.906.843v.451" transform="translate(-33.399 -9.49)" fill="#fadc7e"/>
        <path id="Trazado_131711" data-name="Trazado 131711" d="M43.962,15.542a8.45,8.45,0,0,0-.007-.9c-.037-.342.11-.4.412-.393.759.016.76,0,.76.778,0,.477-.01.955,0,1.431.006.218-.046.3-.285.315-.884.052-.883.062-.883-.823v-.409" transform="translate(-29.343 -9.513)" fill="#fcde7e"/>
        <path id="Trazado_131712" data-name="Trazado 131712" d="M71.153,78.217a.55.55,0,0,1,.5.494.384.384,0,0,1-.378.44.561.561,0,0,1-.542-.5.434.434,0,0,1,.423-.431" transform="translate(-47.223 -52.221)" fill="#232324"/>
        <path id="Trazado_131713" data-name="Trazado 131713" d="M68.48,81.991a.558.558,0,0,1-.5-.508.36.36,0,0,1,.4-.413.482.482,0,0,1,.505.486c.018.263-.153.39-.409.435" transform="translate(-45.388 -54.126)" fill="#1f2022"/>
        <path id="Trazado_131714" data-name="Trazado 131714" d="M66.1,84.379c-.055.257-.189.423-.451.4a.483.483,0,0,1-.471-.519.361.361,0,0,1,.428-.386.563.563,0,0,1,.494.51" transform="translate(-43.516 -55.993)" fill="#1f2022"/>
        <path id="Trazado_131715" data-name="Trazado 131715" d="M22.571,32.49c-.248-.023-.252-.242-.277-.432-.029-.221.062-.466-.121-.659A11.338,11.338,0,0,0,18.6,32,13.221,13.221,0,0,0,13.7,34.88c.033.274.282.385.432.57s.3.361.085.568-.392.05-.568-.093-.29-.406-.572-.422c-.3.355-.6.7-.882,1.073a12.563,12.563,0,0,0-2.593,7.4.362.362,0,0,0,.336.109.9.9,0,0,1,.925.452.433.433,0,0,1,.4-.139c.518.005,1.036-.01,1.553.006a5.489,5.489,0,0,1,1.381.058c.036-.4.309-.466.641-.465,1.56,0,3.12,0,4.681,0,.226,0,.365-.026.439-.289a2.752,2.752,0,0,1,2.855-2.056V32.409a.272.272,0,0,1-.24.081" transform="translate(-6.408 -20.963)" fill="#ebf3f6"/>
        <path id="Trazado_131716" data-name="Trazado 131716" d="M61.3,44.169a1.493,1.493,0,0,1,.441-.047c.159-.009.329.025.457-.111a10.8,10.8,0,0,0-.072-1.1,12.962,12.962,0,0,0-2.576-6.362,8.063,8.063,0,0,1-.817-1.063c-.176-.044-.219.124-.31.206a3.026,3.026,0,0,1-.463.392.286.286,0,0,1-.373-.011.3.3,0,0,1-.052-.4,2.267,2.267,0,0,1,.317-.367c.1-.117.262-.2.243-.4a13.558,13.558,0,0,0-4.323-2.665,11.233,11.233,0,0,0-4.184-.79c-.126.212-.045.454-.1.676a.711.711,0,0,1-.135.315v9.248a3.055,3.055,0,0,1,.321.037,2.68,2.68,0,0,1,2.236,2.657h9.157a.347.347,0,0,1,.234-.213" transform="translate(-32.951 -20.994)" fill="#ebf3f6"/>
        <path id="Trazado_131717" data-name="Trazado 131717" d="M66.341,70.733c-.132-.052-.249-.128-.245-.287a.269.269,0,0,1,.016-.074H56.955a2.34,2.34,0,0,1-.022.248,1.557,1.557,0,0,0,.672,1.6.309.309,0,0,1,.058.058c.18.249.34.28.562.018.274-.322.594-.606.894-.905a2.19,2.19,0,0,1,3.471,0q1.9,1.9,3.813,3.789c.03-.1.053-.21.089-.311a12.126,12.126,0,0,0,.749-3.975c-.133-.127-.3-.095-.461-.1a1.394,1.394,0,0,1-.439-.062" transform="translate(-37.995 -46.984)" fill="#82e0e4"/>
      </g>
    </g>
  </g>
</svg>
