<svg xmlns="http://www.w3.org/2000/svg" xmlns:xlink="http://www.w3.org/1999/xlink" width="99" height="99" viewBox="0 0 99 99">
  <defs>
    <clipPath id="clip-path">
      <rect id="Rectángulo_37886" data-name="Rectángulo 37886" width="53.66" height="59.49" fill="none"/>
    </clipPath>
  </defs>
  <g id="Grupo_157821" data-name="Grupo 157821" transform="translate(-1171 -5097)">
    <circle id="Elipse_4760" data-name="Elipse 4760" cx="49.5" cy="49.5" r="49.5" transform="translate(1171 5097)" fill="#1169e3"/>
    <g id="Grupo_156593" data-name="Grupo 156593" transform="translate(833.421 454)">
      <path id="Trazado_127053" data-name="Trazado 127053" d="M15.507,123.96c-.454.1-.559-.113-.555-.537.012-1.063-.007-1.081-1.106-1.075-.409,0-.536-.124-.528-.529.007-.377.077-.553.512-.551,1.1,0,1.131-.018,1.119-1.119-.005-.5.239-.507.608-.511s.56.058.56.5c0,1.115.023,1.135,1.112,1.131.421,0,.521.15.522.541s-.1.541-.52.539c-1.11-.006-1.137.014-1.112,1.066.012.488-.169.631-.611.545" transform="translate(339.683 4578.363)" fill="#29c4bb"/>
      <path id="Trazado_127054" data-name="Trazado 127054" d="M213.642,151.161c.406-.078.632.057.565.517-.056.385.077.6.5.533s.57.088.573.537c0,.47-.189.578-.589.525-.383-.052-.5.115-.5.5.012.6-.357.826-.934.645-.274-.086-.214-.3-.2-.477.048-.472-.06-.76-.616-.666-.431.073-.457-.2-.456-.527s.014-.6.451-.53c.471.073.694-.1.616-.6-.075-.475.23-.5.582-.454" transform="translate(205.528 4558.239)" fill="#29c4bb"/>
      <path id="Trazado_127055" data-name="Trazado 127055" d="M210.718,69.268c.1.453-.1.608-.527.537-.46-.078-.648.111-.567.569s-.113.548-.542.553-.609-.127-.532-.557c.082-.459-.109-.648-.565-.562-.472.089-.513-.158-.531-.555-.021-.466.16-.588.566-.517.441.077.606-.106.531-.537-.072-.412.061-.579.521-.563.4.014.639.072.552.536s.115.639.567.563c.425-.072.632.081.526.534" transform="translate(208.976 4610.651)" fill="#010000"/>
      <path id="Trazado_127056" data-name="Trazado 127056" d="M55.04,186.64c.1.423-.11.578-.532.5-.5-.09-.614.169-.543.587.079.465-.146.537-.555.535-.39,0-.6-.091-.518-.511.108-.553-.169-.688-.645-.607s-.466-.225-.467-.559.007-.6.448-.512c.593.117.745-.168.665-.7-.077-.508.311-.362.569-.377.274-.016.579-.052.5.389-.1.545.092.8.67.687.482-.092.423.243.409.566" transform="translate(313.711 4536.959)" fill="#010000"/>
      <path id="Trazado_127057" data-name="Trazado 127057" d="M121.786,17.426c-.114-.483.153-.577.548-.518.41.061.572-.109.509-.513s.058-.588.522-.578c.427.009.623.119.548.558s.131.6.553.533c.391-.059.587.035.589.513s-.182.62-.608.553c-.45-.072-.6.133-.533.553.078.472-.175.526-.572.534-.424.009-.562-.151-.5-.54.068-.427-.09-.622-.535-.547s-.62-.106-.523-.547" transform="translate(266.46 4643.184)" fill="#29c4bb"/>
    </g>
    <g id="Grupo_158045" data-name="Grupo 158045" transform="translate(1193.67 5116.755)">
      <g id="Grupo_158045-2" data-name="Grupo 158045" clip-path="url(#clip-path)">
        <path id="Trazado_131606" data-name="Trazado 131606" d="M41.487,62.373a3.2,3.2,0,0,0,1.639-4.806c-.476-.753-1.014-1.464-1.506-2.206-.524-.79-.481-.9.43-1.048.86-.14,1.714-.314,2.568-.478a4.515,4.515,0,0,0,3.855-4.318c.024-.3.058-.464.154-.529v-.017l.016.007c.1-.055.269-.015.553.088.255.093.492.229.741.334a2.791,2.791,0,0,0,2.831-4.74c-.462-.356-.852-.656-.754-1.349.059-.416-.437-.808-.878-.861a.591.591,0,0,0-.231,0,4.361,4.361,0,0,1-3.568-.721c-1.32-.767-2.716-1.4-4.1-2.065a2.156,2.156,0,0,1-1.276-1.794c-.368-2.548-.809-5.085-1.215-7.627a2.934,2.934,0,0,0-2.295-2.5q-1.9-.524-3.826-.977a14.1,14.1,0,0,1-3.17-1.269,1.514,1.514,0,0,1-.837-1.12,1.061,1.061,0,0,1,.388-1.137,5.92,5.92,0,0,0,2.081-3.206,1.091,1.091,0,0,1,.838-.849,2.8,2.8,0,0,0,1.315-4.7,1.31,1.31,0,0,1-.371-1,13.424,13.424,0,0,0-.119-2.663A2.406,2.406,0,0,0,33.321,8.8a.714.714,0,0,1-.44-.574c-.43-2.1-1.984-2.806-3.852-3.13a11.422,11.422,0,0,0-4.262.211,6.82,6.82,0,0,0-5.378,6.517c0,.29-.014.582,0,.871a3.022,3.022,0,0,1-.651,2.185,2.718,2.718,0,0,0,1.493,4.28,1.271,1.271,0,0,1,.981,1,5.281,5.281,0,0,0,1.969,3,1.408,1.408,0,0,1-.2,2.258,14.368,14.368,0,0,1-3.152,1.317c-1.243.3-2.478.625-3.72.924a3.146,3.146,0,0,0-2.6,2.765c-.4,2.466-.808,4.929-1.2,7.4a2.345,2.345,0,0,1-1.4,1.9c-1.6.781-3.22,1.525-4.757,2.428a3.4,3.4,0,0,1-2.4.36c-1.136-.188-1.481.126-1.5,1.265-.008.419-.329.54-.582.729A2.8,2.8,0,0,0,4.328,49.4c.3-.124.609-.249.911-.379a.423.423,0,0,1,.378-.029l.038-.018,0,.053a.534.534,0,0,1,.133.32,5.979,5.979,0,0,0,.536,2.067,4.414,4.414,0,0,0,3.016,2.343c1.04.23,2.093.393,3.135.61.627.131.68.267.327.815-.535.829-1.153,1.6-1.657,2.454a3.228,3.228,0,0,0,.54,4.085,4.225,4.225,0,0,0,1.1.644c.157.075.409.05.409.328h1.162a4.552,4.552,0,0,0,2.576-1.906c1.591-2.114,1.019-1.833,3.715-2.317,2.091-.375,4.177-.778,6.264-1.177a1.462,1.462,0,0,1,.57.019c2.544.478,5.088.957,7.635,1.419a2.022,2.022,0,0,1,1.343.823c.227.313.483.607.7.927A5.036,5.036,0,0,0,39.8,62.691h1.278c0-.28.249-.258.412-.318m0-9.015c-.306.16-.782.354-1.048.114-1.452-1.31-3.354-1.4-5.083-1.935-1.932-.6-3.9-1.1-6.006-1.689l6.445-1.79c1.115-.309,2.233-.607,3.342-.934.347-.1.489-.052.6.325.538,1.771,1.12,3.528,1.671,5.3.062.2.306.493.076.613M35.56,38.53c.407,3.375,1.924,5.848,5.474,6.738l-.153.175-6.1,1.692c.1-2.9-.3-5.791.774-8.605m8.6,14.381c-.452.079-1,.32-1.335.152-.352-.177-.331-.816-.474-1.252-.505-1.539-.988-3.085-1.5-4.622-.12-.364-.066-.576.339-.628a.36.36,0,0,0,.113-.024,2.751,2.751,0,0,1,2.723.251c.828.452,1.7.819,2.557,1.226.808.386.882.507.878,1.408a3.587,3.587,0,0,1-3.3,3.489M41.051,38.374a2.547,2.547,0,0,0,1.7,2.151q2.394,1.164,4.738,2.427a4.119,4.119,0,0,0,2.993.576c.265-.062.674-.178.463.31a1.368,1.368,0,0,0,.868,1.38,1.782,1.782,0,0,1,.973,1.877,1.827,1.827,0,0,1-1.442,1.488,1.782,1.782,0,0,1-1.179-.179Q44.9,45.931,39.636,43.456a4.9,4.9,0,0,1-2.628-3.923c-.046-.249.111-.28.289-.334,1.126-.342,2.251-.684,3.371-1.046.248-.08.363-.04.383.221M35.061,16.456a1.837,1.837,0,0,1-1.156,1.72c-.283.106-.474.124-.449-.288.029-.463.007-.929.007-1.394,0-.484.014-.969-.005-1.452-.014-.349.114-.392.413-.281a1.838,1.838,0,0,1,1.19,1.695m-14.7,1.721a1.831,1.831,0,0,1,.059-3.427c.259-.088.4-.067.387.258-.016.5,0,1,0,1.5,0,.462-.021.925.006,1.385.025.413-.171.388-.448.284m1.163-6.683a3.306,3.306,0,0,0-.675,1.641c-.016.175-.024.377-.261.38-.294,0-.183-.24-.193-.386-.017-.27,0-.541-.005-.812a5.937,5.937,0,0,1,5.828-6.235,11.251,11.251,0,0,1,3.336.14,2.7,2.7,0,0,1,2.365,2.6.856.856,0,0,0,.824.893,1.046,1.046,0,0,1,.888.8,8.156,8.156,0,0,1,.243,2.756c0,.114,0,.246-.171.244-.236,0-.274-.172-.288-.357a3.339,3.339,0,0,0-.726-1.741,1.658,1.658,0,0,0-2.442-.366,5.187,5.187,0,0,1-6.214.014,1.648,1.648,0,0,0-2.51.424m.481,7.335c-.085-1.758-.032-3.523-.031-5.284a2.176,2.176,0,0,1,.369-1.2c.38-.585.568-.617,1.16-.225a6.338,6.338,0,0,0,6.188.6,4.532,4.532,0,0,0,1.151-.666c.421-.338.731-.223,1.013.185a2.592,2.592,0,0,1,.444,1.534c0,.813,0,1.626,0,2.631a16.534,16.534,0,0,1-.159,3.28,5.173,5.173,0,0,1-5.384,3.934,5.1,5.1,0,0,1-4.751-4.789m1.357,7.533a2.438,2.438,0,0,0,1.362-2.048,6.243,6.243,0,0,0,4.592.073c.2-.074.273-.032.307.177a2.3,2.3,0,0,0,1.306,1.794c.239.119.163.24.049.4a4.7,4.7,0,0,1-7.7,0c-.131-.187-.129-.289.084-.393M13.533,36.525c.356-2.1.68-4.2,1.056-6.291a1.948,1.948,0,0,1,1.62-1.551c1.348-.341,2.7-.674,4.047-1.015a6.019,6.019,0,0,0,1.476-.5c.275-.153.385-.054.545.168a5.839,5.839,0,0,0,9.729-.011c.1-.143.143-.348.433-.22a34.317,34.317,0,0,0,5.4,1.51,2.361,2.361,0,0,1,1.99,2.221c.225,1.8.556,3.591.877,5.379.09.5.015.754-.528.9-1.027.266-2.038.6-3.044.941-.4.135-.536.034-.6-.361-.079-.455-.227-.9-.335-1.349a.648.648,0,0,0-1.275-.041,19.856,19.856,0,0,0-1.3,6.916c.037,1.257-.006,2.517.015,3.775a.505.505,0,0,1-.438.6q-2.827.754-5.642,1.551a1.4,1.4,0,0,1-.793,0c-1.859-.523-3.718-1.046-5.586-1.537a.594.594,0,0,1-.527-.715c.033-.87.01-1.742.01-2.613a19.214,19.214,0,0,0-1.207-7.743c-.131-.379-.254-.774-.746-.747-.447.025-.6.371-.662.762a.592.592,0,0,1-.035.11c-.181.485-.091,1.245-.491,1.415-.37.157-.971-.22-1.467-.372-.739-.225-1.472-.472-2.215-.682-.285-.08-.36-.206-.311-.493m5.982,10.6L13.263,45.4c1.485-.745,2.97-1.265,3.934-2.579s1.075-2.9,1.592-4.455c1.013,2.923.642,5.83.725,8.758M4.18,48.372A1.788,1.788,0,0,1,1.54,47.28a1.7,1.7,0,0,1,.8-1.991c.655-.357,1.088-.778.975-1.589-.055-.393.261-.126.43-.215a3.964,3.964,0,0,0,3.221-.634c1.566-.835,3.15-1.64,4.741-2.426A2.38,2.38,0,0,0,13.2,38.448c.034-.362.182-.38.488-.279,1.062.35,2.129.69,3.2,1,.34.1.4.225.332.567a5.232,5.232,0,0,1-3.3,4.077c-3.281,1.45-6.5,3.038-9.751,4.558m7.474,4.357c-.1.316-.213.417-.563.341a16.764,16.764,0,0,1-1.974-.425,3.5,3.5,0,0,1-2.294-3.187c.02-.659.131-1.2.89-1.484a23.669,23.669,0,0,0,2.828-1.327,2.545,2.545,0,0,1,2.249-.2c.753.284.773.231.535.984-.559,1.765-1.125,3.527-1.671,5.3m7.373,4.844a3.154,3.154,0,0,0-2.116,1.287c-.419.579-.855,1.146-1.3,1.709a2.176,2.176,0,1,1-3.537-2.533c.632-.948,1.286-1.881,1.918-2.83a.528.528,0,0,1,.6-.3q4.49.859,8.984,1.7c.012,0,.02.028.076.114-1.564.291-3.1.589-4.632.858m21.508,3.961a2.2,2.2,0,0,1-1.791-.891c-.46-.6-.919-1.2-1.367-1.8a3.17,3.17,0,0,0-2.071-1.263Q25.734,55.8,16.165,54.006c-1.025-.191-2.051-.384-3.079-.56-.293-.05-.439-.1-.32-.466.617-1.869,1.228-3.741,1.794-5.627.166-.555.482-.256.71-.194q6.088,1.667,12.166,3.365c3.552.987,7.1,1.981,10.656,2.959a3.408,3.408,0,0,1,1.991,1.4c.739,1.087,1.491,2.166,2.215,3.263a2.058,2.058,0,0,1,.091,2.252,2.129,2.129,0,0,1-1.854,1.133" transform="translate(-0.3 -3.201)"/>
        <path id="Trazado_131607" data-name="Trazado 131607" d="M22.129,141.616a4.226,4.226,0,0,1-1.1-.644,3.228,3.228,0,0,1-.54-4.085c.5-.85,1.122-1.625,1.657-2.454.353-.548.3-.684-.327-.815-1.042-.218-2.095-.38-3.135-.611a4.412,4.412,0,0,1-3.016-2.342,5.979,5.979,0,0,1-.536-2.067.533.533,0,0,0-.133-.32c.008.092.016.157.017.22a4.627,4.627,0,0,0,4.052,4.747c1.071.2,2.138.409,3.265.627-.681,1-1.338,1.935-1.955,2.89A3.317,3.317,0,0,0,21.8,141.65c.24.109.491.2.737.294,0-.278-.251-.253-.409-.328" transform="translate(-9.644 -82.454)"/>
        <path id="Trazado_131608" data-name="Trazado 131608" d="M116.333,136.683c-.342-.538-.714-1.057-1.072-1.585-.286-.423-.571-.847-.879-1.3,1.236-.227,2.382-.41,3.515-.653a4.581,4.581,0,0,0,3.638-3.352,5.286,5.286,0,0,0,.166-1.616c-.1.066-.131.231-.154.529a4.515,4.515,0,0,1-3.855,4.318c-.855.164-1.709.338-2.569.478-.911.148-.954.258-.43,1.048.492.742,1.03,1.453,1.506,2.206a3.2,3.2,0,0,1-1.639,4.806c-.163.06-.41.038-.412.318.041-.033.078-.085.125-.1a3.3,3.3,0,0,0,2.061-5.1" transform="translate(-73.372 -82.388)"/>
        <path id="Trazado_131609" data-name="Trazado 131609" d="M4.939,48.786c-.3.13-.607.255-.911.379a2.8,2.8,0,0,1-2.656-4.887c.253-.19.574-.31.582-.729.021-1.139.366-1.453,1.5-1.265a3.4,3.4,0,0,0,2.4-.36c1.537-.9,3.158-1.647,4.757-2.428a2.343,2.343,0,0,0,1.4-1.9c.389-2.467.8-4.93,1.2-7.4a3.146,3.146,0,0,1,2.6-2.765c1.242-.3,2.477-.628,3.72-.924a14.368,14.368,0,0,0,3.152-1.317,1.408,1.408,0,0,0,.2-2.258,5.282,5.282,0,0,1-1.969-3,1.271,1.271,0,0,0-.981-1,2.718,2.718,0,0,1-1.493-4.28,3.025,3.025,0,0,0,.651-2.185c-.016-.289-.005-.581,0-.871a6.82,6.82,0,0,1,5.378-6.516,11.43,11.43,0,0,1,4.262-.211C30.6,5.191,32.152,5.9,32.582,8a.714.714,0,0,0,.44.574A2.406,2.406,0,0,1,34.457,10.6a13.421,13.421,0,0,1,.119,2.663,1.309,1.309,0,0,0,.371,1,2.8,2.8,0,0,1-1.315,4.7,1.091,1.091,0,0,0-.838.849,5.918,5.918,0,0,1-2.081,3.206,1.061,1.061,0,0,0-.388,1.137,1.514,1.514,0,0,0,.837,1.12,14.1,14.1,0,0,0,3.17,1.269q1.921.45,3.826.977a2.933,2.933,0,0,1,2.295,2.5c.407,2.542.847,5.079,1.215,7.627a2.156,2.156,0,0,0,1.276,1.794c1.379.66,2.776,1.3,4.1,2.065a4.361,4.361,0,0,0,3.568.721.591.591,0,0,1,.231,0c.442.052.937.444.878.861-.1.693.293.993.754,1.349a2.791,2.791,0,0,1-2.831,4.74c-.25-.105-.486-.24-.741-.334-.284-.1-.451-.143-.553-.088.417.2.773.374,1.137.532a2.959,2.959,0,0,0,4.162-2.409A2.869,2.869,0,0,0,52.2,44.027c-.166-.107-.443-.093-.365-.47.22-1.061-.339-1.6-1.423-1.47a3.327,3.327,0,0,1-2.1-.094c-1.879-.988-3.775-1.942-5.667-2.906a1.29,1.29,0,0,1-.743-1.028c-.409-2.636-.853-5.267-1.259-7.9a3.222,3.222,0,0,0-2.491-2.8c-.9-.235-1.79-.485-2.694-.683a15.632,15.632,0,0,1-4.229-1.531,1.217,1.217,0,0,1-.273-2.127,5.953,5.953,0,0,0,1.981-3.2.8.8,0,0,1,.727-.7A2.939,2.939,0,0,0,35.183,14.3a1.54,1.54,0,0,1-.444-1.171,9.625,9.625,0,0,0-.22-2.94,2.157,2.157,0,0,0-1.55-1.771c-.21-.048-.2-.194-.223-.348a3.659,3.659,0,0,0-2.679-3.042,10.425,10.425,0,0,0-4.418-.316,7.155,7.155,0,0,0-6.43,5.042,12.467,12.467,0,0,0-.289,3.629.787.787,0,0,1-.218.673,2.821,2.821,0,0,0-.847,3.01,2.834,2.834,0,0,0,2.372,2.112.464.464,0,0,1,.432.429,6.171,6.171,0,0,0,2.274,3.6c.13.1.273.181.3.394a1.389,1.389,0,0,1-.776,1.539,14.342,14.342,0,0,1-3.72,1.415c-1.112.241-2.22.517-3.315.829a3.059,3.059,0,0,0-2.334,2.6c-.447,2.67-.9,5.339-1.325,8.011a1.425,1.425,0,0,1-.854,1.142c-1.485.742-2.977,1.472-4.425,2.281a4.529,4.529,0,0,1-3.471.654,1.076,1.076,0,0,0-1.238,1.368c.087.33-.01.419-.259.564a2.922,2.922,0,0,0-1.2,3.905A2.954,2.954,0,0,0,4.18,49.28c.374-.159.741-.34,1.137-.524a.423.423,0,0,0-.378.029" transform="translate(0 -2.968)"/>
        <path id="Trazado_131610" data-name="Trazado 131610" d="M15.99,75.2c-.363,0-.515-.081-.495-.478a.694.694,0,0,0-.735-.79.709.709,0,0,0-.745.787c0,.323-.04.5-.432.48a.721.721,0,0,0-.838.753c0,.522.355.752.849.726.334-.018.432.1.42.427-.018.495.221.844.739.843a.7.7,0,0,0,.743-.837c-.026-.39.146-.444.473-.433a.743.743,0,0,0,.817-.73.758.758,0,0,0-.8-.748" transform="translate(-8.192 -47.52)" fill="#87d047"/>
        <path id="Trazado_131611" data-name="Trazado 131611" d="M109.121,14.98a2.816,2.816,0,0,1-2.182,2.174,2.9,2.9,0,0,1,2.189,2.148,2.828,2.828,0,0,1,2.257-2.14,2.91,2.91,0,0,1-2.264-2.182" transform="translate(-68.739 -9.629)" fill="#f4c74c"/>
        <path id="Trazado_131612" data-name="Trazado 131612" d="M131.051,146.855a2.244,2.244,0,0,1-1.472,1.4,2.169,2.169,0,0,1,1.514,1.474,1.928,1.928,0,0,1,1.457-1.489,2.332,2.332,0,0,1-1.5-1.386" transform="translate(-83.291 -94.396)" fill="#71d6f8"/>
        <path id="Trazado_131613" data-name="Trazado 131613" d="M97.681,0a.759.759,0,0,0-.842.686.772.772,0,0,0,.709.885.8.8,0,0,0,.826-.725A.78.78,0,0,0,97.681,0" transform="translate(-62.244 0)" fill="#fb667f"/>
        <path id="Trazado_131614" data-name="Trazado 131614" d="M9.834,93.16a.765.765,0,0,0-.8.733.755.755,0,0,0,.752.839.772.772,0,0,0,.785-.759.792.792,0,0,0-.736-.813" transform="translate(-5.805 -59.881)" fill="#f4c84d"/>
        <path id="Trazado_131615" data-name="Trazado 131615" d="M37.33,76.748c.743.21,1.476.457,2.215.682.5.151,1.1.528,1.467.371.4-.17.31-.93.491-1.415a.584.584,0,0,0,.035-.11c.065-.39.215-.737.662-.762.492-.027.615.368.746.747A19.214,19.214,0,0,1,44.152,84c0,.871.023,1.743-.01,2.613a.594.594,0,0,0,.527.715c1.868.492,3.727,1.015,5.586,1.537a1.4,1.4,0,0,0,.793,0q2.817-.79,5.642-1.551a.505.505,0,0,0,.438-.6c-.021-1.258.022-2.518-.015-3.775a19.847,19.847,0,0,1,1.3-6.916.647.647,0,0,1,1.275.042c.109.45.256.894.335,1.349.069.395.208.5.6.36,1.006-.341,2.017-.674,3.044-.941.544-.141.619-.393.528-.9-.321-1.788-.652-3.578-.877-5.379a2.361,2.361,0,0,0-1.99-2.221,34.326,34.326,0,0,1-5.4-1.51c-.29-.128-.33.078-.433.22a5.839,5.839,0,0,1-9.729.011c-.16-.221-.271-.321-.545-.168a6.019,6.019,0,0,1-1.476.5c-1.348.342-2.7.674-4.047,1.015a1.948,1.948,0,0,0-1.62,1.551c-.375,2.093-.7,4.195-1.056,6.291-.049.287.026.413.311.493M44.4,71.355a4.013,4.013,0,0,1,5.647-.106c.478.458.691.422,1.158,0a3.851,3.851,0,0,1,4.416-.736,3.721,3.721,0,0,1,2.351,3.237,4.107,4.107,0,0,1-1.086,3.186q-2.668,2.711-5.375,5.385a1.15,1.15,0,0,1-1.789-.007c-1.786-1.774-3.578-3.541-5.333-5.345a4,4,0,0,1,.009-5.609" transform="translate(-23.786 -42.931)" fill="#528fda"/>
        <path id="Trazado_131616" data-name="Trazado 131616" d="M64.446,136.054a2.058,2.058,0,0,0-.091-2.252c-.724-1.1-1.475-2.177-2.215-3.263a3.406,3.406,0,0,0-1.991-1.4c-3.554-.978-7.1-1.973-10.656-2.959q-6.081-1.689-12.166-3.365c-.229-.063-.543-.362-.71.193-.565,1.886-1.177,3.758-1.794,5.627-.12.363.026.416.319.466,1.028.176,2.054.369,3.079.56q9.57,1.786,19.141,3.571a3.168,3.168,0,0,1,2.072,1.263c.448.607.907,1.206,1.367,1.8a2.2,2.2,0,0,0,1.79.891,2.13,2.13,0,0,0,1.854-1.133" transform="translate(-22.357 -78.854)" fill="#f8cfb3"/>
        <path id="Trazado_131617" data-name="Trazado 131617" d="M70.82,32.056a16.559,16.559,0,0,0,.159-3.28c0-1,0-1.818,0-2.631a2.592,2.592,0,0,0-.444-1.534c-.283-.407-.592-.522-1.013-.185a4.521,4.521,0,0,1-1.151.666,6.337,6.337,0,0,1-6.188-.6c-.592-.392-.779-.36-1.16.225a2.177,2.177,0,0,0-.369,1.2c0,1.762-.053,3.527.031,5.285a5.1,5.1,0,0,0,4.751,4.788,5.173,5.173,0,0,0,5.384-3.934" transform="translate(-38.976 -15.574)" fill="#f8cfb3"/>
        <path id="Trazado_131618" data-name="Trazado 131618" d="M19.031,99.362c.063-.342.008-.469-.333-.567-1.075-.309-2.142-.649-3.2-1-.306-.1-.454-.083-.488.279a2.379,2.379,0,0,1-1.492,1.978c-1.591.786-3.174,1.591-4.741,2.426a3.963,3.963,0,0,1-3.221.634c-.17.089-.485-.179-.431.215.113.811-.319,1.232-.975,1.589a1.7,1.7,0,0,0-.8,1.991A1.788,1.788,0,0,0,5.983,108c3.25-1.52,6.47-3.109,9.751-4.558a5.232,5.232,0,0,0,3.3-4.077" transform="translate(-2.103 -62.827)" fill="#f8cfb3"/>
        <path id="Trazado_131619" data-name="Trazado 131619" d="M103.036,98.825c-.178.054-.336.085-.289.334a4.9,4.9,0,0,0,2.628,3.923q5.26,2.48,10.525,4.948a1.779,1.779,0,0,0,1.179.179,1.826,1.826,0,0,0,1.441-1.488,1.782,1.782,0,0,0-.973-1.877,1.367,1.367,0,0,1-.868-1.38c.211-.488-.2-.372-.463-.31a4.119,4.119,0,0,1-2.993-.576q-2.343-1.263-4.738-2.427A2.547,2.547,0,0,1,106.79,98c-.02-.26-.135-.3-.383-.221-1.12.361-2.245.7-3.371,1.046" transform="translate(-66.039 -62.827)" fill="#f8cfb3"/>
        <path id="Trazado_131620" data-name="Trazado 131620" d="M59.878,12.95a5.187,5.187,0,0,0,6.214-.014,1.658,1.658,0,0,1,2.442.366,3.337,3.337,0,0,1,.726,1.741c.014.185.052.354.288.357.169,0,.171-.13.17-.244a8.147,8.147,0,0,0-.243-2.756,1.047,1.047,0,0,0-.888-.8.856.856,0,0,1-.824-.893A2.7,2.7,0,0,0,65.4,8.1a11.242,11.242,0,0,0-3.337-.14A5.937,5.937,0,0,0,56.233,14.2c0,.271-.013.543.005.812.009.146-.1.391.193.386.238,0,.245-.2.261-.38a3.306,3.306,0,0,1,.675-1.64,1.648,1.648,0,0,1,2.51-.424" transform="translate(-36.14 -5.08)" fill="#5b5d60"/>
        <path id="Trazado_131621" data-name="Trazado 131621" d="M91.709,123.2c-.114-.377-.256-.427-.6-.325-1.11.328-2.228.625-3.342.935l-6.445,1.79c2.111.588,4.074,1.088,6.006,1.689,1.729.537,3.631.624,5.083,1.934.266.241.742.047,1.048-.113.23-.12-.014-.415-.076-.614-.55-1.767-1.133-3.525-1.671-5.3" transform="translate(-52.27 -78.951)" fill="#f8cfb3"/>
        <path id="Trazado_131622" data-name="Trazado 131622" d="M43.7,146.407q-4.492-.848-8.984-1.7a.528.528,0,0,0-.6.3c-.632.948-1.286,1.881-1.918,2.829a2.176,2.176,0,1,0,3.537,2.533c.441-.563.877-1.13,1.3-1.709a3.155,3.155,0,0,1,2.116-1.287c1.536-.269,3.068-.567,4.632-.858-.056-.086-.064-.112-.076-.114" transform="translate(-20.418 -93.008)" fill="#f8cfb3"/>
        <path id="Trazado_131623" data-name="Trazado 131623" d="M119.15,122.322c-.853-.407-1.728-.774-2.557-1.226a2.752,2.752,0,0,0-2.723-.251.355.355,0,0,1-.113.024c-.406.052-.459.264-.339.628.509,1.537.991,3.084,1.5,4.622.143.436.122,1.075.474,1.252.335.169.883-.073,1.335-.151a3.588,3.588,0,0,0,3.3-3.49c0-.9-.07-1.022-.878-1.408" transform="translate(-72.867 -77.509)" fill="#5b5d60"/>
        <path id="Trazado_131624" data-name="Trazado 131624" d="M24.231,120.751a2.545,2.545,0,0,0-2.249.2,23.674,23.674,0,0,1-2.828,1.327c-.758.283-.869.825-.89,1.484a3.5,3.5,0,0,0,2.294,3.187,16.773,16.773,0,0,0,1.974.425c.35.076.465-.025.563-.341.546-1.769,1.112-3.531,1.671-5.3.239-.754.218-.7-.535-.984" transform="translate(-11.74 -77.503)" fill="#5b5d60"/>
        <path id="Trazado_131625" data-name="Trazado 131625" d="M71.873,61.551c.114-.16.19-.281-.049-.4a2.3,2.3,0,0,1-1.306-1.794c-.034-.209-.111-.251-.307-.177a6.243,6.243,0,0,1-4.592-.073,2.437,2.437,0,0,1-1.362,2.047c-.213.1-.215.206-.084.393a4.7,4.7,0,0,0,7.7,0" transform="translate(-41.191 -37.992)" fill="#f8cfb3"/>
        <path id="Trazado_131626" data-name="Trazado 131626" d="M54.528,34.009c0-.5-.012-1,0-1.5.01-.325-.128-.345-.387-.258a1.831,1.831,0,0,0-.059,3.427c.276.1.473.129.448-.284-.028-.46-.006-.923-.006-1.385" transform="translate(-34.022 -20.701)" fill="#f5ccb1"/>
        <path id="Trazado_131627" data-name="Trazado 131627" d="M92.817,32.546c.019.484.005.968,0,1.452,0,.465.022.931-.006,1.394-.025.412.167.394.449.288a1.83,1.83,0,0,0-.034-3.415c-.3-.11-.427-.067-.413.281" transform="translate(-59.659 -20.704)" fill="#f5ccb1"/>
        <path id="Trazado_131628" data-name="Trazado 131628" d="M60.954,88.3a1.15,1.15,0,0,0,1.789.007q2.7-2.679,5.375-5.386A4.106,4.106,0,0,0,69.2,79.734,3.721,3.721,0,0,0,66.852,76.5a3.851,3.851,0,0,0-4.416.736c-.468.427-.681.463-1.158.005a4.021,4.021,0,0,0-5.656,5.715c1.755,1.8,3.548,3.571,5.333,5.345M57.286,77.574a2.8,2.8,0,0,1,3.187.478c1.4,1.189,1.391,1.2,2.741.008a2.9,2.9,0,0,1,4.034.1,2.857,2.857,0,0,1-.033,4.027c-1.68,1.712-3.392,3.392-5.082,5.095-.2.206-.325.244-.551.016-1.713-1.734-3.445-3.449-5.159-5.182a2.669,2.669,0,0,1-.768-1.948,2.734,2.734,0,0,1,1.631-2.6" transform="translate(-35.018 -48.92)"/>
        <path id="Trazado_131629" data-name="Trazado 131629" d="M63.7,89.4c.225.229.347.191.551-.016,1.689-1.7,3.4-3.383,5.082-5.095a2.857,2.857,0,0,0,.033-4.027,2.9,2.9,0,0,0-4.034-.1c-1.35,1.194-1.339,1.181-2.741-.008a2.8,2.8,0,0,0-3.186-.478,2.733,2.733,0,0,0-1.631,2.6,2.67,2.67,0,0,0,.768,1.948c1.714,1.733,3.446,3.448,5.159,5.181m-1.259-5.567c.9-.06.9-.063.957-.981.023-.378.176-.662.57-.672.432-.011.585.281.6.691.029.891.038.895.982.962.37.026.637.155.682.565a.549.549,0,0,1-.357.544,1.209,1.209,0,0,1-.342.051c-.921.058-.931.057-.964.986-.014.387-.165.668-.553.681-.423.015-.594-.278-.616-.685-.049-.921-.055-.924-.963-.978-.367-.022-.664-.132-.677-.553-.014-.452.289-.585.683-.611" transform="translate(-37.134 -51.022)" fill="#fb657d"/>
        <path id="Trazado_131630" data-name="Trazado 131630" d="M69.6,90.041c.908.054.914.058.963.978.022.407.193.7.616.685.388-.014.54-.294.553-.681.033-.929.043-.927.963-.986a1.185,1.185,0,0,0,.343-.051.549.549,0,0,0,.357-.544c-.044-.41-.311-.539-.682-.565-.945-.067-.953-.071-.983-.962-.013-.409-.166-.7-.6-.69-.394.01-.547.294-.57.672-.056.918-.061.921-.958.981-.393.026-.7.16-.683.611.013.421.309.531.677.553" transform="translate(-44.305 -56.066)" fill="#010000"/>
      </g>
    </g>
  </g>
</svg>
