<svg id="Grupo_157917" data-name="Grupo 157917" xmlns="http://www.w3.org/2000/svg" xmlns:xlink="http://www.w3.org/1999/xlink" width="59.538" height="59.537" viewBox="0 0 59.538 59.537">
  <defs>
    <clipPath id="clip-path">
      <rect id="Rectángulo_37148" data-name="Rectángulo 37148" width="23.224" height="32.964" fill="none"/>
    </clipPath>
  </defs>
  <path id="Trazado_127482" data-name="Trazado 127482" d="M29.769,0A29.769,29.769,0,1,1,0,29.769,29.769,29.769,0,0,1,29.769,0Z" fill="#b0c8cb"/>
  <g id="Grupo_156595" data-name="Grupo 156595" transform="translate(9.021 10.224)">
    <path id="Trazado_127053" data-name="Trazado 127053" d="M14.667,122.237c.273.061.336-.068.334-.323-.007-.639,0-.65.665-.646.246,0,.323-.075.318-.318,0-.227-.046-.332-.308-.331-.663,0-.68-.011-.673-.673,0-.3-.144-.305-.366-.307s-.337.035-.337.3c0,.67-.014.682-.669.68-.253,0-.313.09-.314.326s.059.325.313.324c.668,0,.684.009.669.641-.007.294.1.379.368.328" transform="translate(24.796 -96.183)" fill="#29c4bb"/>
    <path id="Trazado_127054" data-name="Trazado 127054" d="M212.981,151.153c-.244-.047-.38.034-.34.311.034.232-.046.36-.3.321s-.343.053-.345.323.113.348.354.315.3.069.3.3c-.007.359.215.5.562.388.165-.052.129-.183.118-.287-.029-.284.036-.457.371-.4.259.044.275-.118.274-.317s-.008-.36-.271-.319c-.283.044-.417-.06-.37-.359s-.138-.3-.35-.273" transform="translate(-211.994 -120.843)" fill="#29c4bb"/>
    <path id="Trazado_127055" data-name="Trazado 127055" d="M207.47,68.616c-.063.273.062.366.317.323.277-.047.39.067.341.342s.068.33.326.332.366-.076.32-.335c-.049-.276.066-.389.34-.338s.309-.1.319-.334c.013-.28-.1-.353-.34-.311-.265.046-.364-.064-.319-.323s-.037-.348-.313-.338c-.244.009-.384.043-.332.322s-.069.384-.341.339c-.256-.043-.38.049-.317.321" transform="translate(-205.475 -63.854)" fill="#010000"/>
    <path id="Trazado_127056" data-name="Trazado 127056" d="M51.8,185.982c-.06.254.066.348.32.3.3-.054.369.1.326.353-.047.28.088.323.334.322s.361-.055.312-.308c-.065-.332.1-.414.388-.365s.28-.135.281-.336,0-.36-.269-.308c-.357.071-.448-.1-.4-.42s-.187-.218-.342-.227-.348-.031-.3.234c.059.328-.056.48-.4.413-.29-.056-.254.146-.246.34" transform="translate(-20.487 -147.133)" fill="#010000"/>
    <path id="Trazado_127057" data-name="Trazado 127057" d="M123.727,16.785c.068-.29-.092-.347-.33-.312s-.344-.065-.306-.309-.035-.354-.314-.348c-.257.005-.374.072-.33.336s-.079.359-.333.321c-.235-.035-.353.021-.354.308s.109.373.366.332.363.08.321.333c-.047.284.105.316.344.321.255.005.338-.091.3-.325-.041-.257.054-.374.322-.329s.373-.064.315-.329" transform="translate(-104.142 -15.817)" fill="#29c4bb"/>
  </g>
  <g id="Grupo_156617" data-name="Grupo 156617" transform="translate(18.258 13.495)">
    <g id="Grupo_156617-2" data-name="Grupo 156617" clip-path="url(#clip-path)">
      <path id="Trazado_127344" data-name="Trazado 127344" d="M22.736,29.571c.407.171.5.336.407.761a3.3,3.3,0,0,1-3.16,2.62q-8.36.021-16.719,0A3.288,3.288,0,0,1,.006,29.771C0,29.654,0,29.537,0,29.419Q0,18.56,0,7.7A3.339,3.339,0,0,1,2.451,4.333a5.678,5.678,0,0,1,1.644-.1c.224,0,.273-.064.268-.276-.014-.6-.006-1.2,0-1.8,0-.492.161-.657.651-.658,1.314,0,2.628-.005,3.942,0a.437.437,0,0,0,.442-.241,2.576,2.576,0,0,1,4.433,0,.438.438,0,0,0,.442.242c1.3-.009,2.6-.006,3.907,0,.536,0,.688.155.688.691,0,.575.012,1.15-.005,1.725-.007.24.047.32.3.314a6.268,6.268,0,0,1,1.4.057,3.336,3.336,0,0,1,2.653,3.1.541.541,0,0,1-.35.585c-.422.111-.614,0-.713-.419-.041-.171-.062-.347-.1-.518a2.156,2.156,0,0,0-2.137-1.707q-8.288-.011-16.577,0A2.215,2.215,0,0,0,1.1,7.493c-.01.129-.008.258-.008.387q0,10.717,0,21.434a3.456,3.456,0,0,0,.055.7,2.2,2.2,0,0,0,2.244,1.847q5.086.007,10.172,0,3.062,0,6.124,0A2.237,2.237,0,0,0,22.073,30.1c.15-.478.3-.6.664-.526" transform="translate(0 0)"/>
      <path id="Trazado_127345" data-name="Trazado 127345" d="M26.3,48.427a.57.57,0,0,0-.561.524A2.3,2.3,0,0,1,23.4,50.828q-8.221.005-16.442,0a2.316,2.316,0,0,1-2.4-2.4q-.007-10.985,0-21.97a2.31,2.31,0,0,1,2.4-2.395q8.221-.005,16.442,0a2.318,2.318,0,0,1,2.4,2.179c.05.483.164.587.638.582-.14.086-.135.223-.135.364,0,.6,0,1.2,0,1.805a1.137,1.137,0,0,0-.392,1.059c.016,1.16.02,2.321,0,3.481a.908.908,0,0,0,.456.966,2.046,2.046,0,0,0-.061.864c-.014.432,0,.865,0,1.3a1.015,1.015,0,0,0-.389.981q.015,3.808,0,7.615c0,.423.042.787.453,1.005a1.713,1.713,0,0,0-.062.793c-.013.456,0,.912,0,1.368" transform="translate(-3.566 -18.856)" fill="#29c4bb"/>
      <path id="Trazado_127346" data-name="Trazado 127346" d="M103.29,91.889c-.429-.038-.562-.171-.563-.591q0-4.207,0-8.414a.526.526,0,0,1,.5-.6.552.552,0,0,1,.485.623q0,4.189,0,8.377a.537.537,0,0,1-.422.6" transform="translate(-80.492 -64.478)"/>
      <path id="Trazado_127347" data-name="Trazado 127347" d="M103.281,52.362c-.427-.039-.561-.172-.562-.59,0-1.426.005-2.853-.006-4.28a.558.558,0,0,1,.5-.636.581.581,0,0,1,.489.659c-.008,1.4-.006,2.809,0,4.213,0,.314-.092.55-.424.634" transform="translate(-80.484 -36.715)"/>
      <path id="Trazado_127348" data-name="Trazado 127348" d="M49.411,6.2a1.616,1.616,0,1,1-1.589-1.631A1.628,1.628,0,0,1,49.411,6.2" transform="translate(-36.185 -3.583)" fill="#fee734"/>
      <path id="Trazado_127349" data-name="Trazado 127349" d="M28.889,13.211c-1.368,0-2.669,0-3.97,0-.165,0-.259-.019-.252-.222.015-.434.011-.868,0-1.3,0-.171.057-.221.223-.22,1.079.006,2.158,0,3.236,0,.111,0,.211,0,.212.156a2.8,2.8,0,0,0,.55,1.583" transform="translate(-19.327 -8.988)" fill="#9baeca"/>
      <path id="Trazado_127350" data-name="Trazado 127350" d="M63.109,13.211a2.815,2.815,0,0,0,.551-1.583c0-.159.1-.155.213-.155,1.079,0,2.158,0,3.236,0,.167,0,.226.05.222.22-.01.434-.013.868,0,1.3.007.2-.088.223-.253.222-1.3,0-2.6,0-3.971,0" transform="translate(-49.45 -8.988)" fill="#9baeca"/>
      <path id="Trazado_127351" data-name="Trazado 127351" d="M28.385,41.024q0,5.4,0,10.805a1.388,1.388,0,0,1-1.6,1.586H10.634A1.364,1.364,0,0,1,9.106,51.9q0-10.893,0-21.786a1.352,1.352,0,0,1,1.506-1.494h16.26a1.36,1.36,0,0,1,1.511,1.526q0,5.438,0,10.875" transform="translate(-7.135 -22.428)"/>
      <path id="Trazado_127352" data-name="Trazado 127352" d="M30.972,44.555q0,5.421,0,10.842c0,.53-.073.6-.613.6H14.272c-.533,0-.606-.072-.606-.608q0-10.807,0-21.613c0-.531.07-.6.612-.6H30.366c.54,0,.606.066.606.606q0,5.385,0,10.771" transform="translate(-10.708 -25.998)" fill="#f4f2f7"/>
      <path id="Trazado_127353" data-name="Trazado 127353" d="M57.349,46.826c.925,0,1.851,0,2.777,0,.392,0,.6.17.606.477s-.216.507-.619.507q-2.759,0-5.518,0c-.4,0-.628-.187-.624-.5s.214-.481.637-.482c.914,0,1.828,0,2.741,0" transform="translate(-42.29 -36.691)"/>
      <path id="Trazado_127354" data-name="Trazado 127354" d="M57.348,78.817c-.925,0-1.851,0-2.776,0-.394,0-.6-.169-.6-.479s.214-.5.59-.5q2.794-.007,5.588,0c.373,0,.59.2.584.509s-.212.473-.607.474c-.925,0-1.851,0-2.776,0" transform="translate(-42.289 -60.986)" fill="#010101"/>
      <path id="Trazado_127355" data-name="Trazado 127355" d="M57.35,108.971q1.371,0,2.741,0c.429,0,.636.156.641.475s-.217.508-.62.509q-2.759,0-5.518,0c-.4,0-.628-.191-.624-.506s.215-.477.638-.478q1.371,0,2.741,0" transform="translate(-42.29 -85.386)"/>
      <path id="Trazado_127356" data-name="Trazado 127356" d="M57.344,59.265c-.914,0-1.828,0-2.741,0-.414,0-.631-.173-.632-.49s.224-.494.63-.495q2.759,0,5.518,0c.4,0,.623.191.613.511-.01.3-.222.472-.612.474-.925,0-1.851,0-2.777,0" transform="translate(-42.29 -45.665)"/>
      <path id="Trazado_127357" data-name="Trazado 127357" d="M57.361,90.361q-1.318,0-2.635,0a1.687,1.687,0,0,1-.349-.022.45.45,0,0,1-.394-.5.444.444,0,0,1,.443-.455c.174-.015.351-.008.527-.008,1.722,0,3.444,0,5.165,0,.3,0,.541.069.615.393s-.172.59-.6.593c-.925.006-1.851,0-2.776,0" transform="translate(-42.298 -70.03)" fill="#010101"/>
      <path id="Trazado_127358" data-name="Trazado 127358" d="M57.387,120.409q1.353,0,2.706,0c.412,0,.633.171.639.485s-.213.5-.621.5q-2.759,0-5.518,0c-.408,0-.627-.181-.622-.5s.227-.484.639-.485q1.388,0,2.777,0" transform="translate(-42.291 -94.349)"/>
      <path id="Trazado_127359" data-name="Trazado 127359" d="M22.883,48.167a.7.7,0,0,1,.558.256c.23.209.418.611.682.59.233-.019.438-.387.654-.6.457-.456.912-.914,1.37-1.368.273-.27.553-.3.771-.1.24.223.223.507-.064.8Q25.7,48.9,24.539,50.052c-.322.319-.55.317-.872,0-.351-.346-.7-.693-1.044-1.046a.452.452,0,0,1-.1-.548.472.472,0,0,1,.363-.291" transform="translate(-17.606 -36.681)"/>
      <path id="Trazado_127360" data-name="Trazado 127360" d="M26.873,78.326a.6.6,0,0,1-.205.467c-.786.786-1.569,1.576-2.36,2.358a.5.5,0,0,1-.821,0q-.516-.5-1.018-1.018a.5.5,0,1,1,.691-.707,6.07,6.07,0,0,1,.519.523c.156.187.259.189.433.008.618-.64,1.254-1.262,1.883-1.891a.485.485,0,0,1,.572-.135.509.509,0,0,1,.305.4" transform="translate(-17.452 -61.028)"/>
      <path id="Trazado_127361" data-name="Trazado 127361" d="M26.642,109.453a.5.5,0,0,1-.187.383c-.8.8-1.588,1.594-2.388,2.384a.491.491,0,0,1-.8-.005q-.518-.5-1.021-1.017a.5.5,0,0,1-.046-.771c.213-.2.482-.176.745.069.017.016.032.034.05.049.236.2.419.61.685.593.231-.014.442-.379.657-.593q.723-.718,1.442-1.441a.491.491,0,0,1,.579-.116.452.452,0,0,1,.279.464" transform="translate(-17.274 -85.363)"/>
    </g>
  </g>
</svg>
