<svg id="Grupo_157916" data-name="Grupo 157916" xmlns="http://www.w3.org/2000/svg" xmlns:xlink="http://www.w3.org/1999/xlink" width="59.538" height="59.537" viewBox="0 0 59.538 59.537">
  <defs>
    <clipPath id="clip-path">
      <rect id="Rectángulo_37892" data-name="Rectángulo 37892" width="31.528" height="39.125" fill="none"/>
    </clipPath>
  </defs>
  <path id="Trazado_127482" data-name="Trazado 127482" d="M29.769,0A29.769,29.769,0,1,1,0,29.769,29.769,29.769,0,0,1,29.769,0Z" fill="#b0c8cb"/>
  <g id="Grupo_156595" data-name="Grupo 156595" transform="translate(9.021 10.224)">
    <path id="Trazado_127053" data-name="Trazado 127053" d="M14.667,122.237c.273.061.336-.068.334-.323-.007-.639,0-.65.665-.646.246,0,.323-.075.318-.318,0-.227-.046-.332-.308-.331-.663,0-.68-.011-.673-.673,0-.3-.144-.305-.366-.307s-.337.035-.337.3c0,.67-.014.682-.669.68-.253,0-.313.09-.314.326s.059.325.313.324c.668,0,.684.009.669.641-.007.294.1.379.368.328" transform="translate(24.796 -96.183)" fill="#29c4bb"/>
    <path id="Trazado_127054" data-name="Trazado 127054" d="M212.981,151.153c-.244-.047-.38.034-.34.311.034.232-.046.36-.3.321s-.343.053-.345.323.113.348.354.315.3.069.3.3c-.007.359.215.5.562.388.165-.052.129-.183.118-.287-.029-.284.036-.457.371-.4.259.044.275-.118.274-.317s-.008-.36-.271-.319c-.283.044-.417-.06-.37-.359s-.138-.3-.35-.273" transform="translate(-211.994 -120.843)" fill="#29c4bb"/>
    <path id="Trazado_127055" data-name="Trazado 127055" d="M207.47,68.616c-.063.273.062.366.317.323.277-.047.39.067.341.342s.068.33.326.332.366-.076.32-.335c-.049-.276.066-.389.34-.338s.309-.1.319-.334c.013-.28-.1-.353-.34-.311-.265.046-.364-.064-.319-.323s-.037-.348-.313-.338c-.244.009-.384.043-.332.322s-.069.384-.341.339c-.256-.043-.38.049-.317.321" transform="translate(-205.475 -63.854)" fill="#010000"/>
    <path id="Trazado_127056" data-name="Trazado 127056" d="M51.8,185.982c-.06.254.066.348.32.3.3-.054.369.1.326.353-.047.28.088.323.334.322s.361-.055.312-.308c-.065-.332.1-.414.388-.365s.28-.135.281-.336,0-.36-.269-.308c-.357.071-.448-.1-.4-.42s-.187-.218-.342-.227-.348-.031-.3.234c.059.328-.056.48-.4.413-.29-.056-.254.146-.246.34" transform="translate(-20.487 -147.133)" fill="#010000"/>
    <path id="Trazado_127057" data-name="Trazado 127057" d="M123.727,16.785c.068-.29-.092-.347-.33-.312s-.344-.065-.306-.309-.035-.354-.314-.348c-.257.005-.374.072-.33.336s-.079.359-.333.321c-.235-.035-.353.021-.354.308s.109.373.366.332.363.08.321.333c-.047.284.105.316.344.321.255.005.338-.091.3-.325-.041-.257.054-.374.322-.329s.373-.064.315-.329" transform="translate(-104.142 -15.817)" fill="#29c4bb"/>
  </g>
  <g id="Grupo_158051" data-name="Grupo 158051" transform="translate(13.195 10.206)">
    <g id="Grupo_158051-2" data-name="Grupo 158051" clip-path="url(#clip-path)">
      <path id="Trazado_131741" data-name="Trazado 131741" d="M21.652,4.469c.472-.011.622.1.75.573A6.9,6.9,0,0,1,19.4,12.76a.9.9,0,0,0-.535.768.628.628,0,0,0,.364.683,1.659,1.659,0,0,1,.892,1.61,1.792,1.792,0,0,1-.978,1.573c-.108.062-.322.062-.253.261.053.152.224.068.338.068q3.875.007,7.75,0a1.839,1.839,0,0,1,2.009,2.016c0,.51,0,.537.488.505a1.932,1.932,0,0,1,2.056,2.069q-.05,7.254,0,14.508a2.094,2.094,0,0,1-1.482,2.3H10.408a.575.575,0,0,1-.48-.647.707.707,0,0,1,.683-.608,2.6,2.6,0,0,1,.381-.015q8.908,0,17.817,0c.051,0,.1,0,.152.007a5.013,5.013,0,0,0,.686-.02.6.6,0,0,0,.573-.6c.01-.1.008-.2.008-.305q0-7.237,0-14.475a2.689,2.689,0,0,0-.014-.382.731.731,0,0,0-1.005-.517.235.235,0,0,0-.12.22c-.01.14-.005.28-.005.42q0,6.359,0,12.718a1.975,1.975,0,0,1-1.789,1.789,4.316,4.316,0,0,1-.5.017q-11.036,0-22.071,0a2.364,2.364,0,0,1-1.691-.565,1.909,1.909,0,0,1-.619-1.5q0-2.406,0-4.812,0-3.857,0-7.714c0-.541-.031-.592-.352-.609a.655.655,0,0,0-.776.641c-.009.127,0,.254,0,.382q0,7.122,0,14.244a4.791,4.791,0,0,0,.012.5.585.585,0,0,0,.5.544,2.229,2.229,0,0,0,.495.025c1.909,0,3.818,0,5.728,0,.584,0,.738.112.921.608a.607.607,0,0,1-.446.657H1.392c-.164-.086-.335-.16-.491-.258A1.8,1.8,0,0,1,0,37.247q0-3.131,0-6.263,0-4.334,0-8.668a1.843,1.843,0,0,1,2.08-2.054c.354.006.5-.059.456-.444a1.916,1.916,0,0,1,2.08-2.107c2.557.05,5.116.016,7.675.012.114,0,.285.084.337-.07.067-.2-.144-.2-.253-.26a1.793,1.793,0,0,1-.98-1.572,1.767,1.767,0,0,1,.918-1.644.768.768,0,0,0,.086-1.222,2.267,2.267,0,0,0-.283-.193A6.932,6.932,0,0,1,8.972,5.6a6.832,6.832,0,0,1,5.6-5.488A6.712,6.712,0,0,1,20.96,2.374c.335.37.333.566.049.976a.624.624,0,0,1-.973-.141,5.638,5.638,0,0,0-2.274-1.6,4.638,4.638,0,0,0-.841-.231,5.556,5.556,0,0,0-5.664,2.1,5.674,5.674,0,0,0,.32,7.208,6.805,6.805,0,0,0,1.256,1.049,1.933,1.933,0,0,1,1.048,1.744c-.008.223.105.321.326.324.973.011.825.032.831-.77.006-.828-.007-1.655.005-2.483,0-.307-.1-.456-.417-.433a.778.778,0,0,1-.228-.024.685.685,0,0,1-.557-.641.64.64,0,0,1,.572-.66,20.164,20.164,0,0,1,2.67,0,.646.646,0,0,1,.592.644.686.686,0,0,1-.575.665,2.081,2.081,0,0,1-.342.028.258.258,0,0,0-.278.291c-.007,1.057,0,2.113,0,3.17a.189.189,0,0,0,.1.191,1.185,1.185,0,0,0,.265.031c.716.024.712.024.818-.678a2.006,2.006,0,0,1,1.03-1.394A5.834,5.834,0,0,0,20.6,9.8a5.594,5.594,0,0,0,.666-4.144,2.306,2.306,0,0,1-.1-.675c.028-.3.148-.512.488-.513" transform="translate(0 0)"/>
      <path id="Trazado_131742" data-name="Trazado 131742" d="M88.747,6.986a5.307,5.307,0,0,1,3.1,1.809.7.7,0,0,0,.933.238l.644,1.119c-.414.223-.47.393-.347.91a5.706,5.706,0,0,1-1.737,5.831,5.416,5.416,0,0,1-.891.654,1.807,1.807,0,0,0-.948,1.709c.015.3-.094.374-.369.35s-.559-.015-.839-.02a1.189,1.189,0,0,1,.208-1.208,2.751,2.751,0,0,1,.669-.561A6.025,6.025,0,0,0,91.995,12.5a6.036,6.036,0,0,0-2.762-5.084c-.176-.122-.439-.163-.486-.435" transform="translate(-71.767 -5.684)" fill="#fea338"/>
      <path id="Trazado_131743" data-name="Trazado 131743" d="M25.285,4.278a.587.587,0,0,1-.305.511.5.5,0,0,1-.606-.042c-.647-.627-1.289-1.26-1.908-1.915a.5.5,0,0,1,.046-.723.507.507,0,0,1,.753-.047c.645.611,1.263,1.25,1.888,1.881a.547.547,0,0,1,.133.335" transform="translate(-18.167 -1.559)" fill="#010101"/>
      <path id="Trazado_131744" data-name="Trazado 131744" d="M131.475,4.856a.548.548,0,0,1-.516-.308.489.489,0,0,1,.063-.6c.619-.637,1.241-1.272,1.886-1.884a.506.506,0,0,1,.753.046.513.513,0,0,1,.027.756c-.6.634-1.233,1.244-1.855,1.861a.46.46,0,0,1-.357.132" transform="translate(-106.491 -1.557)" fill="#010101"/>
      <path id="Trazado_131745" data-name="Trazado 131745" d="M137.615,33.992c.406,0,.813-.006,1.219,0a.569.569,0,1,1,.029,1.137q-1.257.024-2.515,0a.57.57,0,1,1,.047-1.138c.406-.006.813,0,1.219,0" transform="translate(-110.465 -27.655)"/>
      <path id="Trazado_131746" data-name="Trazado 131746" d="M15.484,33.992c.406,0,.813-.006,1.219,0a.569.569,0,1,1,.025,1.137q-1.257.023-2.515,0a.564.564,0,0,1-.583-.579.573.573,0,0,1,.633-.559c.406-.006.813,0,1.219,0" transform="translate(-11.091 -27.655)"/>
      <path id="Trazado_131747" data-name="Trazado 131747" d="M25.343,56.9a.683.683,0,0,1-.231.48c-.558.556-1.11,1.117-1.672,1.669a.575.575,0,1,1-.82-.793c.56-.572,1.13-1.133,1.695-1.7a.577.577,0,0,1,.692-.155.57.57,0,0,1,.336.5" transform="translate(-18.228 -45.839)"/>
      <path id="Trazado_131748" data-name="Trazado 131748" d="M131.49,56.329a.721.721,0,0,1,.476.229c.555.559,1.117,1.11,1.668,1.672a.58.58,0,0,1,.042.875.56.56,0,0,1-.843-.061c-.571-.561-1.134-1.13-1.7-1.7a.557.557,0,0,1-.168-.653.579.579,0,0,1,.522-.366" transform="translate(-106.521 -45.831)"/>
      <path id="Trazado_131749" data-name="Trazado 131749" d="M29.781,115.3c-3.233-.006-6.465-.017-9.7-.01-.318,0-.4-.079-.4-.4q.016-6.377.008-12.754c0-.693.217-.907.914-.907,2.6,0,5.193,0,7.789-.005a.429.429,0,0,1,.485.291,1.859,1.859,0,0,0,1.063.926,1.338,1.338,0,0,1,.194.913q0,5.136,0,10.272c0,.445.017.891-.011,1.336-.012.2-.027.442-.351.335" transform="translate(-16.019 -82.365)" fill="#e8eefe"/>
      <path id="Trazado_131750" data-name="Trazado 131750" d="M89.238,115.294a3.391,3.391,0,0,0-1.575.632c-.111-.1-.066-.224-.066-.327q0-6.123,0-12.247c0-.076,0-.153.006-.229.039-.592.04-.6.63-.61a1.812,1.812,0,0,0,1.737-1.082.264.264,0,0,1,.275-.191q3.738.013,7.476.016a.556.556,0,0,1,.288.425,2.923,2.923,0,0,1,.064.759q0,6.054,0,12.107c0,.719,0,.719-.7.719q-3.857,0-7.715,0a1.224,1.224,0,0,0-.417.024" transform="translate(-71.264 -82.373)" fill="#e8eefe"/>
      <path id="Trazado_131751" data-name="Trazado 131751" d="M60.594,6.231a7,7,0,0,1,2.282,2.086,6.306,6.306,0,0,1-1.657,8.723c-.062.044-.124.09-.19.127a1.585,1.585,0,0,0-.892,1.663c-.212.045-.189-.106-.189-.231,0-1.146,0-2.292,0-3.438,0-.195.079-.238.249-.227a3.127,3.127,0,0,0,.458,0,.57.57,0,0,0,.556-.566.552.552,0,0,0-.548-.569q-1.279-.021-2.559,0a.553.553,0,0,0-.562.556.574.574,0,0,0,.579.583c.681.053.681.053.681.746,0,.955-.006,1.91,0,2.865,0,.224-.046.341-.292.3a1.352,1.352,0,0,0-.19,0c-.28-.005-.612.081-.824-.041s-.056-.49-.114-.745a1.911,1.911,0,0,0-.913-1.26A5.757,5.757,0,0,1,60.451,6.177a.963.963,0,0,1,.142.054" transform="translate(-43.614 -4.929)" fill="#fec45e"/>
      <path id="Trazado_131752" data-name="Trazado 131752" d="M15,131.736l-1.12,0c-.154-.5-.271-.584-.789-.584h-6c-.727,0-.941-.208-.941-.921q0-7.372,0-14.745a.9.9,0,0,1,1.257-.914.143.143,0,0,1,.125.157c0,.1,0,.2,0,.305,0,4.215.025,8.429-.015,12.644a2,2,0,0,0,2.111,2.106c7.448-.025,14.9-.012,22.345-.013A1.866,1.866,0,0,0,34,128.087a1.165,1.165,0,0,0,.026-.416q0-6.207,0-12.414a1.278,1.278,0,0,1,.034-.464c.194.048.22.2.251.344a2.336,2.336,0,0,1,.027.495q0,7.219,0,14.438a2.473,2.473,0,0,1-.045.608.589.589,0,0,1-.307.457c-.152,0-.3.011-.457.011H15.814c-.557,0-.7.108-.811.589" transform="translate(-5.007 -93.168)" fill="#368cf5"/>
      <path id="Trazado_131753" data-name="Trazado 131753" d="M155.452,131.339a1.72,1.72,0,0,0,.232-.908q-.008-7.387,0-14.775a1.085,1.085,0,0,0-.153-.657v.558q0,6.146,0,12.293c0,.147.051.307-.062.441q0-5.307-.009-10.614c0-.853.013-1.706-.007-2.558-.007-.294.085-.389.365-.351a2.247,2.247,0,0,1,.566.048.713.713,0,0,1,.466.751c-.007,1.107,0,2.215,0,3.322v11.34c0,.98-.146,1.126-1.123,1.121-.089,0-.178-.007-.267-.011" transform="translate(-126.475 -93.372)" fill="#336fe6"/>
      <path id="Trazado_131754" data-name="Trazado 131754" d="M96.441,115.282c.133-.113.293-.064.44-.064,2.62,0,5.241-.007,7.861,0,.3,0,.416-.066.415-.4q-.016-6.354-.007-12.708a1.747,1.747,0,0,0-.228-.872c1.1-.072,1.4,0,1.393,1.3-.029,4.108-.015,8.216,0,12.323,0,.327-.065.422-.411.42-3.153-.015-6.307-.009-9.46-.009" transform="translate(-78.467 -82.36)" fill="#d2dbfa"/>
      <path id="Trazado_131755" data-name="Trazado 131755" d="M73.842,120.615c.14-.006.251-.04.238-.218-.007-.1,0-.2,0-.3q0-5.124,0-10.248a13.211,13.211,0,0,0-.07-2.085c.292.019.584.06.875.05.238-.008.319.1.339.305.017.177.039.355.039.533q0,6.131,0,12.261c0,.1-.012.2-.022.357a3.886,3.886,0,0,0-1.4-.65" transform="translate(-60.08 -87.675)" fill="#d2dbf9"/>
      <path id="Trazado_131756" data-name="Trazado 131756" d="M19.956,184.039a1.044,1.044,0,0,1-.458-1.227c.072-.165.221-.085.332-.085q2.782-.008,5.563,0c1.194,0,2.387.011,3.58.017a1.65,1.65,0,0,1,.78,1.035c.084.206-.008.315-.235.3-.038,0-.076,0-.114,0h-9.15a.541.541,0,0,1-.3-.034" transform="translate(-15.816 -148.656)" fill="#bdc7f6"/>
      <path id="Trazado_131757" data-name="Trazado 131757" d="M88.626,183.95a1.85,1.85,0,0,1,1.841-1.16q4.047,0,8.094,0c.076,0,.152.011.227.017a1.268,1.268,0,0,1-.014,1.134.282.282,0,0,1-.294.2c-.114,0-.229,0-.343,0q-4.593,0-9.185-.006c-.118,0-.359.124-.326-.183" transform="translate(-72.106 -148.721)" fill="#bdc7f6"/>
      <path id="Trazado_131758" data-name="Trazado 131758" d="M72.408,82.3c-1.484.005-2.969.018-4.453.012a.672.672,0,0,1-.157-1.325c.973-.059,1.947-.012,2.921-.025.456-.006.911,0,1.367,0,.377,0,.493.092.559.465a.887.887,0,0,1-.236.874" transform="translate(-54.74 -65.871)" fill="#e8eefe"/>
      <path id="Trazado_131759" data-name="Trazado 131759" d="M74.508,95.836a.535.535,0,0,1-.539-.474,1.462,1.462,0,0,1,.017-.835c.847-.077,1.7-.016,2.543-.033.167,0,.211.114.235.246a2.252,2.252,0,0,1,.018.493c-.021.556-.1.64-.642.63a15.076,15.076,0,0,1-1.631-.028" transform="translate(-60.14 -76.877)" fill="#bcc6f4"/>
      <path id="Trazado_131760" data-name="Trazado 131760" d="M88.293,183.927c.03.186.176.15.3.15q4.706,0,9.412,0c.238,0,.327-.1.387-.316a4.161,4.161,0,0,0,.067-.982c.3-.006.609,0,.913-.022.216-.015.264.081.244.267-.009.088,0,.178,0,.267-.005.609-.246.853-.858.853q-4.917,0-9.833,0c-.178,0-.356,0-.534,0-.22,0-.2-.092-.092-.225" transform="translate(-71.773 -148.699)" fill="#a1b5f2"/>
      <path id="Trazado_131761" data-name="Trazado 131761" d="M22.215,184.17l9.352,0c.468,0,.461,0,.265-.418a3.954,3.954,0,0,0-.6-.876,1.84,1.84,0,0,1,1.785,1.006c.2.337.179.359-.213.36q-4.769,0-9.54,0a2.537,2.537,0,0,1-1.051-.066" transform="translate(-18.075 -148.787)" fill="#a1b4f2"/>
      <path id="Trazado_131762" data-name="Trazado 131762" d="M74.811,95.727c.585,0,1.171-.024,1.755-.007.249.007.362-.1.382-.313.024-.265.015-.534.013-.8,0-.221-.174-.179-.306-.18-.789-.005-1.578-.006-2.366-.009.148-.106.317-.051.475-.051,1.027,0,2.055.007,3.082,0,.245,0,.355.059.323.318-.022.175,0,.357-.027.53a.56.56,0,0,1-.524.522,19.835,19.835,0,0,1-2.806-.007" transform="translate(-60.443 -76.768)" fill="#9fb3f0"/>
      <path id="Trazado_131763" data-name="Trazado 131763" d="M74.666,82.188a1.76,1.76,0,0,0,.12-.925.441.441,0,0,0-.5-.381c-1.257.018-2.514.008-3.771.007-.152,0-.3-.009-.456-.014.086-.077.192-.054.291-.054,1.612,0,3.225,0,4.837,0,.517,0,.833.313.784.764a.62.62,0,0,1-.581.6,5.981,5.981,0,0,1-.72,0" transform="translate(-56.998 -65.755)" fill="#d1daf9"/>
      <path id="Trazado_131764" data-name="Trazado 131764" d="M39.766,112.31c-.42,0-.84.007-1.26,0a1.158,1.158,0,0,1-1.174-1.153c-.011-.458-.012-.917,0-1.375a1.155,1.155,0,0,1,1.115-1.136c.89-.022,1.782-.019,2.673,0a1.125,1.125,0,0,1,1.122,1.043,11.052,11.052,0,0,1,0,1.563,1.138,1.138,0,0,1-1.144,1.061H39.766" transform="translate(-30.367 -88.383)"/>
      <path id="Trazado_131765" data-name="Trazado 131765" d="M31.506,136.958q-1.812,0-3.624,0c-.477,0-.738-.214-.73-.58s.264-.564.716-.564q3.662,0,7.325,0c.546,0,.846.422.623.844a.632.632,0,0,1-.649.3c-1.221,0-2.441,0-3.662,0" transform="translate(-22.091 -110.499)" fill="#010101"/>
      <path id="Trazado_131766" data-name="Trazado 131766" d="M31.527,163.04c1.233,0,2.467,0,3.7,0a.586.586,0,0,1,.654.406.569.569,0,0,1-.59.737c-.381.017-.763,0-1.144,0h-6.1a2.078,2.078,0,0,1-.38-.018.53.53,0,0,1-.484-.584.517.517,0,0,1,.533-.535c.381-.017.763-.008,1.144-.009h2.67" transform="translate(-22.113 -132.652)" fill="#010101"/>
      <path id="Trazado_131767" data-name="Trazado 131767" d="M31.522,150.569q-1.755,0-3.509,0a2.15,2.15,0,0,1-.38-.021.516.516,0,0,1-.458-.527.522.522,0,0,1,.45-.572,1.636,1.636,0,0,1,.341-.026q3.566,0,7.133,0a1.6,1.6,0,0,1,.378.032.561.561,0,0,1-.028,1.091,2.029,2.029,0,0,1-.38.022q-1.774,0-3.547,0" transform="translate(-22.11 -121.574)" fill="#010101"/>
      <path id="Trazado_131768" data-name="Trazado 131768" d="M107.676,112.322c-.42,0-.84.006-1.26,0a1.159,1.159,0,0,1-1.212-1.158,13.525,13.525,0,0,1,0-1.375,1.166,1.166,0,0,1,1.2-1.138q1.26-.016,2.521,0a1.175,1.175,0,0,1,1.21,1.2c.008.433.009.866,0,1.3a1.156,1.156,0,0,1-1.158,1.169c-.433.011-.866,0-1.3,0" transform="translate(-85.583 -88.395)"/>
      <path id="Trazado_131769" data-name="Trazado 131769" d="M99.44,136.95c-1.221,0-2.442,0-3.662,0-.344,0-.6-.111-.662-.483s.2-.652.642-.661c.521-.011,1.043,0,1.564,0h5.646a1.908,1.908,0,0,1,.38.017.535.535,0,0,1,.481.589.518.518,0,0,1-.536.532c-.419.016-.839.007-1.259.008H99.44" transform="translate(-77.382 -110.491)" fill="#010101"/>
      <path id="Trazado_131770" data-name="Trazado 131770" d="M99.456,164.194c-1.17,0-2.34,0-3.509,0a1.591,1.591,0,0,1-.451-.047.511.511,0,0,1-.376-.587.5.5,0,0,1,.448-.492,2.48,2.48,0,0,1,.418-.018h6.981a2.461,2.461,0,0,1,.418.019.558.558,0,0,1,.07,1.078,1.555,1.555,0,0,1-.451.047c-1.183,0-2.365,0-3.548,0" transform="translate(-77.389 -132.659)" fill="#010101"/>
      <path id="Trazado_131771" data-name="Trazado 131771" d="M99.452,150.57q-1.755,0-3.509,0a1.966,1.966,0,0,1-.38-.023.561.561,0,0,1-.021-1.092,1.44,1.44,0,0,1,.34-.03q3.6,0,7.209,0a1.452,1.452,0,0,1,.266.017.53.53,0,0,1,.483.584.523.523,0,0,1-.5.531,2.588,2.588,0,0,1-.342.013H99.452" transform="translate(-77.392 -121.574)" fill="#010101"/>
      <path id="Trazado_131772" data-name="Trazado 131772" d="M44.947,116.32c-.416.005-.832,0-1.247.018-.166.005-.222-.051-.215-.216.015-.365.015-.73.021-1.1a8.936,8.936,0,0,1,1.283-.036c.134-.007.233.054.244.185a1.805,1.805,0,0,1-.085,1.145" transform="translate(-35.38 -93.554)" fill="#76defe"/>
      <path id="Trazado_131773" data-name="Trazado 131773" d="M45.039,116.16c0-.342-.007-.685,0-1.027.005-.2-.068-.273-.266-.269-.393.009-.786,0-1.179,0,.027-.11.118-.073.184-.074.722,0,1.445.007,2.167,0,.215,0,.277.063.284.278.04,1.137.046,1.137-1.081,1.108a1.059,1.059,0,0,1-.113-.014" transform="translate(-35.472 -93.394)" fill="#68cbfc"/>
      <path id="Trazado_131774" data-name="Trazado 131774" d="M112.853,116.324c-.428.005-.856.008-1.283.018-.136,0-.218-.033-.209-.187a8.012,8.012,0,0,1,.033-1.127,10.353,10.353,0,0,1,1.293-.033c.133-.006.238.044.25.178a1.791,1.791,0,0,1-.083,1.151" transform="translate(-90.602 -93.558)" fill="#76ddfd"/>
      <path id="Trazado_131775" data-name="Trazado 131775" d="M113.016,116.167c0-.3-.021-.606.006-.905.029-.327-.106-.412-.41-.393-.351.022-.7,0-1.056,0,.037-.1.124-.07.193-.07.722,0,1.444.006,2.165,0,.2,0,.254.052.262.253.046,1.2.052,1.2-1.161,1.117" transform="translate(-90.765 -93.401)" fill="#69ccfe"/>
    </g>
  </g>
</svg>
