<svg id="Grupo_157919" data-name="Grupo 157919" xmlns="http://www.w3.org/2000/svg" xmlns:xlink="http://www.w3.org/1999/xlink" width="59.538" height="59.538" viewBox="0 0 59.538 59.538">
  <defs>
    <clipPath id="clip-path">
      <rect id="Rectángulo_37888" data-name="Rectángulo 37888" width="32.373" height="33.533" fill="none"/>
    </clipPath>
  </defs>
  <path id="Trazado_127482" data-name="Trazado 127482" d="M29.769,0A29.769,29.769,0,1,1,0,29.769,29.769,29.769,0,0,1,29.769,0Z" fill="#b0c8cb"/>
  <g id="Grupo_156595" data-name="Grupo 156595" transform="translate(9.021 10.224)">
    <path id="Trazado_127053" data-name="Trazado 127053" d="M14.667,122.237c.273.061.336-.068.334-.323-.007-.639,0-.65.665-.646.246,0,.323-.075.318-.318,0-.227-.046-.332-.308-.331-.663,0-.68-.011-.673-.673,0-.3-.144-.305-.366-.307s-.337.035-.337.3c0,.67-.014.682-.669.68-.253,0-.313.09-.314.326s.059.325.313.324c.668,0,.684.009.669.641-.007.294.1.379.368.328" transform="translate(24.796 -96.183)" fill="#29c4bb"/>
    <path id="Trazado_127054" data-name="Trazado 127054" d="M212.981,151.153c-.244-.047-.38.034-.34.311.034.232-.046.36-.3.321s-.343.053-.345.323.113.348.354.315.3.069.3.3c-.007.359.215.5.562.388.165-.052.129-.183.118-.287-.029-.284.036-.457.371-.4.259.044.275-.118.274-.317s-.008-.36-.271-.319c-.283.044-.417-.06-.37-.359s-.138-.3-.35-.273" transform="translate(-211.994 -120.843)" fill="#29c4bb"/>
    <path id="Trazado_127055" data-name="Trazado 127055" d="M207.47,68.616c-.063.273.062.366.317.323.277-.047.39.067.341.342s.068.33.326.332.366-.076.32-.335c-.049-.276.066-.389.34-.338s.309-.1.319-.334c.013-.28-.1-.353-.34-.311-.265.046-.364-.064-.319-.323s-.037-.348-.313-.338c-.244.009-.384.043-.332.322s-.069.384-.341.339c-.256-.043-.38.049-.317.321" transform="translate(-205.475 -63.854)" fill="#010000"/>
    <path id="Trazado_127056" data-name="Trazado 127056" d="M51.8,185.982c-.06.254.066.348.32.3.3-.054.369.1.326.353-.047.28.088.323.334.322s.361-.055.312-.308c-.065-.332.1-.414.388-.365s.28-.135.281-.336,0-.36-.269-.308c-.357.071-.448-.1-.4-.42s-.187-.218-.342-.227-.348-.031-.3.234c.059.328-.056.48-.4.413-.29-.056-.254.146-.246.34" transform="translate(-20.487 -147.133)" fill="#010000"/>
    <path id="Trazado_127057" data-name="Trazado 127057" d="M123.727,16.785c.068-.29-.092-.347-.33-.312s-.344-.065-.306-.309-.035-.354-.314-.348c-.257.005-.374.072-.33.336s-.079.359-.333.321c-.235-.035-.353.021-.354.308s.109.373.366.332.363.08.321.333c-.047.284.105.316.344.321.255.005.338-.091.3-.325-.041-.257.054-.374.322-.329s.373-.064.315-.329" transform="translate(-104.142 -15.817)" fill="#29c4bb"/>
  </g>
  <g id="Grupo_158047" data-name="Grupo 158047" transform="translate(13.933 13.002)">
    <g id="Grupo_158047-2" data-name="Grupo 158047" clip-path="url(#clip-path)">
      <path id="Trazado_131652" data-name="Trazado 131652" d="M27.952,21.268c.876,0,1.71,0,2.543,0a1.75,1.75,0,0,1,1.877,1.88q0,1.233,0,2.467c0,.447-.138.574-.58.59-.357.013-.836-.157-1.037.071-.175.2-.055.667-.049,1.016.019,1.107,0,1.1-1.1,1.09-1.04-.011-2.08.02-3.119-.014-.387-.013-.44.114-.435.456.02,1.354.008,2.709.008,4.063,0,.535-.105.645-.625.645H.621c-.5,0-.615-.117-.615-.62Q0,19.292,0,5.67a.8.8,0,0,1,.271-.635Q2.784,2.651,5.282.252A.856.856,0,0,1,5.927,0q9.741.009,19.481,0c.553,0,.651.1.651.655q0,4.916,0,9.831c0,.174-.054.329.253.338a2.815,2.815,0,0,1,2.78,3.432c-.384,2.322-.756,4.647-1.139,7.008" transform="translate(0 0)"/>
      <path id="Trazado_131653" data-name="Trazado 131653" d="M24.739,19.89H7.631a2.383,2.383,0,0,0-.362.006.432.432,0,0,0,0,.858,2.351,2.351,0,0,0,.362.006q8.419,0,16.837-.01c.342,0,.46.1.486.418a9.26,9.26,0,0,0,.153.966c.032.171-.005.253-.194.225a1.534,1.534,0,0,0-.217,0H7.643c-.109,0-.218-.006-.326,0a.433.433,0,0,0,.014.866c.108.007.217,0,.326,0H24.6c.675,0,.675,0,.783.726-.836,0-1.667.009-2.5,0a1.77,1.77,0,0,0-1.568.739c-.122.171-.267.133-.414.133q-5.316,0-10.632,0-1.4,0-2.794,0c-.4,0-.585.136-.591.425s.187.445.607.445q6.549,0,13.1-.007c.305,0,.429.051.394.384a7.676,7.676,0,0,0,0,1.015c0,.153-.034.228-.2.206a1.611,1.611,0,0,0-.217,0H7.613a1.982,1.982,0,0,0-.362.009.432.432,0,0,0,0,.852,2,2,0,0,0,.362.009q6.477,0,12.954,0c.245,0,.468-.045.43.349-.023.24.191.375.443.377a7.591,7.591,0,0,0,.87-.005c.3-.032.357.093.343.36-.021.4-.006.8-.005,1.2,0,.5.127.625.614.626,1.427,0,2.855.008,4.282-.006.267,0,.34.057.337.332-.017,1.222-.014,2.443,0,3.665,0,.235-.057.3-.3.3q-11.866-.01-23.731,0c-.236,0-.3-.058-.3-.3q.01-13.1,0-26.2c0-.237.059-.3.3-.3,1.464.011,2.927.007,4.391.005.5,0,.616-.115.616-.617,0-1.367.007-2.734-.006-4.1,0-.239.064-.3.3-.295q9.217.01,18.433,0c.24,0,.295.066.294.3q-.012,4.681,0,9.362c0,.242-.067.3-.3.293a3.552,3.552,0,0,0-1.77.27,2.817,2.817,0,0,0-1.529,3.236c.068.345.01.416-.339.416q-8.164-.017-16.329-.007a2,2,0,0,0-.362.009.432.432,0,0,0,0,.852,1.979,1.979,0,0,0,.362.009q8.237,0,16.474-.007c.316,0,.443.072.464.4.025.393.119.782.187,1.2" transform="translate(-2.688 -2.685)" fill="#e7fffe"/>
      <path id="Trazado_131654" data-name="Trazado 131654" d="M94.463,57.254c-.483,0-.967-.013-1.45.006-.225.009-.313-.061-.347-.281-.217-1.395-.444-2.788-.668-4.182-.153-.953-.31-1.905-.458-2.859a1.918,1.918,0,0,1,1.8-2.182c.748-.027,1.5-.028,2.247,0a1.908,1.908,0,0,1,1.8,2.184c-.364,2.337-.75,4.67-1.116,7.006-.04.258-.138.328-.392.315-.47-.023-.942-.007-1.413-.007" transform="translate(-69.132 -36.058)" fill="#5c1800"/>
      <path id="Trazado_131655" data-name="Trazado 131655" d="M84.5,100.267c1.947,0,3.893.011,5.84-.01.365,0,.332.172.331.409s.035.413-.33.41c-2.333-.02-4.667-.011-7-.01a2.008,2.008,0,0,0-.326.008.432.432,0,0,0-.011.853,1.717,1.717,0,0,0,.326.009c1.765,0,3.531.011,5.3-.01.336,0,.413.1.378.4a2.645,2.645,0,0,0,0,.616c.032.269-.081.307-.322.307q-4.189-.013-8.379,0c-.263,0-.329-.075-.308-.322a4.677,4.677,0,0,0,0-.761c-.015-.2.069-.243.248-.233.229.013.459,0,.689,0,.3,0,.509-.119.511-.432s-.2-.44-.5-.44c-.774,0-1.548-.01-2.321.007-.242.005-.3-.068-.294-.3.013-.5,0-.5.517-.5Z" transform="translate(-59.161 -75.733)" fill="#fe916b"/>
      <path id="Trazado_131656" data-name="Trazado 131656" d="M84.489,92.011c-1.945,0-3.89,0-5.835.006-.248,0-.352-.027-.346-.321.019-.932.278-1.208,1.21-1.208,3.322,0,6.644.012,9.966-.007,1.107-.006,1.22.616,1.171,1.389-.015.239-.192.136-.3.137-1.45.007-2.9,0-4.349,0Z" transform="translate(-59.152 -68.347)" fill="#fe642e"/>
      <path id="Trazado_131657" data-name="Trazado 131657" d="M6.252,9.43l3.773-3.582v.538q0,1.394,0,2.787c0,.124.047.262-.178.261-1.167-.009-2.334,0-3.594,0" transform="translate(-4.723 -4.418)" fill="#c2d6d5"/>
      <path id="Trazado_131658" data-name="Trazado 131658" d="M18.034,29.323a3.858,3.858,0,1,1,3.846,3.884,3.838,3.838,0,0,1-3.846-3.884" transform="translate(-13.623 -19.259)"/>
      <path id="Trazado_131659" data-name="Trazado 131659" d="M22.775,110.676h4.9a2.6,2.6,0,0,1,.29,0,.4.4,0,0,1,.409.421.409.409,0,0,1-.424.443c-.072.007-.145,0-.217,0H17.824c-.072,0-.146,0-.217,0a.434.434,0,0,1,.016-.867c.084-.005.169,0,.254,0h4.9" transform="translate(-12.979 -83.602)"/>
      <path id="Trazado_131660" data-name="Trazado 131660" d="M95.816,54.99c.05.3-.012.536-.336.616-.252.063-.466-.127-.522-.468-.178-1.082-.347-2.166-.514-3.213a1.261,1.261,0,0,1,1.148-1.263c.276-.015.486.07.523.37a.4.4,0,0,1-.376.482c-.357.053-.448.241-.388.585" transform="translate(-71.342 -38.268)" fill="#fefefe"/>
      <path id="Trazado_131661" data-name="Trazado 131661" d="M98.2,74.641a.4.4,0,0,1-.5-.3,3.486,3.486,0,0,1-.084-.458c-.016-.332.115-.5.357-.537a.407.407,0,0,1,.487.328" transform="translate(-73.735 -55.397)" fill="#fefefe"/>
      <path id="Trazado_131662" data-name="Trazado 131662" d="M21.6,32.024a2.987,2.987,0,1,1,2.941,3,2.962,2.962,0,0,1-2.941-3" transform="translate(-16.313 -21.949)" fill="#3870fe"/>
      <path id="Trazado_131663" data-name="Trazado 131663" d="M23.968,33.814a2.382,2.382,0,1,1,2.341,2.45,2.383,2.383,0,0,1-2.341-2.45" transform="translate(-18.104 -23.782)"/>
      <path id="Trazado_131664" data-name="Trazado 131664" d="M27.53,36.556a1.509,1.509,0,1,1,1.511,1.527,1.518,1.518,0,0,1-1.511-1.527" transform="translate(-20.796 -26.472)" fill="#21fef5"/>
    </g>
  </g>
</svg>
