<svg xmlns="http://www.w3.org/2000/svg" xmlns:xlink="http://www.w3.org/1999/xlink" width="70" height="85" viewBox="0 0 70 85">
  <defs>
    <clipPath id="clip-path">
      <rect id="Rect치ngulo_37867" data-name="Rect치ngulo 37867" width="39.213" height="35.977" fill="none"/>
    </clipPath>
  </defs>
  <g id="Grupo_158007" data-name="Grupo 158007" transform="translate(-379 -3100)">
    <g id="Grupo_156312" data-name="Grupo 156312" transform="translate(-161 1393)">
      <rect id="Rect치ngulo_36766" data-name="Rect치ngulo 36766" width="70" height="85" rx="12" transform="translate(540 1707)" fill="#1169e3"/>
    </g>
    <g id="Grupo_157994" data-name="Grupo 157994" transform="translate(394 3125)">
      <g id="Grupo_157993" data-name="Grupo 157993" clip-path="url(#clip-path)">
        <path id="Trazado_131193" data-name="Trazado 131193" d="M39.213,45.286a1.126,1.126,0,0,1-1.11.563q-18.478-.014-36.956,0A1.142,1.142,0,0,1,0,45.286V23.533a1.1,1.1,0,0,1,1.071-.563q18.517.015,37.033,0a1.126,1.126,0,0,1,1.109.565ZM1.7,44.171H37.519V24.653H1.7Z" transform="translate(0 -16.422)"/>
        <path id="Trazado_131194" data-name="Trazado 131194" d="M37.272,3.282h2.139q6.775,0,13.55,0a1.515,1.515,0,0,1,.557.089.791.791,0,0,1,.45.85.8.8,0,0,1-.688.673,2.513,2.513,0,0,1-.344.017l-17.53,0c-.089,0-.179,0-.268-.005a.759.759,0,0,1-.708-.5.741.741,0,0,1,.149-.851c1.1-1.116,2.209-2.23,3.33-3.328a.78.78,0,0,1,1.134.032.8.8,0,0,1,0,1.138c-.465.49-.95.962-1.433,1.435a4.912,4.912,0,0,1-.414.33l.081.117" transform="translate(-24.567 -0.001)"/>
        <path id="Trazado_131195" data-name="Trazado 131195" d="M51.2,110.6H35.476c-.089,0-.179,0-.268,0a.819.819,0,0,1-.807-.8.787.787,0,0,1,.786-.816c.65-.022,1.3-.016,1.951-.015q7.576.007,15.152.021a8.336,8.336,0,0,1,1.1.083.684.684,0,0,1,.481,1.112,6.016,6.016,0,0,1-.677.777c-.864.868-1.737,1.727-2.606,2.59-.227.226-.5.429-.811.3a1.357,1.357,0,0,1-.623-.544.717.717,0,0,1,.217-.865L51.2,110.6" transform="translate(-24.596 -77.908)"/>
        <path id="Trazado_131196" data-name="Trazado 131196" d="M5.974,28.88H41.791V48.4H5.974Zm17.945,1.558v0H11.133c-.844,0-1.09.218-1.193,1.048a1.577,1.577,0,0,1-1.44,1.4c-.723.062-1.007.345-1.007,1.069q-.006,4.69.007,9.379c0,.726.281,1.009,1.006,1.068a1.567,1.567,0,0,1,1.416,1.335c.114.915.335,1.112,1.25,1.112l25.417-.005c.889,0,1.113-.2,1.23-1.091a1.581,1.581,0,0,1,1.4-1.355c.778-.074,1.025-.339,1.027-1.126,0-1.3,0-2.6-.005-3.9,0-1.812,0-3.624,0-5.436,0-.7-.28-.991-.945-1.041a1.564,1.564,0,0,1-1.482-1.438c-.094-.781-.352-1.01-1.147-1.01H23.919" transform="translate(-4.271 -20.649)" fill="#0d7300"/>
        <path id="Trazado_131197" data-name="Trazado 131197" d="M27.725,34.337H40.472c.795,0,1.053.228,1.147,1.01A1.564,1.564,0,0,0,43.1,36.785c.666.05.943.342.946,1.041.007,1.812,0,3.624,0,5.436,0,1.3.008,2.6.005,3.9,0,.787-.249,1.051-1.027,1.126a1.581,1.581,0,0,0-1.4,1.355c-.117.891-.341,1.091-1.23,1.091l-25.417.005c-.915,0-1.136-.2-1.25-1.112A1.567,1.567,0,0,0,12.312,48.3c-.725-.059-1-.342-1.006-1.068q-.012-4.689-.008-9.379c0-.724.284-1.007,1.007-1.069a1.578,1.578,0,0,0,1.44-1.4c.1-.83.349-1.047,1.193-1.047H27.725Zm-.013,1.721a6.481,6.481,0,1,0,6.45,6.219,6.461,6.461,0,0,0-6.45-6.219m5,12.985h3.364c1.237,0,2.474,0,3.711-.007a.367.367,0,0,0,.287-.161A3.381,3.381,0,0,1,42.352,46.7V38.366a3.253,3.253,0,0,1-2.2-2,.456.456,0,0,0-.524-.347c-2.181.012-4.362.006-6.543.007-.108,0-.215.009-.359.016a8.3,8.3,0,0,1-.021,13m-19.7-10.677a1.351,1.351,0,0,0-.019.145c0,2.641.008,5.282,0,7.923,0,.238.113.3.292.364a3.145,3.145,0,0,1,1.935,1.886.46.46,0,0,0,.518.357c2.181-.01,4.363,0,6.545,0,.107,0,.215-.01.359-.017A8.293,8.293,0,0,1,22.6,36.069c-.007-.009-.014-.026-.021-.026-2.347-.005-4.694-.012-7.041,0a.361.361,0,0,0-.256.2,3.382,3.382,0,0,1-2.269,2.124" transform="translate(-8.078 -24.548)"/>
        <path id="Trazado_131198" data-name="Trazado 131198" d="M52.563,40.383a6.481,6.481,0,1,1-6.5,6.776,6.475,6.475,0,0,1,6.5-6.776m.829,4.058v0c.536,0,1.072.007,1.607,0a.86.86,0,0,0,.854-.771.834.834,0,0,0-.706-.9,7.054,7.054,0,0,0-1.028-.049c-.694-.007-.693,0-.717-.673a1.371,1.371,0,0,0-.013-.191.889.889,0,0,0-.874-.76.862.862,0,0,0-.836.795,2.516,2.516,0,0,0-.007.5c.019.234-.068.341-.307.385a2.486,2.486,0,0,0-2.14,2.64,2.545,2.545,0,0,0,2.623,2.321c.51,0,1.021-.013,1.531,0a.758.758,0,0,1,.171,1.492,1.693,1.693,0,0,1-.452.054c-1.008,0-2.016-.005-3.023,0a.857.857,0,0,0-.856.768.834.834,0,0,0,.7.9,6.576,6.576,0,0,0,.99.05c.724.007.724,0,.76.708,0,.038,0,.077.006.115a.893.893,0,0,0,.877.8.881.881,0,0,0,.839-.8,2.473,2.473,0,0,0,.007-.5c-.019-.235.071-.339.309-.382A2.491,2.491,0,0,0,55.847,48.3a2.54,2.54,0,0,0-2.587-2.316c-.459,0-.919.006-1.378,0-.591,0-.933-.29-.927-.775.006-.469.369-.771.945-.776.5,0,.995,0,1.493,0" transform="translate(-32.93 -28.874)" fill="#0dd200"/>
        <path id="Trazado_131199" data-name="Trazado 131199" d="M86.422,53.28a8.3,8.3,0,0,0,.021-13c.143-.007.251-.016.359-.016,2.181,0,4.362,0,6.543-.007a.456.456,0,0,1,.524.347,3.253,3.253,0,0,0,2.2,2v8.335a3.382,3.382,0,0,0-2.282,2.173.367.367,0,0,1-.287.161c-1.237.011-2.474.007-3.711.007H86.422m7.241-6.5a.829.829,0,1,0-.826.835.842.842,0,0,0,.826-.835" transform="translate(-61.791 -28.785)" fill="#0dac00"/>
        <path id="Trazado_131200" data-name="Trazado 131200" d="M17.265,42.635a3.381,3.381,0,0,0,2.269-2.124.362.362,0,0,1,.256-.2c2.347-.007,4.694,0,7.041,0,.007,0,.014.017.021.026A8.293,8.293,0,0,0,26.894,53.3c-.144.007-.252.017-.359.017-2.182,0-4.363-.012-6.545,0a.46.46,0,0,1-.518-.357,3.145,3.145,0,0,0-1.935-1.886c-.18-.066-.293-.126-.293-.364.009-2.641,0-5.282,0-7.923a1.343,1.343,0,0,1,.019-.145m2.4,4.18a.866.866,0,0,0,.86.842.851.851,0,0,0,.832-.828.846.846,0,1,0-1.691-.015" transform="translate(-12.33 -28.817)" fill="#0dac00"/>
        <path id="Trazado_131201" data-name="Trazado 131201" d="M61.317,46.231c-.5,0-.995,0-1.493,0-.577.005-.939.307-.945.776-.006.486.336.774.927.775.459,0,.918-.006,1.378,0A2.54,2.54,0,0,1,63.771,50.1a2.491,2.491,0,0,1-2.138,2.644c-.238.043-.328.147-.309.382a2.473,2.473,0,0,1-.007.5.881.881,0,0,1-.839.8.893.893,0,0,1-.877-.8c0-.038,0-.076-.006-.115-.035-.706-.035-.7-.76-.708a6.576,6.576,0,0,1-.99-.05.834.834,0,0,1-.7-.9A.857.857,0,0,1,58,51.071c1.008-.007,2.016,0,3.023,0a1.693,1.693,0,0,0,.452-.054.758.758,0,0,0-.171-1.492c-.51-.013-1.02,0-1.531,0A2.545,2.545,0,0,1,57.149,47.2a2.486,2.486,0,0,1,2.14-2.64c.239-.044.326-.151.307-.385a2.516,2.516,0,0,1,.007-.5.862.862,0,0,1,.836-.795.889.889,0,0,1,.874.76,1.371,1.371,0,0,1,.013.191c.024.671.023.667.717.673a7.054,7.054,0,0,1,1.028.049.834.834,0,0,1,.706.9.86.86,0,0,1-.854.771c-.536.009-1.072,0-1.607,0v0" transform="translate(-40.854 -30.664)"/>
        <path id="Trazado_131202" data-name="Trazado 131202" d="M107.67,61.006a.829.829,0,1,1-.811-.849.844.844,0,0,1,.811.849" transform="translate(-75.798 -43.011)"/>
        <path id="Trazado_131203" data-name="Trazado 131203" d="M25.73,61.007a.846.846,0,1,1,1.691.015.851.851,0,0,1-.832.828.866.866,0,0,1-.86-.842" transform="translate(-18.397 -43.009)"/>
      </g>
    </g>
    <g id="Grupo_157995" data-name="Grupo 157995" transform="translate(-27 1.99)">
      <path id="Trazado_131204" data-name="Trazado 131204" d="M82.764,12.44c.395-.075.614.055.549.5-.055.374.075.583.489.518s.554.086.557.521c0,.457-.183.562-.573.51-.372-.05-.49.112-.483.482.012.58-.347.8-.908.627-.266-.083-.208-.3-.191-.464.047-.458-.058-.739-.6-.647-.419.071-.444-.191-.443-.513s.014-.581.438-.515c.458.071.674-.1.6-.58-.073-.462.224-.482.565-.441" transform="translate(352.825 3103.485)"/>
      <path id="Trazado_131205" data-name="Trazado 131205" d="M219.54,132.772c.395-.075.614.055.549.5-.055.374.075.583.489.518s.553.086.557.521c0,.457-.183.562-.573.51-.372-.05-.49.112-.483.482.012.58-.347.8-.908.627-.266-.083-.208-.3-.191-.464.047-.458-.058-.739-.6-.647-.419.071-.444-.191-.443-.513s.014-.581.438-.515c.458.071.674-.1.6-.58-.073-.462.224-.482.565-.441" transform="translate(248.047 3011.304)"/>
      <path id="Trazado_131206" data-name="Trazado 131206" d="M8.433,189.459c.395-.075.614.055.549.5-.055.374.075.583.489.518s.554.086.557.521c0,.457-.183.562-.573.51-.372-.05-.49.112-.483.482.012.58-.347.8-.908.627-.266-.083-.208-.3-.191-.464.047-.458-.058-.739-.6-.647-.419.071-.444-.191-.443-.513s.014-.581.438-.515c.458.071.674-.1.6-.58-.073-.462.224-.482.565-.441" transform="translate(409.768 2967.879)"/>
      <path id="Trazado_131207" data-name="Trazado 131207" d="M2.041,77.938c.5-.1.781.07.7.64-.069.477.1.742.623.66s.705.109.709.664c0,.582-.234.716-.729.649-.473-.064-.624.142-.615.613.015.738-.442,1.022-1.156.8-.339-.106-.265-.377-.243-.59.059-.583-.074-.941-.763-.824C.032,80.639,0,80.3,0,79.9s.017-.74.558-.656c.583.09.859-.123.762-.739-.092-.588.285-.614.72-.562" transform="translate(414.999 3053.314)" fill="#29c4bb"/>
      <path id="Trazado_131208" data-name="Trazado 131208" d="M187.9,10.552c.5-.1.781.07.7.64-.069.477.1.742.623.66s.705.109.709.664c0,.582-.234.716-.729.649-.473-.064-.624.142-.615.613.015.738-.442,1.022-1.156.8-.339-.106-.265-.377-.243-.59.059-.583-.074-.941-.763-.824-.533.091-.566-.244-.564-.653s.017-.74.558-.656c.583.09.859-.123.762-.739-.092-.588.285-.614.72-.562" transform="translate(272.621 3104.936)" fill="#29c4bb"/>
      <path id="Trazado_131209" data-name="Trazado 131209" d="M187.9,10.552c.5-.1.781.07.7.64-.069.477.1.742.623.66s.705.109.709.664c0,.582-.234.716-.729.649-.473-.064-.624.142-.615.613.015.738-.442,1.022-1.156.8-.339-.106-.265-.377-.243-.59.059-.583-.074-.941-.763-.824-.533.091-.566-.244-.564-.653s.017-.74.558-.656c.583.09.859-.123.762-.739-.092-.588.285-.614.72-.562" transform="translate(270.586 3151.936)" fill="#29c4bb"/>
    </g>
  </g>
</svg>
